  0
SECTION
  2
HEADER
  9
$ACADVER
  1
AC1014
  9
$HANDSEED
  5
FFFF
  9
$MEASUREMENT
 70
     1
  0
ENDSEC
  0
SECTION
  2
TABLES
  0
TABLE
  2
VPORT
  5
8
330
0
100
AcDbSymbolTable
 70
     4
  0
VPORT
  5
2E
330
8
100
AcDbSymbolTableRecord
100
AcDbViewportTableRecord
  2
*ACTIVE
 70
     0
 10
0.0
 20
0.0
 11
1.0
 21
1.0
 12
210.0
 22
148.5
 13
0.0
 23
0.0
 14
10.0
 24
10.0
 15
10.0
 25
10.0
 16
0.0
 26
0.0
 36
1.0
 17
0.0
 27
0.0
 37
0.0
 40
341.0
 41
1.24
 42
50.0
 43
0.0
 44
0.0
 50
0.0
 51
0.0
 71
     0
 72
   100
 73
     1
 74
     3
 75
     0
 76
     0
 77
     0
 78
     0
  0
ENDTAB
  0
TABLE
  2
LTYPE
  5
5
330
0
100
AcDbSymbolTable
 70
     1
  0
LTYPE
  5
14
330
5
100
AcDbSymbolTableRecord
100
AcDbLinetypeTableRecord
  2
BYBLOCK
 70
     0
  3

 72
    65
 73
     0
 40
0.0
  0
LTYPE
  5
15
330
5
100
AcDbSymbolTableRecord
100
AcDbLinetypeTableRecord
  2
BYLAYER
 70
     0
  3

 72
    65
 73
     0
 40
0.0
  0
LTYPE
  5
16
330
5
100
AcDbSymbolTableRecord
100
AcDbLinetypeTableRecord
  2
CONTINUOUS
 70
     0
  3
Solid line
 72
    65
 73
     0
 40
0.0
  0
ENDTAB
  0
TABLE
  2
LAYER
  5
2
100
AcDbSymbolTable
 70
3
  0
LAYER
  5
50
100
AcDbSymbolTableRecord
100
AcDbLayerTableRecord
  2
0
 70
0
  6
CONTINUOUS
  0
LAYER
  5
51
100
AcDbSymbolTableRecord
100
AcDbLayerTableRecord
  2
broken
 70
0
  6
CONTINUOUS
  0
LAYER
  5
52
100
AcDbSymbolTableRecord
100
AcDbLayerTableRecord
  2
broken-silk
 70
0
  6
CONTINUOUS
  0
ENDTAB
  0
TABLE
  2
STYLE
  5
3
330
0
100
AcDbSymbolTable
 70
     1
  0
STYLE
  5
11
330
3
100
AcDbSymbolTableRecord
100
AcDbTextStyleTableRecord
  2
STANDARD
 70
     0
 40
0.0
 41
1.0
 50
0.0
 71
     0
 42
2.5
  3
txt
  4

  0
ENDTAB
  0
TABLE
  2
VIEW
  5
6
330
0
100
AcDbSymbolTable
 70
     0
  0
ENDTAB
  0
TABLE
  2
UCS
  5
7
330
0
100
AcDbSymbolTable
 70
     0
  0
ENDTAB
  0
TABLE
  2
APPID
  5
9
330
0
100
AcDbSymbolTable
 70
     2
  0
APPID
  5
12
330
9
100
AcDbSymbolTableRecord
100
AcDbRegAppTableRecord
  2
ACAD
 70
     0
  0
ENDTAB
  0
TABLE
  2
DIMSTYLE
  5
A
330
0
100
AcDbSymbolTable
 70
     1
  0
DIMSTYLE
105
27
330
A
100
AcDbSymbolTableRecord
100
AcDbDimStyleTableRecord
  2
ISO-25
 70
     0
  3

  4

  5

  6

  7

 40
1.0
 41
2.5
 42
0.625
 43
3.75
 44
1.25
 45
0.0
 46
0.0
 47
0.0
 48
0.0
140
2.5
141
2.5
142
0.0
143
0.03937007874016
144
1.0
145
0.0
146
1.0
147
0.625
 71
     0
 72
     0
 73
     0
 74
     0
 75
     0
 76
     0
 77
     1
 78
     8
170
     0
171
     3
172
     1
173
     0
174
     0
175
     0
176
     0
177
     0
178
     0
270
     2
271
     2
272
     2
273
     2
274
     3
340
11
275
     0
280
     0
281
     0
282
     0
283
     0
284
     8
285
     0
286
     0
287
     3
288
     0
  0
ENDTAB
  0
TABLE
  2
BLOCK_RECORD
  5
1
330
0
100
AcDbSymbolTable
 70
     1
  0
BLOCK_RECORD
  5
1F
330
1
100
AcDbSymbolTableRecord
100
AcDbBlockTableRecord
  2
*MODEL_SPACE
  0
BLOCK_RECORD
  5
1B
330
1
100
AcDbSymbolTableRecord
100
AcDbBlockTableRecord
  2
*PAPER_SPACE
  0
ENDTAB
  0
ENDSEC
  0
SECTION
  2
BLOCKS
  0
BLOCK
  5
20
330
1F
100
AcDbEntity
  8
0
100
AcDbBlockBegin
  2
*MODEL_SPACE
 70
     0
 10
0.0
 20
0.0
 30
0.0
  3
*MODEL_SPACE
  1

  0
ENDBLK
  5
21
330
1F
100
AcDbEntity
  8
0
100
AcDbBlockEnd
  0
BLOCK
  5
1C
330
1B
100
AcDbEntity
 67
     1
  8
0
100
AcDbBlockBegin
  2
*PAPER_SPACE
  1

  0
ENDBLK
  5
1D
330
1B
100
AcDbEntity
 67
     1
  8
0
100
AcDbBlockEnd
  0
ENDSEC
  0
SECTION
  2
ENTITIES
  0
LWPOLYLINE
  5
100
100
AcDbEntity
  8
broken
 62
7
100
AcDbPolyline
 90
10
 70
0
 10
12.665397
 20
14.519279
 30
0.0
 10
12.665397
 20
14.016339
 30
0.0
 10
12.198682
 20
14.016339
 30
0.0
 10
12.198682
 20
12.770761
 30
0.0
 10
14.022069
 20
12.770761
 30
0.0
 10
14.022069
 20
14.016339
 30
0.0
 10
13.948407
 20
14.016339
 30
0.0
 10
13.948407
 20
14.519279
 30
0.0
 10
12.665395
 20
14.519279
 30
0.0
 10
12.665397
 20
14.519279
 30
0.0
  0
LWPOLYLINE
  5
101
100
AcDbEntity
  8
broken
 62
7
100
AcDbPolyline
 90
10
 70
0
 10
14.340256
 20
14.519279
 30
0.0
 10
14.340256
 20
14.016339
 30
0.0
 10
14.272027
 20
14.016339
 30
0.0
 10
14.272027
 20
12.770761
 30
0.0
 10
16.089981
 20
12.770761
 30
0.0
 10
16.089981
 20
14.016339
 30
0.0
 10
15.623265
 20
14.016339
 30
0.0
 10
15.623265
 20
14.519279
 30
0.0
 10
14.340254
 20
14.519279
 30
0.0
 10
14.340256
 20
14.519279
 30
0.0
  0
LWPOLYLINE
  5
102
100
AcDbEntity
  8
broken
 62
7
100
AcDbPolyline
 90
10
 70
0
 10
13.138753
 20
17.030360
 30
0.0
 10
13.138753
 20
15.784178
 30
0.0
 10
13.566826
 20
15.784178
 30
0.0
 10
13.566826
 20
15.281237
 30
0.0
 10
14.606519
 20
15.281237
 30
0.0
 10
14.606519
 20
15.784178
 30
0.0
 10
15.035195
 20
15.784178
 30
0.0
 10
15.035195
 20
17.030360
 30
0.0
 10
13.138753
 20
17.030360
 30
0.0
 10
13.138753
 20
17.030360
 30
0.0
  0
LWPOLYLINE
  5
103
100
AcDbEntity
  8
broken
 62
7
100
AcDbPolyline
 90
5
 70
0
 10
12.125587
 20
23.656774
 30
0.0
 10
16.162779
 20
23.656774
 30
0.0
 10
16.162779
 20
19.821480
 30
0.0
 10
12.125587
 20
19.821480
 30
0.0
 10
12.125587
 20
23.656774
 30
0.0
  0
LWPOLYLINE
  5
104
100
AcDbEntity
  8
broken
 62
7
100
AcDbPolyline
 90
5
 70
0
 10
11.605063
 20
11.879599
 30
0.0
 10
13.598952
 20
11.879599
 30
0.0
 10
13.598952
 20
9.700230
 30
0.0
 10
11.605063
 20
9.700230
 30
0.0
 10
11.605063
 20
11.879599
 30
0.0
  0
LWPOLYLINE
  5
105
100
AcDbEntity
  8
broken
 62
7
100
AcDbPolyline
 90
5
 70
0
 10
14.689413
 20
11.879599
 30
0.0
 10
16.683304
 20
11.879599
 30
0.0
 10
16.683304
 20
9.700230
 30
0.0
 10
14.689413
 20
9.700230
 30
0.0
 10
14.689413
 20
11.879599
 30
0.0
  0
LWPOLYLINE
  5
106
100
AcDbEntity
  8
broken
 62
7
100
AcDbPolyline
 90
5
 70
0
 10
3.768503
 20
15.800113
 30
0.0
 10
9.070550
 20
15.800113
 30
0.0
 10
9.070550
 20
10.763221
 30
0.0
 10
3.768503
 20
10.763221
 30
0.0
 10
3.768503
 20
15.800113
 30
0.0
  0
LWPOLYLINE
  5
107
100
AcDbEntity
  8
broken
 62
7
100
AcDbPolyline
 90
10
 70
0
 10
5.362192
 20
22.755309
 30
0.0
 10
5.362192
 20
18.920160
 30
0.0
 10
9.269793
 20
18.920160
 30
0.0
 10
9.269793
 20
19.618722
 30
0.0
 10
11.124576
 20
19.618722
 30
0.0
 10
11.124576
 20
21.798333
 30
0.0
 10
9.269793
 20
21.798333
 30
0.0
 10
9.269793
 20
22.755309
 30
0.0
 10
5.362192
 20
22.755309
 30
0.0
 10
5.362192
 20
22.755309
 30
0.0
  0
LWPOLYLINE
  5
108
100
AcDbEntity
  8
broken
 62
7
100
AcDbPolyline
 90
10
 70
0
 10
19.148079
 20
22.755309
 30
0.0
 10
19.148079
 20
21.798333
 30
0.0
 10
17.293297
 20
21.798333
 30
0.0
 10
17.293297
 20
19.618722
 30
0.0
 10
19.148079
 20
19.618722
 30
0.0
 10
19.148079
 20
18.920160
 30
0.0
 10
22.925870
 20
18.920160
 30
0.0
 10
22.925870
 20
22.755309
 30
0.0
 10
19.148079
 20
22.755309
 30
0.0
 10
19.148079
 20
22.755309
 30
0.0
  0
LWPOLYLINE
  5
109
100
AcDbEntity
  8
broken
 62
7
100
AcDbPolyline
 90
29
 70
0
 10
11.359653
 20
6.292559
 30
0.0
 10
11.681582
 20
6.229161
 30
0.0
 10
11.954811
 20
6.046701
 30
0.0
 10
12.136978
 20
5.773699
 30
0.0
 10
12.200333
 20
5.451880
 30
0.0
 10
12.200333
 20
5.106067
 30
0.0
 10
12.200333
 20
4.759818
 30
0.0
 10
12.200333
 20
4.413252
 30
0.0
 10
12.200333
 20
4.067312
 30
0.0
 10
12.136934
 20
3.745383
 30
0.0
 10
11.954475
 20
3.472155
 30
0.0
 10
11.681474
 20
3.289988
 30
0.0
 10
11.359654
 20
3.226633
 30
0.0
 10
11.037726
 20
3.290032
 30
0.0
 10
10.764497
 20
3.472491
 30
0.0
 10
10.582331
 20
3.745491
 30
0.0
 10
10.518978
 20
4.067311
 30
0.0
 10
10.518978
 20
4.413124
 30
0.0
 10
10.518978
 20
4.759373
 30
0.0
 10
10.518978
 20
5.105939
 30
0.0
 10
10.518978
 20
5.451879
 30
0.0
 10
10.582375
 20
5.773809
 30
0.0
 10
10.764834
 20
6.047038
 30
0.0
 10
11.037836
 20
6.229204
 30
0.0
 10
11.359654
 20
6.292559
 30
0.0
 10
11.359654
 20
6.292559
 30
0.0
 10
11.359654
 20
6.292559
 30
0.0
 10
11.359654
 20
6.292559
 30
0.0
 10
11.359654
 20
6.292559
 30
0.0
  0
LWPOLYLINE
  5
10a
100
AcDbEntity
  8
broken
 62
7
100
AcDbPolyline
 90
29
 70
0
 10
14.138452
 20
6.292559
 30
0.0
 10
14.460381
 20
6.229161
 30
0.0
 10
14.733610
 20
6.046701
 30
0.0
 10
14.915778
 20
5.773699
 30
0.0
 10
14.979133
 20
5.451880
 30
0.0
 10
14.979133
 20
5.106067
 30
0.0
 10
14.979133
 20
4.759818
 30
0.0
 10
14.979133
 20
4.413252
 30
0.0
 10
14.979133
 20
4.067312
 30
0.0
 10
14.915734
 20
3.745383
 30
0.0
 10
14.733274
 20
3.472155
 30
0.0
 10
14.460273
 20
3.289988
 30
0.0
 10
14.138453
 20
3.226633
 30
0.0
 10
13.816524
 20
3.290032
 30
0.0
 10
13.543295
 20
3.472491
 30
0.0
 10
13.361128
 20
3.745491
 30
0.0
 10
13.297773
 20
4.067311
 30
0.0
 10
13.297773
 20
4.413124
 30
0.0
 10
13.297773
 20
4.759373
 30
0.0
 10
13.297773
 20
5.105939
 30
0.0
 10
13.297773
 20
5.451879
 30
0.0
 10
13.361172
 20
5.773809
 30
0.0
 10
13.543631
 20
6.047038
 30
0.0
 10
13.816633
 20
6.229204
 30
0.0
 10
14.138452
 20
6.292559
 30
0.0
 10
14.138452
 20
6.292559
 30
0.0
 10
14.138452
 20
6.292559
 30
0.0
 10
14.138452
 20
6.292559
 30
0.0
 10
14.138452
 20
6.292559
 30
0.0
  0
LWPOLYLINE
  5
10b
100
AcDbEntity
  8
broken
 62
7
100
AcDbPolyline
 90
29
 70
0
 10
16.928712
 20
6.292559
 30
0.0
 10
17.250641
 20
6.229161
 30
0.0
 10
17.523870
 20
6.046701
 30
0.0
 10
17.706037
 20
5.773699
 30
0.0
 10
17.769391
 20
5.451880
 30
0.0
 10
17.769391
 20
5.106067
 30
0.0
 10
17.769391
 20
4.759818
 30
0.0
 10
17.769391
 20
4.413252
 30
0.0
 10
17.769391
 20
4.067312
 30
0.0
 10
17.705993
 20
3.745383
 30
0.0
 10
17.523534
 20
3.472155
 30
0.0
 10
17.250532
 20
3.289988
 30
0.0
 10
16.928713
 20
3.226633
 30
0.0
 10
16.606784
 20
3.290032
 30
0.0
 10
16.333556
 20
3.472491
 30
0.0
 10
16.151390
 20
3.745491
 30
0.0
 10
16.088035
 20
4.067311
 30
0.0
 10
16.088035
 20
4.413124
 30
0.0
 10
16.088035
 20
4.759373
 30
0.0
 10
16.088035
 20
5.105939
 30
0.0
 10
16.088035
 20
5.451879
 30
0.0
 10
16.151434
 20
5.773809
 30
0.0
 10
16.333893
 20
6.047038
 30
0.0
 10
16.606893
 20
6.229204
 30
0.0
 10
16.928712
 20
6.292559
 30
0.0
 10
16.928712
 20
6.292559
 30
0.0
 10
16.928712
 20
6.292559
 30
0.0
 10
16.928712
 20
6.292559
 30
0.0
 10
16.928712
 20
6.292559
 30
0.0
  0
LWPOLYLINE
  5
10c
100
AcDbEntity
  8
broken
 62
7
100
AcDbPolyline
 90
131
 70
0
 10
14.144184
 20
28.255295
 30
0.0
 10
13.405484
 20
28.236253
 30
0.0
 10
12.669019
 20
28.178963
 30
0.0
 10
11.936519
 20
28.083285
 30
0.0
 10
11.210006
 20
27.949268
 30
0.0
 10
10.491384
 20
27.777116
 30
0.0
 10
9.783199
 20
27.567394
 30
0.0
 10
9.087080
 20
27.320613
 30
0.0
 10
8.404697
 20
27.037388
 30
0.0
 10
7.738280
 20
26.718711
 30
0.0
 10
7.089160
 20
26.365299
 30
0.0
 10
6.459798
 20
25.978605
 30
0.0
 10
5.851350
 20
25.559473
 30
0.0
 10
5.265583
 20
25.109208
 30
0.0
 10
4.704017
 20
24.629058
 30
0.0
 10
4.168036
 20
24.120240
 30
0.0
 10
3.659295
 20
23.584335
 30
0.0
 10
3.179239
 20
23.022882
 30
0.0
 10
2.728888
 20
22.437008
 30
0.0
 10
2.309859
 20
21.828717
 30
0.0
 10
1.923113
 20
21.199285
 30
0.0
 10
1.569785
 20
20.550339
 30
0.0
 10
1.250955
 20
19.883614
 30
0.0
 10
0.967815
 20
19.201442
 30
0.0
 10
0.720996
 20
18.505236
 30
0.0
 10
0.511177
 20
17.796705
 30
0.0
 10
0.339069
 20
17.078215
 30
0.0
 10
0.205054
 20
16.351659
 30
0.0
 10
0.109391
 20
15.619211
 30
0.0
 10
0.052106
 20
14.882706
 30
0.0
 10
0.033073
 20
14.144184
 30
0.0
 10
0.052115
 20
13.405484
 30
0.0
 10
0.109405
 20
12.669019
 30
0.0
 10
0.205083
 20
11.936519
 30
0.0
 10
0.339100
 20
11.210007
 30
0.0
 10
0.511252
 20
10.491384
 30
0.0
 10
0.720974
 20
9.783199
 30
0.0
 10
0.967756
 20
9.087080
 30
0.0
 10
1.250981
 20
8.404697
 30
0.0
 10
1.569657
 20
7.738280
 30
0.0
 10
1.923069
 20
7.089160
 30
0.0
 10
2.309764
 20
6.459798
 30
0.0
 10
2.728895
 20
5.851350
 30
0.0
 10
3.179160
 20
5.265583
 30
0.0
 10
3.659310
 20
4.704017
 30
0.0
 10
4.168128
 20
4.168036
 30
0.0
 10
4.704033
 20
3.659296
 30
0.0
 10
5.265486
 20
3.179239
 30
0.0
 10
5.851360
 20
2.728888
 30
0.0
 10
6.459651
 20
2.309859
 30
0.0
 10
7.089083
 20
1.923114
 30
0.0
 10
7.738029
 20
1.569785
 30
0.0
 10
8.404754
 20
1.250956
 30
0.0
 10
9.086926
 20
0.967815
 30
0.0
 10
9.783132
 20
0.720996
 30
0.0
 10
10.491663
 20
0.511178
 30
0.0
 10
11.210153
 20
0.339070
 30
0.0
 10
11.936709
 20
0.205054
 30
0.0
 10
12.669157
 20
0.109391
 30
0.0
 10
13.405662
 20
0.052107
 30
0.0
 10
14.144184
 20
0.033074
 30
0.0
 10
14.882884
 20
0.052116
 30
0.0
 10
15.619349
 20
0.109406
 30
0.0
 10
16.351848
 20
0.205084
 30
0.0
 10
17.078361
 20
0.339101
 30
0.0
 10
17.796983
 20
0.511252
 30
0.0
 10
18.505168
 20
0.720975
 30
0.0
 10
19.201287
 20
0.967756
 30
0.0
 10
19.883670
 20
1.250981
 30
0.0
 10
20.550087
 20
1.569657
 30
0.0
 10
21.199207
 20
1.923069
 30
0.0
 10
21.828569
 20
2.309764
 30
0.0
 10
22.437017
 20
2.728896
 30
0.0
 10
23.022784
 20
3.179160
 30
0.0
 10
23.584350
 20
3.659310
 30
0.0
 10
24.120331
 20
4.168129
 30
0.0
 10
24.629071
 20
4.704033
 30
0.0
 10
25.109128
 20
5.265487
 30
0.0
 10
25.559479
 20
5.851361
 30
0.0
 10
25.978508
 20
6.459652
 30
0.0
 10
26.365253
 20
7.089083
 30
0.0
 10
26.718582
 20
7.738030
 30
0.0
 10
27.037411
 20
8.404755
 30
0.0
 10
27.320552
 20
9.086926
 30
0.0
 10
27.567370
 20
9.783132
 30
0.0
 10
27.777189
 20
10.491663
 30
0.0
 10
27.949297
 20
11.210153
 30
0.0
 10
28.083312
 20
11.936709
 30
0.0
 10
28.178975
 20
12.669157
 30
0.0
 10
28.236260
 20
13.405662
 30
0.0
 10
28.255293
 20
14.144184
 30
0.0
 10
28.236251
 20
14.882884
 30
0.0
 10
28.178961
 20
15.619349
 30
0.0
 10
28.083283
 20
16.351849
 30
0.0
 10
27.949266
 20
17.078362
 30
0.0
 10
27.777114
 20
17.796984
 30
0.0
 10
27.567392
 20
18.505169
 30
0.0
 10
27.320611
 20
19.201288
 30
0.0
 10
27.037386
 20
19.883671
 30
0.0
 10
26.718710
 20
20.550089
 30
0.0
 10
26.365298
 20
21.199208
 30
0.0
 10
25.978603
 20
21.828570
 30
0.0
 10
25.559471
 20
22.437018
 30
0.0
 10
25.109207
 20
23.022785
 30
0.0
 10
24.629056
 20
23.584351
 30
0.0
 10
24.120238
 20
24.120332
 30
0.0
 10
23.584334
 20
24.629073
 30
0.0
 10
23.022880
 20
25.109129
 30
0.0
 10
22.437006
 20
25.559480
 30
0.0
 10
21.828715
 20
25.978509
 30
0.0
 10
21.199284
 20
26.365255
 30
0.0
 10
20.550338
 20
26.718584
 30
0.0
 10
19.883613
 20
27.037413
 30
0.0
 10
19.201441
 20
27.320553
 30
0.0
 10
18.505236
 20
27.567372
 30
0.0
 10
17.796705
 20
27.777191
 30
0.0
 10
17.078215
 20
27.949299
 30
0.0
 10
16.351659
 20
28.083315
 30
0.0
 10
15.619211
 20
28.178978
 30
0.0
 10
14.882706
 20
28.236262
 30
0.0
 10
14.144184
 20
28.255295
 30
0.0
 10
14.144184
 20
28.255295
 30
0.0
 10
14.144184
 20
28.255295
 30
0.0
 10
14.144184
 20
28.255295
 30
0.0
 10
14.144184
 20
28.255295
 30
0.0
 10
14.144184
 20
28.255295
 30
0.0
 10
14.144184
 20
28.255295
 30
0.0
 10
14.144184
 20
28.255295
 30
0.0
 10
14.144184
 20
28.255295
 30
0.0
 10
14.144184
 20
28.255295
 30
0.0
 10
14.144184
 20
28.255295
 30
0.0
  0
LWPOLYLINE
  5
10d
100
AcDbEntity
  8
broken
 62
7
100
AcDbPolyline
 90
91
 70
0
 10
14.144184
 20
27.378164
 30
0.0
 10
15.182829
 20
27.338099
 30
0.0
 10
16.215346
 20
27.217388
 30
0.0
 10
17.234779
 20
27.016073
 30
0.0
 10
18.235168
 20
26.734940
 30
0.0
 10
19.210671
 20
26.375425
 30
0.0
 10
20.154595
 20
25.940032
 30
0.0
 10
21.061118
 20
25.431717
 30
0.0
 10
21.924947
 20
24.853760
 30
0.0
 10
22.741032
 20
24.209784
 30
0.0
 10
23.504130
 20
23.504130
 30
0.0
 10
24.209961
 20
22.740825
 30
0.0
 10
24.853950
 20
21.924687
 30
0.0
 10
25.431831
 20
21.060934
 30
0.0
 10
25.940157
 20
20.154352
 30
0.0
 10
26.375461
 20
19.210586
 30
0.0
 10
26.734928
 20
18.235206
 30
0.0
 10
27.016043
 20
17.234907
 30
0.0
 10
27.217408
 20
16.215221
 30
0.0
 10
27.338100
 20
15.182835
 30
0.0
 10
27.378165
 20
14.144184
 30
0.0
 10
27.338100
 20
13.105539
 30
0.0
 10
27.217388
 20
12.073022
 30
0.0
 10
27.016073
 20
11.053588
 30
0.0
 10
26.734940
 20
10.053199
 30
0.0
 10
26.375426
 20
9.077697
 30
0.0
 10
25.940032
 20
8.133772
 30
0.0
 10
25.431718
 20
7.227250
 30
0.0
 10
24.853760
 20
6.363421
 30
0.0
 10
24.209785
 20
5.547337
 30
0.0
 10
23.504130
 20
4.784239
 30
0.0
 10
22.740825
 20
4.078408
 30
0.0
 10
21.924686
 20
3.434420
 30
0.0
 10
21.060933
 20
2.856539
 30
0.0
 10
20.154351
 20
2.348212
 30
0.0
 10
19.210585
 20
1.912908
 30
0.0
 10
18.235205
 20
1.553441
 30
0.0
 10
17.234906
 20
1.272326
 30
0.0
 10
16.215220
 20
1.070961
 30
0.0
 10
15.182835
 20
0.950270
 30
0.0
 10
14.144184
 20
0.910204
 30
0.0
 10
13.105538
 20
0.950269
 30
0.0
 10
12.073022
 20
1.070981
 30
0.0
 10
11.053588
 20
1.272296
 30
0.0
 10
10.053199
 20
1.553429
 30
0.0
 10
9.077697
 20
1.912944
 30
0.0
 10
8.133772
 20
2.348337
 30
0.0
 10
7.227250
 20
2.856652
 30
0.0
 10
6.363421
 20
3.434609
 30
0.0
 10
5.547336
 20
4.078585
 30
0.0
 10
4.784238
 20
4.784239
 30
0.0
 10
4.078407
 20
5.547544
 30
0.0
 10
3.434419
 20
6.363682
 30
0.0
 10
2.856538
 20
7.227434
 30
0.0
 10
2.348212
 20
8.134016
 30
0.0
 10
1.912908
 20
9.077782
 30
0.0
 10
1.553440
 20
10.053162
 30
0.0
 10
1.272326
 20
11.053461
 30
0.0
 10
1.070961
 20
12.073147
 30
0.0
 10
0.950269
 20
13.105533
 30
0.0
 10
0.910204
 20
14.144184
 30
0.0
 10
0.950269
 20
15.182830
 30
0.0
 10
1.070980
 20
16.215346
 30
0.0
 10
1.272296
 20
17.234780
 30
0.0
 10
1.553428
 20
18.235169
 30
0.0
 10
1.912943
 20
19.210671
 30
0.0
 10
2.348336
 20
20.154596
 30
0.0
 10
2.856651
 20
21.061118
 30
0.0
 10
3.434608
 20
21.924947
 30
0.0
 10
4.078584
 20
22.741032
 30
0.0
 10
4.784238
 20
23.504130
 30
0.0
 10
5.547543
 20
24.209961
 30
0.0
 10
6.363681
 20
24.853949
 30
0.0
 10
7.227434
 20
25.431830
 30
0.0
 10
8.134016
 20
25.940156
 30
0.0
 10
9.077782
 20
26.375460
 30
0.0
 10
10.053162
 20
26.734928
 30
0.0
 10
11.053461
 20
27.016042
 30
0.0
 10
12.073147
 20
27.217407
 30
0.0
 10
13.105533
 20
27.338099
 30
0.0
 10
14.144184
 20
27.378164
 30
0.0
 10
14.144184
 20
27.378164
 30
0.0
 10
14.144184
 20
27.378164
 30
0.0
 10
14.144184
 20
27.378164
 30
0.0
 10
14.144184
 20
27.378164
 30
0.0
 10
14.144184
 20
27.378164
 30
0.0
 10
14.144184
 20
27.378164
 30
0.0
 10
14.144184
 20
27.378164
 30
0.0
 10
14.144184
 20
27.378164
 30
0.0
 10
14.144184
 20
27.378164
 30
0.0
 10
14.144184
 20
27.378164
 30
0.0
  0
LWPOLYLINE
  5
10e
100
AcDbEntity
  8
broken-silk
 62
7
100
AcDbPolyline
 90
85
 70
0
 10
3.578083
 20
4.907469
 30
0.0
 10
3.572320
 20
4.906704
 30
0.0
 10
3.566388
 20
4.905494
 30
0.0
 10
3.560695
 20
4.903789
 30
0.0
 10
3.554935
 20
4.901404
 30
0.0
 10
3.548136
 20
4.897208
 30
0.0
 10
3.542399
 20
4.891878
 30
0.0
 10
3.537765
 20
4.885425
 30
0.0
 10
3.534536
 20
4.877702
 30
0.0
 10
3.534448
 20
4.877530
 30
0.0
 10
3.534307
 20
4.877253
 30
0.0
 10
3.534081
 20
4.876810
 30
0.0
 10
3.533972
 20
4.876598
 30
0.0
 10
3.533972
 20
4.876044
 30
0.0
 10
3.533972
 20
4.875666
 30
0.0
 10
3.533972
 20
4.875494
 30
0.0
 10
3.533972
 20
4.875494
 30
0.0
 10
3.528437
 20
4.829300
 30
0.0
 10
3.526405
 20
4.783153
 30
0.0
 10
3.526318
 20
4.737026
 30
0.0
 10
3.527334
 20
4.690837
 30
0.0
 10
3.528491
 20
4.655429
 30
0.0
 10
3.529761
 20
4.619716
 30
0.0
 10
3.530862
 20
4.583970
 30
0.0
 10
3.530662
 20
4.548623
 30
0.0
 10
3.529956
 20
4.542086
 30
0.0
 10
3.529279
 20
4.535821
 30
0.0
 10
3.528573
 20
4.529342
 30
0.0
 10
3.527868
 20
4.522716
 30
0.0
 10
3.534407
 20
4.522299
 30
0.0
 10
3.540672
 20
4.521898
 30
0.0
 10
3.547152
 20
4.521483
 30
0.0
 10
3.553778
 20
4.521060
 30
0.0
 10
3.566597
 20
4.520306
 30
0.0
 10
3.579785
 20
4.519778
 30
0.0
 10
3.593109
 20
4.519471
 30
0.0
 10
3.606142
 20
4.519404
 30
0.0
 10
3.628754
 20
4.519773
 30
0.0
 10
3.651235
 20
4.521122
 30
0.0
 10
3.673621
 20
4.524182
 30
0.0
 10
3.695437
 20
4.529876
 30
0.0
 10
3.696001
 20
4.529876
 30
0.0
 10
3.696368
 20
4.529876
 30
0.0
 10
3.696540
 20
4.529876
 30
0.0
 10
3.696540
 20
4.529876
 30
0.0
 10
3.696822
 20
4.530151
 30
0.0
 10
3.697105
 20
4.530426
 30
0.0
 10
3.697105
 20
4.530426
 30
0.0
 10
3.697105
 20
4.530426
 30
0.0
 10
3.728058
 20
4.544866
 30
0.0
 10
3.757883
 20
4.562016
 30
0.0
 10
3.785493
 20
4.582048
 30
0.0
 10
3.810103
 20
4.605392
 30
0.0
 10
3.831013
 20
4.633876
 30
0.0
 10
3.845186
 20
4.666658
 30
0.0
 10
3.850709
 20
4.701750
 30
0.0
 10
3.847032
 20
4.737132
 30
0.0
 10
3.847032
 20
4.737407
 30
0.0
 10
3.847032
 20
4.737682
 30
0.0
 10
3.847032
 20
4.737682
 30
0.0
 10
3.847032
 20
4.737682
 30
0.0
 10
3.830209
 20
4.782795
 30
0.0
 10
3.804456
 20
4.823331
 30
0.0
 10
3.770646
 20
4.857845
 30
0.0
 10
3.730185
 20
4.883759
 30
0.0
 10
3.729925
 20
4.883845
 30
0.0
 10
3.729502
 20
4.883983
 30
0.0
 10
3.728824
 20
4.884203
 30
0.0
 10
3.728514
 20
4.884309
 30
0.0
 10
3.728175
 20
4.884395
 30
0.0
 10
3.727611
 20
4.884533
 30
0.0
 10
3.726736
 20
4.884753
 30
0.0
 10
3.726313
 20
4.884859
 30
0.0
 10
3.702044
 20
4.891607
 30
0.0
 10
3.677471
 20
4.897371
 30
0.0
 10
3.653039
 20
4.902121
 30
0.0
 10
3.628198
 20
4.905806
 30
0.0
 10
3.615789
 20
4.907135
 30
0.0
 10
3.603210
 20
4.908013
 30
0.0
 10
3.590355
 20
4.908205
 30
0.0
 10
3.578039
 20
4.907457
 30
0.0
 10
3.578047
 20
4.907458
 30
0.0
 10
3.578047
 20
4.907458
 30
0.0
 10
3.578047
 20
4.907458
 30
0.0
 10
3.578047
 20
4.907458
 30
0.0
  0
LWPOLYLINE
  5
10f
100
AcDbEntity
  8
broken-silk
 62
7
100
AcDbPolyline
 90
45
 70
0
 10
3.583008
 20
4.856747
 30
0.0
 10
3.583273
 20
4.856749
 30
0.0
 10
3.583583
 20
4.856747
 30
0.0
 10
3.583583
 20
4.856747
 30
0.0
 10
3.583583
 20
4.856747
 30
0.0
 10
3.593094
 20
4.857147
 30
0.0
 10
3.602963
 20
4.856834
 30
0.0
 10
3.612836
 20
4.856095
 30
0.0
 10
3.622166
 20
4.855096
 30
0.0
 10
3.644399
 20
4.851799
 30
0.0
 10
3.666057
 20
4.847648
 30
0.0
 10
3.687737
 20
4.842706
 30
0.0
 10
3.709260
 20
4.836905
 30
0.0
 10
3.739716
 20
4.816446
 30
0.0
 10
3.764871
 20
4.790117
 30
0.0
 10
3.784872
 20
4.759128
 30
0.0
 10
3.798004
 20
4.725009
 30
0.0
 10
3.800600
 20
4.701963
 30
0.0
 10
3.796869
 20
4.678853
 30
0.0
 10
3.786977
 20
4.658088
 30
0.0
 10
3.772654
 20
4.639570
 30
0.0
 10
3.751646
 20
4.620164
 30
0.0
 10
3.728210
 20
4.603764
 30
0.0
 10
3.703569
 20
4.589846
 30
0.0
 10
3.677845
 20
4.577834
 30
0.0
 10
3.659946
 20
4.573942
 30
0.0
 10
3.641861
 20
4.571814
 30
0.0
 10
3.623697
 20
4.570589
 30
0.0
 10
3.605635
 20
4.570118
 30
0.0
 10
3.599466
 20
4.570154
 30
0.0
 10
3.593381
 20
4.570370
 30
0.0
 10
3.587051
 20
4.570827
 30
0.0
 10
3.580831
 20
4.571222
 30
0.0
 10
3.580757
 20
4.601297
 30
0.0
 10
3.579995
 20
4.631766
 30
0.0
 10
3.579007
 20
4.662317
 30
0.0
 10
3.578047
 20
4.692490
 30
0.0
 10
3.577201
 20
4.733824
 30
0.0
 10
3.577353
 20
4.775046
 30
0.0
 10
3.578961
 20
4.816263
 30
0.0
 10
3.583003
 20
4.856752
 30
0.0
 10
3.582997
 20
4.856751
 30
0.0
 10
3.582997
 20
4.856751
 30
0.0
 10
3.582997
 20
4.856751
 30
0.0
 10
3.582997
 20
4.856751
 30
0.0
  0
LWPOLYLINE
  5
110
100
AcDbEntity
  8
broken-silk
 62
7
100
AcDbPolyline
 90
65
 70
0
 10
4.521154
 20
3.752960
 30
0.0
 10
4.494348
 20
3.753299
 30
0.0
 10
4.467692
 20
3.753197
 30
0.0
 10
4.441093
 20
3.751024
 30
0.0
 10
4.414970
 20
3.745117
 30
0.0
 10
4.372786
 20
3.723349
 30
0.0
 10
4.335610
 20
3.693187
 30
0.0
 10
4.307357
 20
3.654600
 30
0.0
 10
4.298171
 20
3.608557
 30
0.0
 10
4.315747
 20
3.561861
 30
0.0
 10
4.353931
 20
3.529530
 30
0.0
 10
4.400026
 20
3.510297
 30
0.0
 10
4.448532
 20
3.496044
 30
0.0
 10
4.465014
 20
3.493044
 30
0.0
 10
4.481885
 20
3.489249
 30
0.0
 10
4.497796
 20
3.483776
 30
0.0
 10
4.511261
 20
3.473690
 30
0.0
 10
4.516039
 20
3.450384
 30
0.0
 10
4.511385
 20
3.427055
 30
0.0
 10
4.497328
 20
3.408036
 30
0.0
 10
4.479252
 20
3.392771
 30
0.0
 10
4.423944
 20
3.374982
 30
0.0
 10
4.366407
 20
3.366699
 30
0.0
 10
4.308066
 20
3.366304
 30
0.0
 10
4.250158
 20
3.370458
 30
0.0
 10
4.238386
 20
3.361585
 30
0.0
 10
4.234229
 20
3.347423
 30
0.0
 10
4.237861
 20
3.332785
 30
0.0
 10
4.244220
 20
3.318846
 30
0.0
 10
4.309849
 20
3.314643
 30
0.0
 10
4.375720
 20
3.315829
 30
0.0
 10
4.441270
 20
3.325040
 30
0.0
 10
4.503344
 20
3.346540
 30
0.0
 10
4.538823
 20
3.375094
 30
0.0
 10
4.563212
 20
3.413978
 30
0.0
 10
4.572065
 20
3.459169
 30
0.0
 10
4.558931
 20
3.502503
 30
0.0
 10
4.540595
 20
3.521319
 30
0.0
 10
4.517309
 20
3.534462
 30
0.0
 10
4.491751
 20
3.542824
 30
0.0
 10
4.465941
 20
3.548124
 30
0.0
 10
4.433604
 20
3.553715
 30
0.0
 10
4.402663
 20
3.565410
 30
0.0
 10
4.376120
 20
3.584951
 30
0.0
 10
4.355492
 20
3.610685
 30
0.0
 10
4.367752
 20
3.638523
 30
0.0
 10
4.386918
 20
3.662193
 30
0.0
 10
4.410492
 20
3.681850
 30
0.0
 10
4.436866
 20
3.697163
 30
0.0
 10
4.471901
 20
3.702060
 30
0.0
 10
4.507016
 20
3.701495
 30
0.0
 10
4.542094
 20
3.697581
 30
0.0
 10
4.576740
 20
3.694431
 30
0.0
 10
4.588432
 20
3.705164
 30
0.0
 10
4.595332
 20
3.719498
 30
0.0
 10
4.594768
 20
3.735503
 30
0.0
 10
4.589307
 20
3.750432
 30
0.0
 10
4.572540
 20
3.751251
 30
0.0
 10
4.555404
 20
3.752041
 30
0.0
 10
4.538369
 20
3.752662
 30
0.0
 10
4.521159
 20
3.752944
 30
0.0
 10
4.521160
 20
3.752956
 30
0.0
 10
4.521160
 20
3.752956
 30
0.0
 10
4.521160
 20
3.752956
 30
0.0
 10
4.521160
 20
3.752956
 30
0.0
  0
LWPOLYLINE
  5
111
100
AcDbEntity
  8
broken-silk
 62
7
100
AcDbPolyline
 90
21
 70
0
 10
2.868473
 20
3.542376
 30
0.0
 10
2.859354
 20
3.531900
 30
0.0
 10
2.856496
 20
3.518099
 30
0.0
 10
2.858612
 20
3.504307
 30
0.0
 10
2.863252
 20
3.490588
 30
0.0
 10
2.913689
 20
3.485556
 30
0.0
 10
2.964190
 20
3.480519
 30
0.0
 10
3.014736
 20
3.475478
 30
0.0
 10
3.065192
 20
3.470446
 30
0.0
 10
3.080141
 20
3.476062
 30
0.0
 10
3.083342
 20
3.491788
 30
0.0
 10
3.078121
 20
3.507330
 30
0.0
 10
3.070410
 20
3.522237
 30
0.0
 10
3.019577
 20
3.522773
 30
0.0
 10
2.969168
 20
3.527858
 30
0.0
 10
2.918833
 20
3.535196
 30
0.0
 10
2.868470
 20
3.542373
 30
0.0
 10
2.868470
 20
3.542373
 30
0.0
 10
2.868470
 20
3.542373
 30
0.0
 10
2.868470
 20
3.542373
 30
0.0
 10
2.868470
 20
3.542373
 30
0.0
  0
LWPOLYLINE
  5
112
100
AcDbEntity
  8
broken-silk
 62
7
100
AcDbPolyline
 90
85
 70
0
 10
2.919540
 20
3.747011
 30
0.0
 10
2.891086
 20
3.746982
 30
0.0
 10
2.862982
 20
3.744470
 30
0.0
 10
2.835183
 20
3.739958
 30
0.0
 10
2.807802
 20
3.732719
 30
0.0
 10
2.750769
 20
3.695791
 30
0.0
 10
2.707962
 20
3.643773
 30
0.0
 10
2.681318
 20
3.581214
 30
0.0
 10
2.671204
 20
3.514313
 30
0.0
 10
2.671825
 20
3.476154
 30
0.0
 10
2.676841
 20
3.438203
 30
0.0
 10
2.688310
 20
3.401492
 30
0.0
 10
2.707707
 20
3.368477
 30
0.0
 10
2.747089
 20
3.338004
 30
0.0
 10
2.794327
 20
3.322010
 30
0.0
 10
2.843906
 20
3.316202
 30
0.0
 10
2.893823
 20
3.314340
 30
0.0
 10
2.905578
 20
3.316146
 30
0.0
 10
2.917189
 20
3.318178
 30
0.0
 10
2.928904
 20
3.320436
 30
0.0
 10
2.940757
 20
3.322976
 30
0.0
 10
2.935812
 20
3.323794
 30
0.0
 10
2.931074
 20
3.324584
 30
0.0
 10
2.926172
 20
3.325403
 30
0.0
 10
2.921159
 20
3.326221
 30
0.0
 10
2.936408
 20
3.322589
 30
0.0
 10
2.952066
 20
3.324423
 30
0.0
 10
2.965437
 20
3.332585
 30
0.0
 10
2.976904
 20
3.344021
 30
0.0
 10
2.983387
 20
3.355682
 30
0.0
 10
2.988492
 20
3.367691
 30
0.0
 10
2.992601
 20
3.379900
 30
0.0
 10
2.996149
 20
3.392752
 30
0.0
 10
2.999281
 20
3.406598
 30
0.0
 10
3.001709
 20
3.420475
 30
0.0
 10
3.003515
 20
3.434693
 30
0.0
 10
3.004587
 20
3.448680
 30
0.0
 10
3.001488
 20
3.482611
 30
0.0
 10
2.973704
 20
3.498238
 30
0.0
 10
2.939905
 20
3.494408
 30
0.0
 10
2.906201
 20
3.489215
 30
0.0
 10
2.919550
 20
3.481575
 30
0.0
 10
2.932823
 20
3.473320
 30
0.0
 10
2.945083
 20
3.463874
 30
0.0
 10
2.952796
 20
3.451377
 30
0.0
 10
2.951836
 20
3.439609
 30
0.0
 10
2.950312
 20
3.428388
 30
0.0
 10
2.948195
 20
3.416797
 30
0.0
 10
2.945627
 20
3.405525
 30
0.0
 10
2.943680
 20
3.399440
 30
0.0
 10
2.940714
 20
3.393595
 30
0.0
 10
2.936788
 20
3.388450
 30
0.0
 10
2.933297
 20
3.383661
 30
0.0
 10
2.907581
 20
3.372064
 30
0.0
 10
2.880205
 20
3.366132
 30
0.0
 10
2.852260
 20
3.365398
 30
0.0
 10
2.824588
 20
3.367487
 30
0.0
 10
2.777618
 20
3.381231
 30
0.0
 10
2.742532
 20
3.414808
 30
0.0
 10
2.729099
 20
3.461754
 30
0.0
 10
2.727214
 20
3.510635
 30
0.0
 10
2.737665
 20
3.565019
 30
0.0
 10
2.761277
 20
3.614999
 30
0.0
 10
2.797864
 20
3.655660
 30
0.0
 10
2.845714
 20
3.682643
 30
0.0
 10
2.863108
 20
3.688214
 30
0.0
 10
2.880589
 20
3.692453
 30
0.0
 10
2.898611
 20
3.694993
 30
0.0
 10
2.916304
 20
3.695209
 30
0.0
 10
2.929012
 20
3.694221
 30
0.0
 10
2.941588
 20
3.692980
 30
0.0
 10
2.954302
 20
3.691456
 30
0.0
 10
2.967191
 20
3.689621
 30
0.0
 10
2.985265
 20
3.697255
 30
0.0
 10
2.998834
 20
3.710940
 30
0.0
 10
2.990957
 20
3.728348
 30
0.0
 10
2.975283
 20
3.741051
 30
0.0
 10
2.961671
 20
3.742941
 30
0.0
 10
2.947642
 20
3.744578
 30
0.0
 10
2.933446
 20
3.745961
 30
0.0
 10
2.919535
 20
3.747005
 30
0.0
 10
2.919533
 20
3.747008
 30
0.0
 10
2.919533
 20
3.747008
 30
0.0
 10
2.919533
 20
3.747008
 30
0.0
 10
2.919533
 20
3.747008
 30
0.0
  0
LWPOLYLINE
  5
113
100
AcDbEntity
  8
broken-silk
 62
7
100
AcDbPolyline
 90
17
 70
0
 10
3.687313
 20
2.256672
 30
0.0
 10
3.731147
 20
2.228068
 30
0.0
 10
3.769607
 20
2.192778
 30
0.0
 10
3.803116
 20
2.152383
 30
0.0
 10
3.829224
 20
2.107124
 30
0.0
 10
3.841343
 20
2.109268
 30
0.0
 10
3.853055
 20
2.112695
 30
0.0
 10
3.863912
 20
2.118830
 30
0.0
 10
3.866480
 20
2.130133
 30
0.0
 10
3.833079
 20
2.183439
 30
0.0
 10
3.792509
 20
2.231692
 30
0.0
 10
3.742260
 20
2.269931
 30
0.0
 10
3.687316
 20
2.256683
 30
0.0
 10
3.687316
 20
2.256681
 30
0.0
 10
3.687316
 20
2.256681
 30
0.0
 10
3.687316
 20
2.256681
 30
0.0
 10
3.687316
 20
2.256681
 30
0.0
  0
LWPOLYLINE
  5
114
100
AcDbEntity
  8
broken-silk
 62
7
100
AcDbPolyline
 90
41
 70
0
 10
3.650610
 20
2.369889
 30
0.0
 10
3.668495
 20
2.371018
 30
0.0
 10
3.686190
 20
2.372147
 30
0.0
 10
3.703682
 20
2.373276
 30
0.0
 10
3.721485
 20
2.374404
 30
0.0
 10
3.747266
 20
2.369172
 30
0.0
 10
3.769562
 20
2.355521
 30
0.0
 10
3.777221
 20
2.331024
 30
0.0
 10
3.760931
 20
2.310611
 30
0.0
 10
3.749625
 20
2.307495
 30
0.0
 10
3.738288
 20
2.305181
 30
0.0
 10
3.726198
 20
2.303742
 30
0.0
 10
3.714500
 20
2.303938
 30
0.0
 10
3.684799
 20
2.300915
 30
0.0
 10
3.657694
 20
2.289971
 30
0.0
 10
3.659218
 20
2.265782
 30
0.0
 10
3.687311
 20
2.256688
 30
0.0
 10
3.713213
 20
2.255870
 30
0.0
 10
3.738938
 20
2.258354
 30
0.0
 10
3.763976
 20
2.264441
 30
0.0
 10
3.786850
 20
2.276342
 30
0.0
 10
3.798348
 20
2.286573
 30
0.0
 10
3.808545
 20
2.297817
 30
0.0
 10
3.817113
 20
2.310232
 30
0.0
 10
3.822707
 20
2.324216
 30
0.0
 10
3.824315
 20
2.335059
 30
0.0
 10
3.824347
 20
2.346108
 30
0.0
 10
3.822569
 20
2.357151
 30
0.0
 10
3.819586
 20
2.367650
 30
0.0
 10
3.811481
 20
2.382122
 30
0.0
 10
3.799390
 20
2.394057
 30
0.0
 10
3.785612
 20
2.404037
 30
0.0
 10
3.771566
 20
2.413220
 30
0.0
 10
3.730547
 20
2.416138
 30
0.0
 10
3.689804
 20
2.420228
 30
0.0
 10
3.651747
 20
2.409994
 30
0.0
 10
3.650590
 20
2.369894
 30
0.0
 10
3.650592
 20
2.369896
 30
0.0
 10
3.650592
 20
2.369896
 30
0.0
 10
3.650592
 20
2.369896
 30
0.0
 10
3.650592
 20
2.369896
 30
0.0
  0
LWPOLYLINE
  5
115
100
AcDbEntity
  8
broken-silk
 62
7
100
AcDbPolyline
 90
17
 70
0
 10
3.648306
 20
2.389336
 30
0.0
 10
3.647742
 20
2.318864
 30
0.0
 10
3.647149
 20
2.248303
 30
0.0
 10
3.646557
 20
2.177677
 30
0.0
 10
3.645992
 20
2.107179
 30
0.0
 10
3.654394
 20
2.099675
 30
0.0
 10
3.665815
 20
2.100719
 30
0.0
 10
3.677155
 20
2.104346
 30
0.0
 10
3.688057
 20
2.107603
 30
0.0
 10
3.688622
 20
2.178498
 30
0.0
 10
3.689215
 20
2.249483
 30
0.0
 10
3.689807
 20
2.320533
 30
0.0
 10
3.690372
 20
2.391455
 30
0.0
 10
3.679757
 20
2.390918
 30
0.0
 10
3.669256
 20
2.390382
 30
0.0
 10
3.658873
 20
2.389846
 30
0.0
 10
3.648306
 20
2.389310
 30
0.0
  0
LWPOLYLINE
  5
116
100
AcDbEntity
  8
broken-silk
 62
7
100
AcDbPolyline
 90
29
 70
0
 10
3.586362
 20
2.056444
 30
0.0
 10
3.554184
 20
2.053402
 30
0.0
 10
3.523834
 20
2.042201
 30
0.0
 10
3.498937
 20
2.021271
 30
0.0
 10
3.479209
 20
1.995611
 30
0.0
 10
3.475814
 20
1.976821
 30
0.0
 10
3.472456
 20
1.958228
 30
0.0
 10
3.469137
 20
1.939850
 30
0.0
 10
3.465759
 20
1.921144
 30
0.0
 10
3.466492
 20
1.902605
 30
0.0
 10
3.467000
 20
1.883741
 30
0.0
 10
3.470308
 20
1.864979
 30
0.0
 10
3.478704
 20
1.848376
 30
0.0
 10
3.497983
 20
1.836943
 30
0.0
 10
3.519200
 20
1.828400
 30
0.0
 10
3.541600
 20
1.824638
 30
0.0
 10
3.564169
 20
1.825005
 30
0.0
 10
3.581094
 20
1.843903
 30
0.0
 10
3.592824
 20
1.865992
 30
0.0
 10
3.600627
 20
1.889750
 30
0.0
 10
3.607115
 20
1.914094
 30
0.0
 10
3.613606
 20
1.951009
 30
0.0
 10
3.614538
 20
1.988409
 30
0.0
 10
3.606367
 20
2.025078
 30
0.0
 10
3.586363
 20
2.056438
 30
0.0
 10
3.586361
 20
2.056438
 30
0.0
 10
3.586361
 20
2.056438
 30
0.0
 10
3.586361
 20
2.056438
 30
0.0
 10
3.586361
 20
2.056438
 30
0.0
  0
LWPOLYLINE
  5
117
100
AcDbEntity
  8
broken-silk
 62
7
100
AcDbPolyline
 90
21
 70
0
 10
3.570385
 20
2.026987
 30
0.0
 10
3.587293
 20
1.990215
 30
0.0
 10
3.585769
 20
1.949269
 30
0.0
 10
3.574929
 20
1.909153
 30
0.0
 10
3.560341
 20
1.870409
 30
0.0
 10
3.546241
 20
1.862042
 30
0.0
 10
3.529322
 20
1.863932
 30
0.0
 10
3.513277
 20
1.869783
 30
0.0
 10
3.497930
 20
1.877572
 30
0.0
 10
3.496547
 20
1.898936
 30
0.0
 10
3.497337
 20
1.920222
 30
0.0
 10
3.499595
 20
1.941058
 30
0.0
 10
3.501966
 20
1.962180
 30
0.0
 10
3.513226
 20
1.984636
 30
0.0
 10
3.526525
 20
2.006014
 30
0.0
 10
3.545659
 20
2.022160
 30
0.0
 10
3.570396
 20
2.026986
 30
0.0
 10
3.570398
 20
2.026985
 30
0.0
 10
3.570398
 20
2.026985
 30
0.0
 10
3.570398
 20
2.026985
 30
0.0
 10
3.570398
 20
2.026985
 30
0.0
  0
LWPOLYLINE
  5
118
100
AcDbEntity
  8
broken-silk
 62
7
100
AcDbPolyline
 90
29
 70
0
 10
3.441773
 20
2.104903
 30
0.0
 10
3.419739
 20
2.083440
 30
0.0
 10
3.397678
 20
2.061948
 30
0.0
 10
3.375597
 20
2.040437
 30
0.0
 10
3.353556
 20
2.018966
 30
0.0
 10
3.354882
 20
2.010553
 30
0.0
 10
3.358590
 20
2.002563
 30
0.0
 10
3.366761
 20
1.999882
 30
0.0
 10
3.374352
 20
1.995691
 30
0.0
 10
3.382554
 20
2.002721
 30
0.0
 10
3.390668
 20
2.009675
 30
0.0
 10
3.398688
 20
2.016550
 30
0.0
 10
3.406853
 20
2.023546
 30
0.0
 10
3.405047
 20
1.976769
 30
0.0
 10
3.403241
 20
1.929933
 30
0.0
 10
3.401435
 20
1.883054
 30
0.0
 10
3.399628
 20
1.836259
 30
0.0
 10
3.407531
 20
1.825269
 30
0.0
 10
3.415419
 20
1.814646
 30
0.0
 10
3.424469
 20
1.807026
 30
0.0
 10
3.431847
 20
1.817065
 30
0.0
 10
3.430718
 20
1.889100
 30
0.0
 10
3.432637
 20
1.961159
 30
0.0
 10
3.436433
 20
2.033022
 30
0.0
 10
3.441756
 20
2.104907
 30
0.0
 10
3.441755
 20
2.104908
 30
0.0
 10
3.441755
 20
2.104908
 30
0.0
 10
3.441755
 20
2.104908
 30
0.0
 10
3.441755
 20
2.104908
 30
0.0
  0
LWPOLYLINE
  5
119
100
AcDbEntity
  8
broken-silk
 62
7
100
AcDbPolyline
 90
45
 70
0
 10
3.710170
 20
2.043422
 30
0.0
 10
3.688588
 20
1.993832
 30
0.0
 10
3.666208
 20
1.945122
 30
0.0
 10
3.643097
 20
1.896584
 30
0.0
 10
3.618877
 20
1.848315
 30
0.0
 10
3.617945
 20
1.836456
 30
0.0
 10
3.623762
 20
1.826795
 30
0.0
 10
3.635257
 20
1.824481
 30
0.0
 10
3.646946
 20
1.825666
 30
0.0
 10
3.666702
 20
1.870283
 30
0.0
 10
3.686483
 20
1.914957
 30
0.0
 10
3.706281
 20
1.959670
 30
0.0
 10
3.726045
 20
2.004304
 30
0.0
 10
3.735717
 20
1.974931
 30
0.0
 10
3.745400
 20
1.945522
 30
0.0
 10
3.755091
 20
1.916086
 30
0.0
 10
3.764766
 20
1.886703
 30
0.0
 10
3.780426
 20
1.914840
 30
0.0
 10
3.796106
 20
1.943014
 30
0.0
 10
3.811801
 20
1.971214
 30
0.0
 10
3.827467
 20
1.999363
 30
0.0
 10
3.829160
 20
1.954673
 30
0.0
 10
3.830854
 20
1.909927
 30
0.0
 10
3.832547
 20
1.865140
 30
0.0
 10
3.834240
 20
1.820434
 30
0.0
 10
3.843280
 20
1.815830
 30
0.0
 10
3.852359
 20
1.811380
 30
0.0
 10
3.861734
 20
1.808755
 30
0.0
 10
3.870873
 20
1.811154
 30
0.0
 10
3.862745
 20
1.872684
 30
0.0
 10
3.858026
 20
1.935562
 30
0.0
 10
3.852060
 20
1.998806
 30
0.0
 10
3.834396
 20
2.053184
 30
0.0
 10
3.816596
 20
2.030587
 30
0.0
 10
3.800470
 20
2.006474
 30
0.0
 10
3.786028
 20
1.981048
 30
0.0
 10
3.772324
 20
1.958061
 30
0.0
 10
3.760673
 20
1.986361
 30
0.0
 10
3.750381
 20
2.015257
 30
0.0
 10
3.737272
 20
2.042660
 30
0.0
 10
3.713413
 20
2.047754
 30
0.0
 10
3.712651
 20
2.046738
 30
0.0
 10
3.711860
 20
2.045694
 30
0.0
 10
3.710957
 20
2.044481
 30
0.0
 10
3.710167
 20
2.043436
 30
0.0
  0
LWPOLYLINE
  5
11a
100
AcDbEntity
  8
broken-silk
 62
7
100
AcDbPolyline
 90
85
 70
0
 10
4.014064
 20
2.050930
 30
0.0
 10
3.985554
 20
2.033254
 30
0.0
 10
3.964802
 20
2.007010
 30
0.0
 10
3.954989
 20
1.975204
 30
0.0
 10
3.957755
 20
1.941934
 30
0.0
 10
3.960712
 20
1.928444
 30
0.0
 10
3.965180
 20
1.915318
 30
0.0
 10
3.970542
 20
1.902082
 30
0.0
 10
3.975504
 20
1.888947
 30
0.0
 10
3.976830
 20
1.865483
 30
0.0
 10
3.965056
 20
1.847108
 30
0.0
 10
3.944216
 20
1.856678
 30
0.0
 10
3.931181
 20
1.875581
 30
0.0
 10
3.923702
 20
1.880777
 30
0.0
 10
3.914335
 20
1.882216
 30
0.0
 10
3.906083
 20
1.877636
 30
0.0
 10
3.898962
 20
1.871915
 30
0.0
 10
3.899244
 20
1.862935
 30
0.0
 10
3.900430
 20
1.854434
 30
0.0
 10
3.903568
 20
1.846439
 30
0.0
 10
3.908625
 20
1.839364
 30
0.0
 10
3.914910
 20
1.832475
 30
0.0
 10
3.921802
 20
1.826252
 30
0.0
 10
3.929648
 20
1.821220
 30
0.0
 10
3.938532
 20
1.818510
 30
0.0
 10
3.971597
 20
1.819159
 30
0.0
 10
4.000283
 20
1.834481
 30
0.0
 10
4.008558
 20
1.865903
 30
0.0
 10
4.001948
 20
1.898125
 30
0.0
 10
3.999126
 20
1.909617
 30
0.0
 10
3.996896
 20
1.921284
 30
0.0
 10
3.995147
 20
1.933073
 30
0.0
 10
3.993707
 20
1.944957
 30
0.0
 10
3.993707
 20
1.944957
 30
0.0
 10
3.993707
 20
1.944957
 30
0.0
 10
3.993707
 20
1.944957
 30
0.0
 10
3.993707
 20
1.944957
 30
0.0
 10
3.988726
 20
1.967176
 30
0.0
 10
3.992711
 20
1.989559
 30
0.0
 10
4.006656
 20
2.007557
 30
0.0
 10
4.027077
 20
2.017943
 30
0.0
 10
4.042419
 20
2.017039
 30
0.0
 10
4.055906
 20
2.010015
 30
0.0
 10
4.065332
 20
1.998421
 30
0.0
 10
4.072492
 20
1.984872
 30
0.0
 10
4.074524
 20
1.954959
 30
0.0
 10
4.069614
 20
1.925137
 30
0.0
 10
4.061596
 20
1.896214
 30
0.0
 10
4.054656
 20
1.867051
 30
0.0
 10
4.055277
 20
1.852942
 30
0.0
 10
4.058525
 20
1.839255
 30
0.0
 10
4.064802
 20
1.826368
 30
0.0
 10
4.073954
 20
1.815540
 30
0.0
 10
4.074135
 20
1.815381
 30
0.0
 10
4.074417
 20
1.815126
 30
0.0
 10
4.074869
 20
1.814731
 30
0.0
 10
4.075092
 20
1.814535
 30
0.0
 10
4.087908
 20
1.809546
 30
0.0
 10
4.101130
 20
1.807485
 30
0.0
 10
4.115044
 20
1.808417
 30
0.0
 10
4.128198
 20
1.811922
 30
0.0
 10
4.138062
 20
1.819330
 30
0.0
 10
4.146667
 20
1.828449
 30
0.0
 10
4.153762
 20
1.838273
 30
0.0
 10
4.160120
 20
1.848924
 30
0.0
 10
4.152906
 20
1.854944
 30
0.0
 10
4.145162
 20
1.860809
 30
0.0
 10
4.135725
 20
1.861825
 30
0.0
 10
4.126649
 20
1.858590
 30
0.0
 10
4.116703
 20
1.844039
 30
0.0
 10
4.101054
 20
1.837706
 30
0.0
 10
4.090688
 20
1.851681
 30
0.0
 10
4.089023
 20
1.869498
 30
0.0
 10
4.097848
 20
1.902389
 30
0.0
 10
4.106137
 20
1.935915
 30
0.0
 10
4.110339
 20
1.970108
 30
0.0
 10
4.110678
 20
2.004197
 30
0.0
 10
4.092934
 20
2.026436
 30
0.0
 10
4.069518
 20
2.041952
 30
0.0
 10
4.042182
 20
2.049756
 30
0.0
 10
4.014062
 20
2.050969
 30
0.0
 10
4.014064
 20
2.050983
 30
0.0
 10
4.014064
 20
2.050983
 30
0.0
 10
4.014064
 20
2.050983
 30
0.0
 10
4.014064
 20
2.050983
 30
0.0
  0
LWPOLYLINE
  5
11b
100
AcDbEntity
  8
broken-silk
 62
7
100
AcDbPolyline
 90
12
 70
0
 10
3.291381
 20
7.011813
 30
0.0
 10
3.272410
 20
6.785093
 30
0.0
 10
3.355468
 20
6.812502
 30
0.0
 10
3.433656
 20
6.708605
 30
0.0
 10
3.305130
 20
6.685750
 30
0.0
 10
3.383697
 20
6.524906
 30
0.0
 10
3.417014
 20
6.541241
 30
0.0
 10
3.359912
 20
6.657910
 30
0.0
 10
3.499458
 20
6.682657
 30
0.0
 10
3.392272
 20
6.825368
 30
0.0
 10
3.471837
 20
6.853801
 30
0.0
 10
3.291381
 20
7.011813
 30
0.0
  0
LWPOLYLINE
  5
11c
100
AcDbEntity
  8
broken-silk
 62
7
100
AcDbPolyline
 90
6
 70
0
 10
3.322123
 20
6.935731
 30
0.0
 10
3.400070
 20
6.867522
 30
0.0
 10
3.357859
 20
6.852282
 30
0.0
 10
3.356109
 20
6.851698
 30
0.0
 10
3.313922
 20
6.837872
 30
0.0
 10
3.322124
 20
6.935731
 30
0.0
  0
LWPOLYLINE
  5
11d
100
AcDbEntity
  8
broken-silk
 62
7
100
AcDbPolyline
 90
12
 70
0
 10
3.761798
 20
7.025839
 30
0.0
 10
3.605777
 20
6.887397
 30
0.0
 10
3.695686
 20
6.864109
 30
0.0
 10
3.719536
 20
6.774356
 30
0.0
 10
3.600252
 20
6.746506
 30
0.0
 10
3.656726
 20
6.574286
 30
0.0
 10
3.691836
 20
6.585792
 30
0.0
 10
3.648050
 20
6.719554
 30
0.0
 10
3.765229
 20
6.746989
 30
0.0
 10
3.737230
 20
6.851870
 30
0.0
 10
3.834588
 20
6.822493
 30
0.0
 10
3.761798
 20
7.025839
 30
0.0
  0
LWPOLYLINE
  5
11e
100
AcDbEntity
  8
broken-silk
 62
7
100
AcDbPolyline
 90
8
 70
0
 10
3.745330
 20
6.961968
 30
0.0
 10
3.774958
 20
6.879184
 30
0.0
 10
3.725975
 20
6.894034
 30
0.0
 10
3.725887
 20
6.894429
 30
0.0
 10
3.717626
 20
6.896613
 30
0.0
 10
3.716131
 20
6.897034
 30
0.0
 10
3.682187
 20
6.905743
 30
0.0
 10
3.745332
 20
6.961968
 30
0.0
  0
LWPOLYLINE
  5
11f
100
AcDbEntity
  8
broken-silk
 62
7
100
AcDbPolyline
 90
12
 70
0
 10
4.073365
 20
6.908555
 30
0.0
 10
3.903856
 20
6.841487
 30
0.0
 10
3.979875
 20
6.781599
 30
0.0
 10
3.967082
 20
6.712437
 30
0.0
 10
3.869952
 20
6.764062
 30
0.0
 10
3.843257
 20
6.539726
 30
0.0
 10
3.879989
 20
6.535348
 30
0.0
 10
3.900340
 20
6.706042
 30
0.0
 10
3.994299
 20
6.656050
 30
0.0
 10
4.012897
 20
6.756124
 30
0.0
 10
4.088800
 20
6.697536
 30
0.0
 10
4.073365
 20
6.908555
 30
0.0
  0
SPLINE
  5
120
100
AcDbEntity
  8
broken-silk
 62
7
100
AcDbSpline
 70
8
 71
3
 72
8
 73
4
 74
0
 40
0
 40
0
 40
0
 40
0
 40
1
 40
1
 40
1
 40
1
 10
3.374362
 20
6.474314
 30
0.0
 10
3.357570
 20
6.470533
 30
0.0
 10
3.342799
 20
6.464180
 30
0.0
 10
3.330020
 20
6.455837
 30
0.0
  0
SPLINE
  5
121
100
AcDbEntity
  8
broken-silk
 62
7
100
AcDbSpline
 70
8
 71
3
 72
8
 73
4
 74
0
 40
0
 40
0
 40
0
 40
0
 40
1
 40
1
 40
1
 40
1
 10
3.330020
 20
6.455837
 30
0.0
 10
3.316160
 20
6.446787
 30
0.0
 10
3.304640
 20
6.435395
 30
0.0
 10
3.295427
 20
6.422403
 30
0.0
  0
SPLINE
  5
122
100
AcDbEntity
  8
broken-silk
 62
7
100
AcDbSpline
 70
8
 71
3
 72
8
 73
4
 74
0
 40
0
 40
0
 40
0
 40
0
 40
1
 40
1
 40
1
 40
1
 10
3.295427
 20
6.422403
 30
0.0
 10
3.286085
 20
6.409233
 30
0.0
 10
3.279115
 20
6.394418
 30
0.0
 10
3.274469
 20
6.378731
 30
0.0
  0
SPLINE
  5
123
100
AcDbEntity
  8
broken-silk
 62
7
100
AcDbSpline
 70
8
 71
3
 72
8
 73
4
 74
0
 40
0
 40
0
 40
0
 40
0
 40
1
 40
1
 40
1
 40
1
 10
3.274469
 20
6.378731
 30
0.0
 10
3.269897
 20
6.363288
 30
0.0
 10
3.267583
 20
6.346999
 30
0.0
 10
3.267484
 20
6.330603
 30
0.0
  0
SPLINE
  5
124
100
AcDbEntity
  8
broken-silk
 62
7
100
AcDbSpline
 70
8
 71
3
 72
8
 73
4
 74
0
 40
0
 40
0
 40
0
 40
0
 40
1
 40
1
 40
1
 40
1
 10
3.267484
 20
6.330603
 30
0.0
 10
3.267389
 20
6.314448
 30
0.0
 10
3.269460
 20
6.298187
 30
0.0
 10
3.273625
 20
6.282528
 30
0.0
  0
SPLINE
  5
125
100
AcDbEntity
  8
broken-silk
 62
7
100
AcDbSpline
 70
8
 71
3
 72
8
 73
4
 74
0
 40
0
 40
0
 40
0
 40
0
 40
1
 40
1
 40
1
 40
1
 10
3.273625
 20
6.282528
 30
0.0
 10
3.277791
 20
6.266910
 30
0.0
 10
3.284062
 20
6.251889
 30
0.0
 10
3.292404
 20
6.238167
 30
0.0
  0
SPLINE
  5
126
100
AcDbEntity
  8
broken-silk
 62
7
100
AcDbSpline
 70
8
 71
3
 72
8
 73
4
 74
0
 40
0
 40
0
 40
0
 40
0
 40
1
 40
1
 40
1
 40
1
 10
3.292404
 20
6.238167
 30
0.0
 10
3.300778
 20
6.224392
 30
0.0
 10
3.311240
 20
6.211924
 30
0.0
 10
3.323750
 20
6.201472
 30
0.0
  0
SPLINE
  5
127
100
AcDbEntity
  8
broken-silk
 62
7
100
AcDbSpline
 70
8
 71
3
 72
8
 73
4
 74
0
 40
0
 40
0
 40
0
 40
0
 40
1
 40
1
 40
1
 40
1
 10
3.323750
 20
6.201472
 30
0.0
 10
3.335877
 20
6.191342
 30
0.0
 10
3.349926
 20
6.183106
 30
0.0
 10
3.365871
 20
6.177408
 30
0.0
  0
SPLINE
  5
128
100
AcDbEntity
  8
broken-silk
 62
7
100
AcDbSpline
 70
8
 71
3
 72
8
 73
4
 74
0
 40
0
 40
0
 40
0
 40
0
 40
1
 40
1
 40
1
 40
1
 10
3.365871
 20
6.177408
 30
0.0
 10
3.379251
 20
6.175150
 30
0.0
 10
3.392332
 20
6.174095
 30
0.0
 10
3.404996
 20
6.174164
 30
0.0
  0
SPLINE
  5
129
100
AcDbEntity
  8
broken-silk
 62
7
100
AcDbSpline
 70
8
 71
3
 72
8
 73
4
 74
0
 40
0
 40
0
 40
0
 40
0
 40
1
 40
1
 40
1
 40
1
 10
3.404996
 20
6.174164
 30
0.0
 10
3.418506
 20
6.174237
 30
0.0
 10
3.431539
 20
6.175589
 30
0.0
 10
3.443950
 20
6.178121
 30
0.0
  0
SPLINE
  5
12a
100
AcDbEntity
  8
broken-silk
 62
7
100
AcDbSpline
 70
8
 71
3
 72
8
 73
4
 74
0
 40
0
 40
0
 40
0
 40
0
 40
1
 40
1
 40
1
 40
1
 10
3.443950
 20
6.178121
 30
0.0
 10
3.457282
 20
6.180842
 30
0.0
 10
3.469891
 20
6.184927
 30
0.0
 10
3.481601
 20
6.190254
 30
0.0
  0
SPLINE
  5
12b
100
AcDbEntity
  8
broken-silk
 62
7
100
AcDbSpline
 70
8
 71
3
 72
8
 73
4
 74
0
 40
0
 40
0
 40
0
 40
0
 40
1
 40
1
 40
1
 40
1
 10
3.481601
 20
6.190254
 30
0.0
 10
3.493872
 20
6.195837
 30
0.0
 10
3.505153
 20
6.202785
 30
0.0
 10
3.515232
 20
6.210960
 30
0.0
  0
SPLINE
  5
12c
100
AcDbEntity
  8
broken-silk
 62
7
100
AcDbSpline
 70
8
 71
3
 72
8
 73
4
 74
0
 40
0
 40
0
 40
0
 40
0
 40
1
 40
1
 40
1
 40
1
 10
3.515232
 20
6.210960
 30
0.0
 10
3.525544
 20
6.219324
 30
0.0
 10
3.534598
 20
6.228972
 30
0.0
 10
3.542167
 20
6.239755
 30
0.0
  0
SPLINE
  5
12d
100
AcDbEntity
  8
broken-silk
 62
7
100
AcDbSpline
 70
8
 71
3
 72
8
 73
4
 74
0
 40
0
 40
0
 40
0
 40
0
 40
1
 40
1
 40
1
 40
1
 10
3.542167
 20
6.239755
 30
0.0
 10
3.549606
 20
6.250353
 30
0.0
 10
3.555618
 20
6.262048
 30
0.0
 10
3.559978
 20
6.274700
 30
0.0
  0
SPLINE
  5
12e
100
AcDbEntity
  8
broken-silk
 62
7
100
AcDbSpline
 70
8
 71
3
 72
8
 73
4
 74
0
 40
0
 40
0
 40
0
 40
0
 40
1
 40
1
 40
1
 40
1
 10
3.559978
 20
6.274700
 30
0.0
 10
3.564118
 20
6.286707
 30
0.0
 10
3.566777
 20
6.299577
 30
0.0
 10
3.567770
 20
6.313187
 30
0.0
  0
SPLINE
  5
12f
100
AcDbEntity
  8
broken-silk
 62
7
100
AcDbSpline
 70
8
 71
3
 72
8
 73
4
 74
0
 40
0
 40
0
 40
0
 40
0
 40
1
 40
1
 40
1
 40
1
 10
3.567770
 20
6.313187
 30
0.0
 10
3.568673
 20
6.325579
 30
0.0
 10
3.568193
 20
6.338585
 30
0.0
 10
3.566190
 20
6.352115
 30
0.0
  0
SPLINE
  5
130
100
AcDbEntity
  8
broken-silk
 62
7
100
AcDbSpline
 70
8
 71
3
 72
8
 73
4
 74
0
 40
0
 40
0
 40
0
 40
0
 40
1
 40
1
 40
1
 40
1
 10
3.566190
 20
6.352115
 30
0.0
 10
3.564412
 20
6.363485
 30
0.0
 10
3.561863
 20
6.373990
 30
0.0
 10
3.558606
 20
6.383669
 30
0.0
  0
SPLINE
  5
131
100
AcDbEntity
  8
broken-silk
 62
7
100
AcDbSpline
 70
8
 71
3
 72
8
 73
4
 74
0
 40
0
 40
0
 40
0
 40
0
 40
1
 40
1
 40
1
 40
1
 10
3.558606
 20
6.383669
 30
0.0
 10
3.554980
 20
6.394447
 30
0.0
 10
3.550490
 20
6.404202
 30
0.0
 10
3.545271
 20
6.412990
 30
0.0
  0
SPLINE
  5
132
100
AcDbEntity
  8
broken-silk
 62
7
100
AcDbSpline
 70
8
 71
3
 72
8
 73
4
 74
0
 40
0
 40
0
 40
0
 40
0
 40
1
 40
1
 40
1
 40
1
 10
3.545271
 20
6.412990
 30
0.0
 10
3.539503
 20
6.422704
 30
0.0
 10
3.532842
 20
6.431236
 30
0.0
 10
3.525473
 20
6.438662
 30
0.0
  0
SPLINE
  5
133
100
AcDbEntity
  8
broken-silk
 62
7
100
AcDbSpline
 70
8
 71
3
 72
8
 73
4
 74
0
 40
0
 40
0
 40
0
 40
0
 40
1
 40
1
 40
1
 40
1
 10
3.525473
 20
6.438662
 30
0.0
 10
3.517630
 20
6.446566
 30
0.0
 10
3.508986
 20
6.453217
 30
0.0
 10
3.499757
 20
6.458704
 30
0.0
  0
SPLINE
  5
134
100
AcDbEntity
  8
broken-silk
 62
7
100
AcDbSpline
 70
8
 71
3
 72
8
 73
4
 74
0
 40
0
 40
0
 40
0
 40
0
 40
1
 40
1
 40
1
 40
1
 10
3.499757
 20
6.458704
 30
0.0
 10
3.490469
 20
6.464226
 30
0.0
 10
3.480592
 20
6.468570
 30
0.0
 10
3.470348
 20
6.471828
 30
0.0
  0
SPLINE
  5
135
100
AcDbEntity
  8
broken-silk
 62
7
100
AcDbSpline
 70
8
 71
3
 72
8
 73
4
 74
0
 40
0
 40
0
 40
0
 40
0
 40
1
 40
1
 40
1
 40
1
 10
3.470348
 20
6.471828
 30
0.0
 10
3.460025
 20
6.475111
 30
0.0
 10
3.449331
 20
6.477291
 30
0.0
 10
3.438495
 20
6.478462
 30
0.0
  0
SPLINE
  5
136
100
AcDbEntity
  8
broken-silk
 62
7
100
AcDbSpline
 70
8
 71
3
 72
8
 73
4
 74
0
 40
0
 40
0
 40
0
 40
0
 40
1
 40
1
 40
1
 40
1
 10
3.438495
 20
6.478462
 30
0.0
 10
3.427784
 20
6.479619
 30
0.0
 10
3.416936
 20
6.479792
 30
0.0
 10
3.406172
 20
6.479069
 30
0.0
  0
SPLINE
  5
137
100
AcDbEntity
  8
broken-silk
 62
7
100
AcDbSpline
 70
8
 71
3
 72
8
 73
4
 74
0
 40
0
 40
0
 40
0
 40
0
 40
1
 40
1
 40
1
 40
1
 10
3.406172
 20
6.479069
 30
0.0
 10
3.395408
 20
6.478347
 30
0.0
 10
3.384726
 20
6.476732
 30
0.0
 10
3.374352
 20
6.474313
 30
0.0
  0
LWPOLYLINE
  5
138
100
AcDbEntity
  8
broken-silk
 62
7
100
AcDbPolyline
 90
7
 70
0
 10
4.040192
 20
6.855640
 30
0.0
 10
4.045850
 20
6.777391
 30
0.0
 10
4.020416
 20
6.796892
 30
0.0
 10
4.015319
 20
6.800922
 30
0.0
 10
4.011397
 20
6.803923
 30
0.0
 10
3.977367
 20
6.830796
 30
0.0
 10
4.040192
 20
6.855640
 30
0.0
  0
SPLINE
  5
139
100
AcDbEntity
  8
broken-silk
 62
7
100
AcDbSpline
 70
8
 71
3
 72
8
 73
4
 74
0
 40
0
 40
0
 40
0
 40
0
 40
1
 40
1
 40
1
 40
1
 10
3.472652
 20
6.420772
 30
0.0
 10
3.479100
 20
6.416025
 30
0.0
 10
3.484686
 20
6.410368
 30
0.0
 10
3.489452
 20
6.404028
 30
0.0
  0
SPLINE
  5
13a
100
AcDbEntity
  8
broken-silk
 62
7
100
AcDbSpline
 70
8
 71
3
 72
8
 73
4
 74
0
 40
0
 40
0
 40
0
 40
0
 40
1
 40
1
 40
1
 40
1
 10
3.489452
 20
6.404028
 30
0.0
 10
3.494171
 20
6.397754
 30
0.0
 10
3.498088
 20
6.390812
 30
0.0
 10
3.501252
 20
6.383422
 30
0.0
  0
SPLINE
  5
13b
100
AcDbEntity
  8
broken-silk
 62
7
100
AcDbSpline
 70
8
 71
3
 72
8
 73
4
 74
0
 40
0
 40
0
 40
0
 40
0
 40
1
 40
1
 40
1
 40
1
 10
3.501252
 20
6.383422
 30
0.0
 10
3.504272
 20
6.376368
 30
0.0
 10
3.506603
 20
6.368905
 30
0.0
 10
3.508291
 20
6.361224
 30
0.0
  0
SPLINE
  5
13c
100
AcDbEntity
  8
broken-silk
 62
7
100
AcDbSpline
 70
8
 71
3
 72
8
 73
4
 74
0
 40
0
 40
0
 40
0
 40
0
 40
1
 40
1
 40
1
 40
1
 10
3.508291
 20
6.361224
 30
0.0
 10
3.509984
 20
6.353544
 30
0.0
 10
3.511028
 20
6.345647
 30
0.0
 10
3.511446
 20
6.337724
 30
0.0
  0
SPLINE
  5
13d
100
AcDbEntity
  8
broken-silk
 62
7
100
AcDbSpline
 70
8
 71
3
 72
8
 73
4
 74
0
 40
0
 40
0
 40
0
 40
0
 40
1
 40
1
 40
1
 40
1
 10
3.511446
 20
6.337724
 30
0.0
 10
3.511869
 20
6.329804
 30
0.0
 10
3.511702
 20
6.321859
 30
0.0
 10
3.510966
 20
6.314079
 30
0.0
  0
SPLINE
  5
13e
100
AcDbEntity
  8
broken-silk
 62
7
100
AcDbSpline
 70
8
 71
3
 72
8
 73
4
 74
0
 40
0
 40
0
 40
0
 40
0
 40
1
 40
1
 40
1
 40
1
 10
3.510966
 20
6.314079
 30
0.0
 10
3.510204
 20
6.306164
 30
0.0
 10
3.508878
 20
6.298420
 30
0.0
 10
3.506984
 20
6.291049
 30
0.0
  0
SPLINE
  5
13f
100
AcDbEntity
  8
broken-silk
 62
7
100
AcDbSpline
 70
8
 71
3
 72
8
 73
4
 74
0
 40
0
 40
0
 40
0
 40
0
 40
1
 40
1
 40
1
 40
1
 10
3.506984
 20
6.291049
 30
0.0
 10
3.504980
 20
6.283163
 30
0.0
 10
3.502327
 20
6.275705
 30
0.0
 10
3.499118
 20
6.268918
 30
0.0
  0
SPLINE
  5
140
100
AcDbEntity
  8
broken-silk
 62
7
100
AcDbSpline
 70
8
 71
3
 72
8
 73
4
 74
0
 40
0
 40
0
 40
0
 40
0
 40
1
 40
1
 40
1
 40
1
 10
3.499118
 20
6.268918
 30
0.0
 10
3.495481
 20
6.261227
 30
0.0
 10
3.491106
 20
6.254399
 30
0.0
 10
3.486077
 20
6.248794
 30
0.0
  0
SPLINE
  5
141
100
AcDbEntity
  8
broken-silk
 62
7
100
AcDbSpline
 70
8
 71
3
 72
8
 73
4
 74
0
 40
0
 40
0
 40
0
 40
0
 40
1
 40
1
 40
1
 40
1
 10
3.486077
 20
6.248794
 30
0.0
 10
3.480811
 20
6.244154
 30
0.0
 10
3.475073
 20
6.240211
 30
0.0
 10
3.469008
 20
6.236926
 30
0.0
  0
SPLINE
  5
142
100
AcDbEntity
  8
broken-silk
 62
7
100
AcDbSpline
 70
8
 71
3
 72
8
 73
4
 74
0
 40
0
 40
0
 40
0
 40
0
 40
1
 40
1
 40
1
 40
1
 10
3.469008
 20
6.236926
 30
0.0
 10
3.463036
 20
6.233692
 30
0.0
 10
3.456748
 20
6.231094
 30
0.0
 10
3.450283
 20
6.229095
 30
0.0
  0
SPLINE
  5
143
100
AcDbEntity
  8
broken-silk
 62
7
100
AcDbSpline
 70
8
 71
3
 72
8
 73
4
 74
0
 40
0
 40
0
 40
0
 40
0
 40
1
 40
1
 40
1
 40
1
 10
3.450283
 20
6.229095
 30
0.0
 10
3.443662
 20
6.227049
 30
0.0
 10
3.436857
 20
6.225629
 30
0.0
 10
3.430016
 20
6.224797
 30
0.0
  0
SPLINE
  5
144
100
AcDbEntity
  8
broken-silk
 62
7
100
AcDbSpline
 70
8
 71
3
 72
8
 73
4
 74
0
 40
0
 40
0
 40
0
 40
0
 40
1
 40
1
 40
1
 40
1
 10
3.430016
 20
6.224797
 30
0.0
 10
3.423175
 20
6.223964
 30
0.0
 10
3.416295
 20
6.223719
 30
0.0
 10
3.409530
 20
6.224018
 30
0.0
  0
SPLINE
  5
145
100
AcDbEntity
  8
broken-silk
 62
7
100
AcDbSpline
 70
8
 71
3
 72
8
 73
4
 74
0
 40
0
 40
0
 40
0
 40
0
 40
1
 40
1
 40
1
 40
1
 10
3.409530
 20
6.224018
 30
0.0
 10
3.402525
 20
6.224328
 30
0.0
 10
3.395642
 20
6.225223
 30
0.0
 10
3.389046
 20
6.226657
 30
0.0
  0
SPLINE
  5
146
100
AcDbEntity
  8
broken-silk
 62
7
100
AcDbSpline
 70
8
 71
3
 72
8
 73
4
 74
0
 40
0
 40
0
 40
0
 40
0
 40
1
 40
1
 40
1
 40
1
 10
3.389046
 20
6.226657
 30
0.0
 10
3.382185
 20
6.228147
 30
0.0
 10
3.375632
 20
6.230222
 30
0.0
 10
3.369578
 20
6.232829
 30
0.0
  0
SPLINE
  5
147
100
AcDbEntity
  8
broken-silk
 62
7
100
AcDbSpline
 70
8
 71
3
 72
8
 73
4
 74
0
 40
0
 40
0
 40
0
 40
0
 40
1
 40
1
 40
1
 40
1
 10
3.369578
 20
6.232829
 30
0.0
 10
3.362994
 20
6.235664
 30
0.0
 10
3.356997
 20
6.239129
 30
0.0
 10
3.351829
 20
6.243157
 30
0.0
  0
SPLINE
  5
148
100
AcDbEntity
  8
broken-silk
 62
7
100
AcDbSpline
 70
8
 71
3
 72
8
 73
4
 74
0
 40
0
 40
0
 40
0
 40
0
 40
1
 40
1
 40
1
 40
1
 10
3.351829
 20
6.243157
 30
0.0
 10
3.346151
 20
6.247582
 30
0.0
 10
3.341475
 20
6.252686
 30
0.0
 10
3.338111
 20
6.258384
 30
0.0
  0
SPLINE
  5
149
100
AcDbEntity
  8
broken-silk
 62
7
100
AcDbSpline
 70
8
 71
3
 72
8
 73
4
 74
0
 40
0
 40
0
 40
0
 40
0
 40
1
 40
1
 40
1
 40
1
 10
3.338111
 20
6.258384
 30
0.0
 10
3.335023
 20
6.263723
 30
0.0
 10
3.331766
 20
6.270356
 30
0.0
 10
3.328735
 20
6.277905
 30
0.0
  0
SPLINE
  5
14a
100
AcDbEntity
  8
broken-silk
 62
7
100
AcDbSpline
 70
8
 71
3
 72
8
 73
4
 74
0
 40
0
 40
0
 40
0
 40
0
 40
1
 40
1
 40
1
 40
1
 10
3.328735
 20
6.277905
 30
0.0
 10
3.326223
 20
6.284191
 30
0.0
 10
3.323847
 20
6.291112
 30
0.0
 10
3.321869
 20
6.298451
 30
0.0
  0
SPLINE
  5
14b
100
AcDbEntity
  8
broken-silk
 62
7
100
AcDbSpline
 70
8
 71
3
 72
8
 73
4
 74
0
 40
0
 40
0
 40
0
 40
0
 40
1
 40
1
 40
1
 40
1
 10
3.321869
 20
6.298451
 30
0.0
 10
3.320006
 20
6.305325
 30
0.0
 10
3.318505
 20
6.312565
 30
0.0
 10
3.317523
 20
6.319993
 30
0.0
  0
SPLINE
  5
14c
100
AcDbEntity
  8
broken-silk
 62
7
100
AcDbSpline
 70
8
 71
3
 72
8
 73
4
 74
0
 40
0
 40
0
 40
0
 40
0
 40
1
 40
1
 40
1
 40
1
 10
3.317523
 20
6.319993
 30
0.0
 10
3.316563
 20
6.327192
 30
0.0
 10
3.316111
 20
6.334568
 30
0.0
 10
3.316337
 20
6.341958
 30
0.0
  0
SPLINE
  5
14d
100
AcDbEntity
  8
broken-silk
 62
7
100
AcDbSpline
 70
8
 71
3
 72
8
 73
4
 74
0
 40
0
 40
0
 40
0
 40
0
 40
1
 40
1
 40
1
 40
1
 10
3.316337
 20
6.341958
 30
0.0
 10
3.316548
 20
6.349205
 30
0.0
 10
3.317410
 20
6.356465
 30
0.0
 10
3.319075
 20
6.363585
 30
0.0
  0
SPLINE
  5
14e
100
AcDbEntity
  8
broken-silk
 62
7
100
AcDbSpline
 70
8
 71
3
 72
8
 73
4
 74
0
 40
0
 40
0
 40
0
 40
0
 40
1
 40
1
 40
1
 40
1
 10
3.319075
 20
6.363585
 30
0.0
 10
3.320683
 20
6.370506
 30
0.0
 10
3.323065
 20
6.377294
 30
0.0
 10
3.326353
 20
6.383807
 30
0.0
  0
SPLINE
  5
14f
100
AcDbEntity
  8
broken-silk
 62
7
100
AcDbSpline
 70
8
 71
3
 72
8
 73
4
 74
0
 40
0
 40
0
 40
0
 40
0
 40
1
 40
1
 40
1
 40
1
 10
3.326353
 20
6.383807
 30
0.0
 10
3.329528
 20
6.390096
 30
0.0
 10
3.333550
 20
6.396130
 30
0.0
 10
3.338557
 20
6.401781
 30
0.0
  0
SPLINE
  5
150
100
AcDbEntity
  8
broken-silk
 62
7
100
AcDbSpline
 70
8
 71
3
 72
8
 73
4
 74
0
 40
0
 40
0
 40
0
 40
0
 40
1
 40
1
 40
1
 40
1
 10
3.338557
 20
6.401781
 30
0.0
 10
3.343114
 20
6.406927
 30
0.0
 10
3.348488
 20
6.411756
 30
0.0
 10
3.354779
 20
6.416173
 30
0.0
  0
SPLINE
  5
151
100
AcDbEntity
  8
broken-silk
 62
7
100
AcDbSpline
 70
8
 71
3
 72
8
 73
4
 74
0
 40
0
 40
0
 40
0
 40
0
 40
1
 40
1
 40
1
 40
1
 10
3.354779
 20
6.416173
 30
0.0
 10
3.359768
 20
6.417778
 30
0.0
 10
3.364510
 20
6.419283
 30
0.0
 10
3.369082
 20
6.420663
 30
0.0
  0
SPLINE
  5
152
100
AcDbEntity
  8
broken-silk
 62
7
100
AcDbSpline
 70
8
 71
3
 72
8
 73
4
 74
0
 40
0
 40
0
 40
0
 40
0
 40
1
 40
1
 40
1
 40
1
 10
3.369082
 20
6.420663
 30
0.0
 10
3.374080
 20
6.422173
 30
0.0
 10
3.378878
 20
6.423531
 30
0.0
 10
3.383579
 20
6.424706
 30
0.0
  0
SPLINE
  5
153
100
AcDbEntity
  8
broken-silk
 62
7
100
AcDbSpline
 70
8
 71
3
 72
8
 73
4
 74
0
 40
0
 40
0
 40
0
 40
0
 40
1
 40
1
 40
1
 40
1
 10
3.383579
 20
6.424706
 30
0.0
 10
3.388566
 20
6.425950
 30
0.0
 10
3.393446
 20
6.426989
 30
0.0
 10
3.398345
 20
6.427777
 30
0.0
  0
SPLINE
  5
154
100
AcDbEntity
  8
broken-silk
 62
7
100
AcDbSpline
 70
8
 71
3
 72
8
 73
4
 74
0
 40
0
 40
0
 40
0
 40
0
 40
1
 40
1
 40
1
 40
1
 10
3.398345
 20
6.427777
 30
0.0
 10
3.403245
 20
6.428565
 30
0.0
 10
3.408158
 20
6.429104
 30
0.0
 10
3.413218
 20
6.429352
 30
0.0
  0
SPLINE
  5
155
100
AcDbEntity
  8
broken-silk
 62
7
100
AcDbSpline
 70
8
 71
3
 72
8
 73
4
 74
0
 40
0
 40
0
 40
0
 40
0
 40
1
 40
1
 40
1
 40
1
 10
3.413218
 20
6.429352
 30
0.0
 10
3.418053
 20
6.429589
 30
0.0
 10
3.423017
 20
6.429560
 30
0.0
 10
3.428224
 20
6.429229
 30
0.0
  0
SPLINE
  5
156
100
AcDbEntity
  8
broken-silk
 62
7
100
AcDbSpline
 70
8
 71
3
 72
8
 73
4
 74
0
 40
0
 40
0
 40
0
 40
0
 40
1
 40
1
 40
1
 40
1
 10
3.428224
 20
6.429229
 30
0.0
 10
3.433028
 20
6.428924
 30
0.0
 10
3.438037
 20
6.428362
 30
0.0
 10
3.443337
 20
6.427516
 30
0.0
  0
SPLINE
  5
157
100
AcDbEntity
  8
broken-silk
 62
7
100
AcDbSpline
 70
8
 71
3
 72
8
 73
4
 74
0
 40
0
 40
0
 40
0
 40
0
 40
1
 40
1
 40
1
 40
1
 10
3.443337
 20
6.427516
 30
0.0
 10
3.448031
 20
6.426765
 30
0.0
 10
3.452952
 20
6.425794
 30
0.0
 10
3.458162
 20
6.424576
 30
0.0
  0
SPLINE
  5
158
100
AcDbEntity
  8
broken-silk
 62
7
100
AcDbSpline
 70
8
 71
3
 72
8
 73
4
 74
0
 40
0
 40
0
 40
0
 40
0
 40
1
 40
1
 40
1
 40
1
 10
3.458162
 20
6.424576
 30
0.0
 10
3.462760
 20
6.423504
 30
0.0
 10
3.467583
 20
6.422240
 30
0.0
 10
3.472671
 20
6.420775
 30
0.0
  0
LWPOLYLINE
  5
159
100
AcDbEntity
  8
broken-silk
 62
7
100
AcDbPolyline
 90
9
 70
0
 10
3.374352
 20
6.474313
 30
0.0
 10
3.374345
 20
6.474313
 30
0.0
 10
3.374345
 20
6.474313
 30
0.0
 10
3.374345
 20
6.474313
 30
0.0
 10
3.374345
 20
6.474313
 30
0.0
 10
3.374345
 20
6.474313
 30
0.0
 10
3.374345
 20
6.474313
 30
0.0
 10
3.374345
 20
6.474313
 30
0.0
 10
3.374345
 20
6.474313
 30
0.0
  0
SPLINE
  5
15a
100
AcDbEntity
  8
broken-silk
 62
7
100
AcDbSpline
 70
8
 71
3
 72
8
 73
4
 74
0
 40
0
 40
0
 40
0
 40
0
 40
1
 40
1
 40
1
 40
1
 10
3.904816
 20
6.404141
 30
0.0
 10
3.907130
 20
6.406602
 30
0.0
 10
3.908945
 20
6.409260
 30
0.0
 10
3.910378
 20
6.412075
 30
0.0
  0
SPLINE
  5
15b
100
AcDbEntity
  8
broken-silk
 62
7
100
AcDbSpline
 70
8
 71
3
 72
8
 73
4
 74
0
 40
0
 40
0
 40
0
 40
0
 40
1
 40
1
 40
1
 40
1
 10
3.910378
 20
6.412075
 30
0.0
 10
3.911846
 20
6.414978
 30
0.0
 10
3.912918
 20
6.418048
 30
0.0
 10
3.913692
 20
6.421242
 30
0.0
  0
SPLINE
  5
15c
100
AcDbEntity
  8
broken-silk
 62
7
100
AcDbSpline
 70
8
 71
3
 72
8
 73
4
 74
0
 40
0
 40
0
 40
0
 40
0
 40
1
 40
1
 40
1
 40
1
 10
3.913692
 20
6.421242
 30
0.0
 10
3.914425
 20
6.424290
 30
0.0
 10
3.914877
 20
6.427450
 30
0.0
 10
3.915187
 20
6.430685
 30
0.0
  0
SPLINE
  5
15d
100
AcDbEntity
  8
broken-silk
 62
7
100
AcDbSpline
 70
8
 71
3
 72
8
 73
4
 74
0
 40
0
 40
0
 40
0
 40
0
 40
1
 40
1
 40
1
 40
1
 10
3.915187
 20
6.430685
 30
0.0
 10
3.915470
 20
6.433919
 30
0.0
 10
3.915582
 20
6.437228
 30
0.0
 10
3.915639
 20
6.440573
 30
0.0
  0
SPLINE
  5
15e
100
AcDbEntity
  8
broken-silk
 62
7
100
AcDbSpline
 70
8
 71
3
 72
8
 73
4
 74
0
 40
0
 40
0
 40
0
 40
0
 40
1
 40
1
 40
1
 40
1
 10
3.915639
 20
6.440573
 30
0.0
 10
3.915678
 20
6.443866
 30
0.0
 10
3.915643
 20
6.447195
 30
0.0
 10
3.915629
 20
6.450522
 30
0.0
  0
SPLINE
  5
15f
100
AcDbEntity
  8
broken-silk
 62
7
100
AcDbSpline
 70
8
 71
3
 72
8
 73
4
 74
0
 40
0
 40
0
 40
0
 40
0
 40
1
 40
1
 40
1
 40
1
 10
3.915629
 20
6.450522
 30
0.0
 10
3.915616
 20
6.453796
 30
0.0
 10
3.915622
 20
6.457070
 30
0.0
 10
3.915738
 20
6.460308
 30
0.0
  0
SPLINE
  5
160
100
AcDbEntity
  8
broken-silk
 62
7
100
AcDbSpline
 70
8
 71
3
 72
8
 73
4
 74
0
 40
0
 40
0
 40
0
 40
0
 40
1
 40
1
 40
1
 40
1
 10
3.915738
 20
6.460308
 30
0.0
 10
3.915856
 20
6.463622
 30
0.0
 10
3.916077
 20
6.466899
 30
0.0
 10
3.916528
 20
6.470101
 30
0.0
  0
SPLINE
  5
161
100
AcDbEntity
  8
broken-silk
 62
7
100
AcDbSpline
 70
8
 71
3
 72
8
 73
4
 74
0
 40
0
 40
0
 40
0
 40
0
 40
1
 40
1
 40
1
 40
1
 10
3.916528
 20
6.470101
 30
0.0
 10
3.916980
 20
6.473303
 30
0.0
 10
3.917629
 20
6.476430
 30
0.0
 10
3.918588
 20
6.479445
 30
0.0
  0
SPLINE
  5
162
100
AcDbEntity
  8
broken-silk
 62
7
100
AcDbSpline
 70
8
 71
3
 72
8
 73
4
 74
0
 40
0
 40
0
 40
0
 40
0
 40
1
 40
1
 40
1
 40
1
 10
3.918588
 20
6.479445
 30
0.0
 10
3.919322
 20
6.481897
 30
0.0
 10
3.920028
 20
6.484271
 30
0.0
 10
3.920761
 20
6.486555
 30
0.0
  0
SPLINE
  5
163
100
AcDbEntity
  8
broken-silk
 62
7
100
AcDbSpline
 70
8
 71
3
 72
8
 73
4
 74
0
 40
0
 40
0
 40
0
 40
0
 40
1
 40
1
 40
1
 40
1
 10
3.920761
 20
6.486555
 30
0.0
 10
3.921580
 20
6.489103
 30
0.0
 10
3.922427
 20
6.491541
 30
0.0
 10
3.923301
 20
6.493851
 30
0.0
  0
SPLINE
  5
164
100
AcDbEntity
  8
broken-silk
 62
7
100
AcDbSpline
 70
8
 71
3
 72
8
 73
4
 74
0
 40
0
 40
0
 40
0
 40
0
 40
1
 40
1
 40
1
 40
1
 10
3.923301
 20
6.493851
 30
0.0
 10
3.924205
 20
6.496233
 30
0.0
 10
3.925192
 20
6.498479
 30
0.0
 10
3.926228
 20
6.500573
 30
0.0
  0
SPLINE
  5
165
100
AcDbEntity
  8
broken-silk
 62
7
100
AcDbSpline
 70
8
 71
3
 72
8
 73
4
 74
0
 40
0
 40
0
 40
0
 40
0
 40
1
 40
1
 40
1
 40
1
 10
3.926228
 20
6.500573
 30
0.0
 10
3.927413
 20
6.502946
 30
0.0
 10
3.928712
 20
6.505122
 30
0.0
 10
3.930134
 20
6.507077
 30
0.0
  0
SPLINE
  5
166
100
AcDbEntity
  8
broken-silk
 62
7
100
AcDbSpline
 70
8
 71
3
 72
8
 73
4
 74
0
 40
0
 40
0
 40
0
 40
0
 40
1
 40
1
 40
1
 40
1
 10
3.930134
 20
6.507077
 30
0.0
 10
3.931658
 20
6.509140
 30
0.0
 10
3.933318
 20
6.510957
 30
0.0
 10
3.935203
 20
6.512498
 30
0.0
  0
SPLINE
  5
167
100
AcDbEntity
  8
broken-silk
 62
7
100
AcDbSpline
 70
8
 71
3
 72
8
 73
4
 74
0
 40
0
 40
0
 40
0
 40
0
 40
1
 40
1
 40
1
 40
1
 10
3.935203
 20
6.512498
 30
0.0
 10
3.937150
 20
6.514096
 30
0.0
 10
3.939340
 20
6.515398
 30
0.0
 10
3.941807
 20
6.516372
 30
0.0
  0
SPLINE
  5
168
100
AcDbEntity
  8
broken-silk
 62
7
100
AcDbSpline
 70
8
 71
3
 72
8
 73
4
 74
0
 40
0
 40
0
 40
0
 40
0
 40
1
 40
1
 40
1
 40
1
 10
3.941807
 20
6.516372
 30
0.0
 10
3.943980
 20
6.517232
 30
0.0
 10
3.946399
 20
6.517836
 30
0.0
 10
3.949066
 20
6.518161
 30
0.0
  0
SPLINE
  5
169
100
AcDbEntity
  8
broken-silk
 62
7
100
AcDbSpline
 70
8
 71
3
 72
8
 73
4
 74
0
 40
0
 40
0
 40
0
 40
0
 40
1
 40
1
 40
1
 40
1
 10
3.949066
 20
6.518161
 30
0.0
 10
3.951408
 20
6.518446
 30
0.0
 10
3.953979
 20
6.518514
 30
0.0
 10
3.956767
 20
6.518348
 30
0.0
  0
SPLINE
  5
16a
100
AcDbEntity
  8
broken-silk
 62
7
100
AcDbSpline
 70
8
 71
3
 72
8
 73
4
 74
0
 40
0
 40
0
 40
0
 40
0
 40
1
 40
1
 40
1
 40
1
 10
3.956767
 20
6.518348
 30
0.0
 10
3.957614
 20
6.517987
 30
0.0
 10
3.958461
 20
6.517538
 30
0.0
 10
3.959279
 20
6.517019
 30
0.0
  0
SPLINE
  5
16b
100
AcDbEntity
  8
broken-silk
 62
7
100
AcDbSpline
 70
8
 71
3
 72
8
 73
4
 74
0
 40
0
 40
0
 40
0
 40
0
 40
1
 40
1
 40
1
 40
1
 10
3.959279
 20
6.517019
 30
0.0
 10
3.960041
 20
6.516530
 30
0.0
 10
3.960803
 20
6.515977
 30
0.0
 10
3.961509
 20
6.515370
 30
0.0
  0
SPLINE
  5
16c
100
AcDbEntity
  8
broken-silk
 62
7
100
AcDbSpline
 70
8
 71
3
 72
8
 73
4
 74
0
 40
0
 40
0
 40
0
 40
0
 40
1
 40
1
 40
1
 40
1
 10
3.961509
 20
6.515370
 30
0.0
 10
3.962299
 20
6.514704
 30
0.0
 10
3.963061
 20
6.513971
 30
0.0
 10
3.963767
 20
6.513189
 30
0.0
  0
SPLINE
  5
16d
100
AcDbEntity
  8
broken-silk
 62
7
100
AcDbSpline
 70
8
 71
3
 72
8
 73
4
 74
0
 40
0
 40
0
 40
0
 40
0
 40
1
 40
1
 40
1
 40
1
 10
3.963767
 20
6.513189
 30
0.0
 10
3.964472
 20
6.512407
 30
0.0
 10
3.965121
 20
6.511572
 30
0.0
 10
3.965714
 20
6.510703
 30
0.0
  0
SPLINE
  5
16e
100
AcDbEntity
  8
broken-silk
 62
7
100
AcDbSpline
 70
8
 71
3
 72
8
 73
4
 74
0
 40
0
 40
0
 40
0
 40
0
 40
1
 40
1
 40
1
 40
1
 10
3.965714
 20
6.510703
 30
0.0
 10
3.966278
 20
6.509859
 30
0.0
 10
3.966786
 20
6.508981
 30
0.0
 10
3.967238
 20
6.508081
 30
0.0
  0
SPLINE
  5
16f
100
AcDbEntity
  8
broken-silk
 62
7
100
AcDbSpline
 70
8
 71
3
 72
8
 73
4
 74
0
 40
0
 40
0
 40
0
 40
0
 40
1
 40
1
 40
1
 40
1
 10
3.967238
 20
6.508081
 30
0.0
 10
3.967633
 20
6.507237
 30
0.0
 10
3.968000
 20
6.506373
 30
0.0
 10
3.968254
 20
6.505504
 30
0.0
  0
SPLINE
  5
170
100
AcDbEntity
  8
broken-silk
 62
7
100
AcDbSpline
 70
8
 71
3
 72
8
 73
4
 74
0
 40
0
 40
0
 40
0
 40
0
 40
1
 40
1
 40
1
 40
1
 10
3.968254
 20
6.505504
 30
0.0
 10
3.968536
 20
6.504547
 30
0.0
 10
3.968734
 20
6.503576
 30
0.0
 10
3.968847
 20
6.502614
 30
0.0
  0
SPLINE
  5
171
100
AcDbEntity
  8
broken-silk
 62
7
100
AcDbSpline
 70
8
 71
3
 72
8
 73
4
 74
0
 40
0
 40
0
 40
0
 40
0
 40
1
 40
1
 40
1
 40
1
 10
3.968847
 20
6.502614
 30
0.0
 10
3.968939
 20
6.501649
 30
0.0
 10
3.968926
 20
6.500689
 30
0.0
 10
3.968790
 20
6.499749
 30
0.0
  0
SPLINE
  5
172
100
AcDbEntity
  8
broken-silk
 62
7
100
AcDbSpline
 70
8
 71
3
 72
8
 73
4
 74
0
 40
0
 40
0
 40
0
 40
0
 40
1
 40
1
 40
1
 40
1
 10
3.968790
 20
6.499749
 30
0.0
 10
3.968197
 20
6.495724
 30
0.0
 10
3.967153
 20
6.490916
 30
0.0
 10
3.965841
 20
6.485606
 30
0.0
  0
SPLINE
  5
173
100
AcDbEntity
  8
broken-silk
 62
7
100
AcDbSpline
 70
8
 71
3
 72
8
 73
4
 74
0
 40
0
 40
0
 40
0
 40
0
 40
1
 40
1
 40
1
 40
1
 10
3.965841
 20
6.485606
 30
0.0
 10
3.964740
 20
6.481184
 30
0.0
 10
3.963442
 20
6.476414
 30
0.0
 10
3.962087
 20
6.471458
 30
0.0
  0
SPLINE
  5
174
100
AcDbEntity
  8
broken-silk
 62
7
100
AcDbSpline
 70
8
 71
3
 72
8
 73
4
 74
0
 40
0
 40
0
 40
0
 40
0
 40
1
 40
1
 40
1
 40
1
 10
3.962087
 20
6.471458
 30
0.0
 10
3.960817
 20
6.466886
 30
0.0
 10
3.959491
 20
6.462157
 30
0.0
 10
3.958207
 20
6.457396
 30
0.0
  0
SPLINE
  5
175
100
AcDbEntity
  8
broken-silk
 62
7
100
AcDbSpline
 70
8
 71
3
 72
8
 73
4
 74
0
 40
0
 40
0
 40
0
 40
0
 40
1
 40
1
 40
1
 40
1
 10
3.958207
 20
6.457396
 30
0.0
 10
3.956909
 20
6.452634
 30
0.0
 10
3.955639
 20
6.447841
 30
0.0
 10
3.954470
 20
6.443144
 30
0.0
  0
SPLINE
  5
176
100
AcDbEntity
  8
broken-silk
 62
7
100
AcDbSpline
 70
8
 71
3
 72
8
 73
4
 74
0
 40
0
 40
0
 40
0
 40
0
 40
1
 40
1
 40
1
 40
1
 10
3.954470
 20
6.443144
 30
0.0
 10
3.953228
 20
6.438150
 30
0.0
 10
3.952128
 20
6.433265
 30
0.0
 10
3.951256
 20
6.428639
 30
0.0
  0
SPLINE
  5
177
100
AcDbEntity
  8
broken-silk
 62
7
100
AcDbSpline
 70
8
 71
3
 72
8
 73
4
 74
0
 40
0
 40
0
 40
0
 40
0
 40
1
 40
1
 40
1
 40
1
 10
3.951256
 20
6.428639
 30
0.0
 10
3.950268
 20
6.423360
 30
0.0
 10
3.949562
 20
6.418421
 30
0.0
 10
3.949336
 20
6.414047
 30
0.0
  0
SPLINE
  5
178
100
AcDbEntity
  8
broken-silk
 62
7
100
AcDbSpline
 70
8
 71
3
 72
8
 73
4
 74
0
 40
0
 40
0
 40
0
 40
0
 40
1
 40
1
 40
1
 40
1
 10
3.949336
 20
6.414047
 30
0.0
 10
3.949026
 20
6.408102
 30
0.0
 10
3.949579
 20
6.403203
 30
0.0
 10
3.951397
 20
6.399919
 30
0.0
  0
SPLINE
  5
179
100
AcDbEntity
  8
broken-silk
 62
7
100
AcDbSpline
 70
8
 71
3
 72
8
 73
4
 74
0
 40
0
 40
0
 40
0
 40
0
 40
1
 40
1
 40
1
 40
1
 10
3.951397
 20
6.399919
 30
0.0
 10
3.953570
 20
6.395956
 30
0.0
 10
3.957589
 20
6.394347
 30
0.0
 10
3.964131
 20
6.396092
 30
0.0
  0
SPLINE
  5
17a
100
AcDbEntity
  8
broken-silk
 62
7
100
AcDbSpline
 70
8
 71
3
 72
8
 73
4
 74
0
 40
0
 40
0
 40
0
 40
0
 40
1
 40
1
 40
1
 40
1
 10
3.964131
 20
6.396092
 30
0.0
 10
3.968257
 20
6.396370
 30
0.0
 10
3.974085
 20
6.397337
 30
0.0
 10
3.981002
 20
6.398624
 30
0.0
  0
SPLINE
  5
17b
100
AcDbEntity
  8
broken-silk
 62
7
100
AcDbSpline
 70
8
 71
3
 72
8
 73
4
 74
0
 40
0
 40
0
 40
0
 40
0
 40
1
 40
1
 40
1
 40
1
 10
3.981002
 20
6.398624
 30
0.0
 10
3.986093
 20
6.399569
 30
0.0
 10
3.991774
 20
6.400690
 30
0.0
 10
3.997808
 20
6.401832
 30
0.0
  0
SPLINE
  5
17c
100
AcDbEntity
  8
broken-silk
 62
7
100
AcDbSpline
 70
8
 71
3
 72
8
 73
4
 74
0
 40
0
 40
0
 40
0
 40
0
 40
1
 40
1
 40
1
 40
1
 10
3.997808
 20
6.401832
 30
0.0
 10
4.003184
 20
6.402850
 30
0.0
 10
4.008837
 20
6.403889
 30
0.0
 10
4.014598
 20
6.404840
 30
0.0
  0
SPLINE
  5
17d
100
AcDbEntity
  8
broken-silk
 62
7
100
AcDbSpline
 70
8
 71
3
 72
8
 73
4
 74
0
 40
0
 40
0
 40
0
 40
0
 40
1
 40
1
 40
1
 40
1
 10
4.014598
 20
6.404840
 30
0.0
 10
4.020358
 20
6.405791
 30
0.0
 10
4.026225
 20
6.406657
 30
0.0
 10
4.032025
 20
6.407332
 30
0.0
  0
SPLINE
  5
17e
100
AcDbEntity
  8
broken-silk
 62
7
100
AcDbSpline
 70
8
 71
3
 72
8
 73
4
 74
0
 40
0
 40
0
 40
0
 40
0
 40
1
 40
1
 40
1
 40
1
 10
4.032025
 20
6.407332
 30
0.0
 10
4.037946
 20
6.408020
 30
0.0
 10
4.043799
 20
6.408512
 30
0.0
 10
4.049401
 20
6.408692
 30
0.0
  0
SPLINE
  5
17f
100
AcDbEntity
  8
broken-silk
 62
7
100
AcDbSpline
 70
8
 71
3
 72
8
 73
4
 74
0
 40
0
 40
0
 40
0
 40
0
 40
1
 40
1
 40
1
 40
1
 10
4.049401
 20
6.408692
 30
0.0
 10
4.055585
 20
6.408891
 30
0.0
 10
4.061463
 20
6.408712
 30
0.0
 10
4.066792
 20
6.408006
 30
0.0
  0
SPLINE
  5
180
100
AcDbEntity
  8
broken-silk
 62
7
100
AcDbSpline
 70
8
 71
3
 72
8
 73
4
 74
0
 40
0
 40
0
 40
0
 40
0
 40
1
 40
1
 40
1
 40
1
 10
4.066792
 20
6.408006
 30
0.0
 10
4.073176
 20
6.407160
 30
0.0
 10
4.078775
 20
6.405557
 30
0.0
 10
4.083163
 20
6.402940
 30
0.0
  0
SPLINE
  5
181
100
AcDbEntity
  8
broken-silk
 62
7
100
AcDbSpline
 70
8
 71
3
 72
8
 73
4
 74
0
 40
0
 40
0
 40
0
 40
0
 40
1
 40
1
 40
1
 40
1
 10
4.083163
 20
6.402940
 30
0.0
 10
4.088139
 20
6.399973
 30
0.0
 10
4.091562
 20
6.395703
 30
0.0
 10
4.092821
 20
6.389756
 30
0.0
  0
SPLINE
  5
182
100
AcDbEntity
  8
broken-silk
 62
7
100
AcDbSpline
 70
8
 71
3
 72
8
 73
4
 74
0
 40
0
 40
0
 40
0
 40
0
 40
1
 40
1
 40
1
 40
1
 10
4.092821
 20
6.389756
 30
0.0
 10
4.092996
 20
6.388700
 30
0.0
 10
4.092997
 20
6.387650
 30
0.0
 10
4.092852
 20
6.386617
 30
0.0
  0
SPLINE
  5
183
100
AcDbEntity
  8
broken-silk
 62
7
100
AcDbSpline
 70
8
 71
3
 72
8
 73
4
 74
0
 40
0
 40
0
 40
0
 40
0
 40
1
 40
1
 40
1
 40
1
 10
4.092852
 20
6.386617
 30
0.0
 10
4.092689
 20
6.385455
 30
0.0
 10
4.092344
 20
6.384309
 30
0.0
 10
4.091836
 20
6.383192
 30
0.0
  0
SPLINE
  5
184
100
AcDbEntity
  8
broken-silk
 62
7
100
AcDbSpline
 70
8
 71
3
 72
8
 73
4
 74
0
 40
0
 40
0
 40
0
 40
0
 40
1
 40
1
 40
1
 40
1
 10
4.091836
 20
6.383192
 30
0.0
 10
4.091413
 20
6.382261
 30
0.0
 10
4.090905
 20
6.381352
 30
0.0
 10
4.090312
 20
6.380466
 30
0.0
  0
SPLINE
  5
185
100
AcDbEntity
  8
broken-silk
 62
7
100
AcDbSpline
 70
8
 71
3
 72
8
 73
4
 74
0
 40
0
 40
0
 40
0
 40
0
 40
1
 40
1
 40
1
 40
1
 10
4.090312
 20
6.380466
 30
0.0
 10
4.089719
 20
6.379582
 30
0.0
 10
4.089042
 20
6.378722
 30
0.0
 10
4.088280
 20
6.377895
 30
0.0
  0
SPLINE
  5
186
100
AcDbEntity
  8
broken-silk
 62
7
100
AcDbSpline
 70
8
 71
3
 72
8
 73
4
 74
0
 40
0
 40
0
 40
0
 40
0
 40
1
 40
1
 40
1
 40
1
 10
4.088280
 20
6.377895
 30
0.0
 10
4.087546
 20
6.377068
 30
0.0
 10
4.086728
 20
6.376269
 30
0.0
 10
4.085881
 20
6.375513
 30
0.0
  0
SPLINE
  5
187
100
AcDbEntity
  8
broken-silk
 62
7
100
AcDbSpline
 70
8
 71
3
 72
8
 73
4
 74
0
 40
0
 40
0
 40
0
 40
0
 40
1
 40
1
 40
1
 40
1
 10
4.085881
 20
6.375513
 30
0.0
 10
4.085091
 20
6.374802
 30
0.0
 10
4.084273
 20
6.374124
 30
0.0
 10
4.083426
 20
6.373486
 30
0.0
  0
SPLINE
  5
188
100
AcDbEntity
  8
broken-silk
 62
7
100
AcDbSpline
 70
8
 71
3
 72
8
 73
4
 74
0
 40
0
 40
0
 40
0
 40
0
 40
1
 40
1
 40
1
 40
1
 10
4.083426
 20
6.373486
 30
0.0
 10
4.082495
 20
6.372784
 30
0.0
 10
4.081563
 20
6.372129
 30
0.0
 10
4.080604
 20
6.371528
 30
0.0
  0
SPLINE
  5
189
100
AcDbEntity
  8
broken-silk
 62
7
100
AcDbSpline
 70
8
 71
3
 72
8
 73
4
 74
0
 40
0
 40
0
 40
0
 40
0
 40
1
 40
1
 40
1
 40
1
 10
4.080604
 20
6.371528
 30
0.0
 10
4.079672
 20
6.370927
 30
0.0
 10
4.078713
 20
6.370376
 30
0.0
 10
4.077810
 20
6.369888
 30
0.0
  0
SPLINE
  5
18a
100
AcDbEntity
  8
broken-silk
 62
7
100
AcDbSpline
 70
8
 71
3
 72
8
 73
4
 74
0
 40
0
 40
0
 40
0
 40
0
 40
1
 40
1
 40
1
 40
1
 10
4.077810
 20
6.369888
 30
0.0
 10
4.075439
 20
6.368615
 30
0.0
 10
4.072970
 20
6.367633
 30
0.0
 10
4.070444
 20
6.366884
 30
0.0
  0
SPLINE
  5
18b
100
AcDbEntity
  8
broken-silk
 62
7
100
AcDbSpline
 70
8
 71
3
 72
8
 73
4
 74
0
 40
0
 40
0
 40
0
 40
0
 40
1
 40
1
 40
1
 40
1
 10
4.070444
 20
6.366884
 30
0.0
 10
4.067847
 20
6.366110
 30
0.0
 10
4.065166
 20
6.365586
 30
0.0
 10
4.062443
 20
6.365247
 30
0.0
  0
SPLINE
  5
18c
100
AcDbEntity
  8
broken-silk
 62
7
100
AcDbSpline
 70
8
 71
3
 72
8
 73
4
 74
0
 40
0
 40
0
 40
0
 40
0
 40
1
 40
1
 40
1
 40
1
 10
4.062443
 20
6.365247
 30
0.0
 10
4.059846
 20
6.364922
 30
0.0
 10
4.057193
 20
6.364770
 30
0.0
 10
4.054512
 20
6.364730
 30
0.0
  0
SPLINE
  5
18d
100
AcDbEntity
  8
broken-silk
 62
7
100
AcDbSpline
 70
8
 71
3
 72
8
 73
4
 74
0
 40
0
 40
0
 40
0
 40
0
 40
1
 40
1
 40
1
 40
1
 10
4.054512
 20
6.364730
 30
0.0
 10
4.051831
 20
6.364692
 30
0.0
 10
4.049116
 20
6.364770
 30
0.0
 10
4.046384
 20
6.364910
 30
0.0
  0
SPLINE
  5
18e
100
AcDbEntity
  8
broken-silk
 62
7
100
AcDbSpline
 70
8
 71
3
 72
8
 73
4
 74
0
 40
0
 40
0
 40
0
 40
0
 40
1
 40
1
 40
1
 40
1
 10
4.046384
 20
6.364910
 30
0.0
 10
4.043703
 20
6.365048
 30
0.0
 10
4.040985
 20
6.365246
 30
0.0
 10
4.038273
 20
6.365452
 30
0.0
  0
SPLINE
  5
18f
100
AcDbEntity
  8
broken-silk
 62
7
100
AcDbSpline
 70
8
 71
3
 72
8
 73
4
 74
0
 40
0
 40
0
 40
0
 40
0
 40
1
 40
1
 40
1
 40
1
 10
4.038273
 20
6.365452
 30
0.0
 10
4.035592
 20
6.365656
 30
0.0
 10
4.032931
 20
6.365869
 30
0.0
 10
4.030267
 20
6.366042
 30
0.0
  0
SPLINE
  5
190
100
AcDbEntity
  8
broken-silk
 62
7
100
AcDbSpline
 70
8
 71
3
 72
8
 73
4
 74
0
 40
0
 40
0
 40
0
 40
0
 40
1
 40
1
 40
1
 40
1
 10
4.030267
 20
6.366042
 30
0.0
 10
4.027529
 20
6.366218
 30
0.0
 10
4.024822
 20
6.366352
 30
0.0
 10
4.022130
 20
6.366392
 30
0.0
  0
SPLINE
  5
191
100
AcDbEntity
  8
broken-silk
 62
7
100
AcDbSpline
 70
8
 71
3
 72
8
 73
4
 74
0
 40
0
 40
0
 40
0
 40
0
 40
1
 40
1
 40
1
 40
1
 10
4.022130
 20
6.366392
 30
0.0
 10
4.019449
 20
6.366432
 30
0.0
 10
4.016771
 20
6.366377
 30
0.0
 10
4.014143
 20
6.366176
 30
0.0
  0
SPLINE
  5
192
100
AcDbEntity
  8
broken-silk
 62
7
100
AcDbSpline
 70
8
 71
3
 72
8
 73
4
 74
0
 40
0
 40
0
 40
0
 40
0
 40
1
 40
1
 40
1
 40
1
 10
4.014143
 20
6.366176
 30
0.0
 10
4.005945
 20
6.366466
 30
0.0
 10
3.998567
 20
6.366319
 30
0.0
 10
3.991946
 20
6.365758
 30
0.0
  0
SPLINE
  5
193
100
AcDbEntity
  8
broken-silk
 62
7
100
AcDbSpline
 70
8
 71
3
 72
8
 73
4
 74
0
 40
0
 40
0
 40
0
 40
0
 40
1
 40
1
 40
1
 40
1
 10
3.991946
 20
6.365758
 30
0.0
 10
3.983471
 20
6.365038
 30
0.0
 10
3.976229
 20
6.363641
 30
0.0
 10
3.970069
 20
6.361619
 30
0.0
  0
SPLINE
  5
194
100
AcDbEntity
  8
broken-silk
 62
7
100
AcDbSpline
 70
8
 71
3
 72
8
 73
4
 74
0
 40
0
 40
0
 40
0
 40
0
 40
1
 40
1
 40
1
 40
1
 10
3.970069
 20
6.361619
 30
0.0
 10
3.962087
 20
6.358997
 30
0.0
 10
3.955926
 20
6.355329
 30
0.0
 10
3.951264
 20
6.350726
 30
0.0
  0
SPLINE
  5
195
100
AcDbEntity
  8
broken-silk
 62
7
100
AcDbSpline
 70
8
 71
3
 72
8
 73
4
 74
0
 40
0
 40
0
 40
0
 40
0
 40
1
 40
1
 40
1
 40
1
 10
3.951264
 20
6.350726
 30
0.0
 10
3.945978
 20
6.345509
 30
0.0
 10
3.942614
 20
6.339093
 30
0.0
 10
3.940700
 20
6.331647
 30
0.0
  0
SPLINE
  5
196
100
AcDbEntity
  8
broken-silk
 62
7
100
AcDbSpline
 70
8
 71
3
 72
8
 73
4
 74
0
 40
0
 40
0
 40
0
 40
0
 40
1
 40
1
 40
1
 40
1
 10
3.940700
 20
6.331647
 30
0.0
 10
3.939007
 20
6.325051
 30
0.0
 10
3.938443
 20
6.317646
 30
0.0
 10
3.938697
 20
6.309550
 30
0.0
  0
SPLINE
  5
197
100
AcDbEntity
  8
broken-silk
 62
7
100
AcDbSpline
 70
8
 71
3
 72
8
 73
4
 74
0
 40
0
 40
0
 40
0
 40
0
 40
1
 40
1
 40
1
 40
1
 10
3.938697
 20
6.309550
 30
0.0
 10
3.938908
 20
6.302766
 30
0.0
 10
3.939684
 20
6.295497
 30
0.0
 10
3.940842
 20
6.287812
 30
0.0
  0
SPLINE
  5
198
100
AcDbEntity
  8
broken-silk
 62
7
100
AcDbSpline
 70
8
 71
3
 72
8
 73
4
 74
0
 40
0
 40
0
 40
0
 40
0
 40
1
 40
1
 40
1
 40
1
 10
3.940842
 20
6.287812
 30
0.0
 10
3.941858
 20
6.280983
 30
0.0
 10
3.943184
 20
6.273825
 30
0.0
 10
3.944671
 20
6.266387
 30
0.0
  0
SPLINE
  5
199
100
AcDbEntity
  8
broken-silk
 62
7
100
AcDbSpline
 70
8
 71
3
 72
8
 73
4
 74
0
 40
0
 40
0
 40
0
 40
0
 40
1
 40
1
 40
1
 40
1
 10
3.944671
 20
6.266387
 30
0.0
 10
3.946054
 20
6.259400
 30
0.0
 10
3.947598
 20
6.252166
 30
0.0
 10
3.949162
 20
6.244725
 30
0.0
  0
SPLINE
  5
19a
100
AcDbEntity
  8
broken-silk
 62
7
100
AcDbSpline
 70
8
 71
3
 72
8
 73
4
 74
0
 40
0
 40
0
 40
0
 40
0
 40
1
 40
1
 40
1
 40
1
 10
3.949162
 20
6.244725
 30
0.0
 10
3.950488
 20
6.240989
 30
0.0
 10
3.951956
 20
6.237579
 30
0.0
 10
3.953527
 20
6.234475
 30
0.0
  0
SPLINE
  5
19b
100
AcDbEntity
  8
broken-silk
 62
7
100
AcDbSpline
 70
8
 71
3
 72
8
 73
4
 74
0
 40
0
 40
0
 40
0
 40
0
 40
1
 40
1
 40
1
 40
1
 10
3.953527
 20
6.234475
 30
0.0
 10
3.955362
 20
6.230859
 30
0.0
 10
3.957377
 20
6.227660
 30
0.0
 10
3.959547
 20
6.224848
 30
0.0
  0
SPLINE
  5
19c
100
AcDbEntity
  8
broken-silk
 62
7
100
AcDbSpline
 70
8
 71
3
 72
8
 73
4
 74
0
 40
0
 40
0
 40
0
 40
0
 40
1
 40
1
 40
1
 40
1
 10
3.959547
 20
6.224848
 30
0.0
 10
3.962031
 20
6.221622
 30
0.0
 10
3.964743
 20
6.218906
 30
0.0
 10
3.967650
 20
6.216658
 30
0.0
  0
SPLINE
  5
19d
100
AcDbEntity
  8
broken-silk
 62
7
100
AcDbSpline
 70
8
 71
3
 72
8
 73
4
 74
0
 40
0
 40
0
 40
0
 40
0
 40
1
 40
1
 40
1
 40
1
 10
3.967650
 20
6.216658
 30
0.0
 10
3.970746
 20
6.214265
 30
0.0
 10
3.974073
 20
6.212400
 30
0.0
 10
3.977621
 20
6.211013
 30
0.0
  0
SPLINE
  5
19e
100
AcDbEntity
  8
broken-silk
 62
7
100
AcDbSpline
 70
8
 71
3
 72
8
 73
4
 74
0
 40
0
 40
0
 40
0
 40
0
 40
1
 40
1
 40
1
 40
1
 10
3.977621
 20
6.211013
 30
0.0
 10
3.981075
 20
6.209664
 30
0.0
 10
3.984738
 20
6.208767
 30
0.0
 10
3.988602
 20
6.208276
 30
0.0
  0
SPLINE
  5
19f
100
AcDbEntity
  8
broken-silk
 62
7
100
AcDbSpline
 70
8
 71
3
 72
8
 73
4
 74
0
 40
0
 40
0
 40
0
 40
0
 40
1
 40
1
 40
1
 40
1
 10
3.988602
 20
6.208276
 30
0.0
 10
3.992150
 20
6.207824
 30
0.0
 10
3.995866
 20
6.207714
 30
0.0
 10
3.999744
 20
6.207909
 30
0.0
  0
SPLINE
  5
1a0
100
AcDbEntity
  8
broken-silk
 62
7
100
AcDbSpline
 70
8
 71
3
 72
8
 73
4
 74
0
 40
0
 40
0
 40
0
 40
0
 40
1
 40
1
 40
1
 40
1
 10
3.999744
 20
6.207909
 30
0.0
 10
4.003416
 20
6.208094
 30
0.0
 10
4.007232
 20
6.208552
 30
0.0
 10
4.011185
 20
6.209252
 30
0.0
  0
SPLINE
  5
1a1
100
AcDbEntity
  8
broken-silk
 62
7
100
AcDbSpline
 70
8
 71
3
 72
8
 73
4
 74
0
 40
0
 40
0
 40
0
 40
0
 40
1
 40
1
 40
1
 40
1
 10
4.011185
 20
6.209252
 30
0.0
 10
4.014674
 20
6.209870
 30
0.0
 10
4.018269
 20
6.210678
 30
0.0
 10
4.021966
 20
6.211651
 30
0.0
  0
SPLINE
  5
1a2
100
AcDbEntity
  8
broken-silk
 62
7
100
AcDbSpline
 70
8
 71
3
 72
8
 73
4
 74
0
 40
0
 40
0
 40
0
 40
0
 40
1
 40
1
 40
1
 40
1
 10
4.021966
 20
6.211651
 30
0.0
 10
4.024309
 20
6.212272
 30
0.0
 10
4.026555
 20
6.213161
 30
0.0
 10
4.028740
 20
6.214242
 30
0.0
  0
SPLINE
  5
1a3
100
AcDbEntity
  8
broken-silk
 62
7
100
AcDbSpline
 70
8
 71
3
 72
8
 73
4
 74
0
 40
0
 40
0
 40
0
 40
0
 40
1
 40
1
 40
1
 40
1
 10
4.028740
 20
6.214242
 30
0.0
 10
4.030997
 20
6.215357
 30
0.0
 10
4.033179
 20
6.216678
 30
0.0
 10
4.035318
 20
6.218119
 30
0.0
  0
SPLINE
  5
1a4
100
AcDbEntity
  8
broken-silk
 62
7
100
AcDbSpline
 70
8
 71
3
 72
8
 73
4
 74
0
 40
0
 40
0
 40
0
 40
0
 40
1
 40
1
 40
1
 40
1
 10
4.035318
 20
6.218119
 30
0.0
 10
4.037350
 20
6.219497
 30
0.0
 10
4.039363
 20
6.220987
 30
0.0
 10
4.041347
 20
6.222518
 30
0.0
  0
SPLINE
  5
1a5
100
AcDbEntity
  8
broken-silk
 62
7
100
AcDbSpline
 70
8
 71
3
 72
8
 73
4
 74
0
 40
0
 40
0
 40
0
 40
0
 40
1
 40
1
 40
1
 40
1
 10
4.041347
 20
6.222518
 30
0.0
 10
4.043322
 20
6.224051
 30
0.0
 10
4.045295
 20
6.225622
 30
0.0
 10
4.047265
 20
6.227166
 30
0.0
  0
SPLINE
  5
1a6
100
AcDbEntity
  8
broken-silk
 62
7
100
AcDbSpline
 70
8
 71
3
 72
8
 73
4
 74
0
 40
0
 40
0
 40
0
 40
0
 40
1
 40
1
 40
1
 40
1
 10
4.047265
 20
6.227166
 30
0.0
 10
4.049212
 20
6.228681
 30
0.0
 10
4.051137
 20
6.230171
 30
0.0
 10
4.053098
 20
6.231563
 30
0.0
  0
SPLINE
  5
1a7
100
AcDbEntity
  8
broken-silk
 62
7
100
AcDbSpline
 70
8
 71
3
 72
8
 73
4
 74
0
 40
0
 40
0
 40
0
 40
0
 40
1
 40
1
 40
1
 40
1
 10
4.053098
 20
6.231563
 30
0.0
 10
4.055215
 20
6.233056
 30
0.0
 10
4.057332
 20
6.234438
 30
0.0
 10
4.059516
 20
6.235627
 30
0.0
  0
SPLINE
  5
1a8
100
AcDbEntity
  8
broken-silk
 62
7
100
AcDbSpline
 70
8
 71
3
 72
8
 73
4
 74
0
 40
0
 40
0
 40
0
 40
0
 40
1
 40
1
 40
1
 40
1
 10
4.059516
 20
6.235627
 30
0.0
 10
4.061746
 20
6.236847
 30
0.0
 10
4.064043
 20
6.237863
 30
0.0
 10
4.066416
 20
6.238586
 30
0.0
  0
SPLINE
  5
1a9
100
AcDbEntity
  8
broken-silk
 62
7
100
AcDbSpline
 70
8
 71
3
 72
8
 73
4
 74
0
 40
0
 40
0
 40
0
 40
0
 40
1
 40
1
 40
1
 40
1
 10
4.066416
 20
6.238586
 30
0.0
 10
4.068787
 20
6.239311
 30
0.0
 10
4.071248
 20
6.239743
 30
0.0
 10
4.073816
 20
6.239800
 30
0.0
  0
SPLINE
  5
1aa
100
AcDbEntity
  8
broken-silk
 62
7
100
AcDbSpline
 70
8
 71
3
 72
8
 73
4
 74
0
 40
0
 40
0
 40
0
 40
0
 40
1
 40
1
 40
1
 40
1
 10
4.073816
 20
6.239800
 30
0.0
 10
4.075876
 20
6.239576
 30
0.0
 10
4.077714
 20
6.239255
 30
0.0
 10
4.079345
 20
6.238846
 30
0.0
  0
SPLINE
  5
1ab
100
AcDbEntity
  8
broken-silk
 62
7
100
AcDbSpline
 70
8
 71
3
 72
8
 73
4
 74
0
 40
0
 40
0
 40
0
 40
0
 40
1
 40
1
 40
1
 40
1
 10
4.079345
 20
6.238846
 30
0.0
 10
4.081321
 20
6.238352
 30
0.0
 10
4.082972
 20
6.237734
 30
0.0
 10
4.084357
 20
6.237003
 30
0.0
  0
SPLINE
  5
1ac
100
AcDbEntity
  8
broken-silk
 62
7
100
AcDbSpline
 70
8
 71
3
 72
8
 73
4
 74
0
 40
0
 40
0
 40
0
 40
0
 40
1
 40
1
 40
1
 40
1
 10
4.084357
 20
6.237003
 30
0.0
 10
4.086305
 20
6.235975
 30
0.0
 10
4.087713
 20
6.234731
 30
0.0
 10
4.088639
 20
6.233317
 30
0.0
  0
SPLINE
  5
1ad
100
AcDbEntity
  8
broken-silk
 62
7
100
AcDbSpline
 70
8
 71
3
 72
8
 73
4
 74
0
 40
0
 40
0
 40
0
 40
0
 40
1
 40
1
 40
1
 40
1
 10
4.088639
 20
6.233317
 30
0.0
 10
4.089683
 20
6.231714
 30
0.0
 10
4.090134
 20
6.229892
 30
0.0
 10
4.090050
 20
6.227920
 30
0.0
  0
SPLINE
  5
1ae
100
AcDbEntity
  8
broken-silk
 62
7
100
AcDbSpline
 70
8
 71
3
 72
8
 73
4
 74
0
 40
0
 40
0
 40
0
 40
0
 40
1
 40
1
 40
1
 40
1
 10
4.090050
 20
6.227920
 30
0.0
 10
4.089986
 20
6.226164
 30
0.0
 10
4.089513
 20
6.224292
 30
0.0
 10
4.088723
 20
6.222349
 30
0.0
  0
SPLINE
  5
1af
100
AcDbEntity
  8
broken-silk
 62
7
100
AcDbSpline
 70
8
 71
3
 72
8
 73
4
 74
0
 40
0
 40
0
 40
0
 40
0
 40
1
 40
1
 40
1
 40
1
 10
4.088723
 20
6.222349
 30
0.0
 10
4.088074
 20
6.220746
 30
0.0
 10
4.087171
 20
6.219095
 30
0.0
 10
4.086099
 20
6.217424
 30
0.0
  0
SPLINE
  5
1b0
100
AcDbEntity
  8
broken-silk
 62
7
100
AcDbSpline
 70
8
 71
3
 72
8
 73
4
 74
0
 40
0
 40
0
 40
0
 40
0
 40
1
 40
1
 40
1
 40
1
 10
4.086099
 20
6.217424
 30
0.0
 10
4.085195
 20
6.216033
 30
0.0
 10
4.084179
 20
6.214625
 30
0.0
 10
4.083042
 20
6.213220
 30
0.0
  0
SPLINE
  5
1b1
100
AcDbEntity
  8
broken-silk
 62
7
100
AcDbSpline
 70
8
 71
3
 72
8
 73
4
 74
0
 40
0
 40
0
 40
0
 40
0
 40
1
 40
1
 40
1
 40
1
 10
4.083042
 20
6.213220
 30
0.0
 10
4.081913
 20
6.211815
 30
0.0
 10
4.080671
 20
6.210412
 30
0.0
 10
4.079345
 20
6.209027
 30
0.0
  0
SPLINE
  5
1b2
100
AcDbEntity
  8
broken-silk
 62
7
100
AcDbSpline
 70
8
 71
3
 72
8
 73
4
 74
0
 40
0
 40
0
 40
0
 40
0
 40
1
 40
1
 40
1
 40
1
 10
4.079345
 20
6.209027
 30
0.0
 10
4.076054
 20
6.206060
 30
0.0
 10
4.072617
 20
6.203298
 30
0.0
 10
4.069058
 20
6.200741
 30
0.0
  0
SPLINE
  5
1b3
100
AcDbEntity
  8
broken-silk
 62
7
100
AcDbSpline
 70
8
 71
3
 72
8
 73
4
 74
0
 40
0
 40
0
 40
0
 40
0
 40
1
 40
1
 40
1
 40
1
 10
4.069058
 20
6.200741
 30
0.0
 10
4.065553
 20
6.198224
 30
0.0
 10
4.061932
 20
6.195904
 30
0.0
 10
4.058212
 20
6.193781
 30
0.0
  0
SPLINE
  5
1b4
100
AcDbEntity
  8
broken-silk
 62
7
100
AcDbSpline
 70
8
 71
3
 72
8
 73
4
 74
0
 40
0
 40
0
 40
0
 40
0
 40
1
 40
1
 40
1
 40
1
 10
4.058212
 20
6.193781
 30
0.0
 10
4.054405
 20
6.191608
 30
0.0
 10
4.050499
 20
6.189641
 30
0.0
 10
4.046517
 20
6.187878
 30
0.0
  0
SPLINE
  5
1b5
100
AcDbEntity
  8
broken-silk
 62
7
100
AcDbSpline
 70
8
 71
3
 72
8
 73
4
 74
0
 40
0
 40
0
 40
0
 40
0
 40
1
 40
1
 40
1
 40
1
 10
4.046517
 20
6.187878
 30
0.0
 10
4.042535
 20
6.186114
 30
0.0
 10
4.038479
 20
6.184558
 30
0.0
 10
4.034373
 20
6.183204
 30
0.0
  0
SPLINE
  5
1b6
100
AcDbEntity
  8
broken-silk
 62
7
100
AcDbSpline
 70
8
 71
3
 72
8
 73
4
 74
0
 40
0
 40
0
 40
0
 40
0
 40
1
 40
1
 40
1
 40
1
 10
4.034373
 20
6.183204
 30
0.0
 10
4.030168
 20
6.181818
 30
0.0
 10
4.025912
 20
6.180644
 30
0.0
 10
4.021631
 20
6.179683
 30
0.0
  0
SPLINE
  5
1b7
100
AcDbEntity
  8
broken-silk
 62
7
100
AcDbSpline
 70
8
 71
3
 72
8
 73
4
 74
0
 40
0
 40
0
 40
0
 40
0
 40
1
 40
1
 40
1
 40
1
 10
4.021631
 20
6.179683
 30
0.0
 10
4.017417
 20
6.178738
 30
0.0
 10
4.013178
 20
6.177995
 30
0.0
 10
4.008939
 20
6.177459
 30
0.0
  0
SPLINE
  5
1b8
100
AcDbEntity
  8
broken-silk
 62
7
100
AcDbSpline
 70
8
 71
3
 72
8
 73
4
 74
0
 40
0
 40
0
 40
0
 40
0
 40
1
 40
1
 40
1
 40
1
 10
4.008939
 20
6.177459
 30
0.0
 10
4.004601
 20
6.176909
 30
0.0
 10
4.000263
 20
6.176573
 30
0.0
 10
3.995954
 20
6.176449
 30
0.0
  0
SPLINE
  5
1b9
100
AcDbEntity
  8
broken-silk
 62
7
100
AcDbSpline
 70
8
 71
3
 72
8
 73
4
 74
0
 40
0
 40
0
 40
0
 40
0
 40
1
 40
1
 40
1
 40
1
 10
3.995954
 20
6.176449
 30
0.0
 10
3.991644
 20
6.176325
 30
0.0
 10
3.987363
 20
6.176414
 30
0.0
 10
3.983141
 20
6.176714
 30
0.0
  0
SPLINE
  5
1ba
100
AcDbEntity
  8
broken-silk
 62
7
100
AcDbSpline
 70
8
 71
3
 72
8
 73
4
 74
0
 40
0
 40
0
 40
0
 40
0
 40
1
 40
1
 40
1
 40
1
 10
3.983141
 20
6.176714
 30
0.0
 10
3.979726
 20
6.177044
 30
0.0
 10
3.976404
 20
6.177679
 30
0.0
 10
3.973187
 20
6.178579
 30
0.0
  0
SPLINE
  5
1bb
100
AcDbEntity
  8
broken-silk
 62
7
100
AcDbSpline
 70
8
 71
3
 72
8
 73
4
 74
0
 40
0
 40
0
 40
0
 40
0
 40
1
 40
1
 40
1
 40
1
 10
3.973187
 20
6.178579
 30
0.0
 10
3.970021
 20
6.179465
 30
0.0
 10
3.966953
 20
6.180611
 30
0.0
 10
3.963992
 20
6.181984
 30
0.0
  0
SPLINE
  5
1bc
100
AcDbEntity
  8
broken-silk
 62
7
100
AcDbSpline
 70
8
 71
3
 72
8
 73
4
 74
0
 40
0
 40
0
 40
0
 40
0
 40
1
 40
1
 40
1
 40
1
 10
3.963992
 20
6.181984
 30
0.0
 10
3.960961
 20
6.183389
 30
0.0
 10
3.958040
 20
6.185030
 30
0.0
 10
3.955235
 20
6.186871
 30
0.0
  0
SPLINE
  5
1bd
100
AcDbEntity
  8
broken-silk
 62
7
100
AcDbSpline
 70
8
 71
3
 72
8
 73
4
 74
0
 40
0
 40
0
 40
0
 40
0
 40
1
 40
1
 40
1
 40
1
 10
3.955235
 20
6.186871
 30
0.0
 10
3.952441
 20
6.188714
 30
0.0
 10
3.949746
 20
6.190756
 30
0.0
 10
3.947183
 20
6.192963
 30
0.0
  0
SPLINE
  5
1be
100
AcDbEntity
  8
broken-silk
 62
7
100
AcDbSpline
 70
8
 71
3
 72
8
 73
4
 74
0
 40
0
 40
0
 40
0
 40
0
 40
1
 40
1
 40
1
 40
1
 10
3.947183
 20
6.192963
 30
0.0
 10
3.944643
 20
6.195153
 30
0.0
 10
3.942222
 20
6.197505
 30
0.0
 10
3.939930
 20
6.199984
 30
0.0
  0
SPLINE
  5
1bf
100
AcDbEntity
  8
broken-silk
 62
7
100
AcDbSpline
 70
8
 71
3
 72
8
 73
4
 74
0
 40
0
 40
0
 40
0
 40
0
 40
1
 40
1
 40
1
 40
1
 10
3.939930
 20
6.199984
 30
0.0
 10
3.937672
 20
6.202426
 30
0.0
 10
3.935544
 20
6.204988
 30
0.0
 10
3.933546
 20
6.207641
 30
0.0
  0
SPLINE
  5
1c0
100
AcDbEntity
  8
broken-silk
 62
7
100
AcDbSpline
 70
8
 71
3
 72
8
 73
4
 74
0
 40
0
 40
0
 40
0
 40
0
 40
1
 40
1
 40
1
 40
1
 10
3.933546
 20
6.207641
 30
0.0
 10
3.931486
 20
6.210356
 30
0.0
 10
3.929589
 20
6.213168
 30
0.0
 10
3.927826
 20
6.216036
 30
0.0
  0
SPLINE
  5
1c1
100
AcDbEntity
  8
broken-silk
 62
7
100
AcDbSpline
 70
8
 71
3
 72
8
 73
4
 74
0
 40
0
 40
0
 40
0
 40
0
 40
1
 40
1
 40
1
 40
1
 10
3.927826
 20
6.216036
 30
0.0
 10
3.926048
 20
6.218904
 30
0.0
 10
3.924439
 20
6.221830
 30
0.0
 10
3.922968
 20
6.224777
 30
0.0
  0
SPLINE
  5
1c2
100
AcDbEntity
  8
broken-silk
 62
7
100
AcDbSpline
 70
8
 71
3
 72
8
 73
4
 74
0
 40
0
 40
0
 40
0
 40
0
 40
1
 40
1
 40
1
 40
1
 10
3.922968
 20
6.224777
 30
0.0
 10
3.919370
 20
6.229740
 30
0.0
 10
3.916590
 20
6.234865
 30
0.0
 10
3.914448
 20
6.240105
 30
0.0
  0
SPLINE
  5
1c3
100
AcDbEntity
  8
broken-silk
 62
7
100
AcDbSpline
 70
8
 71
3
 72
8
 73
4
 74
0
 40
0
 40
0
 40
0
 40
0
 40
1
 40
1
 40
1
 40
1
 10
3.914448
 20
6.240105
 30
0.0
 10
3.912247
 20
6.245485
 30
0.0
 10
3.910728
 20
6.250987
 30
0.0
 10
3.909696
 20
6.256561
 30
0.0
  0
SPLINE
  5
1c4
100
AcDbEntity
  8
broken-silk
 62
7
100
AcDbSpline
 70
8
 71
3
 72
8
 73
4
 74
0
 40
0
 40
0
 40
0
 40
0
 40
1
 40
1
 40
1
 40
1
 10
3.909696
 20
6.256561
 30
0.0
 10
3.908651
 20
6.262268
 30
0.0
 10
3.908087
 20
6.268050
 30
0.0
 10
3.907861
 20
6.273854
 30
0.0
  0
SPLINE
  5
1c5
100
AcDbEntity
  8
broken-silk
 62
7
100
AcDbSpline
 70
8
 71
3
 72
8
 73
4
 74
0
 40
0
 40
0
 40
0
 40
0
 40
1
 40
1
 40
1
 40
1
 10
3.907861
 20
6.273854
 30
0.0
 10
3.907629
 20
6.279659
 30
0.0
 10
3.907709
 20
6.285486
 30
0.0
 10
3.907900
 20
6.291282
 30
0.0
  0
SPLINE
  5
1c6
100
AcDbEntity
  8
broken-silk
 62
7
100
AcDbSpline
 70
8
 71
3
 72
8
 73
4
 74
0
 40
0
 40
0
 40
0
 40
0
 40
1
 40
1
 40
1
 40
1
 10
3.907900
 20
6.291282
 30
0.0
 10
3.908091
 20
6.297052
 30
0.0
 10
3.908380
 20
6.302791
 30
0.0
 10
3.908606
 20
6.308447
 30
0.0
  0
SPLINE
  5
1c7
100
AcDbEntity
  8
broken-silk
 62
7
100
AcDbSpline
 70
8
 71
3
 72
8
 73
4
 74
0
 40
0
 40
0
 40
0
 40
0
 40
1
 40
1
 40
1
 40
1
 10
3.908606
 20
6.308447
 30
0.0
 10
3.908828
 20
6.314365
 30
0.0
 10
3.908944
 20
6.320193
 30
0.0
 10
3.908757
 20
6.325869
 30
0.0
  0
SPLINE
  5
1c8
100
AcDbEntity
  8
broken-silk
 62
7
100
AcDbSpline
 70
8
 71
3
 72
8
 73
4
 74
0
 40
0
 40
0
 40
0
 40
0
 40
1
 40
1
 40
1
 40
1
 10
3.908757
 20
6.325869
 30
0.0
 10
3.908548
 20
6.331891
 30
0.0
 10
3.907967
 20
6.337743
 30
0.0
 10
3.906753
 20
6.343353
 30
0.0
  0
SPLINE
  5
1c9
100
AcDbEntity
  8
broken-silk
 62
7
100
AcDbSpline
 70
8
 71
3
 72
8
 73
4
 74
0
 40
0
 40
0
 40
0
 40
0
 40
1
 40
1
 40
1
 40
1
 10
3.906753
 20
6.343353
 30
0.0
 10
3.905540
 20
6.348963
 30
0.0
 10
3.903702
 20
6.354331
 30
0.0
 10
3.900953
 20
6.359385
 30
0.0
  0
SPLINE
  5
1ca
100
AcDbEntity
  8
broken-silk
 62
7
100
AcDbSpline
 70
8
 71
3
 72
8
 73
4
 74
0
 40
0
 40
0
 40
0
 40
0
 40
1
 40
1
 40
1
 40
1
 10
3.900953
 20
6.359385
 30
0.0
 10
3.900953
 20
6.359385
 30
0.0
 10
3.898752
 20
6.358654
 30
0.0
 10
3.895250
 20
6.357717
 30
0.0
  0
SPLINE
  5
1cb
100
AcDbEntity
  8
broken-silk
 62
7
100
AcDbSpline
 70
8
 71
3
 72
8
 73
4
 74
0
 40
0
 40
0
 40
0
 40
0
 40
1
 40
1
 40
1
 40
1
 10
3.895250
 20
6.357717
 30
0.0
 10
3.893556
 20
6.357265
 30
0.0
 10
3.891578
 20
6.356766
 30
0.0
 10
3.889394
 20
6.356275
 30
0.0
  0
SPLINE
  5
1cc
100
AcDbEntity
  8
broken-silk
 62
7
100
AcDbSpline
 70
8
 71
3
 72
8
 73
4
 74
0
 40
0
 40
0
 40
0
 40
0
 40
1
 40
1
 40
1
 40
1
 10
3.889394
 20
6.356275
 30
0.0
 10
3.887587
 20
6.355866
 30
0.0
 10
3.885615
 20
6.355465
 30
0.0
 10
3.883580
 20
6.355106
 30
0.0
  0
SPLINE
  5
1cd
100
AcDbEntity
  8
broken-silk
 62
7
100
AcDbSpline
 70
8
 71
3
 72
8
 73
4
 74
0
 40
0
 40
0
 40
0
 40
0
 40
1
 40
1
 40
1
 40
1
 10
3.883580
 20
6.355106
 30
0.0
 10
3.881548
 20
6.354745
 30
0.0
 10
3.879431
 20
6.354426
 30
0.0
 10
3.877298
 20
6.354184
 30
0.0
  0
SPLINE
  5
1ce
100
AcDbEntity
  8
broken-silk
 62
7
100
AcDbSpline
 70
8
 71
3
 72
8
 73
4
 74
0
 40
0
 40
0
 40
0
 40
0
 40
1
 40
1
 40
1
 40
1
 10
3.877298
 20
6.354184
 30
0.0
 10
3.875350
 20
6.353962
 30
0.0
 10
3.873409
 20
6.353803
 30
0.0
 10
3.871484
 20
6.353729
 30
0.0
  0
SPLINE
  5
1cf
100
AcDbEntity
  8
broken-silk
 62
7
100
AcDbSpline
 70
8
 71
3
 72
8
 73
4
 74
0
 40
0
 40
0
 40
0
 40
0
 40
1
 40
1
 40
1
 40
1
 10
3.871484
 20
6.353729
 30
0.0
 10
3.869339
 20
6.353648
 30
0.0
 10
3.867225
 20
6.353675
 30
0.0
 10
3.865213
 20
6.353847
 30
0.0
  0
SPLINE
  5
1d0
100
AcDbEntity
  8
broken-silk
 62
7
100
AcDbSpline
 70
8
 71
3
 72
8
 73
4
 74
0
 40
0
 40
0
 40
0
 40
0
 40
1
 40
1
 40
1
 40
1
 10
3.865213
 20
6.353847
 30
0.0
 10
3.863124
 20
6.354023
 30
0.0
 10
3.861163
 20
6.354352
 30
0.0
 10
3.859362
 20
6.354874
 30
0.0
  0
SPLINE
  5
1d1
100
AcDbEntity
  8
broken-silk
 62
7
100
AcDbSpline
 70
8
 71
3
 72
8
 73
4
 74
0
 40
0
 40
0
 40
0
 40
0
 40
1
 40
1
 40
1
 40
1
 10
3.859362
 20
6.354874
 30
0.0
 10
3.857330
 20
6.355464
 30
0.0
 10
3.855499
 20
6.356302
 30
0.0
 10
3.853997
 20
6.357442
 30
0.0
  0
SPLINE
  5
1d2
100
AcDbEntity
  8
broken-silk
 62
7
100
AcDbSpline
 70
8
 71
3
 72
8
 73
4
 74
0
 40
0
 40
0
 40
0
 40
0
 40
1
 40
1
 40
1
 40
1
 10
3.853997
 20
6.357442
 30
0.0
 10
3.852897
 20
6.358286
 30
0.0
 10
3.851852
 20
6.359277
 30
0.0
 10
3.850876
 20
6.360388
 30
0.0
  0
SPLINE
  5
1d3
100
AcDbEntity
  8
broken-silk
 62
7
100
AcDbSpline
 70
8
 71
3
 72
8
 73
4
 74
0
 40
0
 40
0
 40
0
 40
0
 40
1
 40
1
 40
1
 40
1
 10
3.850876
 20
6.360388
 30
0.0
 10
3.849888
 20
6.361534
 30
0.0
 10
3.848957
 20
6.362804
 30
0.0
 10
3.848138
 20
6.364164
 30
0.0
  0
SPLINE
  5
1d4
100
AcDbEntity
  8
broken-silk
 62
7
100
AcDbSpline
 70
8
 71
3
 72
8
 73
4
 74
0
 40
0
 40
0
 40
0
 40
0
 40
1
 40
1
 40
1
 40
1
 10
3.848138
 20
6.364164
 30
0.0
 10
3.847348
 20
6.365462
 30
0.0
 10
3.846671
 20
6.366842
 30
0.0
 10
3.846078
 20
6.368275
 30
0.0
  0
SPLINE
  5
1d5
100
AcDbEntity
  8
broken-silk
 62
7
100
AcDbSpline
 70
8
 71
3
 72
8
 73
4
 74
0
 40
0
 40
0
 40
0
 40
0
 40
1
 40
1
 40
1
 40
1
 10
3.846078
 20
6.368275
 30
0.0
 10
3.845485
 20
6.369706
 30
0.0
 10
3.845006
 20
6.371191
 30
0.0
 10
3.844611
 20
6.372695
 30
0.0
  0
SPLINE
  5
1d6
100
AcDbEntity
  8
broken-silk
 62
7
100
AcDbSpline
 70
8
 71
3
 72
8
 73
4
 74
0
 40
0
 40
0
 40
0
 40
0
 40
1
 40
1
 40
1
 40
1
 10
3.844611
 20
6.372695
 30
0.0
 10
3.844215
 20
6.374225
 30
0.0
 10
3.843961
 20
6.375774
 30
0.0
 10
3.843820
 20
6.377313
 30
0.0
  0
SPLINE
  5
1d7
100
AcDbEntity
  8
broken-silk
 62
7
100
AcDbSpline
 70
8
 71
3
 72
8
 73
4
 74
0
 40
0
 40
0
 40
0
 40
0
 40
1
 40
1
 40
1
 40
1
 10
3.843820
 20
6.377313
 30
0.0
 10
3.843686
 20
6.378755
 30
0.0
 10
3.843664
 20
6.380191
 30
0.0
 10
3.843764
 20
6.381589
 30
0.0
  0
SPLINE
  5
1d8
100
AcDbEntity
  8
broken-silk
 62
7
100
AcDbSpline
 70
8
 71
3
 72
8
 73
4
 74
0
 40
0
 40
0
 40
0
 40
0
 40
1
 40
1
 40
1
 40
1
 10
3.843764
 20
6.381589
 30
0.0
 10
3.843874
 20
6.383127
 30
0.0
 10
3.844131
 20
6.384623
 30
0.0
 10
3.844554
 20
6.386040
 30
0.0
  0
SPLINE
  5
1d9
100
AcDbEntity
  8
broken-silk
 62
7
100
AcDbSpline
 70
8
 71
3
 72
8
 73
4
 74
0
 40
0
 40
0
 40
0
 40
0
 40
1
 40
1
 40
1
 40
1
 10
3.844554
 20
6.386040
 30
0.0
 10
3.844978
 20
6.387457
 30
0.0
 10
3.845542
 20
6.388794
 30
0.0
 10
3.846304
 20
6.390021
 30
0.0
  0
SPLINE
  5
1da
100
AcDbEntity
  8
broken-silk
 62
7
100
AcDbSpline
 70
8
 71
3
 72
8
 73
4
 74
0
 40
0
 40
0
 40
0
 40
0
 40
1
 40
1
 40
1
 40
1
 10
3.846304
 20
6.390021
 30
0.0
 10
3.847800
 20
6.392462
 30
0.0
 10
3.849792
 20
6.394197
 30
0.0
 10
3.852132
 20
6.395418
 30
0.0
  0
SPLINE
  5
1db
100
AcDbEntity
  8
broken-silk
 62
7
100
AcDbSpline
 70
8
 71
3
 72
8
 73
4
 74
0
 40
0
 40
0
 40
0
 40
0
 40
1
 40
1
 40
1
 40
1
 10
3.852132
 20
6.395418
 30
0.0
 10
3.854390
 20
6.396589
 30
0.0
 10
3.856947
 20
6.397287
 30
0.0
 10
3.859732
 20
6.397687
 30
0.0
  0
SPLINE
  5
1dc
100
AcDbEntity
  8
broken-silk
 62
7
100
AcDbSpline
 70
8
 71
3
 72
8
 73
4
 74
0
 40
0
 40
0
 40
0
 40
0
 40
1
 40
1
 40
1
 40
1
 10
3.859732
 20
6.397687
 30
0.0
 10
3.862047
 20
6.398020
 30
0.0
 10
3.864522
 20
6.398145
 30
0.0
 10
3.867070
 20
6.398161
 30
0.0
  0
SPLINE
  5
1dd
100
AcDbEntity
  8
broken-silk
 62
7
100
AcDbSpline
 70
8
 71
3
 72
8
 73
4
 74
0
 40
0
 40
0
 40
0
 40
0
 40
1
 40
1
 40
1
 40
1
 10
3.867070
 20
6.398161
 30
0.0
 10
3.869610
 20
6.398178
 30
0.0
 10
3.872255
 20
6.398086
 30
0.0
 10
3.874905
 20
6.397985
 30
0.0
  0
SPLINE
  5
1de
100
AcDbEntity
  8
broken-silk
 62
7
100
AcDbSpline
 70
8
 71
3
 72
8
 73
4
 74
0
 40
0
 40
0
 40
0
 40
0
 40
1
 40
1
 40
1
 40
1
 10
3.874905
 20
6.397985
 30
0.0
 10
3.877586
 20
6.397883
 30
0.0
 10
3.880281
 20
6.397771
 30
0.0
 10
3.882925
 20
6.397753
 30
0.0
  0
SPLINE
  5
1df
100
AcDbEntity
  8
broken-silk
 62
7
100
AcDbSpline
 70
8
 71
3
 72
8
 73
4
 74
0
 40
0
 40
0
 40
0
 40
0
 40
1
 40
1
 40
1
 40
1
 10
3.882925
 20
6.397753
 30
0.0
 10
3.885635
 20
6.397734
 30
0.0
 10
3.888273
 20
6.397812
 30
0.0
 10
3.890794
 20
6.398097
 30
0.0
  0
SPLINE
  5
1e0
100
AcDbEntity
  8
broken-silk
 62
7
100
AcDbSpline
 70
8
 71
3
 72
8
 73
4
 74
0
 40
0
 40
0
 40
0
 40
0
 40
1
 40
1
 40
1
 40
1
 10
3.890794
 20
6.398097
 30
0.0
 10
3.893560
 20
6.398410
 30
0.0
 10
3.896187
 20
6.398975
 30
0.0
 10
3.898560
 20
6.399934
 30
0.0
  0
SPLINE
  5
1e1
100
AcDbEntity
  8
broken-silk
 62
7
100
AcDbSpline
 70
8
 71
3
 72
8
 73
4
 74
0
 40
0
 40
0
 40
0
 40
0
 40
1
 40
1
 40
1
 40
1
 10
3.898560
 20
6.399934
 30
0.0
 10
3.900931
 20
6.400894
 30
0.0
 10
3.903056
 20
6.402248
 30
0.0
 10
3.904837
 20
6.404144
 30
0.0
  0
LWPOLYLINE
  5
1e2
100
AcDbEntity
  8
broken-silk
 62
7
100
AcDbPolyline
 90
9
 70
0
 10
3.472671
 20
6.420775
 30
0.0
 10
3.472672
 20
6.420775
 30
0.0
 10
3.472672
 20
6.420775
 30
0.0
 10
3.472672
 20
6.420775
 30
0.0
 10
3.472672
 20
6.420775
 30
0.0
 10
3.472672
 20
6.420775
 30
0.0
 10
3.472672
 20
6.420775
 30
0.0
 10
3.472672
 20
6.420775
 30
0.0
 10
3.472672
 20
6.420775
 30
0.0
  0
SPLINE
  5
1e3
100
AcDbEntity
  8
broken-silk
 62
7
100
AcDbSpline
 70
8
 71
3
 72
8
 73
4
 74
0
 40
0
 40
0
 40
0
 40
0
 40
1
 40
1
 40
1
 40
1
 10
3.775226
 20
6.406952
 30
0.0
 10
3.776383
 20
6.402319
 30
0.0
 10
3.776948
 20
6.395168
 30
0.0
 10
3.777060
 20
6.386311
 30
0.0
  0
SPLINE
  5
1e4
100
AcDbEntity
  8
broken-silk
 62
7
100
AcDbSpline
 70
8
 71
3
 72
8
 73
4
 74
0
 40
0
 40
0
 40
0
 40
0
 40
1
 40
1
 40
1
 40
1
 10
3.777060
 20
6.386311
 30
0.0
 10
3.777132
 20
6.380185
 30
0.0
 10
3.776977
 20
6.373242
 30
0.0
 10
3.776637
 20
6.365751
 30
0.0
  0
SPLINE
  5
1e5
100
AcDbEntity
  8
broken-silk
 62
7
100
AcDbSpline
 70
8
 71
3
 72
8
 73
4
 74
0
 40
0
 40
0
 40
0
 40
0
 40
1
 40
1
 40
1
 40
1
 10
3.776637
 20
6.365751
 30
0.0
 10
3.776327
 20
6.359314
 30
0.0
 10
3.775903
 20
6.352471
 30
0.0
 10
3.775311
 20
6.345394
 30
0.0
  0
SPLINE
  5
1e6
100
AcDbEntity
  8
broken-silk
 62
7
100
AcDbSpline
 70
8
 71
3
 72
8
 73
4
 74
0
 40
0
 40
0
 40
0
 40
0
 40
1
 40
1
 40
1
 40
1
 10
3.775311
 20
6.345394
 30
0.0
 10
3.774774
 20
6.338746
 30
0.0
 10
3.774125
 20
6.331891
 30
0.0
 10
3.773392
 20
6.324970
 30
0.0
  0
SPLINE
  5
1e7
100
AcDbEntity
  8
broken-silk
 62
7
100
AcDbSpline
 70
8
 71
3
 72
8
 73
4
 74
0
 40
0
 40
0
 40
0
 40
0
 40
1
 40
1
 40
1
 40
1
 10
3.773392
 20
6.324970
 30
0.0
 10
3.772686
 20
6.318238
 30
0.0
 10
3.771868
 20
6.311443
 30
0.0
 10
3.770993
 20
6.304716
 30
0.0
  0
SPLINE
  5
1e8
100
AcDbEntity
  8
broken-silk
 62
7
100
AcDbSpline
 70
8
 71
3
 72
8
 73
4
 74
0
 40
0
 40
0
 40
0
 40
0
 40
1
 40
1
 40
1
 40
1
 10
3.770993
 20
6.304716
 30
0.0
 10
3.770090
 20
6.297872
 30
0.0
 10
3.769130
 20
6.291099
 30
0.0
 10
3.768097
 20
6.284532
 30
0.0
  0
SPLINE
  5
1e9
100
AcDbEntity
  8
broken-silk
 62
7
100
AcDbSpline
 70
8
 71
3
 72
8
 73
4
 74
0
 40
0
 40
0
 40
0
 40
0
 40
1
 40
1
 40
1
 40
1
 10
3.768097
 20
6.284532
 30
0.0
 10
3.766996
 20
6.277507
 30
0.0
 10
3.765811
 20
6.270719
 30
0.0
 10
3.764603
 20
6.264336
 30
0.0
  0
SPLINE
  5
1ea
100
AcDbEntity
  8
broken-silk
 62
7
100
AcDbSpline
 70
8
 71
3
 72
8
 73
4
 74
0
 40
0
 40
0
 40
0
 40
0
 40
1
 40
1
 40
1
 40
1
 10
3.764603
 20
6.264336
 30
0.0
 10
3.763220
 20
6.257101
 30
0.0
 10
3.761772
 20
6.250385
 30
0.0
 10
3.760291
 20
6.244433
 30
0.0
  0
SPLINE
  5
1eb
100
AcDbEntity
  8
broken-silk
 62
7
100
AcDbSpline
 70
8
 71
3
 72
8
 73
4
 74
0
 40
0
 40
0
 40
0
 40
0
 40
1
 40
1
 40
1
 40
1
 10
3.760291
 20
6.244433
 30
0.0
 10
3.756822
 20
6.241377
 30
0.0
 10
3.753083
 20
6.238766
 30
0.0
 10
3.749154
 20
6.236575
 30
0.0
  0
SPLINE
  5
1ec
100
AcDbEntity
  8
broken-silk
 62
7
100
AcDbSpline
 70
8
 71
3
 72
8
 73
4
 74
0
 40
0
 40
0
 40
0
 40
0
 40
1
 40
1
 40
1
 40
1
 10
3.749154
 20
6.236575
 30
0.0
 10
3.745121
 20
6.234326
 30
0.0
 10
3.740888
 20
6.232517
 30
0.0
 10
3.736545
 20
6.231125
 30
0.0
  0
SPLINE
  5
1ed
100
AcDbEntity
  8
broken-silk
 62
7
100
AcDbSpline
 70
8
 71
3
 72
8
 73
4
 74
0
 40
0
 40
0
 40
0
 40
0
 40
1
 40
1
 40
1
 40
1
 10
3.736545
 20
6.231125
 30
0.0
 10
3.732100
 20
6.229700
 30
0.0
 10
3.727539
 20
6.228712
 30
0.0
 10
3.722964
 20
6.228129
 30
0.0
  0
SPLINE
  5
1ee
100
AcDbEntity
  8
broken-silk
 62
7
100
AcDbSpline
 70
8
 71
3
 72
8
 73
4
 74
0
 40
0
 40
0
 40
0
 40
0
 40
1
 40
1
 40
1
 40
1
 10
3.722964
 20
6.228129
 30
0.0
 10
3.718389
 20
6.227548
 30
0.0
 10
3.713795
 20
6.227373
 30
0.0
 10
3.709285
 20
6.227576
 30
0.0
  0
SPLINE
  5
1ef
100
AcDbEntity
  8
broken-silk
 62
7
100
AcDbSpline
 70
8
 71
3
 72
8
 73
4
 74
0
 40
0
 40
0
 40
0
 40
0
 40
1
 40
1
 40
1
 40
1
 10
3.709285
 20
6.227576
 30
0.0
 10
3.704662
 20
6.227785
 30
0.0
 10
3.700124
 20
6.228392
 30
0.0
 10
3.695775
 20
6.229362
 30
0.0
  0
SPLINE
  5
1f0
100
AcDbEntity
  8
broken-silk
 62
7
100
AcDbSpline
 70
8
 71
3
 72
8
 73
4
 74
0
 40
0
 40
0
 40
0
 40
0
 40
1
 40
1
 40
1
 40
1
 10
3.695775
 20
6.229362
 30
0.0
 10
3.691135
 20
6.230401
 30
0.0
 10
3.686710
 20
6.231854
 30
0.0
 10
3.682629
 20
6.233689
 30
0.0
  0
SPLINE
  5
1f1
100
AcDbEntity
  8
broken-silk
 62
7
100
AcDbSpline
 70
8
 71
3
 72
8
 73
4
 74
0
 40
0
 40
0
 40
0
 40
0
 40
1
 40
1
 40
1
 40
1
 10
3.682629
 20
6.233689
 30
0.0
 10
3.678280
 20
6.235645
 30
0.0
 10
3.674317
 20
6.238031
 30
0.0
 10
3.670897
 20
6.240803
 30
0.0
  0
SPLINE
  5
1f2
100
AcDbEntity
  8
broken-silk
 62
7
100
AcDbSpline
 70
8
 71
3
 72
8
 73
4
 74
0
 40
0
 40
0
 40
0
 40
0
 40
1
 40
1
 40
1
 40
1
 10
3.670897
 20
6.240803
 30
0.0
 10
3.667256
 20
6.243755
 30
0.0
 10
3.664231
 20
6.247144
 30
0.0
 10
3.662007
 20
6.250916
 30
0.0
  0
SPLINE
  5
1f3
100
AcDbEntity
  8
broken-silk
 62
7
100
AcDbSpline
 70
8
 71
3
 72
8
 73
4
 74
0
 40
0
 40
0
 40
0
 40
0
 40
1
 40
1
 40
1
 40
1
 10
3.662007
 20
6.250916
 30
0.0
 10
3.659636
 20
6.255028
 30
0.0
 10
3.657542
 20
6.261427
 30
0.0
 10
3.655744
 20
6.269387
 30
0.0
  0
SPLINE
  5
1f4
100
AcDbEntity
  8
broken-silk
 62
7
100
AcDbSpline
 70
8
 71
3
 72
8
 73
4
 74
0
 40
0
 40
0
 40
0
 40
0
 40
1
 40
1
 40
1
 40
1
 10
3.655744
 20
6.269387
 30
0.0
 10
3.654446
 20
6.275086
 30
0.0
 10
3.653317
 20
6.281585
 30
0.0
 10
3.652321
 20
6.288620
 30
0.0
  0
SPLINE
  5
1f5
100
AcDbEntity
  8
broken-silk
 62
7
100
AcDbSpline
 70
8
 71
3
 72
8
 73
4
 74
0
 40
0
 40
0
 40
0
 40
0
 40
1
 40
1
 40
1
 40
1
 10
3.652321
 20
6.288620
 30
0.0
 10
3.651474
 20
6.294666
 30
0.0
 10
3.650712
 20
6.301107
 30
0.0
 10
3.650091
 20
6.307774
 30
0.0
  0
SPLINE
  5
1f6
100
AcDbEntity
  8
broken-silk
 62
7
100
AcDbSpline
 70
8
 71
3
 72
8
 73
4
 74
0
 40
0
 40
0
 40
0
 40
0
 40
1
 40
1
 40
1
 40
1
 10
3.650091
 20
6.307774
 30
0.0
 10
3.649499
 20
6.314037
 30
0.0
 10
3.648991
 20
6.320501
 30
0.0
 10
3.648567
 20
6.327025
 30
0.0
  0
SPLINE
  5
1f7
100
AcDbEntity
  8
broken-silk
 62
7
100
AcDbSpline
 70
8
 71
3
 72
8
 73
4
 74
0
 40
0
 40
0
 40
0
 40
0
 40
1
 40
1
 40
1
 40
1
 10
3.648567
 20
6.327025
 30
0.0
 10
3.648172
 20
6.333487
 30
0.0
 10
3.647834
 20
6.340009
 30
0.0
 10
3.647636
 20
6.346453
 30
0.0
  0
SPLINE
  5
1f8
100
AcDbEntity
  8
broken-silk
 62
7
100
AcDbSpline
 70
8
 71
3
 72
8
 73
4
 74
0
 40
0
 40
0
 40
0
 40
0
 40
1
 40
1
 40
1
 40
1
 10
3.647636
 20
6.346453
 30
0.0
 10
3.647411
 20
6.352985
 30
0.0
 10
3.647269
 20
6.359438
 30
0.0
 10
3.647241
 20
6.365672
 30
0.0
  0
SPLINE
  5
1f9
100
AcDbEntity
  8
broken-silk
 62
7
100
AcDbSpline
 70
8
 71
3
 72
8
 73
4
 74
0
 40
0
 40
0
 40
0
 40
0
 40
1
 40
1
 40
1
 40
1
 10
3.647241
 20
6.365672
 30
0.0
 10
3.647202
 20
6.372361
 30
0.0
 10
3.647272
 20
6.378797
 30
0.0
 10
3.647449
 20
6.384805
 30
0.0
  0
SPLINE
  5
1fa
100
AcDbEntity
  8
broken-silk
 62
7
100
AcDbSpline
 70
8
 71
3
 72
8
 73
4
 74
0
 40
0
 40
0
 40
0
 40
0
 40
1
 40
1
 40
1
 40
1
 10
3.647449
 20
6.384805
 30
0.0
 10
3.647664
 20
6.392057
 30
0.0
 10
3.648042
 20
6.398684
 30
0.0
 10
3.648550
 20
6.404382
 30
0.0
  0
SPLINE
  5
1fb
100
AcDbEntity
  8
broken-silk
 62
7
100
AcDbSpline
 70
8
 71
3
 72
8
 73
4
 74
0
 40
0
 40
0
 40
0
 40
0
 40
1
 40
1
 40
1
 40
1
 10
3.648550
 20
6.404382
 30
0.0
 10
3.647336
 20
6.406052
 30
0.0
 10
3.646095
 20
6.407531
 30
0.0
 10
3.644881
 20
6.408834
 30
0.0
  0
SPLINE
  5
1fc
100
AcDbEntity
  8
broken-silk
 62
7
100
AcDbSpline
 70
8
 71
3
 72
8
 73
4
 74
0
 40
0
 40
0
 40
0
 40
0
 40
1
 40
1
 40
1
 40
1
 10
3.644881
 20
6.408834
 30
0.0
 10
3.643385
 20
6.410423
 30
0.0
 10
3.641912
 20
6.411750
 30
0.0
 10
3.640447
 20
6.412849
 30
0.0
  0
SPLINE
  5
1fd
100
AcDbEntity
  8
broken-silk
 62
7
100
AcDbSpline
 70
8
 71
3
 72
8
 73
4
 74
0
 40
0
 40
0
 40
0
 40
0
 40
1
 40
1
 40
1
 40
1
 10
3.640447
 20
6.412849
 30
0.0
 10
3.638810
 20
6.414076
 30
0.0
 10
3.637193
 20
6.415019
 30
0.0
 10
3.635607
 20
6.415721
 30
0.0
  0
SPLINE
  5
1fe
100
AcDbEntity
  8
broken-silk
 62
7
100
AcDbSpline
 70
8
 71
3
 72
8
 73
4
 74
0
 40
0
 40
0
 40
0
 40
0
 40
1
 40
1
 40
1
 40
1
 10
3.635607
 20
6.415721
 30
0.0
 10
3.633575
 20
6.416621
 30
0.0
 10
3.631588
 20
6.417120
 30
0.0
 10
3.629692
 20
6.417312
 30
0.0
  0
SPLINE
  5
1ff
100
AcDbEntity
  8
broken-silk
 62
7
100
AcDbSpline
 70
8
 71
3
 72
8
 73
4
 74
0
 40
0
 40
0
 40
0
 40
0
 40
1
 40
1
 40
1
 40
1
 10
3.629692
 20
6.417312
 30
0.0
 10
3.627716
 20
6.417514
 30
0.0
 10
3.625814
 20
6.417378
 30
0.0
 10
3.624045
 20
6.417013
 30
0.0
  0
SPLINE
  5
200
100
AcDbEntity
  8
broken-silk
 62
7
100
AcDbSpline
 70
8
 71
3
 72
8
 73
4
 74
0
 40
0
 40
0
 40
0
 40
0
 40
1
 40
1
 40
1
 40
1
 10
3.624045
 20
6.417013
 30
0.0
 10
3.621956
 20
6.416581
 30
0.0
 10
3.620040
 20
6.415828
 30
0.0
 10
3.618352
 20
6.414930
 30
0.0
  0
SPLINE
  5
201
100
AcDbEntity
  8
broken-silk
 62
7
100
AcDbSpline
 70
8
 71
3
 72
8
 73
4
 74
0
 40
0
 40
0
 40
0
 40
0
 40
1
 40
1
 40
1
 40
1
 10
3.618352
 20
6.414930
 30
0.0
 10
3.616461
 20
6.413928
 30
0.0
 10
3.614867
 20
6.412743
 30
0.0
 10
3.613622
 20
6.411624
 30
0.0
  0
SPLINE
  5
202
100
AcDbEntity
  8
broken-silk
 62
7
100
AcDbSpline
 70
8
 71
3
 72
8
 73
4
 74
0
 40
0
 40
0
 40
0
 40
0
 40
1
 40
1
 40
1
 40
1
 10
3.613622
 20
6.411624
 30
0.0
 10
3.610885
 20
6.409160
 30
0.0
 10
3.609880
 20
6.407000
 30
0.0
 10
3.611393
 20
6.407749
 30
0.0
  0
SPLINE
  5
203
100
AcDbEntity
  8
broken-silk
 62
7
100
AcDbSpline
 70
8
 71
3
 72
8
 73
4
 74
0
 40
0
 40
0
 40
0
 40
0
 40
1
 40
1
 40
1
 40
1
 10
3.611393
 20
6.407749
 30
0.0
 10
3.609107
 20
6.397032
 30
0.0
 10
3.607439
 20
6.386189
 30
0.0
 10
3.606389
 20
6.375348
 30
0.0
  0
SPLINE
  5
204
100
AcDbEntity
  8
broken-silk
 62
7
100
AcDbSpline
 70
8
 71
3
 72
8
 73
4
 74
0
 40
0
 40
0
 40
0
 40
0
 40
1
 40
1
 40
1
 40
1
 10
3.606389
 20
6.375348
 30
0.0
 10
3.605316
 20
6.364350
 30
0.0
 10
3.604893
 20
6.353356
 30
0.0
 10
3.605034
 20
6.342502
 30
0.0
  0
SPLINE
  5
205
100
AcDbEntity
  8
broken-silk
 62
7
100
AcDbSpline
 70
8
 71
3
 72
8
 73
4
 74
0
 40
0
 40
0
 40
0
 40
0
 40
1
 40
1
 40
1
 40
1
 10
3.605034
 20
6.342502
 30
0.0
 10
3.605189
 20
6.331366
 30
0.0
 10
3.605965
 20
6.320379
 30
0.0
 10
3.607348
 20
6.309686
 30
0.0
  0
SPLINE
  5
206
100
AcDbEntity
  8
broken-silk
 62
7
100
AcDbSpline
 70
8
 71
3
 72
8
 73
4
 74
0
 40
0
 40
0
 40
0
 40
0
 40
1
 40
1
 40
1
 40
1
 10
3.607348
 20
6.309686
 30
0.0
 10
3.608759
 20
6.298653
 30
0.0
 10
3.610797
 20
6.287934
 30
0.0
 10
3.613427
 20
6.277691
 30
0.0
  0
SPLINE
  5
207
100
AcDbEntity
  8
broken-silk
 62
7
100
AcDbSpline
 70
8
 71
3
 72
8
 73
4
 74
0
 40
0
 40
0
 40
0
 40
0
 40
1
 40
1
 40
1
 40
1
 10
3.613427
 20
6.277691
 30
0.0
 10
3.616221
 20
6.266812
 30
0.0
 10
3.619676
 20
6.256469
 30
0.0
 10
3.623751
 20
6.246857
 30
0.0
  0
SPLINE
  5
208
100
AcDbEntity
  8
broken-silk
 62
7
100
AcDbSpline
 70
8
 71
3
 72
8
 73
4
 74
0
 40
0
 40
0
 40
0
 40
0
 40
1
 40
1
 40
1
 40
1
 10
3.623751
 20
6.246857
 30
0.0
 10
3.628230
 20
6.236291
 30
0.0
 10
3.633460
 20
6.226609
 30
0.0
 10
3.639375
 20
6.218068
 30
0.0
  0
SPLINE
  5
209
100
AcDbEntity
  8
broken-silk
 62
7
100
AcDbSpline
 70
8
 71
3
 72
8
 73
4
 74
0
 40
0
 40
0
 40
0
 40
0
 40
1
 40
1
 40
1
 40
1
 10
3.639375
 20
6.218068
 30
0.0
 10
3.645931
 20
6.208605
 30
0.0
 10
3.653328
 20
6.200543
 30
0.0
 10
3.661490
 20
6.194232
 30
0.0
  0
SPLINE
  5
20a
100
AcDbEntity
  8
broken-silk
 62
7
100
AcDbSpline
 70
8
 71
3
 72
8
 73
4
 74
0
 40
0
 40
0
 40
0
 40
0
 40
1
 40
1
 40
1
 40
1
 10
3.661490
 20
6.194232
 30
0.0
 10
3.670453
 20
6.187300
 30
0.0
 10
3.680337
 20
6.182481
 30
0.0
 10
3.691033
 20
6.180239
 30
0.0
  0
SPLINE
  5
20b
100
AcDbEntity
  8
broken-silk
 62
7
100
AcDbSpline
 70
8
 71
3
 72
8
 73
4
 74
0
 40
0
 40
0
 40
0
 40
0
 40
1
 40
1
 40
1
 40
1
 10
3.691033
 20
6.180239
 30
0.0
 10
3.699968
 20
6.180812
 30
0.0
 10
3.708246
 20
6.181585
 30
0.0
 10
3.715922
 20
6.182601
 30
0.0
  0
SPLINE
  5
20c
100
AcDbEntity
  8
broken-silk
 62
7
100
AcDbSpline
 70
8
 71
3
 72
8
 73
4
 74
0
 40
0
 40
0
 40
0
 40
0
 40
1
 40
1
 40
1
 40
1
 10
3.715922
 20
6.182601
 30
0.0
 10
3.725063
 20
6.183812
 30
0.0
 10
3.733355
 20
6.185375
 30
0.0
 10
3.740893
 20
6.187369
 30
0.0
  0
SPLINE
  5
20d
100
AcDbEntity
  8
broken-silk
 62
7
100
AcDbSpline
 70
8
 71
3
 72
8
 73
4
 74
0
 40
0
 40
0
 40
0
 40
0
 40
1
 40
1
 40
1
 40
1
 10
3.740893
 20
6.187369
 30
0.0
 10
3.749583
 20
6.189670
 30
0.0
 10
3.757270
 20
6.192543
 30
0.0
 10
3.764106
 20
6.196119
 30
0.0
  0
SPLINE
  5
20e
100
AcDbEntity
  8
broken-silk
 62
7
100
AcDbSpline
 70
8
 71
3
 72
8
 73
4
 74
0
 40
0
 40
0
 40
0
 40
0
 40
1
 40
1
 40
1
 40
1
 10
3.764106
 20
6.196119
 30
0.0
 10
3.771853
 20
6.200173
 30
0.0
 10
3.778508
 20
6.205128
 30
0.0
 10
3.784288
 20
6.211170
 30
0.0
  0
SPLINE
  5
20f
100
AcDbEntity
  8
broken-silk
 62
7
100
AcDbSpline
 70
8
 71
3
 72
8
 73
4
 74
0
 40
0
 40
0
 40
0
 40
0
 40
1
 40
1
 40
1
 40
1
 10
3.784288
 20
6.211170
 30
0.0
 10
3.789870
 20
6.217006
 30
0.0
 10
3.794637
 20
6.223857
 30
0.0
 10
3.798785
 20
6.231888
 30
0.0
  0
SPLINE
  5
210
100
AcDbEntity
  8
broken-silk
 62
7
100
AcDbSpline
 70
8
 71
3
 72
8
 73
4
 74
0
 40
0
 40
0
 40
0
 40
0
 40
1
 40
1
 40
1
 40
1
 10
3.798785
 20
6.231888
 30
0.0
 10
3.802350
 20
6.238790
 30
0.0
 10
3.805457
 20
6.246564
 30
0.0
 10
3.808234
 20
6.255317
 30
0.0
  0
SPLINE
  5
211
100
AcDbEntity
  8
broken-silk
 62
7
100
AcDbSpline
 70
8
 71
3
 72
8
 73
4
 74
0
 40
0
 40
0
 40
0
 40
0
 40
1
 40
1
 40
1
 40
1
 10
3.808234
 20
6.255317
 30
0.0
 10
3.810548
 20
6.262570
 30
0.0
 10
3.812606
 20
6.270496
 30
0.0
 10
3.814522
 20
6.279153
 30
0.0
  0
SPLINE
  5
212
100
AcDbEntity
  8
broken-silk
 62
7
100
AcDbSpline
 70
8
 71
3
 72
8
 73
4
 74
0
 40
0
 40
0
 40
0
 40
0
 40
1
 40
1
 40
1
 40
1
 10
3.814522
 20
6.279153
 30
0.0
 10
3.816215
 20
6.286792
 30
0.0
 10
3.817782
 20
6.295000
 30
0.0
 10
3.819277
 20
6.303820
 30
0.0
  0
SPLINE
  5
213
100
AcDbEntity
  8
broken-silk
 62
7
100
AcDbSpline
 70
8
 71
3
 72
8
 73
4
 74
0
 40
0
 40
0
 40
0
 40
0
 40
1
 40
1
 40
1
 40
1
 10
3.819277
 20
6.303820
 30
0.0
 10
3.819200
 20
6.308633
 30
0.0
 10
3.819145
 20
6.313174
 30
0.0
 10
3.819105
 20
6.317473
 30
0.0
  0
SPLINE
  5
214
100
AcDbEntity
  8
broken-silk
 62
7
100
AcDbSpline
 70
8
 71
3
 72
8
 73
4
 74
0
 40
0
 40
0
 40
0
 40
0
 40
1
 40
1
 40
1
 40
1
 10
3.819105
 20
6.317473
 30
0.0
 10
3.819060
 20
6.322348
 30
0.0
 10
3.819034
 20
6.326911
 30
0.0
 10
3.819018
 20
6.331204
 30
0.0
  0
SPLINE
  5
215
100
AcDbEntity
  8
broken-silk
 62
7
100
AcDbSpline
 70
8
 71
3
 72
8
 73
4
 74
0
 40
0
 40
0
 40
0
 40
0
 40
1
 40
1
 40
1
 40
1
 10
3.819018
 20
6.331204
 30
0.0
 10
3.819000
 20
6.336154
 30
0.0
 10
3.818993
 20
6.340746
 30
0.0
 10
3.818983
 20
6.345045
 30
0.0
  0
SPLINE
  5
216
100
AcDbEntity
  8
broken-silk
 62
7
100
AcDbSpline
 70
8
 71
3
 72
8
 73
4
 74
0
 40
0
 40
0
 40
0
 40
0
 40
1
 40
1
 40
1
 40
1
 10
3.818983
 20
6.345045
 30
0.0
 10
3.818972
 20
6.349917
 30
0.0
 10
3.818955
 20
6.354413
 30
0.0
 10
3.818910
 20
6.358627
 30
0.0
  0
SPLINE
  5
217
100
AcDbEntity
  8
broken-silk
 62
7
100
AcDbSpline
 70
8
 71
3
 72
8
 73
4
 74
0
 40
0
 40
0
 40
0
 40
0
 40
1
 40
1
 40
1
 40
1
 10
3.818910
 20
6.358627
 30
0.0
 10
3.818857
 20
6.363582
 30
0.0
 10
3.818765
 20
6.368147
 30
0.0
 10
3.818599
 20
6.372476
 30
0.0
  0
SPLINE
  5
218
100
AcDbEntity
  8
broken-silk
 62
7
100
AcDbSpline
 70
8
 71
3
 72
8
 73
4
 74
0
 40
0
 40
0
 40
0
 40
0
 40
1
 40
1
 40
1
 40
1
 10
3.818599
 20
6.372476
 30
0.0
 10
3.818418
 20
6.377117
 30
0.0
 10
3.818148
 20
6.381487
 30
0.0
 10
3.817753
 20
6.385776
 30
0.0
  0
SPLINE
  5
219
100
AcDbEntity
  8
broken-silk
 62
7
100
AcDbSpline
 70
8
 71
3
 72
8
 73
4
 74
0
 40
0
 40
0
 40
0
 40
0
 40
1
 40
1
 40
1
 40
1
 10
3.817753
 20
6.385776
 30
0.0
 10
3.817329
 20
6.390304
 30
0.0
 10
3.816737
 20
6.394741
 30
0.0
 10
3.815946
 20
6.399310
 30
0.0
  0
SPLINE
  5
21a
100
AcDbEntity
  8
broken-silk
 62
7
100
AcDbSpline
 70
8
 71
3
 72
8
 73
4
 74
0
 40
0
 40
0
 40
0
 40
0
 40
1
 40
1
 40
1
 40
1
 10
3.815946
 20
6.399310
 30
0.0
 10
3.815213
 20
6.403603
 30
0.0
 10
3.814281
 20
6.408012
 30
0.0
 10
3.813124
 20
6.412723
 30
0.0
  0
SPLINE
  5
21b
100
AcDbEntity
  8
broken-silk
 62
7
100
AcDbSpline
 70
8
 71
3
 72
8
 73
4
 74
0
 40
0
 40
0
 40
0
 40
0
 40
1
 40
1
 40
1
 40
1
 10
3.813124
 20
6.412723
 30
0.0
 10
3.812024
 20
6.412635
 30
0.0
 10
3.810330
 20
6.412435
 30
0.0
 10
3.808290
 20
6.412159
 30
0.0
  0
SPLINE
  5
21c
100
AcDbEntity
  8
broken-silk
 62
7
100
AcDbSpline
 70
8
 71
3
 72
8
 73
4
 74
0
 40
0
 40
0
 40
0
 40
0
 40
1
 40
1
 40
1
 40
1
 10
3.808290
 20
6.412159
 30
0.0
 10
3.806822
 20
6.411961
 30
0.0
 10
3.805168
 20
6.411724
 30
0.0
 10
3.803399
 20
6.411464
 30
0.0
  0
SPLINE
  5
21d
100
AcDbEntity
  8
broken-silk
 62
7
100
AcDbSpline
 70
8
 71
3
 72
8
 73
4
 74
0
 40
0
 40
0
 40
0
 40
0
 40
1
 40
1
 40
1
 40
1
 10
3.803399
 20
6.411464
 30
0.0
 10
3.801931
 20
6.411247
 30
0.0
 10
3.800371
 20
6.411013
 30
0.0
 10
3.798782
 20
6.410767
 30
0.0
  0
SPLINE
  5
21e
100
AcDbEntity
  8
broken-silk
 62
7
100
AcDbSpline
 70
8
 71
3
 72
8
 73
4
 74
0
 40
0
 40
0
 40
0
 40
0
 40
1
 40
1
 40
1
 40
1
 10
3.798782
 20
6.410767
 30
0.0
 10
3.797201
 20
6.410523
 30
0.0
 10
3.795570
 20
6.410268
 30
0.0
 10
3.793956
 20
6.410014
 30
0.0
  0
SPLINE
  5
21f
100
AcDbEntity
  8
broken-silk
 62
7
100
AcDbSpline
 70
8
 71
3
 72
8
 73
4
 74
0
 40
0
 40
0
 40
0
 40
0
 40
1
 40
1
 40
1
 40
1
 10
3.793956
 20
6.410014
 30
0.0
 10
3.792319
 20
6.409755
 30
0.0
 10
3.790699
 20
6.409494
 30
0.0
 10
3.789127
 20
6.409243
 30
0.0
  0
SPLINE
  5
220
100
AcDbEntity
  8
broken-silk
 62
7
100
AcDbSpline
 70
8
 71
3
 72
8
 73
4
 74
0
 40
0
 40
0
 40
0
 40
0
 40
1
 40
1
 40
1
 40
1
 10
3.789127
 20
6.409243
 30
0.0
 10
3.787462
 20
6.408976
 30
0.0
 10
3.785876
 20
6.408715
 30
0.0
 10
3.784394
 20
6.408473
 30
0.0
  0
SPLINE
  5
221
100
AcDbEntity
  8
broken-silk
 62
7
100
AcDbSpline
 70
8
 71
3
 72
8
 73
4
 74
0
 40
0
 40
0
 40
0
 40
0
 40
1
 40
1
 40
1
 40
1
 10
3.784394
 20
6.408473
 30
0.0
 10
3.782729
 20
6.408202
 30
0.0
 10
3.781227
 20
6.407951
 30
0.0
 10
3.779926
 20
6.407736
 30
0.0
  0
SPLINE
  5
222
100
AcDbEntity
  8
broken-silk
 62
7
100
AcDbSpline
 70
8
 71
3
 72
8
 73
4
 74
0
 40
0
 40
0
 40
0
 40
0
 40
1
 40
1
 40
1
 40
1
 10
3.779926
 20
6.407736
 30
0.0
 10
3.777067
 20
6.407262
 30
0.0
 10
3.775247
 20
6.406954
 30
0.0
 10
3.775247
 20
6.406954
 30
0.0
  0
LWPOLYLINE
  5
223
100
AcDbEntity
  8
broken-silk
 62
7
100
AcDbPolyline
 90
9
 70
0
 10
3.904837
 20
6.404144
 30
0.0
 10
3.904835
 20
6.404144
 30
0.0
 10
3.904835
 20
6.404144
 30
0.0
 10
3.904835
 20
6.404144
 30
0.0
 10
3.904835
 20
6.404144
 30
0.0
 10
3.904835
 20
6.404144
 30
0.0
 10
3.904835
 20
6.404144
 30
0.0
 10
3.904835
 20
6.404144
 30
0.0
 10
3.904835
 20
6.404144
 30
0.0
  0
LWPOLYLINE
  5
224
100
AcDbEntity
  8
broken-silk
 62
7
100
AcDbPolyline
 90
9
 70
0
 10
3.775247
 20
6.406954
 30
0.0
 10
3.775247
 20
6.406954
 30
0.0
 10
3.775247
 20
6.406954
 30
0.0
 10
3.775247
 20
6.406954
 30
0.0
 10
3.775247
 20
6.406954
 30
0.0
 10
3.775247
 20
6.406954
 30
0.0
 10
3.775247
 20
6.406954
 30
0.0
 10
3.775247
 20
6.406954
 30
0.0
 10
3.775247
 20
6.406954
 30
0.0
  0
LWPOLYLINE
  5
225
100
AcDbEntity
  8
broken-silk
 62
7
100
AcDbPolyline
 90
29
 70
0
 10
2.080143
 20
4.827776
 30
0.0
 10
2.058547
 20
4.775478
 30
0.0
 10
2.036925
 20
4.723113
 30
0.0
 10
2.015282
 20
4.670700
 30
0.0
 10
1.993679
 20
4.618382
 30
0.0
 10
1.978112
 20
4.670025
 30
0.0
 10
1.962525
 20
4.721733
 30
0.0
 10
1.946924
 20
4.773488
 30
0.0
 10
1.931351
 20
4.825150
 30
0.0
 10
1.916184
 20
4.828690
 30
0.0
 10
1.900083
 20
4.828631
 30
0.0
 10
1.885914
 20
4.822273
 30
0.0
 10
1.875897
 20
4.809974
 30
0.0
 10
1.903178
 20
4.719408
 30
0.0
 10
1.930493
 20
4.628727
 30
0.0
 10
1.957833
 20
4.537964
 30
0.0
 10
1.985124
 20
4.447364
 30
0.0
 10
2.022287
 20
4.537311
 30
0.0
 10
2.059496
 20
4.627371
 30
0.0
 10
2.096740
 20
4.717513
 30
0.0
 10
2.133916
 20
4.807493
 30
0.0
 10
2.122879
 20
4.817867
 30
0.0
 10
2.109764
 20
4.825943
 30
0.0
 10
2.095186
 20
4.829602
 30
0.0
 10
2.080143
 20
4.827776
 30
0.0
 10
2.080143
 20
4.827776
 30
0.0
 10
2.080143
 20
4.827776
 30
0.0
 10
2.080143
 20
4.827776
 30
0.0
 10
2.080143
 20
4.827776
 30
0.0
  0
LWPOLYLINE
  5
226
100
AcDbEntity
  8
broken-silk
 62
7
100
AcDbPolyline
 90
53
 70
0
 10
1.738124
 20
4.747126
 30
0.0
 10
1.737297
 20
4.728773
 30
0.0
 10
1.736479
 20
4.710615
 30
0.0
 10
1.735669
 20
4.692664
 30
0.0
 10
1.734844
 20
4.674396
 30
0.0
 10
1.720899
 20
4.675700
 30
0.0
 10
1.707101
 20
4.676990
 30
0.0
 10
1.693462
 20
4.678266
 30
0.0
 10
1.679581
 20
4.679564
 30
0.0
 10
1.674943
 20
4.665657
 30
0.0
 10
1.671913
 20
4.651385
 30
0.0
 10
1.671725
 20
4.637086
 30
0.0
 10
1.674454
 20
4.622540
 30
0.0
 10
1.689046
 20
4.621157
 30
0.0
 10
1.703484
 20
4.619788
 30
0.0
 10
1.717756
 20
4.618436
 30
0.0
 10
1.732281
 20
4.617059
 30
0.0
 10
1.731245
 20
4.594397
 30
0.0
 10
1.730220
 20
4.571975
 30
0.0
 10
1.729207
 20
4.549811
 30
0.0
 10
1.728177
 20
4.527253
 30
0.0
 10
1.741724
 20
4.522647
 30
0.0
 10
1.756005
 20
4.519629
 30
0.0
 10
1.770216
 20
4.519823
 30
0.0
 10
1.783851
 20
4.524617
 30
0.0
 10
1.784833
 20
4.546641
 30
0.0
 10
1.785807
 20
4.568431
 30
0.0
 10
1.786769
 20
4.589971
 30
0.0
 10
1.787748
 20
4.611893
 30
0.0
 10
1.804436
 20
4.610324
 30
0.0
 10
1.820947
 20
4.608772
 30
0.0
 10
1.837269
 20
4.607236
 30
0.0
 10
1.853880
 20
4.605676
 30
0.0
 10
1.859054
 20
4.618923
 30
0.0
 10
1.860501
 20
4.633495
 30
0.0
 10
1.860126
 20
4.648106
 30
0.0
 10
1.858904
 20
4.662700
 30
0.0
 10
1.841595
 20
4.664323
 30
0.0
 10
1.824470
 20
4.665929
 30
0.0
 10
1.807541
 20
4.667515
 30
0.0
 10
1.790312
 20
4.669129
 30
0.0
 10
1.791167
 20
4.688147
 30
0.0
 10
1.792011
 20
4.706963
 30
0.0
 10
1.792846
 20
4.725564
 30
0.0
 10
1.793696
 20
4.744494
 30
0.0
 10
1.780374
 20
4.749607
 30
0.0
 10
1.766090
 20
4.752790
 30
0.0
 10
1.751463
 20
4.752483
 30
0.0
 10
1.738126
 20
4.747130
 30
0.0
 10
1.738125
 20
4.747130
 30
0.0
 10
1.738125
 20
4.747130
 30
0.0
 10
1.738125
 20
4.747130
 30
0.0
 10
1.738125
 20
4.747130
 30
0.0
  0
LWPOLYLINE
  5
227
100
AcDbEntity
  8
broken-silk
 62
7
100
AcDbPolyline
 90
53
 70
0
 10
5.282746
 20
4.747126
 30
0.0
 10
5.281927
 20
4.728773
 30
0.0
 10
5.281109
 20
4.710615
 30
0.0
 10
5.280291
 20
4.692664
 30
0.0
 10
5.279472
 20
4.674396
 30
0.0
 10
5.265528
 20
4.675700
 30
0.0
 10
5.251730
 20
4.676990
 30
0.0
 10
5.238090
 20
4.678266
 30
0.0
 10
5.224207
 20
4.679564
 30
0.0
 10
5.219568
 20
4.665657
 30
0.0
 10
5.216537
 20
4.651385
 30
0.0
 10
5.216348
 20
4.637086
 30
0.0
 10
5.219086
 20
4.622540
 30
0.0
 10
5.233676
 20
4.621157
 30
0.0
 10
5.248115
 20
4.619788
 30
0.0
 10
5.262387
 20
4.618436
 30
0.0
 10
5.276913
 20
4.617059
 30
0.0
 10
5.275869
 20
4.594397
 30
0.0
 10
5.274853
 20
4.571975
 30
0.0
 10
5.273837
 20
4.549811
 30
0.0
 10
5.272792
 20
4.527253
 30
0.0
 10
5.286339
 20
4.522647
 30
0.0
 10
5.300620
 20
4.519629
 30
0.0
 10
5.314829
 20
4.519823
 30
0.0
 10
5.328464
 20
4.524617
 30
0.0
 10
5.329451
 20
4.546641
 30
0.0
 10
5.330411
 20
4.568431
 30
0.0
 10
5.331371
 20
4.589971
 30
0.0
 10
5.332358
 20
4.611893
 30
0.0
 10
5.349046
 20
4.610324
 30
0.0
 10
5.365556
 20
4.608772
 30
0.0
 10
5.381877
 20
4.607236
 30
0.0
 10
5.398489
 20
4.605676
 30
0.0
 10
5.403662
 20
4.618923
 30
0.0
 10
5.405101
 20
4.633495
 30
0.0
 10
5.404734
 20
4.648106
 30
0.0
 10
5.403521
 20
4.662700
 30
0.0
 10
5.386212
 20
4.664323
 30
0.0
 10
5.369087
 20
4.665929
 30
0.0
 10
5.352156
 20
4.667515
 30
0.0
 10
5.334927
 20
4.669129
 30
0.0
 10
5.335773
 20
4.688147
 30
0.0
 10
5.336620
 20
4.706963
 30
0.0
 10
5.337467
 20
4.725564
 30
0.0
 10
5.338313
 20
4.744494
 30
0.0
 10
5.324989
 20
4.749607
 30
0.0
 10
5.310706
 20
4.752790
 30
0.0
 10
5.296079
 20
4.752483
 30
0.0
 10
5.282741
 20
4.747130
 30
0.0
 10
5.282741
 20
4.747130
 30
0.0
 10
5.282741
 20
4.747130
 30
0.0
 10
5.282741
 20
4.747130
 30
0.0
 10
5.282741
 20
4.747130
 30
0.0
  0
LWPOLYLINE
  5
228
100
AcDbEntity
  8
broken-silk
 62
7
100
AcDbPolyline
 90
29
 70
0
 10
5.624765
 20
4.827776
 30
0.0
 10
5.603169
 20
4.775478
 30
0.0
 10
5.581545
 20
4.723113
 30
0.0
 10
5.559902
 20
4.670700
 30
0.0
 10
5.538298
 20
4.618382
 30
0.0
 10
5.522730
 20
4.670025
 30
0.0
 10
5.507143
 20
4.721733
 30
0.0
 10
5.491542
 20
4.773488
 30
0.0
 10
5.475969
 20
4.825150
 30
0.0
 10
5.460802
 20
4.828690
 30
0.0
 10
5.444701
 20
4.828631
 30
0.0
 10
5.430534
 20
4.822273
 30
0.0
 10
5.420518
 20
4.809974
 30
0.0
 10
5.447797
 20
4.719408
 30
0.0
 10
5.475114
 20
4.628727
 30
0.0
 10
5.502453
 20
4.537964
 30
0.0
 10
5.529743
 20
4.447364
 30
0.0
 10
5.566906
 20
4.537311
 30
0.0
 10
5.604116
 20
4.627371
 30
0.0
 10
5.641359
 20
4.717513
 30
0.0
 10
5.678535
 20
4.807493
 30
0.0
 10
5.667498
 20
4.817867
 30
0.0
 10
5.654383
 20
4.825943
 30
0.0
 10
5.639803
 20
4.829602
 30
0.0
 10
5.624761
 20
4.827776
 30
0.0
 10
5.624761
 20
4.827776
 30
0.0
 10
5.624761
 20
4.827776
 30
0.0
 10
5.624761
 20
4.827776
 30
0.0
 10
5.624761
 20
4.827776
 30
0.0
  0
LWPOLYLINE
  5
229
100
AcDbEntity
  8
broken-silk
 62
7
100
AcDbPolyline
 90
81
 70
0
 10
2.602104
 20
1.389123
 30
0.0
 10
2.596221
 20
1.389167
 30
0.0
 10
2.590855
 20
1.389132
 30
0.0
 10
2.585115
 20
1.389024
 30
0.0
 10
2.579495
 20
1.388844
 30
0.0
 10
2.568919
 20
1.388336
 30
0.0
 10
2.558200
 20
1.387377
 30
0.0
 10
2.547869
 20
1.385627
 30
0.0
 10
2.537790
 20
1.382861
 30
0.0
 10
2.508665
 20
1.371205
 30
0.0
 10
2.481165
 20
1.356253
 30
0.0
 10
2.455594
 20
1.338022
 30
0.0
 10
2.432688
 20
1.316759
 30
0.0
 10
2.415952
 20
1.296750
 30
0.0
 10
2.401860
 20
1.274801
 30
0.0
 10
2.391059
 20
1.251179
 30
0.0
 10
2.384109
 20
1.225853
 30
0.0
 10
2.381733
 20
1.206997
 30
0.0
 10
2.382298
 20
1.187496
 30
0.0
 10
2.386787
 20
1.169084
 30
0.0
 10
2.395718
 20
1.152015
 30
0.0
 10
2.407203
 20
1.139078
 30
0.0
 10
2.421378
 20
1.129146
 30
0.0
 10
2.437140
 20
1.122144
 30
0.0
 10
2.453921
 20
1.117138
 30
0.0
 10
2.470959
 20
1.113810
 30
0.0
 10
2.488580
 20
1.112625
 30
0.0
 10
2.506149
 20
1.113754
 30
0.0
 10
2.523582
 20
1.117299
 30
0.0
 10
2.535141
 20
1.121312
 30
0.0
 10
2.546172
 20
1.126651
 30
0.0
 10
2.556733
 20
1.133016
 30
0.0
 10
2.566967
 20
1.139913
 30
0.0
 10
2.572339
 20
1.143669
 30
0.0
 10
2.577585
 20
1.147479
 30
0.0
 10
2.582820
 20
1.151422
 30
0.0
 10
2.588048
 20
1.155523
 30
0.0
 10
2.578642
 20
1.166126
 30
0.0
 10
2.569336
 20
1.176616
 30
0.0
 10
2.560136
 20
1.186985
 30
0.0
 10
2.550774
 20
1.197540
 30
0.0
 10
2.546347
 20
1.194094
 30
0.0
 10
2.542241
 20
1.191018
 30
0.0
 10
2.537787
 20
1.187792
 30
0.0
 10
2.533359
 20
1.184699
 30
0.0
 10
2.526995
 20
1.180598
 30
0.0
 10
2.520582
 20
1.176842
 30
0.0
 10
2.514047
 20
1.173320
 30
0.0
 10
2.507389
 20
1.170252
 30
0.0
 10
2.497762
 20
1.168417
 30
0.0
 10
2.487953
 20
1.167938
 30
0.0
 10
2.478438
 20
1.168615
 30
0.0
 10
2.469197
 20
1.170393
 30
0.0
 10
2.462704
 20
1.172340
 30
0.0
 10
2.455820
 20
1.175021
 30
0.0
 10
2.449627
 20
1.178106
 30
0.0
 10
2.443992
 20
1.182368
 30
0.0
 10
2.440991
 20
1.190304
 30
0.0
 10
2.439854
 20
1.199115
 30
0.0
 10
2.439878
 20
1.207533
 30
0.0
 10
2.440936
 20
1.216370
 30
0.0
 10
2.446011
 20
1.234003
 30
0.0
 10
2.453946
 20
1.250615
 30
0.0
 10
2.463865
 20
1.265807
 30
0.0
 10
2.475613
 20
1.279844
 30
0.0
 10
2.493560
 20
1.296360
 30
0.0
 10
2.513343
 20
1.310313
 30
0.0
 10
2.534590
 20
1.321831
 30
0.0
 10
2.556884
 20
1.330771
 30
0.0
 10
2.562940
 20
1.331929
 30
0.0
 10
2.569524
 20
1.332803
 30
0.0
 10
2.575730
 20
1.333424
 30
0.0
 10
2.581937
 20
1.333819
 30
0.0
 10
2.586569
 20
1.333971
 30
0.0
 10
2.591467
 20
1.334048
 30
0.0
 10
2.595926
 20
1.334048
 30
0.0
 10
2.600422
 20
1.333971
 30
0.0
 10
2.600845
 20
1.347887
 30
0.0
 10
2.601266
 20
1.361657
 30
0.0
 10
2.601680
 20
1.375268
 30
0.0
 10
2.602101
 20
1.389120
 30
0.0
  0
LWPOLYLINE
  5
22a
100
AcDbEntity
  8
broken-silk
 62
7
100
AcDbPolyline
 90
65
 70
0
 10
3.598765
 20
0.679445
 30
0.0
 10
3.590530
 20
0.626770
 30
0.0
 10
3.587934
 20
0.573391
 30
0.0
 10
3.588668
 20
0.519676
 30
0.0
 10
3.590446
 20
0.465917
 30
0.0
 10
3.590050
 20
0.462956
 30
0.0
 10
3.589627
 20
0.459835
 30
0.0
 10
3.589147
 20
0.456276
 30
0.0
 10
3.588724
 20
0.453155
 30
0.0
 10
3.592681
 20
0.452948
 30
0.0
 10
3.596471
 20
0.452750
 30
0.0
 10
3.600716
 20
0.452529
 30
0.0
 10
3.604401
 20
0.452336
 30
0.0
 10
3.612160
 20
0.451969
 30
0.0
 10
3.620138
 20
0.451709
 30
0.0
 10
3.628198
 20
0.451556
 30
0.0
 10
3.636084
 20
0.451522
 30
0.0
 10
3.649548
 20
0.451696
 30
0.0
 10
3.663222
 20
0.452345
 30
0.0
 10
3.677054
 20
0.453897
 30
0.0
 10
3.690115
 20
0.456691
 30
0.0
 10
3.690454
 20
0.456691
 30
0.0
 10
3.690792
 20
0.456691
 30
0.0
 10
3.690792
 20
0.456691
 30
0.0
 10
3.690792
 20
0.456691
 30
0.0
 10
3.690976
 20
0.456831
 30
0.0
 10
3.691159
 20
0.456970
 30
0.0
 10
3.691159
 20
0.456970
 30
0.0
 10
3.691159
 20
0.456970
 30
0.0
 10
3.709600
 20
0.463964
 30
0.0
 10
3.727337
 20
0.472224
 30
0.0
 10
3.744113
 20
0.482051
 30
0.0
 10
3.759530
 20
0.493902
 30
0.0
 10
3.771852
 20
0.507477
 30
0.0
 10
3.780565
 20
0.523555
 30
0.0
 10
3.784092
 20
0.541092
 30
0.0
 10
3.781863
 20
0.558802
 30
0.0
 10
3.781863
 20
0.559081
 30
0.0
 10
3.781863
 20
0.559081
 30
0.0
 10
3.781863
 20
0.559081
 30
0.0
 10
3.781863
 20
0.559081
 30
0.0
 10
3.770963
 20
0.582465
 30
0.0
 10
3.754800
 20
0.602599
 30
0.0
 10
3.734497
 20
0.619036
 30
0.0
 10
3.711163
 20
0.631044
 30
0.0
 10
3.710655
 20
0.631176
 30
0.0
 10
3.710317
 20
0.631266
 30
0.0
 10
3.710158
 20
0.631307
 30
0.0
 10
3.710158
 20
0.631307
 30
0.0
 10
3.709951
 20
0.631351
 30
0.0
 10
3.709612
 20
0.631421
 30
0.0
 10
3.709076
 20
0.631532
 30
0.0
 10
3.708820
 20
0.631586
 30
0.0
 10
3.693916
 20
0.634956
 30
0.0
 10
3.679108
 20
0.637778
 30
0.0
 10
3.664401
 20
0.640092
 30
0.0
 10
3.649452
 20
0.641898
 30
0.0
 10
3.636184
 20
0.650568
 30
0.0
 10
3.624467
 20
0.660917
 30
0.0
 10
3.612255
 20
0.671532
 30
0.0
 10
3.598717
 20
0.679437
 30
0.0
 10
3.598717
 20
0.679453
 30
0.0
 10
3.598717
 20
0.679453
 30
0.0
 10
3.598717
 20
0.679453
 30
0.0
 10
3.598717
 20
0.679453
 30
0.0
  0
LWPOLYLINE
  5
22b
100
AcDbEntity
  8
broken-silk
 62
7
100
AcDbPolyline
 90
21
 70
0
 10
3.695195
 20
0.600753
 30
0.0
 10
3.708922
 20
0.593359
 30
0.0
 10
3.720065
 20
0.581985
 30
0.0
 10
3.727295
 20
0.567750
 30
0.0
 10
3.732302
 20
0.552832
 30
0.0
 10
3.722277
 20
0.526853
 30
0.0
 10
3.698074
 20
0.513069
 30
0.0
 10
3.669814
 20
0.507521
 30
0.0
 10
3.641899
 20
0.502839
 30
0.0
 10
3.639133
 20
0.527739
 30
0.0
 10
3.638089
 20
0.552747
 30
0.0
 10
3.638569
 20
0.577489
 30
0.0
 10
3.639811
 20
0.602424
 30
0.0
 10
3.653795
 20
0.602762
 30
0.0
 10
3.667773
 20
0.604456
 30
0.0
 10
3.681769
 20
0.603609
 30
0.0
 10
3.695177
 20
0.600767
 30
0.0
 10
3.695195
 20
0.600761
 30
0.0
 10
3.695195
 20
0.600761
 30
0.0
 10
3.695195
 20
0.600761
 30
0.0
 10
3.695195
 20
0.600761
 30
0.0
  0
LWPOLYLINE
  5
22c
100
AcDbEntity
  8
broken-silk
 62
7
100
AcDbPolyline
 90
61
 70
0
 10
3.613000
 20
0.765625
 30
0.0
 10
3.610432
 20
0.765286
 30
0.0
 10
3.607539
 20
0.764722
 30
0.0
 10
3.605112
 20
0.764016
 30
0.0
 10
3.602657
 20
0.763057
 30
0.0
 10
3.599620
 20
0.761279
 30
0.0
 10
3.596826
 20
0.758795
 30
0.0
 10
3.594879
 20
0.756142
 30
0.0
 10
3.593524
 20
0.753015
 30
0.0
 10
3.593397
 20
0.752776
 30
0.0
 10
3.593269
 20
0.752536
 30
0.0
 10
3.593269
 20
0.752536
 30
0.0
 10
3.593269
 20
0.752536
 30
0.0
 10
3.593435
 20
0.700919
 30
0.0
 10
3.590460
 20
0.649700
 30
0.0
 10
3.614209
 20
0.611158
 30
0.0
 10
3.665420
 20
0.605846
 30
0.0
 10
3.665659
 20
0.605846
 30
0.0
 10
3.665899
 20
0.605846
 30
0.0
 10
3.665899
 20
0.605846
 30
0.0
 10
3.665899
 20
0.605846
 30
0.0
 10
3.666154
 20
0.606085
 30
0.0
 10
3.666154
 20
0.606085
 30
0.0
 10
3.666154
 20
0.606085
 30
0.0
 10
3.666154
 20
0.606085
 30
0.0
 10
3.679774
 20
0.612091
 30
0.0
 10
3.692875
 20
0.619186
 30
0.0
 10
3.705451
 20
0.627771
 30
0.0
 10
3.716649
 20
0.637804
 30
0.0
 10
3.725991
 20
0.649858
 30
0.0
 10
3.732273
 20
0.663566
 30
0.0
 10
3.734785
 20
0.678492
 30
0.0
 10
3.733148
 20
0.693552
 30
0.0
 10
3.733148
 20
0.693791
 30
0.0
 10
3.733148
 20
0.693791
 30
0.0
 10
3.733148
 20
0.693791
 30
0.0
 10
3.733148
 20
0.693791
 30
0.0
 10
3.725404
 20
0.713306
 30
0.0
 10
3.713757
 20
0.730468
 30
0.0
 10
3.698790
 20
0.744811
 30
0.0
 10
3.680940
 20
0.755600
 30
0.0
 10
3.680573
 20
0.755712
 30
0.0
 10
3.680206
 20
0.755823
 30
0.0
 10
3.680206
 20
0.755823
 30
0.0
 10
3.680206
 20
0.755823
 30
0.0
 10
3.679726
 20
0.755942
 30
0.0
 10
3.679388
 20
0.756025
 30
0.0
 10
3.679233
 20
0.756062
 30
0.0
 10
3.679233
 20
0.756062
 30
0.0
 10
3.668227
 20
0.758958
 30
0.0
 10
3.657547
 20
0.761328
 30
0.0
 10
3.646563
 20
0.763360
 30
0.0
 10
3.635390
 20
0.764941
 30
0.0
 10
3.629844
 20
0.765505
 30
0.0
 10
3.624358
 20
0.765872
 30
0.0
 10
3.618544
 20
0.765956
 30
0.0
 10
3.612976
 20
0.765646
 30
0.0
 10
3.613000
 20
0.765653
 30
0.0
 10
3.613000
 20
0.765653
 30
0.0
 10
3.613000
 20
0.765653
 30
0.0
 10
3.613000
 20
0.765653
 30
0.0
  0
LWPOLYLINE
  5
22d
100
AcDbEntity
  8
broken-silk
 62
7
100
AcDbPolyline
 90
21
 70
0
 10
3.665881
 20
0.723006
 30
0.0
 10
3.676422
 20
0.717463
 30
0.0
 10
3.685834
 20
0.710061
 30
0.0
 10
3.692565
 20
0.699960
 30
0.0
 10
3.696584
 20
0.688445
 30
0.0
 10
3.691523
 20
0.669785
 30
0.0
 10
3.675095
 20
0.660694
 30
0.0
 10
3.655546
 20
0.660327
 30
0.0
 10
3.636420
 20
0.658719
 30
0.0
 10
3.634388
 20
0.675119
 30
0.0
 10
3.632948
 20
0.692103
 30
0.0
 10
3.633069
 20
0.708565
 30
0.0
 10
3.633802
 20
0.725557
 30
0.0
 10
3.642134
 20
0.725543
 30
0.0
 10
3.650084
 20
0.724244
 30
0.0
 10
3.657684
 20
0.723031
 30
0.0
 10
3.665894
 20
0.723025
 30
0.0
 10
3.665888
 20
0.723032
 30
0.0
 10
3.665888
 20
0.723032
 30
0.0
 10
3.665888
 20
0.723032
 30
0.0
 10
3.665888
 20
0.723032
 30
0.0
  0
SPLINE
  5
22e
100
AcDbEntity
  8
broken-silk
 62
7
100
AcDbSpline
 70
8
 71
3
 72
8
 73
4
 74
0
 40
0
 40
0
 40
0
 40
0
 40
1
 40
1
 40
1
 40
1
 10
1.440326
 20
2.754423
 30
0.0
 10
1.440326
 20
2.754423
 30
0.0
 10
1.432254
 20
2.754362
 30
0.0
 10
1.421409
 20
2.754280
 30
0.0
  0
SPLINE
  5
22f
100
AcDbEntity
  8
broken-silk
 62
7
100
AcDbSpline
 70
8
 71
3
 72
8
 73
4
 74
0
 40
0
 40
0
 40
0
 40
0
 40
1
 40
1
 40
1
 40
1
 10
1.421409
 20
2.754280
 30
0.0
 10
1.415683
 20
2.754237
 30
0.0
 10
1.409185
 20
2.754188
 30
0.0
 10
1.402692
 20
2.754139
 30
0.0
  0
SPLINE
  5
230
100
AcDbEntity
  8
broken-silk
 62
7
100
AcDbSpline
 70
8
 71
3
 72
8
 73
4
 74
0
 40
0
 40
0
 40
0
 40
0
 40
1
 40
1
 40
1
 40
1
 10
1.402692
 20
2.754139
 30
0.0
 10
1.396267
 20
2.754091
 30
0.0
 10
1.389848
 20
2.754042
 30
0.0
 10
1.384190
 20
2.754000
 30
0.0
  0
SPLINE
  5
231
100
AcDbEntity
  8
broken-silk
 62
7
100
AcDbSpline
 70
8
 71
3
 72
8
 73
4
 74
0
 40
0
 40
0
 40
0
 40
0
 40
1
 40
1
 40
1
 40
1
 10
1.384190
 20
2.754000
 30
0.0
 10
1.373388
 20
2.753919
 30
0.0
 10
1.365360
 20
2.753858
 30
0.0
 10
1.365360
 20
2.753858
 30
0.0
  0
SPLINE
  5
232
100
AcDbEntity
  8
broken-silk
 62
7
100
AcDbSpline
 70
8
 71
3
 72
8
 73
4
 74
0
 40
0
 40
0
 40
0
 40
0
 40
1
 40
1
 40
1
 40
1
 10
1.365360
 20
2.753858
 30
0.0
 10
1.365707
 20
2.697605
 30
0.0
 10
1.368067
 20
2.640472
 30
0.0
 10
1.372923
 20
2.583252
 30
0.0
  0
SPLINE
  5
233
100
AcDbEntity
  8
broken-silk
 62
7
100
AcDbSpline
 70
8
 71
3
 72
8
 73
4
 74
0
 40
0
 40
0
 40
0
 40
0
 40
1
 40
1
 40
1
 40
1
 10
1.372923
 20
2.583252
 30
0.0
 10
1.377720
 20
2.526718
 30
0.0
 10
1.384954
 20
2.470099
 30
0.0
 10
1.395092
 20
2.414158
 30
0.0
  0
SPLINE
  5
234
100
AcDbEntity
  8
broken-silk
 62
7
100
AcDbSpline
 70
8
 71
3
 72
8
 73
4
 74
0
 40
0
 40
0
 40
0
 40
0
 40
1
 40
1
 40
1
 40
1
 10
1.395092
 20
2.414158
 30
0.0
 10
1.405255
 20
2.358080
 30
0.0
 10
1.418338
 20
2.302684
 30
0.0
 10
1.434811
 20
2.248737
 30
0.0
  0
SPLINE
  5
235
100
AcDbEntity
  8
broken-silk
 62
7
100
AcDbSpline
 70
8
 71
3
 72
8
 73
4
 74
0
 40
0
 40
0
 40
0
 40
0
 40
1
 40
1
 40
1
 40
1
 10
1.434811
 20
2.248737
 30
0.0
 10
1.451543
 20
2.193942
 30
0.0
 10
1.471774
 20
2.140642
 30
0.0
 10
1.495998
 20
2.089644
 30
0.0
  0
SPLINE
  5
236
100
AcDbEntity
  8
broken-silk
 62
7
100
AcDbSpline
 70
8
 71
3
 72
8
 73
4
 74
0
 40
0
 40
0
 40
0
 40
0
 40
1
 40
1
 40
1
 40
1
 10
1.495998
 20
2.089644
 30
0.0
 10
1.520827
 20
2.037372
 30
0.0
 10
1.550063
 20
1.987499
 30
0.0
 10
1.584095
 20
1.941089
 30
0.0
  0
SPLINE
  5
237
100
AcDbEntity
  8
broken-silk
 62
7
100
AcDbSpline
 70
8
 71
3
 72
8
 73
4
 74
0
 40
0
 40
0
 40
0
 40
0
 40
1
 40
1
 40
1
 40
1
 10
1.584095
 20
1.941089
 30
0.0
 10
1.618077
 20
1.894747
 30
0.0
 10
1.656841
 20
1.851856
 30
0.0
 10
1.700774
 20
1.813479
 30
0.0
  0
SPLINE
  5
238
100
AcDbEntity
  8
broken-silk
 62
7
100
AcDbSpline
 70
8
 71
3
 72
8
 73
4
 74
0
 40
0
 40
0
 40
0
 40
0
 40
1
 40
1
 40
1
 40
1
 10
1.700774
 20
1.813479
 30
0.0
 10
1.743257
 20
1.776366
 30
0.0
 10
1.790574
 20
1.743474
 30
0.0
 10
1.843074
 20
1.715758
 30
0.0
  0
SPLINE
  5
239
100
AcDbEntity
  8
broken-silk
 62
7
100
AcDbSpline
 70
8
 71
3
 72
8
 73
4
 74
0
 40
0
 40
0
 40
0
 40
0
 40
1
 40
1
 40
1
 40
1
 10
1.843074
 20
1.715758
 30
0.0
 10
1.892008
 20
1.689927
 30
0.0
 10
1.945445
 20
1.668591
 30
0.0
 10
2.003667
 20
1.652530
 30
0.0
  0
SPLINE
  5
23a
100
AcDbEntity
  8
broken-silk
 62
7
100
AcDbSpline
 70
8
 71
3
 72
8
 73
4
 74
0
 40
0
 40
0
 40
0
 40
0
 40
1
 40
1
 40
1
 40
1
 10
2.003667
 20
1.652530
 30
0.0
 10
2.003667
 20
1.652530
 30
0.0
 10
2.003805
 20
1.652495
 30
0.0
 10
2.004012
 20
1.652442
 30
0.0
  0
SPLINE
  5
23b
100
AcDbEntity
  8
broken-silk
 62
7
100
AcDbSpline
 70
8
 71
3
 72
8
 73
4
 74
0
 40
0
 40
0
 40
0
 40
0
 40
1
 40
1
 40
1
 40
1
 10
2.004012
 20
1.652442
 30
0.0
 10
2.004167
 20
1.652402
 30
0.0
 10
2.004362
 20
1.652352
 30
0.0
 10
2.004565
 20
1.652300
 30
0.0
  0
SPLINE
  5
23c
100
AcDbEntity
  8
broken-silk
 62
7
100
AcDbSpline
 70
8
 71
3
 72
8
 73
4
 74
0
 40
0
 40
0
 40
0
 40
0
 40
1
 40
1
 40
1
 40
1
 10
2.004565
 20
1.652300
 30
0.0
 10
2.004870
 20
1.652222
 30
0.0
 10
2.005197
 20
1.652138
 30
0.0
 10
2.005448
 20
1.652074
 30
0.0
  0
SPLINE
  5
23d
100
AcDbEntity
  8
broken-silk
 62
7
100
AcDbSpline
 70
8
 71
3
 72
8
 73
4
 74
0
 40
0
 40
0
 40
0
 40
0
 40
1
 40
1
 40
1
 40
1
 10
2.005448
 20
1.652074
 30
0.0
 10
2.005699
 20
1.652010
 30
0.0
 10
2.005874
 20
1.651965
 30
0.0
 10
2.005874
 20
1.651965
 30
0.0
  0
SPLINE
  5
23e
100
AcDbEntity
  8
broken-silk
 62
7
100
AcDbSpline
 70
8
 71
3
 72
8
 73
4
 74
0
 40
0
 40
0
 40
0
 40
0
 40
1
 40
1
 40
1
 40
1
 10
2.005874
 20
1.651965
 30
0.0
 10
2.005874
 20
1.651965
 30
0.0
 10
2.006047
 20
1.651930
 30
0.0
 10
2.006306
 20
1.651877
 30
0.0
  0
SPLINE
  5
23f
100
AcDbEntity
  8
broken-silk
 62
7
100
AcDbSpline
 70
8
 71
3
 72
8
 73
4
 74
0
 40
0
 40
0
 40
0
 40
0
 40
1
 40
1
 40
1
 40
1
 10
2.006306
 20
1.651877
 30
0.0
 10
2.006500
 20
1.651838
 30
0.0
 10
2.006744
 20
1.651788
 30
0.0
 10
2.006998
 20
1.651736
 30
0.0
  0
SPLINE
  5
240
100
AcDbEntity
  8
broken-silk
 62
7
100
AcDbSpline
 70
8
 71
3
 72
8
 73
4
 74
0
 40
0
 40
0
 40
0
 40
0
 40
1
 40
1
 40
1
 40
1
 10
2.006998
 20
1.651736
 30
0.0
 10
2.007188
 20
1.651697
 30
0.0
 10
2.007387
 20
1.651656
 30
0.0
 10
2.007576
 20
1.651618
 30
0.0
  0
SPLINE
  5
241
100
AcDbEntity
  8
broken-silk
 62
7
100
AcDbSpline
 70
8
 71
3
 72
8
 73
4
 74
0
 40
0
 40
0
 40
0
 40
0
 40
1
 40
1
 40
1
 40
1
 10
2.007576
 20
1.651618
 30
0.0
 10
2.008143
 20
1.651502
 30
0.0
 10
2.008634
 20
1.651401
 30
0.0
 10
2.008634
 20
1.651401
 30
0.0
  0
SPLINE
  5
242
100
AcDbEntity
  8
broken-silk
 62
7
100
AcDbSpline
 70
8
 71
3
 72
8
 73
4
 74
0
 40
0
 40
0
 40
0
 40
0
 40
1
 40
1
 40
1
 40
1
 10
2.008634
 20
1.651401
 30
0.0
 10
2.035917
 20
1.647837
 30
0.0
 10
2.063514
 20
1.647439
 30
0.0
 10
2.091079
 20
1.649821
 30
0.0
  0
SPLINE
  5
243
100
AcDbEntity
  8
broken-silk
 62
7
100
AcDbSpline
 70
8
 71
3
 72
8
 73
4
 74
0
 40
0
 40
0
 40
0
 40
0
 40
1
 40
1
 40
1
 40
1
 10
2.091079
 20
1.649821
 30
0.0
 10
2.118168
 20
1.652163
 30
0.0
 10
2.145226
 20
1.657175
 30
0.0
 10
2.171925
 20
1.664499
 30
0.0
  0
SPLINE
  5
244
100
AcDbEntity
  8
broken-silk
 62
7
100
AcDbSpline
 70
8
 71
3
 72
8
 73
4
 74
0
 40
0
 40
0
 40
0
 40
0
 40
1
 40
1
 40
1
 40
1
 10
2.171925
 20
1.664499
 30
0.0
 10
2.198288
 20
1.671732
 30
0.0
 10
2.224302
 20
1.681212
 30
0.0
 10
2.249649
 20
1.692586
 30
0.0
  0
SPLINE
  5
245
100
AcDbEntity
  8
broken-silk
 62
7
100
AcDbSpline
 70
8
 71
3
 72
8
 73
4
 74
0
 40
0
 40
0
 40
0
 40
0
 40
1
 40
1
 40
1
 40
1
 10
2.249649
 20
1.692586
 30
0.0
 10
2.274604
 20
1.703781
 30
0.0
 10
2.298913
 20
1.716812
 30
0.0
 10
2.322276
 20
1.731331
 30
0.0
  0
SPLINE
  5
246
100
AcDbEntity
  8
broken-silk
 62
7
100
AcDbSpline
 70
8
 71
3
 72
8
 73
4
 74
0
 40
0
 40
0
 40
0
 40
0
 40
1
 40
1
 40
1
 40
1
 10
2.322276
 20
1.731331
 30
0.0
 10
2.345611
 20
1.745831
 30
0.0
 10
2.368047
 20
1.761855
 30
0.0
 10
2.389253
 20
1.779197
 30
0.0
  0
SPLINE
  5
247
100
AcDbEntity
  8
broken-silk
 62
7
100
AcDbSpline
 70
8
 71
3
 72
8
 73
4
 74
0
 40
0
 40
0
 40
0
 40
0
 40
1
 40
1
 40
1
 40
1
 10
2.389253
 20
1.779197
 30
0.0
 10
2.410668
 20
1.796709
 30
0.0
 10
2.430830
 20
1.815568
 30
0.0
 10
2.449400
 20
1.835563
 30
0.0
  0
SPLINE
  5
248
100
AcDbEntity
  8
broken-silk
 62
7
100
AcDbSpline
 70
8
 71
3
 72
8
 73
4
 74
0
 40
0
 40
0
 40
0
 40
0
 40
1
 40
1
 40
1
 40
1
 10
2.449400
 20
1.835563
 30
0.0
 10
2.468356
 20
1.855973
 30
0.0
 10
2.485653
 20
1.877571
 30
0.0
 10
2.500929
 20
1.900132
 30
0.0
  0
SPLINE
  5
249
100
AcDbEntity
  8
broken-silk
 62
7
100
AcDbSpline
 70
8
 71
3
 72
8
 73
4
 74
0
 40
0
 40
0
 40
0
 40
0
 40
1
 40
1
 40
1
 40
1
 10
2.500929
 20
1.900132
 30
0.0
 10
2.516568
 20
1.923229
 30
0.0
 10
2.530090
 20
1.947333
 30
0.0
 10
2.541108
 20
1.972212
 30
0.0
  0
SPLINE
  5
24a
100
AcDbEntity
  8
broken-silk
 62
7
100
AcDbSpline
 70
8
 71
3
 72
8
 73
4
 74
0
 40
0
 40
0
 40
0
 40
0
 40
1
 40
1
 40
1
 40
1
 10
2.541108
 20
1.972212
 30
0.0
 10
2.551555
 20
1.995800
 30
0.0
 10
2.559994
 20
2.020807
 30
0.0
 10
2.566449
 20
2.046751
 30
0.0
  0
SPLINE
  5
24b
100
AcDbEntity
  8
broken-silk
 62
7
100
AcDbSpline
 70
8
 71
3
 72
8
 73
4
 74
0
 40
0
 40
0
 40
0
 40
0
 40
1
 40
1
 40
1
 40
1
 10
2.566449
 20
2.046751
 30
0.0
 10
2.572696
 20
2.071857
 30
0.0
 10
2.577084
 20
2.097844
 30
0.0
 10
2.579635
 20
2.124271
 30
0.0
  0
SPLINE
  5
24c
100
AcDbEntity
  8
broken-silk
 62
7
100
AcDbSpline
 70
8
 71
3
 72
8
 73
4
 74
0
 40
0
 40
0
 40
0
 40
0
 40
1
 40
1
 40
1
 40
1
 10
2.579635
 20
2.124271
 30
0.0
 10
2.582135
 20
2.150162
 30
0.0
 10
2.582870
 20
2.176481
 30
0.0
 10
2.581861
 20
2.202812
 30
0.0
  0
SPLINE
  5
24d
100
AcDbEntity
  8
broken-silk
 62
7
100
AcDbSpline
 70
8
 71
3
 72
8
 73
4
 74
0
 40
0
 40
0
 40
0
 40
0
 40
1
 40
1
 40
1
 40
1
 10
2.581861
 20
2.202812
 30
0.0
 10
2.580854
 20
2.229144
 30
0.0
 10
2.578103
 20
2.255491
 30
0.0
 10
2.573629
 20
2.281443
 30
0.0
  0
SPLINE
  5
24e
100
AcDbEntity
  8
broken-silk
 62
7
100
AcDbSpline
 70
8
 71
3
 72
8
 73
4
 74
0
 40
0
 40
0
 40
0
 40
0
 40
1
 40
1
 40
1
 40
1
 10
2.573629
 20
2.281443
 30
0.0
 10
2.569178
 20
2.307264
 30
0.0
 10
2.562988
 20
2.332781
 30
0.0
 10
2.554972
 20
2.357506
 30
0.0
  0
SPLINE
  5
24f
100
AcDbEntity
  8
broken-silk
 62
7
100
AcDbSpline
 70
8
 71
3
 72
8
 73
4
 74
0
 40
0
 40
0
 40
0
 40
0
 40
1
 40
1
 40
1
 40
1
 10
2.554972
 20
2.357506
 30
0.0
 10
2.546829
 20
2.382623
 30
0.0
 10
2.536800
 20
2.406922
 30
0.0
 10
2.524793
 20
2.429893
 30
0.0
  0
SPLINE
  5
250
100
AcDbEntity
  8
broken-silk
 62
7
100
AcDbSpline
 70
8
 71
3
 72
8
 73
4
 74
0
 40
0
 40
0
 40
0
 40
0
 40
1
 40
1
 40
1
 40
1
 10
2.524793
 20
2.429893
 30
0.0
 10
2.512549
 20
2.453317
 30
0.0
 10
2.498246
 20
2.475362
 30
0.0
 10
2.481787
 20
2.495480
 30
0.0
  0
SPLINE
  5
251
100
AcDbEntity
  8
broken-silk
 62
7
100
AcDbSpline
 70
8
 71
3
 72
8
 73
4
 74
0
 40
0
 40
0
 40
0
 40
0
 40
1
 40
1
 40
1
 40
1
 10
2.481787
 20
2.495480
 30
0.0
 10
2.465200
 20
2.515755
 30
0.0
 10
2.446422
 20
2.534076
 30
0.0
 10
2.425352
 20
2.549885
 30
0.0
  0
SPLINE
  5
252
100
AcDbEntity
  8
broken-silk
 62
7
100
AcDbSpline
 70
8
 71
3
 72
8
 73
4
 74
0
 40
0
 40
0
 40
0
 40
0
 40
1
 40
1
 40
1
 40
1
 10
2.425352
 20
2.549885
 30
0.0
 10
2.408238
 20
2.562726
 30
0.0
 10
2.389867
 20
2.573016
 30
0.0
 10
2.370606
 20
2.581050
 30
0.0
  0
SPLINE
  5
253
100
AcDbEntity
  8
broken-silk
 62
7
100
AcDbSpline
 70
8
 71
3
 72
8
 73
4
 74
0
 40
0
 40
0
 40
0
 40
0
 40
1
 40
1
 40
1
 40
1
 10
2.370606
 20
2.581050
 30
0.0
 10
2.351283
 20
2.589108
 30
0.0
 10
2.331063
 20
2.594896
 30
0.0
 10
2.310315
 20
2.598706
 30
0.0
  0
SPLINE
  5
254
100
AcDbEntity
  8
broken-silk
 62
7
100
AcDbSpline
 70
8
 71
3
 72
8
 73
4
 74
0
 40
0
 40
0
 40
0
 40
0
 40
1
 40
1
 40
1
 40
1
 10
2.310315
 20
2.598706
 30
0.0
 10
2.289827
 20
2.602471
 30
0.0
 10
2.268824
 20
2.604308
 30
0.0
 10
2.247660
 20
2.604506
 30
0.0
  0
SPLINE
  5
255
100
AcDbEntity
  8
broken-silk
 62
7
100
AcDbSpline
 70
8
 71
3
 72
8
 73
4
 74
0
 40
0
 40
0
 40
0
 40
0
 40
1
 40
1
 40
1
 40
1
 10
2.247660
 20
2.604506
 30
0.0
 10
2.226824
 20
2.604701
 30
0.0
 10
2.205832
 20
2.603320
 30
0.0
 10
2.185022
 20
2.600597
 30
0.0
  0
SPLINE
  5
256
100
AcDbEntity
  8
broken-silk
 62
7
100
AcDbSpline
 70
8
 71
3
 72
8
 73
4
 74
0
 40
0
 40
0
 40
0
 40
0
 40
1
 40
1
 40
1
 40
1
 10
2.185022
 20
2.600597
 30
0.0
 10
2.164345
 20
2.597916
 30
0.0
 10
2.143760
 20
2.593928
 30
0.0
 10
2.123521
 20
2.588803
 30
0.0
  0
SPLINE
  5
257
100
AcDbEntity
  8
broken-silk
 62
7
100
AcDbSpline
 70
8
 71
3
 72
8
 73
4
 74
0
 40
0
 40
0
 40
0
 40
0
 40
1
 40
1
 40
1
 40
1
 10
2.123521
 20
2.588803
 30
0.0
 10
2.103205
 20
2.583658
 30
0.0
 10
2.083236
 20
2.577353
 30
0.0
 10
2.063871
 20
2.570015
 30
0.0
  0
SPLINE
  5
258
100
AcDbEntity
  8
broken-silk
 62
7
100
AcDbSpline
 70
8
 71
3
 72
8
 73
4
 74
0
 40
0
 40
0
 40
0
 40
0
 40
1
 40
1
 40
1
 40
1
 10
2.063871
 20
2.570015
 30
0.0
 10
2.044005
 20
2.562488
 30
0.0
 10
2.024774
 20
2.553875
 30
0.0
 10
2.006453
 20
2.544313
 30
0.0
  0
SPLINE
  5
259
100
AcDbEntity
  8
broken-silk
 62
7
100
AcDbSpline
 70
8
 71
3
 72
8
 73
4
 74
0
 40
0
 40
0
 40
0
 40
0
 40
1
 40
1
 40
1
 40
1
 10
2.006453
 20
2.544313
 30
0.0
 10
1.987552
 20
2.534450
 30
0.0
 10
1.969620
 20
2.523578
 30
0.0
 10
1.952961
 20
2.511849
 30
0.0
  0
SPLINE
  5
25a
100
AcDbEntity
  8
broken-silk
 62
7
100
AcDbSpline
 70
8
 71
3
 72
8
 73
4
 74
0
 40
0
 40
0
 40
0
 40
0
 40
1
 40
1
 40
1
 40
1
 10
1.952961
 20
2.511849
 30
0.0
 10
1.922148
 20
2.490158
 30
0.0
 10
1.893382
 20
2.463417
 30
0.0
 10
1.868049
 20
2.433109
 30
0.0
  0
SPLINE
  5
25b
100
AcDbEntity
  8
broken-silk
 62
7
100
AcDbSpline
 70
8
 71
3
 72
8
 73
4
 74
0
 40
0
 40
0
 40
0
 40
0
 40
1
 40
1
 40
1
 40
1
 10
1.868049
 20
2.433109
 30
0.0
 10
1.843479
 20
2.403712
 30
0.0
 10
1.822139
 20
2.370959
 30
0.0
 10
1.805294
 20
2.336203
 30
0.0
  0
SPLINE
  5
25c
100
AcDbEntity
  8
broken-silk
 62
7
100
AcDbSpline
 70
8
 71
3
 72
8
 73
4
 74
0
 40
0
 40
0
 40
0
 40
0
 40
1
 40
1
 40
1
 40
1
 10
1.805294
 20
2.336203
 30
0.0
 10
1.788333
 20
2.301207
 30
0.0
 10
1.775929
 20
2.264180
 30
0.0
 10
1.769374
 20
2.226502
 30
0.0
  0
SPLINE
  5
25d
100
AcDbEntity
  8
broken-silk
 62
7
100
AcDbSpline
 70
8
 71
3
 72
8
 73
4
 74
0
 40
0
 40
0
 40
0
 40
0
 40
1
 40
1
 40
1
 40
1
 10
1.769374
 20
2.226502
 30
0.0
 10
1.762716
 20
2.188230
 30
0.0
 10
1.762092
 20
2.149286
 30
0.0
 10
1.768855
 20
2.111116
 30
0.0
  0
SPLINE
  5
25e
100
AcDbEntity
  8
broken-silk
 62
7
100
AcDbSpline
 70
8
 71
3
 72
8
 73
4
 74
0
 40
0
 40
0
 40
0
 40
0
 40
1
 40
1
 40
1
 40
1
 10
1.768855
 20
2.111116
 30
0.0
 10
1.771716
 20
2.094967
 30
0.0
 10
1.776095
 20
2.078994
 30
0.0
 10
1.781805
 20
2.063363
 30
0.0
  0
SPLINE
  5
25f
100
AcDbEntity
  8
broken-silk
 62
7
100
AcDbSpline
 70
8
 71
3
 72
8
 73
4
 74
0
 40
0
 40
0
 40
0
 40
0
 40
1
 40
1
 40
1
 40
1
 10
1.781805
 20
2.063363
 30
0.0
 10
1.787443
 20
2.047934
 30
0.0
 10
1.794379
 20
2.032835
 30
0.0
 10
1.802437
 20
2.018229
 30
0.0
  0
SPLINE
  5
260
100
AcDbEntity
  8
broken-silk
 62
7
100
AcDbSpline
 70
8
 71
3
 72
8
 73
4
 74
0
 40
0
 40
0
 40
0
 40
0
 40
1
 40
1
 40
1
 40
1
 10
1.802437
 20
2.018229
 30
0.0
 10
1.810402
 20
2.003793
 30
0.0
 10
1.819462
 20
1.989835
 30
0.0
 10
1.829448
 20
1.976510
 30
0.0
  0
SPLINE
  5
261
100
AcDbEntity
  8
broken-silk
 62
7
100
AcDbSpline
 70
8
 71
3
 72
8
 73
4
 74
0
 40
0
 40
0
 40
0
 40
0
 40
1
 40
1
 40
1
 40
1
 10
1.829448
 20
1.976510
 30
0.0
 10
1.839434
 20
1.963186
 30
0.0
 10
1.850345
 20
1.950492
 30
0.0
 10
1.862010
 20
1.938586
 30
0.0
  0
SPLINE
  5
262
100
AcDbEntity
  8
broken-silk
 62
7
100
AcDbSpline
 70
8
 71
3
 72
8
 73
4
 74
0
 40
0
 40
0
 40
0
 40
0
 40
1
 40
1
 40
1
 40
1
 10
1.862010
 20
1.938586
 30
0.0
 10
1.873599
 20
1.926758
 30
0.0
 10
1.885981
 20
1.915652
 30
0.0
 10
1.899045
 20
1.905516
 30
0.0
  0
SPLINE
  5
263
100
AcDbEntity
  8
broken-silk
 62
7
100
AcDbSpline
 70
8
 71
3
 72
8
 73
4
 74
0
 40
0
 40
0
 40
0
 40
0
 40
1
 40
1
 40
1
 40
1
 10
1.899045
 20
1.905516
 30
0.0
 10
1.912332
 20
1.895204
 30
0.0
 10
1.926326
 20
1.885893
 30
0.0
 10
1.940907
 20
1.877838
 30
0.0
  0
SPLINE
  5
264
100
AcDbEntity
  8
broken-silk
 62
7
100
AcDbSpline
 70
8
 71
3
 72
8
 73
4
 74
0
 40
0
 40
0
 40
0
 40
0
 40
1
 40
1
 40
1
 40
1
 10
1.940907
 20
1.877838
 30
0.0
 10
1.955574
 20
1.869736
 30
0.0
 10
1.970836
 20
1.862903
 30
0.0
 10
1.986573
 20
1.857597
 30
0.0
  0
SPLINE
  5
265
100
AcDbEntity
  8
broken-silk
 62
7
100
AcDbSpline
 70
8
 71
3
 72
8
 73
4
 74
0
 40
0
 40
0
 40
0
 40
0
 40
1
 40
1
 40
1
 40
1
 10
1.986573
 20
1.857597
 30
0.0
 10
2.002311
 20
1.852294
 30
0.0
 10
2.018523
 20
1.848518
 30
0.0
 10
2.035092
 20
1.846531
 30
0.0
  0
SPLINE
  5
266
100
AcDbEntity
  8
broken-silk
 62
7
100
AcDbSpline
 70
8
 71
3
 72
8
 73
4
 74
0
 40
0
 40
0
 40
0
 40
0
 40
1
 40
1
 40
1
 40
1
 10
2.035092
 20
1.846531
 30
0.0
 10
2.052496
 20
1.844443
 30
0.0
 10
2.069946
 20
1.844302
 30
0.0
 10
2.087267
 20
1.845882
 30
0.0
  0
SPLINE
  5
267
100
AcDbEntity
  8
broken-silk
 62
7
100
AcDbSpline
 70
8
 71
3
 72
8
 73
4
 74
0
 40
0
 40
0
 40
0
 40
0
 40
1
 40
1
 40
1
 40
1
 10
2.087267
 20
1.845882
 30
0.0
 10
2.104542
 20
1.847463
 30
0.0
 10
2.121689
 20
1.850714
 30
0.0
 10
2.138533
 20
1.855421
 30
0.0
  0
SPLINE
  5
268
100
AcDbEntity
  8
broken-silk
 62
7
100
AcDbSpline
 70
8
 71
3
 72
8
 73
4
 74
0
 40
0
 40
0
 40
0
 40
0
 40
1
 40
1
 40
1
 40
1
 10
2.138533
 20
1.855421
 30
0.0
 10
2.155181
 20
1.860075
 30
0.0
 10
2.171533
 20
1.866137
 30
0.0
 10
2.187422
 20
1.873371
 30
0.0
  0
SPLINE
  5
269
100
AcDbEntity
  8
broken-silk
 62
7
100
AcDbSpline
 70
8
 71
3
 72
8
 73
4
 74
0
 40
0
 40
0
 40
0
 40
0
 40
1
 40
1
 40
1
 40
1
 10
2.187422
 20
1.873371
 30
0.0
 10
2.203311
 20
1.880604
 30
0.0
 10
2.218736
 20
1.889009
 30
0.0
 10
2.233530
 20
1.898342
 30
0.0
  0
SPLINE
  5
26a
100
AcDbEntity
  8
broken-silk
 62
7
100
AcDbSpline
 70
8
 71
3
 72
8
 73
4
 74
0
 40
0
 40
0
 40
0
 40
0
 40
1
 40
1
 40
1
 40
1
 10
2.233530
 20
1.898342
 30
0.0
 10
2.248187
 20
1.907590
 30
0.0
 10
2.262267
 20
1.917770
 30
0.0
 10
2.275594
 20
1.928767
 30
0.0
  0
SPLINE
  5
26b
100
AcDbEntity
  8
broken-silk
 62
7
100
AcDbSpline
 70
8
 71
3
 72
8
 73
4
 74
0
 40
0
 40
0
 40
0
 40
0
 40
1
 40
1
 40
1
 40
1
 10
2.275594
 20
1.928767
 30
0.0
 10
2.288991
 20
1.939821
 30
0.0
 10
2.301628
 20
1.951700
 30
0.0
 10
2.313327
 20
1.964280
 30
0.0
  0
SPLINE
  5
26c
100
AcDbEntity
  8
broken-silk
 62
7
100
AcDbSpline
 70
8
 71
3
 72
8
 73
4
 74
0
 40
0
 40
0
 40
0
 40
0
 40
1
 40
1
 40
1
 40
1
 10
2.313327
 20
1.964280
 30
0.0
 10
2.325212
 20
1.977059
 30
0.0
 10
2.336129
 20
1.990566
 30
0.0
 10
2.345893
 20
2.004671
 30
0.0
  0
SPLINE
  5
26d
100
AcDbEntity
  8
broken-silk
 62
7
100
AcDbSpline
 70
8
 71
3
 72
8
 73
4
 74
0
 40
0
 40
0
 40
0
 40
0
 40
1
 40
1
 40
1
 40
1
 10
2.345893
 20
2.004671
 30
0.0
 10
2.355811
 20
2.019000
 30
0.0
 10
2.364540
 20
2.033944
 30
0.0
 10
2.371884
 20
2.049375
 30
0.0
  0
SPLINE
  5
26e
100
AcDbEntity
  8
broken-silk
 62
7
100
AcDbSpline
 70
8
 71
3
 72
8
 73
4
 74
0
 40
0
 40
0
 40
0
 40
0
 40
1
 40
1
 40
1
 40
1
 10
2.371884
 20
2.049375
 30
0.0
 10
2.378197
 20
2.062637
 30
0.0
 10
2.383671
 20
2.076810
 30
0.0
 10
2.388220
 20
2.091616
 30
0.0
  0
SPLINE
  5
26f
100
AcDbEntity
  8
broken-silk
 62
7
100
AcDbSpline
 70
8
 71
3
 72
8
 73
4
 74
0
 40
0
 40
0
 40
0
 40
0
 40
1
 40
1
 40
1
 40
1
 10
2.388220
 20
2.091616
 30
0.0
 10
2.392581
 20
2.105809
 30
0.0
 10
2.396093
 20
2.120583
 30
0.0
 10
2.398681
 20
2.135694
 30
0.0
  0
SPLINE
  5
270
100
AcDbEntity
  8
broken-silk
 62
7
100
AcDbSpline
 70
8
 71
3
 72
8
 73
4
 74
0
 40
0
 40
0
 40
0
 40
0
 40
1
 40
1
 40
1
 40
1
 10
2.398681
 20
2.135694
 30
0.0
 10
2.401196
 20
2.150370
 30
0.0
 10
2.402836
 20
2.165364
 30
0.0
 10
2.403538
 20
2.180450
 30
0.0
  0
SPLINE
  5
271
100
AcDbEntity
  8
broken-silk
 62
7
100
AcDbSpline
 70
8
 71
3
 72
8
 73
4
 74
0
 40
0
 40
0
 40
0
 40
0
 40
1
 40
1
 40
1
 40
1
 10
2.403538
 20
2.180450
 30
0.0
 10
2.404241
 20
2.195538
 30
0.0
 10
2.404001
 20
2.210716
 30
0.0
 10
2.402753
 20
2.225764
 30
0.0
  0
SPLINE
  5
272
100
AcDbEntity
  8
broken-silk
 62
7
100
AcDbSpline
 70
8
 71
3
 72
8
 73
4
 74
0
 40
0
 40
0
 40
0
 40
0
 40
1
 40
1
 40
1
 40
1
 10
2.402753
 20
2.225764
 30
0.0
 10
2.401472
 20
2.241201
 30
0.0
 10
2.399044
 20
2.256725
 30
0.0
 10
2.395240
 20
2.271840
 30
0.0
  0
SPLINE
  5
273
100
AcDbEntity
  8
broken-silk
 62
7
100
AcDbSpline
 70
8
 71
3
 72
8
 73
4
 74
0
 40
0
 40
0
 40
0
 40
0
 40
1
 40
1
 40
1
 40
1
 10
2.395240
 20
2.271840
 30
0.0
 10
2.391452
 20
2.286896
 30
0.0
 10
2.386300
 20
2.301544
 30
0.0
 10
2.379564
 20
2.315296
 30
0.0
  0
SPLINE
  5
274
100
AcDbEntity
  8
broken-silk
 62
7
100
AcDbSpline
 70
8
 71
3
 72
8
 73
4
 74
0
 40
0
 40
0
 40
0
 40
0
 40
1
 40
1
 40
1
 40
1
 10
2.379564
 20
2.315296
 30
0.0
 10
2.372682
 20
2.329345
 30
0.0
 10
2.364147
 20
2.342457
 30
0.0
 10
2.353722
 20
2.354113
 30
0.0
  0
SPLINE
  5
275
100
AcDbEntity
  8
broken-silk
 62
7
100
AcDbSpline
 70
8
 71
3
 72
8
 73
4
 74
0
 40
0
 40
0
 40
0
 40
0
 40
1
 40
1
 40
1
 40
1
 10
2.353722
 20
2.354113
 30
0.0
 10
2.343617
 20
2.365407
 30
0.0
 10
2.331737
 20
2.375333
 30
0.0
 10
2.317866
 20
2.383411
 30
0.0
  0
SPLINE
  5
276
100
AcDbEntity
  8
broken-silk
 62
7
100
AcDbSpline
 70
8
 71
3
 72
8
 73
4
 74
0
 40
0
 40
0
 40
0
 40
0
 40
1
 40
1
 40
1
 40
1
 10
2.317866
 20
2.383411
 30
0.0
 10
2.304120
 20
2.391418
 30
0.0
 10
2.289688
 20
2.396887
 30
0.0
 10
2.274888
 20
2.400206
 30
0.0
  0
SPLINE
  5
277
100
AcDbEntity
  8
broken-silk
 62
7
100
AcDbSpline
 70
8
 71
3
 72
8
 73
4
 74
0
 40
0
 40
0
 40
0
 40
0
 40
1
 40
1
 40
1
 40
1
 10
2.274888
 20
2.400206
 30
0.0
 10
2.259973
 20
2.403551
 30
0.0
 10
2.244685
 20
2.404711
 30
0.0
 10
2.229350
 20
2.404076
 30
0.0
  0
SPLINE
  5
278
100
AcDbEntity
  8
broken-silk
 62
7
100
AcDbSpline
 70
8
 71
3
 72
8
 73
4
 74
0
 40
0
 40
0
 40
0
 40
0
 40
1
 40
1
 40
1
 40
1
 10
2.229350
 20
2.404076
 30
0.0
 10
2.214193
 20
2.403455
 30
0.0
 10
2.198990
 20
2.401067
 30
0.0
 10
2.184056
 20
2.397314
 30
0.0
  0
SPLINE
  5
279
100
AcDbEntity
  8
broken-silk
 62
7
100
AcDbSpline
 70
8
 71
3
 72
8
 73
4
 74
0
 40
0
 40
0
 40
0
 40
0
 40
1
 40
1
 40
1
 40
1
 10
2.184056
 20
2.397314
 30
0.0
 10
2.169122
 20
2.393560
 30
0.0
 10
2.154457
 20
2.388432
 30
0.0
 10
2.140375
 20
2.382308
 30
0.0
  0
SPLINE
  5
27a
100
AcDbEntity
  8
broken-silk
 62
7
100
AcDbSpline
 70
8
 71
3
 72
8
 73
4
 74
0
 40
0
 40
0
 40
0
 40
0
 40
1
 40
1
 40
1
 40
1
 10
2.140375
 20
2.382308
 30
0.0
 10
2.126459
 20
2.376257
 30
0.0
 10
2.112922
 20
2.369179
 30
0.0
 10
2.100016
 20
2.361172
 30
0.0
  0
SPLINE
  5
27b
100
AcDbEntity
  8
broken-silk
 62
7
100
AcDbSpline
 70
8
 71
3
 72
8
 73
4
 74
0
 40
0
 40
0
 40
0
 40
0
 40
1
 40
1
 40
1
 40
1
 10
2.100016
 20
2.361172
 30
0.0
 10
2.087043
 20
2.353126
 30
0.0
 10
2.074707
 20
2.344143
 30
0.0
 10
2.063265
 20
2.334324
 30
0.0
  0
SPLINE
  5
27c
100
AcDbEntity
  8
broken-silk
 62
7
100
AcDbSpline
 70
8
 71
3
 72
8
 73
4
 74
0
 40
0
 40
0
 40
0
 40
0
 40
1
 40
1
 40
1
 40
1
 10
2.063265
 20
2.334324
 30
0.0
 10
2.051735
 20
2.324430
 30
0.0
 10
2.041112
 20
2.313683
 30
0.0
 10
2.031660
 20
2.302191
 30
0.0
  0
SPLINE
  5
27d
100
AcDbEntity
  8
broken-silk
 62
7
100
AcDbSpline
 70
8
 71
3
 72
8
 73
4
 74
0
 40
0
 40
0
 40
0
 40
0
 40
1
 40
1
 40
1
 40
1
 10
2.031660
 20
2.302191
 30
0.0
 10
2.021908
 20
2.290335
 30
0.0
 10
2.013402
 20
2.277683
 30
0.0
 10
2.006430
 20
2.264347
 30
0.0
  0
SPLINE
  5
27e
100
AcDbEntity
  8
broken-silk
 62
7
100
AcDbSpline
 70
8
 71
3
 72
8
 73
4
 74
0
 40
0
 40
0
 40
0
 40
0
 40
1
 40
1
 40
1
 40
1
 10
2.006430
 20
2.264347
 30
0.0
 10
2.000751
 20
2.253484
 30
0.0
 10
1.997312
 20
2.242621
 30
0.0
 10
1.995556
 20
2.231855
 30
0.0
  0
SPLINE
  5
27f
100
AcDbEntity
  8
broken-silk
 62
7
100
AcDbSpline
 70
8
 71
3
 72
8
 73
4
 74
0
 40
0
 40
0
 40
0
 40
0
 40
1
 40
1
 40
1
 40
1
 10
1.995556
 20
2.231855
 30
0.0
 10
1.993657
 20
2.220199
 30
0.0
 10
1.993727
 20
2.208656
 30
0.0
 10
1.995068
 20
2.197354
 30
0.0
  0
SPLINE
  5
280
100
AcDbEntity
  8
broken-silk
 62
7
100
AcDbSpline
 70
8
 71
3
 72
8
 73
4
 74
0
 40
0
 40
0
 40
0
 40
0
 40
1
 40
1
 40
1
 40
1
 10
1.995068
 20
2.197354
 30
0.0
 10
1.996442
 20
2.185761
 30
0.0
 10
1.999153
 20
2.174418
 30
0.0
 10
2.002437
 20
2.163464
 30
0.0
  0
SPLINE
  5
281
100
AcDbEntity
  8
broken-silk
 62
7
100
AcDbSpline
 70
8
 71
3
 72
8
 73
4
 74
0
 40
0
 40
0
 40
0
 40
0
 40
1
 40
1
 40
1
 40
1
 10
2.002437
 20
2.163464
 30
0.0
 10
2.005824
 20
2.152164
 30
0.0
 10
2.009822
 20
2.141276
 30
0.0
 10
2.013595
 20
2.130952
 30
0.0
  0
SPLINE
  5
282
100
AcDbEntity
  8
broken-silk
 62
7
100
AcDbSpline
 70
8
 71
3
 72
8
 73
4
 74
0
 40
0
 40
0
 40
0
 40
0
 40
1
 40
1
 40
1
 40
1
 10
2.013595
 20
2.130952
 30
0.0
 10
2.015884
 20
2.124693
 30
0.0
 10
2.018272
 20
2.118628
 30
0.0
 10
2.020671
 20
2.112854
 30
0.0
  0
SPLINE
  5
283
100
AcDbEntity
  8
broken-silk
 62
7
100
AcDbSpline
 70
8
 71
3
 72
8
 73
4
 74
0
 40
0
 40
0
 40
0
 40
0
 40
1
 40
1
 40
1
 40
1
 10
2.020671
 20
2.112854
 30
0.0
 10
2.023324
 20
2.106470
 30
0.0
 10
2.025991
 20
2.100444
 30
0.0
 10
2.028547
 20
2.094913
 30
0.0
  0
SPLINE
  5
284
100
AcDbEntity
  8
broken-silk
 62
7
100
AcDbSpline
 70
8
 71
3
 72
8
 73
4
 74
0
 40
0
 40
0
 40
0
 40
0
 40
1
 40
1
 40
1
 40
1
 10
2.028547
 20
2.094913
 30
0.0
 10
2.031610
 20
2.088283
 30
0.0
 10
2.034513
 20
2.082359
 30
0.0
 10
2.037044
 20
2.077370
 30
0.0
  0
SPLINE
  5
285
100
AcDbEntity
  8
broken-silk
 62
7
100
AcDbSpline
 70
8
 71
3
 72
8
 73
4
 74
0
 40
0
 40
0
 40
0
 40
0
 40
1
 40
1
 40
1
 40
1
 10
2.037044
 20
2.077370
 30
0.0
 10
2.042417
 20
2.066781
 30
0.0
 10
2.046116
 20
2.060397
 30
0.0
 10
2.046116
 20
2.060397
 30
0.0
  0
SPLINE
  5
286
100
AcDbEntity
  8
broken-silk
 62
7
100
AcDbSpline
 70
8
 71
3
 72
8
 73
4
 74
0
 40
0
 40
0
 40
0
 40
0
 40
1
 40
1
 40
1
 40
1
 10
2.046116
 20
2.060397
 30
0.0
 10
2.046116
 20
2.060397
 30
0.0
 10
2.053120
 20
2.064314
 30
0.0
 10
2.062530
 20
2.069578
 30
0.0
  0
SPLINE
  5
287
100
AcDbEntity
  8
broken-silk
 62
7
100
AcDbSpline
 70
8
 71
3
 72
8
 73
4
 74
0
 40
0
 40
0
 40
0
 40
0
 40
1
 40
1
 40
1
 40
1
 10
2.062530
 20
2.069578
 30
0.0
 10
2.067497
 20
2.072343
 30
0.0
 10
2.073136
 20
2.075510
 30
0.0
 10
2.078769
 20
2.078660
 30
0.0
  0
SPLINE
  5
288
100
AcDbEntity
  8
broken-silk
 62
7
100
AcDbSpline
 70
8
 71
3
 72
8
 73
4
 74
0
 40
0
 40
0
 40
0
 40
0
 40
1
 40
1
 40
1
 40
1
 10
2.078769
 20
2.078660
 30
0.0
 10
2.084344
 20
2.081778
 30
0.0
 10
2.089913
 20
2.084894
 30
0.0
 10
2.094823
 20
2.087640
 30
0.0
  0
SPLINE
  5
289
100
AcDbEntity
  8
broken-silk
 62
7
100
AcDbSpline
 70
8
 71
3
 72
8
 73
4
 74
0
 40
0
 40
0
 40
0
 40
0
 40
1
 40
1
 40
1
 40
1
 10
2.094823
 20
2.087640
 30
0.0
 10
2.104195
 20
2.092881
 30
0.0
 10
2.111160
 20
2.096778
 30
0.0
 10
2.111160
 20
2.096778
 30
0.0
  0
SPLINE
  5
28a
100
AcDbEntity
  8
broken-silk
 62
7
100
AcDbSpline
 70
8
 71
3
 72
8
 73
4
 74
0
 40
0
 40
0
 40
0
 40
0
 40
1
 40
1
 40
1
 40
1
 10
2.111160
 20
2.096778
 30
0.0
 10
2.111160
 20
2.096778
 30
0.0
 10
2.108056
 20
2.102318
 30
0.0
 10
2.103555
 20
2.111409
 30
0.0
  0
SPLINE
  5
28b
100
AcDbEntity
  8
broken-silk
 62
7
100
AcDbSpline
 70
8
 71
3
 72
8
 73
4
 74
0
 40
0
 40
0
 40
0
 40
0
 40
1
 40
1
 40
1
 40
1
 10
2.103555
 20
2.111409
 30
0.0
 10
2.101475
 20
2.115608
 30
0.0
 10
2.099097
 20
2.120564
 30
0.0
 10
2.096590
 20
2.126081
 30
0.0
  0
SPLINE
  5
28c
100
AcDbEntity
  8
broken-silk
 62
7
100
AcDbSpline
 70
8
 71
3
 72
8
 73
4
 74
0
 40
0
 40
0
 40
0
 40
0
 40
1
 40
1
 40
1
 40
1
 10
2.096590
 20
2.126081
 30
0.0
 10
2.094504
 20
2.130667
 30
0.0
 10
2.092330
 20
2.135640
 30
0.0
 10
2.090162
 20
2.140890
 30
0.0
  0
SPLINE
  5
28d
100
AcDbEntity
  8
broken-silk
 62
7
100
AcDbSpline
 70
8
 71
3
 72
8
 73
4
 74
0
 40
0
 40
0
 40
0
 40
0
 40
1
 40
1
 40
1
 40
1
 10
2.090162
 20
2.140890
 30
0.0
 10
2.088124
 20
2.145820
 30
0.0
 10
2.086095
 20
2.150990
 30
0.0
 10
2.084151
 20
2.156313
 30
0.0
  0
SPLINE
  5
28e
100
AcDbEntity
  8
broken-silk
 62
7
100
AcDbSpline
 70
8
 71
3
 72
8
 73
4
 74
0
 40
0
 40
0
 40
0
 40
0
 40
1
 40
1
 40
1
 40
1
 10
2.084151
 20
2.156313
 30
0.0
 10
2.082014
 20
2.162161
 30
0.0
 10
2.080202
 20
2.168161
 30
0.0
 10
2.078681
 20
2.174093
 30
0.0
  0
SPLINE
  5
28f
100
AcDbEntity
  8
broken-silk
 62
7
100
AcDbSpline
 70
8
 71
3
 72
8
 73
4
 74
0
 40
0
 40
0
 40
0
 40
0
 40
1
 40
1
 40
1
 40
1
 10
2.078681
 20
2.174093
 30
0.0
 10
2.077053
 20
2.180440
 30
0.0
 10
2.075757
 20
2.186708
 30
0.0
 10
2.074749
 20
2.192632
 30
0.0
  0
SPLINE
  5
290
100
AcDbEntity
  8
broken-silk
 62
7
100
AcDbSpline
 70
8
 71
3
 72
8
 73
4
 74
0
 40
0
 40
0
 40
0
 40
0
 40
1
 40
1
 40
1
 40
1
 10
2.074749
 20
2.192632
 30
0.0
 10
2.073567
 20
2.199583
 30
0.0
 10
2.072779
 20
2.206060
 30
0.0
 10
2.072319
 20
2.211620
 30
0.0
  0
SPLINE
  5
291
100
AcDbEntity
  8
broken-silk
 62
7
100
AcDbSpline
 70
8
 71
3
 72
8
 73
4
 74
0
 40
0
 40
0
 40
0
 40
0
 40
1
 40
1
 40
1
 40
1
 10
2.072319
 20
2.211620
 30
0.0
 10
2.071501
 20
2.221532
 30
0.0
 10
2.071718
 20
2.228539
 30
0.0
 10
2.072574
 20
2.230176
 30
0.0
  0
SPLINE
  5
292
100
AcDbEntity
  8
broken-silk
 62
7
100
AcDbSpline
 70
8
 71
3
 72
8
 73
4
 74
0
 40
0
 40
0
 40
0
 40
0
 40
1
 40
1
 40
1
 40
1
 10
2.072574
 20
2.230176
 30
0.0
 10
2.077105
 20
2.238843
 30
0.0
 10
2.083451
 20
2.247759
 30
0.0
 10
2.091176
 20
2.256510
 30
0.0
  0
SPLINE
  5
293
100
AcDbEntity
  8
broken-silk
 62
7
100
AcDbSpline
 70
8
 71
3
 72
8
 73
4
 74
0
 40
0
 40
0
 40
0
 40
0
 40
1
 40
1
 40
1
 40
1
 10
2.091176
 20
2.256510
 30
0.0
 10
2.098039
 20
2.264286
 30
0.0
 10
2.105991
 20
2.271928
 30
0.0
 10
2.114725
 20
2.279150
 30
0.0
  0
SPLINE
  5
294
100
AcDbEntity
  8
broken-silk
 62
7
100
AcDbSpline
 70
8
 71
3
 72
8
 73
4
 74
0
 40
0
 40
0
 40
0
 40
0
 40
1
 40
1
 40
1
 40
1
 10
2.114725
 20
2.279150
 30
0.0
 10
2.122919
 20
2.285926
 30
0.0
 10
2.131803
 20
2.292327
 30
0.0
 10
2.141123
 20
2.298118
 30
0.0
  0
SPLINE
  5
295
100
AcDbEntity
  8
broken-silk
 62
7
100
AcDbSpline
 70
8
 71
3
 72
8
 73
4
 74
0
 40
0
 40
0
 40
0
 40
0
 40
1
 40
1
 40
1
 40
1
 10
2.141123
 20
2.298118
 30
0.0
 10
2.150442
 20
2.303907
 30
0.0
 10
2.160199
 20
2.309085
 30
0.0
 10
2.170139
 20
2.313409
 30
0.0
  0
SPLINE
  5
296
100
AcDbEntity
  8
broken-silk
 62
7
100
AcDbSpline
 70
8
 71
3
 72
8
 73
4
 74
0
 40
0
 40
0
 40
0
 40
0
 40
1
 40
1
 40
1
 40
1
 10
2.170139
 20
2.313409
 30
0.0
 10
2.179083
 20
2.317298
 30
0.0
 10
2.188019
 20
2.320456
 30
0.0
 10
2.196793
 20
2.322878
 30
0.0
  0
SPLINE
  5
297
100
AcDbEntity
  8
broken-silk
 62
7
100
AcDbSpline
 70
8
 71
3
 72
8
 73
4
 74
0
 40
0
 40
0
 40
0
 40
0
 40
1
 40
1
 40
1
 40
1
 10
2.196793
 20
2.322878
 30
0.0
 10
2.206409
 20
2.325531
 30
0.0
 10
2.215831
 20
2.327300
 30
0.0
 10
2.224854
 20
2.328181
 30
0.0
  0
SPLINE
  5
298
100
AcDbEntity
  8
broken-silk
 62
7
100
AcDbSpline
 70
8
 71
3
 72
8
 73
4
 74
0
 40
0
 40
0
 40
0
 40
0
 40
1
 40
1
 40
1
 40
1
 10
2.224854
 20
2.328181
 30
0.0
 10
2.235062
 20
2.329168
 30
0.0
 10
2.244762
 20
2.329027
 30
0.0
 10
2.253658
 20
2.327729
 30
0.0
  0
SPLINE
  5
299
100
AcDbEntity
  8
broken-silk
 62
7
100
AcDbSpline
 70
8
 71
3
 72
8
 73
4
 74
0
 40
0
 40
0
 40
0
 40
0
 40
1
 40
1
 40
1
 40
1
 10
2.253658
 20
2.327729
 30
0.0
 10
2.263740
 20
2.326262
 30
0.0
 10
2.272791
 20
2.323329
 30
0.0
 10
2.280382
 20
2.318910
 30
0.0
  0
SPLINE
  5
29a
100
AcDbEntity
  8
broken-silk
 62
7
100
AcDbSpline
 70
8
 71
3
 72
8
 73
4
 74
0
 40
0
 40
0
 40
0
 40
0
 40
1
 40
1
 40
1
 40
1
 10
2.280382
 20
2.318910
 30
0.0
 10
2.288346
 20
2.314273
 30
0.0
 10
2.295463
 20
2.307815
 30
0.0
 10
2.301635
 20
2.299789
 30
0.0
  0
SPLINE
  5
29b
100
AcDbEntity
  8
broken-silk
 62
7
100
AcDbSpline
 70
8
 71
3
 72
8
 73
4
 74
0
 40
0
 40
0
 40
0
 40
0
 40
1
 40
1
 40
1
 40
1
 10
2.301635
 20
2.299789
 30
0.0
 10
2.307117
 20
2.292660
 30
0.0
 10
2.311854
 20
2.284298
 30
0.0
 10
2.315780
 20
2.274869
 30
0.0
  0
SPLINE
  5
29c
100
AcDbEntity
  8
broken-silk
 62
7
100
AcDbSpline
 70
8
 71
3
 72
8
 73
4
 74
0
 40
0
 40
0
 40
0
 40
0
 40
1
 40
1
 40
1
 40
1
 10
2.315780
 20
2.274869
 30
0.0
 10
2.319205
 20
2.266645
 30
0.0
 10
2.322012
 20
2.257611
 30
0.0
 10
2.324158
 20
2.247886
 30
0.0
  0
SPLINE
  5
29d
100
AcDbEntity
  8
broken-silk
 62
7
100
AcDbSpline
 70
8
 71
3
 72
8
 73
4
 74
0
 40
0
 40
0
 40
0
 40
0
 40
1
 40
1
 40
1
 40
1
 10
2.324158
 20
2.247886
 30
0.0
 10
2.326111
 20
2.239032
 30
0.0
 10
2.327515
 20
2.229603
 30
0.0
 10
2.328337
 20
2.219689
 30
0.0
  0
SPLINE
  5
29e
100
AcDbEntity
  8
broken-silk
 62
7
100
AcDbSpline
 70
8
 71
3
 72
8
 73
4
 74
0
 40
0
 40
0
 40
0
 40
0
 40
1
 40
1
 40
1
 40
1
 10
2.328337
 20
2.219689
 30
0.0
 10
2.329289
 20
2.208222
 30
0.0
 10
2.329396
 20
2.196315
 30
0.0
 10
2.328772
 20
2.184339
 30
0.0
  0
SPLINE
  5
29f
100
AcDbEntity
  8
broken-silk
 62
7
100
AcDbSpline
 70
8
 71
3
 72
8
 73
4
 74
0
 40
0
 40
0
 40
0
 40
0
 40
1
 40
1
 40
1
 40
1
 10
2.328772
 20
2.184339
 30
0.0
 10
2.328160
 20
2.172627
 30
0.0
 10
2.326847
 20
2.160852
 30
0.0
 10
2.324932
 20
2.149358
 30
0.0
  0
SPLINE
  5
2a0
100
AcDbEntity
  8
broken-silk
 62
7
100
AcDbSpline
 70
8
 71
3
 72
8
 73
4
 74
0
 40
0
 40
0
 40
0
 40
0
 40
1
 40
1
 40
1
 40
1
 10
2.324932
 20
2.149358
 30
0.0
 10
2.322926
 20
2.137308
 30
0.0
 10
2.320256
 20
2.125570
 30
0.0
 10
2.317043
 20
2.114546
 30
0.0
  0
SPLINE
  5
2a1
100
AcDbEntity
  8
broken-silk
 62
7
100
AcDbSpline
 70
8
 71
3
 72
8
 73
4
 74
0
 40
0
 40
0
 40
0
 40
0
 40
1
 40
1
 40
1
 40
1
 10
2.317043
 20
2.114546
 30
0.0
 10
2.313513
 20
2.102436
 30
0.0
 10
2.309326
 20
2.091189
 30
0.0
 10
2.304636
 20
2.081334
 30
0.0
  0
SPLINE
  5
2a2
100
AcDbEntity
  8
broken-silk
 62
7
100
AcDbSpline
 70
8
 71
3
 72
8
 73
4
 74
0
 40
0
 40
0
 40
0
 40
0
 40
1
 40
1
 40
1
 40
1
 10
2.304636
 20
2.081334
 30
0.0
 10
2.298969
 20
2.069430
 30
0.0
 10
2.291869
 20
2.057523
 30
0.0
 10
2.283591
 20
2.045884
 30
0.0
  0
SPLINE
  5
2a3
100
AcDbEntity
  8
broken-silk
 62
7
100
AcDbSpline
 70
8
 71
3
 72
8
 73
4
 74
0
 40
0
 40
0
 40
0
 40
0
 40
1
 40
1
 40
1
 40
1
 10
2.283591
 20
2.045884
 30
0.0
 10
2.275723
 20
2.034824
 30
0.0
 10
2.266790
 20
2.024003
 30
0.0
 10
2.257012
 20
2.013656
 30
0.0
  0
SPLINE
  5
2a4
100
AcDbEntity
  8
broken-silk
 62
7
100
AcDbSpline
 70
8
 71
3
 72
8
 73
4
 74
0
 40
0
 40
0
 40
0
 40
0
 40
1
 40
1
 40
1
 40
1
 10
2.257012
 20
2.013656
 30
0.0
 10
2.247678
 20
2.003778
 30
0.0
 10
2.237575
 20
1.994332
 30
0.0
 10
2.226891
 20
1.985519
 30
0.0
  0
SPLINE
  5
2a5
100
AcDbEntity
  8
broken-silk
 62
7
100
AcDbSpline
 70
8
 71
3
 72
8
 73
4
 74
0
 40
0
 40
0
 40
0
 40
0
 40
1
 40
1
 40
1
 40
1
 10
2.226891
 20
1.985519
 30
0.0
 10
2.216207
 20
1.976705
 30
0.0
 10
2.204943
 20
1.968520
 30
0.0
 10
2.193291
 20
1.961168
 30
0.0
  0
SPLINE
  5
2a6
100
AcDbEntity
  8
broken-silk
 62
7
100
AcDbSpline
 70
8
 71
3
 72
8
 73
4
 74
0
 40
0
 40
0
 40
0
 40
0
 40
1
 40
1
 40
1
 40
1
 10
2.193291
 20
1.961168
 30
0.0
 10
2.181956
 20
1.954020
 30
0.0
 10
2.170294
 20
1.947673
 30
0.0
 10
2.158479
 20
1.942217
 30
0.0
  0
SPLINE
  5
2a7
100
AcDbEntity
  8
broken-silk
 62
7
100
AcDbSpline
 70
8
 71
3
 72
8
 73
4
 74
0
 40
0
 40
0
 40
0
 40
0
 40
1
 40
1
 40
1
 40
1
 10
2.158479
 20
1.942217
 30
0.0
 10
2.146266
 20
1.936578
 30
0.0
 10
2.133891
 20
1.931894
 30
0.0
 10
2.121546
 20
1.928258
 30
0.0
  0
SPLINE
  5
2a8
100
AcDbEntity
  8
broken-silk
 62
7
100
AcDbSpline
 70
8
 71
3
 72
8
 73
4
 74
0
 40
0
 40
0
 40
0
 40
0
 40
1
 40
1
 40
1
 40
1
 10
2.121546
 20
1.928258
 30
0.0
 10
2.108627
 20
1.924454
 30
0.0
 10
2.095741
 20
1.921798
 30
0.0
 10
2.083111
 20
1.920407
 30
0.0
  0
SPLINE
  5
2a9
100
AcDbEntity
  8
broken-silk
 62
7
100
AcDbSpline
 70
8
 71
3
 72
8
 73
4
 74
0
 40
0
 40
0
 40
0
 40
0
 40
1
 40
1
 40
1
 40
1
 10
2.083111
 20
1.920407
 30
0.0
 10
2.069666
 20
1.918911
 30
0.0
 10
2.056510
 20
1.918883
 30
0.0
 10
2.043911
 20
1.920381
 30
0.0
  0
SPLINE
  5
2aa
100
AcDbEntity
  8
broken-silk
 62
7
100
AcDbSpline
 70
8
 71
3
 72
8
 73
4
 74
0
 40
0
 40
0
 40
0
 40
0
 40
1
 40
1
 40
1
 40
1
 10
2.043911
 20
1.920381
 30
0.0
 10
2.031978
 20
1.921820
 30
0.0
 10
2.019784
 20
1.924862
 30
0.0
 10
2.007594
 20
1.929324
 30
0.0
  0
SPLINE
  5
2ab
100
AcDbEntity
  8
broken-silk
 62
7
100
AcDbSpline
 70
8
 71
3
 72
8
 73
4
 74
0
 40
0
 40
0
 40
0
 40
0
 40
1
 40
1
 40
1
 40
1
 10
2.007594
 20
1.929324
 30
0.0
 10
1.996332
 20
1.933447
 30
0.0
 10
1.985074
 20
1.938776
 30
0.0
 10
1.974028
 20
1.945146
 30
0.0
  0
SPLINE
  5
2ac
100
AcDbEntity
  8
broken-silk
 62
7
100
AcDbSpline
 70
8
 71
3
 72
8
 73
4
 74
0
 40
0
 40
0
 40
0
 40
0
 40
1
 40
1
 40
1
 40
1
 10
1.974028
 20
1.945146
 30
0.0
 10
1.963503
 20
1.951216
 30
0.0
 10
1.953171
 20
1.958232
 30
0.0
 10
1.943213
 20
1.966053
 30
0.0
  0
SPLINE
  5
2ad
100
AcDbEntity
  8
broken-silk
 62
7
100
AcDbSpline
 70
8
 71
3
 72
8
 73
4
 74
0
 40
0
 40
0
 40
0
 40
0
 40
1
 40
1
 40
1
 40
1
 10
1.943213
 20
1.966053
 30
0.0
 10
1.933562
 20
1.973633
 30
0.0
 10
1.924262
 20
1.981970
 30
0.0
 10
1.915478
 20
1.990936
 30
0.0
  0
SPLINE
  5
2ae
100
AcDbEntity
  8
broken-silk
 62
7
100
AcDbSpline
 70
8
 71
3
 72
8
 73
4
 74
0
 40
0
 40
0
 40
0
 40
0
 40
1
 40
1
 40
1
 40
1
 10
1.915478
 20
1.990936
 30
0.0
 10
1.906506
 20
2.000094
 30
0.0
 10
1.898099
 20
2.009879
 30
0.0
 10
1.890390
 20
2.020080
 30
0.0
  0
SPLINE
  5
2af
100
AcDbEntity
  8
broken-silk
 62
7
100
AcDbSpline
 70
8
 71
3
 72
8
 73
4
 74
0
 40
0
 40
0
 40
0
 40
0
 40
1
 40
1
 40
1
 40
1
 10
1.890390
 20
2.020080
 30
0.0
 10
1.882593
 20
2.030398
 30
0.0
 10
1.875509
 20
2.041142
 30
0.0
 10
1.869275
 20
2.052093
 30
0.0
  0
SPLINE
  5
2b0
100
AcDbEntity
  8
broken-silk
 62
7
100
AcDbSpline
 70
8
 71
3
 72
8
 73
4
 74
0
 40
0
 40
0
 40
0
 40
0
 40
1
 40
1
 40
1
 40
1
 10
1.869275
 20
2.052093
 30
0.0
 10
1.862752
 20
2.063554
 30
0.0
 10
1.857161
 20
2.075241
 30
0.0
 10
1.852658
 20
2.086906
 30
0.0
  0
SPLINE
  5
2b1
100
AcDbEntity
  8
broken-silk
 62
7
100
AcDbSpline
 70
8
 71
3
 72
8
 73
4
 74
0
 40
0
 40
0
 40
0
 40
0
 40
1
 40
1
 40
1
 40
1
 10
1.852658
 20
2.086906
 30
0.0
 10
1.847864
 20
2.099324
 30
0.0
 10
1.844304
 20
2.111716
 30
0.0
 10
1.842166
 20
2.123779
 30
0.0
  0
SPLINE
  5
2b2
100
AcDbEntity
  8
broken-silk
 62
7
100
AcDbSpline
 70
8
 71
3
 72
8
 73
4
 74
0
 40
0
 40
0
 40
0
 40
0
 40
1
 40
1
 40
1
 40
1
 10
1.842166
 20
2.123779
 30
0.0
 10
1.836929
 20
2.153339
 30
0.0
 10
1.838423
 20
2.185351
 30
0.0
 10
1.845256
 20
2.217717
 30
0.0
  0
SPLINE
  5
2b3
100
AcDbEntity
  8
broken-silk
 62
7
100
AcDbSpline
 70
8
 71
3
 72
8
 73
4
 74
0
 40
0
 40
0
 40
0
 40
0
 40
1
 40
1
 40
1
 40
1
 10
1.845256
 20
2.217717
 30
0.0
 10
1.851560
 20
2.247577
 30
0.0
 10
1.862407
 20
2.277737
 30
0.0
 10
1.876704
 20
2.306549
 30
0.0
  0
SPLINE
  5
2b4
100
AcDbEntity
  8
broken-silk
 62
7
100
AcDbSpline
 70
8
 71
3
 72
8
 73
4
 74
0
 40
0
 40
0
 40
0
 40
0
 40
1
 40
1
 40
1
 40
1
 10
1.876704
 20
2.306549
 30
0.0
 10
1.890748
 20
2.334852
 30
0.0
 10
1.908119
 20
2.361854
 30
0.0
 10
1.927782
 20
2.385992
 30
0.0
  0
SPLINE
  5
2b5
100
AcDbEntity
  8
broken-silk
 62
7
100
AcDbSpline
 70
8
 71
3
 72
8
 73
4
 74
0
 40
0
 40
0
 40
0
 40
0
 40
1
 40
1
 40
1
 40
1
 10
1.927782
 20
2.385992
 30
0.0
 10
1.948388
 20
2.411291
 30
0.0
 10
1.971511
 20
2.433441
 30
0.0
 10
1.995955
 20
2.450650
 30
0.0
  0
SPLINE
  5
2b6
100
AcDbEntity
  8
broken-silk
 62
7
100
AcDbSpline
 70
8
 71
3
 72
8
 73
4
 74
0
 40
0
 40
0
 40
0
 40
0
 40
1
 40
1
 40
1
 40
1
 10
1.995955
 20
2.450650
 30
0.0
 10
2.009956
 20
2.460508
 30
0.0
 10
2.025391
 20
2.469804
 30
0.0
 10
2.041842
 20
2.478324
 30
0.0
  0
SPLINE
  5
2b7
100
AcDbEntity
  8
broken-silk
 62
7
100
AcDbSpline
 70
8
 71
3
 72
8
 73
4
 74
0
 40
0
 40
0
 40
0
 40
0
 40
1
 40
1
 40
1
 40
1
 10
2.041842
 20
2.478324
 30
0.0
 10
2.057365
 20
2.486365
 30
0.0
 10
2.073794
 20
2.493711
 30
0.0
 10
2.090778
 20
2.500182
 30
0.0
  0
SPLINE
  5
2b8
100
AcDbEntity
  8
broken-silk
 62
7
100
AcDbSpline
 70
8
 71
3
 72
8
 73
4
 74
0
 40
0
 40
0
 40
0
 40
0
 40
1
 40
1
 40
1
 40
1
 10
2.090778
 20
2.500182
 30
0.0
 10
2.107419
 20
2.506521
 30
0.0
 10
2.124593
 20
2.512019
 30
0.0
 10
2.141972
 20
2.516498
 30
0.0
  0
SPLINE
  5
2b9
100
AcDbEntity
  8
broken-silk
 62
7
100
AcDbSpline
 70
8
 71
3
 72
8
 73
4
 74
0
 40
0
 40
0
 40
0
 40
0
 40
1
 40
1
 40
1
 40
1
 10
2.141972
 20
2.516498
 30
0.0
 10
2.159350
 20
2.520979
 30
0.0
 10
2.176934
 20
2.524442
 30
0.0
 10
2.194393
 20
2.526717
 30
0.0
  0
SPLINE
  5
2ba
100
AcDbEntity
  8
broken-silk
 62
7
100
AcDbSpline
 70
8
 71
3
 72
8
 73
4
 74
0
 40
0
 40
0
 40
0
 40
0
 40
1
 40
1
 40
1
 40
1
 10
2.194393
 20
2.526717
 30
0.0
 10
2.210899
 20
2.528862
 30
0.0
 10
2.227206
 20
2.529960
 30
0.0
 10
2.243101
 20
2.529940
 30
0.0
  0
SPLINE
  5
2bb
100
AcDbEntity
  8
broken-silk
 62
7
100
AcDbSpline
 70
8
 71
3
 72
8
 73
4
 74
0
 40
0
 40
0
 40
0
 40
0
 40
1
 40
1
 40
1
 40
1
 10
2.243101
 20
2.529940
 30
0.0
 10
2.259686
 20
2.529918
 30
0.0
 10
2.275823
 20
2.528670
 30
0.0
 10
2.291273
 20
2.526169
 30
0.0
  0
SPLINE
  5
2bc
100
AcDbEntity
  8
broken-silk
 62
7
100
AcDbSpline
 70
8
 71
3
 72
8
 73
4
 74
0
 40
0
 40
0
 40
0
 40
0
 40
1
 40
1
 40
1
 40
1
 10
2.291273
 20
2.526169
 30
0.0
 10
2.307736
 20
2.523488
 30
0.0
 10
2.323419
 20
2.519362
 30
0.0
 10
2.338031
 20
2.513704
 30
0.0
  0
SPLINE
  5
2bd
100
AcDbEntity
  8
broken-silk
 62
7
100
AcDbSpline
 70
8
 71
3
 72
8
 73
4
 74
0
 40
0
 40
0
 40
0
 40
0
 40
1
 40
1
 40
1
 40
1
 10
2.338031
 20
2.513704
 30
0.0
 10
2.353585
 20
2.507678
 30
0.0
 10
2.367926
 20
2.499923
 30
0.0
 10
2.380704
 20
2.490336
 30
0.0
  0
SPLINE
  5
2be
100
AcDbEntity
  8
broken-silk
 62
7
100
AcDbSpline
 70
8
 71
3
 72
8
 73
4
 74
0
 40
0
 40
0
 40
0
 40
0
 40
1
 40
1
 40
1
 40
1
 10
2.380704
 20
2.490336
 30
0.0
 10
2.397422
 20
2.477791
 30
0.0
 10
2.412665
 20
2.462599
 30
0.0
 10
2.426324
 20
2.445294
 30
0.0
  0
SPLINE
  5
2bf
100
AcDbEntity
  8
broken-silk
 62
7
100
AcDbSpline
 70
8
 71
3
 72
8
 73
4
 74
0
 40
0
 40
0
 40
0
 40
0
 40
1
 40
1
 40
1
 40
1
 10
2.426324
 20
2.445294
 30
0.0
 10
2.439266
 20
2.428897
 30
0.0
 10
2.450785
 20
2.410606
 30
0.0
 10
2.460791
 20
2.390875
 30
0.0
  0
SPLINE
  5
2c0
100
AcDbEntity
  8
broken-silk
 62
7
100
AcDbSpline
 70
8
 71
3
 72
8
 73
4
 74
0
 40
0
 40
0
 40
0
 40
0
 40
1
 40
1
 40
1
 40
1
 10
2.460791
 20
2.390875
 30
0.0
 10
2.470243
 20
2.372234
 30
0.0
 10
2.478344
 20
2.352310
 30
0.0
 10
2.485016
 20
2.331485
 30
0.0
  0
SPLINE
  5
2c1
100
AcDbEntity
  8
broken-silk
 62
7
100
AcDbSpline
 70
8
 71
3
 72
8
 73
4
 74
0
 40
0
 40
0
 40
0
 40
0
 40
1
 40
1
 40
1
 40
1
 10
2.485016
 20
2.331485
 30
0.0
 10
2.491483
 20
2.311300
 30
0.0
 10
2.496607
 20
2.290271
 30
0.0
 10
2.500317
 20
2.268747
 30
0.0
  0
SPLINE
  5
2c2
100
AcDbEntity
  8
broken-silk
 62
7
100
AcDbSpline
 70
8
 71
3
 72
8
 73
4
 74
0
 40
0
 40
0
 40
0
 40
0
 40
1
 40
1
 40
1
 40
1
 10
2.500317
 20
2.268747
 30
0.0
 10
2.504130
 20
2.246632
 30
0.0
 10
2.506417
 20
2.224064
 30
0.0
 10
2.507237
 20
2.201504
 30
0.0
  0
SPLINE
  5
2c3
100
AcDbEntity
  8
broken-silk
 62
7
100
AcDbSpline
 70
8
 71
3
 72
8
 73
4
 74
0
 40
0
 40
0
 40
0
 40
0
 40
1
 40
1
 40
1
 40
1
 10
2.507237
 20
2.201504
 30
0.0
 10
2.508066
 20
2.178650
 30
0.0
 10
2.507390
 20
2.155808
 30
0.0
 10
2.505267
 20
2.133460
 30
0.0
  0
SPLINE
  5
2c4
100
AcDbEntity
  8
broken-silk
 62
7
100
AcDbSpline
 70
8
 71
3
 72
8
 73
4
 74
0
 40
0
 40
0
 40
0
 40
0
 40
1
 40
1
 40
1
 40
1
 10
2.505267
 20
2.133460
 30
0.0
 10
2.503082
 20
2.110490
 30
0.0
 10
2.499371
 20
2.088044
 30
0.0
 10
2.494194
 20
2.066646
 30
0.0
  0
SPLINE
  5
2c5
100
AcDbEntity
  8
broken-silk
 62
7
100
AcDbSpline
 70
8
 71
3
 72
8
 73
4
 74
0
 40
0
 40
0
 40
0
 40
0
 40
1
 40
1
 40
1
 40
1
 10
2.494194
 20
2.066646
 30
0.0
 10
2.488683
 20
2.043867
 30
0.0
 10
2.481511
 20
2.022277
 30
0.0
 10
2.472758
 20
2.002510
 30
0.0
  0
SPLINE
  5
2c6
100
AcDbEntity
  8
broken-silk
 62
7
100
AcDbSpline
 70
8
 71
3
 72
8
 73
4
 74
0
 40
0
 40
0
 40
0
 40
0
 40
1
 40
1
 40
1
 40
1
 10
2.472758
 20
2.002510
 30
0.0
 10
2.463429
 20
1.981445
 30
0.0
 10
2.451610
 20
1.960597
 30
0.0
 10
2.437706
 20
1.940356
 30
0.0
  0
SPLINE
  5
2c7
100
AcDbEntity
  8
broken-silk
 62
7
100
AcDbSpline
 70
8
 71
3
 72
8
 73
4
 74
0
 40
0
 40
0
 40
0
 40
0
 40
1
 40
1
 40
1
 40
1
 10
2.437706
 20
1.940356
 30
0.0
 10
2.424567
 20
1.921229
 30
0.0
 10
2.409567
 20
1.902643
 30
0.0
 10
2.393046
 20
1.884932
 30
0.0
  0
SPLINE
  5
2c8
100
AcDbEntity
  8
broken-silk
 62
7
100
AcDbSpline
 70
8
 71
3
 72
8
 73
4
 74
0
 40
0
 40
0
 40
0
 40
0
 40
1
 40
1
 40
1
 40
1
 10
2.393046
 20
1.884932
 30
0.0
 10
2.377015
 20
1.867745
 30
0.0
 10
2.359553
 20
1.851382
 30
0.0
 10
2.340972
 20
1.836144
 30
0.0
  0
SPLINE
  5
2c9
100
AcDbEntity
  8
broken-silk
 62
7
100
AcDbSpline
 70
8
 71
3
 72
8
 73
4
 74
0
 40
0
 40
0
 40
0
 40
0
 40
1
 40
1
 40
1
 40
1
 10
2.340972
 20
1.836144
 30
0.0
 10
2.322679
 20
1.821141
 30
0.0
 10
2.303302
 20
1.807232
 30
0.0
 10
2.283139
 20
1.794702
 30
0.0
  0
SPLINE
  5
2ca
100
AcDbEntity
  8
broken-silk
 62
7
100
AcDbSpline
 70
8
 71
3
 72
8
 73
4
 74
0
 40
0
 40
0
 40
0
 40
0
 40
1
 40
1
 40
1
 40
1
 10
2.283139
 20
1.794702
 30
0.0
 10
2.263433
 20
1.782456
 30
0.0
 10
2.243055
 20
1.771608
 30
0.0
 10
2.222321
 20
1.762314
 30
0.0
  0
SPLINE
  5
2cb
100
AcDbEntity
  8
broken-silk
 62
7
100
AcDbSpline
 70
8
 71
3
 72
8
 73
4
 74
0
 40
0
 40
0
 40
0
 40
0
 40
1
 40
1
 40
1
 40
1
 10
2.222321
 20
1.762314
 30
0.0
 10
2.200990
 20
1.752756
 30
0.0
 10
2.179282
 20
1.744842
 30
0.0
 10
2.157539
 20
1.738752
 30
0.0
  0
SPLINE
  5
2cc
100
AcDbEntity
  8
broken-silk
 62
7
100
AcDbSpline
 70
8
 71
3
 72
8
 73
4
 74
0
 40
0
 40
0
 40
0
 40
0
 40
1
 40
1
 40
1
 40
1
 10
2.157539
 20
1.738752
 30
0.0
 10
2.134807
 20
1.732382
 30
0.0
 10
2.112037
 20
1.728005
 30
0.0
 10
2.089621
 20
1.725812
 30
0.0
  0
SPLINE
  5
2cd
100
AcDbEntity
  8
broken-silk
 62
7
100
AcDbSpline
 70
8
 71
3
 72
8
 73
4
 74
0
 40
0
 40
0
 40
0
 40
0
 40
1
 40
1
 40
1
 40
1
 10
2.089621
 20
1.725812
 30
0.0
 10
2.066129
 20
1.723526
 30
0.0
 10
2.043025
 20
1.723610
 30
0.0
 10
2.020761
 20
1.726348
 30
0.0
  0
SPLINE
  5
2ce
100
AcDbEntity
  8
broken-silk
 62
7
100
AcDbSpline
 70
8
 71
3
 72
8
 73
4
 74
0
 40
0
 40
0
 40
0
 40
0
 40
1
 40
1
 40
1
 40
1
 10
2.020761
 20
1.726348
 30
0.0
 10
1.967958
 20
1.741162
 30
0.0
 10
1.919735
 20
1.760405
 30
0.0
 10
1.875705
 20
1.783565
 30
0.0
  0
SPLINE
  5
2cf
100
AcDbEntity
  8
broken-silk
 62
7
100
AcDbSpline
 70
8
 71
3
 72
8
 73
4
 74
0
 40
0
 40
0
 40
0
 40
0
 40
1
 40
1
 40
1
 40
1
 10
1.875705
 20
1.783565
 30
0.0
 10
1.828123
 20
1.808592
 30
0.0
 10
1.785437
 20
1.838196
 30
0.0
 10
1.747159
 20
1.871727
 30
0.0
  0
SPLINE
  5
2d0
100
AcDbEntity
  8
broken-silk
 62
7
100
AcDbSpline
 70
8
 71
3
 72
8
 73
4
 74
0
 40
0
 40
0
 40
0
 40
0
 40
1
 40
1
 40
1
 40
1
 10
1.747159
 20
1.871727
 30
0.0
 10
1.707663
 20
1.906324
 30
0.0
 10
1.672859
 20
1.945104
 30
0.0
 10
1.642209
 20
1.987357
 30
0.0
  0
SPLINE
  5
2d1
100
AcDbEntity
  8
broken-silk
 62
7
100
AcDbSpline
 70
8
 71
3
 72
8
 73
4
 74
0
 40
0
 40
0
 40
0
 40
0
 40
1
 40
1
 40
1
 40
1
 10
1.642209
 20
1.987357
 30
0.0
 10
1.612035
 20
2.028954
 30
0.0
 10
1.585887
 20
2.073917
 30
0.0
 10
1.563252
 20
2.121569
 30
0.0
  0
SPLINE
  5
2d2
100
AcDbEntity
  8
broken-silk
 62
7
100
AcDbSpline
 70
8
 71
3
 72
8
 73
4
 74
0
 40
0
 40
0
 40
0
 40
0
 40
1
 40
1
 40
1
 40
1
 10
1.563252
 20
2.121569
 30
0.0
 10
1.540401
 20
2.169677
 30
0.0
 10
1.521268
 20
2.220500
 30
0.0
 10
1.505428
 20
2.273146
 30
0.0
  0
SPLINE
  5
2d3
100
AcDbEntity
  8
broken-silk
 62
7
100
AcDbSpline
 70
8
 71
3
 72
8
 73
4
 74
0
 40
0
 40
0
 40
0
 40
0
 40
1
 40
1
 40
1
 40
1
 10
1.505428
 20
2.273146
 30
0.0
 10
1.490031
 20
2.324320
 30
0.0
 10
1.477745
 20
2.377218
 30
0.0
 10
1.468180
 20
2.431020
 30
0.0
  0
SPLINE
  5
2d4
100
AcDbEntity
  8
broken-silk
 62
7
100
AcDbSpline
 70
8
 71
3
 72
8
 73
4
 74
0
 40
0
 40
0
 40
0
 40
0
 40
1
 40
1
 40
1
 40
1
 10
1.468180
 20
2.431020
 30
0.0
 10
1.458744
 20
2.484092
 30
0.0
 10
1.451956
 20
2.538045
 30
0.0
 10
1.447440
 20
2.592093
 30
0.0
  0
SPLINE
  5
2d5
100
AcDbEntity
  8
broken-silk
 62
7
100
AcDbSpline
 70
8
 71
3
 72
8
 73
4
 74
0
 40
0
 40
0
 40
0
 40
0
 40
1
 40
1
 40
1
 40
1
 10
1.447440
 20
2.592093
 30
0.0
 10
1.442907
 20
2.646353
 30
0.0
 10
1.440664
 20
2.700708
 30
0.0
 10
1.440331
 20
2.754364
 30
0.0
  0
LWPOLYLINE
  5
2d6
100
AcDbEntity
  8
broken-silk
 62
7
100
AcDbPolyline
 90
65
 70
0
 10
4.856394
 20
1.401183
 30
0.0
 10
4.830649
 20
1.399461
 30
0.0
 10
4.805176
 20
1.397768
 30
0.0
 10
4.779996
 20
1.396103
 30
0.0
 10
4.754370
 20
1.394381
 30
0.0
 10
4.748415
 20
1.355999
 30
0.0
 10
4.742455
 20
1.317568
 30
0.0
 10
4.736489
 20
1.279103
 30
0.0
 10
4.730531
 20
1.240706
 30
0.0
 10
4.730079
 20
1.208714
 30
0.0
 10
4.729628
 20
1.176682
 30
0.0
 10
4.729176
 20
1.144620
 30
0.0
 10
4.728725
 20
1.112616
 30
0.0
 10
4.770000
 20
1.115932
 30
0.0
 10
4.811328
 20
1.119254
 30
0.0
 10
4.852693
 20
1.122579
 30
0.0
 10
4.893983
 20
1.125898
 30
0.0
 10
4.901993
 20
1.135623
 30
0.0
 10
4.899707
 20
1.148614
 30
0.0
 10
4.894226
 20
1.160727
 30
0.0
 10
4.888130
 20
1.172538
 30
0.0
 10
4.862843
 20
1.170506
 30
0.0
 10
4.837824
 20
1.168474
 30
0.0
 10
4.813093
 20
1.166470
 30
0.0
 10
4.787924
 20
1.164438
 30
0.0
 10
4.788181
 20
1.182867
 30
0.0
 10
4.788434
 20
1.201101
 30
0.0
 10
4.788685
 20
1.219127
 30
0.0
 10
4.788940
 20
1.237471
 30
0.0
 10
4.789137
 20
1.238741
 30
0.0
 10
4.789344
 20
1.240096
 30
0.0
 10
4.789580
 20
1.241620
 30
0.0
 10
4.789787
 20
1.242975
 30
0.0
 10
4.808038
 20
1.243224
 30
0.0
 10
4.826095
 20
1.243471
 30
0.0
 10
4.843945
 20
1.243714
 30
0.0
 10
4.862112
 20
1.243962
 30
0.0
 10
4.871346
 20
1.253502
 30
0.0
 10
4.872983
 20
1.266365
 30
0.0
 10
4.867581
 20
1.279029
 30
0.0
 10
4.861093
 20
1.290924
 30
0.0
 10
4.844933
 20
1.290675
 30
0.0
 10
4.828942
 20
1.290428
 30
0.0
 10
4.813135
 20
1.290185
 30
0.0
 10
4.797049
 20
1.289936
 30
0.0
 10
4.799447
 20
1.305301
 30
0.0
 10
4.801818
 20
1.320504
 30
0.0
 10
4.804161
 20
1.335532
 30
0.0
 10
4.806531
 20
1.350826
 30
0.0
 10
4.817236
 20
1.351531
 30
0.0
 10
4.827828
 20
1.352209
 30
0.0
 10
4.838298
 20
1.352886
 30
0.0
 10
4.848955
 20
1.353592
 30
0.0
 10
4.857162
 20
1.351306
 30
0.0
 10
4.865027
 20
1.349104
 30
0.0
 10
4.873164
 20
1.346847
 30
0.0
 10
4.881481
 20
1.344532
 30
0.0
 10
4.891082
 20
1.352976
 30
0.0
 10
4.898747
 20
1.363165
 30
0.0
 10
4.902120
 20
1.375794
 30
0.0
 10
4.900681
 20
1.388901
 30
0.0
 10
4.889505
 20
1.392002
 30
0.0
 10
4.878447
 20
1.395073
 30
0.0
 10
4.867517
 20
1.398107
 30
0.0
 10
4.856391
 20
1.401194
 30
0.0
  0
LWPOLYLINE
  5
2d7
100
AcDbEntity
  8
broken-silk
 62
7
100
AcDbPolyline
 90
5
 70
0
 10
1.440331
 20
2.754364
 30
0.0
 10
1.440330
 20
2.754403
 30
0.0
 10
1.440330
 20
2.754403
 30
0.0
 10
1.440330
 20
2.754403
 30
0.0
 10
1.440330
 20
2.754403
 30
0.0
  0
ENDSEC
  0
SECTION
  2
OBJECTS
  0
DICTIONARY
  5
C
330
0
100
AcDbDictionary
  3
ACAD_GROUP
350
D
  3
ACAD_MLINESTYLE
350
17
  0
DICTIONARY
  5
D
330
C
100
AcDbDictionary
  0
DICTIONARY
  5
1A
330
C
100
AcDbDictionary
  0
DICTIONARY
  5
17
330
C
100
AcDbDictionary
  3
STANDARD
350
18
  0
DICTIONARY
  5
19
330
C
100
AcDbDictionary
  0
ENDSEC
  0
EOF
