  0
SECTION
  2
HEADER
  9
$ACADVER
  1
AC1014
  9
$HANDSEED
  5
FFFF
  9
$MEASUREMENT
 70
     1
  0
ENDSEC
  0
SECTION
  2
TABLES
  0
TABLE
  2
VPORT
  5
8
330
0
100
AcDbSymbolTable
 70
     4
  0
VPORT
  5
2E
330
8
100
AcDbSymbolTableRecord
100
AcDbViewportTableRecord
  2
*ACTIVE
 70
     0
 10
0.0
 20
0.0
 11
1.0
 21
1.0
 12
210.0
 22
148.5
 13
0.0
 23
0.0
 14
10.0
 24
10.0
 15
10.0
 25
10.0
 16
0.0
 26
0.0
 36
1.0
 17
0.0
 27
0.0
 37
0.0
 40
341.0
 41
1.24
 42
50.0
 43
0.0
 44
0.0
 50
0.0
 51
0.0
 71
     0
 72
   100
 73
     1
 74
     3
 75
     0
 76
     0
 77
     0
 78
     0
  0
ENDTAB
  0
TABLE
  2
LTYPE
  5
5
330
0
100
AcDbSymbolTable
 70
     1
  0
LTYPE
  5
14
330
5
100
AcDbSymbolTableRecord
100
AcDbLinetypeTableRecord
  2
BYBLOCK
 70
     0
  3

 72
    65
 73
     0
 40
0.0
  0
LTYPE
  5
15
330
5
100
AcDbSymbolTableRecord
100
AcDbLinetypeTableRecord
  2
BYLAYER
 70
     0
  3

 72
    65
 73
     0
 40
0.0
  0
LTYPE
  5
16
330
5
100
AcDbSymbolTableRecord
100
AcDbLinetypeTableRecord
  2
CONTINUOUS
 70
     0
  3
Solid line
 72
    65
 73
     0
 40
0.0
  0
ENDTAB
  0
TABLE
  2
LAYER
  5
2
100
AcDbSymbolTable
 70
2
  0
LAYER
  5
50
100
AcDbSymbolTableRecord
100
AcDbLayerTableRecord
  2
0
 70
0
  6
CONTINUOUS
  0
LAYER
  5
51
100
AcDbSymbolTableRecord
100
AcDbLayerTableRecord
  2
Layer_1
 70
0
  6
CONTINUOUS
  0
ENDTAB
  0
TABLE
  2
STYLE
  5
3
330
0
100
AcDbSymbolTable
 70
     1
  0
STYLE
  5
11
330
3
100
AcDbSymbolTableRecord
100
AcDbTextStyleTableRecord
  2
STANDARD
 70
     0
 40
0.0
 41
1.0
 50
0.0
 71
     0
 42
2.5
  3
txt
  4

  0
ENDTAB
  0
TABLE
  2
VIEW
  5
6
330
0
100
AcDbSymbolTable
 70
     0
  0
ENDTAB
  0
TABLE
  2
UCS
  5
7
330
0
100
AcDbSymbolTable
 70
     0
  0
ENDTAB
  0
TABLE
  2
APPID
  5
9
330
0
100
AcDbSymbolTable
 70
     2
  0
APPID
  5
12
330
9
100
AcDbSymbolTableRecord
100
AcDbRegAppTableRecord
  2
ACAD
 70
     0
  0
ENDTAB
  0
TABLE
  2
DIMSTYLE
  5
A
330
0
100
AcDbSymbolTable
 70
     1
  0
DIMSTYLE
105
27
330
A
100
AcDbSymbolTableRecord
100
AcDbDimStyleTableRecord
  2
ISO-25
 70
     0
  3

  4

  5

  6

  7

 40
1.0
 41
2.5
 42
0.625
 43
3.75
 44
1.25
 45
0.0
 46
0.0
 47
0.0
 48
0.0
140
2.5
141
2.5
142
0.0
143
0.03937007874016
144
1.0
145
0.0
146
1.0
147
0.625
 71
     0
 72
     0
 73
     0
 74
     0
 75
     0
 76
     0
 77
     1
 78
     8
170
     0
171
     3
172
     1
173
     0
174
     0
175
     0
176
     0
177
     0
178
     0
270
     2
271
     2
272
     2
273
     2
274
     3
340
11
275
     0
280
     0
281
     0
282
     0
283
     0
284
     8
285
     0
286
     0
287
     3
288
     0
  0
ENDTAB
  0
TABLE
  2
BLOCK_RECORD
  5
1
330
0
100
AcDbSymbolTable
 70
     1
  0
BLOCK_RECORD
  5
1F
330
1
100
AcDbSymbolTableRecord
100
AcDbBlockTableRecord
  2
*MODEL_SPACE
  0
BLOCK_RECORD
  5
1B
330
1
100
AcDbSymbolTableRecord
100
AcDbBlockTableRecord
  2
*PAPER_SPACE
  0
ENDTAB
  0
ENDSEC
  0
SECTION
  2
BLOCKS
  0
BLOCK
  5
20
330
1F
100
AcDbEntity
  8
0
100
AcDbBlockBegin
  2
*MODEL_SPACE
 70
     0
 10
0.0
 20
0.0
 30
0.0
  3
*MODEL_SPACE
  1

  0
ENDBLK
  5
21
330
1F
100
AcDbEntity
  8
0
100
AcDbBlockEnd
  0
BLOCK
  5
1C
330
1B
100
AcDbEntity
 67
     1
  8
0
100
AcDbBlockBegin
  2
*PAPER_SPACE
  1

  0
ENDBLK
  5
1D
330
1B
100
AcDbEntity
 67
     1
  8
0
100
AcDbBlockEnd
  0
ENDSEC
  0
SECTION
  2
ENTITIES
  0
LWPOLYLINE
  5
100
100
AcDbEntity
  8
Layer_1
 62
7
100
AcDbPolyline
 90
4
 70
1
 10
65.281093
 20
132.846063
 30
0.0
 10
67.540474
 20
132.846063
 30
0.0
 10
67.540474
 20
133.813563
 30
0.0
 10
65.281093
 20
133.813563
 30
0.0
  0
LWPOLYLINE
  5
101
100
AcDbEntity
  8
Layer_1
 62
7
100
AcDbPolyline
 90
4
 70
1
 10
73.688251
 20
128.646836
 30
0.0
 10
75.960395
 20
128.646836
 30
0.0
 10
75.960395
 20
129.604959
 30
0.0
 10
73.688251
 20
129.604959
 30
0.0
  0
LWPOLYLINE
  5
102
100
AcDbEntity
  8
Layer_1
 62
7
100
AcDbPolyline
 90
4
 70
1
 10
69.487645
 20
132.846063
 30
0.0
 10
71.747026
 20
132.846063
 30
0.0
 10
71.747026
 20
133.813563
 30
0.0
 10
69.487645
 20
133.813563
 30
0.0
  0
LWPOLYLINE
  5
103
100
AcDbEntity
  8
Layer_1
 62
7
100
AcDbPolyline
 90
4
 70
1
 10
65.281093
 20
130.746871
 30
0.0
 10
67.540474
 20
130.746871
 30
0.0
 10
67.540474
 20
131.714371
 30
0.0
 10
65.281093
 20
131.714371
 30
0.0
  0
LWPOLYLINE
  5
104
100
AcDbEntity
  8
Layer_1
 62
7
100
AcDbPolyline
 90
4
 70
1
 10
69.487645
 20
130.746871
 30
0.0
 10
71.747026
 20
130.746871
 30
0.0
 10
71.747026
 20
131.714371
 30
0.0
 10
69.487645
 20
131.714371
 30
0.0
  0
SPLINE
  5
105
100
AcDbEntity
  8
Layer_1
 62
7
100
AcDbSpline
 70
8
 71
3
 72
8
 73
4
 74
0
 40
0
 40
0
 40
0
 40
0
 40
1
 40
1
 40
1
 40
1
 10
61.570934
 20
131.698098
 30
0.0
 10
61.269446
 20
131.681628
 30
0.0
 10
61.104452
 20
130.757720
 30
0.0
 10
61.104452
 20
130.757720
 30
0.0
  0
LWPOLYLINE
  5
106
100
AcDbEntity
  8
Layer_1
 62
7
100
AcDbPolyline
 90
4
 70
0
 10
61.104451
 20
130.757720
 30
0.0
 10
63.320439
 20
130.757720
 30
0.0
 10
63.320439
 20
131.698098
 30
0.0
 10
61.570934
 20
131.698098
 30
0.0
  0
LWPOLYLINE
  5
107
100
AcDbEntity
  8
Layer_1
 62
7
100
AcDbPolyline
 90
1
 70
1
 10
61.104452
 20
130.757720
 30
0.0
  0
SPLINE
  5
108
100
AcDbEntity
  8
Layer_1
 62
7
100
AcDbSpline
 70
8
 71
3
 72
8
 73
4
 74
0
 40
0
 40
0
 40
0
 40
0
 40
1
 40
1
 40
1
 40
1
 10
75.910187
 20
130.746871
 30
0.0
 10
75.818263
 20
130.920224
 30
0.0
 10
75.275668
 20
131.627338
 30
0.0
 10
75.011060
 20
131.714371
 30
0.0
  0
LWPOLYLINE
  5
109
100
AcDbEntity
  8
Layer_1
 62
7
100
AcDbPolyline
 90
2
 70
0
 10
73.696832
 20
130.746871
 30
0.0
 10
75.910187
 20
130.746871
 30
0.0
  0
LWPOLYLINE
  5
10a
100
AcDbEntity
  8
Layer_1
 62
7
100
AcDbPolyline
 90
3
 70
0
 10
75.011060
 20
131.714371
 30
0.0
 10
73.696832
 20
131.714371
 30
0.0
 10
73.696832
 20
130.746871
 30
0.0
  0
LWPOLYLINE
  5
10b
100
AcDbEntity
  8
Layer_1
 62
7
100
AcDbPolyline
 90
4
 70
1
 10
69.474029
 20
128.646836
 30
0.0
 10
71.746172
 20
128.646836
 30
0.0
 10
71.746172
 20
129.604959
 30
0.0
 10
69.474029
 20
129.604959
 30
0.0
  0
LWPOLYLINE
  5
10c
100
AcDbEntity
  8
Layer_1
 62
7
100
AcDbPolyline
 90
4
 70
1
 10
65.274712
 20
128.646836
 30
0.0
 10
67.546855
 20
128.646836
 30
0.0
 10
67.546855
 20
129.604959
 30
0.0
 10
65.274712
 20
129.604959
 30
0.0
  0
LWPOLYLINE
  5
10d
100
AcDbEntity
  8
Layer_1
 62
7
100
AcDbPolyline
 90
4
 70
1
 10
61.078979
 20
128.646836
 30
0.0
 10
63.351123
 20
128.646836
 30
0.0
 10
63.351123
 20
129.604959
 30
0.0
 10
61.078979
 20
129.604959
 30
0.0
  0
LWPOLYLINE
  5
10e
100
AcDbEntity
  8
Layer_1
 62
7
100
AcDbPolyline
 90
4
 70
1
 10
73.688251
 20
126.551297
 30
0.0
 10
75.960395
 20
126.551297
 30
0.0
 10
75.960395
 20
127.509421
 30
0.0
 10
73.688251
 20
127.509421
 30
0.0
  0
LWPOLYLINE
  5
10f
100
AcDbEntity
  8
Layer_1
 62
7
100
AcDbPolyline
 90
4
 70
1
 10
69.474029
 20
126.551297
 30
0.0
 10
71.746172
 20
126.551297
 30
0.0
 10
71.746172
 20
127.509421
 30
0.0
 10
69.474029
 20
127.509421
 30
0.0
  0
LWPOLYLINE
  5
110
100
AcDbEntity
  8
Layer_1
 62
7
100
AcDbPolyline
 90
4
 70
1
 10
65.274712
 20
126.551297
 30
0.0
 10
67.546855
 20
126.551297
 30
0.0
 10
67.546855
 20
127.509421
 30
0.0
 10
65.274712
 20
127.509421
 30
0.0
  0
LWPOLYLINE
  5
111
100
AcDbEntity
  8
Layer_1
 62
7
100
AcDbPolyline
 90
4
 70
1
 10
61.078979
 20
126.551297
 30
0.0
 10
63.351123
 20
126.551297
 30
0.0
 10
63.351123
 20
127.509421
 30
0.0
 10
61.078979
 20
127.509421
 30
0.0
  0
LWPOLYLINE
  5
112
100
AcDbEntity
  8
Layer_1
 62
7
100
AcDbPolyline
 90
4
 70
1
 10
73.688251
 20
124.444185
 30
0.0
 10
75.960395
 20
124.444185
 30
0.0
 10
75.960395
 20
125.402309
 30
0.0
 10
73.688251
 20
125.402309
 30
0.0
  0
LWPOLYLINE
  5
113
100
AcDbEntity
  8
Layer_1
 62
7
100
AcDbPolyline
 90
4
 70
1
 10
69.474029
 20
124.444185
 30
0.0
 10
71.746172
 20
124.444185
 30
0.0
 10
71.746172
 20
125.402309
 30
0.0
 10
69.474029
 20
125.402309
 30
0.0
  0
LWPOLYLINE
  5
114
100
AcDbEntity
  8
Layer_1
 62
7
100
AcDbPolyline
 90
4
 70
1
 10
65.274712
 20
124.444185
 30
0.0
 10
67.546855
 20
124.444185
 30
0.0
 10
67.546855
 20
125.402309
 30
0.0
 10
65.274712
 20
125.402309
 30
0.0
  0
LWPOLYLINE
  5
115
100
AcDbEntity
  8
Layer_1
 62
7
100
AcDbPolyline
 90
4
 70
1
 10
61.078979
 20
124.444185
 30
0.0
 10
63.351123
 20
124.444185
 30
0.0
 10
63.351123
 20
125.402309
 30
0.0
 10
61.078979
 20
125.402309
 30
0.0
  0
LWPOLYLINE
  5
116
100
AcDbEntity
  8
Layer_1
 62
7
100
AcDbPolyline
 90
4
 70
1
 10
73.688251
 20
122.354432
 30
0.0
 10
75.960395
 20
122.354432
 30
0.0
 10
75.960395
 20
123.312555
 30
0.0
 10
73.688251
 20
123.312555
 30
0.0
  0
LWPOLYLINE
  5
117
100
AcDbEntity
  8
Layer_1
 62
7
100
AcDbPolyline
 90
4
 70
1
 10
69.474029
 20
122.354432
 30
0.0
 10
71.746172
 20
122.354432
 30
0.0
 10
71.746172
 20
123.312555
 30
0.0
 10
69.474029
 20
123.312555
 30
0.0
  0
LWPOLYLINE
  5
118
100
AcDbEntity
  8
Layer_1
 62
7
100
AcDbPolyline
 90
4
 70
1
 10
65.274712
 20
122.354432
 30
0.0
 10
67.546855
 20
122.354432
 30
0.0
 10
67.546855
 20
123.312555
 30
0.0
 10
65.274712
 20
123.312555
 30
0.0
  0
LWPOLYLINE
  5
119
100
AcDbEntity
  8
Layer_1
 62
7
100
AcDbPolyline
 90
4
 70
1
 10
61.078979
 20
122.354432
 30
0.0
 10
63.351123
 20
122.354432
 30
0.0
 10
63.351123
 20
123.312555
 30
0.0
 10
61.078979
 20
123.312555
 30
0.0
  0
LWPOLYLINE
  5
11a
100
AcDbEntity
  8
Layer_1
 62
7
100
AcDbPolyline
 90
4
 70
1
 10
73.688251
 20
120.249336
 30
0.0
 10
75.960395
 20
120.249336
 30
0.0
 10
75.960395
 20
121.207460
 30
0.0
 10
73.688251
 20
121.207460
 30
0.0
  0
LWPOLYLINE
  5
11b
100
AcDbEntity
  8
Layer_1
 62
7
100
AcDbPolyline
 90
4
 70
1
 10
69.474029
 20
120.249336
 30
0.0
 10
71.746172
 20
120.249336
 30
0.0
 10
71.746172
 20
121.207460
 30
0.0
 10
69.474029
 20
121.207460
 30
0.0
  0
LWPOLYLINE
  5
11c
100
AcDbEntity
  8
Layer_1
 62
7
100
AcDbPolyline
 90
4
 70
1
 10
65.274712
 20
120.249336
 30
0.0
 10
67.546855
 20
120.249336
 30
0.0
 10
67.546855
 20
121.207460
 30
0.0
 10
65.274712
 20
121.207460
 30
0.0
  0
LWPOLYLINE
  5
11d
100
AcDbEntity
  8
Layer_1
 62
7
100
AcDbPolyline
 90
4
 70
1
 10
61.078979
 20
120.249336
 30
0.0
 10
63.351123
 20
120.249336
 30
0.0
 10
63.351123
 20
121.207460
 30
0.0
 10
61.078979
 20
121.207460
 30
0.0
  0
SPLINE
  5
11e
100
AcDbEntity
  8
Layer_1
 62
7
100
AcDbSpline
 70
8
 71
3
 72
8
 73
4
 74
0
 40
0
 40
0
 40
0
 40
0
 40
1
 40
1
 40
1
 40
1
 10
75.098306
 20
118.142224
 30
0.0
 10
75.575174
 20
118.532114
 30
0.0
 10
75.741507
 20
118.797245
 30
0.0
 10
75.938698
 20
119.100347
 30
0.0
  0
LWPOLYLINE
  5
11f
100
AcDbEntity
  8
Layer_1
 62
7
100
AcDbPolyline
 90
2
 70
0
 10
73.688251
 20
118.142224
 30
0.0
 10
75.098306
 20
118.142224
 30
0.0
  0
LWPOLYLINE
  5
120
100
AcDbEntity
  8
Layer_1
 62
7
100
AcDbPolyline
 90
3
 70
0
 10
75.938698
 20
119.100347
 30
0.0
 10
73.688251
 20
119.100347
 30
0.0
 10
73.688251
 20
118.142224
 30
0.0
  0
LWPOLYLINE
  5
121
100
AcDbEntity
  8
Layer_1
 62
7
100
AcDbPolyline
 90
4
 70
1
 10
69.474029
 20
118.142224
 30
0.0
 10
71.746172
 20
118.142224
 30
0.0
 10
71.746172
 20
119.100347
 30
0.0
 10
69.474029
 20
119.100347
 30
0.0
  0
LWPOLYLINE
  5
122
100
AcDbEntity
  8
Layer_1
 62
7
100
AcDbPolyline
 90
4
 70
1
 10
65.274712
 20
118.142224
 30
0.0
 10
67.546855
 20
118.142224
 30
0.0
 10
67.546855
 20
119.100347
 30
0.0
 10
65.274712
 20
119.100347
 30
0.0
  0
LWPOLYLINE
  5
123
100
AcDbEntity
  8
Layer_1
 62
7
100
AcDbPolyline
 90
4
 70
1
 10
61.106100
 20
118.142224
 30
0.0
 10
63.351123
 20
118.142224
 30
0.0
 10
63.351123
 20
119.100347
 30
0.0
 10
61.106100
 20
119.100347
 30
0.0
  0
LWPOLYLINE
  5
124
100
AcDbEntity
  8
Layer_1
 62
7
100
AcDbPolyline
 90
4
 70
1
 10
69.474029
 20
116.086398
 30
0.0
 10
71.746172
 20
116.086398
 30
0.0
 10
71.746172
 20
117.044522
 30
0.0
 10
69.474029
 20
117.044522
 30
0.0
  0
SPLINE
  5
125
100
AcDbEntity
  8
Layer_1
 62
7
100
AcDbSpline
 70
8
 71
3
 72
8
 73
4
 74
0
 40
0
 40
0
 40
0
 40
0
 40
1
 40
1
 40
1
 40
1
 10
88.453403
 20
115.615238
 30
0.0
 10
88.432478
 20
115.612988
 30
0.0
 10
88.416728
 20
115.595137
 30
0.0
 10
88.416953
 20
115.574138
 30
0.0
  0
LWPOLYLINE
  5
126
100
AcDbEntity
  8
Layer_1
 62
7
100
AcDbPolyline
 90
4
 70
1
 10
65.274712
 20
116.086398
 30
0.0
 10
67.546855
 20
116.086398
 30
0.0
 10
67.546855
 20
117.044522
 30
0.0
 10
65.274712
 20
117.044522
 30
0.0
  0
SPLINE
  5
127
100
AcDbEntity
  8
Layer_1
 62
7
100
AcDbSpline
 70
8
 71
3
 72
8
 73
4
 74
0
 40
0
 40
0
 40
0
 40
0
 40
1
 40
1
 40
1
 40
1
 10
89.213295
 20
115.574138
 30
0.0
 10
89.213370
 20
115.596863
 30
0.0
 10
89.194920
 20
115.615313
 30
0.0
 10
89.172195
 20
115.615238
 30
0.0
  0
LWPOLYLINE
  5
128
100
AcDbEntity
  8
Layer_1
 62
7
100
AcDbPolyline
 90
8
 70
0
 10
88.416953
 20
115.574138
 30
0.0
 10
88.416953
 20
115.327050
 30
0.0
 10
87.909083
 20
115.327050
 30
0.0
 10
87.909083
 20
114.485835
 30
0.0
 10
89.214045
 20
114.485835
 30
0.0
 10
89.214045
 20
115.231140
 30
0.0
 10
89.213295
 20
115.231140
 30
0.0
 10
89.213295
 20
115.574138
 30
0.0
  0
SPLINE
  5
129
100
AcDbEntity
  8
Layer_1
 62
7
100
AcDbSpline
 70
8
 71
3
 72
8
 73
4
 74
0
 40
0
 40
0
 40
0
 40
0
 40
1
 40
1
 40
1
 40
1
 10
88.457662
 20
115.615238
 30
0.0
 10
88.456163
 20
115.615313
 30
0.0
 10
88.454662
 20
115.615313
 30
0.0
 10
88.453163
 20
115.615238
 30
0.0
  0
LWPOLYLINE
  5
12a
100
AcDbEntity
  8
Layer_1
 62
7
100
AcDbPolyline
 90
2
 70
0
 10
89.172195
 20
115.615238
 30
0.0
 10
88.457662
 20
115.615238
 30
0.0
  0
SPLINE
  5
12b
100
AcDbEntity
  8
Layer_1
 62
7
100
AcDbSpline
 70
8
 71
3
 72
8
 73
4
 74
0
 40
0
 40
0
 40
0
 40
0
 40
1
 40
1
 40
1
 40
1
 10
89.696587
 20
115.617953
 30
0.0
 10
89.675512
 20
115.614953
 30
0.0
 10
89.658637
 20
115.595528
 30
0.0
 10
89.658637
 20
115.574152
 30
0.0
  0
LWPOLYLINE
  5
12c
100
AcDbEntity
  8
Layer_1
 62
7
100
AcDbPolyline
 90
2
 70
0
 10
88.453163
 20
115.615238
 30
0.0
 10
88.453403
 20
115.615238
 30
0.0
  0
SPLINE
  5
12d
100
AcDbEntity
  8
Layer_1
 62
7
100
AcDbSpline
 70
8
 71
3
 72
8
 73
4
 74
0
 40
0
 40
0
 40
0
 40
0
 40
1
 40
1
 40
1
 40
1
 10
90.426180
 20
115.574168
 30
0.0
 10
90.426067
 20
115.597568
 30
0.0
 10
90.405780
 20
115.617893
 30
0.0
 10
90.382380
 20
115.617968
 30
0.0
  0
LWPOLYLINE
  5
12e
100
AcDbEntity
  8
Layer_1
 62
7
100
AcDbPolyline
 90
8
 70
0
 10
89.658637
 20
115.574152
 30
0.0
 10
89.658637
 20
115.231155
 30
0.0
 10
89.658637
 20
115.156755
 30
0.0
 10
89.658637
 20
114.482767
 30
0.0
 10
90.968640
 20
114.482767
 30
0.0
 10
90.968640
 20
115.325130
 30
0.0
 10
90.426180
 20
115.325130
 30
0.0
 10
90.426180
 20
115.574168
 30
0.0
  0
SPLINE
  5
12f
100
AcDbEntity
  8
Layer_1
 62
7
100
AcDbSpline
 70
8
 71
3
 72
8
 73
4
 74
0
 40
0
 40
0
 40
0
 40
0
 40
1
 40
1
 40
1
 40
1
 10
89.702430
 20
115.617968
 30
0.0
 10
89.701830
 20
115.617953
 30
0.0
 10
89.701680
 20
115.617953
 30
0.0
 10
89.700930
 20
115.617968
 30
0.0
  0
SPLINE
  5
130
100
AcDbEntity
  8
Layer_1
 62
7
100
AcDbSpline
 70
8
 71
3
 72
8
 73
4
 74
0
 40
0
 40
0
 40
0
 40
0
 40
1
 40
1
 40
1
 40
1
 10
89.700930
 20
115.617968
 30
0.0
 10
89.699430
 20
115.618028
 30
0.0
 10
89.697930
 20
115.618028
 30
0.0
 10
89.696430
 20
115.617968
 30
0.0
  0
LWPOLYLINE
  5
131
100
AcDbEntity
  8
Layer_1
 62
7
100
AcDbPolyline
 90
2
 70
0
 10
90.382380
 20
115.617968
 30
0.0
 10
89.702430
 20
115.617968
 30
0.0
  0
SPLINE
  5
132
100
AcDbEntity
  8
Layer_1
 62
7
100
AcDbSpline
 70
8
 71
3
 72
8
 73
4
 74
0
 40
0
 40
0
 40
0
 40
0
 40
1
 40
1
 40
1
 40
1
 10
88.475347
 20
117.641482
 30
0.0
 10
88.456073
 20
117.641550
 30
0.0
 10
88.440398
 20
117.625882
 30
0.0
 10
88.440472
 20
117.606607
 30
0.0
  0
LWPOLYLINE
  5
133
100
AcDbEntity
  8
Layer_1
 62
7
100
AcDbPolyline
 90
2
 70
0
 10
89.696430
 20
115.617968
 30
0.0
 10
89.696587
 20
115.617953
 30
0.0
  0
SPLINE
  5
134
100
AcDbEntity
  8
Layer_1
 62
7
100
AcDbSpline
 70
8
 71
3
 72
8
 73
4
 74
0
 40
0
 40
0
 40
0
 40
0
 40
1
 40
1
 40
1
 40
1
 10
88.440472
 20
116.836890
 30
0.0
 10
88.440405
 20
116.817615
 30
0.0
 10
88.456073
 20
116.801940
 30
0.0
 10
88.475347
 20
116.802015
 30
0.0
  0
LWPOLYLINE
  5
135
100
AcDbEntity
  8
Layer_1
 62
7
100
AcDbPolyline
 90
2
 70
0
 10
88.440472
 20
117.606607
 30
0.0
 10
88.440472
 20
116.836890
 30
0.0
  0
SPLINE
  5
136
100
AcDbEntity
  8
Layer_1
 62
7
100
AcDbSpline
 70
8
 71
3
 72
8
 73
4
 74
0
 40
0
 40
0
 40
0
 40
0
 40
1
 40
1
 40
1
 40
1
 10
88.778820
 20
116.560170
 30
0.0
 10
88.778752
 20
116.540895
 30
0.0
 10
88.794420
 20
116.525220
 30
0.0
 10
88.813695
 20
116.525295
 30
0.0
  0
LWPOLYLINE
  5
137
100
AcDbEntity
  8
Layer_1
 62
7
100
AcDbPolyline
 90
3
 70
0
 10
88.475347
 20
116.802015
 30
0.0
 10
88.778820
 20
116.802015
 30
0.0
 10
88.778820
 20
116.560170
 30
0.0
  0
SPLINE
  5
138
100
AcDbEntity
  8
Layer_1
 62
7
100
AcDbSpline
 70
8
 71
3
 72
8
 73
4
 74
0
 40
0
 40
0
 40
0
 40
0
 40
1
 40
1
 40
1
 40
1
 10
90.062062
 20
116.525295
 30
0.0
 10
90.081337
 20
116.525227
 30
0.0
 10
90.097012
 20
116.540895
 30
0.0
 10
90.096937
 20
116.560170
 30
0.0
  0
LWPOLYLINE
  5
139
100
AcDbEntity
  8
Layer_1
 62
7
100
AcDbPolyline
 90
2
 70
0
 10
88.813695
 20
116.525295
 30
0.0
 10
90.062062
 20
116.525295
 30
0.0
  0
SPLINE
  5
13a
100
AcDbEntity
  8
Layer_1
 62
7
100
AcDbSpline
 70
8
 71
3
 72
8
 73
4
 74
0
 40
0
 40
0
 40
0
 40
0
 40
1
 40
1
 40
1
 40
1
 10
90.400410
 20
116.802015
 30
0.0
 10
90.419685
 20
116.801947
 30
0.0
 10
90.435360
 20
116.817615
 30
0.0
 10
90.435285
 20
116.836890
 30
0.0
  0
LWPOLYLINE
  5
13b
100
AcDbEntity
  8
Layer_1
 62
7
100
AcDbPolyline
 90
3
 70
0
 10
90.096937
 20
116.560170
 30
0.0
 10
90.096937
 20
116.802015
 30
0.0
 10
90.400410
 20
116.802015
 30
0.0
  0
SPLINE
  5
13c
100
AcDbEntity
  8
Layer_1
 62
7
100
AcDbSpline
 70
8
 71
3
 72
8
 73
4
 74
0
 40
0
 40
0
 40
0
 40
0
 40
1
 40
1
 40
1
 40
1
 10
90.435285
 20
117.606607
 30
0.0
 10
90.435352
 20
117.625882
 30
0.0
 10
90.419685
 20
117.641558
 30
0.0
 10
90.400410
 20
117.641482
 30
0.0
  0
LWPOLYLINE
  5
13d
100
AcDbEntity
  8
Layer_1
 62
7
100
AcDbPolyline
 90
2
 70
0
 10
90.435285
 20
116.836890
 30
0.0
 10
90.435285
 20
117.606607
 30
0.0
  0
SPLINE
  5
13e
100
AcDbEntity
  8
Layer_1
 62
7
100
AcDbSpline
 70
8
 71
3
 72
8
 73
4
 74
0
 40
0
 40
0
 40
0
 40
0
 40
1
 40
1
 40
1
 40
1
 10
89.892728
 20
114.069015
 30
0.0
 10
89.890082
 20
114.068426
 30
0.0
 10
89.887549
 20
114.067413
 30
0.0
 10
89.885228
 20
114.066015
 30
0.0
  0
SPLINE
  5
13f
100
AcDbEntity
  8
Layer_1
 62
7
100
AcDbSpline
 70
8
 71
3
 72
8
 73
4
 74
0
 40
0
 40
0
 40
0
 40
0
 40
1
 40
1
 40
1
 40
1
 10
89.885228
 20
114.066015
 30
0.0
 10
89.883624
 20
114.065180
 30
0.0
 10
89.882115
 20
114.064174
 30
0.0
 10
89.880728
 20
114.063015
 30
0.0
  0
SPLINE
  5
140
100
AcDbEntity
  8
Layer_1
 62
7
100
AcDbSpline
 70
8
 71
3
 72
8
 73
4
 74
0
 40
0
 40
0
 40
0
 40
0
 40
1
 40
1
 40
1
 40
1
 10
89.880728
 20
114.063015
 30
0.0
 10
89.880207
 20
114.062536
 30
0.0
 10
89.879706
 20
114.062036
 30
0.0
 10
89.879227
 20
114.061515
 30
0.0
  0
SPLINE
  5
141
100
AcDbEntity
  8
Layer_1
 62
7
100
AcDbSpline
 70
8
 71
3
 72
8
 73
4
 74
0
 40
0
 40
0
 40
0
 40
0
 40
1
 40
1
 40
1
 40
1
 10
89.879227
 20
114.061515
 30
0.0
 10
89.878707
 20
114.061036
 30
0.0
 10
89.878206
 20
114.060536
 30
0.0
 10
89.877728
 20
114.060015
 30
0.0
  0
SPLINE
  5
142
100
AcDbEntity
  8
Layer_1
 62
7
100
AcDbSpline
 70
8
 71
3
 72
8
 73
4
 74
0
 40
0
 40
0
 40
0
 40
0
 40
1
 40
1
 40
1
 40
1
 10
89.877728
 20
114.060015
 30
0.0
 10
89.876569
 20
114.058627
 30
0.0
 10
89.875563
 20
114.057119
 30
0.0
 10
89.874728
 20
114.055515
 30
0.0
  0
SPLINE
  5
143
100
AcDbEntity
  8
Layer_1
 62
7
100
AcDbSpline
 70
8
 71
3
 72
8
 73
4
 74
0
 40
0
 40
0
 40
0
 40
0
 40
1
 40
1
 40
1
 40
1
 10
89.874728
 20
114.055515
 30
0.0
 10
89.873569
 20
114.054127
 30
0.0
 10
89.872563
 20
114.052619
 30
0.0
 10
89.871727
 20
114.051015
 30
0.0
  0
SPLINE
  5
144
100
AcDbEntity
  8
Layer_1
 62
7
100
AcDbSpline
 70
8
 71
3
 72
8
 73
4
 74
0
 40
0
 40
0
 40
0
 40
0
 40
1
 40
1
 40
1
 40
1
 10
89.871727
 20
114.051015
 30
0.0
 10
89.871352
 20
114.048529
 30
0.0
 10
89.871352
 20
114.046001
 30
0.0
 10
89.871727
 20
114.043515
 30
0.0
  0
SPLINE
  5
145
100
AcDbEntity
  8
Layer_1
 62
7
100
AcDbSpline
 70
8
 71
3
 72
8
 73
4
 74
0
 40
0
 40
0
 40
0
 40
0
 40
1
 40
1
 40
1
 40
1
 10
89.871727
 20
114.043515
 30
0.0
 10
89.871727
 20
114.043515
 30
0.0
 10
89.871727
 20
112.676812
 30
0.0
 10
89.871727
 20
112.676812
 30
0.0
  0
SPLINE
  5
146
100
AcDbEntity
  8
Layer_1
 62
7
100
AcDbSpline
 70
8
 71
3
 72
8
 73
4
 74
0
 40
0
 40
0
 40
0
 40
0
 40
1
 40
1
 40
1
 40
1
 10
89.871727
 20
112.676812
 30
0.0
 10
89.871593
 20
112.675316
 30
0.0
 10
89.871593
 20
112.673809
 30
0.0
 10
89.871727
 20
112.672312
 30
0.0
  0
SPLINE
  5
147
100
AcDbEntity
  8
Layer_1
 62
7
100
AcDbSpline
 70
8
 71
3
 72
8
 73
4
 74
0
 40
0
 40
0
 40
0
 40
0
 40
1
 40
1
 40
1
 40
1
 10
89.871727
 20
112.672312
 30
0.0
 10
89.872317
 20
112.669667
 30
0.0
 10
89.873330
 20
112.667134
 30
0.0
 10
89.874728
 20
112.664812
 30
0.0
  0
SPLINE
  5
148
100
AcDbEntity
  8
Layer_1
 62
7
100
AcDbSpline
 70
8
 71
3
 72
8
 73
4
 74
0
 40
0
 40
0
 40
0
 40
0
 40
1
 40
1
 40
1
 40
1
 10
89.874728
 20
112.664812
 30
0.0
 10
89.875563
 20
112.663209
 30
0.0
 10
89.876569
 20
112.661700
 30
0.0
 10
89.877727
 20
112.660312
 30
0.0
  0
SPLINE
  5
149
100
AcDbEntity
  8
Layer_1
 62
7
100
AcDbSpline
 70
8
 71
3
 72
8
 73
4
 74
0
 40
0
 40
0
 40
0
 40
0
 40
1
 40
1
 40
1
 40
1
 10
89.877727
 20
112.660312
 30
0.0
 10
89.878206
 20
112.659792
 30
0.0
 10
89.878707
 20
112.659291
 30
0.0
 10
89.879227
 20
112.658812
 30
0.0
  0
SPLINE
  5
14a
100
AcDbEntity
  8
Layer_1
 62
7
100
AcDbSpline
 70
8
 71
3
 72
8
 73
4
 74
0
 40
0
 40
0
 40
0
 40
0
 40
1
 40
1
 40
1
 40
1
 10
89.879227
 20
112.658812
 30
0.0
 10
89.879706
 20
112.658292
 30
0.0
 10
89.880207
 20
112.657791
 30
0.0
 10
89.880728
 20
112.657312
 30
0.0
  0
SPLINE
  5
14b
100
AcDbEntity
  8
Layer_1
 62
7
100
AcDbSpline
 70
8
 71
3
 72
8
 73
4
 74
0
 40
0
 40
0
 40
0
 40
0
 40
1
 40
1
 40
1
 40
1
 10
89.880728
 20
112.657312
 30
0.0
 10
89.882115
 20
112.656154
 30
0.0
 10
89.883624
 20
112.655148
 30
0.0
 10
89.885227
 20
112.654313
 30
0.0
  0
SPLINE
  5
14c
100
AcDbEntity
  8
Layer_1
 62
7
100
AcDbSpline
 70
8
 71
3
 72
8
 73
4
 74
0
 40
0
 40
0
 40
0
 40
0
 40
1
 40
1
 40
1
 40
1
 10
89.885227
 20
112.654313
 30
0.0
 10
89.886615
 20
112.653154
 30
0.0
 10
89.888124
 20
112.652148
 30
0.0
 10
89.889727
 20
112.651313
 30
0.0
  0
SPLINE
  5
14d
100
AcDbEntity
  8
Layer_1
 62
7
100
AcDbSpline
 70
8
 71
3
 72
8
 73
4
 74
0
 40
0
 40
0
 40
0
 40
0
 40
1
 40
1
 40
1
 40
1
 10
89.889727
 20
112.651313
 30
0.0
 10
89.892213
 20
112.650937
 30
0.0
 10
89.894742
 20
112.650937
 30
0.0
 10
89.897227
 20
112.651313
 30
0.0
  0
LWPOLYLINE
  5
14e
100
AcDbEntity
  8
Layer_1
 62
7
100
AcDbPolyline
 90
2
 70
0
 10
90.400410
 20
117.641482
 30
0.0
 10
88.475347
 20
117.641482
 30
0.0
  0
SPLINE
  5
14f
100
AcDbEntity
  8
Layer_1
 62
7
100
AcDbSpline
 70
8
 71
3
 72
8
 73
4
 74
0
 40
0
 40
0
 40
0
 40
0
 40
1
 40
1
 40
1
 40
1
 10
91.110113
 20
112.651313
 30
0.0
 10
91.111609
 20
112.651178
 30
0.0
 10
91.113116
 20
112.651178
 30
0.0
 10
91.114613
 20
112.651313
 30
0.0
  0
SPLINE
  5
150
100
AcDbEntity
  8
Layer_1
 62
7
100
AcDbSpline
 70
8
 71
3
 72
8
 73
4
 74
0
 40
0
 40
0
 40
0
 40
0
 40
1
 40
1
 40
1
 40
1
 10
91.114613
 20
112.651313
 30
0.0
 10
91.117258
 20
112.651902
 30
0.0
 10
91.119791
 20
112.652915
 30
0.0
 10
91.122113
 20
112.654313
 30
0.0
  0
SPLINE
  5
151
100
AcDbEntity
  8
Layer_1
 62
7
100
AcDbSpline
 70
8
 71
3
 72
8
 73
4
 74
0
 40
0
 40
0
 40
0
 40
0
 40
1
 40
1
 40
1
 40
1
 10
91.122113
 20
112.654313
 30
0.0
 10
91.123716
 20
112.655148
 30
0.0
 10
91.125225
 20
112.656154
 30
0.0
 10
91.126613
 20
112.657312
 30
0.0
  0
SPLINE
  5
152
100
AcDbEntity
  8
Layer_1
 62
7
100
AcDbSpline
 70
8
 71
3
 72
8
 73
4
 74
0
 40
0
 40
0
 40
0
 40
0
 40
1
 40
1
 40
1
 40
1
 10
91.126613
 20
112.657312
 30
0.0
 10
91.127133
 20
112.657791
 30
0.0
 10
91.127634
 20
112.658292
 30
0.0
 10
91.128113
 20
112.658812
 30
0.0
  0
SPLINE
  5
153
100
AcDbEntity
  8
Layer_1
 62
7
100
AcDbSpline
 70
8
 71
3
 72
8
 73
4
 74
0
 40
0
 40
0
 40
0
 40
0
 40
1
 40
1
 40
1
 40
1
 10
91.128113
 20
112.658812
 30
0.0
 10
91.128633
 20
112.659291
 30
0.0
 10
91.129134
 20
112.659792
 30
0.0
 10
91.129613
 20
112.660312
 30
0.0
  0
SPLINE
  5
154
100
AcDbEntity
  8
Layer_1
 62
7
100
AcDbSpline
 70
8
 71
3
 72
8
 73
4
 74
0
 40
0
 40
0
 40
0
 40
0
 40
1
 40
1
 40
1
 40
1
 10
91.129613
 20
112.660312
 30
0.0
 10
91.130771
 20
112.661700
 30
0.0
 10
91.131777
 20
112.663209
 30
0.0
 10
91.132613
 20
112.664812
 30
0.0
  0
SPLINE
  5
155
100
AcDbEntity
  8
Layer_1
 62
7
100
AcDbSpline
 70
8
 71
3
 72
8
 73
4
 74
0
 40
0
 40
0
 40
0
 40
0
 40
1
 40
1
 40
1
 40
1
 10
91.132613
 20
112.664812
 30
0.0
 10
91.133771
 20
112.666200
 30
0.0
 10
91.134777
 20
112.667709
 30
0.0
 10
91.135613
 20
112.669312
 30
0.0
  0
SPLINE
  5
156
100
AcDbEntity
  8
Layer_1
 62
7
100
AcDbSpline
 70
8
 71
3
 72
8
 73
4
 74
0
 40
0
 40
0
 40
0
 40
0
 40
1
 40
1
 40
1
 40
1
 10
91.135613
 20
112.669312
 30
0.0
 10
91.135988
 20
112.671798
 30
0.0
 10
91.135988
 20
112.674327
 30
0.0
 10
91.135613
 20
112.676812
 30
0.0
  0
LWPOLYLINE
  5
157
100
AcDbEntity
  8
Layer_1
 62
7
100
AcDbPolyline
 90
2
 70
0
 10
89.897227
 20
112.651313
 30
0.0
 10
91.110113
 20
112.651313
 30
0.0
  0
SPLINE
  5
158
100
AcDbEntity
  8
Layer_1
 62
7
100
AcDbSpline
 70
8
 71
3
 72
8
 73
4
 74
0
 40
0
 40
0
 40
0
 40
0
 40
1
 40
1
 40
1
 40
1
 10
91.135613
 20
114.043515
 30
0.0
 10
91.135747
 20
114.045012
 30
0.0
 10
91.135747
 20
114.046518
 30
0.0
 10
91.135613
 20
114.048015
 30
0.0
  0
SPLINE
  5
159
100
AcDbEntity
  8
Layer_1
 62
7
100
AcDbSpline
 70
8
 71
3
 72
8
 73
4
 74
0
 40
0
 40
0
 40
0
 40
0
 40
1
 40
1
 40
1
 40
1
 10
91.135613
 20
114.048015
 30
0.0
 10
91.135023
 20
114.050660
 30
0.0
 10
91.134010
 20
114.053193
 30
0.0
 10
91.132613
 20
114.055515
 30
0.0
  0
SPLINE
  5
15a
100
AcDbEntity
  8
Layer_1
 62
7
100
AcDbSpline
 70
8
 71
3
 72
8
 73
4
 74
0
 40
0
 40
0
 40
0
 40
0
 40
1
 40
1
 40
1
 40
1
 10
91.132613
 20
114.055515
 30
0.0
 10
91.131777
 20
114.057119
 30
0.0
 10
91.130771
 20
114.058627
 30
0.0
 10
91.129613
 20
114.060015
 30
0.0
  0
SPLINE
  5
15b
100
AcDbEntity
  8
Layer_1
 62
7
100
AcDbSpline
 70
8
 71
3
 72
8
 73
4
 74
0
 40
0
 40
0
 40
0
 40
0
 40
1
 40
1
 40
1
 40
1
 10
91.129613
 20
114.060015
 30
0.0
 10
91.129134
 20
114.060536
 30
0.0
 10
91.128633
 20
114.061036
 30
0.0
 10
91.128113
 20
114.061515
 30
0.0
  0
SPLINE
  5
15c
100
AcDbEntity
  8
Layer_1
 62
7
100
AcDbSpline
 70
8
 71
3
 72
8
 73
4
 74
0
 40
0
 40
0
 40
0
 40
0
 40
1
 40
1
 40
1
 40
1
 10
91.128113
 20
114.061515
 30
0.0
 10
91.127634
 20
114.062036
 30
0.0
 10
91.127133
 20
114.062536
 30
0.0
 10
91.126613
 20
114.063015
 30
0.0
  0
SPLINE
  5
15d
100
AcDbEntity
  8
Layer_1
 62
7
100
AcDbSpline
 70
8
 71
3
 72
8
 73
4
 74
0
 40
0
 40
0
 40
0
 40
0
 40
1
 40
1
 40
1
 40
1
 10
91.126613
 20
114.063015
 30
0.0
 10
91.125225
 20
114.064174
 30
0.0
 10
91.123716
 20
114.065180
 30
0.0
 10
91.122113
 20
114.066015
 30
0.0
  0
SPLINE
  5
15e
100
AcDbEntity
  8
Layer_1
 62
7
100
AcDbSpline
 70
8
 71
3
 72
8
 73
4
 74
0
 40
0
 40
0
 40
0
 40
0
 40
1
 40
1
 40
1
 40
1
 10
91.122113
 20
114.066015
 30
0.0
 10
91.120725
 20
114.067174
 30
0.0
 10
91.119216
 20
114.068180
 30
0.0
 10
91.117613
 20
114.069015
 30
0.0
  0
SPLINE
  5
15f
100
AcDbEntity
  8
Layer_1
 62
7
100
AcDbSpline
 70
8
 71
3
 72
8
 73
4
 74
0
 40
0
 40
0
 40
0
 40
0
 40
1
 40
1
 40
1
 40
1
 10
91.117613
 20
114.069015
 30
0.0
 10
91.115127
 20
114.069390
 30
0.0
 10
91.112598
 20
114.069390
 30
0.0
 10
91.110113
 20
114.069015
 30
0.0
  0
LWPOLYLINE
  5
160
100
AcDbEntity
  8
Layer_1
 62
7
100
AcDbPolyline
 90
2
 70
0
 10
91.135613
 20
112.676812
 30
0.0
 10
91.135613
 20
114.043515
 30
0.0
  0
SPLINE
  5
161
100
AcDbEntity
  8
Layer_1
 62
7
100
AcDbSpline
 70
8
 71
3
 72
8
 73
4
 74
0
 40
0
 40
0
 40
0
 40
0
 40
1
 40
1
 40
1
 40
1
 10
89.897227
 20
114.069015
 30
0.0
 10
89.895731
 20
114.069150
 30
0.0
 10
89.894224
 20
114.069150
 30
0.0
 10
89.892728
 20
114.069015
 30
0.0
  0
LWPOLYLINE
  5
162
100
AcDbEntity
  8
Layer_1
 62
7
100
AcDbPolyline
 90
2
 70
0
 10
91.110113
 20
114.069015
 30
0.0
 10
89.897227
 20
114.069015
 30
0.0
  0
LWPOLYLINE
  5
163
100
AcDbEntity
  8
Layer_1
 62
7
100
AcDbPolyline
 90
1
 70
1
 10
89.892728
 20
114.069015
 30
0.0
  0
LWPOLYLINE
  5
164
100
AcDbEntity
  8
Layer_1
 62
7
100
AcDbPolyline
 90
4
 70
1
 10
87.742335
 20
114.044115
 30
0.0
 10
87.742335
 20
112.677413
 30
0.0
 10
88.953757
 20
112.677413
 30
0.0
 10
88.953757
 20
114.044115
 30
0.0
  0
LWPOLYLINE
  5
165
100
AcDbEntity
  8
Layer_1
 62
7
100
AcDbPolyline
 90
4
 70
1
 10
86.315467
 20
132.846060
 30
0.0
 10
88.574850
 20
132.846060
 30
0.0
 10
88.574850
 20
133.813560
 30
0.0
 10
86.315467
 20
133.813560
 30
0.0
  0
LWPOLYLINE
  5
166
100
AcDbEntity
  8
Layer_1
 62
7
100
AcDbPolyline
 90
4
 70
1
 10
94.722622
 20
128.646833
 30
0.0
 10
96.994770
 20
128.646833
 30
0.0
 10
96.994770
 20
129.604950
 30
0.0
 10
94.722622
 20
129.604950
 30
0.0
  0
LWPOLYLINE
  5
167
100
AcDbEntity
  8
Layer_1
 62
7
100
AcDbPolyline
 90
4
 70
1
 10
90.522015
 20
132.846060
 30
0.0
 10
92.781398
 20
132.846060
 30
0.0
 10
92.781398
 20
133.813560
 30
0.0
 10
90.522015
 20
133.813560
 30
0.0
  0
LWPOLYLINE
  5
168
100
AcDbEntity
  8
Layer_1
 62
7
100
AcDbPolyline
 90
4
 70
1
 10
86.315467
 20
130.746862
 30
0.0
 10
88.574850
 20
130.746862
 30
0.0
 10
88.574850
 20
131.714362
 30
0.0
 10
86.315467
 20
131.714362
 30
0.0
  0
LWPOLYLINE
  5
169
100
AcDbEntity
  8
Layer_1
 62
7
100
AcDbPolyline
 90
4
 70
1
 10
90.522015
 20
130.746862
 30
0.0
 10
92.781398
 20
130.746862
 30
0.0
 10
92.781398
 20
131.714362
 30
0.0
 10
90.522015
 20
131.714362
 30
0.0
  0
SPLINE
  5
16a
100
AcDbEntity
  8
Layer_1
 62
7
100
AcDbSpline
 70
8
 71
3
 72
8
 73
4
 74
0
 40
0
 40
0
 40
0
 40
0
 40
1
 40
1
 40
1
 40
1
 10
82.605308
 20
131.698095
 30
0.0
 10
82.303823
 20
131.681595
 30
0.0
 10
82.138823
 20
130.757715
 30
0.0
 10
82.138823
 20
130.757715
 30
0.0
  0
LWPOLYLINE
  5
16b
100
AcDbEntity
  8
Layer_1
 62
7
100
AcDbPolyline
 90
4
 70
0
 10
82.138823
 20
130.757715
 30
0.0
 10
84.354810
 20
130.757715
 30
0.0
 10
84.354810
 20
131.698095
 30
0.0
 10
82.605308
 20
131.698095
 30
0.0
  0
LWPOLYLINE
  5
16c
100
AcDbEntity
  8
Layer_1
 62
7
100
AcDbPolyline
 90
1
 70
1
 10
82.138823
 20
130.757715
 30
0.0
  0
SPLINE
  5
16d
100
AcDbEntity
  8
Layer_1
 62
7
100
AcDbSpline
 70
8
 71
3
 72
8
 73
4
 74
0
 40
0
 40
0
 40
0
 40
0
 40
1
 40
1
 40
1
 40
1
 10
96.944565
 20
130.746862
 30
0.0
 10
96.852638
 20
130.920217
 30
0.0
 10
96.310042
 20
131.627332
 30
0.0
 10
96.045435
 20
131.714362
 30
0.0
  0
LWPOLYLINE
  5
16e
100
AcDbEntity
  8
Layer_1
 62
7
100
AcDbPolyline
 90
2
 70
0
 10
94.731202
 20
130.746862
 30
0.0
 10
96.944565
 20
130.746862
 30
0.0
  0
LWPOLYLINE
  5
16f
100
AcDbEntity
  8
Layer_1
 62
7
100
AcDbPolyline
 90
3
 70
0
 10
96.045435
 20
131.714362
 30
0.0
 10
94.731203
 20
131.714362
 30
0.0
 10
94.731202
 20
130.746862
 30
0.0
  0
LWPOLYLINE
  5
170
100
AcDbEntity
  8
Layer_1
 62
7
100
AcDbPolyline
 90
4
 70
1
 10
90.508403
 20
128.646833
 30
0.0
 10
92.780550
 20
128.646833
 30
0.0
 10
92.780550
 20
129.604950
 30
0.0
 10
90.508403
 20
129.604950
 30
0.0
  0
LWPOLYLINE
  5
171
100
AcDbEntity
  8
Layer_1
 62
7
100
AcDbPolyline
 90
4
 70
1
 10
86.309085
 20
128.646833
 30
0.0
 10
88.581232
 20
128.646833
 30
0.0
 10
88.581232
 20
129.604950
 30
0.0
 10
86.309085
 20
129.604950
 30
0.0
  0
LWPOLYLINE
  5
172
100
AcDbEntity
  8
Layer_1
 62
7
100
AcDbPolyline
 90
4
 70
1
 10
82.113353
 20
128.646833
 30
0.0
 10
84.385500
 20
128.646833
 30
0.0
 10
84.385500
 20
129.604950
 30
0.0
 10
82.113353
 20
129.604950
 30
0.0
  0
LWPOLYLINE
  5
173
100
AcDbEntity
  8
Layer_1
 62
7
100
AcDbPolyline
 90
4
 70
1
 10
94.722622
 20
126.551288
 30
0.0
 10
96.994770
 20
126.551288
 30
0.0
 10
96.994770
 20
127.509412
 30
0.0
 10
94.722622
 20
127.509412
 30
0.0
  0
LWPOLYLINE
  5
174
100
AcDbEntity
  8
Layer_1
 62
7
100
AcDbPolyline
 90
4
 70
1
 10
90.508403
 20
126.551288
 30
0.0
 10
92.780550
 20
126.551288
 30
0.0
 10
92.780550
 20
127.509412
 30
0.0
 10
90.508403
 20
127.509412
 30
0.0
  0
LWPOLYLINE
  5
175
100
AcDbEntity
  8
Layer_1
 62
7
100
AcDbPolyline
 90
4
 70
1
 10
86.309085
 20
126.551288
 30
0.0
 10
88.581232
 20
126.551288
 30
0.0
 10
88.581232
 20
127.509412
 30
0.0
 10
86.309085
 20
127.509412
 30
0.0
  0
LWPOLYLINE
  5
176
100
AcDbEntity
  8
Layer_1
 62
7
100
AcDbPolyline
 90
4
 70
1
 10
82.113353
 20
126.551288
 30
0.0
 10
84.385500
 20
126.551288
 30
0.0
 10
84.385500
 20
127.509412
 30
0.0
 10
82.113353
 20
127.509412
 30
0.0
  0
LWPOLYLINE
  5
177
100
AcDbEntity
  8
Layer_1
 62
7
100
AcDbPolyline
 90
4
 70
1
 10
94.722622
 20
124.444177
 30
0.0
 10
96.994770
 20
124.444177
 30
0.0
 10
96.994770
 20
125.402302
 30
0.0
 10
94.722622
 20
125.402302
 30
0.0
  0
LWPOLYLINE
  5
178
100
AcDbEntity
  8
Layer_1
 62
7
100
AcDbPolyline
 90
4
 70
1
 10
90.508403
 20
124.444177
 30
0.0
 10
92.780550
 20
124.444177
 30
0.0
 10
92.780550
 20
125.402302
 30
0.0
 10
90.508403
 20
125.402302
 30
0.0
  0
LWPOLYLINE
  5
179
100
AcDbEntity
  8
Layer_1
 62
7
100
AcDbPolyline
 90
4
 70
1
 10
86.309085
 20
124.444177
 30
0.0
 10
88.581232
 20
124.444177
 30
0.0
 10
88.581232
 20
125.402302
 30
0.0
 10
86.309085
 20
125.402302
 30
0.0
  0
LWPOLYLINE
  5
17a
100
AcDbEntity
  8
Layer_1
 62
7
100
AcDbPolyline
 90
4
 70
1
 10
82.113353
 20
124.444177
 30
0.0
 10
84.385500
 20
124.444177
 30
0.0
 10
84.385500
 20
125.402302
 30
0.0
 10
82.113353
 20
125.402302
 30
0.0
  0
LWPOLYLINE
  5
17b
100
AcDbEntity
  8
Layer_1
 62
7
100
AcDbPolyline
 90
4
 70
1
 10
94.722622
 20
122.354422
 30
0.0
 10
96.994770
 20
122.354422
 30
0.0
 10
96.994770
 20
123.312547
 30
0.0
 10
94.722622
 20
123.312547
 30
0.0
  0
LWPOLYLINE
  5
17c
100
AcDbEntity
  8
Layer_1
 62
7
100
AcDbPolyline
 90
4
 70
1
 10
90.508403
 20
122.354422
 30
0.0
 10
92.780550
 20
122.354422
 30
0.0
 10
92.780550
 20
123.312547
 30
0.0
 10
90.508403
 20
123.312547
 30
0.0
  0
LWPOLYLINE
  5
17d
100
AcDbEntity
  8
Layer_1
 62
7
100
AcDbPolyline
 90
4
 70
1
 10
86.309085
 20
122.354422
 30
0.0
 10
88.581232
 20
122.354422
 30
0.0
 10
88.581232
 20
123.312547
 30
0.0
 10
86.309085
 20
123.312547
 30
0.0
  0
LWPOLYLINE
  5
17e
100
AcDbEntity
  8
Layer_1
 62
7
100
AcDbPolyline
 90
4
 70
1
 10
82.113353
 20
122.354422
 30
0.0
 10
84.385500
 20
122.354422
 30
0.0
 10
84.385500
 20
123.312547
 30
0.0
 10
82.113353
 20
123.312547
 30
0.0
  0
LWPOLYLINE
  5
17f
100
AcDbEntity
  8
Layer_1
 62
7
100
AcDbPolyline
 90
4
 70
1
 10
94.722622
 20
120.249330
 30
0.0
 10
96.994770
 20
120.249330
 30
0.0
 10
96.994770
 20
121.207455
 30
0.0
 10
94.722622
 20
121.207455
 30
0.0
  0
LWPOLYLINE
  5
180
100
AcDbEntity
  8
Layer_1
 62
7
100
AcDbPolyline
 90
4
 70
1
 10
90.508403
 20
120.249330
 30
0.0
 10
92.780550
 20
120.249330
 30
0.0
 10
92.780550
 20
121.207455
 30
0.0
 10
90.508403
 20
121.207455
 30
0.0
  0
LWPOLYLINE
  5
181
100
AcDbEntity
  8
Layer_1
 62
7
100
AcDbPolyline
 90
4
 70
1
 10
86.309085
 20
120.249330
 30
0.0
 10
88.581232
 20
120.249330
 30
0.0
 10
88.581232
 20
121.207455
 30
0.0
 10
86.309085
 20
121.207455
 30
0.0
  0
LWPOLYLINE
  5
182
100
AcDbEntity
  8
Layer_1
 62
7
100
AcDbPolyline
 90
4
 70
1
 10
82.113353
 20
120.249330
 30
0.0
 10
84.385500
 20
120.249330
 30
0.0
 10
84.385500
 20
121.207455
 30
0.0
 10
82.113353
 20
121.207455
 30
0.0
  0
SPLINE
  5
183
100
AcDbEntity
  8
Layer_1
 62
7
100
AcDbSpline
 70
8
 71
3
 72
8
 73
4
 74
0
 40
0
 40
0
 40
0
 40
0
 40
1
 40
1
 40
1
 40
1
 10
96.132682
 20
118.142220
 30
0.0
 10
96.609547
 20
118.532107
 30
0.0
 10
96.775882
 20
118.797240
 30
0.0
 10
96.973073
 20
119.100338
 30
0.0
  0
LWPOLYLINE
  5
184
100
AcDbEntity
  8
Layer_1
 62
7
100
AcDbPolyline
 90
2
 70
0
 10
94.722622
 20
118.142220
 30
0.0
 10
96.132682
 20
118.142220
 30
0.0
  0
LWPOLYLINE
  5
185
100
AcDbEntity
  8
Layer_1
 62
7
100
AcDbPolyline
 90
3
 70
0
 10
96.973073
 20
119.100338
 30
0.0
 10
94.722622
 20
119.100338
 30
0.0
 10
94.722622
 20
118.142220
 30
0.0
  0
LWPOLYLINE
  5
186
100
AcDbEntity
  8
Layer_1
 62
7
100
AcDbPolyline
 90
4
 70
1
 10
90.508403
 20
118.142220
 30
0.0
 10
92.780550
 20
118.142220
 30
0.0
 10
92.780550
 20
119.100338
 30
0.0
 10
90.508403
 20
119.100338
 30
0.0
  0
LWPOLYLINE
  5
187
100
AcDbEntity
  8
Layer_1
 62
7
100
AcDbPolyline
 90
4
 70
1
 10
86.309085
 20
118.142220
 30
0.0
 10
88.581232
 20
118.142220
 30
0.0
 10
88.581232
 20
119.100338
 30
0.0
 10
86.309085
 20
119.100338
 30
0.0
  0
LWPOLYLINE
  5
188
100
AcDbEntity
  8
Layer_1
 62
7
100
AcDbPolyline
 90
4
 70
1
 10
82.140473
 20
118.142220
 30
0.0
 10
84.385500
 20
118.142220
 30
0.0
 10
84.385500
 20
119.100338
 30
0.0
 10
82.140473
 20
119.100338
 30
0.0
  0
LWPOLYLINE
  5
189
100
AcDbEntity
  8
Layer_1
 62
7
100
AcDbPolyline
 90
4
 70
1
 10
45.930656
 20
146.730022
 30
0.0
 10
53.355656
 20
146.730022
 30
0.0
 10
53.355656
 20
139.305023
 30
0.0
 10
45.930656
 20
139.305023
 30
0.0
  0
ENDSEC
  0
SECTION
  2
OBJECTS
  0
DICTIONARY
  5
C
330
0
100
AcDbDictionary
  3
ACAD_GROUP
350
D
  3
ACAD_MLINESTYLE
350
17
  0
DICTIONARY
  5
D
330
C
100
AcDbDictionary
  0
DICTIONARY
  5
1A
330
C
100
AcDbDictionary
  0
DICTIONARY
  5
17
330
C
100
AcDbDictionary
  3
STANDARD
350
18
  0
DICTIONARY
  5
19
330
C
100
AcDbDictionary
  0
ENDSEC
  0
EOF
