<?xml version="1.0" encoding="UTF-8"?>
<svg xmlns="http://www.w3.org/2000/svg" xmlns:xlink="http://www.w3.org/1999/xlink" width="81pt" height="39pt" viewBox="0 0 81 39" version="1.1">
<g id="surface4400">
<path style=" stroke:none;fill-rule:evenodd;fill:rgb(81.960784%,10.588235%,40.784314%);fill-opacity:1;" d="M 58.789062 19.199219 C 58.789062 9.257812 50.730469 1.199219 40.789062 1.199219 C 30.847656 1.199219 22.789062 9.257812 22.789062 19.199219 C 22.789062 29.140625 30.847656 37.199219 40.789062 37.199219 C 50.730469 37.199219 58.789062 29.140625 58.789062 19.199219 "/>
<path style=" stroke:none;fill-rule:evenodd;fill:rgb(81.960784%,10.588235%,40.784314%);fill-opacity:1;" d="M 70.667969 26.398438 L 77.867188 26.398438 L 77.867188 12 L 70.667969 12 Z M 70.667969 26.398438 "/>
<path style=" stroke:none;fill-rule:evenodd;fill:rgb(81.960784%,10.588235%,40.784314%);fill-opacity:1;" d="M 3.707031 26.398438 L 10.90625 26.398438 L 10.90625 12 L 3.707031 12 Z M 3.707031 26.398438 "/>
<path style=" stroke:none;fill-rule:evenodd;fill:rgb(81.960784%,10.588235%,40.784314%);fill-opacity:1;" d="M 41.636719 19.199219 C 41.636719 18.066406 39.9375 18.066406 39.9375 19.199219 C 39.9375 20.332031 41.636719 20.332031 41.636719 19.199219 "/>
<path style="fill:none;stroke-width:0.008;stroke-linecap:round;stroke-linejoin:miter;stroke:rgb(81.960784%,10.588235%,40.784314%);stroke-opacity:1;stroke-miterlimit:10;" d="M 0.0350082 0.500011 L 0.0350082 0.530013 " transform="matrix(72,0,0,-72,4.788,55.2)"/>
<path style=" stroke:none;fill-rule:evenodd;fill:rgb(81.960784%,10.588235%,40.784314%);fill-opacity:1;" d="M 8.160156 17.039062 C 8.160156 15.90625 6.457031 15.90625 6.457031 17.039062 C 6.457031 18.175781 8.160156 18.175781 8.160156 17.039062 "/>
<path style=" stroke:none;fill-rule:evenodd;fill:rgb(81.960784%,10.588235%,40.784314%);fill-opacity:1;" d="M 75.117188 19.199219 C 75.117188 18.066406 73.417969 18.066406 73.417969 19.199219 C 73.417969 20.332031 75.117188 20.332031 75.117188 19.199219 "/>
</g>
</svg>
