G04 #@! TF.FileFunction,Legend,Top*
%FSLAX46Y46*%
G04 Gerber Fmt 4.6, Leading zero omitted, Abs format (unit mm)*
G04 Created by KiCad (PCBNEW 4.0.7) date Thu May 17 18:16:42 2018*
%MOMM*%
%LPD*%
G01*
G04 APERTURE LIST*
%ADD10C,0.100000*%
%ADD11C,0.010000*%
G04 APERTURE END LIST*
D10*
D11*
G36*
X-7373909Y-3597275D02*
X-7370566Y-3651966D01*
X-7366736Y-3722769D01*
X-7362898Y-3800412D01*
X-7359621Y-3873500D01*
X-7342055Y-4129623D01*
X-7311211Y-4395316D01*
X-7268570Y-4660340D01*
X-7215614Y-4914460D01*
X-7199423Y-4981134D01*
X-7115937Y-5273617D01*
X-7017399Y-5545677D01*
X-6903750Y-5797395D01*
X-6774932Y-6028852D01*
X-6630886Y-6240128D01*
X-6471554Y-6431302D01*
X-6296877Y-6602456D01*
X-6106797Y-6753668D01*
X-5901255Y-6885021D01*
X-5756947Y-6960947D01*
X-5619971Y-7023974D01*
X-5498555Y-7071907D01*
X-5388505Y-7105617D01*
X-5285629Y-7125977D01*
X-5185733Y-7133859D01*
X-5084623Y-7130135D01*
X-4997450Y-7118967D01*
X-4818524Y-7077779D01*
X-4641504Y-7014061D01*
X-4469408Y-6930034D01*
X-4305251Y-6827922D01*
X-4152050Y-6709945D01*
X-4012821Y-6578328D01*
X-3890580Y-6435291D01*
X-3788343Y-6283058D01*
X-3739842Y-6192337D01*
X-3676160Y-6036084D01*
X-3630995Y-5870561D01*
X-3603930Y-5698836D01*
X-3594549Y-5523976D01*
X-3602436Y-5349050D01*
X-3627174Y-5177126D01*
X-3668348Y-5011272D01*
X-3725541Y-4854557D01*
X-3798337Y-4710048D01*
X-3886319Y-4580813D01*
X-3971261Y-4486685D01*
X-4072361Y-4406247D01*
X-4187982Y-4345725D01*
X-4316762Y-4305211D01*
X-4457341Y-4284799D01*
X-4608359Y-4284581D01*
X-4768456Y-4304649D01*
X-4936270Y-4345098D01*
X-5110441Y-4406018D01*
X-5116848Y-4408609D01*
X-5284253Y-4489275D01*
X-5434574Y-4588496D01*
X-5568287Y-4706714D01*
X-5685865Y-4844372D01*
X-5787783Y-5001913D01*
X-5822613Y-5067300D01*
X-5875066Y-5180169D01*
X-5912195Y-5283054D01*
X-5936255Y-5384308D01*
X-5949495Y-5492284D01*
X-5952705Y-5549900D01*
X-5954845Y-5619435D01*
X-5954597Y-5670972D01*
X-5951228Y-5711859D01*
X-5944007Y-5749442D01*
X-5932199Y-5791069D01*
X-5927016Y-5807431D01*
X-5875575Y-5931643D01*
X-5804376Y-6050488D01*
X-5716991Y-6160171D01*
X-5616990Y-6256893D01*
X-5507945Y-6336860D01*
X-5393425Y-6396273D01*
X-5361778Y-6408387D01*
X-5248448Y-6435226D01*
X-5128416Y-6439284D01*
X-5004313Y-6421406D01*
X-4878773Y-6382433D01*
X-4754428Y-6323210D01*
X-4633910Y-6244577D01*
X-4519851Y-6147379D01*
X-4506943Y-6134726D01*
X-4405681Y-6018870D01*
X-4328040Y-5895601D01*
X-4273423Y-5763344D01*
X-4241232Y-5620525D01*
X-4230871Y-5465569D01*
X-4232199Y-5410200D01*
X-4245897Y-5289107D01*
X-4274748Y-5188282D01*
X-4318121Y-5108092D01*
X-4375382Y-5048907D01*
X-4445898Y-5011096D01*
X-4529037Y-4995027D01*
X-4624165Y-5001071D01*
X-4730649Y-5029595D01*
X-4820407Y-5067314D01*
X-4883211Y-5102498D01*
X-4948346Y-5147508D01*
X-5010488Y-5197803D01*
X-5064316Y-5248841D01*
X-5104503Y-5296081D01*
X-5121552Y-5324206D01*
X-5134590Y-5379460D01*
X-5131199Y-5452211D01*
X-5111692Y-5540854D01*
X-5076380Y-5643782D01*
X-5044727Y-5718414D01*
X-5025081Y-5763471D01*
X-5011102Y-5798803D01*
X-5004933Y-5818851D01*
X-5005099Y-5821320D01*
X-5017731Y-5828784D01*
X-5047701Y-5845484D01*
X-5089970Y-5868631D01*
X-5121548Y-5885757D01*
X-5232945Y-5945953D01*
X-5282082Y-5840001D01*
X-5326506Y-5740543D01*
X-5359257Y-5657539D01*
X-5381826Y-5585723D01*
X-5395702Y-5519823D01*
X-5402372Y-5454572D01*
X-5403549Y-5410200D01*
X-5403044Y-5351822D01*
X-5400016Y-5310506D01*
X-5392717Y-5277924D01*
X-5379401Y-5245750D01*
X-5362080Y-5212565D01*
X-5288585Y-5102288D01*
X-5193469Y-5000565D01*
X-5079859Y-4910219D01*
X-4950881Y-4834074D01*
X-4933950Y-4825751D01*
X-4798901Y-4771128D01*
X-4668734Y-4739013D01*
X-4544861Y-4729272D01*
X-4428691Y-4741771D01*
X-4321637Y-4776378D01*
X-4225107Y-4832958D01*
X-4150885Y-4899846D01*
X-4083772Y-4984744D01*
X-4033022Y-5078075D01*
X-3997181Y-5183778D01*
X-3974794Y-5305792D01*
X-3966606Y-5398455D01*
X-3968140Y-5575662D01*
X-3993672Y-5744575D01*
X-4043114Y-5904948D01*
X-4116375Y-6056534D01*
X-4213365Y-6199088D01*
X-4292020Y-6289889D01*
X-4419625Y-6410035D01*
X-4555580Y-6510937D01*
X-4697667Y-6591796D01*
X-4843668Y-6651813D01*
X-4991365Y-6690191D01*
X-5138541Y-6706129D01*
X-5282978Y-6698830D01*
X-5376885Y-6680600D01*
X-5512453Y-6633446D01*
X-5644195Y-6563678D01*
X-5769343Y-6474059D01*
X-5885127Y-6367354D01*
X-5988781Y-6246326D01*
X-6077534Y-6113739D01*
X-6148619Y-5972356D01*
X-6185090Y-5873750D01*
X-6203424Y-5795427D01*
X-6215619Y-5700238D01*
X-6221384Y-5596032D01*
X-6220426Y-5490659D01*
X-6212454Y-5391971D01*
X-6204851Y-5342737D01*
X-6158113Y-5161655D01*
X-6088111Y-4986260D01*
X-5996788Y-4819119D01*
X-5886090Y-4662798D01*
X-5757959Y-4519863D01*
X-5614340Y-4392881D01*
X-5457175Y-4284418D01*
X-5364166Y-4232823D01*
X-5177357Y-4148888D01*
X-4988652Y-4085475D01*
X-4800584Y-4042971D01*
X-4615690Y-4021761D01*
X-4436502Y-4022229D01*
X-4265556Y-4044760D01*
X-4210050Y-4057442D01*
X-4071480Y-4105627D01*
X-3940818Y-4176744D01*
X-3819398Y-4269188D01*
X-3708556Y-4381357D01*
X-3609628Y-4511646D01*
X-3523948Y-4658453D01*
X-3452853Y-4820173D01*
X-3397677Y-4995204D01*
X-3384790Y-5048465D01*
X-3346745Y-5267140D01*
X-3331249Y-5484418D01*
X-3338100Y-5697871D01*
X-3367094Y-5905069D01*
X-3418030Y-6103584D01*
X-3487779Y-6284604D01*
X-3552223Y-6405896D01*
X-3636187Y-6532482D01*
X-3735763Y-6659841D01*
X-3847042Y-6783456D01*
X-3966116Y-6898807D01*
X-4089076Y-7001374D01*
X-4140200Y-7039031D01*
X-4232638Y-7099175D01*
X-4340017Y-7160568D01*
X-4454533Y-7219300D01*
X-4568383Y-7271461D01*
X-4673762Y-7313141D01*
X-4714844Y-7326966D01*
X-4862197Y-7366066D01*
X-5009491Y-7391491D01*
X-5151870Y-7402898D01*
X-5284477Y-7399941D01*
X-5402457Y-7382275D01*
X-5422900Y-7377206D01*
X-5510927Y-7350357D01*
X-5613093Y-7313609D01*
X-5721717Y-7270062D01*
X-5829119Y-7222817D01*
X-5927615Y-7174973D01*
X-5940118Y-7168475D01*
X-6162367Y-7037732D01*
X-6369849Y-6886497D01*
X-6562364Y-6715088D01*
X-6739712Y-6523822D01*
X-6901692Y-6313017D01*
X-7048104Y-6082990D01*
X-7178747Y-5834059D01*
X-7293422Y-5566539D01*
X-7391927Y-5280750D01*
X-7474062Y-4977007D01*
X-7539628Y-4655629D01*
X-7544138Y-4629246D01*
X-7591981Y-4295751D01*
X-7620431Y-3978050D01*
X-7626769Y-3844123D01*
X-7629509Y-3768943D01*
X-7632531Y-3695579D01*
X-7635519Y-3631138D01*
X-7638157Y-3582727D01*
X-7638869Y-3571875D01*
X-7644445Y-3492500D01*
X-7380981Y-3492500D01*
X-7373909Y-3597275D01*
X-7373909Y-3597275D01*
G37*
X-7373909Y-3597275D02*
X-7370566Y-3651966D01*
X-7366736Y-3722769D01*
X-7362898Y-3800412D01*
X-7359621Y-3873500D01*
X-7342055Y-4129623D01*
X-7311211Y-4395316D01*
X-7268570Y-4660340D01*
X-7215614Y-4914460D01*
X-7199423Y-4981134D01*
X-7115937Y-5273617D01*
X-7017399Y-5545677D01*
X-6903750Y-5797395D01*
X-6774932Y-6028852D01*
X-6630886Y-6240128D01*
X-6471554Y-6431302D01*
X-6296877Y-6602456D01*
X-6106797Y-6753668D01*
X-5901255Y-6885021D01*
X-5756947Y-6960947D01*
X-5619971Y-7023974D01*
X-5498555Y-7071907D01*
X-5388505Y-7105617D01*
X-5285629Y-7125977D01*
X-5185733Y-7133859D01*
X-5084623Y-7130135D01*
X-4997450Y-7118967D01*
X-4818524Y-7077779D01*
X-4641504Y-7014061D01*
X-4469408Y-6930034D01*
X-4305251Y-6827922D01*
X-4152050Y-6709945D01*
X-4012821Y-6578328D01*
X-3890580Y-6435291D01*
X-3788343Y-6283058D01*
X-3739842Y-6192337D01*
X-3676160Y-6036084D01*
X-3630995Y-5870561D01*
X-3603930Y-5698836D01*
X-3594549Y-5523976D01*
X-3602436Y-5349050D01*
X-3627174Y-5177126D01*
X-3668348Y-5011272D01*
X-3725541Y-4854557D01*
X-3798337Y-4710048D01*
X-3886319Y-4580813D01*
X-3971261Y-4486685D01*
X-4072361Y-4406247D01*
X-4187982Y-4345725D01*
X-4316762Y-4305211D01*
X-4457341Y-4284799D01*
X-4608359Y-4284581D01*
X-4768456Y-4304649D01*
X-4936270Y-4345098D01*
X-5110441Y-4406018D01*
X-5116848Y-4408609D01*
X-5284253Y-4489275D01*
X-5434574Y-4588496D01*
X-5568287Y-4706714D01*
X-5685865Y-4844372D01*
X-5787783Y-5001913D01*
X-5822613Y-5067300D01*
X-5875066Y-5180169D01*
X-5912195Y-5283054D01*
X-5936255Y-5384308D01*
X-5949495Y-5492284D01*
X-5952705Y-5549900D01*
X-5954845Y-5619435D01*
X-5954597Y-5670972D01*
X-5951228Y-5711859D01*
X-5944007Y-5749442D01*
X-5932199Y-5791069D01*
X-5927016Y-5807431D01*
X-5875575Y-5931643D01*
X-5804376Y-6050488D01*
X-5716991Y-6160171D01*
X-5616990Y-6256893D01*
X-5507945Y-6336860D01*
X-5393425Y-6396273D01*
X-5361778Y-6408387D01*
X-5248448Y-6435226D01*
X-5128416Y-6439284D01*
X-5004313Y-6421406D01*
X-4878773Y-6382433D01*
X-4754428Y-6323210D01*
X-4633910Y-6244577D01*
X-4519851Y-6147379D01*
X-4506943Y-6134726D01*
X-4405681Y-6018870D01*
X-4328040Y-5895601D01*
X-4273423Y-5763344D01*
X-4241232Y-5620525D01*
X-4230871Y-5465569D01*
X-4232199Y-5410200D01*
X-4245897Y-5289107D01*
X-4274748Y-5188282D01*
X-4318121Y-5108092D01*
X-4375382Y-5048907D01*
X-4445898Y-5011096D01*
X-4529037Y-4995027D01*
X-4624165Y-5001071D01*
X-4730649Y-5029595D01*
X-4820407Y-5067314D01*
X-4883211Y-5102498D01*
X-4948346Y-5147508D01*
X-5010488Y-5197803D01*
X-5064316Y-5248841D01*
X-5104503Y-5296081D01*
X-5121552Y-5324206D01*
X-5134590Y-5379460D01*
X-5131199Y-5452211D01*
X-5111692Y-5540854D01*
X-5076380Y-5643782D01*
X-5044727Y-5718414D01*
X-5025081Y-5763471D01*
X-5011102Y-5798803D01*
X-5004933Y-5818851D01*
X-5005099Y-5821320D01*
X-5017731Y-5828784D01*
X-5047701Y-5845484D01*
X-5089970Y-5868631D01*
X-5121548Y-5885757D01*
X-5232945Y-5945953D01*
X-5282082Y-5840001D01*
X-5326506Y-5740543D01*
X-5359257Y-5657539D01*
X-5381826Y-5585723D01*
X-5395702Y-5519823D01*
X-5402372Y-5454572D01*
X-5403549Y-5410200D01*
X-5403044Y-5351822D01*
X-5400016Y-5310506D01*
X-5392717Y-5277924D01*
X-5379401Y-5245750D01*
X-5362080Y-5212565D01*
X-5288585Y-5102288D01*
X-5193469Y-5000565D01*
X-5079859Y-4910219D01*
X-4950881Y-4834074D01*
X-4933950Y-4825751D01*
X-4798901Y-4771128D01*
X-4668734Y-4739013D01*
X-4544861Y-4729272D01*
X-4428691Y-4741771D01*
X-4321637Y-4776378D01*
X-4225107Y-4832958D01*
X-4150885Y-4899846D01*
X-4083772Y-4984744D01*
X-4033022Y-5078075D01*
X-3997181Y-5183778D01*
X-3974794Y-5305792D01*
X-3966606Y-5398455D01*
X-3968140Y-5575662D01*
X-3993672Y-5744575D01*
X-4043114Y-5904948D01*
X-4116375Y-6056534D01*
X-4213365Y-6199088D01*
X-4292020Y-6289889D01*
X-4419625Y-6410035D01*
X-4555580Y-6510937D01*
X-4697667Y-6591796D01*
X-4843668Y-6651813D01*
X-4991365Y-6690191D01*
X-5138541Y-6706129D01*
X-5282978Y-6698830D01*
X-5376885Y-6680600D01*
X-5512453Y-6633446D01*
X-5644195Y-6563678D01*
X-5769343Y-6474059D01*
X-5885127Y-6367354D01*
X-5988781Y-6246326D01*
X-6077534Y-6113739D01*
X-6148619Y-5972356D01*
X-6185090Y-5873750D01*
X-6203424Y-5795427D01*
X-6215619Y-5700238D01*
X-6221384Y-5596032D01*
X-6220426Y-5490659D01*
X-6212454Y-5391971D01*
X-6204851Y-5342737D01*
X-6158113Y-5161655D01*
X-6088111Y-4986260D01*
X-5996788Y-4819119D01*
X-5886090Y-4662798D01*
X-5757959Y-4519863D01*
X-5614340Y-4392881D01*
X-5457175Y-4284418D01*
X-5364166Y-4232823D01*
X-5177357Y-4148888D01*
X-4988652Y-4085475D01*
X-4800584Y-4042971D01*
X-4615690Y-4021761D01*
X-4436502Y-4022229D01*
X-4265556Y-4044760D01*
X-4210050Y-4057442D01*
X-4071480Y-4105627D01*
X-3940818Y-4176744D01*
X-3819398Y-4269188D01*
X-3708556Y-4381357D01*
X-3609628Y-4511646D01*
X-3523948Y-4658453D01*
X-3452853Y-4820173D01*
X-3397677Y-4995204D01*
X-3384790Y-5048465D01*
X-3346745Y-5267140D01*
X-3331249Y-5484418D01*
X-3338100Y-5697871D01*
X-3367094Y-5905069D01*
X-3418030Y-6103584D01*
X-3487779Y-6284604D01*
X-3552223Y-6405896D01*
X-3636187Y-6532482D01*
X-3735763Y-6659841D01*
X-3847042Y-6783456D01*
X-3966116Y-6898807D01*
X-4089076Y-7001374D01*
X-4140200Y-7039031D01*
X-4232638Y-7099175D01*
X-4340017Y-7160568D01*
X-4454533Y-7219300D01*
X-4568383Y-7271461D01*
X-4673762Y-7313141D01*
X-4714844Y-7326966D01*
X-4862197Y-7366066D01*
X-5009491Y-7391491D01*
X-5151870Y-7402898D01*
X-5284477Y-7399941D01*
X-5402457Y-7382275D01*
X-5422900Y-7377206D01*
X-5510927Y-7350357D01*
X-5613093Y-7313609D01*
X-5721717Y-7270062D01*
X-5829119Y-7222817D01*
X-5927615Y-7174973D01*
X-5940118Y-7168475D01*
X-6162367Y-7037732D01*
X-6369849Y-6886497D01*
X-6562364Y-6715088D01*
X-6739712Y-6523822D01*
X-6901692Y-6313017D01*
X-7048104Y-6082990D01*
X-7178747Y-5834059D01*
X-7293422Y-5566539D01*
X-7391927Y-5280750D01*
X-7474062Y-4977007D01*
X-7539628Y-4655629D01*
X-7544138Y-4629246D01*
X-7591981Y-4295751D01*
X-7620431Y-3978050D01*
X-7626769Y-3844123D01*
X-7629509Y-3768943D01*
X-7632531Y-3695579D01*
X-7635519Y-3631138D01*
X-7638157Y-3582727D01*
X-7638869Y-3571875D01*
X-7644445Y-3492500D01*
X-7380981Y-3492500D01*
X-7373909Y-3597275D01*
G36*
X-300530Y-6005881D02*
X-305171Y-6085367D01*
X-309370Y-6182320D01*
X-312870Y-6288808D01*
X-315416Y-6396897D01*
X-316749Y-6498655D01*
X-316809Y-6508750D01*
X-317724Y-6615691D01*
X-319583Y-6699129D01*
X-322895Y-6760959D01*
X-328168Y-6803073D01*
X-335911Y-6827366D01*
X-346632Y-6835730D01*
X-360840Y-6830060D01*
X-379042Y-6812249D01*
X-393581Y-6794651D01*
X-434431Y-6743073D01*
X-420702Y-6417134D01*
X-417176Y-6328866D01*
X-414364Y-6249290D01*
X-412359Y-6181825D01*
X-411249Y-6129888D01*
X-411127Y-6096899D01*
X-411907Y-6086260D01*
X-423164Y-6091225D01*
X-446887Y-6109247D01*
X-467375Y-6126979D01*
X-499302Y-6153556D01*
X-521761Y-6164531D01*
X-542414Y-6163057D01*
X-549322Y-6160689D01*
X-581818Y-6137290D01*
X-596620Y-6102787D01*
X-596900Y-6097217D01*
X-588096Y-6085823D01*
X-563718Y-6060213D01*
X-526814Y-6023439D01*
X-480437Y-5978557D01*
X-441325Y-5941462D01*
X-285750Y-5795112D01*
X-300530Y-6005881D01*
X-300530Y-6005881D01*
G37*
X-300530Y-6005881D02*
X-305171Y-6085367D01*
X-309370Y-6182320D01*
X-312870Y-6288808D01*
X-315416Y-6396897D01*
X-316749Y-6498655D01*
X-316809Y-6508750D01*
X-317724Y-6615691D01*
X-319583Y-6699129D01*
X-322895Y-6760959D01*
X-328168Y-6803073D01*
X-335911Y-6827366D01*
X-346632Y-6835730D01*
X-360840Y-6830060D01*
X-379042Y-6812249D01*
X-393581Y-6794651D01*
X-434431Y-6743073D01*
X-420702Y-6417134D01*
X-417176Y-6328866D01*
X-414364Y-6249290D01*
X-412359Y-6181825D01*
X-411249Y-6129888D01*
X-411127Y-6096899D01*
X-411907Y-6086260D01*
X-423164Y-6091225D01*
X-446887Y-6109247D01*
X-467375Y-6126979D01*
X-499302Y-6153556D01*
X-521761Y-6164531D01*
X-542414Y-6163057D01*
X-549322Y-6160689D01*
X-581818Y-6137290D01*
X-596620Y-6102787D01*
X-596900Y-6097217D01*
X-588096Y-6085823D01*
X-563718Y-6060213D01*
X-526814Y-6023439D01*
X-480437Y-5978557D01*
X-441325Y-5941462D01*
X-285750Y-5795112D01*
X-300530Y-6005881D01*
G36*
X1822013Y-5984813D02*
X1913664Y-6003221D01*
X1990986Y-6042537D01*
X2042727Y-6089343D01*
X2063206Y-6114539D01*
X2075200Y-6137486D01*
X2080970Y-6166265D01*
X2082777Y-6208959D01*
X2082897Y-6232966D01*
X2078538Y-6307205D01*
X2064777Y-6394140D01*
X2042694Y-6491516D01*
X2026166Y-6559059D01*
X2015818Y-6607107D01*
X2011052Y-6640642D01*
X2011273Y-6664650D01*
X2015882Y-6684113D01*
X2018737Y-6691541D01*
X2040957Y-6722993D01*
X2069498Y-6730992D01*
X2100813Y-6715491D01*
X2120900Y-6692900D01*
X2153930Y-6663333D01*
X2191935Y-6654654D01*
X2228151Y-6667702D01*
X2239690Y-6678144D01*
X2251036Y-6693538D01*
X2251292Y-6708735D01*
X2238768Y-6731386D01*
X2223006Y-6753684D01*
X2187461Y-6796577D01*
X2151968Y-6821966D01*
X2106725Y-6835758D01*
X2080137Y-6839812D01*
X2022238Y-6838623D01*
X1981200Y-6823764D01*
X1935775Y-6789461D01*
X1907195Y-6741204D01*
X1895223Y-6677569D01*
X1899619Y-6597134D01*
X1920145Y-6498477D01*
X1924207Y-6483439D01*
X1948202Y-6375357D01*
X1955152Y-6285266D01*
X1944926Y-6212206D01*
X1917391Y-6155218D01*
X1873610Y-6114118D01*
X1829098Y-6098816D01*
X1780250Y-6104050D01*
X1732731Y-6127008D01*
X1692207Y-6164877D01*
X1664344Y-6214847D01*
X1663052Y-6218610D01*
X1658276Y-6234527D01*
X1655549Y-6250539D01*
X1655357Y-6270296D01*
X1658189Y-6297442D01*
X1664532Y-6335625D01*
X1674872Y-6388491D01*
X1689699Y-6459688D01*
X1704736Y-6530504D01*
X1716649Y-6589187D01*
X1722824Y-6629759D01*
X1723590Y-6658771D01*
X1719271Y-6682778D01*
X1713218Y-6700590D01*
X1686172Y-6748650D01*
X1645737Y-6780537D01*
X1587884Y-6798817D01*
X1551445Y-6803632D01*
X1504823Y-6806370D01*
X1472656Y-6802769D01*
X1444353Y-6790721D01*
X1424486Y-6778338D01*
X1386559Y-6744747D01*
X1355247Y-6701952D01*
X1336415Y-6658935D01*
X1333500Y-6638974D01*
X1342245Y-6617131D01*
X1358388Y-6598113D01*
X1391722Y-6582068D01*
X1426437Y-6589413D01*
X1458008Y-6618835D01*
X1464559Y-6628942D01*
X1491552Y-6661908D01*
X1524125Y-6686615D01*
X1553333Y-6700935D01*
X1569926Y-6703611D01*
X1583933Y-6694502D01*
X1592942Y-6685642D01*
X1609054Y-6653474D01*
X1610342Y-6603364D01*
X1596733Y-6534410D01*
X1574800Y-6464300D01*
X1546053Y-6364017D01*
X1535997Y-6277866D01*
X1545036Y-6202347D01*
X1573574Y-6133965D01*
X1620236Y-6071180D01*
X1668384Y-6023944D01*
X1713195Y-5996095D01*
X1762583Y-5984247D01*
X1822013Y-5984813D01*
X1822013Y-5984813D01*
G37*
X1822013Y-5984813D02*
X1913664Y-6003221D01*
X1990986Y-6042537D01*
X2042727Y-6089343D01*
X2063206Y-6114539D01*
X2075200Y-6137486D01*
X2080970Y-6166265D01*
X2082777Y-6208959D01*
X2082897Y-6232966D01*
X2078538Y-6307205D01*
X2064777Y-6394140D01*
X2042694Y-6491516D01*
X2026166Y-6559059D01*
X2015818Y-6607107D01*
X2011052Y-6640642D01*
X2011273Y-6664650D01*
X2015882Y-6684113D01*
X2018737Y-6691541D01*
X2040957Y-6722993D01*
X2069498Y-6730992D01*
X2100813Y-6715491D01*
X2120900Y-6692900D01*
X2153930Y-6663333D01*
X2191935Y-6654654D01*
X2228151Y-6667702D01*
X2239690Y-6678144D01*
X2251036Y-6693538D01*
X2251292Y-6708735D01*
X2238768Y-6731386D01*
X2223006Y-6753684D01*
X2187461Y-6796577D01*
X2151968Y-6821966D01*
X2106725Y-6835758D01*
X2080137Y-6839812D01*
X2022238Y-6838623D01*
X1981200Y-6823764D01*
X1935775Y-6789461D01*
X1907195Y-6741204D01*
X1895223Y-6677569D01*
X1899619Y-6597134D01*
X1920145Y-6498477D01*
X1924207Y-6483439D01*
X1948202Y-6375357D01*
X1955152Y-6285266D01*
X1944926Y-6212206D01*
X1917391Y-6155218D01*
X1873610Y-6114118D01*
X1829098Y-6098816D01*
X1780250Y-6104050D01*
X1732731Y-6127008D01*
X1692207Y-6164877D01*
X1664344Y-6214847D01*
X1663052Y-6218610D01*
X1658276Y-6234527D01*
X1655549Y-6250539D01*
X1655357Y-6270296D01*
X1658189Y-6297442D01*
X1664532Y-6335625D01*
X1674872Y-6388491D01*
X1689699Y-6459688D01*
X1704736Y-6530504D01*
X1716649Y-6589187D01*
X1722824Y-6629759D01*
X1723590Y-6658771D01*
X1719271Y-6682778D01*
X1713218Y-6700590D01*
X1686172Y-6748650D01*
X1645737Y-6780537D01*
X1587884Y-6798817D01*
X1551445Y-6803632D01*
X1504823Y-6806370D01*
X1472656Y-6802769D01*
X1444353Y-6790721D01*
X1424486Y-6778338D01*
X1386559Y-6744747D01*
X1355247Y-6701952D01*
X1336415Y-6658935D01*
X1333500Y-6638974D01*
X1342245Y-6617131D01*
X1358388Y-6598113D01*
X1391722Y-6582068D01*
X1426437Y-6589413D01*
X1458008Y-6618835D01*
X1464559Y-6628942D01*
X1491552Y-6661908D01*
X1524125Y-6686615D01*
X1553333Y-6700935D01*
X1569926Y-6703611D01*
X1583933Y-6694502D01*
X1592942Y-6685642D01*
X1609054Y-6653474D01*
X1610342Y-6603364D01*
X1596733Y-6534410D01*
X1574800Y-6464300D01*
X1546053Y-6364017D01*
X1535997Y-6277866D01*
X1545036Y-6202347D01*
X1573574Y-6133965D01*
X1620236Y-6071180D01*
X1668384Y-6023944D01*
X1713195Y-5996095D01*
X1762583Y-5984247D01*
X1822013Y-5984813D01*
G36*
X1128600Y-5977192D02*
X1139650Y-6002606D01*
X1150369Y-6046495D01*
X1160947Y-6110112D01*
X1171579Y-6194711D01*
X1182455Y-6301545D01*
X1193769Y-6431868D01*
X1199844Y-6508750D01*
X1206214Y-6588699D01*
X1212467Y-6661923D01*
X1218185Y-6723906D01*
X1222950Y-6770137D01*
X1226342Y-6796102D01*
X1226643Y-6797675D01*
X1228960Y-6822745D01*
X1217745Y-6831492D01*
X1204334Y-6832091D01*
X1170780Y-6825567D01*
X1141810Y-6813676D01*
X1127943Y-6805026D01*
X1118321Y-6793739D01*
X1111823Y-6775119D01*
X1107329Y-6744471D01*
X1103717Y-6697102D01*
X1100535Y-6640740D01*
X1096931Y-6565738D01*
X1093800Y-6485965D01*
X1091545Y-6412528D01*
X1090697Y-6370231D01*
X1089269Y-6292448D01*
X1086206Y-6239506D01*
X1079810Y-6211000D01*
X1068384Y-6206526D01*
X1050231Y-6225680D01*
X1023652Y-6268056D01*
X986952Y-6333250D01*
X980966Y-6344071D01*
X947464Y-6404214D01*
X917159Y-6457748D01*
X892690Y-6500079D01*
X876694Y-6526612D01*
X873190Y-6531865D01*
X866113Y-6537662D01*
X858329Y-6533467D01*
X848468Y-6516367D01*
X835157Y-6483449D01*
X817026Y-6431798D01*
X795273Y-6366344D01*
X773527Y-6301121D01*
X753999Y-6244483D01*
X738253Y-6200819D01*
X727853Y-6174518D01*
X724967Y-6169031D01*
X717773Y-6177593D01*
X701877Y-6206561D01*
X678688Y-6253037D01*
X649611Y-6314127D01*
X616053Y-6386932D01*
X579422Y-6468557D01*
X578492Y-6470656D01*
X537077Y-6563879D01*
X504388Y-6636404D01*
X479001Y-6690814D01*
X459491Y-6729695D01*
X444434Y-6755632D01*
X432406Y-6771210D01*
X421981Y-6779014D01*
X411736Y-6781627D01*
X407035Y-6781800D01*
X368155Y-6772736D01*
X346312Y-6747616D01*
X342900Y-6727862D01*
X348223Y-6708613D01*
X362885Y-6671240D01*
X384921Y-6620368D01*
X412368Y-6560619D01*
X426775Y-6530377D01*
X465236Y-6449563D01*
X508176Y-6357714D01*
X550384Y-6266056D01*
X586654Y-6185816D01*
X587062Y-6184900D01*
X623914Y-6104284D01*
X653441Y-6045041D01*
X677250Y-6004768D01*
X696948Y-5981060D01*
X714142Y-5971511D01*
X728676Y-5972988D01*
X748129Y-5991166D01*
X772715Y-6031376D01*
X801144Y-6091074D01*
X832123Y-6167717D01*
X844303Y-6200775D01*
X861696Y-6246035D01*
X876994Y-6280313D01*
X887602Y-6297976D01*
X889597Y-6299200D01*
X899632Y-6288765D01*
X918039Y-6260872D01*
X941551Y-6220639D01*
X952441Y-6200775D01*
X984121Y-6145189D01*
X1018335Y-6090575D01*
X1051975Y-6041306D01*
X1081937Y-6001755D01*
X1105114Y-5976296D01*
X1117026Y-5969000D01*
X1128600Y-5977192D01*
X1128600Y-5977192D01*
G37*
X1128600Y-5977192D02*
X1139650Y-6002606D01*
X1150369Y-6046495D01*
X1160947Y-6110112D01*
X1171579Y-6194711D01*
X1182455Y-6301545D01*
X1193769Y-6431868D01*
X1199844Y-6508750D01*
X1206214Y-6588699D01*
X1212467Y-6661923D01*
X1218185Y-6723906D01*
X1222950Y-6770137D01*
X1226342Y-6796102D01*
X1226643Y-6797675D01*
X1228960Y-6822745D01*
X1217745Y-6831492D01*
X1204334Y-6832091D01*
X1170780Y-6825567D01*
X1141810Y-6813676D01*
X1127943Y-6805026D01*
X1118321Y-6793739D01*
X1111823Y-6775119D01*
X1107329Y-6744471D01*
X1103717Y-6697102D01*
X1100535Y-6640740D01*
X1096931Y-6565738D01*
X1093800Y-6485965D01*
X1091545Y-6412528D01*
X1090697Y-6370231D01*
X1089269Y-6292448D01*
X1086206Y-6239506D01*
X1079810Y-6211000D01*
X1068384Y-6206526D01*
X1050231Y-6225680D01*
X1023652Y-6268056D01*
X986952Y-6333250D01*
X980966Y-6344071D01*
X947464Y-6404214D01*
X917159Y-6457748D01*
X892690Y-6500079D01*
X876694Y-6526612D01*
X873190Y-6531865D01*
X866113Y-6537662D01*
X858329Y-6533467D01*
X848468Y-6516367D01*
X835157Y-6483449D01*
X817026Y-6431798D01*
X795273Y-6366344D01*
X773527Y-6301121D01*
X753999Y-6244483D01*
X738253Y-6200819D01*
X727853Y-6174518D01*
X724967Y-6169031D01*
X717773Y-6177593D01*
X701877Y-6206561D01*
X678688Y-6253037D01*
X649611Y-6314127D01*
X616053Y-6386932D01*
X579422Y-6468557D01*
X578492Y-6470656D01*
X537077Y-6563879D01*
X504388Y-6636404D01*
X479001Y-6690814D01*
X459491Y-6729695D01*
X444434Y-6755632D01*
X432406Y-6771210D01*
X421981Y-6779014D01*
X411736Y-6781627D01*
X407035Y-6781800D01*
X368155Y-6772736D01*
X346312Y-6747616D01*
X342900Y-6727862D01*
X348223Y-6708613D01*
X362885Y-6671240D01*
X384921Y-6620368D01*
X412368Y-6560619D01*
X426775Y-6530377D01*
X465236Y-6449563D01*
X508176Y-6357714D01*
X550384Y-6266056D01*
X586654Y-6185816D01*
X587062Y-6184900D01*
X623914Y-6104284D01*
X653441Y-6045041D01*
X677250Y-6004768D01*
X696948Y-5981060D01*
X714142Y-5971511D01*
X728676Y-5972988D01*
X748129Y-5991166D01*
X772715Y-6031376D01*
X801144Y-6091074D01*
X832123Y-6167717D01*
X844303Y-6200775D01*
X861696Y-6246035D01*
X876994Y-6280313D01*
X887602Y-6297976D01*
X889597Y-6299200D01*
X899632Y-6288765D01*
X918039Y-6260872D01*
X941551Y-6220639D01*
X952441Y-6200775D01*
X984121Y-6145189D01*
X1018335Y-6090575D01*
X1051975Y-6041306D01*
X1081937Y-6001755D01*
X1105114Y-5976296D01*
X1117026Y-5969000D01*
X1128600Y-5977192D01*
G36*
X225854Y-5966938D02*
X251845Y-5985870D01*
X274795Y-6022769D01*
X292038Y-6060572D01*
X319113Y-6153890D01*
X326919Y-6262187D01*
X315387Y-6383810D01*
X307407Y-6426200D01*
X280827Y-6536382D01*
X251673Y-6624149D01*
X218821Y-6692442D01*
X189833Y-6734175D01*
X162846Y-6763534D01*
X138470Y-6777313D01*
X105126Y-6780999D01*
X91150Y-6780950D01*
X40465Y-6776497D01*
X-10751Y-6766521D01*
X-21283Y-6763518D01*
X-92529Y-6734482D01*
X-144043Y-6698803D01*
X-173276Y-6658336D01*
X-175854Y-6651088D01*
X-192674Y-6571201D01*
X-195326Y-6507842D01*
X-87754Y-6507842D01*
X-87700Y-6553693D01*
X-81461Y-6583988D01*
X-66440Y-6603638D01*
X-40040Y-6617557D01*
X335Y-6630656D01*
X18608Y-6636063D01*
X69616Y-6645729D01*
X105973Y-6638373D01*
X132840Y-6612869D01*
X134164Y-6610889D01*
X163716Y-6553661D01*
X188544Y-6482489D01*
X207751Y-6403392D01*
X220437Y-6322391D01*
X225704Y-6245505D01*
X222654Y-6178754D01*
X210388Y-6128157D01*
X207220Y-6121400D01*
X189878Y-6093081D01*
X170455Y-6080573D01*
X138370Y-6077934D01*
X130019Y-6078057D01*
X88263Y-6084235D01*
X52245Y-6103168D01*
X17973Y-6138279D01*
X-18542Y-6192988D01*
X-32668Y-6217536D01*
X-51681Y-6253260D01*
X-64609Y-6284387D01*
X-73060Y-6317902D01*
X-78640Y-6360788D01*
X-82957Y-6420028D01*
X-84217Y-6441522D01*
X-87754Y-6507842D01*
X-195326Y-6507842D01*
X-196403Y-6482114D01*
X-187079Y-6378718D01*
X-178185Y-6323653D01*
X-166665Y-6260235D01*
X-157554Y-6215789D01*
X-148564Y-6184323D01*
X-137408Y-6159847D01*
X-121797Y-6136370D01*
X-99444Y-6107901D01*
X-92489Y-6099246D01*
X-24471Y-6034208D01*
X58484Y-5989536D01*
X140107Y-5967951D01*
X190662Y-5962217D01*
X225854Y-5966938D01*
X225854Y-5966938D01*
G37*
X225854Y-5966938D02*
X251845Y-5985870D01*
X274795Y-6022769D01*
X292038Y-6060572D01*
X319113Y-6153890D01*
X326919Y-6262187D01*
X315387Y-6383810D01*
X307407Y-6426200D01*
X280827Y-6536382D01*
X251673Y-6624149D01*
X218821Y-6692442D01*
X189833Y-6734175D01*
X162846Y-6763534D01*
X138470Y-6777313D01*
X105126Y-6780999D01*
X91150Y-6780950D01*
X40465Y-6776497D01*
X-10751Y-6766521D01*
X-21283Y-6763518D01*
X-92529Y-6734482D01*
X-144043Y-6698803D01*
X-173276Y-6658336D01*
X-175854Y-6651088D01*
X-192674Y-6571201D01*
X-195326Y-6507842D01*
X-87754Y-6507842D01*
X-87700Y-6553693D01*
X-81461Y-6583988D01*
X-66440Y-6603638D01*
X-40040Y-6617557D01*
X335Y-6630656D01*
X18608Y-6636063D01*
X69616Y-6645729D01*
X105973Y-6638373D01*
X132840Y-6612869D01*
X134164Y-6610889D01*
X163716Y-6553661D01*
X188544Y-6482489D01*
X207751Y-6403392D01*
X220437Y-6322391D01*
X225704Y-6245505D01*
X222654Y-6178754D01*
X210388Y-6128157D01*
X207220Y-6121400D01*
X189878Y-6093081D01*
X170455Y-6080573D01*
X138370Y-6077934D01*
X130019Y-6078057D01*
X88263Y-6084235D01*
X52245Y-6103168D01*
X17973Y-6138279D01*
X-18542Y-6192988D01*
X-32668Y-6217536D01*
X-51681Y-6253260D01*
X-64609Y-6284387D01*
X-73060Y-6317902D01*
X-78640Y-6360788D01*
X-82957Y-6420028D01*
X-84217Y-6441522D01*
X-87754Y-6507842D01*
X-195326Y-6507842D01*
X-196403Y-6482114D01*
X-187079Y-6378718D01*
X-178185Y-6323653D01*
X-166665Y-6260235D01*
X-157554Y-6215789D01*
X-148564Y-6184323D01*
X-137408Y-6159847D01*
X-121797Y-6136370D01*
X-99444Y-6107901D01*
X-92489Y-6099246D01*
X-24471Y-6034208D01*
X58484Y-5989536D01*
X140107Y-5967951D01*
X190662Y-5962217D01*
X225854Y-5966938D01*
G36*
X560734Y-4672071D02*
X599845Y-4674939D01*
X640018Y-4677690D01*
X727039Y-4682963D01*
X793216Y-4688536D01*
X843099Y-4695413D01*
X881236Y-4704596D01*
X912173Y-4717088D01*
X940460Y-4733893D01*
X960670Y-4748423D01*
X1016774Y-4799943D01*
X1050666Y-4856003D01*
X1065487Y-4922712D01*
X1066780Y-4954788D01*
X1054564Y-5030397D01*
X1018318Y-5099058D01*
X958712Y-5159750D01*
X910804Y-5192640D01*
X839102Y-5235431D01*
X895757Y-5282247D01*
X942522Y-5325219D01*
X993415Y-5379222D01*
X1045451Y-5440241D01*
X1095650Y-5504261D01*
X1141029Y-5567267D01*
X1178605Y-5625246D01*
X1205397Y-5674182D01*
X1218422Y-5710061D01*
X1219200Y-5717664D01*
X1207234Y-5739636D01*
X1174276Y-5758890D01*
X1125513Y-5772694D01*
X1093999Y-5776247D01*
X1080886Y-5770169D01*
X1079500Y-5763124D01*
X1071610Y-5740402D01*
X1050113Y-5703166D01*
X1018265Y-5655893D01*
X979324Y-5603063D01*
X936547Y-5549154D01*
X893192Y-5498644D01*
X865786Y-5469288D01*
X815102Y-5420631D01*
X757097Y-5370001D01*
X702667Y-5326819D01*
X692150Y-5319180D01*
X603250Y-5256034D01*
X592705Y-5514092D01*
X589113Y-5592619D01*
X585191Y-5662397D01*
X581221Y-5719484D01*
X577485Y-5759936D01*
X574264Y-5779809D01*
X573655Y-5781024D01*
X554836Y-5789668D01*
X522826Y-5796540D01*
X488203Y-5800267D01*
X461550Y-5799478D01*
X454025Y-5796529D01*
X451988Y-5782174D01*
X450100Y-5745111D01*
X448409Y-5688033D01*
X446961Y-5613633D01*
X445805Y-5524601D01*
X444987Y-5423630D01*
X444556Y-5313414D01*
X444500Y-5255683D01*
X444278Y-5117595D01*
X444235Y-5091503D01*
X596900Y-5091503D01*
X663575Y-5085155D01*
X715689Y-5079886D01*
X768392Y-5074094D01*
X785819Y-5072036D01*
X840602Y-5055982D01*
X879375Y-5025663D01*
X899481Y-4985216D01*
X898262Y-4938776D01*
X887975Y-4912985D01*
X859078Y-4883125D01*
X810664Y-4859512D01*
X748257Y-4844138D01*
X682625Y-4838978D01*
X596900Y-4838700D01*
X596900Y-5091503D01*
X444235Y-5091503D01*
X444088Y-5002803D01*
X444636Y-4909208D01*
X446633Y-4834717D01*
X450788Y-4777232D01*
X457810Y-4734657D01*
X468407Y-4704896D01*
X483289Y-4685853D01*
X503164Y-4675432D01*
X528743Y-4671537D01*
X560734Y-4672071D01*
X560734Y-4672071D01*
G37*
X560734Y-4672071D02*
X599845Y-4674939D01*
X640018Y-4677690D01*
X727039Y-4682963D01*
X793216Y-4688536D01*
X843099Y-4695413D01*
X881236Y-4704596D01*
X912173Y-4717088D01*
X940460Y-4733893D01*
X960670Y-4748423D01*
X1016774Y-4799943D01*
X1050666Y-4856003D01*
X1065487Y-4922712D01*
X1066780Y-4954788D01*
X1054564Y-5030397D01*
X1018318Y-5099058D01*
X958712Y-5159750D01*
X910804Y-5192640D01*
X839102Y-5235431D01*
X895757Y-5282247D01*
X942522Y-5325219D01*
X993415Y-5379222D01*
X1045451Y-5440241D01*
X1095650Y-5504261D01*
X1141029Y-5567267D01*
X1178605Y-5625246D01*
X1205397Y-5674182D01*
X1218422Y-5710061D01*
X1219200Y-5717664D01*
X1207234Y-5739636D01*
X1174276Y-5758890D01*
X1125513Y-5772694D01*
X1093999Y-5776247D01*
X1080886Y-5770169D01*
X1079500Y-5763124D01*
X1071610Y-5740402D01*
X1050113Y-5703166D01*
X1018265Y-5655893D01*
X979324Y-5603063D01*
X936547Y-5549154D01*
X893192Y-5498644D01*
X865786Y-5469288D01*
X815102Y-5420631D01*
X757097Y-5370001D01*
X702667Y-5326819D01*
X692150Y-5319180D01*
X603250Y-5256034D01*
X592705Y-5514092D01*
X589113Y-5592619D01*
X585191Y-5662397D01*
X581221Y-5719484D01*
X577485Y-5759936D01*
X574264Y-5779809D01*
X573655Y-5781024D01*
X554836Y-5789668D01*
X522826Y-5796540D01*
X488203Y-5800267D01*
X461550Y-5799478D01*
X454025Y-5796529D01*
X451988Y-5782174D01*
X450100Y-5745111D01*
X448409Y-5688033D01*
X446961Y-5613633D01*
X445805Y-5524601D01*
X444987Y-5423630D01*
X444556Y-5313414D01*
X444500Y-5255683D01*
X444278Y-5117595D01*
X444235Y-5091503D01*
X596900Y-5091503D01*
X663575Y-5085155D01*
X715689Y-5079886D01*
X768392Y-5074094D01*
X785819Y-5072036D01*
X840602Y-5055982D01*
X879375Y-5025663D01*
X899481Y-4985216D01*
X898262Y-4938776D01*
X887975Y-4912985D01*
X859078Y-4883125D01*
X810664Y-4859512D01*
X748257Y-4844138D01*
X682625Y-4838978D01*
X596900Y-4838700D01*
X596900Y-5091503D01*
X444235Y-5091503D01*
X444088Y-5002803D01*
X444636Y-4909208D01*
X446633Y-4834717D01*
X450788Y-4777232D01*
X457810Y-4734657D01*
X468407Y-4704896D01*
X483289Y-4685853D01*
X503164Y-4675432D01*
X528743Y-4671537D01*
X560734Y-4672071D01*
G36*
X-1898855Y-25195D02*
X-1866844Y-63328D01*
X-1858628Y-94771D01*
X-1874510Y-122490D01*
X-1911350Y-147622D01*
X-1941285Y-161965D01*
X-1968450Y-168620D01*
X-2002123Y-168609D01*
X-2051050Y-163026D01*
X-2181154Y-157035D01*
X-2305860Y-173672D01*
X-2422452Y-211675D01*
X-2528214Y-269778D01*
X-2620429Y-346716D01*
X-2696380Y-441224D01*
X-2715302Y-472310D01*
X-2763490Y-573000D01*
X-2794306Y-677606D01*
X-2809352Y-792862D01*
X-2811438Y-876300D01*
X-2806581Y-978366D01*
X-2793019Y-1060534D01*
X-2769403Y-1127215D01*
X-2734388Y-1182822D01*
X-2709334Y-1210733D01*
X-2660881Y-1251410D01*
X-2606103Y-1280683D01*
X-2540360Y-1299932D01*
X-2459008Y-1310536D01*
X-2362200Y-1313861D01*
X-2293992Y-1313677D01*
X-2245073Y-1311963D01*
X-2209343Y-1307863D01*
X-2180701Y-1300522D01*
X-2153047Y-1289085D01*
X-2139950Y-1282700D01*
X-2088701Y-1248999D01*
X-2054488Y-1205448D01*
X-2034915Y-1147526D01*
X-2027584Y-1070770D01*
X-2025650Y-986658D01*
X-2086009Y-942966D01*
X-2147766Y-907791D01*
X-2200309Y-893484D01*
X-2259984Y-886772D01*
X-2299338Y-880495D01*
X-2323309Y-872421D01*
X-2336837Y-860323D01*
X-2344862Y-841970D01*
X-2349304Y-826228D01*
X-2355046Y-778853D01*
X-2347743Y-737375D01*
X-2329223Y-709357D01*
X-2319732Y-703852D01*
X-2302046Y-703417D01*
X-2263587Y-706300D01*
X-2208701Y-712049D01*
X-2141732Y-720213D01*
X-2073073Y-729485D01*
X-1988679Y-740447D01*
X-1902634Y-749979D01*
X-1822240Y-757384D01*
X-1754800Y-761966D01*
X-1720875Y-763105D01*
X-1597886Y-764396D01*
X-1573922Y-817173D01*
X-1555401Y-864643D01*
X-1551720Y-897079D01*
X-1563174Y-920267D01*
X-1579852Y-933766D01*
X-1600810Y-943398D01*
X-1629385Y-947802D01*
X-1670155Y-946953D01*
X-1727695Y-940826D01*
X-1785680Y-932588D01*
X-1825110Y-926641D01*
X-1833817Y-1031645D01*
X-1847810Y-1144992D01*
X-1869383Y-1244986D01*
X-1897550Y-1328795D01*
X-1931323Y-1393585D01*
X-1969715Y-1436525D01*
X-1976608Y-1441433D01*
X-2023330Y-1462230D01*
X-2090031Y-1478483D01*
X-2171642Y-1489869D01*
X-2263093Y-1496064D01*
X-2359317Y-1496747D01*
X-2455245Y-1491595D01*
X-2545809Y-1480284D01*
X-2556726Y-1478380D01*
X-2675855Y-1447120D01*
X-2775811Y-1399437D01*
X-2857444Y-1334538D01*
X-2921601Y-1251630D01*
X-2969130Y-1149921D01*
X-2991866Y-1071841D01*
X-3004354Y-991815D01*
X-3009525Y-895855D01*
X-3007750Y-792234D01*
X-2999398Y-689227D01*
X-2984840Y-595108D01*
X-2967466Y-527050D01*
X-2914840Y-399526D01*
X-2845142Y-284081D01*
X-2760916Y-183386D01*
X-2664704Y-100113D01*
X-2559048Y-36933D01*
X-2467974Y-2230D01*
X-2431063Y6357D01*
X-2386453Y12457D01*
X-2329645Y16392D01*
X-2256136Y18481D01*
X-2169224Y19050D01*
X-1944498Y19050D01*
X-1898855Y-25195D01*
X-1898855Y-25195D01*
G37*
X-1898855Y-25195D02*
X-1866844Y-63328D01*
X-1858628Y-94771D01*
X-1874510Y-122490D01*
X-1911350Y-147622D01*
X-1941285Y-161965D01*
X-1968450Y-168620D01*
X-2002123Y-168609D01*
X-2051050Y-163026D01*
X-2181154Y-157035D01*
X-2305860Y-173672D01*
X-2422452Y-211675D01*
X-2528214Y-269778D01*
X-2620429Y-346716D01*
X-2696380Y-441224D01*
X-2715302Y-472310D01*
X-2763490Y-573000D01*
X-2794306Y-677606D01*
X-2809352Y-792862D01*
X-2811438Y-876300D01*
X-2806581Y-978366D01*
X-2793019Y-1060534D01*
X-2769403Y-1127215D01*
X-2734388Y-1182822D01*
X-2709334Y-1210733D01*
X-2660881Y-1251410D01*
X-2606103Y-1280683D01*
X-2540360Y-1299932D01*
X-2459008Y-1310536D01*
X-2362200Y-1313861D01*
X-2293992Y-1313677D01*
X-2245073Y-1311963D01*
X-2209343Y-1307863D01*
X-2180701Y-1300522D01*
X-2153047Y-1289085D01*
X-2139950Y-1282700D01*
X-2088701Y-1248999D01*
X-2054488Y-1205448D01*
X-2034915Y-1147526D01*
X-2027584Y-1070770D01*
X-2025650Y-986658D01*
X-2086009Y-942966D01*
X-2147766Y-907791D01*
X-2200309Y-893484D01*
X-2259984Y-886772D01*
X-2299338Y-880495D01*
X-2323309Y-872421D01*
X-2336837Y-860323D01*
X-2344862Y-841970D01*
X-2349304Y-826228D01*
X-2355046Y-778853D01*
X-2347743Y-737375D01*
X-2329223Y-709357D01*
X-2319732Y-703852D01*
X-2302046Y-703417D01*
X-2263587Y-706300D01*
X-2208701Y-712049D01*
X-2141732Y-720213D01*
X-2073073Y-729485D01*
X-1988679Y-740447D01*
X-1902634Y-749979D01*
X-1822240Y-757384D01*
X-1754800Y-761966D01*
X-1720875Y-763105D01*
X-1597886Y-764396D01*
X-1573922Y-817173D01*
X-1555401Y-864643D01*
X-1551720Y-897079D01*
X-1563174Y-920267D01*
X-1579852Y-933766D01*
X-1600810Y-943398D01*
X-1629385Y-947802D01*
X-1670155Y-946953D01*
X-1727695Y-940826D01*
X-1785680Y-932588D01*
X-1825110Y-926641D01*
X-1833817Y-1031645D01*
X-1847810Y-1144992D01*
X-1869383Y-1244986D01*
X-1897550Y-1328795D01*
X-1931323Y-1393585D01*
X-1969715Y-1436525D01*
X-1976608Y-1441433D01*
X-2023330Y-1462230D01*
X-2090031Y-1478483D01*
X-2171642Y-1489869D01*
X-2263093Y-1496064D01*
X-2359317Y-1496747D01*
X-2455245Y-1491595D01*
X-2545809Y-1480284D01*
X-2556726Y-1478380D01*
X-2675855Y-1447120D01*
X-2775811Y-1399437D01*
X-2857444Y-1334538D01*
X-2921601Y-1251630D01*
X-2969130Y-1149921D01*
X-2991866Y-1071841D01*
X-3004354Y-991815D01*
X-3009525Y-895855D01*
X-3007750Y-792234D01*
X-2999398Y-689227D01*
X-2984840Y-595108D01*
X-2967466Y-527050D01*
X-2914840Y-399526D01*
X-2845142Y-284081D01*
X-2760916Y-183386D01*
X-2664704Y-100113D01*
X-2559048Y-36933D01*
X-2467974Y-2230D01*
X-2431063Y6357D01*
X-2386453Y12457D01*
X-2329645Y16392D01*
X-2256136Y18481D01*
X-2169224Y19050D01*
X-1944498Y19050D01*
X-1898855Y-25195D01*
G36*
X3628781Y50264D02*
X3689195Y47458D01*
X3715301Y44931D01*
X3755371Y38595D01*
X3777833Y29270D01*
X3790414Y12198D01*
X3796968Y-5345D01*
X3802964Y-58368D01*
X3784151Y-105942D01*
X3760859Y-131960D01*
X3748877Y-141415D01*
X3734850Y-147415D01*
X3714222Y-150131D01*
X3682436Y-149735D01*
X3634934Y-146400D01*
X3567160Y-140297D01*
X3559377Y-139568D01*
X3456356Y-131881D01*
X3373232Y-130774D01*
X3305196Y-136935D01*
X3247439Y-151049D01*
X3195150Y-173804D01*
X3156413Y-197098D01*
X3069657Y-266355D01*
X3005470Y-344489D01*
X2984577Y-380847D01*
X2966299Y-421397D01*
X2961865Y-451784D01*
X2972795Y-480329D01*
X3000610Y-515355D01*
X3011277Y-527073D01*
X3063092Y-574216D01*
X3124566Y-611748D01*
X3200357Y-641792D01*
X3295121Y-666474D01*
X3334066Y-674322D01*
X3398837Y-688337D01*
X3461821Y-704960D01*
X3514269Y-721738D01*
X3538971Y-731756D01*
X3615912Y-780324D01*
X3671978Y-842133D01*
X3706499Y-915038D01*
X3718810Y-996891D01*
X3708241Y-1085546D01*
X3676512Y-1173877D01*
X3626627Y-1257108D01*
X3561321Y-1327147D01*
X3479421Y-1384446D01*
X3379753Y-1429459D01*
X3261142Y-1462636D01*
X3122416Y-1484429D01*
X2962399Y-1495292D01*
X2838450Y-1496646D01*
X2764521Y-1495733D01*
X2697405Y-1494387D01*
X2642115Y-1492747D01*
X2603663Y-1490955D01*
X2589355Y-1489670D01*
X2556898Y-1472716D01*
X2535255Y-1436472D01*
X2527300Y-1385774D01*
X2527300Y-1385257D01*
X2528641Y-1362981D01*
X2534650Y-1345927D01*
X2548308Y-1333398D01*
X2572595Y-1324697D01*
X2610490Y-1319126D01*
X2664973Y-1315988D01*
X2739024Y-1314586D01*
X2830883Y-1314226D01*
X2923567Y-1313841D01*
X2995851Y-1312605D01*
X3052733Y-1310131D01*
X3099208Y-1306034D01*
X3140274Y-1299924D01*
X3180926Y-1291417D01*
X3206750Y-1285113D01*
X3298635Y-1258589D01*
X3369540Y-1229977D01*
X3423883Y-1196969D01*
X3466082Y-1157259D01*
X3476625Y-1144232D01*
X3504257Y-1101501D01*
X3516272Y-1061942D01*
X3517900Y-1034889D01*
X3516763Y-992099D01*
X3511158Y-959456D01*
X3497796Y-934450D01*
X3473386Y-914576D01*
X3434639Y-897326D01*
X3378263Y-880193D01*
X3300969Y-860669D01*
X3283857Y-856533D01*
X3150205Y-820458D01*
X3039769Y-781785D01*
X2950405Y-739319D01*
X2879967Y-691864D01*
X2826311Y-638223D01*
X2789003Y-580590D01*
X2758218Y-495590D01*
X2752775Y-410763D01*
X2772616Y-326343D01*
X2817681Y-242567D01*
X2887913Y-159669D01*
X2895179Y-152538D01*
X2978414Y-82195D01*
X3069961Y-22331D01*
X3160475Y20985D01*
X3165227Y22763D01*
X3198222Y30229D01*
X3251242Y36876D01*
X3318916Y42488D01*
X3395876Y46850D01*
X3476753Y49744D01*
X3556178Y50954D01*
X3628781Y50264D01*
X3628781Y50264D01*
G37*
X3628781Y50264D02*
X3689195Y47458D01*
X3715301Y44931D01*
X3755371Y38595D01*
X3777833Y29270D01*
X3790414Y12198D01*
X3796968Y-5345D01*
X3802964Y-58368D01*
X3784151Y-105942D01*
X3760859Y-131960D01*
X3748877Y-141415D01*
X3734850Y-147415D01*
X3714222Y-150131D01*
X3682436Y-149735D01*
X3634934Y-146400D01*
X3567160Y-140297D01*
X3559377Y-139568D01*
X3456356Y-131881D01*
X3373232Y-130774D01*
X3305196Y-136935D01*
X3247439Y-151049D01*
X3195150Y-173804D01*
X3156413Y-197098D01*
X3069657Y-266355D01*
X3005470Y-344489D01*
X2984577Y-380847D01*
X2966299Y-421397D01*
X2961865Y-451784D01*
X2972795Y-480329D01*
X3000610Y-515355D01*
X3011277Y-527073D01*
X3063092Y-574216D01*
X3124566Y-611748D01*
X3200357Y-641792D01*
X3295121Y-666474D01*
X3334066Y-674322D01*
X3398837Y-688337D01*
X3461821Y-704960D01*
X3514269Y-721738D01*
X3538971Y-731756D01*
X3615912Y-780324D01*
X3671978Y-842133D01*
X3706499Y-915038D01*
X3718810Y-996891D01*
X3708241Y-1085546D01*
X3676512Y-1173877D01*
X3626627Y-1257108D01*
X3561321Y-1327147D01*
X3479421Y-1384446D01*
X3379753Y-1429459D01*
X3261142Y-1462636D01*
X3122416Y-1484429D01*
X2962399Y-1495292D01*
X2838450Y-1496646D01*
X2764521Y-1495733D01*
X2697405Y-1494387D01*
X2642115Y-1492747D01*
X2603663Y-1490955D01*
X2589355Y-1489670D01*
X2556898Y-1472716D01*
X2535255Y-1436472D01*
X2527300Y-1385774D01*
X2527300Y-1385257D01*
X2528641Y-1362981D01*
X2534650Y-1345927D01*
X2548308Y-1333398D01*
X2572595Y-1324697D01*
X2610490Y-1319126D01*
X2664973Y-1315988D01*
X2739024Y-1314586D01*
X2830883Y-1314226D01*
X2923567Y-1313841D01*
X2995851Y-1312605D01*
X3052733Y-1310131D01*
X3099208Y-1306034D01*
X3140274Y-1299924D01*
X3180926Y-1291417D01*
X3206750Y-1285113D01*
X3298635Y-1258589D01*
X3369540Y-1229977D01*
X3423883Y-1196969D01*
X3466082Y-1157259D01*
X3476625Y-1144232D01*
X3504257Y-1101501D01*
X3516272Y-1061942D01*
X3517900Y-1034889D01*
X3516763Y-992099D01*
X3511158Y-959456D01*
X3497796Y-934450D01*
X3473386Y-914576D01*
X3434639Y-897326D01*
X3378263Y-880193D01*
X3300969Y-860669D01*
X3283857Y-856533D01*
X3150205Y-820458D01*
X3039769Y-781785D01*
X2950405Y-739319D01*
X2879967Y-691864D01*
X2826311Y-638223D01*
X2789003Y-580590D01*
X2758218Y-495590D01*
X2752775Y-410763D01*
X2772616Y-326343D01*
X2817681Y-242567D01*
X2887913Y-159669D01*
X2895179Y-152538D01*
X2978414Y-82195D01*
X3069961Y-22331D01*
X3160475Y20985D01*
X3165227Y22763D01*
X3198222Y30229D01*
X3251242Y36876D01*
X3318916Y42488D01*
X3395876Y46850D01*
X3476753Y49744D01*
X3556178Y50954D01*
X3628781Y50264D01*
G36*
X-5036145Y3648913D02*
X-4993729Y3633503D01*
X-4954255Y3608916D01*
X-4947491Y3603169D01*
X-4916228Y3575050D01*
X-5176105Y2947268D01*
X-5225483Y2828122D01*
X-5271984Y2716179D01*
X-5314699Y2613612D01*
X-5352716Y2522595D01*
X-5385126Y2445300D01*
X-5411019Y2383900D01*
X-5429484Y2340569D01*
X-5439611Y2317480D01*
X-5441252Y2314215D01*
X-5447288Y2322555D01*
X-5458066Y2349482D01*
X-5471263Y2389183D01*
X-5471375Y2389548D01*
X-5515498Y2533328D01*
X-5558959Y2676255D01*
X-5601148Y2816227D01*
X-5641452Y2951141D01*
X-5679261Y3078897D01*
X-5713963Y3197390D01*
X-5744947Y3304520D01*
X-5771600Y3398183D01*
X-5793312Y3476278D01*
X-5809471Y3536702D01*
X-5819465Y3577353D01*
X-5822684Y3596129D01*
X-5822556Y3596899D01*
X-5806529Y3616694D01*
X-5783216Y3633075D01*
X-5752531Y3642822D01*
X-5712797Y3647436D01*
X-5673843Y3646720D01*
X-5645499Y3640477D01*
X-5638957Y3635971D01*
X-5633218Y3621641D01*
X-5621244Y3586108D01*
X-5604029Y3532514D01*
X-5582566Y3464007D01*
X-5557850Y3383732D01*
X-5530872Y3294833D01*
X-5524346Y3273141D01*
X-5497109Y3183832D01*
X-5471825Y3103502D01*
X-5449477Y3035074D01*
X-5431048Y2981470D01*
X-5417522Y2945612D01*
X-5409882Y2930422D01*
X-5408958Y2930241D01*
X-5401880Y2944080D01*
X-5386487Y2978405D01*
X-5364071Y3030188D01*
X-5335926Y3096404D01*
X-5303347Y3174027D01*
X-5267627Y3260029D01*
X-5258165Y3282950D01*
X-5221455Y3371157D01*
X-5187067Y3452197D01*
X-5156379Y3522943D01*
X-5130772Y3580266D01*
X-5111625Y3621040D01*
X-5100318Y3642137D01*
X-5098950Y3643900D01*
X-5073790Y3653070D01*
X-5036145Y3648913D01*
X-5036145Y3648913D01*
G37*
X-5036145Y3648913D02*
X-4993729Y3633503D01*
X-4954255Y3608916D01*
X-4947491Y3603169D01*
X-4916228Y3575050D01*
X-5176105Y2947268D01*
X-5225483Y2828122D01*
X-5271984Y2716179D01*
X-5314699Y2613612D01*
X-5352716Y2522595D01*
X-5385126Y2445300D01*
X-5411019Y2383900D01*
X-5429484Y2340569D01*
X-5439611Y2317480D01*
X-5441252Y2314215D01*
X-5447288Y2322555D01*
X-5458066Y2349482D01*
X-5471263Y2389183D01*
X-5471375Y2389548D01*
X-5515498Y2533328D01*
X-5558959Y2676255D01*
X-5601148Y2816227D01*
X-5641452Y2951141D01*
X-5679261Y3078897D01*
X-5713963Y3197390D01*
X-5744947Y3304520D01*
X-5771600Y3398183D01*
X-5793312Y3476278D01*
X-5809471Y3536702D01*
X-5819465Y3577353D01*
X-5822684Y3596129D01*
X-5822556Y3596899D01*
X-5806529Y3616694D01*
X-5783216Y3633075D01*
X-5752531Y3642822D01*
X-5712797Y3647436D01*
X-5673843Y3646720D01*
X-5645499Y3640477D01*
X-5638957Y3635971D01*
X-5633218Y3621641D01*
X-5621244Y3586108D01*
X-5604029Y3532514D01*
X-5582566Y3464007D01*
X-5557850Y3383732D01*
X-5530872Y3294833D01*
X-5524346Y3273141D01*
X-5497109Y3183832D01*
X-5471825Y3103502D01*
X-5449477Y3035074D01*
X-5431048Y2981470D01*
X-5417522Y2945612D01*
X-5409882Y2930422D01*
X-5408958Y2930241D01*
X-5401880Y2944080D01*
X-5386487Y2978405D01*
X-5364071Y3030188D01*
X-5335926Y3096404D01*
X-5303347Y3174027D01*
X-5267627Y3260029D01*
X-5258165Y3282950D01*
X-5221455Y3371157D01*
X-5187067Y3452197D01*
X-5156379Y3522943D01*
X-5130772Y3580266D01*
X-5111625Y3621040D01*
X-5100318Y3642137D01*
X-5098950Y3643900D01*
X-5073790Y3653070D01*
X-5036145Y3648913D01*
G36*
X7505882Y3651818D02*
X7543625Y3639815D01*
X7582428Y3621235D01*
X7613927Y3600138D01*
X7629755Y3580579D01*
X7630092Y3579213D01*
X7625939Y3565251D01*
X7613173Y3530471D01*
X7592870Y3477532D01*
X7566109Y3409094D01*
X7533967Y3327818D01*
X7497520Y3236363D01*
X7457848Y3137390D01*
X7416026Y3033557D01*
X7373133Y2927526D01*
X7330247Y2821956D01*
X7288443Y2719507D01*
X7248801Y2622839D01*
X7212397Y2534613D01*
X7180309Y2457487D01*
X7153615Y2394122D01*
X7133391Y2347179D01*
X7120716Y2319316D01*
X7117092Y2312758D01*
X7109644Y2317754D01*
X7106049Y2325458D01*
X7098535Y2348089D01*
X7085026Y2391210D01*
X7066356Y2452011D01*
X7043361Y2527683D01*
X7016877Y2615417D01*
X6987740Y2712404D01*
X6956784Y2815836D01*
X6924844Y2922903D01*
X6892758Y3030796D01*
X6861359Y3136706D01*
X6831484Y3237824D01*
X6803968Y3331341D01*
X6779645Y3414449D01*
X6759353Y3484337D01*
X6743926Y3538198D01*
X6734199Y3573221D01*
X6731000Y3586492D01*
X6742568Y3611369D01*
X6772761Y3632265D01*
X6814810Y3645781D01*
X6855323Y3648910D01*
X6890540Y3646363D01*
X6913445Y3642498D01*
X6917111Y3640822D01*
X6922169Y3627605D01*
X6933552Y3593161D01*
X6950284Y3540595D01*
X6971390Y3473010D01*
X6995895Y3393508D01*
X7022824Y3305192D01*
X7029106Y3284459D01*
X7056461Y3194131D01*
X7081520Y3111474D01*
X7103312Y3039682D01*
X7120868Y2981949D01*
X7133217Y2941468D01*
X7139388Y2921433D01*
X7139810Y2920119D01*
X7145550Y2927938D01*
X7159650Y2956626D01*
X7180931Y3003511D01*
X7208217Y3065922D01*
X7240332Y3141185D01*
X7276099Y3226628D01*
X7296497Y3276008D01*
X7340062Y3381422D01*
X7375417Y3465537D01*
X7403679Y3530679D01*
X7425964Y3579174D01*
X7443389Y3613348D01*
X7457071Y3635529D01*
X7468127Y3648042D01*
X7477567Y3653187D01*
X7505882Y3651818D01*
X7505882Y3651818D01*
G37*
X7505882Y3651818D02*
X7543625Y3639815D01*
X7582428Y3621235D01*
X7613927Y3600138D01*
X7629755Y3580579D01*
X7630092Y3579213D01*
X7625939Y3565251D01*
X7613173Y3530471D01*
X7592870Y3477532D01*
X7566109Y3409094D01*
X7533967Y3327818D01*
X7497520Y3236363D01*
X7457848Y3137390D01*
X7416026Y3033557D01*
X7373133Y2927526D01*
X7330247Y2821956D01*
X7288443Y2719507D01*
X7248801Y2622839D01*
X7212397Y2534613D01*
X7180309Y2457487D01*
X7153615Y2394122D01*
X7133391Y2347179D01*
X7120716Y2319316D01*
X7117092Y2312758D01*
X7109644Y2317754D01*
X7106049Y2325458D01*
X7098535Y2348089D01*
X7085026Y2391210D01*
X7066356Y2452011D01*
X7043361Y2527683D01*
X7016877Y2615417D01*
X6987740Y2712404D01*
X6956784Y2815836D01*
X6924844Y2922903D01*
X6892758Y3030796D01*
X6861359Y3136706D01*
X6831484Y3237824D01*
X6803968Y3331341D01*
X6779645Y3414449D01*
X6759353Y3484337D01*
X6743926Y3538198D01*
X6734199Y3573221D01*
X6731000Y3586492D01*
X6742568Y3611369D01*
X6772761Y3632265D01*
X6814810Y3645781D01*
X6855323Y3648910D01*
X6890540Y3646363D01*
X6913445Y3642498D01*
X6917111Y3640822D01*
X6922169Y3627605D01*
X6933552Y3593161D01*
X6950284Y3540595D01*
X6971390Y3473010D01*
X6995895Y3393508D01*
X7022824Y3305192D01*
X7029106Y3284459D01*
X7056461Y3194131D01*
X7081520Y3111474D01*
X7103312Y3039682D01*
X7120868Y2981949D01*
X7133217Y2941468D01*
X7139388Y2921433D01*
X7139810Y2920119D01*
X7145550Y2927938D01*
X7159650Y2956626D01*
X7180931Y3003511D01*
X7208217Y3065922D01*
X7240332Y3141185D01*
X7276099Y3226628D01*
X7296497Y3276008D01*
X7340062Y3381422D01*
X7375417Y3465537D01*
X7403679Y3530679D01*
X7425964Y3579174D01*
X7443389Y3613348D01*
X7457071Y3635529D01*
X7468127Y3648042D01*
X7477567Y3653187D01*
X7505882Y3651818D01*
G36*
X-6196162Y3374856D02*
X-6158044Y3367204D01*
X-6153128Y3365492D01*
X-6119703Y3352784D01*
X-6128635Y3219442D01*
X-6131863Y3164741D01*
X-6133624Y3120865D01*
X-6133760Y3093051D01*
X-6132659Y3085875D01*
X-6102828Y3083560D01*
X-6060443Y3079143D01*
X-6012311Y3073483D01*
X-5965238Y3067437D01*
X-5926031Y3061861D01*
X-5901498Y3057615D01*
X-5896713Y3056147D01*
X-5892310Y3039415D01*
X-5890108Y3006041D01*
X-5890048Y2964682D01*
X-5892068Y2923994D01*
X-5896108Y2892635D01*
X-5897915Y2885684D01*
X-5909188Y2865816D01*
X-5930266Y2860948D01*
X-5947756Y2862853D01*
X-5982922Y2867468D01*
X-6030869Y2872866D01*
X-6065452Y2876352D01*
X-6142853Y2883715D01*
X-6151184Y2728784D01*
X-6154794Y2668837D01*
X-6158540Y2618781D01*
X-6161990Y2583701D01*
X-6164710Y2568682D01*
X-6164809Y2568559D01*
X-6184363Y2561775D01*
X-6219525Y2558641D01*
X-6260748Y2559279D01*
X-6298486Y2563807D01*
X-6310409Y2566718D01*
X-6353368Y2579699D01*
X-6347307Y2737048D01*
X-6344919Y2805744D01*
X-6345071Y2853053D01*
X-6349405Y2882973D01*
X-6359562Y2899499D01*
X-6377185Y2906630D01*
X-6403915Y2908363D01*
X-6417714Y2908440D01*
X-6458995Y2910749D01*
X-6503700Y2916147D01*
X-6505575Y2916452D01*
X-6534362Y2922454D01*
X-6548315Y2932999D01*
X-6552808Y2955737D01*
X-6553200Y2984267D01*
X-6550062Y3030768D01*
X-6542221Y3074155D01*
X-6539020Y3084889D01*
X-6526258Y3112382D01*
X-6509515Y3120925D01*
X-6491395Y3118972D01*
X-6458433Y3114354D01*
X-6414065Y3110361D01*
X-6394450Y3109161D01*
X-6330950Y3105948D01*
X-6327283Y3232104D01*
X-6323747Y3299175D01*
X-6317797Y3344651D01*
X-6309675Y3366800D01*
X-6308233Y3368036D01*
X-6281733Y3375444D01*
X-6240884Y3377660D01*
X-6196162Y3374856D01*
X-6196162Y3374856D01*
G37*
X-6196162Y3374856D02*
X-6158044Y3367204D01*
X-6153128Y3365492D01*
X-6119703Y3352784D01*
X-6128635Y3219442D01*
X-6131863Y3164741D01*
X-6133624Y3120865D01*
X-6133760Y3093051D01*
X-6132659Y3085875D01*
X-6102828Y3083560D01*
X-6060443Y3079143D01*
X-6012311Y3073483D01*
X-5965238Y3067437D01*
X-5926031Y3061861D01*
X-5901498Y3057615D01*
X-5896713Y3056147D01*
X-5892310Y3039415D01*
X-5890108Y3006041D01*
X-5890048Y2964682D01*
X-5892068Y2923994D01*
X-5896108Y2892635D01*
X-5897915Y2885684D01*
X-5909188Y2865816D01*
X-5930266Y2860948D01*
X-5947756Y2862853D01*
X-5982922Y2867468D01*
X-6030869Y2872866D01*
X-6065452Y2876352D01*
X-6142853Y2883715D01*
X-6151184Y2728784D01*
X-6154794Y2668837D01*
X-6158540Y2618781D01*
X-6161990Y2583701D01*
X-6164710Y2568682D01*
X-6164809Y2568559D01*
X-6184363Y2561775D01*
X-6219525Y2558641D01*
X-6260748Y2559279D01*
X-6298486Y2563807D01*
X-6310409Y2566718D01*
X-6353368Y2579699D01*
X-6347307Y2737048D01*
X-6344919Y2805744D01*
X-6345071Y2853053D01*
X-6349405Y2882973D01*
X-6359562Y2899499D01*
X-6377185Y2906630D01*
X-6403915Y2908363D01*
X-6417714Y2908440D01*
X-6458995Y2910749D01*
X-6503700Y2916147D01*
X-6505575Y2916452D01*
X-6534362Y2922454D01*
X-6548315Y2932999D01*
X-6552808Y2955737D01*
X-6553200Y2984267D01*
X-6550062Y3030768D01*
X-6542221Y3074155D01*
X-6539020Y3084889D01*
X-6526258Y3112382D01*
X-6509515Y3120925D01*
X-6491395Y3118972D01*
X-6458433Y3114354D01*
X-6414065Y3110361D01*
X-6394450Y3109161D01*
X-6330950Y3105948D01*
X-6327283Y3232104D01*
X-6323747Y3299175D01*
X-6317797Y3344651D01*
X-6309675Y3366800D01*
X-6308233Y3368036D01*
X-6281733Y3375444D01*
X-6240884Y3377660D01*
X-6196162Y3374856D01*
G36*
X413547Y3918011D02*
X545496Y3893504D01*
X608148Y3879231D01*
X730442Y3840279D01*
X835600Y3784872D01*
X927688Y3710540D01*
X980782Y3652931D01*
X1035351Y3577421D01*
X1084890Y3490412D01*
X1125218Y3400467D01*
X1152152Y3316149D01*
X1157280Y3291632D01*
X1162738Y3189195D01*
X1144546Y3084746D01*
X1103803Y2981980D01*
X1041610Y2884594D01*
X1032894Y2873614D01*
X967238Y2805871D01*
X883659Y2739484D01*
X788970Y2678498D01*
X689980Y2626962D01*
X593502Y2588923D01*
X523819Y2571125D01*
X463971Y2563613D01*
X386482Y2558465D01*
X299013Y2555837D01*
X209227Y2555885D01*
X124786Y2558767D01*
X78520Y2562041D01*
X23690Y2566944D01*
X27720Y2670947D01*
X28407Y2711472D01*
X28296Y2772859D01*
X27451Y2850585D01*
X25936Y2940129D01*
X23814Y3036967D01*
X21150Y3136577D01*
X21141Y3136900D01*
X17655Y3302185D01*
X17515Y3378674D01*
X199280Y3378674D01*
X199528Y3284921D01*
X200355Y3188867D01*
X201723Y3093952D01*
X203590Y3003617D01*
X205917Y2921302D01*
X208663Y2850447D01*
X211789Y2794491D01*
X215254Y2756876D01*
X219019Y2741041D01*
X219222Y2740878D01*
X249137Y2732892D01*
X302859Y2731500D01*
X379669Y2736693D01*
X444288Y2743926D01*
X545174Y2765944D01*
X644733Y2804860D01*
X738919Y2857658D01*
X823686Y2921323D01*
X894989Y2992840D01*
X948781Y3069194D01*
X979867Y3143055D01*
X986286Y3206986D01*
X975338Y3283093D01*
X948017Y3366001D01*
X932275Y3400788D01*
X900701Y3453087D01*
X855899Y3511909D01*
X804387Y3569865D01*
X752686Y3619565D01*
X711438Y3651094D01*
X666830Y3672374D01*
X603594Y3693495D01*
X528465Y3712952D01*
X448180Y3729239D01*
X369474Y3740852D01*
X299083Y3746284D01*
X284533Y3746500D01*
X218132Y3746500D01*
X208141Y3692525D01*
X204889Y3661878D01*
X202417Y3611728D01*
X200685Y3545518D01*
X199653Y3466686D01*
X199280Y3378674D01*
X17515Y3378674D01*
X17387Y3448476D01*
X20278Y3574679D01*
X26274Y3679696D01*
X35319Y3762431D01*
X47357Y3821790D01*
X57443Y3848669D01*
X90303Y3888239D01*
X141706Y3914922D01*
X212289Y3928755D01*
X302691Y3929773D01*
X413547Y3918011D01*
X413547Y3918011D01*
G37*
X413547Y3918011D02*
X545496Y3893504D01*
X608148Y3879231D01*
X730442Y3840279D01*
X835600Y3784872D01*
X927688Y3710540D01*
X980782Y3652931D01*
X1035351Y3577421D01*
X1084890Y3490412D01*
X1125218Y3400467D01*
X1152152Y3316149D01*
X1157280Y3291632D01*
X1162738Y3189195D01*
X1144546Y3084746D01*
X1103803Y2981980D01*
X1041610Y2884594D01*
X1032894Y2873614D01*
X967238Y2805871D01*
X883659Y2739484D01*
X788970Y2678498D01*
X689980Y2626962D01*
X593502Y2588923D01*
X523819Y2571125D01*
X463971Y2563613D01*
X386482Y2558465D01*
X299013Y2555837D01*
X209227Y2555885D01*
X124786Y2558767D01*
X78520Y2562041D01*
X23690Y2566944D01*
X27720Y2670947D01*
X28407Y2711472D01*
X28296Y2772859D01*
X27451Y2850585D01*
X25936Y2940129D01*
X23814Y3036967D01*
X21150Y3136577D01*
X21141Y3136900D01*
X17655Y3302185D01*
X17515Y3378674D01*
X199280Y3378674D01*
X199528Y3284921D01*
X200355Y3188867D01*
X201723Y3093952D01*
X203590Y3003617D01*
X205917Y2921302D01*
X208663Y2850447D01*
X211789Y2794491D01*
X215254Y2756876D01*
X219019Y2741041D01*
X219222Y2740878D01*
X249137Y2732892D01*
X302859Y2731500D01*
X379669Y2736693D01*
X444288Y2743926D01*
X545174Y2765944D01*
X644733Y2804860D01*
X738919Y2857658D01*
X823686Y2921323D01*
X894989Y2992840D01*
X948781Y3069194D01*
X979867Y3143055D01*
X986286Y3206986D01*
X975338Y3283093D01*
X948017Y3366001D01*
X932275Y3400788D01*
X900701Y3453087D01*
X855899Y3511909D01*
X804387Y3569865D01*
X752686Y3619565D01*
X711438Y3651094D01*
X666830Y3672374D01*
X603594Y3693495D01*
X528465Y3712952D01*
X448180Y3729239D01*
X369474Y3740852D01*
X299083Y3746284D01*
X284533Y3746500D01*
X218132Y3746500D01*
X208141Y3692525D01*
X204889Y3661878D01*
X202417Y3611728D01*
X200685Y3545518D01*
X199653Y3466686D01*
X199280Y3378674D01*
X17515Y3378674D01*
X17387Y3448476D01*
X20278Y3574679D01*
X26274Y3679696D01*
X35319Y3762431D01*
X47357Y3821790D01*
X57443Y3848669D01*
X90303Y3888239D01*
X141706Y3914922D01*
X212289Y3928755D01*
X302691Y3929773D01*
X413547Y3918011D01*
G36*
X6346416Y3375769D02*
X6394726Y3365686D01*
X6397498Y3364748D01*
X6436087Y3351296D01*
X6422749Y3089966D01*
X6464162Y3081683D01*
X6508376Y3075556D01*
X6546850Y3073400D01*
X6590999Y3070732D01*
X6627812Y3065463D01*
X6648974Y3060279D01*
X6660829Y3051254D01*
X6666052Y3032152D01*
X6667316Y2996739D01*
X6667305Y2973388D01*
X6665782Y2927862D01*
X6661996Y2891644D01*
X6657192Y2873637D01*
X6645652Y2866279D01*
X6620673Y2863901D01*
X6577867Y2866380D01*
X6539911Y2870365D01*
X6490131Y2875994D01*
X6450480Y2880302D01*
X6427354Y2882601D01*
X6424303Y2882804D01*
X6420486Y2870959D01*
X6416030Y2838555D01*
X6411465Y2790406D01*
X6407321Y2731327D01*
X6406964Y2725249D01*
X6402868Y2659371D01*
X6398926Y2614538D01*
X6394188Y2586422D01*
X6387703Y2570690D01*
X6378520Y2563015D01*
X6370760Y2560322D01*
X6301909Y2554605D01*
X6242050Y2570270D01*
X6203950Y2586845D01*
X6210300Y2741113D01*
X6212828Y2808852D01*
X6212756Y2855254D01*
X6208446Y2884364D01*
X6198263Y2900226D01*
X6180568Y2906886D01*
X6153726Y2908387D01*
X6142586Y2908440D01*
X6101716Y2910739D01*
X6056673Y2916140D01*
X6053397Y2916667D01*
X6004445Y2924755D01*
X6009349Y3011545D01*
X6013519Y3056970D01*
X6019720Y3092380D01*
X6026551Y3110006D01*
X6044846Y3114775D01*
X6081283Y3115880D01*
X6128844Y3113116D01*
X6129716Y3113034D01*
X6220583Y3104389D01*
X6228001Y3149220D01*
X6231977Y3186185D01*
X6234724Y3236350D01*
X6235560Y3278417D01*
X6237138Y3326998D01*
X6242426Y3355454D01*
X6252555Y3368931D01*
X6255788Y3370492D01*
X6295780Y3377546D01*
X6346416Y3375769D01*
X6346416Y3375769D01*
G37*
X6346416Y3375769D02*
X6394726Y3365686D01*
X6397498Y3364748D01*
X6436087Y3351296D01*
X6422749Y3089966D01*
X6464162Y3081683D01*
X6508376Y3075556D01*
X6546850Y3073400D01*
X6590999Y3070732D01*
X6627812Y3065463D01*
X6648974Y3060279D01*
X6660829Y3051254D01*
X6666052Y3032152D01*
X6667316Y2996739D01*
X6667305Y2973388D01*
X6665782Y2927862D01*
X6661996Y2891644D01*
X6657192Y2873637D01*
X6645652Y2866279D01*
X6620673Y2863901D01*
X6577867Y2866380D01*
X6539911Y2870365D01*
X6490131Y2875994D01*
X6450480Y2880302D01*
X6427354Y2882601D01*
X6424303Y2882804D01*
X6420486Y2870959D01*
X6416030Y2838555D01*
X6411465Y2790406D01*
X6407321Y2731327D01*
X6406964Y2725249D01*
X6402868Y2659371D01*
X6398926Y2614538D01*
X6394188Y2586422D01*
X6387703Y2570690D01*
X6378520Y2563015D01*
X6370760Y2560322D01*
X6301909Y2554605D01*
X6242050Y2570270D01*
X6203950Y2586845D01*
X6210300Y2741113D01*
X6212828Y2808852D01*
X6212756Y2855254D01*
X6208446Y2884364D01*
X6198263Y2900226D01*
X6180568Y2906886D01*
X6153726Y2908387D01*
X6142586Y2908440D01*
X6101716Y2910739D01*
X6056673Y2916140D01*
X6053397Y2916667D01*
X6004445Y2924755D01*
X6009349Y3011545D01*
X6013519Y3056970D01*
X6019720Y3092380D01*
X6026551Y3110006D01*
X6044846Y3114775D01*
X6081283Y3115880D01*
X6128844Y3113116D01*
X6129716Y3113034D01*
X6220583Y3104389D01*
X6228001Y3149220D01*
X6231977Y3186185D01*
X6234724Y3236350D01*
X6235560Y3278417D01*
X6237138Y3326998D01*
X6242426Y3355454D01*
X6252555Y3368931D01*
X6255788Y3370492D01*
X6295780Y3377546D01*
X6346416Y3375769D01*
G36*
X-213417Y9689334D02*
X-105268Y9647442D01*
X-55121Y9618006D01*
X22478Y9552448D01*
X83120Y9471591D01*
X126574Y9379247D01*
X152612Y9279232D01*
X161004Y9175358D01*
X151520Y9071440D01*
X123931Y8971291D01*
X78007Y8878725D01*
X13519Y8797557D01*
X-4705Y8780232D01*
X-45627Y8746164D01*
X-86951Y8716081D01*
X-114019Y8699644D01*
X-196485Y8666791D01*
X-292016Y8643383D01*
X-390501Y8631086D01*
X-481831Y8631566D01*
X-508000Y8634707D01*
X-593337Y8660130D01*
X-674984Y8707456D01*
X-748699Y8773194D01*
X-810238Y8853853D01*
X-839210Y8907225D01*
X-869291Y8990097D01*
X-889466Y9084338D01*
X-898423Y9180180D01*
X-897127Y9212013D01*
X-723622Y9212013D01*
X-715849Y9113877D01*
X-693148Y9023826D01*
X-657371Y8945953D01*
X-610371Y8884351D01*
X-557328Y8844789D01*
X-473971Y8815246D01*
X-382441Y8806264D01*
X-289375Y8817767D01*
X-203200Y8848782D01*
X-152272Y8880196D01*
X-113204Y8915779D01*
X-104439Y8927303D01*
X-67063Y9003484D01*
X-45596Y9090860D01*
X-39687Y9183543D01*
X-48982Y9275642D01*
X-73129Y9361271D01*
X-111777Y9434538D01*
X-136602Y9464878D01*
X-181376Y9497569D01*
X-242904Y9518243D01*
X-323905Y9527667D01*
X-361950Y9528459D01*
X-469466Y9519889D01*
X-558267Y9494342D01*
X-628209Y9451946D01*
X-679147Y9392828D01*
X-710933Y9317116D01*
X-723423Y9224936D01*
X-723622Y9212013D01*
X-897127Y9212013D01*
X-894851Y9267856D01*
X-890901Y9292325D01*
X-857016Y9405758D01*
X-804180Y9502504D01*
X-733309Y9581700D01*
X-645318Y9642485D01*
X-541123Y9683999D01*
X-455808Y9701579D01*
X-330241Y9707376D01*
X-213417Y9689334D01*
X-213417Y9689334D01*
G37*
X-213417Y9689334D02*
X-105268Y9647442D01*
X-55121Y9618006D01*
X22478Y9552448D01*
X83120Y9471591D01*
X126574Y9379247D01*
X152612Y9279232D01*
X161004Y9175358D01*
X151520Y9071440D01*
X123931Y8971291D01*
X78007Y8878725D01*
X13519Y8797557D01*
X-4705Y8780232D01*
X-45627Y8746164D01*
X-86951Y8716081D01*
X-114019Y8699644D01*
X-196485Y8666791D01*
X-292016Y8643383D01*
X-390501Y8631086D01*
X-481831Y8631566D01*
X-508000Y8634707D01*
X-593337Y8660130D01*
X-674984Y8707456D01*
X-748699Y8773194D01*
X-810238Y8853853D01*
X-839210Y8907225D01*
X-869291Y8990097D01*
X-889466Y9084338D01*
X-898423Y9180180D01*
X-897127Y9212013D01*
X-723622Y9212013D01*
X-715849Y9113877D01*
X-693148Y9023826D01*
X-657371Y8945953D01*
X-610371Y8884351D01*
X-557328Y8844789D01*
X-473971Y8815246D01*
X-382441Y8806264D01*
X-289375Y8817767D01*
X-203200Y8848782D01*
X-152272Y8880196D01*
X-113204Y8915779D01*
X-104439Y8927303D01*
X-67063Y9003484D01*
X-45596Y9090860D01*
X-39687Y9183543D01*
X-48982Y9275642D01*
X-73129Y9361271D01*
X-111777Y9434538D01*
X-136602Y9464878D01*
X-181376Y9497569D01*
X-242904Y9518243D01*
X-323905Y9527667D01*
X-361950Y9528459D01*
X-469466Y9519889D01*
X-558267Y9494342D01*
X-628209Y9451946D01*
X-679147Y9392828D01*
X-710933Y9317116D01*
X-723423Y9224936D01*
X-723622Y9212013D01*
X-897127Y9212013D01*
X-894851Y9267856D01*
X-890901Y9292325D01*
X-857016Y9405758D01*
X-804180Y9502504D01*
X-733309Y9581700D01*
X-645318Y9642485D01*
X-541123Y9683999D01*
X-455808Y9701579D01*
X-330241Y9707376D01*
X-213417Y9689334D01*
G36*
X1548295Y9839773D02*
X1567120Y9829393D01*
X1576143Y9808067D01*
X1575859Y9772502D01*
X1566765Y9719404D01*
X1549356Y9645479D01*
X1549040Y9644219D01*
X1528487Y9560871D01*
X1515945Y9499489D01*
X1513444Y9457353D01*
X1523010Y9431745D01*
X1546673Y9419944D01*
X1586459Y9419233D01*
X1644397Y9426891D01*
X1703618Y9436947D01*
X1800385Y9451395D01*
X1875845Y9457283D01*
X1932628Y9454542D01*
X1973367Y9443102D01*
X1994415Y9429284D01*
X2016319Y9397728D01*
X2012857Y9365880D01*
X1985837Y9335422D01*
X1968825Y9324121D01*
X1948434Y9316569D01*
X1919440Y9312031D01*
X1876620Y9309771D01*
X1814751Y9309054D01*
X1798512Y9309030D01*
X1711176Y9307575D01*
X1644923Y9302662D01*
X1595561Y9293327D01*
X1558894Y9278608D01*
X1530731Y9257541D01*
X1518971Y9244855D01*
X1494732Y9208466D01*
X1481110Y9166559D01*
X1477518Y9113982D01*
X1483370Y9045582D01*
X1490755Y8997247D01*
X1505836Y8919638D01*
X1522251Y8862701D01*
X1542127Y8821721D01*
X1567592Y8791983D01*
X1591291Y8774439D01*
X1649221Y8752621D01*
X1716019Y8752818D01*
X1788656Y8774607D01*
X1855075Y8811356D01*
X1900996Y8841248D01*
X1932073Y8857777D01*
X1954013Y8862507D01*
X1972520Y8857001D01*
X1986995Y8847527D01*
X2004624Y8822498D01*
X2000729Y8791896D01*
X1977835Y8758326D01*
X1938468Y8724388D01*
X1885151Y8692687D01*
X1820411Y8665825D01*
X1806318Y8661264D01*
X1712866Y8640581D01*
X1632003Y8639838D01*
X1565245Y8659034D01*
X1560834Y8661286D01*
X1502992Y8703533D01*
X1449128Y8764708D01*
X1404810Y8838390D01*
X1401803Y8844720D01*
X1388400Y8876722D01*
X1379640Y8908283D01*
X1374572Y8946080D01*
X1372250Y8996793D01*
X1371724Y9056380D01*
X1369749Y9145511D01*
X1363792Y9210812D01*
X1353550Y9253585D01*
X1338716Y9275131D01*
X1320071Y9277119D01*
X1258833Y9265791D01*
X1207019Y9271797D01*
X1168337Y9293504D01*
X1146495Y9329282D01*
X1143000Y9355072D01*
X1148924Y9388800D01*
X1169103Y9409984D01*
X1207142Y9420780D01*
X1257300Y9423400D01*
X1299784Y9425759D01*
X1334463Y9431756D01*
X1345699Y9435832D01*
X1371231Y9463317D01*
X1388389Y9512611D01*
X1396455Y9581303D01*
X1397000Y9607849D01*
X1402678Y9679094D01*
X1418233Y9745391D01*
X1441445Y9798836D01*
X1456452Y9819645D01*
X1485449Y9836836D01*
X1519171Y9842500D01*
X1548295Y9839773D01*
X1548295Y9839773D01*
G37*
X1548295Y9839773D02*
X1567120Y9829393D01*
X1576143Y9808067D01*
X1575859Y9772502D01*
X1566765Y9719404D01*
X1549356Y9645479D01*
X1549040Y9644219D01*
X1528487Y9560871D01*
X1515945Y9499489D01*
X1513444Y9457353D01*
X1523010Y9431745D01*
X1546673Y9419944D01*
X1586459Y9419233D01*
X1644397Y9426891D01*
X1703618Y9436947D01*
X1800385Y9451395D01*
X1875845Y9457283D01*
X1932628Y9454542D01*
X1973367Y9443102D01*
X1994415Y9429284D01*
X2016319Y9397728D01*
X2012857Y9365880D01*
X1985837Y9335422D01*
X1968825Y9324121D01*
X1948434Y9316569D01*
X1919440Y9312031D01*
X1876620Y9309771D01*
X1814751Y9309054D01*
X1798512Y9309030D01*
X1711176Y9307575D01*
X1644923Y9302662D01*
X1595561Y9293327D01*
X1558894Y9278608D01*
X1530731Y9257541D01*
X1518971Y9244855D01*
X1494732Y9208466D01*
X1481110Y9166559D01*
X1477518Y9113982D01*
X1483370Y9045582D01*
X1490755Y8997247D01*
X1505836Y8919638D01*
X1522251Y8862701D01*
X1542127Y8821721D01*
X1567592Y8791983D01*
X1591291Y8774439D01*
X1649221Y8752621D01*
X1716019Y8752818D01*
X1788656Y8774607D01*
X1855075Y8811356D01*
X1900996Y8841248D01*
X1932073Y8857777D01*
X1954013Y8862507D01*
X1972520Y8857001D01*
X1986995Y8847527D01*
X2004624Y8822498D01*
X2000729Y8791896D01*
X1977835Y8758326D01*
X1938468Y8724388D01*
X1885151Y8692687D01*
X1820411Y8665825D01*
X1806318Y8661264D01*
X1712866Y8640581D01*
X1632003Y8639838D01*
X1565245Y8659034D01*
X1560834Y8661286D01*
X1502992Y8703533D01*
X1449128Y8764708D01*
X1404810Y8838390D01*
X1401803Y8844720D01*
X1388400Y8876722D01*
X1379640Y8908283D01*
X1374572Y8946080D01*
X1372250Y8996793D01*
X1371724Y9056380D01*
X1369749Y9145511D01*
X1363792Y9210812D01*
X1353550Y9253585D01*
X1338716Y9275131D01*
X1320071Y9277119D01*
X1258833Y9265791D01*
X1207019Y9271797D01*
X1168337Y9293504D01*
X1146495Y9329282D01*
X1143000Y9355072D01*
X1148924Y9388800D01*
X1169103Y9409984D01*
X1207142Y9420780D01*
X1257300Y9423400D01*
X1299784Y9425759D01*
X1334463Y9431756D01*
X1345699Y9435832D01*
X1371231Y9463317D01*
X1388389Y9512611D01*
X1396455Y9581303D01*
X1397000Y9607849D01*
X1402678Y9679094D01*
X1418233Y9745391D01*
X1441445Y9798836D01*
X1456452Y9819645D01*
X1485449Y9836836D01*
X1519171Y9842500D01*
X1548295Y9839773D01*
G36*
X403262Y9480289D02*
X413686Y9476085D01*
X427268Y9468724D01*
X436130Y9458185D01*
X441277Y9439530D01*
X443717Y9407823D01*
X444454Y9358127D01*
X444500Y9324915D01*
X446421Y9236914D01*
X451763Y9147892D01*
X459888Y9064193D01*
X470160Y8992161D01*
X481943Y8938139D01*
X483963Y8931474D01*
X512267Y8882320D01*
X558760Y8845836D01*
X618529Y8824135D01*
X686661Y8819329D01*
X730180Y8825585D01*
X777857Y8838441D01*
X811374Y8854800D01*
X834379Y8879488D01*
X850518Y8917328D01*
X863435Y8973143D01*
X870053Y9010650D01*
X879652Y9077721D01*
X888747Y9158549D01*
X896127Y9241499D01*
X899706Y9296080D01*
X908050Y9454509D01*
X964760Y9464159D01*
X1002795Y9467732D01*
X1028692Y9464675D01*
X1033260Y9462020D01*
X1037892Y9445682D01*
X1042574Y9408836D01*
X1046853Y9356370D01*
X1050276Y9293171D01*
X1051225Y9268319D01*
X1053290Y9190458D01*
X1053082Y9130988D01*
X1050103Y9082959D01*
X1043853Y9039424D01*
X1033833Y8993435D01*
X1030510Y8980067D01*
X999759Y8882442D01*
X962353Y8804973D01*
X919398Y8749822D01*
X907004Y8739047D01*
X857669Y8709718D01*
X791745Y8683709D01*
X718041Y8664075D01*
X666750Y8655783D01*
X619002Y8652235D01*
X583986Y8656042D01*
X549610Y8669169D01*
X533400Y8677433D01*
X469603Y8724794D01*
X414058Y8792917D01*
X367818Y8878201D01*
X331935Y8977051D01*
X307462Y9085868D01*
X295449Y9201055D01*
X296950Y9319015D01*
X312395Y9433090D01*
X329915Y9468622D01*
X361651Y9484969D01*
X403262Y9480289D01*
X403262Y9480289D01*
G37*
X403262Y9480289D02*
X413686Y9476085D01*
X427268Y9468724D01*
X436130Y9458185D01*
X441277Y9439530D01*
X443717Y9407823D01*
X444454Y9358127D01*
X444500Y9324915D01*
X446421Y9236914D01*
X451763Y9147892D01*
X459888Y9064193D01*
X470160Y8992161D01*
X481943Y8938139D01*
X483963Y8931474D01*
X512267Y8882320D01*
X558760Y8845836D01*
X618529Y8824135D01*
X686661Y8819329D01*
X730180Y8825585D01*
X777857Y8838441D01*
X811374Y8854800D01*
X834379Y8879488D01*
X850518Y8917328D01*
X863435Y8973143D01*
X870053Y9010650D01*
X879652Y9077721D01*
X888747Y9158549D01*
X896127Y9241499D01*
X899706Y9296080D01*
X908050Y9454509D01*
X964760Y9464159D01*
X1002795Y9467732D01*
X1028692Y9464675D01*
X1033260Y9462020D01*
X1037892Y9445682D01*
X1042574Y9408836D01*
X1046853Y9356370D01*
X1050276Y9293171D01*
X1051225Y9268319D01*
X1053290Y9190458D01*
X1053082Y9130988D01*
X1050103Y9082959D01*
X1043853Y9039424D01*
X1033833Y8993435D01*
X1030510Y8980067D01*
X999759Y8882442D01*
X962353Y8804973D01*
X919398Y8749822D01*
X907004Y8739047D01*
X857669Y8709718D01*
X791745Y8683709D01*
X718041Y8664075D01*
X666750Y8655783D01*
X619002Y8652235D01*
X583986Y8656042D01*
X549610Y8669169D01*
X533400Y8677433D01*
X469603Y8724794D01*
X414058Y8792917D01*
X367818Y8878201D01*
X331935Y8977051D01*
X307462Y9085868D01*
X295449Y9201055D01*
X296950Y9319015D01*
X312395Y9433090D01*
X329915Y9468622D01*
X361651Y9484969D01*
X403262Y9480289D01*
G36*
X-799756Y11569956D02*
X-772704Y11549210D01*
X-732234Y11516325D01*
X-681106Y11473697D01*
X-622079Y11423718D01*
X-557915Y11368782D01*
X-491374Y11311284D01*
X-425216Y11253616D01*
X-362201Y11198172D01*
X-305089Y11147347D01*
X-256642Y11103534D01*
X-219619Y11069126D01*
X-196780Y11046518D01*
X-190573Y11038458D01*
X-201823Y11031066D01*
X-232212Y11017675D01*
X-276787Y11000341D01*
X-318607Y10985272D01*
X-370902Y10966122D01*
X-412911Y10949043D01*
X-439670Y10936162D01*
X-446762Y10930375D01*
X-439495Y10917757D01*
X-418989Y10887841D01*
X-387359Y10843563D01*
X-346720Y10787861D01*
X-299186Y10723669D01*
X-266113Y10679477D01*
X-215615Y10611749D01*
X-171015Y10550927D01*
X-134349Y10499873D01*
X-107653Y10461445D01*
X-92963Y10438504D01*
X-90825Y10433243D01*
X-104534Y10429342D01*
X-139159Y10421938D01*
X-190584Y10411842D01*
X-254694Y10399866D01*
X-318065Y10388463D01*
X-390756Y10375471D01*
X-455196Y10363711D01*
X-507032Y10353995D01*
X-541913Y10347138D01*
X-554998Y10344158D01*
X-555812Y10330885D01*
X-544566Y10296221D01*
X-521570Y10240963D01*
X-487137Y10165903D01*
X-475623Y10141726D01*
X-444629Y10076502D01*
X-417896Y10019134D01*
X-397220Y9973569D01*
X-384397Y9943752D01*
X-381000Y9933889D01*
X-391338Y9922782D01*
X-416285Y9907304D01*
X-446743Y9892196D01*
X-473610Y9882202D01*
X-483246Y9880600D01*
X-492028Y9891554D01*
X-510031Y9922322D01*
X-535593Y9969768D01*
X-567053Y10030757D01*
X-602752Y10102152D01*
X-629046Y10155964D01*
X-673258Y10248772D01*
X-707983Y10324839D01*
X-732641Y10382797D01*
X-746655Y10421275D01*
X-749448Y10438906D01*
X-748790Y10439716D01*
X-732220Y10444598D01*
X-695102Y10452721D01*
X-641949Y10463184D01*
X-577274Y10475087D01*
X-529535Y10483455D01*
X-460537Y10495487D01*
X-400860Y10506224D01*
X-354757Y10514872D01*
X-326480Y10520641D01*
X-319573Y10522540D01*
X-325011Y10533547D01*
X-343264Y10560542D01*
X-371356Y10599617D01*
X-406310Y10646865D01*
X-445149Y10698379D01*
X-484898Y10750251D01*
X-522579Y10798575D01*
X-555216Y10839443D01*
X-579834Y10868947D01*
X-593454Y10883182D01*
X-594856Y10883900D01*
X-610649Y10880084D01*
X-644390Y10869881D01*
X-690008Y10855160D01*
X-711993Y10847830D01*
X-764414Y10830504D01*
X-811049Y10815658D01*
X-844146Y10805739D01*
X-851146Y10803873D01*
X-883142Y10795987D01*
X-864978Y11015049D01*
X-734384Y11015049D01*
X-732252Y10990777D01*
X-728539Y10985352D01*
X-712756Y10989181D01*
X-678266Y10999686D01*
X-630354Y11015202D01*
X-581025Y11031771D01*
X-526850Y11051026D01*
X-482850Y11068144D01*
X-453833Y11081153D01*
X-444500Y11087747D01*
X-453476Y11098538D01*
X-477511Y11121893D01*
X-512265Y11153978D01*
X-553398Y11190960D01*
X-596572Y11229004D01*
X-637445Y11264278D01*
X-671679Y11292949D01*
X-694935Y11311181D01*
X-702551Y11315700D01*
X-706197Y11304047D01*
X-710788Y11273142D01*
X-715461Y11229070D01*
X-716494Y11217275D01*
X-721700Y11158272D01*
X-727350Y11098725D01*
X-732149Y11052175D01*
X-734384Y11015049D01*
X-864978Y11015049D01*
X-851146Y11181851D01*
X-842903Y11278277D01*
X-834892Y11366446D01*
X-827437Y11443195D01*
X-820863Y11505365D01*
X-815496Y11549795D01*
X-811659Y11573323D01*
X-810629Y11576171D01*
X-799756Y11569956D01*
X-799756Y11569956D01*
G37*
X-799756Y11569956D02*
X-772704Y11549210D01*
X-732234Y11516325D01*
X-681106Y11473697D01*
X-622079Y11423718D01*
X-557915Y11368782D01*
X-491374Y11311284D01*
X-425216Y11253616D01*
X-362201Y11198172D01*
X-305089Y11147347D01*
X-256642Y11103534D01*
X-219619Y11069126D01*
X-196780Y11046518D01*
X-190573Y11038458D01*
X-201823Y11031066D01*
X-232212Y11017675D01*
X-276787Y11000341D01*
X-318607Y10985272D01*
X-370902Y10966122D01*
X-412911Y10949043D01*
X-439670Y10936162D01*
X-446762Y10930375D01*
X-439495Y10917757D01*
X-418989Y10887841D01*
X-387359Y10843563D01*
X-346720Y10787861D01*
X-299186Y10723669D01*
X-266113Y10679477D01*
X-215615Y10611749D01*
X-171015Y10550927D01*
X-134349Y10499873D01*
X-107653Y10461445D01*
X-92963Y10438504D01*
X-90825Y10433243D01*
X-104534Y10429342D01*
X-139159Y10421938D01*
X-190584Y10411842D01*
X-254694Y10399866D01*
X-318065Y10388463D01*
X-390756Y10375471D01*
X-455196Y10363711D01*
X-507032Y10353995D01*
X-541913Y10347138D01*
X-554998Y10344158D01*
X-555812Y10330885D01*
X-544566Y10296221D01*
X-521570Y10240963D01*
X-487137Y10165903D01*
X-475623Y10141726D01*
X-444629Y10076502D01*
X-417896Y10019134D01*
X-397220Y9973569D01*
X-384397Y9943752D01*
X-381000Y9933889D01*
X-391338Y9922782D01*
X-416285Y9907304D01*
X-446743Y9892196D01*
X-473610Y9882202D01*
X-483246Y9880600D01*
X-492028Y9891554D01*
X-510031Y9922322D01*
X-535593Y9969768D01*
X-567053Y10030757D01*
X-602752Y10102152D01*
X-629046Y10155964D01*
X-673258Y10248772D01*
X-707983Y10324839D01*
X-732641Y10382797D01*
X-746655Y10421275D01*
X-749448Y10438906D01*
X-748790Y10439716D01*
X-732220Y10444598D01*
X-695102Y10452721D01*
X-641949Y10463184D01*
X-577274Y10475087D01*
X-529535Y10483455D01*
X-460537Y10495487D01*
X-400860Y10506224D01*
X-354757Y10514872D01*
X-326480Y10520641D01*
X-319573Y10522540D01*
X-325011Y10533547D01*
X-343264Y10560542D01*
X-371356Y10599617D01*
X-406310Y10646865D01*
X-445149Y10698379D01*
X-484898Y10750251D01*
X-522579Y10798575D01*
X-555216Y10839443D01*
X-579834Y10868947D01*
X-593454Y10883182D01*
X-594856Y10883900D01*
X-610649Y10880084D01*
X-644390Y10869881D01*
X-690008Y10855160D01*
X-711993Y10847830D01*
X-764414Y10830504D01*
X-811049Y10815658D01*
X-844146Y10805739D01*
X-851146Y10803873D01*
X-883142Y10795987D01*
X-864978Y11015049D01*
X-734384Y11015049D01*
X-732252Y10990777D01*
X-728539Y10985352D01*
X-712756Y10989181D01*
X-678266Y10999686D01*
X-630354Y11015202D01*
X-581025Y11031771D01*
X-526850Y11051026D01*
X-482850Y11068144D01*
X-453833Y11081153D01*
X-444500Y11087747D01*
X-453476Y11098538D01*
X-477511Y11121893D01*
X-512265Y11153978D01*
X-553398Y11190960D01*
X-596572Y11229004D01*
X-637445Y11264278D01*
X-671679Y11292949D01*
X-694935Y11311181D01*
X-702551Y11315700D01*
X-706197Y11304047D01*
X-710788Y11273142D01*
X-715461Y11229070D01*
X-716494Y11217275D01*
X-721700Y11158272D01*
X-727350Y11098725D01*
X-732149Y11052175D01*
X-734384Y11015049D01*
X-864978Y11015049D01*
X-851146Y11181851D01*
X-842903Y11278277D01*
X-834892Y11366446D01*
X-827437Y11443195D01*
X-820863Y11505365D01*
X-815496Y11549795D01*
X-811659Y11573323D01*
X-810629Y11576171D01*
X-799756Y11569956D01*
G36*
X1950119Y11223967D02*
X1952251Y11210594D01*
X1955739Y11175827D01*
X1960301Y11123559D01*
X1965654Y11057686D01*
X1971518Y10982099D01*
X1977609Y10900694D01*
X1983646Y10817363D01*
X1989346Y10736001D01*
X1994428Y10660500D01*
X1998609Y10594756D01*
X2001607Y10542661D01*
X2003141Y10508109D01*
X2002931Y10494998D01*
X1991698Y10500474D01*
X1964512Y10518887D01*
X1925342Y10547422D01*
X1878158Y10583260D01*
X1873715Y10586700D01*
X1819962Y10626833D01*
X1778130Y10654881D01*
X1750778Y10669245D01*
X1740858Y10669551D01*
X1735482Y10652437D01*
X1726880Y10615540D01*
X1716191Y10564101D01*
X1704551Y10503358D01*
X1703264Y10496346D01*
X1674101Y10336781D01*
X1516257Y10419841D01*
X1458623Y10449806D01*
X1408923Y10474963D01*
X1371501Y10493165D01*
X1350706Y10502263D01*
X1348234Y10502900D01*
X1343359Y10490988D01*
X1336600Y10458128D01*
X1328679Y10408642D01*
X1320321Y10346849D01*
X1315805Y10309225D01*
X1302716Y10196320D01*
X1291943Y10106231D01*
X1283100Y10036518D01*
X1275801Y9984741D01*
X1269662Y9948459D01*
X1264297Y9925234D01*
X1259319Y9912625D01*
X1254344Y9908193D01*
X1252432Y9908135D01*
X1231150Y9910791D01*
X1197129Y9914566D01*
X1190625Y9915252D01*
X1157900Y9921836D01*
X1144412Y9934813D01*
X1143000Y9944926D01*
X1144448Y9963279D01*
X1148494Y10002208D01*
X1154684Y10057954D01*
X1162567Y10126758D01*
X1171691Y10204858D01*
X1181604Y10288494D01*
X1191856Y10373908D01*
X1201993Y10457339D01*
X1211564Y10535027D01*
X1220118Y10603211D01*
X1227202Y10658133D01*
X1232365Y10696032D01*
X1235155Y10713147D01*
X1235373Y10713734D01*
X1246927Y10709037D01*
X1276793Y10694229D01*
X1320981Y10671356D01*
X1375502Y10642465D01*
X1401840Y10628318D01*
X1460041Y10597710D01*
X1510209Y10572795D01*
X1548222Y10555508D01*
X1569957Y10547781D01*
X1573290Y10547899D01*
X1578888Y10563125D01*
X1587239Y10597294D01*
X1596919Y10644295D01*
X1601447Y10668661D01*
X1621744Y10781623D01*
X1489500Y10884857D01*
X1441064Y10923322D01*
X1406134Y10952169D01*
X1616598Y10952169D01*
X1629709Y10941163D01*
X1657191Y10919266D01*
X1694186Y10890241D01*
X1735840Y10857848D01*
X1777294Y10825850D01*
X1813694Y10798009D01*
X1840181Y10778085D01*
X1851901Y10769841D01*
X1852042Y10769799D01*
X1852969Y10781495D01*
X1852166Y10813241D01*
X1849826Y10859760D01*
X1847275Y10899775D01*
X1843129Y10954441D01*
X1839039Y10998846D01*
X1835560Y11027417D01*
X1833773Y11035026D01*
X1820764Y11032989D01*
X1789678Y11023297D01*
X1746014Y11007744D01*
X1720850Y10998200D01*
X1673987Y10979506D01*
X1638272Y10964150D01*
X1618715Y10954345D01*
X1616598Y10952169D01*
X1406134Y10952169D01*
X1401393Y10956084D01*
X1374022Y10980125D01*
X1362488Y10992429D01*
X1362438Y10993272D01*
X1375621Y10999644D01*
X1408280Y11013445D01*
X1456524Y11033147D01*
X1516461Y11057223D01*
X1584202Y11084146D01*
X1655854Y11112388D01*
X1727526Y11140422D01*
X1795329Y11166720D01*
X1855370Y11189755D01*
X1903759Y11208000D01*
X1936604Y11219927D01*
X1950014Y11224008D01*
X1950119Y11223967D01*
X1950119Y11223967D01*
G37*
X1950119Y11223967D02*
X1952251Y11210594D01*
X1955739Y11175827D01*
X1960301Y11123559D01*
X1965654Y11057686D01*
X1971518Y10982099D01*
X1977609Y10900694D01*
X1983646Y10817363D01*
X1989346Y10736001D01*
X1994428Y10660500D01*
X1998609Y10594756D01*
X2001607Y10542661D01*
X2003141Y10508109D01*
X2002931Y10494998D01*
X1991698Y10500474D01*
X1964512Y10518887D01*
X1925342Y10547422D01*
X1878158Y10583260D01*
X1873715Y10586700D01*
X1819962Y10626833D01*
X1778130Y10654881D01*
X1750778Y10669245D01*
X1740858Y10669551D01*
X1735482Y10652437D01*
X1726880Y10615540D01*
X1716191Y10564101D01*
X1704551Y10503358D01*
X1703264Y10496346D01*
X1674101Y10336781D01*
X1516257Y10419841D01*
X1458623Y10449806D01*
X1408923Y10474963D01*
X1371501Y10493165D01*
X1350706Y10502263D01*
X1348234Y10502900D01*
X1343359Y10490988D01*
X1336600Y10458128D01*
X1328679Y10408642D01*
X1320321Y10346849D01*
X1315805Y10309225D01*
X1302716Y10196320D01*
X1291943Y10106231D01*
X1283100Y10036518D01*
X1275801Y9984741D01*
X1269662Y9948459D01*
X1264297Y9925234D01*
X1259319Y9912625D01*
X1254344Y9908193D01*
X1252432Y9908135D01*
X1231150Y9910791D01*
X1197129Y9914566D01*
X1190625Y9915252D01*
X1157900Y9921836D01*
X1144412Y9934813D01*
X1143000Y9944926D01*
X1144448Y9963279D01*
X1148494Y10002208D01*
X1154684Y10057954D01*
X1162567Y10126758D01*
X1171691Y10204858D01*
X1181604Y10288494D01*
X1191856Y10373908D01*
X1201993Y10457339D01*
X1211564Y10535027D01*
X1220118Y10603211D01*
X1227202Y10658133D01*
X1232365Y10696032D01*
X1235155Y10713147D01*
X1235373Y10713734D01*
X1246927Y10709037D01*
X1276793Y10694229D01*
X1320981Y10671356D01*
X1375502Y10642465D01*
X1401840Y10628318D01*
X1460041Y10597710D01*
X1510209Y10572795D01*
X1548222Y10555508D01*
X1569957Y10547781D01*
X1573290Y10547899D01*
X1578888Y10563125D01*
X1587239Y10597294D01*
X1596919Y10644295D01*
X1601447Y10668661D01*
X1621744Y10781623D01*
X1489500Y10884857D01*
X1441064Y10923322D01*
X1406134Y10952169D01*
X1616598Y10952169D01*
X1629709Y10941163D01*
X1657191Y10919266D01*
X1694186Y10890241D01*
X1735840Y10857848D01*
X1777294Y10825850D01*
X1813694Y10798009D01*
X1840181Y10778085D01*
X1851901Y10769841D01*
X1852042Y10769799D01*
X1852969Y10781495D01*
X1852166Y10813241D01*
X1849826Y10859760D01*
X1847275Y10899775D01*
X1843129Y10954441D01*
X1839039Y10998846D01*
X1835560Y11027417D01*
X1833773Y11035026D01*
X1820764Y11032989D01*
X1789678Y11023297D01*
X1746014Y11007744D01*
X1720850Y10998200D01*
X1673987Y10979506D01*
X1638272Y10964150D01*
X1618715Y10954345D01*
X1616598Y10952169D01*
X1406134Y10952169D01*
X1401393Y10956084D01*
X1374022Y10980125D01*
X1362488Y10992429D01*
X1362438Y10993272D01*
X1375621Y10999644D01*
X1408280Y11013445D01*
X1456524Y11033147D01*
X1516461Y11057223D01*
X1584202Y11084146D01*
X1655854Y11112388D01*
X1727526Y11140422D01*
X1795329Y11166720D01*
X1855370Y11189755D01*
X1903759Y11208000D01*
X1936604Y11219927D01*
X1950014Y11224008D01*
X1950119Y11223967D01*
G36*
X853343Y11627625D02*
X859163Y11613273D01*
X872076Y11578900D01*
X890762Y11528172D01*
X913903Y11464758D01*
X940178Y11392325D01*
X968269Y11314542D01*
X996855Y11235075D01*
X1024618Y11157593D01*
X1050237Y11085762D01*
X1072394Y11023252D01*
X1089769Y10973729D01*
X1101042Y10940862D01*
X1104900Y10928371D01*
X1093525Y10930560D01*
X1062378Y10939070D01*
X1015920Y10952624D01*
X958617Y10969944D01*
X944792Y10974197D01*
X884550Y10992560D01*
X833063Y11007830D01*
X795180Y11018599D01*
X775752Y11023461D01*
X774534Y11023600D01*
X774449Y11012190D01*
X779913Y10981291D01*
X789726Y10935901D01*
X802686Y10881015D01*
X817591Y10821633D01*
X833239Y10762752D01*
X848428Y10709367D01*
X856193Y10684030D01*
X858299Y10676535D01*
X857686Y10670072D01*
X851828Y10663865D01*
X838201Y10657137D01*
X814278Y10649114D01*
X777536Y10639020D01*
X725448Y10626078D01*
X655490Y10609514D01*
X565137Y10588551D01*
X485775Y10570239D01*
X463471Y10558653D01*
X457200Y10546550D01*
X460978Y10529396D01*
X471461Y10492370D01*
X487372Y10439712D01*
X507434Y10375662D01*
X527050Y10314651D01*
X549558Y10245068D01*
X569050Y10184109D01*
X584268Y10135767D01*
X593953Y10104037D01*
X596900Y10093018D01*
X586369Y10086626D01*
X560606Y10075288D01*
X528353Y10062443D01*
X498352Y10051535D01*
X479347Y10046002D01*
X477162Y10045890D01*
X473165Y10057485D01*
X462401Y10090000D01*
X445931Y10140193D01*
X424818Y10204820D01*
X400124Y10280639D01*
X378512Y10347144D01*
X351931Y10429858D01*
X328524Y10504309D01*
X309287Y10567191D01*
X295220Y10615194D01*
X287319Y10645009D01*
X286100Y10653534D01*
X299645Y10658108D01*
X333670Y10667331D01*
X383912Y10680112D01*
X446109Y10695355D01*
X491787Y10706271D01*
X569219Y10725095D01*
X624757Y10739953D01*
X661412Y10751875D01*
X682195Y10761891D01*
X690116Y10771030D01*
X690406Y10774221D01*
X686630Y10794339D01*
X677736Y10833100D01*
X665123Y10884600D01*
X652695Y10933314D01*
X616729Y11071869D01*
X459661Y11113018D01*
X302594Y11154167D01*
X332272Y11183638D01*
X349760Y11200042D01*
X374009Y11222166D01*
X569526Y11222166D01*
X726088Y11176546D01*
X784953Y11159990D01*
X834249Y11147257D01*
X869311Y11139467D01*
X885476Y11137743D01*
X885997Y11138106D01*
X883305Y11152214D01*
X873470Y11185137D01*
X858083Y11231837D01*
X840370Y11282693D01*
X791396Y11420099D01*
X680461Y11321132D01*
X569526Y11222166D01*
X374009Y11222166D01*
X383295Y11230638D01*
X429922Y11272763D01*
X486687Y11323755D01*
X550636Y11380950D01*
X603250Y11427844D01*
X684222Y11499027D01*
X750383Y11555328D01*
X800921Y11596098D01*
X835024Y11620689D01*
X851880Y11628452D01*
X853343Y11627625D01*
X853343Y11627625D01*
G37*
X853343Y11627625D02*
X859163Y11613273D01*
X872076Y11578900D01*
X890762Y11528172D01*
X913903Y11464758D01*
X940178Y11392325D01*
X968269Y11314542D01*
X996855Y11235075D01*
X1024618Y11157593D01*
X1050237Y11085762D01*
X1072394Y11023252D01*
X1089769Y10973729D01*
X1101042Y10940862D01*
X1104900Y10928371D01*
X1093525Y10930560D01*
X1062378Y10939070D01*
X1015920Y10952624D01*
X958617Y10969944D01*
X944792Y10974197D01*
X884550Y10992560D01*
X833063Y11007830D01*
X795180Y11018599D01*
X775752Y11023461D01*
X774534Y11023600D01*
X774449Y11012190D01*
X779913Y10981291D01*
X789726Y10935901D01*
X802686Y10881015D01*
X817591Y10821633D01*
X833239Y10762752D01*
X848428Y10709367D01*
X856193Y10684030D01*
X858299Y10676535D01*
X857686Y10670072D01*
X851828Y10663865D01*
X838201Y10657137D01*
X814278Y10649114D01*
X777536Y10639020D01*
X725448Y10626078D01*
X655490Y10609514D01*
X565137Y10588551D01*
X485775Y10570239D01*
X463471Y10558653D01*
X457200Y10546550D01*
X460978Y10529396D01*
X471461Y10492370D01*
X487372Y10439712D01*
X507434Y10375662D01*
X527050Y10314651D01*
X549558Y10245068D01*
X569050Y10184109D01*
X584268Y10135767D01*
X593953Y10104037D01*
X596900Y10093018D01*
X586369Y10086626D01*
X560606Y10075288D01*
X528353Y10062443D01*
X498352Y10051535D01*
X479347Y10046002D01*
X477162Y10045890D01*
X473165Y10057485D01*
X462401Y10090000D01*
X445931Y10140193D01*
X424818Y10204820D01*
X400124Y10280639D01*
X378512Y10347144D01*
X351931Y10429858D01*
X328524Y10504309D01*
X309287Y10567191D01*
X295220Y10615194D01*
X287319Y10645009D01*
X286100Y10653534D01*
X299645Y10658108D01*
X333670Y10667331D01*
X383912Y10680112D01*
X446109Y10695355D01*
X491787Y10706271D01*
X569219Y10725095D01*
X624757Y10739953D01*
X661412Y10751875D01*
X682195Y10761891D01*
X690116Y10771030D01*
X690406Y10774221D01*
X686630Y10794339D01*
X677736Y10833100D01*
X665123Y10884600D01*
X652695Y10933314D01*
X616729Y11071869D01*
X459661Y11113018D01*
X302594Y11154167D01*
X332272Y11183638D01*
X349760Y11200042D01*
X374009Y11222166D01*
X569526Y11222166D01*
X726088Y11176546D01*
X784953Y11159990D01*
X834249Y11147257D01*
X869311Y11139467D01*
X885476Y11137743D01*
X885997Y11138106D01*
X883305Y11152214D01*
X873470Y11185137D01*
X858083Y11231837D01*
X840370Y11282693D01*
X791396Y11420099D01*
X680461Y11321132D01*
X569526Y11222166D01*
X374009Y11222166D01*
X383295Y11230638D01*
X429922Y11272763D01*
X486687Y11323755D01*
X550636Y11380950D01*
X603250Y11427844D01*
X684222Y11499027D01*
X750383Y11555328D01*
X800921Y11596098D01*
X835024Y11620689D01*
X851880Y11628452D01*
X853343Y11627625D01*
M02*
