G04 #@! TF.FileFunction,Legend,Bot*
%FSLAX46Y46*%
G04 Gerber Fmt 4.6, Leading zero omitted, Abs format (unit mm)*
G04 Created by KiCad (PCBNEW 4.0.7) date Thu May 17 18:16:42 2018*
%MOMM*%
%LPD*%
G01*
G04 APERTURE LIST*
%ADD10C,0.100000*%
%ADD11C,0.010000*%
G04 APERTURE END LIST*
D10*
D11*
G36*
X-327903Y-12866802D02*
X-303015Y-12867905D01*
X-213102Y-12876265D01*
X-143577Y-12892882D01*
X-90220Y-12919726D01*
X-48810Y-12958767D01*
X-22031Y-12999056D01*
X-4835Y-13031923D01*
X5014Y-13059717D01*
X8888Y-13090818D01*
X8165Y-13133605D01*
X5994Y-13169900D01*
X-2952Y-13282168D01*
X-13916Y-13379859D01*
X-26469Y-13460135D01*
X-40181Y-13520161D01*
X-51898Y-13552102D01*
X-86296Y-13601899D01*
X-135530Y-13650155D01*
X-190078Y-13688128D01*
X-211394Y-13698538D01*
X-262393Y-13711118D01*
X-324472Y-13714289D01*
X-385067Y-13707927D01*
X-412750Y-13700486D01*
X-477583Y-13667470D01*
X-526219Y-13618257D01*
X-555650Y-13566529D01*
X-566376Y-13542323D01*
X-574262Y-13520462D01*
X-579636Y-13496770D01*
X-582826Y-13467073D01*
X-584160Y-13427199D01*
X-583966Y-13372972D01*
X-582573Y-13300220D01*
X-581191Y-13241529D01*
X-578471Y-13156431D01*
X-574749Y-13080642D01*
X-570314Y-13018222D01*
X-565452Y-12973227D01*
X-560623Y-12950133D01*
X-533888Y-12915879D01*
X-486752Y-12888219D01*
X-454338Y-12875677D01*
X-422106Y-12868485D01*
X-382486Y-12865806D01*
X-327903Y-12866802D01*
X-327903Y-12866802D01*
G37*
X-327903Y-12866802D02*
X-303015Y-12867905D01*
X-213102Y-12876265D01*
X-143577Y-12892882D01*
X-90220Y-12919726D01*
X-48810Y-12958767D01*
X-22031Y-12999056D01*
X-4835Y-13031923D01*
X5014Y-13059717D01*
X8888Y-13090818D01*
X8165Y-13133605D01*
X5994Y-13169900D01*
X-2952Y-13282168D01*
X-13916Y-13379859D01*
X-26469Y-13460135D01*
X-40181Y-13520161D01*
X-51898Y-13552102D01*
X-86296Y-13601899D01*
X-135530Y-13650155D01*
X-190078Y-13688128D01*
X-211394Y-13698538D01*
X-262393Y-13711118D01*
X-324472Y-13714289D01*
X-385067Y-13707927D01*
X-412750Y-13700486D01*
X-477583Y-13667470D01*
X-526219Y-13618257D01*
X-555650Y-13566529D01*
X-566376Y-13542323D01*
X-574262Y-13520462D01*
X-579636Y-13496770D01*
X-582826Y-13467073D01*
X-584160Y-13427199D01*
X-583966Y-13372972D01*
X-582573Y-13300220D01*
X-581191Y-13241529D01*
X-578471Y-13156431D01*
X-574749Y-13080642D01*
X-570314Y-13018222D01*
X-565452Y-12973227D01*
X-560623Y-12950133D01*
X-533888Y-12915879D01*
X-486752Y-12888219D01*
X-454338Y-12875677D01*
X-422106Y-12868485D01*
X-382486Y-12865806D01*
X-327903Y-12866802D01*
G36*
X786460Y-12050243D02*
X806913Y-12057424D01*
X821953Y-12070478D01*
X826222Y-12075541D01*
X854459Y-12125841D01*
X874393Y-12197658D01*
X885057Y-12275887D01*
X885083Y-12355746D01*
X868136Y-12418923D01*
X833274Y-12468441D01*
X821643Y-12479046D01*
X801994Y-12494582D01*
X783787Y-12504044D01*
X760724Y-12508426D01*
X726509Y-12508723D01*
X674844Y-12505932D01*
X658325Y-12504859D01*
X604759Y-12503221D01*
X530964Y-12503685D01*
X442010Y-12506109D01*
X342970Y-12510348D01*
X238913Y-12516259D01*
X226359Y-12517072D01*
X82290Y-12525314D01*
X-52641Y-12530221D01*
X-188136Y-12531969D01*
X-333897Y-12530734D01*
X-421115Y-12528869D01*
X-759679Y-12520390D01*
X-910065Y-12564636D01*
X-1048253Y-12603459D01*
X-1165001Y-12632138D01*
X-1262039Y-12650936D01*
X-1341098Y-12660113D01*
X-1403908Y-12659929D01*
X-1452201Y-12650646D01*
X-1460494Y-12647632D01*
X-1510884Y-12616343D01*
X-1554858Y-12568648D01*
X-1571211Y-12542051D01*
X-1582948Y-12506871D01*
X-1591741Y-12456839D01*
X-1597095Y-12399964D01*
X-1598516Y-12344255D01*
X-1595507Y-12297723D01*
X-1588064Y-12269253D01*
X-1574067Y-12249528D01*
X-1553331Y-12232503D01*
X-1523679Y-12217762D01*
X-1482937Y-12204892D01*
X-1428929Y-12193480D01*
X-1359479Y-12183110D01*
X-1272411Y-12173370D01*
X-1165551Y-12163845D01*
X-1036722Y-12154121D01*
X-952500Y-12148323D01*
X-861872Y-12141634D01*
X-770687Y-12133822D01*
X-685258Y-12125505D01*
X-611897Y-12117303D01*
X-556918Y-12109834D01*
X-552450Y-12109115D01*
X-505376Y-12102000D01*
X-461695Y-12097201D01*
X-416281Y-12094635D01*
X-364008Y-12094215D01*
X-299751Y-12095856D01*
X-218385Y-12099475D01*
X-158750Y-12102585D01*
X-38984Y-12108054D01*
X62957Y-12110085D01*
X154462Y-12108294D01*
X242923Y-12102295D01*
X335729Y-12091704D01*
X440271Y-12076135D01*
X482600Y-12069171D01*
X550469Y-12059562D01*
X623462Y-12052014D01*
X688349Y-12047833D01*
X702713Y-12047452D01*
X753944Y-12047423D01*
X786460Y-12050243D01*
X786460Y-12050243D01*
G37*
X786460Y-12050243D02*
X806913Y-12057424D01*
X821953Y-12070478D01*
X826222Y-12075541D01*
X854459Y-12125841D01*
X874393Y-12197658D01*
X885057Y-12275887D01*
X885083Y-12355746D01*
X868136Y-12418923D01*
X833274Y-12468441D01*
X821643Y-12479046D01*
X801994Y-12494582D01*
X783787Y-12504044D01*
X760724Y-12508426D01*
X726509Y-12508723D01*
X674844Y-12505932D01*
X658325Y-12504859D01*
X604759Y-12503221D01*
X530964Y-12503685D01*
X442010Y-12506109D01*
X342970Y-12510348D01*
X238913Y-12516259D01*
X226359Y-12517072D01*
X82290Y-12525314D01*
X-52641Y-12530221D01*
X-188136Y-12531969D01*
X-333897Y-12530734D01*
X-421115Y-12528869D01*
X-759679Y-12520390D01*
X-910065Y-12564636D01*
X-1048253Y-12603459D01*
X-1165001Y-12632138D01*
X-1262039Y-12650936D01*
X-1341098Y-12660113D01*
X-1403908Y-12659929D01*
X-1452201Y-12650646D01*
X-1460494Y-12647632D01*
X-1510884Y-12616343D01*
X-1554858Y-12568648D01*
X-1571211Y-12542051D01*
X-1582948Y-12506871D01*
X-1591741Y-12456839D01*
X-1597095Y-12399964D01*
X-1598516Y-12344255D01*
X-1595507Y-12297723D01*
X-1588064Y-12269253D01*
X-1574067Y-12249528D01*
X-1553331Y-12232503D01*
X-1523679Y-12217762D01*
X-1482937Y-12204892D01*
X-1428929Y-12193480D01*
X-1359479Y-12183110D01*
X-1272411Y-12173370D01*
X-1165551Y-12163845D01*
X-1036722Y-12154121D01*
X-952500Y-12148323D01*
X-861872Y-12141634D01*
X-770687Y-12133822D01*
X-685258Y-12125505D01*
X-611897Y-12117303D01*
X-556918Y-12109834D01*
X-552450Y-12109115D01*
X-505376Y-12102000D01*
X-461695Y-12097201D01*
X-416281Y-12094635D01*
X-364008Y-12094215D01*
X-299751Y-12095856D01*
X-218385Y-12099475D01*
X-158750Y-12102585D01*
X-38984Y-12108054D01*
X62957Y-12110085D01*
X154462Y-12108294D01*
X242923Y-12102295D01*
X335729Y-12091704D01*
X440271Y-12076135D01*
X482600Y-12069171D01*
X550469Y-12059562D01*
X623462Y-12052014D01*
X688349Y-12047833D01*
X702713Y-12047452D01*
X753944Y-12047423D01*
X786460Y-12050243D01*
G36*
X-352747Y-9890509D02*
X-248402Y-9915561D01*
X-153136Y-9955909D01*
X-93286Y-9994228D01*
X-40549Y-10038351D01*
X-6558Y-10078670D01*
X12932Y-10122176D01*
X22165Y-10175862D01*
X22965Y-10185735D01*
X22516Y-10241014D01*
X15618Y-10313110D01*
X3583Y-10394657D01*
X-12276Y-10478287D01*
X-30648Y-10556633D01*
X-50220Y-10622326D01*
X-58901Y-10645392D01*
X-75383Y-10692808D01*
X-86279Y-10738543D01*
X-88900Y-10763373D01*
X-76606Y-10827841D01*
X-41271Y-10890976D01*
X14781Y-10950093D01*
X89226Y-11002505D01*
X141159Y-11029344D01*
X210695Y-11061179D01*
X432372Y-11048664D01*
X522548Y-11042873D01*
X620588Y-11035414D01*
X716737Y-11027099D01*
X801239Y-11018741D01*
X830076Y-11015512D01*
X933434Y-11005262D01*
X1017838Y-11001670D01*
X1088946Y-11005121D01*
X1152418Y-11016002D01*
X1213912Y-11034698D01*
X1236080Y-11043185D01*
X1323676Y-11087948D01*
X1392067Y-11142952D01*
X1440394Y-11205664D01*
X1467798Y-11273546D01*
X1473422Y-11344065D01*
X1456406Y-11414683D01*
X1415892Y-11482867D01*
X1393566Y-11508221D01*
X1340512Y-11554119D01*
X1280169Y-11588207D01*
X1209231Y-11611218D01*
X1124393Y-11623887D01*
X1022349Y-11626948D01*
X899793Y-11621137D01*
X889060Y-11620315D01*
X821316Y-11616740D01*
X732611Y-11614699D01*
X627331Y-11614094D01*
X509863Y-11614829D01*
X384593Y-11616807D01*
X255908Y-11619929D01*
X128194Y-11624099D01*
X5837Y-11629219D01*
X-106775Y-11635193D01*
X-205258Y-11641922D01*
X-247650Y-11645523D01*
X-301223Y-11650033D01*
X-374429Y-11655583D01*
X-461541Y-11661772D01*
X-556833Y-11668197D01*
X-654579Y-11674459D01*
X-703357Y-11677450D01*
X-837072Y-11686240D01*
X-950792Y-11695524D01*
X-1049921Y-11705995D01*
X-1139865Y-11718346D01*
X-1226028Y-11733266D01*
X-1313814Y-11751450D01*
X-1355677Y-11760972D01*
X-1404793Y-11771221D01*
X-1472023Y-11783601D01*
X-1550298Y-11796895D01*
X-1632554Y-11809884D01*
X-1679527Y-11816830D01*
X-1757040Y-11828156D01*
X-1831088Y-11839321D01*
X-1895775Y-11849410D01*
X-1945206Y-11857509D01*
X-1967059Y-11861406D01*
X-2068696Y-11872690D01*
X-2161211Y-11864790D01*
X-2197100Y-11856301D01*
X-2289000Y-11821362D01*
X-2372069Y-11771845D01*
X-2441499Y-11711506D01*
X-2492486Y-11644102D01*
X-2507722Y-11613456D01*
X-2525298Y-11544989D01*
X-2525816Y-11471499D01*
X-2510784Y-11399808D01*
X-2481708Y-11336733D01*
X-2440097Y-11289097D01*
X-2435204Y-11285372D01*
X-2419506Y-11275699D01*
X-2400198Y-11268669D01*
X-2372991Y-11263771D01*
X-2333595Y-11260496D01*
X-2277722Y-11258332D01*
X-2201083Y-11256770D01*
X-2193904Y-11256655D01*
X-2110594Y-11254789D01*
X-2023543Y-11251898D01*
X-1941485Y-11248333D01*
X-1873156Y-11244440D01*
X-1854812Y-11243120D01*
X-1779880Y-11239522D01*
X-1695877Y-11238891D01*
X-1617441Y-11241248D01*
X-1594462Y-11242748D01*
X-1522764Y-11245936D01*
X-1439451Y-11245843D01*
X-1350678Y-11242854D01*
X-1262602Y-11237353D01*
X-1181379Y-11229728D01*
X-1113166Y-11220362D01*
X-1064117Y-11209641D01*
X-1063752Y-11209531D01*
X-969306Y-11169258D01*
X-881290Y-11109827D01*
X-805699Y-11036222D01*
X-748530Y-10953427D01*
X-743139Y-10943005D01*
X-720646Y-10886299D01*
X-712738Y-10830802D01*
X-719178Y-10768647D01*
X-735887Y-10704262D01*
X-761945Y-10602151D01*
X-784539Y-10478762D01*
X-803021Y-10338065D01*
X-813206Y-10230893D01*
X-818859Y-10146579D01*
X-819564Y-10083121D01*
X-814362Y-10036290D01*
X-802292Y-10001858D01*
X-782396Y-9975596D01*
X-753714Y-9953276D01*
X-749632Y-9950659D01*
X-664613Y-9910829D01*
X-566416Y-9887774D01*
X-460606Y-9881124D01*
X-352747Y-9890509D01*
X-352747Y-9890509D01*
G37*
X-352747Y-9890509D02*
X-248402Y-9915561D01*
X-153136Y-9955909D01*
X-93286Y-9994228D01*
X-40549Y-10038351D01*
X-6558Y-10078670D01*
X12932Y-10122176D01*
X22165Y-10175862D01*
X22965Y-10185735D01*
X22516Y-10241014D01*
X15618Y-10313110D01*
X3583Y-10394657D01*
X-12276Y-10478287D01*
X-30648Y-10556633D01*
X-50220Y-10622326D01*
X-58901Y-10645392D01*
X-75383Y-10692808D01*
X-86279Y-10738543D01*
X-88900Y-10763373D01*
X-76606Y-10827841D01*
X-41271Y-10890976D01*
X14781Y-10950093D01*
X89226Y-11002505D01*
X141159Y-11029344D01*
X210695Y-11061179D01*
X432372Y-11048664D01*
X522548Y-11042873D01*
X620588Y-11035414D01*
X716737Y-11027099D01*
X801239Y-11018741D01*
X830076Y-11015512D01*
X933434Y-11005262D01*
X1017838Y-11001670D01*
X1088946Y-11005121D01*
X1152418Y-11016002D01*
X1213912Y-11034698D01*
X1236080Y-11043185D01*
X1323676Y-11087948D01*
X1392067Y-11142952D01*
X1440394Y-11205664D01*
X1467798Y-11273546D01*
X1473422Y-11344065D01*
X1456406Y-11414683D01*
X1415892Y-11482867D01*
X1393566Y-11508221D01*
X1340512Y-11554119D01*
X1280169Y-11588207D01*
X1209231Y-11611218D01*
X1124393Y-11623887D01*
X1022349Y-11626948D01*
X899793Y-11621137D01*
X889060Y-11620315D01*
X821316Y-11616740D01*
X732611Y-11614699D01*
X627331Y-11614094D01*
X509863Y-11614829D01*
X384593Y-11616807D01*
X255908Y-11619929D01*
X128194Y-11624099D01*
X5837Y-11629219D01*
X-106775Y-11635193D01*
X-205258Y-11641922D01*
X-247650Y-11645523D01*
X-301223Y-11650033D01*
X-374429Y-11655583D01*
X-461541Y-11661772D01*
X-556833Y-11668197D01*
X-654579Y-11674459D01*
X-703357Y-11677450D01*
X-837072Y-11686240D01*
X-950792Y-11695524D01*
X-1049921Y-11705995D01*
X-1139865Y-11718346D01*
X-1226028Y-11733266D01*
X-1313814Y-11751450D01*
X-1355677Y-11760972D01*
X-1404793Y-11771221D01*
X-1472023Y-11783601D01*
X-1550298Y-11796895D01*
X-1632554Y-11809884D01*
X-1679527Y-11816830D01*
X-1757040Y-11828156D01*
X-1831088Y-11839321D01*
X-1895775Y-11849410D01*
X-1945206Y-11857509D01*
X-1967059Y-11861406D01*
X-2068696Y-11872690D01*
X-2161211Y-11864790D01*
X-2197100Y-11856301D01*
X-2289000Y-11821362D01*
X-2372069Y-11771845D01*
X-2441499Y-11711506D01*
X-2492486Y-11644102D01*
X-2507722Y-11613456D01*
X-2525298Y-11544989D01*
X-2525816Y-11471499D01*
X-2510784Y-11399808D01*
X-2481708Y-11336733D01*
X-2440097Y-11289097D01*
X-2435204Y-11285372D01*
X-2419506Y-11275699D01*
X-2400198Y-11268669D01*
X-2372991Y-11263771D01*
X-2333595Y-11260496D01*
X-2277722Y-11258332D01*
X-2201083Y-11256770D01*
X-2193904Y-11256655D01*
X-2110594Y-11254789D01*
X-2023543Y-11251898D01*
X-1941485Y-11248333D01*
X-1873156Y-11244440D01*
X-1854812Y-11243120D01*
X-1779880Y-11239522D01*
X-1695877Y-11238891D01*
X-1617441Y-11241248D01*
X-1594462Y-11242748D01*
X-1522764Y-11245936D01*
X-1439451Y-11245843D01*
X-1350678Y-11242854D01*
X-1262602Y-11237353D01*
X-1181379Y-11229728D01*
X-1113166Y-11220362D01*
X-1064117Y-11209641D01*
X-1063752Y-11209531D01*
X-969306Y-11169258D01*
X-881290Y-11109827D01*
X-805699Y-11036222D01*
X-748530Y-10953427D01*
X-743139Y-10943005D01*
X-720646Y-10886299D01*
X-712738Y-10830802D01*
X-719178Y-10768647D01*
X-735887Y-10704262D01*
X-761945Y-10602151D01*
X-784539Y-10478762D01*
X-803021Y-10338065D01*
X-813206Y-10230893D01*
X-818859Y-10146579D01*
X-819564Y-10083121D01*
X-814362Y-10036290D01*
X-802292Y-10001858D01*
X-782396Y-9975596D01*
X-753714Y-9953276D01*
X-749632Y-9950659D01*
X-664613Y-9910829D01*
X-566416Y-9887774D01*
X-460606Y-9881124D01*
X-352747Y-9890509D01*
G36*
X-4373372Y9776153D02*
X-4373828Y9707756D01*
X-4373147Y9660648D01*
X-4370812Y9630723D01*
X-4366304Y9613877D01*
X-4359106Y9606006D01*
X-4351583Y9603513D01*
X-4322812Y9609833D01*
X-4289739Y9636153D01*
X-4255934Y9678325D01*
X-4224970Y9732201D01*
X-4208970Y9769128D01*
X-4179648Y9833392D01*
X-4150339Y9872980D01*
X-4121299Y9887662D01*
X-4092788Y9877207D01*
X-4090217Y9874990D01*
X-4071343Y9855757D01*
X-4060509Y9836709D01*
X-4058909Y9814750D01*
X-4067739Y9786779D01*
X-4088192Y9749701D01*
X-4121465Y9700418D01*
X-4168753Y9635830D01*
X-4196983Y9598212D01*
X-4257024Y9516873D01*
X-4300834Y9453672D01*
X-4328993Y9407707D01*
X-4342082Y9378077D01*
X-4343228Y9370688D01*
X-4340211Y9327979D01*
X-4331694Y9267215D01*
X-4318962Y9194818D01*
X-4303302Y9117210D01*
X-4285997Y9040813D01*
X-4268335Y8972048D01*
X-4253729Y8923582D01*
X-4206565Y8801233D01*
X-4154560Y8702649D01*
X-4096805Y8626500D01*
X-4032394Y8571459D01*
X-4000500Y8552973D01*
X-3968171Y8535019D01*
X-3923662Y8508174D01*
X-3875821Y8477797D01*
X-3868950Y8473297D01*
X-3825345Y8445226D01*
X-3796202Y8429391D01*
X-3774990Y8423730D01*
X-3755176Y8426181D01*
X-3737870Y8431896D01*
X-3706104Y8440946D01*
X-3685344Y8437538D01*
X-3668779Y8425074D01*
X-3648712Y8390797D01*
X-3647459Y8364354D01*
X-3652442Y8341041D01*
X-3665966Y8326529D01*
X-3694730Y8315402D01*
X-3714750Y8309975D01*
X-3767946Y8298062D01*
X-3805504Y8295953D01*
X-3835647Y8304745D01*
X-3866600Y8325534D01*
X-3873500Y8331137D01*
X-3902159Y8352421D01*
X-3946404Y8382494D01*
X-3999969Y8417198D01*
X-4051300Y8449155D01*
X-4111303Y8486756D01*
X-4154581Y8517131D01*
X-4186751Y8545134D01*
X-4213431Y8575621D01*
X-4238625Y8611028D01*
X-4302579Y8723628D01*
X-4356434Y8855801D01*
X-4400369Y9008326D01*
X-4434559Y9181981D01*
X-4459181Y9377547D01*
X-4474411Y9595801D01*
X-4477050Y9662063D01*
X-4479863Y9753589D01*
X-4480833Y9822839D01*
X-4479259Y9872912D01*
X-4474437Y9906908D01*
X-4465665Y9927924D01*
X-4452241Y9939060D01*
X-4433460Y9943416D01*
X-4413092Y9944100D01*
X-4371594Y9944100D01*
X-4373372Y9776153D01*
X-4373372Y9776153D01*
G37*
X-4373372Y9776153D02*
X-4373828Y9707756D01*
X-4373147Y9660648D01*
X-4370812Y9630723D01*
X-4366304Y9613877D01*
X-4359106Y9606006D01*
X-4351583Y9603513D01*
X-4322812Y9609833D01*
X-4289739Y9636153D01*
X-4255934Y9678325D01*
X-4224970Y9732201D01*
X-4208970Y9769128D01*
X-4179648Y9833392D01*
X-4150339Y9872980D01*
X-4121299Y9887662D01*
X-4092788Y9877207D01*
X-4090217Y9874990D01*
X-4071343Y9855757D01*
X-4060509Y9836709D01*
X-4058909Y9814750D01*
X-4067739Y9786779D01*
X-4088192Y9749701D01*
X-4121465Y9700418D01*
X-4168753Y9635830D01*
X-4196983Y9598212D01*
X-4257024Y9516873D01*
X-4300834Y9453672D01*
X-4328993Y9407707D01*
X-4342082Y9378077D01*
X-4343228Y9370688D01*
X-4340211Y9327979D01*
X-4331694Y9267215D01*
X-4318962Y9194818D01*
X-4303302Y9117210D01*
X-4285997Y9040813D01*
X-4268335Y8972048D01*
X-4253729Y8923582D01*
X-4206565Y8801233D01*
X-4154560Y8702649D01*
X-4096805Y8626500D01*
X-4032394Y8571459D01*
X-4000500Y8552973D01*
X-3968171Y8535019D01*
X-3923662Y8508174D01*
X-3875821Y8477797D01*
X-3868950Y8473297D01*
X-3825345Y8445226D01*
X-3796202Y8429391D01*
X-3774990Y8423730D01*
X-3755176Y8426181D01*
X-3737870Y8431896D01*
X-3706104Y8440946D01*
X-3685344Y8437538D01*
X-3668779Y8425074D01*
X-3648712Y8390797D01*
X-3647459Y8364354D01*
X-3652442Y8341041D01*
X-3665966Y8326529D01*
X-3694730Y8315402D01*
X-3714750Y8309975D01*
X-3767946Y8298062D01*
X-3805504Y8295953D01*
X-3835647Y8304745D01*
X-3866600Y8325534D01*
X-3873500Y8331137D01*
X-3902159Y8352421D01*
X-3946404Y8382494D01*
X-3999969Y8417198D01*
X-4051300Y8449155D01*
X-4111303Y8486756D01*
X-4154581Y8517131D01*
X-4186751Y8545134D01*
X-4213431Y8575621D01*
X-4238625Y8611028D01*
X-4302579Y8723628D01*
X-4356434Y8855801D01*
X-4400369Y9008326D01*
X-4434559Y9181981D01*
X-4459181Y9377547D01*
X-4474411Y9595801D01*
X-4477050Y9662063D01*
X-4479863Y9753589D01*
X-4480833Y9822839D01*
X-4479259Y9872912D01*
X-4474437Y9906908D01*
X-4465665Y9927924D01*
X-4452241Y9939060D01*
X-4433460Y9943416D01*
X-4413092Y9944100D01*
X-4371594Y9944100D01*
X-4373372Y9776153D01*
G36*
X3664596Y10089147D02*
X3734172Y10068732D01*
X3811546Y10037723D01*
X3890567Y9998586D01*
X3965084Y9953789D01*
X3965563Y9953470D01*
X4059670Y9886560D01*
X4131349Y9825275D01*
X4182134Y9766824D01*
X4213563Y9708417D01*
X4227171Y9647261D01*
X4224494Y9580566D01*
X4208827Y9511431D01*
X4184429Y9445485D01*
X4152554Y9394792D01*
X4109617Y9356980D01*
X4052035Y9329676D01*
X3976221Y9310507D01*
X3886200Y9297901D01*
X3823312Y9290360D01*
X3780692Y9282840D01*
X3753244Y9273996D01*
X3735872Y9262484D01*
X3730625Y9256856D01*
X3713970Y9231385D01*
X3708400Y9214156D01*
X3719968Y9185073D01*
X3753955Y9147139D01*
X3809277Y9101147D01*
X3884855Y9047890D01*
X3979607Y8988160D01*
X4092453Y8922749D01*
X4146550Y8892921D01*
X4208019Y8858260D01*
X4258907Y8827146D01*
X4295565Y8801971D01*
X4314347Y8785123D01*
X4315974Y8781942D01*
X4310882Y8758619D01*
X4292622Y8731293D01*
X4291535Y8730118D01*
X4251244Y8704898D01*
X4198560Y8698669D01*
X4137806Y8711292D01*
X4083050Y8736739D01*
X4044793Y8762143D01*
X3996240Y8798757D01*
X3945527Y8840322D01*
X3924300Y8858859D01*
X3868180Y8906299D01*
X3803583Y8956825D01*
X3742261Y9001334D01*
X3727450Y9011365D01*
X3680209Y9045086D01*
X3639274Y9078631D01*
X3610870Y9106712D01*
X3603625Y9116511D01*
X3584791Y9170200D01*
X3581970Y9232377D01*
X3594801Y9292111D01*
X3610439Y9323097D01*
X3633323Y9350045D01*
X3663621Y9370653D01*
X3705633Y9386454D01*
X3763658Y9398983D01*
X3841996Y9409771D01*
X3858883Y9411679D01*
X3939790Y9423578D01*
X3999121Y9439839D01*
X4040549Y9462030D01*
X4067745Y9491719D01*
X4074377Y9503749D01*
X4096597Y9572023D01*
X4094794Y9636400D01*
X4068589Y9697955D01*
X4017604Y9757765D01*
X3971752Y9795655D01*
X3878616Y9859176D01*
X3795322Y9903474D01*
X3717586Y9930439D01*
X3641127Y9941959D01*
X3639818Y9942032D01*
X3592738Y9946194D01*
X3554842Y9952469D01*
X3534094Y9959524D01*
X3533775Y9959770D01*
X3522769Y9980522D01*
X3517911Y10013133D01*
X3517900Y10014785D01*
X3528888Y10056830D01*
X3559265Y10085211D01*
X3605152Y10096446D01*
X3608970Y10096500D01*
X3664596Y10089147D01*
X3664596Y10089147D01*
G37*
X3664596Y10089147D02*
X3734172Y10068732D01*
X3811546Y10037723D01*
X3890567Y9998586D01*
X3965084Y9953789D01*
X3965563Y9953470D01*
X4059670Y9886560D01*
X4131349Y9825275D01*
X4182134Y9766824D01*
X4213563Y9708417D01*
X4227171Y9647261D01*
X4224494Y9580566D01*
X4208827Y9511431D01*
X4184429Y9445485D01*
X4152554Y9394792D01*
X4109617Y9356980D01*
X4052035Y9329676D01*
X3976221Y9310507D01*
X3886200Y9297901D01*
X3823312Y9290360D01*
X3780692Y9282840D01*
X3753244Y9273996D01*
X3735872Y9262484D01*
X3730625Y9256856D01*
X3713970Y9231385D01*
X3708400Y9214156D01*
X3719968Y9185073D01*
X3753955Y9147139D01*
X3809277Y9101147D01*
X3884855Y9047890D01*
X3979607Y8988160D01*
X4092453Y8922749D01*
X4146550Y8892921D01*
X4208019Y8858260D01*
X4258907Y8827146D01*
X4295565Y8801971D01*
X4314347Y8785123D01*
X4315974Y8781942D01*
X4310882Y8758619D01*
X4292622Y8731293D01*
X4291535Y8730118D01*
X4251244Y8704898D01*
X4198560Y8698669D01*
X4137806Y8711292D01*
X4083050Y8736739D01*
X4044793Y8762143D01*
X3996240Y8798757D01*
X3945527Y8840322D01*
X3924300Y8858859D01*
X3868180Y8906299D01*
X3803583Y8956825D01*
X3742261Y9001334D01*
X3727450Y9011365D01*
X3680209Y9045086D01*
X3639274Y9078631D01*
X3610870Y9106712D01*
X3603625Y9116511D01*
X3584791Y9170200D01*
X3581970Y9232377D01*
X3594801Y9292111D01*
X3610439Y9323097D01*
X3633323Y9350045D01*
X3663621Y9370653D01*
X3705633Y9386454D01*
X3763658Y9398983D01*
X3841996Y9409771D01*
X3858883Y9411679D01*
X3939790Y9423578D01*
X3999121Y9439839D01*
X4040549Y9462030D01*
X4067745Y9491719D01*
X4074377Y9503749D01*
X4096597Y9572023D01*
X4094794Y9636400D01*
X4068589Y9697955D01*
X4017604Y9757765D01*
X3971752Y9795655D01*
X3878616Y9859176D01*
X3795322Y9903474D01*
X3717586Y9930439D01*
X3641127Y9941959D01*
X3639818Y9942032D01*
X3592738Y9946194D01*
X3554842Y9952469D01*
X3534094Y9959524D01*
X3533775Y9959770D01*
X3522769Y9980522D01*
X3517911Y10013133D01*
X3517900Y10014785D01*
X3528888Y10056830D01*
X3559265Y10085211D01*
X3605152Y10096446D01*
X3608970Y10096500D01*
X3664596Y10089147D01*
G36*
X114681Y10205664D02*
X148711Y10182225D01*
X167440Y10149868D01*
X186034Y10095754D01*
X203728Y10023520D01*
X219754Y9936802D01*
X233346Y9839236D01*
X243738Y9734459D01*
X244109Y9729741D01*
X258334Y9547132D01*
X336831Y9554462D01*
X391459Y9556651D01*
X423904Y9551118D01*
X429913Y9547207D01*
X443364Y9517482D01*
X438833Y9479854D01*
X421423Y9448516D01*
X402700Y9431347D01*
X377091Y9422891D01*
X336095Y9420614D01*
X327926Y9420651D01*
X257506Y9421283D01*
X250059Y9332458D01*
X236777Y9250002D01*
X209774Y9180333D01*
X165357Y9116186D01*
X112455Y9061781D01*
X39015Y9000153D01*
X-27071Y8959671D01*
X-90003Y8938857D01*
X-153979Y8936236D01*
X-212978Y8947391D01*
X-290289Y8973324D01*
X-344704Y9002063D01*
X-367596Y9022502D01*
X-377441Y9042165D01*
X-373185Y9067819D01*
X-368238Y9080651D01*
X-343976Y9115789D01*
X-311436Y9127407D01*
X-272879Y9115095D01*
X-253854Y9101376D01*
X-197834Y9067399D01*
X-138971Y9057860D01*
X-76479Y9072860D01*
X-9575Y9112503D01*
X20944Y9137324D01*
X73490Y9192446D01*
X108337Y9253207D01*
X129204Y9327071D01*
X134984Y9366222D01*
X143197Y9436100D01*
X10746Y9436100D01*
X-60198Y9434204D01*
X-143595Y9429101D01*
X-226831Y9421671D01*
X-272250Y9416357D01*
X-341080Y9408447D01*
X-393260Y9404779D01*
X-425646Y9405508D01*
X-434573Y9408393D01*
X-444757Y9434534D01*
X-440477Y9470223D01*
X-424213Y9506085D01*
X-402382Y9530029D01*
X-388829Y9539131D01*
X-373671Y9545795D01*
X-353111Y9550322D01*
X-323351Y9553012D01*
X-280593Y9554165D01*
X-221038Y9554080D01*
X-140888Y9553059D01*
X-115856Y9552672D01*
X134902Y9548724D01*
X130150Y9667037D01*
X120770Y9800803D01*
X104290Y9910602D01*
X80620Y9996882D01*
X51813Y10056821D01*
X25145Y10102901D01*
X14736Y10136023D01*
X19946Y10162191D01*
X38100Y10185400D01*
X75270Y10207531D01*
X114681Y10205664D01*
X114681Y10205664D01*
G37*
X114681Y10205664D02*
X148711Y10182225D01*
X167440Y10149868D01*
X186034Y10095754D01*
X203728Y10023520D01*
X219754Y9936802D01*
X233346Y9839236D01*
X243738Y9734459D01*
X244109Y9729741D01*
X258334Y9547132D01*
X336831Y9554462D01*
X391459Y9556651D01*
X423904Y9551118D01*
X429913Y9547207D01*
X443364Y9517482D01*
X438833Y9479854D01*
X421423Y9448516D01*
X402700Y9431347D01*
X377091Y9422891D01*
X336095Y9420614D01*
X327926Y9420651D01*
X257506Y9421283D01*
X250059Y9332458D01*
X236777Y9250002D01*
X209774Y9180333D01*
X165357Y9116186D01*
X112455Y9061781D01*
X39015Y9000153D01*
X-27071Y8959671D01*
X-90003Y8938857D01*
X-153979Y8936236D01*
X-212978Y8947391D01*
X-290289Y8973324D01*
X-344704Y9002063D01*
X-367596Y9022502D01*
X-377441Y9042165D01*
X-373185Y9067819D01*
X-368238Y9080651D01*
X-343976Y9115789D01*
X-311436Y9127407D01*
X-272879Y9115095D01*
X-253854Y9101376D01*
X-197834Y9067399D01*
X-138971Y9057860D01*
X-76479Y9072860D01*
X-9575Y9112503D01*
X20944Y9137324D01*
X73490Y9192446D01*
X108337Y9253207D01*
X129204Y9327071D01*
X134984Y9366222D01*
X143197Y9436100D01*
X10746Y9436100D01*
X-60198Y9434204D01*
X-143595Y9429101D01*
X-226831Y9421671D01*
X-272250Y9416357D01*
X-341080Y9408447D01*
X-393260Y9404779D01*
X-425646Y9405508D01*
X-434573Y9408393D01*
X-444757Y9434534D01*
X-440477Y9470223D01*
X-424213Y9506085D01*
X-402382Y9530029D01*
X-388829Y9539131D01*
X-373671Y9545795D01*
X-353111Y9550322D01*
X-323351Y9553012D01*
X-280593Y9554165D01*
X-221038Y9554080D01*
X-140888Y9553059D01*
X-115856Y9552672D01*
X134902Y9548724D01*
X130150Y9667037D01*
X120770Y9800803D01*
X104290Y9910602D01*
X80620Y9996882D01*
X51813Y10056821D01*
X25145Y10102901D01*
X14736Y10136023D01*
X19946Y10162191D01*
X38100Y10185400D01*
X75270Y10207531D01*
X114681Y10205664D01*
G36*
X-1785562Y10092494D02*
X-1744033Y10081962D01*
X-1696116Y10067132D01*
X-1693464Y10066235D01*
X-1639864Y10050503D01*
X-1572487Y10034266D01*
X-1502762Y10020180D01*
X-1475390Y10015523D01*
X-1413456Y10003925D01*
X-1354233Y9989745D01*
X-1306610Y9975242D01*
X-1289093Y9968187D01*
X-1224976Y9926501D01*
X-1162622Y9865004D01*
X-1105899Y9789199D01*
X-1058675Y9704587D01*
X-1024819Y9616671D01*
X-1015201Y9578588D01*
X-1006772Y9512979D01*
X-1005059Y9436642D01*
X-1009504Y9357979D01*
X-1019552Y9285390D01*
X-1034645Y9227280D01*
X-1039241Y9215774D01*
X-1086334Y9139435D01*
X-1153372Y9073426D01*
X-1236458Y9019321D01*
X-1331693Y8978694D01*
X-1435179Y8953121D01*
X-1543018Y8944176D01*
X-1651312Y8953432D01*
X-1676400Y8958418D01*
X-1715804Y8968257D01*
X-1751552Y8980450D01*
X-1788874Y8997600D01*
X-1832999Y9022308D01*
X-1889155Y9057178D01*
X-1937057Y9088135D01*
X-1993342Y9127074D01*
X-2028500Y9158170D01*
X-2044250Y9184683D01*
X-2042310Y9209872D01*
X-2024399Y9236997D01*
X-2018806Y9243206D01*
X-1992392Y9264697D01*
X-1966503Y9267790D01*
X-1936367Y9251436D01*
X-1899545Y9217025D01*
X-1860224Y9182252D01*
X-1809627Y9145567D01*
X-1765197Y9118600D01*
X-1729430Y9099809D01*
X-1700526Y9087242D01*
X-1671881Y9079656D01*
X-1636893Y9075806D01*
X-1588960Y9074448D01*
X-1530350Y9074324D01*
X-1448980Y9076189D01*
X-1386296Y9083010D01*
X-1335738Y9096950D01*
X-1290748Y9120169D01*
X-1244765Y9154830D01*
X-1219934Y9176599D01*
X-1176739Y9223060D01*
X-1148364Y9274050D01*
X-1131277Y9337326D01*
X-1124885Y9385300D01*
X-1125214Y9493625D01*
X-1146716Y9597804D01*
X-1187558Y9693569D01*
X-1245905Y9776653D01*
X-1319923Y9842790D01*
X-1322182Y9844343D01*
X-1369301Y9867470D01*
X-1436368Y9887949D01*
X-1517983Y9904715D01*
X-1608743Y9916704D01*
X-1703249Y9922850D01*
X-1722700Y9923293D01*
X-1781645Y9925159D01*
X-1821111Y9929332D01*
X-1846989Y9936883D01*
X-1865172Y9948881D01*
X-1865575Y9949244D01*
X-1887112Y9983086D01*
X-1889781Y10022050D01*
X-1876244Y10058819D01*
X-1849167Y10086074D01*
X-1811975Y10096500D01*
X-1785562Y10092494D01*
X-1785562Y10092494D01*
G37*
X-1785562Y10092494D02*
X-1744033Y10081962D01*
X-1696116Y10067132D01*
X-1693464Y10066235D01*
X-1639864Y10050503D01*
X-1572487Y10034266D01*
X-1502762Y10020180D01*
X-1475390Y10015523D01*
X-1413456Y10003925D01*
X-1354233Y9989745D01*
X-1306610Y9975242D01*
X-1289093Y9968187D01*
X-1224976Y9926501D01*
X-1162622Y9865004D01*
X-1105899Y9789199D01*
X-1058675Y9704587D01*
X-1024819Y9616671D01*
X-1015201Y9578588D01*
X-1006772Y9512979D01*
X-1005059Y9436642D01*
X-1009504Y9357979D01*
X-1019552Y9285390D01*
X-1034645Y9227280D01*
X-1039241Y9215774D01*
X-1086334Y9139435D01*
X-1153372Y9073426D01*
X-1236458Y9019321D01*
X-1331693Y8978694D01*
X-1435179Y8953121D01*
X-1543018Y8944176D01*
X-1651312Y8953432D01*
X-1676400Y8958418D01*
X-1715804Y8968257D01*
X-1751552Y8980450D01*
X-1788874Y8997600D01*
X-1832999Y9022308D01*
X-1889155Y9057178D01*
X-1937057Y9088135D01*
X-1993342Y9127074D01*
X-2028500Y9158170D01*
X-2044250Y9184683D01*
X-2042310Y9209872D01*
X-2024399Y9236997D01*
X-2018806Y9243206D01*
X-1992392Y9264697D01*
X-1966503Y9267790D01*
X-1936367Y9251436D01*
X-1899545Y9217025D01*
X-1860224Y9182252D01*
X-1809627Y9145567D01*
X-1765197Y9118600D01*
X-1729430Y9099809D01*
X-1700526Y9087242D01*
X-1671881Y9079656D01*
X-1636893Y9075806D01*
X-1588960Y9074448D01*
X-1530350Y9074324D01*
X-1448980Y9076189D01*
X-1386296Y9083010D01*
X-1335738Y9096950D01*
X-1290748Y9120169D01*
X-1244765Y9154830D01*
X-1219934Y9176599D01*
X-1176739Y9223060D01*
X-1148364Y9274050D01*
X-1131277Y9337326D01*
X-1124885Y9385300D01*
X-1125214Y9493625D01*
X-1146716Y9597804D01*
X-1187558Y9693569D01*
X-1245905Y9776653D01*
X-1319923Y9842790D01*
X-1322182Y9844343D01*
X-1369301Y9867470D01*
X-1436368Y9887949D01*
X-1517983Y9904715D01*
X-1608743Y9916704D01*
X-1703249Y9922850D01*
X-1722700Y9923293D01*
X-1781645Y9925159D01*
X-1821111Y9929332D01*
X-1846989Y9936883D01*
X-1865172Y9948881D01*
X-1865575Y9949244D01*
X-1887112Y9983086D01*
X-1889781Y10022050D01*
X-1876244Y10058819D01*
X-1849167Y10086074D01*
X-1811975Y10096500D01*
X-1785562Y10092494D01*
G36*
X2533695Y9869579D02*
X2591695Y9836178D01*
X2655831Y9782689D01*
X2691077Y9745860D01*
X2718183Y9706489D01*
X2742515Y9655907D01*
X2757034Y9619175D01*
X2780908Y9559217D01*
X2800478Y9519941D01*
X2818652Y9497674D01*
X2838335Y9488741D01*
X2859975Y9489101D01*
X2876617Y9494256D01*
X2886485Y9507917D01*
X2892328Y9536284D01*
X2895600Y9569450D01*
X2904018Y9622743D01*
X2918238Y9666831D01*
X2925976Y9681096D01*
X2961416Y9718830D01*
X3008733Y9750600D01*
X3058880Y9771471D01*
X3101296Y9776676D01*
X3124181Y9772565D01*
X3140499Y9761914D01*
X3154988Y9739225D01*
X3172387Y9699004D01*
X3175946Y9690100D01*
X3196344Y9643564D01*
X3213707Y9616737D01*
X3231505Y9604778D01*
X3238235Y9603244D01*
X3254478Y9602118D01*
X3262269Y9608628D01*
X3263206Y9628397D01*
X3258889Y9667045D01*
X3258110Y9673094D01*
X3250145Y9736585D01*
X3246412Y9779088D01*
X3247951Y9804815D01*
X3255802Y9817977D01*
X3271003Y9822785D01*
X3294594Y9823451D01*
X3295218Y9823450D01*
X3345586Y9823450D01*
X3376510Y9594850D01*
X3387793Y9508806D01*
X3395417Y9442052D01*
X3399665Y9388788D01*
X3400817Y9343212D01*
X3399156Y9299522D01*
X3394963Y9251918D01*
X3393727Y9240323D01*
X3383635Y9166640D01*
X3371561Y9115272D01*
X3356774Y9083164D01*
X3355629Y9081573D01*
X3323142Y9054173D01*
X3284629Y9044493D01*
X3248537Y9053687D01*
X3234676Y9065009D01*
X3216989Y9092993D01*
X3216522Y9123364D01*
X3233895Y9162232D01*
X3246614Y9182489D01*
X3266305Y9216247D01*
X3274758Y9246422D01*
X3274569Y9285031D01*
X3272835Y9303805D01*
X3264197Y9352751D01*
X3246578Y9394403D01*
X3215369Y9440213D01*
X3183574Y9484820D01*
X3154198Y9530915D01*
X3138889Y9558359D01*
X3112004Y9600813D01*
X3084585Y9619330D01*
X3053851Y9615275D01*
X3039293Y9607174D01*
X3017693Y9589075D01*
X3002445Y9564816D01*
X2992538Y9530089D01*
X2986961Y9480586D01*
X2984703Y9411997D01*
X2984500Y9373742D01*
X2984000Y9308092D01*
X2982064Y9263009D01*
X2978036Y9233670D01*
X2971258Y9215254D01*
X2961274Y9203119D01*
X2922613Y9181744D01*
X2882312Y9184251D01*
X2842010Y9209335D01*
X2803347Y9255691D01*
X2767963Y9322013D01*
X2748386Y9372600D01*
X2703668Y9490696D01*
X2658901Y9583639D01*
X2613946Y9651678D01*
X2570094Y9694073D01*
X2525711Y9718787D01*
X2491480Y9721379D01*
X2463858Y9701118D01*
X2444207Y9668114D01*
X2433626Y9640645D01*
X2428039Y9609565D01*
X2426862Y9567953D01*
X2429511Y9508891D01*
X2430059Y9500305D01*
X2435774Y9437253D01*
X2444153Y9374547D01*
X2453693Y9322819D01*
X2457076Y9309100D01*
X2472505Y9240663D01*
X2475434Y9191079D01*
X2465689Y9156997D01*
X2448274Y9138371D01*
X2408712Y9120391D01*
X2372022Y9126536D01*
X2350367Y9140825D01*
X2339356Y9151761D01*
X2331423Y9166703D01*
X2325804Y9190074D01*
X2321733Y9226299D01*
X2318442Y9279802D01*
X2315742Y9340850D01*
X2311820Y9440152D01*
X2309296Y9517751D01*
X2308361Y9577318D01*
X2309202Y9622523D01*
X2312008Y9657034D01*
X2316968Y9684521D01*
X2324271Y9708654D01*
X2334105Y9733102D01*
X2336157Y9737818D01*
X2366687Y9792201D01*
X2404648Y9837393D01*
X2444964Y9868489D01*
X2482555Y9880581D01*
X2483922Y9880600D01*
X2533695Y9869579D01*
X2533695Y9869579D01*
G37*
X2533695Y9869579D02*
X2591695Y9836178D01*
X2655831Y9782689D01*
X2691077Y9745860D01*
X2718183Y9706489D01*
X2742515Y9655907D01*
X2757034Y9619175D01*
X2780908Y9559217D01*
X2800478Y9519941D01*
X2818652Y9497674D01*
X2838335Y9488741D01*
X2859975Y9489101D01*
X2876617Y9494256D01*
X2886485Y9507917D01*
X2892328Y9536284D01*
X2895600Y9569450D01*
X2904018Y9622743D01*
X2918238Y9666831D01*
X2925976Y9681096D01*
X2961416Y9718830D01*
X3008733Y9750600D01*
X3058880Y9771471D01*
X3101296Y9776676D01*
X3124181Y9772565D01*
X3140499Y9761914D01*
X3154988Y9739225D01*
X3172387Y9699004D01*
X3175946Y9690100D01*
X3196344Y9643564D01*
X3213707Y9616737D01*
X3231505Y9604778D01*
X3238235Y9603244D01*
X3254478Y9602118D01*
X3262269Y9608628D01*
X3263206Y9628397D01*
X3258889Y9667045D01*
X3258110Y9673094D01*
X3250145Y9736585D01*
X3246412Y9779088D01*
X3247951Y9804815D01*
X3255802Y9817977D01*
X3271003Y9822785D01*
X3294594Y9823451D01*
X3295218Y9823450D01*
X3345586Y9823450D01*
X3376510Y9594850D01*
X3387793Y9508806D01*
X3395417Y9442052D01*
X3399665Y9388788D01*
X3400817Y9343212D01*
X3399156Y9299522D01*
X3394963Y9251918D01*
X3393727Y9240323D01*
X3383635Y9166640D01*
X3371561Y9115272D01*
X3356774Y9083164D01*
X3355629Y9081573D01*
X3323142Y9054173D01*
X3284629Y9044493D01*
X3248537Y9053687D01*
X3234676Y9065009D01*
X3216989Y9092993D01*
X3216522Y9123364D01*
X3233895Y9162232D01*
X3246614Y9182489D01*
X3266305Y9216247D01*
X3274758Y9246422D01*
X3274569Y9285031D01*
X3272835Y9303805D01*
X3264197Y9352751D01*
X3246578Y9394403D01*
X3215369Y9440213D01*
X3183574Y9484820D01*
X3154198Y9530915D01*
X3138889Y9558359D01*
X3112004Y9600813D01*
X3084585Y9619330D01*
X3053851Y9615275D01*
X3039293Y9607174D01*
X3017693Y9589075D01*
X3002445Y9564816D01*
X2992538Y9530089D01*
X2986961Y9480586D01*
X2984703Y9411997D01*
X2984500Y9373742D01*
X2984000Y9308092D01*
X2982064Y9263009D01*
X2978036Y9233670D01*
X2971258Y9215254D01*
X2961274Y9203119D01*
X2922613Y9181744D01*
X2882312Y9184251D01*
X2842010Y9209335D01*
X2803347Y9255691D01*
X2767963Y9322013D01*
X2748386Y9372600D01*
X2703668Y9490696D01*
X2658901Y9583639D01*
X2613946Y9651678D01*
X2570094Y9694073D01*
X2525711Y9718787D01*
X2491480Y9721379D01*
X2463858Y9701118D01*
X2444207Y9668114D01*
X2433626Y9640645D01*
X2428039Y9609565D01*
X2426862Y9567953D01*
X2429511Y9508891D01*
X2430059Y9500305D01*
X2435774Y9437253D01*
X2444153Y9374547D01*
X2453693Y9322819D01*
X2457076Y9309100D01*
X2472505Y9240663D01*
X2475434Y9191079D01*
X2465689Y9156997D01*
X2448274Y9138371D01*
X2408712Y9120391D01*
X2372022Y9126536D01*
X2350367Y9140825D01*
X2339356Y9151761D01*
X2331423Y9166703D01*
X2325804Y9190074D01*
X2321733Y9226299D01*
X2318442Y9279802D01*
X2315742Y9340850D01*
X2311820Y9440152D01*
X2309296Y9517751D01*
X2308361Y9577318D01*
X2309202Y9622523D01*
X2312008Y9657034D01*
X2316968Y9684521D01*
X2324271Y9708654D01*
X2334105Y9733102D01*
X2336157Y9737818D01*
X2366687Y9792201D01*
X2404648Y9837393D01*
X2444964Y9868489D01*
X2482555Y9880581D01*
X2483922Y9880600D01*
X2533695Y9869579D01*
G36*
X-2335878Y9617040D02*
X-2286180Y9591338D01*
X-2235577Y9551267D01*
X-2188742Y9501263D01*
X-2150350Y9445759D01*
X-2125075Y9389190D01*
X-2122354Y9379528D01*
X-2116349Y9314063D01*
X-2127936Y9245657D01*
X-2154195Y9180188D01*
X-2192206Y9123535D01*
X-2239049Y9081576D01*
X-2279650Y9062882D01*
X-2308046Y9063485D01*
X-2342767Y9074421D01*
X-2345419Y9075682D01*
X-2373585Y9095047D01*
X-2410128Y9127581D01*
X-2447592Y9166590D01*
X-2451066Y9170548D01*
X-2483180Y9205988D01*
X-2509576Y9232407D01*
X-2525494Y9245112D01*
X-2527152Y9245600D01*
X-2536906Y9234617D01*
X-2550172Y9206472D01*
X-2558679Y9183220D01*
X-2574865Y9143059D01*
X-2594265Y9119212D01*
X-2624193Y9102927D01*
X-2626602Y9101952D01*
X-2667150Y9089392D01*
X-2718165Y9078325D01*
X-2746013Y9074043D01*
X-2786895Y9069609D01*
X-2809387Y9070665D01*
X-2820247Y9079135D01*
X-2826212Y9096869D01*
X-2832755Y9144981D01*
X-2822670Y9175277D01*
X-2794888Y9190016D01*
X-2781300Y9191879D01*
X-2716744Y9201230D01*
X-2671936Y9220263D01*
X-2641853Y9253061D01*
X-2621469Y9303704D01*
X-2615703Y9326370D01*
X-2595603Y9391705D01*
X-2571452Y9433232D01*
X-2544095Y9450595D01*
X-2514378Y9443436D01*
X-2483146Y9411398D01*
X-2468655Y9388475D01*
X-2424423Y9320128D01*
X-2381606Y9271470D01*
X-2341918Y9243087D01*
X-2307072Y9235567D01*
X-2278780Y9249494D01*
X-2258758Y9285455D01*
X-2251969Y9314349D01*
X-2255365Y9366420D01*
X-2279590Y9414296D01*
X-2320077Y9453366D01*
X-2372256Y9479018D01*
X-2422798Y9486830D01*
X-2439383Y9497257D01*
X-2453579Y9519017D01*
X-2461194Y9545587D01*
X-2453394Y9569767D01*
X-2442526Y9585692D01*
X-2408929Y9614666D01*
X-2379995Y9623939D01*
X-2335878Y9617040D01*
X-2335878Y9617040D01*
G37*
X-2335878Y9617040D02*
X-2286180Y9591338D01*
X-2235577Y9551267D01*
X-2188742Y9501263D01*
X-2150350Y9445759D01*
X-2125075Y9389190D01*
X-2122354Y9379528D01*
X-2116349Y9314063D01*
X-2127936Y9245657D01*
X-2154195Y9180188D01*
X-2192206Y9123535D01*
X-2239049Y9081576D01*
X-2279650Y9062882D01*
X-2308046Y9063485D01*
X-2342767Y9074421D01*
X-2345419Y9075682D01*
X-2373585Y9095047D01*
X-2410128Y9127581D01*
X-2447592Y9166590D01*
X-2451066Y9170548D01*
X-2483180Y9205988D01*
X-2509576Y9232407D01*
X-2525494Y9245112D01*
X-2527152Y9245600D01*
X-2536906Y9234617D01*
X-2550172Y9206472D01*
X-2558679Y9183220D01*
X-2574865Y9143059D01*
X-2594265Y9119212D01*
X-2624193Y9102927D01*
X-2626602Y9101952D01*
X-2667150Y9089392D01*
X-2718165Y9078325D01*
X-2746013Y9074043D01*
X-2786895Y9069609D01*
X-2809387Y9070665D01*
X-2820247Y9079135D01*
X-2826212Y9096869D01*
X-2832755Y9144981D01*
X-2822670Y9175277D01*
X-2794888Y9190016D01*
X-2781300Y9191879D01*
X-2716744Y9201230D01*
X-2671936Y9220263D01*
X-2641853Y9253061D01*
X-2621469Y9303704D01*
X-2615703Y9326370D01*
X-2595603Y9391705D01*
X-2571452Y9433232D01*
X-2544095Y9450595D01*
X-2514378Y9443436D01*
X-2483146Y9411398D01*
X-2468655Y9388475D01*
X-2424423Y9320128D01*
X-2381606Y9271470D01*
X-2341918Y9243087D01*
X-2307072Y9235567D01*
X-2278780Y9249494D01*
X-2258758Y9285455D01*
X-2251969Y9314349D01*
X-2255365Y9366420D01*
X-2279590Y9414296D01*
X-2320077Y9453366D01*
X-2372256Y9479018D01*
X-2422798Y9486830D01*
X-2439383Y9497257D01*
X-2453579Y9519017D01*
X-2461194Y9545587D01*
X-2453394Y9569767D01*
X-2442526Y9585692D01*
X-2408929Y9614666D01*
X-2379995Y9623939D01*
X-2335878Y9617040D01*
G36*
X1832062Y9799090D02*
X1850304Y9792893D01*
X1885107Y9772958D01*
X1931304Y9741116D01*
X1982332Y9702521D01*
X2031627Y9662324D01*
X2072623Y9625680D01*
X2098523Y9598048D01*
X2157292Y9507322D01*
X2191455Y9421756D01*
X2200976Y9341530D01*
X2185821Y9266829D01*
X2168160Y9230201D01*
X2127150Y9173725D01*
X2076201Y9123362D01*
X2022392Y9085288D01*
X1982029Y9067821D01*
X1947641Y9059183D01*
X1922481Y9057408D01*
X1892943Y9062419D01*
X1873250Y9067203D01*
X1792975Y9095990D01*
X1724440Y9141506D01*
X1689630Y9174300D01*
X1646701Y9211889D01*
X1609442Y9231270D01*
X1580927Y9231278D01*
X1568450Y9220200D01*
X1550102Y9211144D01*
X1515608Y9207950D01*
X1473515Y9210545D01*
X1432373Y9218854D01*
X1424295Y9221443D01*
X1395422Y9236391D01*
X1384927Y9258769D01*
X1384300Y9270275D01*
X1393043Y9304853D01*
X1408794Y9327331D01*
X1428717Y9341089D01*
X1450571Y9341792D01*
X1477808Y9333401D01*
X1510958Y9324085D01*
X1532048Y9326986D01*
X1542213Y9333807D01*
X1557829Y9355425D01*
X1559878Y9386030D01*
X1547898Y9429626D01*
X1525019Y9482689D01*
X1505832Y9524558D01*
X1496990Y9550083D01*
X1497528Y9565663D01*
X1506479Y9577696D01*
X1510154Y9581114D01*
X1539988Y9596765D01*
X1565785Y9601200D01*
X1587956Y9597599D01*
X1601645Y9582362D01*
X1612680Y9548839D01*
X1613097Y9547225D01*
X1636528Y9460550D01*
X1657773Y9394400D01*
X1679170Y9344307D01*
X1703059Y9305803D01*
X1731779Y9274421D01*
X1767668Y9245691D01*
X1772906Y9241971D01*
X1837429Y9208634D01*
X1900736Y9197420D01*
X1959025Y9206876D01*
X2008494Y9235550D01*
X2045341Y9281986D01*
X2065763Y9344732D01*
X2067059Y9354421D01*
X2062882Y9411856D01*
X2036883Y9471435D01*
X1988107Y9534829D01*
X1933724Y9587922D01*
X1883646Y9629853D01*
X1845758Y9653737D01*
X1815699Y9660790D01*
X1789110Y9652233D01*
X1766953Y9634535D01*
X1739228Y9612621D01*
X1715706Y9601534D01*
X1712598Y9601200D01*
X1684477Y9612571D01*
X1662125Y9641361D01*
X1651285Y9679592D01*
X1651000Y9686797D01*
X1662585Y9726546D01*
X1692998Y9761118D01*
X1735725Y9787045D01*
X1784251Y9800858D01*
X1832062Y9799090D01*
X1832062Y9799090D01*
G37*
X1832062Y9799090D02*
X1850304Y9792893D01*
X1885107Y9772958D01*
X1931304Y9741116D01*
X1982332Y9702521D01*
X2031627Y9662324D01*
X2072623Y9625680D01*
X2098523Y9598048D01*
X2157292Y9507322D01*
X2191455Y9421756D01*
X2200976Y9341530D01*
X2185821Y9266829D01*
X2168160Y9230201D01*
X2127150Y9173725D01*
X2076201Y9123362D01*
X2022392Y9085288D01*
X1982029Y9067821D01*
X1947641Y9059183D01*
X1922481Y9057408D01*
X1892943Y9062419D01*
X1873250Y9067203D01*
X1792975Y9095990D01*
X1724440Y9141506D01*
X1689630Y9174300D01*
X1646701Y9211889D01*
X1609442Y9231270D01*
X1580927Y9231278D01*
X1568450Y9220200D01*
X1550102Y9211144D01*
X1515608Y9207950D01*
X1473515Y9210545D01*
X1432373Y9218854D01*
X1424295Y9221443D01*
X1395422Y9236391D01*
X1384927Y9258769D01*
X1384300Y9270275D01*
X1393043Y9304853D01*
X1408794Y9327331D01*
X1428717Y9341089D01*
X1450571Y9341792D01*
X1477808Y9333401D01*
X1510958Y9324085D01*
X1532048Y9326986D01*
X1542213Y9333807D01*
X1557829Y9355425D01*
X1559878Y9386030D01*
X1547898Y9429626D01*
X1525019Y9482689D01*
X1505832Y9524558D01*
X1496990Y9550083D01*
X1497528Y9565663D01*
X1506479Y9577696D01*
X1510154Y9581114D01*
X1539988Y9596765D01*
X1565785Y9601200D01*
X1587956Y9597599D01*
X1601645Y9582362D01*
X1612680Y9548839D01*
X1613097Y9547225D01*
X1636528Y9460550D01*
X1657773Y9394400D01*
X1679170Y9344307D01*
X1703059Y9305803D01*
X1731779Y9274421D01*
X1767668Y9245691D01*
X1772906Y9241971D01*
X1837429Y9208634D01*
X1900736Y9197420D01*
X1959025Y9206876D01*
X2008494Y9235550D01*
X2045341Y9281986D01*
X2065763Y9344732D01*
X2067059Y9354421D01*
X2062882Y9411856D01*
X2036883Y9471435D01*
X1988107Y9534829D01*
X1933724Y9587922D01*
X1883646Y9629853D01*
X1845758Y9653737D01*
X1815699Y9660790D01*
X1789110Y9652233D01*
X1766953Y9634535D01*
X1739228Y9612621D01*
X1715706Y9601534D01*
X1712598Y9601200D01*
X1684477Y9612571D01*
X1662125Y9641361D01*
X1651285Y9679592D01*
X1651000Y9686797D01*
X1662585Y9726546D01*
X1692998Y9761118D01*
X1735725Y9787045D01*
X1784251Y9800858D01*
X1832062Y9799090D01*
G36*
X1135811Y9712325D02*
X1138607Y9647534D01*
X1140502Y9566142D01*
X1141376Y9476937D01*
X1141109Y9388707D01*
X1140655Y9355552D01*
X1138986Y9275868D01*
X1136890Y9217928D01*
X1133959Y9178075D01*
X1129783Y9152655D01*
X1123953Y9138011D01*
X1116058Y9130487D01*
X1115406Y9130127D01*
X1070543Y9119523D01*
X1026073Y9132011D01*
X1013722Y9144782D01*
X1007680Y9168675D01*
X1006649Y9209934D01*
X1007023Y9223700D01*
X1000095Y9299630D01*
X973255Y9375444D01*
X925089Y9454177D01*
X866713Y9525236D01*
X807341Y9580691D01*
X744810Y9616410D01*
X673058Y9634711D01*
X586020Y9637914D01*
X573540Y9637357D01*
X528291Y9635631D01*
X502461Y9637429D01*
X490144Y9644319D01*
X485435Y9657869D01*
X484977Y9660870D01*
X489484Y9703218D01*
X515283Y9734334D01*
X560452Y9753295D01*
X623070Y9759176D01*
X679752Y9754529D01*
X755962Y9739469D01*
X813607Y9717089D01*
X859190Y9684162D01*
X889484Y9650460D01*
X929507Y9603118D01*
X960110Y9578095D01*
X983845Y9575313D01*
X1003266Y9594689D01*
X1020924Y9636143D01*
X1024190Y9646191D01*
X1036670Y9692076D01*
X1039599Y9727139D01*
X1033638Y9763812D01*
X1030997Y9774092D01*
X1023282Y9810664D01*
X1021427Y9837160D01*
X1022907Y9843402D01*
X1039220Y9851035D01*
X1070391Y9855030D01*
X1078726Y9855200D01*
X1127254Y9855200D01*
X1135811Y9712325D01*
X1135811Y9712325D01*
G37*
X1135811Y9712325D02*
X1138607Y9647534D01*
X1140502Y9566142D01*
X1141376Y9476937D01*
X1141109Y9388707D01*
X1140655Y9355552D01*
X1138986Y9275868D01*
X1136890Y9217928D01*
X1133959Y9178075D01*
X1129783Y9152655D01*
X1123953Y9138011D01*
X1116058Y9130487D01*
X1115406Y9130127D01*
X1070543Y9119523D01*
X1026073Y9132011D01*
X1013722Y9144782D01*
X1007680Y9168675D01*
X1006649Y9209934D01*
X1007023Y9223700D01*
X1000095Y9299630D01*
X973255Y9375444D01*
X925089Y9454177D01*
X866713Y9525236D01*
X807341Y9580691D01*
X744810Y9616410D01*
X673058Y9634711D01*
X586020Y9637914D01*
X573540Y9637357D01*
X528291Y9635631D01*
X502461Y9637429D01*
X490144Y9644319D01*
X485435Y9657869D01*
X484977Y9660870D01*
X489484Y9703218D01*
X515283Y9734334D01*
X560452Y9753295D01*
X623070Y9759176D01*
X679752Y9754529D01*
X755962Y9739469D01*
X813607Y9717089D01*
X859190Y9684162D01*
X889484Y9650460D01*
X929507Y9603118D01*
X960110Y9578095D01*
X983845Y9575313D01*
X1003266Y9594689D01*
X1020924Y9636143D01*
X1024190Y9646191D01*
X1036670Y9692076D01*
X1039599Y9727139D01*
X1033638Y9763812D01*
X1030997Y9774092D01*
X1023282Y9810664D01*
X1021427Y9837160D01*
X1022907Y9843402D01*
X1039220Y9851035D01*
X1070391Y9855030D01*
X1078726Y9855200D01*
X1127254Y9855200D01*
X1135811Y9712325D01*
G36*
X-3119327Y9819756D02*
X-3084704Y9793664D01*
X-3050240Y9757589D01*
X-3022266Y9717596D01*
X-3014359Y9701970D01*
X-2998855Y9671391D01*
X-2986005Y9653730D01*
X-2982752Y9652000D01*
X-2976446Y9663396D01*
X-2971141Y9692384D01*
X-2969321Y9712325D01*
X-2965450Y9772650D01*
X-2851150Y9772650D01*
X-2855211Y9639300D01*
X-2860236Y9532438D01*
X-2868442Y9426629D01*
X-2879117Y9329040D01*
X-2891551Y9246839D01*
X-2896794Y9220168D01*
X-2912242Y9172009D01*
X-2934777Y9146054D01*
X-2967424Y9139434D01*
X-2980403Y9140914D01*
X-3010890Y9151497D01*
X-3026084Y9173325D01*
X-3027800Y9210893D01*
X-3022622Y9245486D01*
X-3013027Y9316689D01*
X-3009992Y9388955D01*
X-3013311Y9455048D01*
X-3022776Y9507733D01*
X-3030747Y9528806D01*
X-3052864Y9566266D01*
X-3081872Y9608053D01*
X-3112803Y9647811D01*
X-3140693Y9679189D01*
X-3160576Y9695831D01*
X-3161672Y9696335D01*
X-3189898Y9695032D01*
X-3220783Y9670562D01*
X-3252678Y9624790D01*
X-3283931Y9559582D01*
X-3284995Y9556967D01*
X-3304391Y9506772D01*
X-3315807Y9467822D01*
X-3320818Y9430203D01*
X-3321000Y9384002D01*
X-3319143Y9342131D01*
X-3317717Y9287348D01*
X-3319203Y9242431D01*
X-3323294Y9213849D01*
X-3325507Y9208559D01*
X-3347564Y9195298D01*
X-3381412Y9191055D01*
X-3414991Y9196114D01*
X-3432599Y9206036D01*
X-3440964Y9228597D01*
X-3445921Y9275788D01*
X-3447413Y9347063D01*
X-3447397Y9351028D01*
X-3446518Y9410431D01*
X-3443331Y9454970D01*
X-3435951Y9493486D01*
X-3422494Y9534820D01*
X-3401078Y9587811D01*
X-3392765Y9607432D01*
X-3367940Y9662701D01*
X-3343597Y9711601D01*
X-3323022Y9747788D01*
X-3312437Y9762360D01*
X-3282216Y9784372D01*
X-3237821Y9805921D01*
X-3190157Y9822540D01*
X-3150131Y9829762D01*
X-3147780Y9829800D01*
X-3119327Y9819756D01*
X-3119327Y9819756D01*
G37*
X-3119327Y9819756D02*
X-3084704Y9793664D01*
X-3050240Y9757589D01*
X-3022266Y9717596D01*
X-3014359Y9701970D01*
X-2998855Y9671391D01*
X-2986005Y9653730D01*
X-2982752Y9652000D01*
X-2976446Y9663396D01*
X-2971141Y9692384D01*
X-2969321Y9712325D01*
X-2965450Y9772650D01*
X-2851150Y9772650D01*
X-2855211Y9639300D01*
X-2860236Y9532438D01*
X-2868442Y9426629D01*
X-2879117Y9329040D01*
X-2891551Y9246839D01*
X-2896794Y9220168D01*
X-2912242Y9172009D01*
X-2934777Y9146054D01*
X-2967424Y9139434D01*
X-2980403Y9140914D01*
X-3010890Y9151497D01*
X-3026084Y9173325D01*
X-3027800Y9210893D01*
X-3022622Y9245486D01*
X-3013027Y9316689D01*
X-3009992Y9388955D01*
X-3013311Y9455048D01*
X-3022776Y9507733D01*
X-3030747Y9528806D01*
X-3052864Y9566266D01*
X-3081872Y9608053D01*
X-3112803Y9647811D01*
X-3140693Y9679189D01*
X-3160576Y9695831D01*
X-3161672Y9696335D01*
X-3189898Y9695032D01*
X-3220783Y9670562D01*
X-3252678Y9624790D01*
X-3283931Y9559582D01*
X-3284995Y9556967D01*
X-3304391Y9506772D01*
X-3315807Y9467822D01*
X-3320818Y9430203D01*
X-3321000Y9384002D01*
X-3319143Y9342131D01*
X-3317717Y9287348D01*
X-3319203Y9242431D01*
X-3323294Y9213849D01*
X-3325507Y9208559D01*
X-3347564Y9195298D01*
X-3381412Y9191055D01*
X-3414991Y9196114D01*
X-3432599Y9206036D01*
X-3440964Y9228597D01*
X-3445921Y9275788D01*
X-3447413Y9347063D01*
X-3447397Y9351028D01*
X-3446518Y9410431D01*
X-3443331Y9454970D01*
X-3435951Y9493486D01*
X-3422494Y9534820D01*
X-3401078Y9587811D01*
X-3392765Y9607432D01*
X-3367940Y9662701D01*
X-3343597Y9711601D01*
X-3323022Y9747788D01*
X-3312437Y9762360D01*
X-3282216Y9784372D01*
X-3237821Y9805921D01*
X-3190157Y9822540D01*
X-3150131Y9829762D01*
X-3147780Y9829800D01*
X-3119327Y9819756D01*
G36*
X-3823981Y10372840D02*
X-3800284Y10367208D01*
X-3784715Y10353859D01*
X-3776471Y10329035D01*
X-3774750Y10288979D01*
X-3778751Y10229935D01*
X-3783586Y10183631D01*
X-3789920Y10116382D01*
X-3794189Y10049580D01*
X-3795905Y9992398D01*
X-3795335Y9963150D01*
X-3790950Y9886950D01*
X-3725347Y9890930D01*
X-3649891Y9883958D01*
X-3581599Y9853075D01*
X-3519369Y9797782D01*
X-3519022Y9797388D01*
X-3481516Y9747903D01*
X-3461451Y9700701D01*
X-3454569Y9644858D01*
X-3454400Y9631618D01*
X-3463936Y9565865D01*
X-3490301Y9509010D01*
X-3530138Y9467307D01*
X-3548426Y9456583D01*
X-3596170Y9441737D01*
X-3656344Y9433385D01*
X-3716573Y9432552D01*
X-3760322Y9439002D01*
X-3800235Y9439145D01*
X-3817472Y9430386D01*
X-3828740Y9419251D01*
X-3835660Y9402459D01*
X-3839043Y9374658D01*
X-3839700Y9330496D01*
X-3839001Y9288271D01*
X-3838575Y9225669D01*
X-3841532Y9184177D01*
X-3849275Y9159582D01*
X-3863205Y9147671D01*
X-3884724Y9144232D01*
X-3886948Y9144195D01*
X-3913281Y9151215D01*
X-3928382Y9159875D01*
X-3935682Y9167069D01*
X-3940800Y9178586D01*
X-3943847Y9197887D01*
X-3944937Y9228433D01*
X-3944185Y9273684D01*
X-3941702Y9337101D01*
X-3937602Y9422145D01*
X-3937220Y9429750D01*
X-3932807Y9515067D01*
X-3928277Y9598666D01*
X-3924591Y9663610D01*
X-3842399Y9663610D01*
X-3837967Y9612256D01*
X-3822653Y9571411D01*
X-3816393Y9563148D01*
X-3799370Y9547642D01*
X-3779508Y9540567D01*
X-3748651Y9540356D01*
X-3714793Y9543601D01*
X-3668610Y9551156D01*
X-3629258Y9561781D01*
X-3610939Y9569948D01*
X-3586275Y9593597D01*
X-3575223Y9613358D01*
X-3575811Y9650137D01*
X-3595579Y9690460D01*
X-3629760Y9729393D01*
X-3673590Y9762000D01*
X-3722305Y9783348D01*
X-3743725Y9787859D01*
X-3778429Y9790185D01*
X-3799446Y9782184D01*
X-3817761Y9759578D01*
X-3818249Y9758835D01*
X-3835857Y9715721D01*
X-3842399Y9663610D01*
X-3924591Y9663610D01*
X-3923967Y9674601D01*
X-3920215Y9736925D01*
X-3917409Y9779000D01*
X-3914623Y9823323D01*
X-3911278Y9886727D01*
X-3907675Y9962910D01*
X-3904115Y10045566D01*
X-3901473Y10112857D01*
X-3897871Y10201606D01*
X-3894000Y10268056D01*
X-3888939Y10315299D01*
X-3881764Y10346428D01*
X-3871554Y10364535D01*
X-3857389Y10372713D01*
X-3838345Y10374054D01*
X-3823981Y10372840D01*
X-3823981Y10372840D01*
G37*
X-3823981Y10372840D02*
X-3800284Y10367208D01*
X-3784715Y10353859D01*
X-3776471Y10329035D01*
X-3774750Y10288979D01*
X-3778751Y10229935D01*
X-3783586Y10183631D01*
X-3789920Y10116382D01*
X-3794189Y10049580D01*
X-3795905Y9992398D01*
X-3795335Y9963150D01*
X-3790950Y9886950D01*
X-3725347Y9890930D01*
X-3649891Y9883958D01*
X-3581599Y9853075D01*
X-3519369Y9797782D01*
X-3519022Y9797388D01*
X-3481516Y9747903D01*
X-3461451Y9700701D01*
X-3454569Y9644858D01*
X-3454400Y9631618D01*
X-3463936Y9565865D01*
X-3490301Y9509010D01*
X-3530138Y9467307D01*
X-3548426Y9456583D01*
X-3596170Y9441737D01*
X-3656344Y9433385D01*
X-3716573Y9432552D01*
X-3760322Y9439002D01*
X-3800235Y9439145D01*
X-3817472Y9430386D01*
X-3828740Y9419251D01*
X-3835660Y9402459D01*
X-3839043Y9374658D01*
X-3839700Y9330496D01*
X-3839001Y9288271D01*
X-3838575Y9225669D01*
X-3841532Y9184177D01*
X-3849275Y9159582D01*
X-3863205Y9147671D01*
X-3884724Y9144232D01*
X-3886948Y9144195D01*
X-3913281Y9151215D01*
X-3928382Y9159875D01*
X-3935682Y9167069D01*
X-3940800Y9178586D01*
X-3943847Y9197887D01*
X-3944937Y9228433D01*
X-3944185Y9273684D01*
X-3941702Y9337101D01*
X-3937602Y9422145D01*
X-3937220Y9429750D01*
X-3932807Y9515067D01*
X-3928277Y9598666D01*
X-3924591Y9663610D01*
X-3842399Y9663610D01*
X-3837967Y9612256D01*
X-3822653Y9571411D01*
X-3816393Y9563148D01*
X-3799370Y9547642D01*
X-3779508Y9540567D01*
X-3748651Y9540356D01*
X-3714793Y9543601D01*
X-3668610Y9551156D01*
X-3629258Y9561781D01*
X-3610939Y9569948D01*
X-3586275Y9593597D01*
X-3575223Y9613358D01*
X-3575811Y9650137D01*
X-3595579Y9690460D01*
X-3629760Y9729393D01*
X-3673590Y9762000D01*
X-3722305Y9783348D01*
X-3743725Y9787859D01*
X-3778429Y9790185D01*
X-3799446Y9782184D01*
X-3817761Y9759578D01*
X-3818249Y9758835D01*
X-3835857Y9715721D01*
X-3842399Y9663610D01*
X-3924591Y9663610D01*
X-3923967Y9674601D01*
X-3920215Y9736925D01*
X-3917409Y9779000D01*
X-3914623Y9823323D01*
X-3911278Y9886727D01*
X-3907675Y9962910D01*
X-3904115Y10045566D01*
X-3901473Y10112857D01*
X-3897871Y10201606D01*
X-3894000Y10268056D01*
X-3888939Y10315299D01*
X-3881764Y10346428D01*
X-3871554Y10364535D01*
X-3857389Y10372713D01*
X-3838345Y10374054D01*
X-3823981Y10372840D01*
G36*
X4725863Y11718435D02*
X4766983Y11709855D01*
X4793531Y11693809D01*
X4810321Y11664715D01*
X4822167Y11616992D01*
X4824478Y11604073D01*
X4831071Y11555883D01*
X4837838Y11488277D01*
X4844658Y11404209D01*
X4851413Y11306632D01*
X4857982Y11198501D01*
X4864247Y11082771D01*
X4870086Y10962395D01*
X4875382Y10840328D01*
X4880014Y10719524D01*
X4883862Y10602938D01*
X4886807Y10493524D01*
X4888730Y10394236D01*
X4889510Y10308028D01*
X4889028Y10237855D01*
X4887165Y10186671D01*
X4883800Y10157431D01*
X4883150Y10155091D01*
X4860467Y10118120D01*
X4823058Y10088507D01*
X4777753Y10068581D01*
X4731384Y10060669D01*
X4690782Y10067099D01*
X4668826Y10082059D01*
X4661629Y10091285D01*
X4655504Y10103217D01*
X4650300Y10120028D01*
X4645867Y10143894D01*
X4642056Y10176988D01*
X4638716Y10221486D01*
X4635698Y10279561D01*
X4632852Y10353389D01*
X4630028Y10445143D01*
X4627076Y10556999D01*
X4623846Y10691131D01*
X4622318Y10756900D01*
X4618154Y10917295D01*
X4613530Y11058304D01*
X4608504Y11178724D01*
X4603132Y11277354D01*
X4597471Y11352993D01*
X4591579Y11404439D01*
X4591554Y11404600D01*
X4583070Y11464149D01*
X4579437Y11506747D01*
X4580684Y11540383D01*
X4586842Y11573046D01*
X4592262Y11593240D01*
X4609269Y11638292D01*
X4631249Y11677865D01*
X4643552Y11693207D01*
X4670278Y11714418D01*
X4699113Y11720623D01*
X4725863Y11718435D01*
X4725863Y11718435D01*
G37*
X4725863Y11718435D02*
X4766983Y11709855D01*
X4793531Y11693809D01*
X4810321Y11664715D01*
X4822167Y11616992D01*
X4824478Y11604073D01*
X4831071Y11555883D01*
X4837838Y11488277D01*
X4844658Y11404209D01*
X4851413Y11306632D01*
X4857982Y11198501D01*
X4864247Y11082771D01*
X4870086Y10962395D01*
X4875382Y10840328D01*
X4880014Y10719524D01*
X4883862Y10602938D01*
X4886807Y10493524D01*
X4888730Y10394236D01*
X4889510Y10308028D01*
X4889028Y10237855D01*
X4887165Y10186671D01*
X4883800Y10157431D01*
X4883150Y10155091D01*
X4860467Y10118120D01*
X4823058Y10088507D01*
X4777753Y10068581D01*
X4731384Y10060669D01*
X4690782Y10067099D01*
X4668826Y10082059D01*
X4661629Y10091285D01*
X4655504Y10103217D01*
X4650300Y10120028D01*
X4645867Y10143894D01*
X4642056Y10176988D01*
X4638716Y10221486D01*
X4635698Y10279561D01*
X4632852Y10353389D01*
X4630028Y10445143D01*
X4627076Y10556999D01*
X4623846Y10691131D01*
X4622318Y10756900D01*
X4618154Y10917295D01*
X4613530Y11058304D01*
X4608504Y11178724D01*
X4603132Y11277354D01*
X4597471Y11352993D01*
X4591579Y11404439D01*
X4591554Y11404600D01*
X4583070Y11464149D01*
X4579437Y11506747D01*
X4580684Y11540383D01*
X4586842Y11573046D01*
X4592262Y11593240D01*
X4609269Y11638292D01*
X4631249Y11677865D01*
X4643552Y11693207D01*
X4670278Y11714418D01*
X4699113Y11720623D01*
X4725863Y11718435D01*
G36*
X3089996Y13175382D02*
X3131888Y13150670D01*
X3160177Y13118933D01*
X3172185Y13100369D01*
X3180291Y13082522D01*
X3184997Y13060458D01*
X3186804Y13029245D01*
X3186211Y12983952D01*
X3183720Y12919645D01*
X3182720Y12896850D01*
X3177382Y12810551D01*
X3168913Y12712185D01*
X3158541Y12614707D01*
X3149005Y12541250D01*
X3138604Y12456124D01*
X3129283Y12353905D01*
X3121679Y12242896D01*
X3116430Y12131400D01*
X3115604Y12105951D01*
X3108047Y11848452D01*
X3160126Y11798910D01*
X3182008Y11779849D01*
X3206509Y11763224D01*
X3237817Y11747172D01*
X3280125Y11729829D01*
X3337621Y11709335D01*
X3414497Y11683825D01*
X3431306Y11678365D01*
X3595310Y11619704D01*
X3735325Y11557846D01*
X3851105Y11492957D01*
X3942403Y11425201D01*
X4008972Y11354742D01*
X4050567Y11281745D01*
X4058018Y11259797D01*
X4072936Y11170132D01*
X4063656Y11087248D01*
X4029881Y11010151D01*
X3971315Y10937845D01*
X3958382Y10925507D01*
X3895435Y10873829D01*
X3836673Y10841283D01*
X3774335Y10824588D01*
X3709736Y10820400D01*
X3586739Y10830144D01*
X3460490Y10857688D01*
X3354729Y10895287D01*
X3304395Y10915597D01*
X3248788Y10935685D01*
X3194737Y10953347D01*
X3149071Y10966378D01*
X3118619Y10972574D01*
X3114638Y10972800D01*
X3108814Y10961017D01*
X3102829Y10929293D01*
X3097547Y10883067D01*
X3094971Y10848975D01*
X3090406Y10788024D01*
X3083496Y10711308D01*
X3075145Y10628251D01*
X3066258Y10548279D01*
X3065443Y10541388D01*
X3054341Y10456811D01*
X3042871Y10394345D01*
X3029269Y10350740D01*
X3011766Y10322747D01*
X2988597Y10307115D01*
X2957996Y10300594D01*
X2934090Y10299700D01*
X2897905Y10302812D01*
X2875105Y10316333D01*
X2857360Y10340975D01*
X2845666Y10364662D01*
X2837795Y10393278D01*
X2833758Y10430093D01*
X2833563Y10478379D01*
X2837217Y10541407D01*
X2844729Y10622448D01*
X2856107Y10724774D01*
X2858389Y10744200D01*
X2866815Y10819073D01*
X2872997Y10884749D01*
X2877115Y10946816D01*
X2879348Y11010861D01*
X2879874Y11082470D01*
X2878872Y11167231D01*
X2876520Y11270730D01*
X2875942Y11292719D01*
X2872685Y11414899D01*
X3080537Y11414899D01*
X3080740Y11385224D01*
X3081939Y11314972D01*
X3086523Y11264623D01*
X3097649Y11228682D01*
X3118473Y11201652D01*
X3152153Y11178038D01*
X3201847Y11152344D01*
X3219389Y11143871D01*
X3295236Y11110238D01*
X3364348Y11087002D01*
X3434847Y11072445D01*
X3514858Y11064851D01*
X3604202Y11062536D01*
X3669923Y11062448D01*
X3715318Y11063560D01*
X3745460Y11066695D01*
X3765419Y11072673D01*
X3780267Y11082315D01*
X3791527Y11092873D01*
X3816071Y11133960D01*
X3820648Y11184239D01*
X3806749Y11239315D01*
X3775869Y11294793D01*
X3729498Y11346277D01*
X3696682Y11372170D01*
X3658855Y11395055D01*
X3611273Y11419307D01*
X3561420Y11441625D01*
X3516785Y11458714D01*
X3484853Y11467276D01*
X3479800Y11467697D01*
X3461216Y11471441D01*
X3423469Y11481571D01*
X3371565Y11496663D01*
X3310511Y11515293D01*
X3292036Y11521082D01*
X3215513Y11544877D01*
X3159990Y11559261D01*
X3122129Y11562089D01*
X3098592Y11551213D01*
X3086040Y11524487D01*
X3081134Y11479765D01*
X3080537Y11414899D01*
X2872685Y11414899D01*
X2867244Y11618987D01*
X2817922Y11663264D01*
X2787552Y11693736D01*
X2772893Y11720266D01*
X2768662Y11753211D01*
X2768600Y11759987D01*
X2772803Y11799460D01*
X2789421Y11829399D01*
X2809530Y11849816D01*
X2836311Y11872648D01*
X2855278Y11885875D01*
X2858971Y11887200D01*
X2866046Y11890703D01*
X2871984Y11902837D01*
X2877020Y11926047D01*
X2881388Y11962774D01*
X2885322Y12015461D01*
X2889057Y12086550D01*
X2892825Y12178484D01*
X2896286Y12276480D01*
X2900195Y12375722D01*
X2905099Y12473935D01*
X2910666Y12566046D01*
X2916567Y12646980D01*
X2922471Y12711665D01*
X2926985Y12748373D01*
X2936709Y12819581D01*
X2945850Y12897647D01*
X2952834Y12968805D01*
X2954347Y12987744D01*
X2960101Y13043096D01*
X2968199Y13092502D01*
X2977183Y13127644D01*
X2980143Y13134792D01*
X3008678Y13167923D01*
X3047111Y13181293D01*
X3089996Y13175382D01*
X3089996Y13175382D01*
G37*
X3089996Y13175382D02*
X3131888Y13150670D01*
X3160177Y13118933D01*
X3172185Y13100369D01*
X3180291Y13082522D01*
X3184997Y13060458D01*
X3186804Y13029245D01*
X3186211Y12983952D01*
X3183720Y12919645D01*
X3182720Y12896850D01*
X3177382Y12810551D01*
X3168913Y12712185D01*
X3158541Y12614707D01*
X3149005Y12541250D01*
X3138604Y12456124D01*
X3129283Y12353905D01*
X3121679Y12242896D01*
X3116430Y12131400D01*
X3115604Y12105951D01*
X3108047Y11848452D01*
X3160126Y11798910D01*
X3182008Y11779849D01*
X3206509Y11763224D01*
X3237817Y11747172D01*
X3280125Y11729829D01*
X3337621Y11709335D01*
X3414497Y11683825D01*
X3431306Y11678365D01*
X3595310Y11619704D01*
X3735325Y11557846D01*
X3851105Y11492957D01*
X3942403Y11425201D01*
X4008972Y11354742D01*
X4050567Y11281745D01*
X4058018Y11259797D01*
X4072936Y11170132D01*
X4063656Y11087248D01*
X4029881Y11010151D01*
X3971315Y10937845D01*
X3958382Y10925507D01*
X3895435Y10873829D01*
X3836673Y10841283D01*
X3774335Y10824588D01*
X3709736Y10820400D01*
X3586739Y10830144D01*
X3460490Y10857688D01*
X3354729Y10895287D01*
X3304395Y10915597D01*
X3248788Y10935685D01*
X3194737Y10953347D01*
X3149071Y10966378D01*
X3118619Y10972574D01*
X3114638Y10972800D01*
X3108814Y10961017D01*
X3102829Y10929293D01*
X3097547Y10883067D01*
X3094971Y10848975D01*
X3090406Y10788024D01*
X3083496Y10711308D01*
X3075145Y10628251D01*
X3066258Y10548279D01*
X3065443Y10541388D01*
X3054341Y10456811D01*
X3042871Y10394345D01*
X3029269Y10350740D01*
X3011766Y10322747D01*
X2988597Y10307115D01*
X2957996Y10300594D01*
X2934090Y10299700D01*
X2897905Y10302812D01*
X2875105Y10316333D01*
X2857360Y10340975D01*
X2845666Y10364662D01*
X2837795Y10393278D01*
X2833758Y10430093D01*
X2833563Y10478379D01*
X2837217Y10541407D01*
X2844729Y10622448D01*
X2856107Y10724774D01*
X2858389Y10744200D01*
X2866815Y10819073D01*
X2872997Y10884749D01*
X2877115Y10946816D01*
X2879348Y11010861D01*
X2879874Y11082470D01*
X2878872Y11167231D01*
X2876520Y11270730D01*
X2875942Y11292719D01*
X2872685Y11414899D01*
X3080537Y11414899D01*
X3080740Y11385224D01*
X3081939Y11314972D01*
X3086523Y11264623D01*
X3097649Y11228682D01*
X3118473Y11201652D01*
X3152153Y11178038D01*
X3201847Y11152344D01*
X3219389Y11143871D01*
X3295236Y11110238D01*
X3364348Y11087002D01*
X3434847Y11072445D01*
X3514858Y11064851D01*
X3604202Y11062536D01*
X3669923Y11062448D01*
X3715318Y11063560D01*
X3745460Y11066695D01*
X3765419Y11072673D01*
X3780267Y11082315D01*
X3791527Y11092873D01*
X3816071Y11133960D01*
X3820648Y11184239D01*
X3806749Y11239315D01*
X3775869Y11294793D01*
X3729498Y11346277D01*
X3696682Y11372170D01*
X3658855Y11395055D01*
X3611273Y11419307D01*
X3561420Y11441625D01*
X3516785Y11458714D01*
X3484853Y11467276D01*
X3479800Y11467697D01*
X3461216Y11471441D01*
X3423469Y11481571D01*
X3371565Y11496663D01*
X3310511Y11515293D01*
X3292036Y11521082D01*
X3215513Y11544877D01*
X3159990Y11559261D01*
X3122129Y11562089D01*
X3098592Y11551213D01*
X3086040Y11524487D01*
X3081134Y11479765D01*
X3080537Y11414899D01*
X2872685Y11414899D01*
X2867244Y11618987D01*
X2817922Y11663264D01*
X2787552Y11693736D01*
X2772893Y11720266D01*
X2768662Y11753211D01*
X2768600Y11759987D01*
X2772803Y11799460D01*
X2789421Y11829399D01*
X2809530Y11849816D01*
X2836311Y11872648D01*
X2855278Y11885875D01*
X2858971Y11887200D01*
X2866046Y11890703D01*
X2871984Y11902837D01*
X2877020Y11926047D01*
X2881388Y11962774D01*
X2885322Y12015461D01*
X2889057Y12086550D01*
X2892825Y12178484D01*
X2896286Y12276480D01*
X2900195Y12375722D01*
X2905099Y12473935D01*
X2910666Y12566046D01*
X2916567Y12646980D01*
X2922471Y12711665D01*
X2926985Y12748373D01*
X2936709Y12819581D01*
X2945850Y12897647D01*
X2952834Y12968805D01*
X2954347Y12987744D01*
X2960101Y13043096D01*
X2968199Y13092502D01*
X2977183Y13127644D01*
X2980143Y13134792D01*
X3008678Y13167923D01*
X3047111Y13181293D01*
X3089996Y13175382D01*
G36*
X2060421Y11939982D02*
X2074987Y11924723D01*
X2088793Y11907439D01*
X2100377Y11889681D01*
X2109897Y11869210D01*
X2117514Y11843789D01*
X2123390Y11811177D01*
X2127685Y11769135D01*
X2130560Y11715426D01*
X2132174Y11647810D01*
X2132690Y11564049D01*
X2132267Y11461903D01*
X2131067Y11339133D01*
X2129250Y11193502D01*
X2128972Y11172475D01*
X2126883Y11025255D01*
X2124784Y10901445D01*
X2122596Y10799054D01*
X2120238Y10716091D01*
X2117632Y10650567D01*
X2114696Y10600490D01*
X2111353Y10563870D01*
X2107521Y10538718D01*
X2103121Y10523041D01*
X2102949Y10522622D01*
X2076800Y10482035D01*
X2042470Y10457983D01*
X2005744Y10452502D01*
X1972407Y10467629D01*
X1965750Y10474325D01*
X1951454Y10491422D01*
X1940222Y10508247D01*
X1931833Y10527799D01*
X1926063Y10553074D01*
X1922689Y10587071D01*
X1921488Y10632786D01*
X1922237Y10693219D01*
X1924713Y10771366D01*
X1928693Y10870225D01*
X1931470Y10935142D01*
X1936764Y11089838D01*
X1939099Y11236281D01*
X1938562Y11371837D01*
X1935241Y11493866D01*
X1929224Y11599733D01*
X1920598Y11686802D01*
X1909452Y11752434D01*
X1903495Y11774724D01*
X1895347Y11833620D01*
X1911220Y11886280D01*
X1942773Y11926928D01*
X1983838Y11956559D01*
X2022870Y11960914D01*
X2060421Y11939982D01*
X2060421Y11939982D01*
G37*
X2060421Y11939982D02*
X2074987Y11924723D01*
X2088793Y11907439D01*
X2100377Y11889681D01*
X2109897Y11869210D01*
X2117514Y11843789D01*
X2123390Y11811177D01*
X2127685Y11769135D01*
X2130560Y11715426D01*
X2132174Y11647810D01*
X2132690Y11564049D01*
X2132267Y11461903D01*
X2131067Y11339133D01*
X2129250Y11193502D01*
X2128972Y11172475D01*
X2126883Y11025255D01*
X2124784Y10901445D01*
X2122596Y10799054D01*
X2120238Y10716091D01*
X2117632Y10650567D01*
X2114696Y10600490D01*
X2111353Y10563870D01*
X2107521Y10538718D01*
X2103121Y10523041D01*
X2102949Y10522622D01*
X2076800Y10482035D01*
X2042470Y10457983D01*
X2005744Y10452502D01*
X1972407Y10467629D01*
X1965750Y10474325D01*
X1951454Y10491422D01*
X1940222Y10508247D01*
X1931833Y10527799D01*
X1926063Y10553074D01*
X1922689Y10587071D01*
X1921488Y10632786D01*
X1922237Y10693219D01*
X1924713Y10771366D01*
X1928693Y10870225D01*
X1931470Y10935142D01*
X1936764Y11089838D01*
X1939099Y11236281D01*
X1938562Y11371837D01*
X1935241Y11493866D01*
X1929224Y11599733D01*
X1920598Y11686802D01*
X1909452Y11752434D01*
X1903495Y11774724D01*
X1895347Y11833620D01*
X1911220Y11886280D01*
X1942773Y11926928D01*
X1983838Y11956559D01*
X2022870Y11960914D01*
X2060421Y11939982D01*
G36*
X-594361Y12434420D02*
X-566582Y12412218D01*
X-537243Y12370276D01*
X-511092Y12309374D01*
X-489946Y12235913D01*
X-475619Y12156298D01*
X-469929Y12076930D01*
X-469900Y12071320D01*
X-465452Y11968022D01*
X-451839Y11886788D01*
X-428656Y11825840D01*
X-407128Y11794974D01*
X-390413Y11777582D01*
X-373633Y11765984D01*
X-351045Y11758603D01*
X-316904Y11753863D01*
X-265466Y11750186D01*
X-238319Y11748635D01*
X-173650Y11744123D01*
X-129234Y11738451D01*
X-99925Y11730607D01*
X-80575Y11719575D01*
X-77514Y11716957D01*
X-56720Y11682478D01*
X-52325Y11637391D01*
X-62598Y11588879D01*
X-85812Y11544125D01*
X-120237Y11510314D01*
X-128425Y11505438D01*
X-162358Y11497372D01*
X-217119Y11497082D01*
X-289399Y11504448D01*
X-344871Y11513404D01*
X-391291Y11521833D01*
X-405017Y11453692D01*
X-410254Y11414124D01*
X-414351Y11356858D01*
X-416895Y11289586D01*
X-417480Y11220450D01*
X-418731Y11122808D01*
X-424773Y11039463D01*
X-436552Y10959605D01*
X-443374Y10924810D01*
X-470290Y10810749D01*
X-499723Y10718888D01*
X-533475Y10646039D01*
X-573349Y10589012D01*
X-621147Y10544617D01*
X-677719Y10510141D01*
X-714741Y10492932D01*
X-748032Y10481736D01*
X-785235Y10475082D01*
X-833995Y10471500D01*
X-887268Y10469841D01*
X-946678Y10469108D01*
X-999459Y10469590D01*
X-1038639Y10471163D01*
X-1054100Y10472820D01*
X-1164879Y10503323D01*
X-1269877Y10549919D01*
X-1362354Y10609132D01*
X-1422060Y10662478D01*
X-1465053Y10715412D01*
X-1484665Y10758544D01*
X-1480900Y10791835D01*
X-1453760Y10815247D01*
X-1407659Y10828101D01*
X-1372274Y10827351D01*
X-1329981Y10813959D01*
X-1277362Y10786355D01*
X-1210997Y10742965D01*
X-1189487Y10727773D01*
X-1097743Y10677644D01*
X-993841Y10649378D01*
X-908050Y10642799D01*
X-839284Y10650238D01*
X-782627Y10674213D01*
X-735690Y10716904D01*
X-696082Y10780490D01*
X-661416Y10867150D01*
X-661123Y10868031D01*
X-649263Y10916059D01*
X-638155Y10983717D01*
X-628301Y11065234D01*
X-620207Y11154843D01*
X-614376Y11246773D01*
X-611311Y11335255D01*
X-611516Y11414521D01*
X-612045Y11430000D01*
X-615950Y11525250D01*
X-825500Y11547377D01*
X-975520Y11559995D01*
X-1103520Y11563889D01*
X-1168890Y11562039D01*
X-1255283Y11559735D01*
X-1322801Y11563295D01*
X-1358623Y11569626D01*
X-1401639Y11587751D01*
X-1443184Y11615964D01*
X-1476853Y11648636D01*
X-1496241Y11680141D01*
X-1498600Y11692605D01*
X-1486630Y11731953D01*
X-1453486Y11768277D01*
X-1416794Y11790747D01*
X-1399334Y11798097D01*
X-1380459Y11802968D01*
X-1356084Y11805382D01*
X-1322123Y11805359D01*
X-1274489Y11802919D01*
X-1209096Y11798084D01*
X-1137139Y11792159D01*
X-1054149Y11784513D01*
X-972181Y11775757D01*
X-897688Y11766666D01*
X-837124Y11758015D01*
X-804117Y11752158D01*
X-706163Y11731901D01*
X-681839Y11761926D01*
X-670548Y11780723D01*
X-664298Y11805312D01*
X-663439Y11838703D01*
X-668320Y11883907D01*
X-679291Y11943937D01*
X-696701Y12021803D01*
X-720899Y12120517D01*
X-725599Y12139136D01*
X-745600Y12219606D01*
X-759392Y12279411D01*
X-767584Y12322357D01*
X-770784Y12352246D01*
X-769602Y12372884D01*
X-765262Y12386765D01*
X-734245Y12428583D01*
X-691687Y12450944D01*
X-643191Y12453129D01*
X-594361Y12434420D01*
X-594361Y12434420D01*
G37*
X-594361Y12434420D02*
X-566582Y12412218D01*
X-537243Y12370276D01*
X-511092Y12309374D01*
X-489946Y12235913D01*
X-475619Y12156298D01*
X-469929Y12076930D01*
X-469900Y12071320D01*
X-465452Y11968022D01*
X-451839Y11886788D01*
X-428656Y11825840D01*
X-407128Y11794974D01*
X-390413Y11777582D01*
X-373633Y11765984D01*
X-351045Y11758603D01*
X-316904Y11753863D01*
X-265466Y11750186D01*
X-238319Y11748635D01*
X-173650Y11744123D01*
X-129234Y11738451D01*
X-99925Y11730607D01*
X-80575Y11719575D01*
X-77514Y11716957D01*
X-56720Y11682478D01*
X-52325Y11637391D01*
X-62598Y11588879D01*
X-85812Y11544125D01*
X-120237Y11510314D01*
X-128425Y11505438D01*
X-162358Y11497372D01*
X-217119Y11497082D01*
X-289399Y11504448D01*
X-344871Y11513404D01*
X-391291Y11521833D01*
X-405017Y11453692D01*
X-410254Y11414124D01*
X-414351Y11356858D01*
X-416895Y11289586D01*
X-417480Y11220450D01*
X-418731Y11122808D01*
X-424773Y11039463D01*
X-436552Y10959605D01*
X-443374Y10924810D01*
X-470290Y10810749D01*
X-499723Y10718888D01*
X-533475Y10646039D01*
X-573349Y10589012D01*
X-621147Y10544617D01*
X-677719Y10510141D01*
X-714741Y10492932D01*
X-748032Y10481736D01*
X-785235Y10475082D01*
X-833995Y10471500D01*
X-887268Y10469841D01*
X-946678Y10469108D01*
X-999459Y10469590D01*
X-1038639Y10471163D01*
X-1054100Y10472820D01*
X-1164879Y10503323D01*
X-1269877Y10549919D01*
X-1362354Y10609132D01*
X-1422060Y10662478D01*
X-1465053Y10715412D01*
X-1484665Y10758544D01*
X-1480900Y10791835D01*
X-1453760Y10815247D01*
X-1407659Y10828101D01*
X-1372274Y10827351D01*
X-1329981Y10813959D01*
X-1277362Y10786355D01*
X-1210997Y10742965D01*
X-1189487Y10727773D01*
X-1097743Y10677644D01*
X-993841Y10649378D01*
X-908050Y10642799D01*
X-839284Y10650238D01*
X-782627Y10674213D01*
X-735690Y10716904D01*
X-696082Y10780490D01*
X-661416Y10867150D01*
X-661123Y10868031D01*
X-649263Y10916059D01*
X-638155Y10983717D01*
X-628301Y11065234D01*
X-620207Y11154843D01*
X-614376Y11246773D01*
X-611311Y11335255D01*
X-611516Y11414521D01*
X-612045Y11430000D01*
X-615950Y11525250D01*
X-825500Y11547377D01*
X-975520Y11559995D01*
X-1103520Y11563889D01*
X-1168890Y11562039D01*
X-1255283Y11559735D01*
X-1322801Y11563295D01*
X-1358623Y11569626D01*
X-1401639Y11587751D01*
X-1443184Y11615964D01*
X-1476853Y11648636D01*
X-1496241Y11680141D01*
X-1498600Y11692605D01*
X-1486630Y11731953D01*
X-1453486Y11768277D01*
X-1416794Y11790747D01*
X-1399334Y11798097D01*
X-1380459Y11802968D01*
X-1356084Y11805382D01*
X-1322123Y11805359D01*
X-1274489Y11802919D01*
X-1209096Y11798084D01*
X-1137139Y11792159D01*
X-1054149Y11784513D01*
X-972181Y11775757D01*
X-897688Y11766666D01*
X-837124Y11758015D01*
X-804117Y11752158D01*
X-706163Y11731901D01*
X-681839Y11761926D01*
X-670548Y11780723D01*
X-664298Y11805312D01*
X-663439Y11838703D01*
X-668320Y11883907D01*
X-679291Y11943937D01*
X-696701Y12021803D01*
X-720899Y12120517D01*
X-725599Y12139136D01*
X-745600Y12219606D01*
X-759392Y12279411D01*
X-767584Y12322357D01*
X-770784Y12352246D01*
X-769602Y12372884D01*
X-765262Y12386765D01*
X-734245Y12428583D01*
X-691687Y12450944D01*
X-643191Y12453129D01*
X-594361Y12434420D01*
G36*
X946787Y12083110D02*
X1029838Y12070983D01*
X1095885Y12052856D01*
X1096169Y12052747D01*
X1175453Y12011406D01*
X1257076Y11949043D01*
X1338202Y11869507D01*
X1415997Y11776643D01*
X1487625Y11674299D01*
X1550251Y11566321D01*
X1601039Y11456555D01*
X1637155Y11348850D01*
X1647293Y11305018D01*
X1657264Y11250282D01*
X1661433Y11209756D01*
X1659804Y11172920D01*
X1652383Y11129257D01*
X1647382Y11105622D01*
X1631509Y11048378D01*
X1607825Y10981403D01*
X1580838Y10917178D01*
X1574386Y10903593D01*
X1517291Y10801923D01*
X1453315Y10720087D01*
X1378006Y10654253D01*
X1286908Y10600586D01*
X1175568Y10555254D01*
X1165711Y10551892D01*
X1036827Y10517824D01*
X916065Y10504812D01*
X805527Y10512958D01*
X735865Y10531126D01*
X640565Y10570991D01*
X552438Y10622496D01*
X465197Y10689777D01*
X392668Y10756900D01*
X322398Y10831835D01*
X268821Y10904217D01*
X227457Y10981853D01*
X193823Y11072550D01*
X176111Y11134142D01*
X158501Y11223337D01*
X148748Y11323737D01*
X146878Y11427301D01*
X151574Y11504054D01*
X382852Y11504054D01*
X388047Y11443067D01*
X400563Y11365887D01*
X411961Y11307922D01*
X437922Y11193419D01*
X464831Y11100945D01*
X494142Y11027132D01*
X527308Y10968614D01*
X565783Y10922025D01*
X587030Y10902518D01*
X663270Y10853304D01*
X756150Y10817412D01*
X860247Y10795573D01*
X970143Y10788518D01*
X1080416Y10796978D01*
X1185647Y10821683D01*
X1185904Y10821767D01*
X1267517Y10858169D01*
X1335741Y10907865D01*
X1385938Y10967034D01*
X1403745Y11001168D01*
X1419456Y11061445D01*
X1425461Y11137015D01*
X1421898Y11219757D01*
X1408908Y11301551D01*
X1397855Y11343005D01*
X1375815Y11399752D01*
X1345452Y11461459D01*
X1319159Y11505637D01*
X1277023Y11559395D01*
X1219787Y11619672D01*
X1153798Y11680840D01*
X1085407Y11737267D01*
X1020962Y11783323D01*
X977900Y11808239D01*
X940807Y11825021D01*
X907075Y11835298D01*
X868336Y11840571D01*
X816224Y11842338D01*
X787400Y11842394D01*
X725014Y11841122D01*
X679387Y11836751D01*
X641927Y11827799D01*
X604043Y11812782D01*
X596900Y11809499D01*
X517586Y11765086D01*
X459177Y11714181D01*
X417298Y11652795D01*
X411059Y11640069D01*
X394371Y11597534D01*
X384964Y11553870D01*
X382852Y11504054D01*
X151574Y11504054D01*
X152916Y11525985D01*
X166887Y11611746D01*
X174530Y11640078D01*
X223607Y11758610D01*
X291391Y11861492D01*
X376010Y11947077D01*
X475592Y12013717D01*
X588262Y12059764D01*
X673100Y12078736D01*
X760669Y12087463D01*
X854481Y12088762D01*
X946787Y12083110D01*
X946787Y12083110D01*
G37*
X946787Y12083110D02*
X1029838Y12070983D01*
X1095885Y12052856D01*
X1096169Y12052747D01*
X1175453Y12011406D01*
X1257076Y11949043D01*
X1338202Y11869507D01*
X1415997Y11776643D01*
X1487625Y11674299D01*
X1550251Y11566321D01*
X1601039Y11456555D01*
X1637155Y11348850D01*
X1647293Y11305018D01*
X1657264Y11250282D01*
X1661433Y11209756D01*
X1659804Y11172920D01*
X1652383Y11129257D01*
X1647382Y11105622D01*
X1631509Y11048378D01*
X1607825Y10981403D01*
X1580838Y10917178D01*
X1574386Y10903593D01*
X1517291Y10801923D01*
X1453315Y10720087D01*
X1378006Y10654253D01*
X1286908Y10600586D01*
X1175568Y10555254D01*
X1165711Y10551892D01*
X1036827Y10517824D01*
X916065Y10504812D01*
X805527Y10512958D01*
X735865Y10531126D01*
X640565Y10570991D01*
X552438Y10622496D01*
X465197Y10689777D01*
X392668Y10756900D01*
X322398Y10831835D01*
X268821Y10904217D01*
X227457Y10981853D01*
X193823Y11072550D01*
X176111Y11134142D01*
X158501Y11223337D01*
X148748Y11323737D01*
X146878Y11427301D01*
X151574Y11504054D01*
X382852Y11504054D01*
X388047Y11443067D01*
X400563Y11365887D01*
X411961Y11307922D01*
X437922Y11193419D01*
X464831Y11100945D01*
X494142Y11027132D01*
X527308Y10968614D01*
X565783Y10922025D01*
X587030Y10902518D01*
X663270Y10853304D01*
X756150Y10817412D01*
X860247Y10795573D01*
X970143Y10788518D01*
X1080416Y10796978D01*
X1185647Y10821683D01*
X1185904Y10821767D01*
X1267517Y10858169D01*
X1335741Y10907865D01*
X1385938Y10967034D01*
X1403745Y11001168D01*
X1419456Y11061445D01*
X1425461Y11137015D01*
X1421898Y11219757D01*
X1408908Y11301551D01*
X1397855Y11343005D01*
X1375815Y11399752D01*
X1345452Y11461459D01*
X1319159Y11505637D01*
X1277023Y11559395D01*
X1219787Y11619672D01*
X1153798Y11680840D01*
X1085407Y11737267D01*
X1020962Y11783323D01*
X977900Y11808239D01*
X940807Y11825021D01*
X907075Y11835298D01*
X868336Y11840571D01*
X816224Y11842338D01*
X787400Y11842394D01*
X725014Y11841122D01*
X679387Y11836751D01*
X641927Y11827799D01*
X604043Y11812782D01*
X596900Y11809499D01*
X517586Y11765086D01*
X459177Y11714181D01*
X417298Y11652795D01*
X411059Y11640069D01*
X394371Y11597534D01*
X384964Y11553870D01*
X382852Y11504054D01*
X151574Y11504054D01*
X152916Y11525985D01*
X166887Y11611746D01*
X174530Y11640078D01*
X223607Y11758610D01*
X291391Y11861492D01*
X376010Y11947077D01*
X475592Y12013717D01*
X588262Y12059764D01*
X673100Y12078736D01*
X760669Y12087463D01*
X854481Y12088762D01*
X946787Y12083110D01*
G36*
X-4263151Y11844691D02*
X-4211393Y11839047D01*
X-4200644Y11837084D01*
X-4123328Y11810759D01*
X-4042870Y11765671D01*
X-3965322Y11706731D01*
X-3896740Y11638852D01*
X-3843178Y11566946D01*
X-3824202Y11531630D01*
X-3807743Y11490880D01*
X-3797039Y11449012D01*
X-3790542Y11397796D01*
X-3786865Y11333221D01*
X-3791408Y11202628D01*
X-3816033Y11087443D01*
X-3861003Y10987186D01*
X-3926580Y10901382D01*
X-4013026Y10829553D01*
X-4086825Y10786969D01*
X-4133090Y10764807D01*
X-4169979Y10750422D01*
X-4205909Y10741910D01*
X-4249297Y10737362D01*
X-4308559Y10734874D01*
X-4318000Y10734598D01*
X-4384658Y10733669D01*
X-4434616Y10736002D01*
X-4476473Y10742611D01*
X-4518830Y10754507D01*
X-4535727Y10760234D01*
X-4644451Y10809917D01*
X-4734726Y10876900D01*
X-4807256Y10961804D01*
X-4849808Y11036300D01*
X-4862976Y11065489D01*
X-4872138Y11092148D01*
X-4878014Y11121772D01*
X-4881328Y11159856D01*
X-4882799Y11211895D01*
X-4883149Y11283384D01*
X-4883150Y11290300D01*
X-4679941Y11290300D01*
X-4679100Y11230349D01*
X-4675662Y11188206D01*
X-4668268Y11156314D01*
X-4655559Y11127110D01*
X-4648200Y11113636D01*
X-4593846Y11042719D01*
X-4521802Y10988821D01*
X-4434139Y10952999D01*
X-4332925Y10936310D01*
X-4298950Y10935186D01*
X-4245693Y10936939D01*
X-4195409Y10941850D01*
X-4162820Y10947959D01*
X-4098533Y10978332D01*
X-4043503Y11028966D01*
X-4011228Y11078267D01*
X-3998370Y11107488D01*
X-3991183Y11137478D01*
X-3988737Y11175847D01*
X-3990099Y11230204D01*
X-3990811Y11244944D01*
X-4006674Y11364441D01*
X-4041475Y11467218D01*
X-4095511Y11553809D01*
X-4169078Y11624748D01*
X-4221291Y11659204D01*
X-4295586Y11688258D01*
X-4372320Y11693075D01*
X-4448701Y11674274D01*
X-4521934Y11632474D01*
X-4578960Y11580053D01*
X-4625246Y11521616D01*
X-4655730Y11463221D01*
X-4672997Y11397449D01*
X-4679635Y11316877D01*
X-4679941Y11290300D01*
X-4883150Y11290300D01*
X-4882869Y11363547D01*
X-4881531Y11416960D01*
X-4878393Y11456102D01*
X-4872715Y11486537D01*
X-4863753Y11513830D01*
X-4850766Y11543544D01*
X-4848822Y11547707D01*
X-4799436Y11627636D01*
X-4730770Y11702486D01*
X-4648929Y11766286D01*
X-4592343Y11798617D01*
X-4544421Y11820569D01*
X-4503174Y11834235D01*
X-4458477Y11842010D01*
X-4400208Y11846286D01*
X-4388412Y11846829D01*
X-4325905Y11847479D01*
X-4263151Y11844691D01*
X-4263151Y11844691D01*
G37*
X-4263151Y11844691D02*
X-4211393Y11839047D01*
X-4200644Y11837084D01*
X-4123328Y11810759D01*
X-4042870Y11765671D01*
X-3965322Y11706731D01*
X-3896740Y11638852D01*
X-3843178Y11566946D01*
X-3824202Y11531630D01*
X-3807743Y11490880D01*
X-3797039Y11449012D01*
X-3790542Y11397796D01*
X-3786865Y11333221D01*
X-3791408Y11202628D01*
X-3816033Y11087443D01*
X-3861003Y10987186D01*
X-3926580Y10901382D01*
X-4013026Y10829553D01*
X-4086825Y10786969D01*
X-4133090Y10764807D01*
X-4169979Y10750422D01*
X-4205909Y10741910D01*
X-4249297Y10737362D01*
X-4308559Y10734874D01*
X-4318000Y10734598D01*
X-4384658Y10733669D01*
X-4434616Y10736002D01*
X-4476473Y10742611D01*
X-4518830Y10754507D01*
X-4535727Y10760234D01*
X-4644451Y10809917D01*
X-4734726Y10876900D01*
X-4807256Y10961804D01*
X-4849808Y11036300D01*
X-4862976Y11065489D01*
X-4872138Y11092148D01*
X-4878014Y11121772D01*
X-4881328Y11159856D01*
X-4882799Y11211895D01*
X-4883149Y11283384D01*
X-4883150Y11290300D01*
X-4679941Y11290300D01*
X-4679100Y11230349D01*
X-4675662Y11188206D01*
X-4668268Y11156314D01*
X-4655559Y11127110D01*
X-4648200Y11113636D01*
X-4593846Y11042719D01*
X-4521802Y10988821D01*
X-4434139Y10952999D01*
X-4332925Y10936310D01*
X-4298950Y10935186D01*
X-4245693Y10936939D01*
X-4195409Y10941850D01*
X-4162820Y10947959D01*
X-4098533Y10978332D01*
X-4043503Y11028966D01*
X-4011228Y11078267D01*
X-3998370Y11107488D01*
X-3991183Y11137478D01*
X-3988737Y11175847D01*
X-3990099Y11230204D01*
X-3990811Y11244944D01*
X-4006674Y11364441D01*
X-4041475Y11467218D01*
X-4095511Y11553809D01*
X-4169078Y11624748D01*
X-4221291Y11659204D01*
X-4295586Y11688258D01*
X-4372320Y11693075D01*
X-4448701Y11674274D01*
X-4521934Y11632474D01*
X-4578960Y11580053D01*
X-4625246Y11521616D01*
X-4655730Y11463221D01*
X-4672997Y11397449D01*
X-4679635Y11316877D01*
X-4679941Y11290300D01*
X-4883150Y11290300D01*
X-4882869Y11363547D01*
X-4881531Y11416960D01*
X-4878393Y11456102D01*
X-4872715Y11486537D01*
X-4863753Y11513830D01*
X-4850766Y11543544D01*
X-4848822Y11547707D01*
X-4799436Y11627636D01*
X-4730770Y11702486D01*
X-4648929Y11766286D01*
X-4592343Y11798617D01*
X-4544421Y11820569D01*
X-4503174Y11834235D01*
X-4458477Y11842010D01*
X-4400208Y11846286D01*
X-4388412Y11846829D01*
X-4325905Y11847479D01*
X-4263151Y11844691D01*
G36*
X-2940250Y12062871D02*
X-2913949Y12054971D01*
X-2893981Y12039034D01*
X-2879980Y12012795D01*
X-2871576Y11973986D01*
X-2868404Y11920343D01*
X-2870094Y11849597D01*
X-2876278Y11759484D01*
X-2886591Y11647737D01*
X-2893908Y11576050D01*
X-2898149Y11527633D01*
X-2903033Y11459016D01*
X-2908251Y11375382D01*
X-2913491Y11281914D01*
X-2918444Y11183794D01*
X-2921686Y11112500D01*
X-2926195Y11010786D01*
X-2930110Y10931428D01*
X-2933769Y10871400D01*
X-2937511Y10827673D01*
X-2941673Y10797223D01*
X-2946593Y10777021D01*
X-2952610Y10764041D01*
X-2960062Y10755257D01*
X-2961767Y10753725D01*
X-2987787Y10740794D01*
X-3024705Y10733103D01*
X-3064041Y10731000D01*
X-3097315Y10734829D01*
X-3116046Y10744939D01*
X-3117196Y10747375D01*
X-3121516Y10773765D01*
X-3125615Y10822164D01*
X-3129394Y10889180D01*
X-3132755Y10971423D01*
X-3135598Y11065502D01*
X-3137826Y11168026D01*
X-3139339Y11275604D01*
X-3140040Y11384845D01*
X-3139830Y11492358D01*
X-3139620Y11518900D01*
X-3138291Y11632491D01*
X-3136511Y11723614D01*
X-3134122Y11795201D01*
X-3130964Y11850181D01*
X-3126877Y11891487D01*
X-3121702Y11922049D01*
X-3116649Y11940801D01*
X-3086983Y12001035D01*
X-3045007Y12042781D01*
X-2993859Y12063320D01*
X-2973253Y12065000D01*
X-2940250Y12062871D01*
X-2940250Y12062871D01*
G37*
X-2940250Y12062871D02*
X-2913949Y12054971D01*
X-2893981Y12039034D01*
X-2879980Y12012795D01*
X-2871576Y11973986D01*
X-2868404Y11920343D01*
X-2870094Y11849597D01*
X-2876278Y11759484D01*
X-2886591Y11647737D01*
X-2893908Y11576050D01*
X-2898149Y11527633D01*
X-2903033Y11459016D01*
X-2908251Y11375382D01*
X-2913491Y11281914D01*
X-2918444Y11183794D01*
X-2921686Y11112500D01*
X-2926195Y11010786D01*
X-2930110Y10931428D01*
X-2933769Y10871400D01*
X-2937511Y10827673D01*
X-2941673Y10797223D01*
X-2946593Y10777021D01*
X-2952610Y10764041D01*
X-2960062Y10755257D01*
X-2961767Y10753725D01*
X-2987787Y10740794D01*
X-3024705Y10733103D01*
X-3064041Y10731000D01*
X-3097315Y10734829D01*
X-3116046Y10744939D01*
X-3117196Y10747375D01*
X-3121516Y10773765D01*
X-3125615Y10822164D01*
X-3129394Y10889180D01*
X-3132755Y10971423D01*
X-3135598Y11065502D01*
X-3137826Y11168026D01*
X-3139339Y11275604D01*
X-3140040Y11384845D01*
X-3139830Y11492358D01*
X-3139620Y11518900D01*
X-3138291Y11632491D01*
X-3136511Y11723614D01*
X-3134122Y11795201D01*
X-3130964Y11850181D01*
X-3126877Y11891487D01*
X-3121702Y11922049D01*
X-3116649Y11940801D01*
X-3086983Y12001035D01*
X-3045007Y12042781D01*
X-2993859Y12063320D01*
X-2973253Y12065000D01*
X-2940250Y12062871D01*
G36*
X-2150050Y11116703D02*
X-2116905Y11107741D01*
X-2085485Y11088188D01*
X-2074454Y11079543D01*
X-2024736Y11030002D01*
X-1990058Y10975864D01*
X-1971781Y10921649D01*
X-1971269Y10871881D01*
X-1989883Y10831082D01*
X-1997234Y10823235D01*
X-2054107Y10783242D01*
X-2123361Y10754787D01*
X-2197436Y10739408D01*
X-2268774Y10738647D01*
X-2329816Y10754043D01*
X-2331943Y10755020D01*
X-2382979Y10786516D01*
X-2412678Y10825944D01*
X-2424864Y10879354D01*
X-2425700Y10903309D01*
X-2416260Y10966317D01*
X-2386455Y11021554D01*
X-2334057Y11072744D01*
X-2316629Y11085728D01*
X-2280768Y11106638D01*
X-2242518Y11116572D01*
X-2196668Y11118850D01*
X-2150050Y11116703D01*
X-2150050Y11116703D01*
G37*
X-2150050Y11116703D02*
X-2116905Y11107741D01*
X-2085485Y11088188D01*
X-2074454Y11079543D01*
X-2024736Y11030002D01*
X-1990058Y10975864D01*
X-1971781Y10921649D01*
X-1971269Y10871881D01*
X-1989883Y10831082D01*
X-1997234Y10823235D01*
X-2054107Y10783242D01*
X-2123361Y10754787D01*
X-2197436Y10739408D01*
X-2268774Y10738647D01*
X-2329816Y10754043D01*
X-2331943Y10755020D01*
X-2382979Y10786516D01*
X-2412678Y10825944D01*
X-2424864Y10879354D01*
X-2425700Y10903309D01*
X-2416260Y10966317D01*
X-2386455Y11021554D01*
X-2334057Y11072744D01*
X-2316629Y11085728D01*
X-2280768Y11106638D01*
X-2242518Y11116572D01*
X-2196668Y11118850D01*
X-2150050Y11116703D01*
G36*
X4573904Y12513446D02*
X4637085Y12489692D01*
X4701762Y12454698D01*
X4762345Y12412227D01*
X4813247Y12366041D01*
X4848877Y12319901D01*
X4861416Y12290916D01*
X4867966Y12242974D01*
X4856164Y12208117D01*
X4823620Y12179673D01*
X4821005Y12178055D01*
X4766784Y12156583D01*
X4715883Y12160244D01*
X4685950Y12175222D01*
X4655561Y12197662D01*
X4620119Y12226195D01*
X4612725Y12232466D01*
X4578012Y12258040D01*
X4531879Y12286707D01*
X4496848Y12305771D01*
X4457315Y12328161D01*
X4427531Y12349543D01*
X4414848Y12363865D01*
X4405919Y12416509D01*
X4418177Y12463457D01*
X4448282Y12499572D01*
X4492891Y12519713D01*
X4517806Y12522200D01*
X4573904Y12513446D01*
X4573904Y12513446D01*
G37*
X4573904Y12513446D02*
X4637085Y12489692D01*
X4701762Y12454698D01*
X4762345Y12412227D01*
X4813247Y12366041D01*
X4848877Y12319901D01*
X4861416Y12290916D01*
X4867966Y12242974D01*
X4856164Y12208117D01*
X4823620Y12179673D01*
X4821005Y12178055D01*
X4766784Y12156583D01*
X4715883Y12160244D01*
X4685950Y12175222D01*
X4655561Y12197662D01*
X4620119Y12226195D01*
X4612725Y12232466D01*
X4578012Y12258040D01*
X4531879Y12286707D01*
X4496848Y12305771D01*
X4457315Y12328161D01*
X4427531Y12349543D01*
X4414848Y12363865D01*
X4405919Y12416509D01*
X4418177Y12463457D01*
X4448282Y12499572D01*
X4492891Y12519713D01*
X4517806Y12522200D01*
X4573904Y12513446D01*
G36*
X2039581Y12654757D02*
X2079011Y12630938D01*
X2115371Y12586860D01*
X2128476Y12565704D01*
X2148699Y12526428D01*
X2156444Y12492815D01*
X2154554Y12450866D01*
X2153537Y12442355D01*
X2146237Y12394964D01*
X2136614Y12365610D01*
X2121030Y12346963D01*
X2099509Y12333602D01*
X2064626Y12321089D01*
X2031291Y12324637D01*
X1992286Y12345769D01*
X1972182Y12360480D01*
X1918893Y12411803D01*
X1889785Y12466392D01*
X1883648Y12526771D01*
X1885355Y12541712D01*
X1902718Y12602879D01*
X1933043Y12642722D01*
X1975930Y12660791D01*
X1991995Y12661900D01*
X2039581Y12654757D01*
X2039581Y12654757D01*
G37*
X2039581Y12654757D02*
X2079011Y12630938D01*
X2115371Y12586860D01*
X2128476Y12565704D01*
X2148699Y12526428D01*
X2156444Y12492815D01*
X2154554Y12450866D01*
X2153537Y12442355D01*
X2146237Y12394964D01*
X2136614Y12365610D01*
X2121030Y12346963D01*
X2099509Y12333602D01*
X2064626Y12321089D01*
X2031291Y12324637D01*
X1992286Y12345769D01*
X1972182Y12360480D01*
X1918893Y12411803D01*
X1889785Y12466392D01*
X1883648Y12526771D01*
X1885355Y12541712D01*
X1902718Y12602879D01*
X1933043Y12642722D01*
X1975930Y12660791D01*
X1991995Y12661900D01*
X2039581Y12654757D01*
G36*
X-2919774Y12679374D02*
X-2876751Y12660120D01*
X-2816529Y12626173D01*
X-2769572Y12589351D01*
X-2739698Y12553197D01*
X-2730571Y12524401D01*
X-2733919Y12498341D01*
X-2742035Y12462270D01*
X-2743504Y12456844D01*
X-2758516Y12421965D01*
X-2782232Y12404843D01*
X-2791058Y12402266D01*
X-2824039Y12394030D01*
X-2844964Y12388347D01*
X-2865728Y12390597D01*
X-2901098Y12402019D01*
X-2940214Y12418689D01*
X-2993484Y12446063D01*
X-3027100Y12471203D01*
X-3045380Y12500280D01*
X-3052640Y12539460D01*
X-3053437Y12580454D01*
X-3049068Y12639541D01*
X-3035943Y12677882D01*
X-3011636Y12696572D01*
X-2973722Y12696705D01*
X-2919774Y12679374D01*
X-2919774Y12679374D01*
G37*
X-2919774Y12679374D02*
X-2876751Y12660120D01*
X-2816529Y12626173D01*
X-2769572Y12589351D01*
X-2739698Y12553197D01*
X-2730571Y12524401D01*
X-2733919Y12498341D01*
X-2742035Y12462270D01*
X-2743504Y12456844D01*
X-2758516Y12421965D01*
X-2782232Y12404843D01*
X-2791058Y12402266D01*
X-2824039Y12394030D01*
X-2844964Y12388347D01*
X-2865728Y12390597D01*
X-2901098Y12402019D01*
X-2940214Y12418689D01*
X-2993484Y12446063D01*
X-3027100Y12471203D01*
X-3045380Y12500280D01*
X-3052640Y12539460D01*
X-3053437Y12580454D01*
X-3049068Y12639541D01*
X-3035943Y12677882D01*
X-3011636Y12696572D01*
X-2973722Y12696705D01*
X-2919774Y12679374D01*
M02*
