G04 EAGLE Gerber X2 export*
G75*
%MOMM*%
%FSLAX34Y34*%
%LPD*%
%AMOC8*
5,1,8,0,0,1.08239X$1,22.5*%
G01*
%ADD10C,0.254000*%
%ADD11C,0.000000*%


D10*
X-13000Y127000D02*
X-12958Y130436D01*
X-12831Y133869D01*
X-12621Y137299D01*
X-12326Y140722D01*
X-11947Y144137D01*
X-11485Y147542D01*
X-10939Y150935D01*
X-10310Y154313D01*
X-9598Y157674D01*
X-8804Y161017D01*
X-7929Y164340D01*
X-6972Y167640D01*
X-5934Y170915D01*
X-4816Y174165D01*
X-3619Y177385D01*
X-2343Y180576D01*
X-989Y183734D01*
X441Y186858D01*
X1949Y189946D01*
X3531Y192996D01*
X5188Y196006D01*
X6918Y198974D01*
X8721Y201900D01*
X10594Y204780D01*
X12538Y207613D01*
X14551Y210398D01*
X16632Y213132D01*
X18779Y215815D01*
X20991Y218444D01*
X23267Y221018D01*
X25605Y223536D01*
X28005Y225995D01*
X30464Y228395D01*
X32982Y230733D01*
X35556Y233009D01*
X38185Y235221D01*
X40868Y237368D01*
X43602Y239449D01*
X46387Y241462D01*
X49220Y243406D01*
X52100Y245279D01*
X55026Y247082D01*
X57994Y248812D01*
X61004Y250469D01*
X64054Y252051D01*
X67142Y253559D01*
X70266Y254989D01*
X73424Y256343D01*
X76615Y257619D01*
X79835Y258816D01*
X83085Y259934D01*
X86360Y260972D01*
X89660Y261929D01*
X92983Y262804D01*
X96326Y263598D01*
X99687Y264310D01*
X103065Y264939D01*
X106458Y265485D01*
X109863Y265947D01*
X113278Y266326D01*
X116701Y266621D01*
X120131Y266831D01*
X123564Y266958D01*
X127000Y267000D01*
X130436Y266958D01*
X133869Y266831D01*
X137299Y266621D01*
X140722Y266326D01*
X144137Y265947D01*
X147542Y265485D01*
X150935Y264939D01*
X154313Y264310D01*
X157674Y263598D01*
X161017Y262804D01*
X164340Y261929D01*
X167640Y260972D01*
X170915Y259934D01*
X174165Y258816D01*
X177385Y257619D01*
X180576Y256343D01*
X183734Y254989D01*
X186858Y253559D01*
X189946Y252051D01*
X192996Y250469D01*
X196006Y248812D01*
X198974Y247082D01*
X201900Y245279D01*
X204780Y243406D01*
X207613Y241462D01*
X210398Y239449D01*
X213132Y237368D01*
X215815Y235221D01*
X218444Y233009D01*
X221018Y230733D01*
X223536Y228395D01*
X225995Y225995D01*
X228395Y223536D01*
X230733Y221018D01*
X233009Y218444D01*
X235221Y215815D01*
X237368Y213132D01*
X239449Y210398D01*
X241462Y207613D01*
X243406Y204780D01*
X245279Y201900D01*
X247082Y198974D01*
X248812Y196006D01*
X250469Y192996D01*
X252051Y189946D01*
X253559Y186858D01*
X254989Y183734D01*
X256343Y180576D01*
X257619Y177385D01*
X258816Y174165D01*
X259934Y170915D01*
X260972Y167640D01*
X261929Y164340D01*
X262804Y161017D01*
X263598Y157674D01*
X264310Y154313D01*
X264939Y150935D01*
X265485Y147542D01*
X265947Y144137D01*
X266326Y140722D01*
X266621Y137299D01*
X266831Y133869D01*
X266958Y130436D01*
X267000Y127000D01*
X266958Y123564D01*
X266831Y120131D01*
X266621Y116701D01*
X266326Y113278D01*
X265947Y109863D01*
X265485Y106458D01*
X264939Y103065D01*
X264310Y99687D01*
X263598Y96326D01*
X262804Y92983D01*
X261929Y89660D01*
X260972Y86360D01*
X259934Y83085D01*
X258816Y79835D01*
X257619Y76615D01*
X256343Y73424D01*
X254989Y70266D01*
X253559Y67142D01*
X252051Y64054D01*
X250469Y61004D01*
X248812Y57994D01*
X247082Y55026D01*
X245279Y52100D01*
X243406Y49220D01*
X241462Y46387D01*
X239449Y43602D01*
X237368Y40868D01*
X235221Y38185D01*
X233009Y35556D01*
X230733Y32982D01*
X228395Y30464D01*
X225995Y28005D01*
X223536Y25605D01*
X221018Y23267D01*
X218444Y20991D01*
X215815Y18779D01*
X213132Y16632D01*
X210398Y14551D01*
X207613Y12538D01*
X204780Y10594D01*
X201900Y8721D01*
X198974Y6918D01*
X196006Y5188D01*
X192996Y3531D01*
X189946Y1949D01*
X186858Y441D01*
X183734Y-989D01*
X180576Y-2343D01*
X177385Y-3619D01*
X174165Y-4816D01*
X170915Y-5934D01*
X167640Y-6972D01*
X164340Y-7929D01*
X161017Y-8804D01*
X157674Y-9598D01*
X154313Y-10310D01*
X150935Y-10939D01*
X147542Y-11485D01*
X144137Y-11947D01*
X140722Y-12326D01*
X137299Y-12621D01*
X133869Y-12831D01*
X130436Y-12958D01*
X127000Y-13000D01*
X123564Y-12958D01*
X120131Y-12831D01*
X116701Y-12621D01*
X113278Y-12326D01*
X109863Y-11947D01*
X106458Y-11485D01*
X103065Y-10939D01*
X99687Y-10310D01*
X96326Y-9598D01*
X92983Y-8804D01*
X89660Y-7929D01*
X86360Y-6972D01*
X83085Y-5934D01*
X79835Y-4816D01*
X76615Y-3619D01*
X73424Y-2343D01*
X70266Y-989D01*
X67142Y441D01*
X64054Y1949D01*
X61004Y3531D01*
X57994Y5188D01*
X55026Y6918D01*
X52100Y8721D01*
X49220Y10594D01*
X46387Y12538D01*
X43602Y14551D01*
X40868Y16632D01*
X38185Y18779D01*
X35556Y20991D01*
X32982Y23267D01*
X30464Y25605D01*
X28005Y28005D01*
X25605Y30464D01*
X23267Y32982D01*
X20991Y35556D01*
X18779Y38185D01*
X16632Y40868D01*
X14551Y43602D01*
X12538Y46387D01*
X10594Y49220D01*
X8721Y52100D01*
X6918Y55026D01*
X5188Y57994D01*
X3531Y61004D01*
X1949Y64054D01*
X441Y67142D01*
X-989Y70266D01*
X-2343Y73424D01*
X-3619Y76615D01*
X-4816Y79835D01*
X-5934Y83085D01*
X-6972Y86360D01*
X-7929Y89660D01*
X-8804Y92983D01*
X-9598Y96326D01*
X-10310Y99687D01*
X-10939Y103065D01*
X-11485Y106458D01*
X-11947Y109863D01*
X-12326Y113278D01*
X-12621Y116701D01*
X-12831Y120131D01*
X-12958Y123564D01*
X-13000Y127000D01*
D11*
X145340Y13970D02*
X145342Y14083D01*
X145348Y14197D01*
X145358Y14310D01*
X145372Y14422D01*
X145389Y14534D01*
X145411Y14646D01*
X145437Y14756D01*
X145466Y14866D01*
X145499Y14974D01*
X145536Y15082D01*
X145577Y15187D01*
X145621Y15292D01*
X145669Y15395D01*
X145720Y15496D01*
X145775Y15595D01*
X145834Y15692D01*
X145896Y15787D01*
X145961Y15880D01*
X146029Y15971D01*
X146100Y16059D01*
X146175Y16145D01*
X146252Y16228D01*
X146332Y16308D01*
X146415Y16385D01*
X146501Y16460D01*
X146589Y16531D01*
X146680Y16599D01*
X146773Y16664D01*
X146868Y16726D01*
X146965Y16785D01*
X147064Y16840D01*
X147165Y16891D01*
X147268Y16939D01*
X147373Y16983D01*
X147478Y17024D01*
X147586Y17061D01*
X147694Y17094D01*
X147804Y17123D01*
X147914Y17149D01*
X148026Y17171D01*
X148138Y17188D01*
X148250Y17202D01*
X148363Y17212D01*
X148477Y17218D01*
X148590Y17220D01*
X148703Y17218D01*
X148817Y17212D01*
X148930Y17202D01*
X149042Y17188D01*
X149154Y17171D01*
X149266Y17149D01*
X149376Y17123D01*
X149486Y17094D01*
X149594Y17061D01*
X149702Y17024D01*
X149807Y16983D01*
X149912Y16939D01*
X150015Y16891D01*
X150116Y16840D01*
X150215Y16785D01*
X150312Y16726D01*
X150407Y16664D01*
X150500Y16599D01*
X150591Y16531D01*
X150679Y16460D01*
X150765Y16385D01*
X150848Y16308D01*
X150928Y16228D01*
X151005Y16145D01*
X151080Y16059D01*
X151151Y15971D01*
X151219Y15880D01*
X151284Y15787D01*
X151346Y15692D01*
X151405Y15595D01*
X151460Y15496D01*
X151511Y15395D01*
X151559Y15292D01*
X151603Y15187D01*
X151644Y15082D01*
X151681Y14974D01*
X151714Y14866D01*
X151743Y14756D01*
X151769Y14646D01*
X151791Y14534D01*
X151808Y14422D01*
X151822Y14310D01*
X151832Y14197D01*
X151838Y14083D01*
X151840Y13970D01*
X151838Y13857D01*
X151832Y13743D01*
X151822Y13630D01*
X151808Y13518D01*
X151791Y13406D01*
X151769Y13294D01*
X151743Y13184D01*
X151714Y13074D01*
X151681Y12966D01*
X151644Y12858D01*
X151603Y12753D01*
X151559Y12648D01*
X151511Y12545D01*
X151460Y12444D01*
X151405Y12345D01*
X151346Y12248D01*
X151284Y12153D01*
X151219Y12060D01*
X151151Y11969D01*
X151080Y11881D01*
X151005Y11795D01*
X150928Y11712D01*
X150848Y11632D01*
X150765Y11555D01*
X150679Y11480D01*
X150591Y11409D01*
X150500Y11341D01*
X150407Y11276D01*
X150312Y11214D01*
X150215Y11155D01*
X150116Y11100D01*
X150015Y11049D01*
X149912Y11001D01*
X149807Y10957D01*
X149702Y10916D01*
X149594Y10879D01*
X149486Y10846D01*
X149376Y10817D01*
X149266Y10791D01*
X149154Y10769D01*
X149042Y10752D01*
X148930Y10738D01*
X148817Y10728D01*
X148703Y10722D01*
X148590Y10720D01*
X148477Y10722D01*
X148363Y10728D01*
X148250Y10738D01*
X148138Y10752D01*
X148026Y10769D01*
X147914Y10791D01*
X147804Y10817D01*
X147694Y10846D01*
X147586Y10879D01*
X147478Y10916D01*
X147373Y10957D01*
X147268Y11001D01*
X147165Y11049D01*
X147064Y11100D01*
X146965Y11155D01*
X146868Y11214D01*
X146773Y11276D01*
X146680Y11341D01*
X146589Y11409D01*
X146501Y11480D01*
X146415Y11555D01*
X146332Y11632D01*
X146252Y11712D01*
X146175Y11795D01*
X146100Y11881D01*
X146029Y11969D01*
X145961Y12060D01*
X145896Y12153D01*
X145834Y12248D01*
X145775Y12345D01*
X145720Y12444D01*
X145669Y12545D01*
X145621Y12648D01*
X145577Y12753D01*
X145536Y12858D01*
X145499Y12966D01*
X145466Y13074D01*
X145437Y13184D01*
X145411Y13294D01*
X145389Y13406D01*
X145372Y13518D01*
X145358Y13630D01*
X145348Y13743D01*
X145342Y13857D01*
X145340Y13970D01*
X108510Y13970D02*
X108512Y14083D01*
X108518Y14197D01*
X108528Y14310D01*
X108542Y14422D01*
X108559Y14534D01*
X108581Y14646D01*
X108607Y14756D01*
X108636Y14866D01*
X108669Y14974D01*
X108706Y15082D01*
X108747Y15187D01*
X108791Y15292D01*
X108839Y15395D01*
X108890Y15496D01*
X108945Y15595D01*
X109004Y15692D01*
X109066Y15787D01*
X109131Y15880D01*
X109199Y15971D01*
X109270Y16059D01*
X109345Y16145D01*
X109422Y16228D01*
X109502Y16308D01*
X109585Y16385D01*
X109671Y16460D01*
X109759Y16531D01*
X109850Y16599D01*
X109943Y16664D01*
X110038Y16726D01*
X110135Y16785D01*
X110234Y16840D01*
X110335Y16891D01*
X110438Y16939D01*
X110543Y16983D01*
X110648Y17024D01*
X110756Y17061D01*
X110864Y17094D01*
X110974Y17123D01*
X111084Y17149D01*
X111196Y17171D01*
X111308Y17188D01*
X111420Y17202D01*
X111533Y17212D01*
X111647Y17218D01*
X111760Y17220D01*
X111873Y17218D01*
X111987Y17212D01*
X112100Y17202D01*
X112212Y17188D01*
X112324Y17171D01*
X112436Y17149D01*
X112546Y17123D01*
X112656Y17094D01*
X112764Y17061D01*
X112872Y17024D01*
X112977Y16983D01*
X113082Y16939D01*
X113185Y16891D01*
X113286Y16840D01*
X113385Y16785D01*
X113482Y16726D01*
X113577Y16664D01*
X113670Y16599D01*
X113761Y16531D01*
X113849Y16460D01*
X113935Y16385D01*
X114018Y16308D01*
X114098Y16228D01*
X114175Y16145D01*
X114250Y16059D01*
X114321Y15971D01*
X114389Y15880D01*
X114454Y15787D01*
X114516Y15692D01*
X114575Y15595D01*
X114630Y15496D01*
X114681Y15395D01*
X114729Y15292D01*
X114773Y15187D01*
X114814Y15082D01*
X114851Y14974D01*
X114884Y14866D01*
X114913Y14756D01*
X114939Y14646D01*
X114961Y14534D01*
X114978Y14422D01*
X114992Y14310D01*
X115002Y14197D01*
X115008Y14083D01*
X115010Y13970D01*
X115008Y13857D01*
X115002Y13743D01*
X114992Y13630D01*
X114978Y13518D01*
X114961Y13406D01*
X114939Y13294D01*
X114913Y13184D01*
X114884Y13074D01*
X114851Y12966D01*
X114814Y12858D01*
X114773Y12753D01*
X114729Y12648D01*
X114681Y12545D01*
X114630Y12444D01*
X114575Y12345D01*
X114516Y12248D01*
X114454Y12153D01*
X114389Y12060D01*
X114321Y11969D01*
X114250Y11881D01*
X114175Y11795D01*
X114098Y11712D01*
X114018Y11632D01*
X113935Y11555D01*
X113849Y11480D01*
X113761Y11409D01*
X113670Y11341D01*
X113577Y11276D01*
X113482Y11214D01*
X113385Y11155D01*
X113286Y11100D01*
X113185Y11049D01*
X113082Y11001D01*
X112977Y10957D01*
X112872Y10916D01*
X112764Y10879D01*
X112656Y10846D01*
X112546Y10817D01*
X112436Y10791D01*
X112324Y10769D01*
X112212Y10752D01*
X112100Y10738D01*
X111987Y10728D01*
X111873Y10722D01*
X111760Y10720D01*
X111647Y10722D01*
X111533Y10728D01*
X111420Y10738D01*
X111308Y10752D01*
X111196Y10769D01*
X111084Y10791D01*
X110974Y10817D01*
X110864Y10846D01*
X110756Y10879D01*
X110648Y10916D01*
X110543Y10957D01*
X110438Y11001D01*
X110335Y11049D01*
X110234Y11100D01*
X110135Y11155D01*
X110038Y11214D01*
X109943Y11276D01*
X109850Y11341D01*
X109759Y11409D01*
X109671Y11480D01*
X109585Y11555D01*
X109502Y11632D01*
X109422Y11712D01*
X109345Y11795D01*
X109270Y11881D01*
X109199Y11969D01*
X109131Y12060D01*
X109066Y12153D01*
X109004Y12248D01*
X108945Y12345D01*
X108890Y12444D01*
X108839Y12545D01*
X108791Y12648D01*
X108747Y12753D01*
X108706Y12858D01*
X108669Y12966D01*
X108636Y13074D01*
X108607Y13184D01*
X108581Y13294D01*
X108559Y13406D01*
X108542Y13518D01*
X108528Y13630D01*
X108518Y13743D01*
X108512Y13857D01*
X108510Y13970D01*
M02*
