G04 This is an RS-274x file exported by *
G04 gerbv version 2.6.2 *
G04 More information is available about gerbv at *
G04 http://gerbv.geda-project.org/ *
G04 --End of header info--*
%MOIN*%
%FSLAX34Y34*%
%IPPOS*%
G04 --Define apertures--*
%ADD10C,0.0039*%
%ADD11C,0.0004*%
G04 --Start main section--*
G54D11*
G36*
G01X0005041Y-000066D02*
G01X0005051Y-000066D01*
G01X0005086Y-000069D01*
G01X0005113Y-000076D01*
G01X0005134Y-000087D01*
G01X0005151Y-000102D01*
G01X0005161Y-000118D01*
G01X0005168Y-000131D01*
G01X0005172Y-000142D01*
G01X0005173Y-000154D01*
G01X0005173Y-000171D01*
G01X0005172Y-000185D01*
G01X0005169Y-000229D01*
G01X0005165Y-000268D01*
G01X0005160Y-000299D01*
G01X0005154Y-000323D01*
G01X0005150Y-000335D01*
G01X0005136Y-000355D01*
G01X0005117Y-000374D01*
G01X0005095Y-000389D01*
G01X0005087Y-000393D01*
G01X0005067Y-000398D01*
G01X0005042Y-000399D01*
G01X0005018Y-000397D01*
G01X0005008Y-000394D01*
G01X0004982Y-000381D01*
G01X0004963Y-000362D01*
G01X0004951Y-000341D01*
G01X0004947Y-000332D01*
G01X0004944Y-000323D01*
G01X0004942Y-000314D01*
G01X0004941Y-000302D01*
G01X0004940Y-000286D01*
G01X0004940Y-000265D01*
G01X0004941Y-000236D01*
G01X0004941Y-000213D01*
G01X0004942Y-000180D01*
G01X0004944Y-000150D01*
G01X0004945Y-000125D01*
G01X0004947Y-000108D01*
G01X0004949Y-000098D01*
G01X0004960Y-000085D01*
G01X0004978Y-000074D01*
G01X0004991Y-000069D01*
G01X0005004Y-000066D01*
G01X0005019Y-000065D01*
G01X0005041Y-000066D01*
G01X0005041Y-000066D01*
G37*
G01X0005041Y-000066D02*
G01X0005051Y-000066D01*
G01X0005051Y-000066D02*
G01X0005086Y-000069D01*
G01X0005086Y-000069D02*
G01X0005113Y-000076D01*
G01X0005113Y-000076D02*
G01X0005134Y-000087D01*
G01X0005134Y-000087D02*
G01X0005151Y-000102D01*
G01X0005151Y-000102D02*
G01X0005161Y-000118D01*
G01X0005161Y-000118D02*
G01X0005168Y-000131D01*
G01X0005168Y-000131D02*
G01X0005172Y-000142D01*
G01X0005172Y-000142D02*
G01X0005173Y-000154D01*
G01X0005173Y-000154D02*
G01X0005173Y-000171D01*
G01X0005173Y-000171D02*
G01X0005172Y-000185D01*
G01X0005172Y-000185D02*
G01X0005169Y-000229D01*
G01X0005169Y-000229D02*
G01X0005165Y-000268D01*
G01X0005165Y-000268D02*
G01X0005160Y-000299D01*
G01X0005160Y-000299D02*
G01X0005154Y-000323D01*
G01X0005154Y-000323D02*
G01X0005150Y-000335D01*
G01X0005150Y-000335D02*
G01X0005136Y-000355D01*
G01X0005136Y-000355D02*
G01X0005117Y-000374D01*
G01X0005117Y-000374D02*
G01X0005095Y-000389D01*
G01X0005095Y-000389D02*
G01X0005087Y-000393D01*
G01X0005087Y-000393D02*
G01X0005067Y-000398D01*
G01X0005067Y-000398D02*
G01X0005042Y-000399D01*
G01X0005042Y-000399D02*
G01X0005018Y-000397D01*
G01X0005018Y-000397D02*
G01X0005008Y-000394D01*
G01X0005008Y-000394D02*
G01X0004982Y-000381D01*
G01X0004982Y-000381D02*
G01X0004963Y-000362D01*
G01X0004963Y-000362D02*
G01X0004951Y-000341D01*
G01X0004951Y-000341D02*
G01X0004947Y-000332D01*
G01X0004947Y-000332D02*
G01X0004944Y-000323D01*
G01X0004944Y-000323D02*
G01X0004942Y-000314D01*
G01X0004942Y-000314D02*
G01X0004941Y-000302D01*
G01X0004941Y-000302D02*
G01X0004940Y-000286D01*
G01X0004940Y-000286D02*
G01X0004940Y-000265D01*
G01X0004940Y-000265D02*
G01X0004941Y-000236D01*
G01X0004941Y-000236D02*
G01X0004941Y-000213D01*
G01X0004941Y-000213D02*
G01X0004942Y-000180D01*
G01X0004942Y-000180D02*
G01X0004944Y-000150D01*
G01X0004944Y-000150D02*
G01X0004945Y-000125D01*
G01X0004945Y-000125D02*
G01X0004947Y-000108D01*
G01X0004947Y-000108D02*
G01X0004949Y-000098D01*
G01X0004949Y-000098D02*
G01X0004960Y-000085D01*
G01X0004960Y-000085D02*
G01X0004978Y-000074D01*
G01X0004978Y-000074D02*
G01X0004991Y-000069D01*
G01X0004991Y-000069D02*
G01X0005004Y-000066D01*
G01X0005004Y-000066D02*
G01X0005019Y-000065D01*
G01X0005019Y-000065D02*
G01X0005041Y-000066D01*
G36*
G01X0005480Y0000256D02*
G01X0005488Y0000253D01*
G01X0005494Y0000248D01*
G01X0005495Y0000246D01*
G01X0005506Y0000226D01*
G01X0005514Y0000198D01*
G01X0005518Y0000167D01*
G01X0005518Y0000136D01*
G01X0005512Y0000111D01*
G01X0005498Y0000091D01*
G01X0005493Y0000087D01*
G01X0005486Y0000081D01*
G01X0005479Y0000077D01*
G01X0005469Y0000075D01*
G01X0005456Y0000075D01*
G01X0005436Y0000076D01*
G01X0005429Y0000077D01*
G01X0005408Y0000077D01*
G01X0005379Y0000077D01*
G01X0005344Y0000076D01*
G01X0005305Y0000075D01*
G01X0005264Y0000072D01*
G01X0005259Y0000072D01*
G01X0005202Y0000069D01*
G01X0005149Y0000067D01*
G01X0005096Y0000066D01*
G01X0005039Y0000067D01*
G01X0005004Y0000067D01*
G01X0004871Y0000071D01*
G01X0004812Y0000053D01*
G01X0004757Y0000038D01*
G01X0004711Y0000027D01*
G01X0004673Y0000019D01*
G01X0004642Y0000016D01*
G01X0004617Y0000016D01*
G01X0004598Y0000019D01*
G01X0004595Y0000021D01*
G01X0004575Y0000033D01*
G01X0004558Y0000052D01*
G01X0004551Y0000062D01*
G01X0004547Y0000076D01*
G01X0004543Y0000096D01*
G01X0004541Y0000118D01*
G01X0004541Y0000140D01*
G01X0004542Y0000158D01*
G01X0004545Y0000170D01*
G01X0004550Y0000177D01*
G01X0004558Y0000184D01*
G01X0004570Y0000190D01*
G01X0004586Y0000195D01*
G01X0004607Y0000199D01*
G01X0004635Y0000203D01*
G01X0004669Y0000207D01*
G01X0004711Y0000211D01*
G01X0004762Y0000215D01*
G01X0004795Y0000217D01*
G01X0004831Y0000220D01*
G01X0004867Y0000223D01*
G01X0004900Y0000226D01*
G01X0004929Y0000229D01*
G01X0004951Y0000232D01*
G01X0004953Y0000233D01*
G01X0004971Y0000235D01*
G01X0004988Y0000237D01*
G01X0005006Y0000238D01*
G01X0005027Y0000238D01*
G01X0005052Y0000238D01*
G01X0005084Y0000236D01*
G01X0005108Y0000235D01*
G01X0005155Y0000233D01*
G01X0005195Y0000232D01*
G01X0005231Y0000233D01*
G01X0005266Y0000235D01*
G01X0005302Y0000239D01*
G01X0005343Y0000246D01*
G01X0005360Y0000248D01*
G01X0005387Y0000252D01*
G01X0005415Y0000255D01*
G01X0005441Y0000257D01*
G01X0005447Y0000257D01*
G01X0005467Y0000257D01*
G01X0005480Y0000256D01*
G01X0005480Y0000256D01*
G37*
G01X0005480Y0000256D02*
G01X0005488Y0000253D01*
G01X0005488Y0000253D02*
G01X0005494Y0000248D01*
G01X0005494Y0000248D02*
G01X0005495Y0000246D01*
G01X0005495Y0000246D02*
G01X0005506Y0000226D01*
G01X0005506Y0000226D02*
G01X0005514Y0000198D01*
G01X0005514Y0000198D02*
G01X0005518Y0000167D01*
G01X0005518Y0000167D02*
G01X0005518Y0000136D01*
G01X0005518Y0000136D02*
G01X0005512Y0000111D01*
G01X0005512Y0000111D02*
G01X0005498Y0000091D01*
G01X0005498Y0000091D02*
G01X0005493Y0000087D01*
G01X0005493Y0000087D02*
G01X0005486Y0000081D01*
G01X0005486Y0000081D02*
G01X0005479Y0000077D01*
G01X0005479Y0000077D02*
G01X0005469Y0000075D01*
G01X0005469Y0000075D02*
G01X0005456Y0000075D01*
G01X0005456Y0000075D02*
G01X0005436Y0000076D01*
G01X0005436Y0000076D02*
G01X0005429Y0000077D01*
G01X0005429Y0000077D02*
G01X0005408Y0000077D01*
G01X0005408Y0000077D02*
G01X0005379Y0000077D01*
G01X0005379Y0000077D02*
G01X0005344Y0000076D01*
G01X0005344Y0000076D02*
G01X0005305Y0000075D01*
G01X0005305Y0000075D02*
G01X0005264Y0000072D01*
G01X0005264Y0000072D02*
G01X0005259Y0000072D01*
G01X0005259Y0000072D02*
G01X0005202Y0000069D01*
G01X0005202Y0000069D02*
G01X0005149Y0000067D01*
G01X0005149Y0000067D02*
G01X0005096Y0000066D01*
G01X0005096Y0000066D02*
G01X0005039Y0000067D01*
G01X0005039Y0000067D02*
G01X0005004Y0000067D01*
G01X0005004Y0000067D02*
G01X0004871Y0000071D01*
G01X0004871Y0000071D02*
G01X0004812Y0000053D01*
G01X0004812Y0000053D02*
G01X0004757Y0000038D01*
G01X0004757Y0000038D02*
G01X0004711Y0000027D01*
G01X0004711Y0000027D02*
G01X0004673Y0000019D01*
G01X0004673Y0000019D02*
G01X0004642Y0000016D01*
G01X0004642Y0000016D02*
G01X0004617Y0000016D01*
G01X0004617Y0000016D02*
G01X0004598Y0000019D01*
G01X0004598Y0000019D02*
G01X0004595Y0000021D01*
G01X0004595Y0000021D02*
G01X0004575Y0000033D01*
G01X0004575Y0000033D02*
G01X0004558Y0000052D01*
G01X0004558Y0000052D02*
G01X0004551Y0000062D01*
G01X0004551Y0000062D02*
G01X0004547Y0000076D01*
G01X0004547Y0000076D02*
G01X0004543Y0000096D01*
G01X0004543Y0000096D02*
G01X0004541Y0000118D01*
G01X0004541Y0000118D02*
G01X0004541Y0000140D01*
G01X0004541Y0000140D02*
G01X0004542Y0000158D01*
G01X0004542Y0000158D02*
G01X0004545Y0000170D01*
G01X0004545Y0000170D02*
G01X0004550Y0000177D01*
G01X0004550Y0000177D02*
G01X0004558Y0000184D01*
G01X0004558Y0000184D02*
G01X0004570Y0000190D01*
G01X0004570Y0000190D02*
G01X0004586Y0000195D01*
G01X0004586Y0000195D02*
G01X0004607Y0000199D01*
G01X0004607Y0000199D02*
G01X0004635Y0000203D01*
G01X0004635Y0000203D02*
G01X0004669Y0000207D01*
G01X0004669Y0000207D02*
G01X0004711Y0000211D01*
G01X0004711Y0000211D02*
G01X0004762Y0000215D01*
G01X0004762Y0000215D02*
G01X0004795Y0000217D01*
G01X0004795Y0000217D02*
G01X0004831Y0000220D01*
G01X0004831Y0000220D02*
G01X0004867Y0000223D01*
G01X0004867Y0000223D02*
G01X0004900Y0000226D01*
G01X0004900Y0000226D02*
G01X0004929Y0000229D01*
G01X0004929Y0000229D02*
G01X0004951Y0000232D01*
G01X0004951Y0000232D02*
G01X0004953Y0000233D01*
G01X0004953Y0000233D02*
G01X0004971Y0000235D01*
G01X0004971Y0000235D02*
G01X0004988Y0000237D01*
G01X0004988Y0000237D02*
G01X0005006Y0000238D01*
G01X0005006Y0000238D02*
G01X0005027Y0000238D01*
G01X0005027Y0000238D02*
G01X0005052Y0000238D01*
G01X0005052Y0000238D02*
G01X0005084Y0000236D01*
G01X0005084Y0000236D02*
G01X0005108Y0000235D01*
G01X0005108Y0000235D02*
G01X0005155Y0000233D01*
G01X0005155Y0000233D02*
G01X0005195Y0000232D01*
G01X0005195Y0000232D02*
G01X0005231Y0000233D01*
G01X0005231Y0000233D02*
G01X0005266Y0000235D01*
G01X0005266Y0000235D02*
G01X0005302Y0000239D01*
G01X0005302Y0000239D02*
G01X0005343Y0000246D01*
G01X0005343Y0000246D02*
G01X0005360Y0000248D01*
G01X0005360Y0000248D02*
G01X0005387Y0000252D01*
G01X0005387Y0000252D02*
G01X0005415Y0000255D01*
G01X0005415Y0000255D02*
G01X0005441Y0000257D01*
G01X0005441Y0000257D02*
G01X0005447Y0000257D01*
G01X0005447Y0000257D02*
G01X0005467Y0000257D01*
G01X0005467Y0000257D02*
G01X0005480Y0000256D01*
G36*
G01X0005031Y0001106D02*
G01X0005072Y0001096D01*
G01X0005110Y0001080D01*
G01X0005133Y0001065D01*
G01X0005154Y0001048D01*
G01X0005167Y0001032D01*
G01X0005175Y0001015D01*
G01X0005179Y0000994D01*
G01X0005179Y0000990D01*
G01X0005179Y0000968D01*
G01X0005176Y0000940D01*
G01X0005171Y0000908D01*
G01X0005165Y0000875D01*
G01X0005158Y0000844D01*
G01X0005150Y0000818D01*
G01X0005147Y0000809D01*
G01X0005140Y0000790D01*
G01X0005136Y0000772D01*
G01X0005135Y0000762D01*
G01X0005140Y0000737D01*
G01X0005154Y0000712D01*
G01X0005176Y0000689D01*
G01X0005205Y0000668D01*
G01X0005226Y0000658D01*
G01X0005253Y0000645D01*
G01X0005340Y0000650D01*
G01X0005376Y0000652D01*
G01X0005414Y0000655D01*
G01X0005452Y0000659D01*
G01X0005485Y0000662D01*
G01X0005497Y0000663D01*
G01X0005537Y0000667D01*
G01X0005571Y0000669D01*
G01X0005599Y0000667D01*
G01X0005624Y0000663D01*
G01X0005648Y0000656D01*
G01X0005657Y0000652D01*
G01X0005691Y0000635D01*
G01X0005718Y0000613D01*
G01X0005737Y0000588D01*
G01X0005748Y0000562D01*
G01X0005750Y0000534D01*
G01X0005743Y0000506D01*
G01X0005727Y0000479D01*
G01X0005719Y0000469D01*
G01X0005698Y0000451D01*
G01X0005674Y0000438D01*
G01X0005646Y0000429D01*
G01X0005613Y0000424D01*
G01X0005572Y0000422D01*
G01X0005524Y0000425D01*
G01X0005520Y0000425D01*
G01X0005493Y0000426D01*
G01X0005458Y0000427D01*
G01X0005417Y0000428D01*
G01X0005371Y0000427D01*
G01X0005321Y0000426D01*
G01X0005271Y0000425D01*
G01X0005220Y0000424D01*
G01X0005172Y0000422D01*
G01X0005128Y0000419D01*
G01X0005089Y0000417D01*
G01X0005073Y0000415D01*
G01X0005051Y0000413D01*
G01X0005023Y0000411D01*
G01X0004988Y0000409D01*
G01X0004951Y0000406D01*
G01X0004912Y0000404D01*
G01X0004893Y0000403D01*
G01X0004840Y0000399D01*
G01X0004796Y0000395D01*
G01X0004757Y0000391D01*
G01X0004721Y0000386D01*
G01X0004687Y0000381D01*
G01X0004653Y0000373D01*
G01X0004636Y0000370D01*
G01X0004617Y0000366D01*
G01X0004590Y0000361D01*
G01X0004560Y0000356D01*
G01X0004527Y0000350D01*
G01X0004509Y0000348D01*
G01X0004478Y0000343D01*
G01X0004449Y0000339D01*
G01X0004424Y0000335D01*
G01X0004404Y0000332D01*
G01X0004396Y0000330D01*
G01X0004356Y0000326D01*
G01X0004319Y0000329D01*
G01X0004305Y0000332D01*
G01X0004269Y0000346D01*
G01X0004236Y0000365D01*
G01X0004209Y0000389D01*
G01X0004189Y0000416D01*
G01X0004183Y0000428D01*
G01X0004176Y0000455D01*
G01X0004176Y0000484D01*
G01X0004182Y0000512D01*
G01X0004193Y0000537D01*
G01X0004209Y0000555D01*
G01X0004211Y0000557D01*
G01X0004217Y0000561D01*
G01X0004225Y0000564D01*
G01X0004236Y0000565D01*
G01X0004251Y0000567D01*
G01X0004273Y0000568D01*
G01X0004303Y0000568D01*
G01X0004306Y0000568D01*
G01X0004339Y0000569D01*
G01X0004373Y0000570D01*
G01X0004406Y0000572D01*
G01X0004433Y0000573D01*
G01X0004440Y0000574D01*
G01X0004469Y0000575D01*
G01X0004502Y0000575D01*
G01X0004533Y0000574D01*
G01X0004542Y0000574D01*
G01X0004570Y0000572D01*
G01X0004603Y0000573D01*
G01X0004638Y0000574D01*
G01X0004673Y0000576D01*
G01X0004705Y0000579D01*
G01X0004732Y0000583D01*
G01X0004751Y0000587D01*
G01X0004751Y0000587D01*
G01X0004788Y0000603D01*
G01X0004823Y0000626D01*
G01X0004853Y0000655D01*
G01X0004875Y0000688D01*
G01X0004877Y0000692D01*
G01X0004886Y0000714D01*
G01X0004889Y0000736D01*
G01X0004887Y0000760D01*
G01X0004880Y0000786D01*
G01X0004870Y0000826D01*
G01X0004861Y0000875D01*
G01X0004854Y0000930D01*
G01X0004850Y0000972D01*
G01X0004848Y0001005D01*
G01X0004847Y0001030D01*
G01X0004849Y0001049D01*
G01X0004854Y0001062D01*
G01X0004862Y0001073D01*
G01X0004873Y0001081D01*
G01X0004875Y0001082D01*
G01X0004908Y0001098D01*
G01X0004947Y0001107D01*
G01X0004989Y0001110D01*
G01X0005031Y0001106D01*
G01X0005031Y0001106D01*
G37*
G01X0005031Y0001106D02*
G01X0005072Y0001096D01*
G01X0005072Y0001096D02*
G01X0005110Y0001080D01*
G01X0005110Y0001080D02*
G01X0005133Y0001065D01*
G01X0005133Y0001065D02*
G01X0005154Y0001048D01*
G01X0005154Y0001048D02*
G01X0005167Y0001032D01*
G01X0005167Y0001032D02*
G01X0005175Y0001015D01*
G01X0005175Y0001015D02*
G01X0005179Y0000994D01*
G01X0005179Y0000994D02*
G01X0005179Y0000990D01*
G01X0005179Y0000990D02*
G01X0005179Y0000968D01*
G01X0005179Y0000968D02*
G01X0005176Y0000940D01*
G01X0005176Y0000940D02*
G01X0005171Y0000908D01*
G01X0005171Y0000908D02*
G01X0005165Y0000875D01*
G01X0005165Y0000875D02*
G01X0005158Y0000844D01*
G01X0005158Y0000844D02*
G01X0005150Y0000818D01*
G01X0005150Y0000818D02*
G01X0005147Y0000809D01*
G01X0005147Y0000809D02*
G01X0005140Y0000790D01*
G01X0005140Y0000790D02*
G01X0005136Y0000772D01*
G01X0005136Y0000772D02*
G01X0005135Y0000762D01*
G01X0005135Y0000762D02*
G01X0005140Y0000737D01*
G01X0005140Y0000737D02*
G01X0005154Y0000712D01*
G01X0005154Y0000712D02*
G01X0005176Y0000689D01*
G01X0005176Y0000689D02*
G01X0005205Y0000668D01*
G01X0005205Y0000668D02*
G01X0005226Y0000658D01*
G01X0005226Y0000658D02*
G01X0005253Y0000645D01*
G01X0005253Y0000645D02*
G01X0005340Y0000650D01*
G01X0005340Y0000650D02*
G01X0005376Y0000652D01*
G01X0005376Y0000652D02*
G01X0005414Y0000655D01*
G01X0005414Y0000655D02*
G01X0005452Y0000659D01*
G01X0005452Y0000659D02*
G01X0005485Y0000662D01*
G01X0005485Y0000662D02*
G01X0005497Y0000663D01*
G01X0005497Y0000663D02*
G01X0005537Y0000667D01*
G01X0005537Y0000667D02*
G01X0005571Y0000669D01*
G01X0005571Y0000669D02*
G01X0005599Y0000667D01*
G01X0005599Y0000667D02*
G01X0005624Y0000663D01*
G01X0005624Y0000663D02*
G01X0005648Y0000656D01*
G01X0005648Y0000656D02*
G01X0005657Y0000652D01*
G01X0005657Y0000652D02*
G01X0005691Y0000635D01*
G01X0005691Y0000635D02*
G01X0005718Y0000613D01*
G01X0005718Y0000613D02*
G01X0005737Y0000588D01*
G01X0005737Y0000588D02*
G01X0005748Y0000562D01*
G01X0005748Y0000562D02*
G01X0005750Y0000534D01*
G01X0005750Y0000534D02*
G01X0005743Y0000506D01*
G01X0005743Y0000506D02*
G01X0005727Y0000479D01*
G01X0005727Y0000479D02*
G01X0005719Y0000469D01*
G01X0005719Y0000469D02*
G01X0005698Y0000451D01*
G01X0005698Y0000451D02*
G01X0005674Y0000438D01*
G01X0005674Y0000438D02*
G01X0005646Y0000429D01*
G01X0005646Y0000429D02*
G01X0005613Y0000424D01*
G01X0005613Y0000424D02*
G01X0005572Y0000422D01*
G01X0005572Y0000422D02*
G01X0005524Y0000425D01*
G01X0005524Y0000425D02*
G01X0005520Y0000425D01*
G01X0005520Y0000425D02*
G01X0005493Y0000426D01*
G01X0005493Y0000426D02*
G01X0005458Y0000427D01*
G01X0005458Y0000427D02*
G01X0005417Y0000428D01*
G01X0005417Y0000428D02*
G01X0005371Y0000427D01*
G01X0005371Y0000427D02*
G01X0005321Y0000426D01*
G01X0005321Y0000426D02*
G01X0005271Y0000425D01*
G01X0005271Y0000425D02*
G01X0005220Y0000424D01*
G01X0005220Y0000424D02*
G01X0005172Y0000422D01*
G01X0005172Y0000422D02*
G01X0005128Y0000419D01*
G01X0005128Y0000419D02*
G01X0005089Y0000417D01*
G01X0005089Y0000417D02*
G01X0005073Y0000415D01*
G01X0005073Y0000415D02*
G01X0005051Y0000413D01*
G01X0005051Y0000413D02*
G01X0005023Y0000411D01*
G01X0005023Y0000411D02*
G01X0004988Y0000409D01*
G01X0004988Y0000409D02*
G01X0004951Y0000406D01*
G01X0004951Y0000406D02*
G01X0004912Y0000404D01*
G01X0004912Y0000404D02*
G01X0004893Y0000403D01*
G01X0004893Y0000403D02*
G01X0004840Y0000399D01*
G01X0004840Y0000399D02*
G01X0004796Y0000395D01*
G01X0004796Y0000395D02*
G01X0004757Y0000391D01*
G01X0004757Y0000391D02*
G01X0004721Y0000386D01*
G01X0004721Y0000386D02*
G01X0004687Y0000381D01*
G01X0004687Y0000381D02*
G01X0004653Y0000373D01*
G01X0004653Y0000373D02*
G01X0004636Y0000370D01*
G01X0004636Y0000370D02*
G01X0004617Y0000366D01*
G01X0004617Y0000366D02*
G01X0004590Y0000361D01*
G01X0004590Y0000361D02*
G01X0004560Y0000356D01*
G01X0004560Y0000356D02*
G01X0004527Y0000350D01*
G01X0004527Y0000350D02*
G01X0004509Y0000348D01*
G01X0004509Y0000348D02*
G01X0004478Y0000343D01*
G01X0004478Y0000343D02*
G01X0004449Y0000339D01*
G01X0004449Y0000339D02*
G01X0004424Y0000335D01*
G01X0004424Y0000335D02*
G01X0004404Y0000332D01*
G01X0004404Y0000332D02*
G01X0004396Y0000330D01*
G01X0004396Y0000330D02*
G01X0004356Y0000326D01*
G01X0004356Y0000326D02*
G01X0004319Y0000329D01*
G01X0004319Y0000329D02*
G01X0004305Y0000332D01*
G01X0004305Y0000332D02*
G01X0004269Y0000346D01*
G01X0004269Y0000346D02*
G01X0004236Y0000365D01*
G01X0004236Y0000365D02*
G01X0004209Y0000389D01*
G01X0004209Y0000389D02*
G01X0004189Y0000416D01*
G01X0004189Y0000416D02*
G01X0004183Y0000428D01*
G01X0004183Y0000428D02*
G01X0004176Y0000455D01*
G01X0004176Y0000455D02*
G01X0004176Y0000484D01*
G01X0004176Y0000484D02*
G01X0004182Y0000512D01*
G01X0004182Y0000512D02*
G01X0004193Y0000537D01*
G01X0004193Y0000537D02*
G01X0004209Y0000555D01*
G01X0004209Y0000555D02*
G01X0004211Y0000557D01*
G01X0004211Y0000557D02*
G01X0004217Y0000561D01*
G01X0004217Y0000561D02*
G01X0004225Y0000564D01*
G01X0004225Y0000564D02*
G01X0004236Y0000565D01*
G01X0004236Y0000565D02*
G01X0004251Y0000567D01*
G01X0004251Y0000567D02*
G01X0004273Y0000568D01*
G01X0004273Y0000568D02*
G01X0004303Y0000568D01*
G01X0004303Y0000568D02*
G01X0004306Y0000568D01*
G01X0004306Y0000568D02*
G01X0004339Y0000569D01*
G01X0004339Y0000569D02*
G01X0004373Y0000570D01*
G01X0004373Y0000570D02*
G01X0004406Y0000572D01*
G01X0004406Y0000572D02*
G01X0004433Y0000573D01*
G01X0004433Y0000573D02*
G01X0004440Y0000574D01*
G01X0004440Y0000574D02*
G01X0004469Y0000575D01*
G01X0004469Y0000575D02*
G01X0004502Y0000575D01*
G01X0004502Y0000575D02*
G01X0004533Y0000574D01*
G01X0004533Y0000574D02*
G01X0004542Y0000574D01*
G01X0004542Y0000574D02*
G01X0004570Y0000572D01*
G01X0004570Y0000572D02*
G01X0004603Y0000573D01*
G01X0004603Y0000573D02*
G01X0004638Y0000574D01*
G01X0004638Y0000574D02*
G01X0004673Y0000576D01*
G01X0004673Y0000576D02*
G01X0004705Y0000579D01*
G01X0004705Y0000579D02*
G01X0004732Y0000583D01*
G01X0004732Y0000583D02*
G01X0004751Y0000587D01*
G01X0004751Y0000587D02*
G01X0004751Y0000587D01*
G01X0004751Y0000587D02*
G01X0004788Y0000603D01*
G01X0004788Y0000603D02*
G01X0004823Y0000626D01*
G01X0004823Y0000626D02*
G01X0004853Y0000655D01*
G01X0004853Y0000655D02*
G01X0004875Y0000688D01*
G01X0004875Y0000688D02*
G01X0004877Y0000692D01*
G01X0004877Y0000692D02*
G01X0004886Y0000714D01*
G01X0004886Y0000714D02*
G01X0004889Y0000736D01*
G01X0004889Y0000736D02*
G01X0004887Y0000760D01*
G01X0004887Y0000760D02*
G01X0004880Y0000786D01*
G01X0004880Y0000786D02*
G01X0004870Y0000826D01*
G01X0004870Y0000826D02*
G01X0004861Y0000875D01*
G01X0004861Y0000875D02*
G01X0004854Y0000930D01*
G01X0004854Y0000930D02*
G01X0004850Y0000972D01*
G01X0004850Y0000972D02*
G01X0004848Y0001005D01*
G01X0004848Y0001005D02*
G01X0004847Y0001030D01*
G01X0004847Y0001030D02*
G01X0004849Y0001049D01*
G01X0004849Y0001049D02*
G01X0004854Y0001062D01*
G01X0004854Y0001062D02*
G01X0004862Y0001073D01*
G01X0004862Y0001073D02*
G01X0004873Y0001081D01*
G01X0004873Y0001081D02*
G01X0004875Y0001082D01*
G01X0004875Y0001082D02*
G01X0004908Y0001098D01*
G01X0004908Y0001098D02*
G01X0004947Y0001107D01*
G01X0004947Y0001107D02*
G01X0004989Y0001110D01*
G01X0004989Y0001110D02*
G01X0005031Y0001106D01*
G36*
G01X0003448Y0008849D02*
G01X0003448Y0008822D01*
G01X0003448Y0008803D01*
G01X0003449Y0008792D01*
G01X0003451Y0008785D01*
G01X0003454Y0008782D01*
G01X0003457Y0008781D01*
G01X0003468Y0008783D01*
G01X0003481Y0008794D01*
G01X0003494Y0008810D01*
G01X0003507Y0008832D01*
G01X0003513Y0008846D01*
G01X0003524Y0008871D01*
G01X0003536Y0008887D01*
G01X0003547Y0008893D01*
G01X0003559Y0008889D01*
G01X0003560Y0008888D01*
G01X0003567Y0008880D01*
G01X0003571Y0008873D01*
G01X0003572Y0008864D01*
G01X0003569Y0008853D01*
G01X0003560Y0008838D01*
G01X0003547Y0008819D01*
G01X0003529Y0008794D01*
G01X0003518Y0008779D01*
G01X0003494Y0008747D01*
G01X0003477Y0008722D01*
G01X0003466Y0008704D01*
G01X0003461Y0008692D01*
G01X0003460Y0008689D01*
G01X0003461Y0008672D01*
G01X0003465Y0008649D01*
G01X0003470Y0008620D01*
G01X0003476Y0008589D01*
G01X0003483Y0008559D01*
G01X0003490Y0008532D01*
G01X0003495Y0008513D01*
G01X0003514Y0008465D01*
G01X0003534Y0008426D01*
G01X0003557Y0008396D01*
G01X0003582Y0008375D01*
G01X0003595Y0008367D01*
G01X0003608Y0008360D01*
G01X0003625Y0008350D01*
G01X0003644Y0008338D01*
G01X0003647Y0008336D01*
G01X0003664Y0008325D01*
G01X0003675Y0008319D01*
G01X0003684Y0008316D01*
G01X0003692Y0008317D01*
G01X0003698Y0008320D01*
G01X0003711Y0008323D01*
G01X0003719Y0008322D01*
G01X0003726Y0008317D01*
G01X0003733Y0008303D01*
G01X0003734Y0008293D01*
G01X0003732Y0008284D01*
G01X0003727Y0008278D01*
G01X0003715Y0008274D01*
G01X0003708Y0008272D01*
G01X0003687Y0008267D01*
G01X0003672Y0008266D01*
G01X0003660Y0008270D01*
G01X0003648Y0008278D01*
G01X0003645Y0008280D01*
G01X0003634Y0008288D01*
G01X0003616Y0008300D01*
G01X0003595Y0008314D01*
G01X0003575Y0008326D01*
G01X0003551Y0008341D01*
G01X0003534Y0008353D01*
G01X0003522Y0008364D01*
G01X0003511Y0008376D01*
G01X0003501Y0008390D01*
G01X0003476Y0008434D01*
G01X0003455Y0008487D01*
G01X0003438Y0008547D01*
G01X0003424Y0008615D01*
G01X0003414Y0008692D01*
G01X0003408Y0008778D01*
G01X0003407Y0008804D01*
G01X0003406Y0008840D01*
G01X0003406Y0008867D01*
G01X0003407Y0008887D01*
G01X0003408Y0008900D01*
G01X0003412Y0008909D01*
G01X0003417Y0008913D01*
G01X0003425Y0008915D01*
G01X0003433Y0008915D01*
G01X0003449Y0008915D01*
G01X0003448Y0008849D01*
G01X0003448Y0008849D01*
G37*
G01X0003448Y0008849D02*
G01X0003448Y0008822D01*
G01X0003448Y0008822D02*
G01X0003448Y0008803D01*
G01X0003448Y0008803D02*
G01X0003449Y0008792D01*
G01X0003449Y0008792D02*
G01X0003451Y0008785D01*
G01X0003451Y0008785D02*
G01X0003454Y0008782D01*
G01X0003454Y0008782D02*
G01X0003457Y0008781D01*
G01X0003457Y0008781D02*
G01X0003468Y0008783D01*
G01X0003468Y0008783D02*
G01X0003481Y0008794D01*
G01X0003481Y0008794D02*
G01X0003494Y0008810D01*
G01X0003494Y0008810D02*
G01X0003507Y0008832D01*
G01X0003507Y0008832D02*
G01X0003513Y0008846D01*
G01X0003513Y0008846D02*
G01X0003524Y0008871D01*
G01X0003524Y0008871D02*
G01X0003536Y0008887D01*
G01X0003536Y0008887D02*
G01X0003547Y0008893D01*
G01X0003547Y0008893D02*
G01X0003559Y0008889D01*
G01X0003559Y0008889D02*
G01X0003560Y0008888D01*
G01X0003560Y0008888D02*
G01X0003567Y0008880D01*
G01X0003567Y0008880D02*
G01X0003571Y0008873D01*
G01X0003571Y0008873D02*
G01X0003572Y0008864D01*
G01X0003572Y0008864D02*
G01X0003569Y0008853D01*
G01X0003569Y0008853D02*
G01X0003560Y0008838D01*
G01X0003560Y0008838D02*
G01X0003547Y0008819D01*
G01X0003547Y0008819D02*
G01X0003529Y0008794D01*
G01X0003529Y0008794D02*
G01X0003518Y0008779D01*
G01X0003518Y0008779D02*
G01X0003494Y0008747D01*
G01X0003494Y0008747D02*
G01X0003477Y0008722D01*
G01X0003477Y0008722D02*
G01X0003466Y0008704D01*
G01X0003466Y0008704D02*
G01X0003461Y0008692D01*
G01X0003461Y0008692D02*
G01X0003460Y0008689D01*
G01X0003460Y0008689D02*
G01X0003461Y0008672D01*
G01X0003461Y0008672D02*
G01X0003465Y0008649D01*
G01X0003465Y0008649D02*
G01X0003470Y0008620D01*
G01X0003470Y0008620D02*
G01X0003476Y0008589D01*
G01X0003476Y0008589D02*
G01X0003483Y0008559D01*
G01X0003483Y0008559D02*
G01X0003490Y0008532D01*
G01X0003490Y0008532D02*
G01X0003495Y0008513D01*
G01X0003495Y0008513D02*
G01X0003514Y0008465D01*
G01X0003514Y0008465D02*
G01X0003534Y0008426D01*
G01X0003534Y0008426D02*
G01X0003557Y0008396D01*
G01X0003557Y0008396D02*
G01X0003582Y0008375D01*
G01X0003582Y0008375D02*
G01X0003595Y0008367D01*
G01X0003595Y0008367D02*
G01X0003608Y0008360D01*
G01X0003608Y0008360D02*
G01X0003625Y0008350D01*
G01X0003625Y0008350D02*
G01X0003644Y0008338D01*
G01X0003644Y0008338D02*
G01X0003647Y0008336D01*
G01X0003647Y0008336D02*
G01X0003664Y0008325D01*
G01X0003664Y0008325D02*
G01X0003675Y0008319D01*
G01X0003675Y0008319D02*
G01X0003684Y0008316D01*
G01X0003684Y0008316D02*
G01X0003692Y0008317D01*
G01X0003692Y0008317D02*
G01X0003698Y0008320D01*
G01X0003698Y0008320D02*
G01X0003711Y0008323D01*
G01X0003711Y0008323D02*
G01X0003719Y0008322D01*
G01X0003719Y0008322D02*
G01X0003726Y0008317D01*
G01X0003726Y0008317D02*
G01X0003733Y0008303D01*
G01X0003733Y0008303D02*
G01X0003734Y0008293D01*
G01X0003734Y0008293D02*
G01X0003732Y0008284D01*
G01X0003732Y0008284D02*
G01X0003727Y0008278D01*
G01X0003727Y0008278D02*
G01X0003715Y0008274D01*
G01X0003715Y0008274D02*
G01X0003708Y0008272D01*
G01X0003708Y0008272D02*
G01X0003687Y0008267D01*
G01X0003687Y0008267D02*
G01X0003672Y0008266D01*
G01X0003672Y0008266D02*
G01X0003660Y0008270D01*
G01X0003660Y0008270D02*
G01X0003648Y0008278D01*
G01X0003648Y0008278D02*
G01X0003645Y0008280D01*
G01X0003645Y0008280D02*
G01X0003634Y0008288D01*
G01X0003634Y0008288D02*
G01X0003616Y0008300D01*
G01X0003616Y0008300D02*
G01X0003595Y0008314D01*
G01X0003595Y0008314D02*
G01X0003575Y0008326D01*
G01X0003575Y0008326D02*
G01X0003551Y0008341D01*
G01X0003551Y0008341D02*
G01X0003534Y0008353D01*
G01X0003534Y0008353D02*
G01X0003522Y0008364D01*
G01X0003522Y0008364D02*
G01X0003511Y0008376D01*
G01X0003511Y0008376D02*
G01X0003501Y0008390D01*
G01X0003501Y0008390D02*
G01X0003476Y0008434D01*
G01X0003476Y0008434D02*
G01X0003455Y0008487D01*
G01X0003455Y0008487D02*
G01X0003438Y0008547D01*
G01X0003438Y0008547D02*
G01X0003424Y0008615D01*
G01X0003424Y0008615D02*
G01X0003414Y0008692D01*
G01X0003414Y0008692D02*
G01X0003408Y0008778D01*
G01X0003408Y0008778D02*
G01X0003407Y0008804D01*
G01X0003407Y0008804D02*
G01X0003406Y0008840D01*
G01X0003406Y0008840D02*
G01X0003406Y0008867D01*
G01X0003406Y0008867D02*
G01X0003407Y0008887D01*
G01X0003407Y0008887D02*
G01X0003408Y0008900D01*
G01X0003408Y0008900D02*
G01X0003412Y0008909D01*
G01X0003412Y0008909D02*
G01X0003417Y0008913D01*
G01X0003417Y0008913D02*
G01X0003425Y0008915D01*
G01X0003425Y0008915D02*
G01X0003433Y0008915D01*
G01X0003433Y0008915D02*
G01X0003449Y0008915D01*
G01X0003449Y0008915D02*
G01X0003448Y0008849D01*
G36*
G01X0006613Y0008972D02*
G01X0006640Y0008964D01*
G01X0006671Y0008952D01*
G01X0006702Y0008936D01*
G01X0006731Y0008919D01*
G01X0006731Y0008919D01*
G01X0006768Y0008892D01*
G01X0006797Y0008868D01*
G01X0006817Y0008845D01*
G01X0006829Y0008822D01*
G01X0006834Y0008798D01*
G01X0006833Y0008772D01*
G01X0006827Y0008745D01*
G01X0006817Y0008719D01*
G01X0006805Y0008699D01*
G01X0006788Y0008684D01*
G01X0006765Y0008673D01*
G01X0006735Y0008666D01*
G01X0006700Y0008661D01*
G01X0006675Y0008658D01*
G01X0006658Y0008655D01*
G01X0006648Y0008651D01*
G01X0006641Y0008647D01*
G01X0006639Y0008644D01*
G01X0006632Y0008634D01*
G01X0006630Y0008628D01*
G01X0006635Y0008616D01*
G01X0006648Y0008601D01*
G01X0006670Y0008583D01*
G01X0006699Y0008562D01*
G01X0006737Y0008539D01*
G01X0006781Y0008513D01*
G01X0006803Y0008501D01*
G01X0006827Y0008488D01*
G01X0006847Y0008475D01*
G01X0006861Y0008465D01*
G01X0006869Y0008459D01*
G01X0006869Y0008457D01*
G01X0006867Y0008448D01*
G01X0006860Y0008438D01*
G01X0006860Y0008437D01*
G01X0006844Y0008427D01*
G01X0006823Y0008425D01*
G01X0006799Y0008430D01*
G01X0006778Y0008440D01*
G01X0006762Y0008450D01*
G01X0006743Y0008464D01*
G01X0006723Y0008480D01*
G01X0006715Y0008488D01*
G01X0006693Y0008506D01*
G01X0006667Y0008526D01*
G01X0006643Y0008544D01*
G01X0006638Y0008548D01*
G01X0006619Y0008561D01*
G01X0006603Y0008574D01*
G01X0006592Y0008585D01*
G01X0006589Y0008589D01*
G01X0006581Y0008610D01*
G01X0006580Y0008635D01*
G01X0006585Y0008658D01*
G01X0006591Y0008671D01*
G01X0006600Y0008681D01*
G01X0006612Y0008689D01*
G01X0006629Y0008695D01*
G01X0006652Y0008700D01*
G01X0006683Y0008705D01*
G01X0006689Y0008705D01*
G01X0006721Y0008710D01*
G01X0006744Y0008716D01*
G01X0006761Y0008725D01*
G01X0006771Y0008737D01*
G01X0006774Y0008742D01*
G01X0006783Y0008769D01*
G01X0006782Y0008794D01*
G01X0006772Y0008818D01*
G01X0006752Y0008842D01*
G01X0006734Y0008857D01*
G01X0006697Y0008882D01*
G01X0006664Y0008899D01*
G01X0006634Y0008910D01*
G01X0006604Y0008914D01*
G01X0006603Y0008914D01*
G01X0006584Y0008916D01*
G01X0006570Y0008918D01*
G01X0006561Y0008921D01*
G01X0006561Y0008921D01*
G01X0006557Y0008929D01*
G01X0006555Y0008942D01*
G01X0006555Y0008943D01*
G01X0006559Y0008959D01*
G01X0006571Y0008971D01*
G01X0006589Y0008975D01*
G01X0006591Y0008975D01*
G01X0006613Y0008972D01*
G01X0006613Y0008972D01*
G37*
G01X0006613Y0008972D02*
G01X0006640Y0008964D01*
G01X0006640Y0008964D02*
G01X0006671Y0008952D01*
G01X0006671Y0008952D02*
G01X0006702Y0008936D01*
G01X0006702Y0008936D02*
G01X0006731Y0008919D01*
G01X0006731Y0008919D02*
G01X0006731Y0008919D01*
G01X0006731Y0008919D02*
G01X0006768Y0008892D01*
G01X0006768Y0008892D02*
G01X0006797Y0008868D01*
G01X0006797Y0008868D02*
G01X0006817Y0008845D01*
G01X0006817Y0008845D02*
G01X0006829Y0008822D01*
G01X0006829Y0008822D02*
G01X0006834Y0008798D01*
G01X0006834Y0008798D02*
G01X0006833Y0008772D01*
G01X0006833Y0008772D02*
G01X0006827Y0008745D01*
G01X0006827Y0008745D02*
G01X0006817Y0008719D01*
G01X0006817Y0008719D02*
G01X0006805Y0008699D01*
G01X0006805Y0008699D02*
G01X0006788Y0008684D01*
G01X0006788Y0008684D02*
G01X0006765Y0008673D01*
G01X0006765Y0008673D02*
G01X0006735Y0008666D01*
G01X0006735Y0008666D02*
G01X0006700Y0008661D01*
G01X0006700Y0008661D02*
G01X0006675Y0008658D01*
G01X0006675Y0008658D02*
G01X0006658Y0008655D01*
G01X0006658Y0008655D02*
G01X0006648Y0008651D01*
G01X0006648Y0008651D02*
G01X0006641Y0008647D01*
G01X0006641Y0008647D02*
G01X0006639Y0008644D01*
G01X0006639Y0008644D02*
G01X0006632Y0008634D01*
G01X0006632Y0008634D02*
G01X0006630Y0008628D01*
G01X0006630Y0008628D02*
G01X0006635Y0008616D01*
G01X0006635Y0008616D02*
G01X0006648Y0008601D01*
G01X0006648Y0008601D02*
G01X0006670Y0008583D01*
G01X0006670Y0008583D02*
G01X0006699Y0008562D01*
G01X0006699Y0008562D02*
G01X0006737Y0008539D01*
G01X0006737Y0008539D02*
G01X0006781Y0008513D01*
G01X0006781Y0008513D02*
G01X0006803Y0008501D01*
G01X0006803Y0008501D02*
G01X0006827Y0008488D01*
G01X0006827Y0008488D02*
G01X0006847Y0008475D01*
G01X0006847Y0008475D02*
G01X0006861Y0008465D01*
G01X0006861Y0008465D02*
G01X0006869Y0008459D01*
G01X0006869Y0008459D02*
G01X0006869Y0008457D01*
G01X0006869Y0008457D02*
G01X0006867Y0008448D01*
G01X0006867Y0008448D02*
G01X0006860Y0008438D01*
G01X0006860Y0008438D02*
G01X0006860Y0008437D01*
G01X0006860Y0008437D02*
G01X0006844Y0008427D01*
G01X0006844Y0008427D02*
G01X0006823Y0008425D01*
G01X0006823Y0008425D02*
G01X0006799Y0008430D01*
G01X0006799Y0008430D02*
G01X0006778Y0008440D01*
G01X0006778Y0008440D02*
G01X0006762Y0008450D01*
G01X0006762Y0008450D02*
G01X0006743Y0008464D01*
G01X0006743Y0008464D02*
G01X0006723Y0008480D01*
G01X0006723Y0008480D02*
G01X0006715Y0008488D01*
G01X0006715Y0008488D02*
G01X0006693Y0008506D01*
G01X0006693Y0008506D02*
G01X0006667Y0008526D01*
G01X0006667Y0008526D02*
G01X0006643Y0008544D01*
G01X0006643Y0008544D02*
G01X0006638Y0008548D01*
G01X0006638Y0008548D02*
G01X0006619Y0008561D01*
G01X0006619Y0008561D02*
G01X0006603Y0008574D01*
G01X0006603Y0008574D02*
G01X0006592Y0008585D01*
G01X0006592Y0008585D02*
G01X0006589Y0008589D01*
G01X0006589Y0008589D02*
G01X0006581Y0008610D01*
G01X0006581Y0008610D02*
G01X0006580Y0008635D01*
G01X0006580Y0008635D02*
G01X0006585Y0008658D01*
G01X0006585Y0008658D02*
G01X0006591Y0008671D01*
G01X0006591Y0008671D02*
G01X0006600Y0008681D01*
G01X0006600Y0008681D02*
G01X0006612Y0008689D01*
G01X0006612Y0008689D02*
G01X0006629Y0008695D01*
G01X0006629Y0008695D02*
G01X0006652Y0008700D01*
G01X0006652Y0008700D02*
G01X0006683Y0008705D01*
G01X0006683Y0008705D02*
G01X0006689Y0008705D01*
G01X0006689Y0008705D02*
G01X0006721Y0008710D01*
G01X0006721Y0008710D02*
G01X0006744Y0008716D01*
G01X0006744Y0008716D02*
G01X0006761Y0008725D01*
G01X0006761Y0008725D02*
G01X0006771Y0008737D01*
G01X0006771Y0008737D02*
G01X0006774Y0008742D01*
G01X0006774Y0008742D02*
G01X0006783Y0008769D01*
G01X0006783Y0008769D02*
G01X0006782Y0008794D01*
G01X0006782Y0008794D02*
G01X0006772Y0008818D01*
G01X0006772Y0008818D02*
G01X0006752Y0008842D01*
G01X0006752Y0008842D02*
G01X0006734Y0008857D01*
G01X0006734Y0008857D02*
G01X0006697Y0008882D01*
G01X0006697Y0008882D02*
G01X0006664Y0008899D01*
G01X0006664Y0008899D02*
G01X0006634Y0008910D01*
G01X0006634Y0008910D02*
G01X0006604Y0008914D01*
G01X0006604Y0008914D02*
G01X0006603Y0008914D01*
G01X0006603Y0008914D02*
G01X0006584Y0008916D01*
G01X0006584Y0008916D02*
G01X0006570Y0008918D01*
G01X0006570Y0008918D02*
G01X0006561Y0008921D01*
G01X0006561Y0008921D02*
G01X0006561Y0008921D01*
G01X0006561Y0008921D02*
G01X0006557Y0008929D01*
G01X0006557Y0008929D02*
G01X0006555Y0008942D01*
G01X0006555Y0008942D02*
G01X0006555Y0008943D01*
G01X0006555Y0008943D02*
G01X0006559Y0008959D01*
G01X0006559Y0008959D02*
G01X0006571Y0008971D01*
G01X0006571Y0008971D02*
G01X0006589Y0008975D01*
G01X0006589Y0008975D02*
G01X0006591Y0008975D01*
G01X0006591Y0008975D02*
G01X0006613Y0008972D01*
G36*
G01X0005215Y0009018D02*
G01X0005229Y0009009D01*
G01X0005236Y0008996D01*
G01X0005243Y0008975D01*
G01X0005250Y0008946D01*
G01X0005257Y0008912D01*
G01X0005262Y0008874D01*
G01X0005266Y0008832D01*
G01X0005266Y0008831D01*
G01X0005272Y0008759D01*
G01X0005303Y0008762D01*
G01X0005324Y0008762D01*
G01X0005337Y0008760D01*
G01X0005339Y0008759D01*
G01X0005345Y0008747D01*
G01X0005343Y0008732D01*
G01X0005336Y0008720D01*
G01X0005329Y0008713D01*
G01X0005318Y0008710D01*
G01X0005302Y0008709D01*
G01X0005299Y0008709D01*
G01X0005271Y0008709D01*
G01X0005268Y0008674D01*
G01X0005263Y0008642D01*
G01X0005253Y0008614D01*
G01X0005235Y0008589D01*
G01X0005214Y0008568D01*
G01X0005185Y0008543D01*
G01X0005159Y0008527D01*
G01X0005135Y0008519D01*
G01X0005109Y0008518D01*
G01X0005086Y0008523D01*
G01X0005056Y0008533D01*
G01X0005034Y0008544D01*
G01X0005025Y0008552D01*
G01X0005021Y0008560D01*
G01X0005023Y0008570D01*
G01X0005025Y0008575D01*
G01X0005035Y0008589D01*
G01X0005047Y0008593D01*
G01X0005063Y0008589D01*
G01X0005070Y0008583D01*
G01X0005092Y0008570D01*
G01X0005115Y0008566D01*
G01X0005140Y0008572D01*
G01X0005166Y0008588D01*
G01X0005178Y0008597D01*
G01X0005199Y0008619D01*
G01X0005213Y0008643D01*
G01X0005221Y0008672D01*
G01X0005223Y0008687D01*
G01X0005226Y0008715D01*
G01X0005174Y0008715D01*
G01X0005146Y0008714D01*
G01X0005113Y0008712D01*
G01X0005081Y0008709D01*
G01X0005063Y0008707D01*
G01X0005036Y0008704D01*
G01X0005015Y0008703D01*
G01X0005002Y0008703D01*
G01X0004999Y0008704D01*
G01X0004995Y0008714D01*
G01X0004997Y0008728D01*
G01X0005003Y0008743D01*
G01X0005012Y0008752D01*
G01X0005017Y0008756D01*
G01X0005023Y0008758D01*
G01X0005031Y0008760D01*
G01X0005043Y0008761D01*
G01X0005060Y0008761D01*
G01X0005083Y0008761D01*
G01X0005115Y0008761D01*
G01X0005124Y0008761D01*
G01X0005223Y0008759D01*
G01X0005221Y0008806D01*
G01X0005218Y0008859D01*
G01X0005211Y0008902D01*
G01X0005202Y0008936D01*
G01X0005190Y0008959D01*
G01X0005180Y0008978D01*
G01X0005176Y0008991D01*
G01X0005178Y0009001D01*
G01X0005185Y0009010D01*
G01X0005200Y0009019D01*
G01X0005215Y0009018D01*
G01X0005215Y0009018D01*
G37*
G01X0005215Y0009018D02*
G01X0005229Y0009009D01*
G01X0005229Y0009009D02*
G01X0005236Y0008996D01*
G01X0005236Y0008996D02*
G01X0005243Y0008975D01*
G01X0005243Y0008975D02*
G01X0005250Y0008946D01*
G01X0005250Y0008946D02*
G01X0005257Y0008912D01*
G01X0005257Y0008912D02*
G01X0005262Y0008874D01*
G01X0005262Y0008874D02*
G01X0005266Y0008832D01*
G01X0005266Y0008832D02*
G01X0005266Y0008831D01*
G01X0005266Y0008831D02*
G01X0005272Y0008759D01*
G01X0005272Y0008759D02*
G01X0005303Y0008762D01*
G01X0005303Y0008762D02*
G01X0005324Y0008762D01*
G01X0005324Y0008762D02*
G01X0005337Y0008760D01*
G01X0005337Y0008760D02*
G01X0005339Y0008759D01*
G01X0005339Y0008759D02*
G01X0005345Y0008747D01*
G01X0005345Y0008747D02*
G01X0005343Y0008732D01*
G01X0005343Y0008732D02*
G01X0005336Y0008720D01*
G01X0005336Y0008720D02*
G01X0005329Y0008713D01*
G01X0005329Y0008713D02*
G01X0005318Y0008710D01*
G01X0005318Y0008710D02*
G01X0005302Y0008709D01*
G01X0005302Y0008709D02*
G01X0005299Y0008709D01*
G01X0005299Y0008709D02*
G01X0005271Y0008709D01*
G01X0005271Y0008709D02*
G01X0005268Y0008674D01*
G01X0005268Y0008674D02*
G01X0005263Y0008642D01*
G01X0005263Y0008642D02*
G01X0005253Y0008614D01*
G01X0005253Y0008614D02*
G01X0005235Y0008589D01*
G01X0005235Y0008589D02*
G01X0005214Y0008568D01*
G01X0005214Y0008568D02*
G01X0005185Y0008543D01*
G01X0005185Y0008543D02*
G01X0005159Y0008527D01*
G01X0005159Y0008527D02*
G01X0005135Y0008519D01*
G01X0005135Y0008519D02*
G01X0005109Y0008518D01*
G01X0005109Y0008518D02*
G01X0005086Y0008523D01*
G01X0005086Y0008523D02*
G01X0005056Y0008533D01*
G01X0005056Y0008533D02*
G01X0005034Y0008544D01*
G01X0005034Y0008544D02*
G01X0005025Y0008552D01*
G01X0005025Y0008552D02*
G01X0005021Y0008560D01*
G01X0005021Y0008560D02*
G01X0005023Y0008570D01*
G01X0005023Y0008570D02*
G01X0005025Y0008575D01*
G01X0005025Y0008575D02*
G01X0005035Y0008589D01*
G01X0005035Y0008589D02*
G01X0005047Y0008593D01*
G01X0005047Y0008593D02*
G01X0005063Y0008589D01*
G01X0005063Y0008589D02*
G01X0005070Y0008583D01*
G01X0005070Y0008583D02*
G01X0005092Y0008570D01*
G01X0005092Y0008570D02*
G01X0005115Y0008566D01*
G01X0005115Y0008566D02*
G01X0005140Y0008572D01*
G01X0005140Y0008572D02*
G01X0005166Y0008588D01*
G01X0005166Y0008588D02*
G01X0005178Y0008597D01*
G01X0005178Y0008597D02*
G01X0005199Y0008619D01*
G01X0005199Y0008619D02*
G01X0005213Y0008643D01*
G01X0005213Y0008643D02*
G01X0005221Y0008672D01*
G01X0005221Y0008672D02*
G01X0005223Y0008687D01*
G01X0005223Y0008687D02*
G01X0005226Y0008715D01*
G01X0005226Y0008715D02*
G01X0005174Y0008715D01*
G01X0005174Y0008715D02*
G01X0005146Y0008714D01*
G01X0005146Y0008714D02*
G01X0005113Y0008712D01*
G01X0005113Y0008712D02*
G01X0005081Y0008709D01*
G01X0005081Y0008709D02*
G01X0005063Y0008707D01*
G01X0005063Y0008707D02*
G01X0005036Y0008704D01*
G01X0005036Y0008704D02*
G01X0005015Y0008703D01*
G01X0005015Y0008703D02*
G01X0005002Y0008703D01*
G01X0005002Y0008703D02*
G01X0004999Y0008704D01*
G01X0004999Y0008704D02*
G01X0004995Y0008714D01*
G01X0004995Y0008714D02*
G01X0004997Y0008728D01*
G01X0004997Y0008728D02*
G01X0005003Y0008743D01*
G01X0005003Y0008743D02*
G01X0005012Y0008752D01*
G01X0005012Y0008752D02*
G01X0005017Y0008756D01*
G01X0005017Y0008756D02*
G01X0005023Y0008758D01*
G01X0005023Y0008758D02*
G01X0005031Y0008760D01*
G01X0005031Y0008760D02*
G01X0005043Y0008761D01*
G01X0005043Y0008761D02*
G01X0005060Y0008761D01*
G01X0005060Y0008761D02*
G01X0005083Y0008761D01*
G01X0005083Y0008761D02*
G01X0005115Y0008761D01*
G01X0005115Y0008761D02*
G01X0005124Y0008761D01*
G01X0005124Y0008761D02*
G01X0005223Y0008759D01*
G01X0005223Y0008759D02*
G01X0005221Y0008806D01*
G01X0005221Y0008806D02*
G01X0005218Y0008859D01*
G01X0005218Y0008859D02*
G01X0005211Y0008902D01*
G01X0005211Y0008902D02*
G01X0005202Y0008936D01*
G01X0005202Y0008936D02*
G01X0005190Y0008959D01*
G01X0005190Y0008959D02*
G01X0005180Y0008978D01*
G01X0005180Y0008978D02*
G01X0005176Y0008991D01*
G01X0005176Y0008991D02*
G01X0005178Y0009001D01*
G01X0005178Y0009001D02*
G01X0005185Y0009010D01*
G01X0005185Y0009010D02*
G01X0005200Y0009019D01*
G01X0005200Y0009019D02*
G01X0005215Y0009018D01*
G36*
G01X0004467Y0008973D02*
G01X0004483Y0008969D01*
G01X0004502Y0008963D01*
G01X0004503Y0008963D01*
G01X0004524Y0008957D01*
G01X0004551Y0008950D01*
G01X0004578Y0008945D01*
G01X0004589Y0008943D01*
G01X0004614Y0008939D01*
G01X0004637Y0008933D01*
G01X0004656Y0008927D01*
G01X0004662Y0008924D01*
G01X0004688Y0008908D01*
G01X0004712Y0008884D01*
G01X0004735Y0008854D01*
G01X0004753Y0008821D01*
G01X0004767Y0008786D01*
G01X0004770Y0008771D01*
G01X0004774Y0008745D01*
G01X0004774Y0008715D01*
G01X0004773Y0008684D01*
G01X0004769Y0008656D01*
G01X0004763Y0008633D01*
G01X0004761Y0008628D01*
G01X0004742Y0008598D01*
G01X0004716Y0008572D01*
G01X0004683Y0008551D01*
G01X0004646Y0008535D01*
G01X0004605Y0008525D01*
G01X0004563Y0008521D01*
G01X0004520Y0008525D01*
G01X0004510Y0008527D01*
G01X0004494Y0008531D01*
G01X0004480Y0008536D01*
G01X0004466Y0008542D01*
G01X0004448Y0008552D01*
G01X0004426Y0008566D01*
G01X0004407Y0008578D01*
G01X0004385Y0008593D01*
G01X0004371Y0008606D01*
G01X0004365Y0008616D01*
G01X0004366Y0008626D01*
G01X0004373Y0008637D01*
G01X0004375Y0008639D01*
G01X0004386Y0008648D01*
G01X0004396Y0008649D01*
G01X0004408Y0008642D01*
G01X0004422Y0008629D01*
G01X0004438Y0008615D01*
G01X0004458Y0008601D01*
G01X0004475Y0008590D01*
G01X0004489Y0008583D01*
G01X0004501Y0008578D01*
G01X0004512Y0008575D01*
G01X0004526Y0008573D01*
G01X0004544Y0008573D01*
G01X0004568Y0008573D01*
G01X0004600Y0008573D01*
G01X0004624Y0008576D01*
G01X0004644Y0008581D01*
G01X0004662Y0008591D01*
G01X0004680Y0008604D01*
G01X0004690Y0008613D01*
G01X0004707Y0008631D01*
G01X0004718Y0008651D01*
G01X0004725Y0008676D01*
G01X0004727Y0008695D01*
G01X0004727Y0008738D01*
G01X0004719Y0008779D01*
G01X0004702Y0008816D01*
G01X0004679Y0008849D01*
G01X0004650Y0008875D01*
G01X0004649Y0008876D01*
G01X0004631Y0008885D01*
G01X0004605Y0008893D01*
G01X0004572Y0008899D01*
G01X0004537Y0008904D01*
G01X0004499Y0008907D01*
G01X0004492Y0008907D01*
G01X0004469Y0008908D01*
G01X0004453Y0008909D01*
G01X0004443Y0008912D01*
G01X0004436Y0008917D01*
G01X0004436Y0008917D01*
G01X0004427Y0008930D01*
G01X0004426Y0008946D01*
G01X0004431Y0008960D01*
G01X0004442Y0008971D01*
G01X0004457Y0008975D01*
G01X0004467Y0008973D01*
G01X0004467Y0008973D01*
G37*
G01X0004467Y0008973D02*
G01X0004483Y0008969D01*
G01X0004483Y0008969D02*
G01X0004502Y0008963D01*
G01X0004502Y0008963D02*
G01X0004503Y0008963D01*
G01X0004503Y0008963D02*
G01X0004524Y0008957D01*
G01X0004524Y0008957D02*
G01X0004551Y0008950D01*
G01X0004551Y0008950D02*
G01X0004578Y0008945D01*
G01X0004578Y0008945D02*
G01X0004589Y0008943D01*
G01X0004589Y0008943D02*
G01X0004614Y0008939D01*
G01X0004614Y0008939D02*
G01X0004637Y0008933D01*
G01X0004637Y0008933D02*
G01X0004656Y0008927D01*
G01X0004656Y0008927D02*
G01X0004662Y0008924D01*
G01X0004662Y0008924D02*
G01X0004688Y0008908D01*
G01X0004688Y0008908D02*
G01X0004712Y0008884D01*
G01X0004712Y0008884D02*
G01X0004735Y0008854D01*
G01X0004735Y0008854D02*
G01X0004753Y0008821D01*
G01X0004753Y0008821D02*
G01X0004767Y0008786D01*
G01X0004767Y0008786D02*
G01X0004770Y0008771D01*
G01X0004770Y0008771D02*
G01X0004774Y0008745D01*
G01X0004774Y0008745D02*
G01X0004774Y0008715D01*
G01X0004774Y0008715D02*
G01X0004773Y0008684D01*
G01X0004773Y0008684D02*
G01X0004769Y0008656D01*
G01X0004769Y0008656D02*
G01X0004763Y0008633D01*
G01X0004763Y0008633D02*
G01X0004761Y0008628D01*
G01X0004761Y0008628D02*
G01X0004742Y0008598D01*
G01X0004742Y0008598D02*
G01X0004716Y0008572D01*
G01X0004716Y0008572D02*
G01X0004683Y0008551D01*
G01X0004683Y0008551D02*
G01X0004646Y0008535D01*
G01X0004646Y0008535D02*
G01X0004605Y0008525D01*
G01X0004605Y0008525D02*
G01X0004563Y0008521D01*
G01X0004563Y0008521D02*
G01X0004520Y0008525D01*
G01X0004520Y0008525D02*
G01X0004510Y0008527D01*
G01X0004510Y0008527D02*
G01X0004494Y0008531D01*
G01X0004494Y0008531D02*
G01X0004480Y0008536D01*
G01X0004480Y0008536D02*
G01X0004466Y0008542D01*
G01X0004466Y0008542D02*
G01X0004448Y0008552D01*
G01X0004448Y0008552D02*
G01X0004426Y0008566D01*
G01X0004426Y0008566D02*
G01X0004407Y0008578D01*
G01X0004407Y0008578D02*
G01X0004385Y0008593D01*
G01X0004385Y0008593D02*
G01X0004371Y0008606D01*
G01X0004371Y0008606D02*
G01X0004365Y0008616D01*
G01X0004365Y0008616D02*
G01X0004366Y0008626D01*
G01X0004366Y0008626D02*
G01X0004373Y0008637D01*
G01X0004373Y0008637D02*
G01X0004375Y0008639D01*
G01X0004375Y0008639D02*
G01X0004386Y0008648D01*
G01X0004386Y0008648D02*
G01X0004396Y0008649D01*
G01X0004396Y0008649D02*
G01X0004408Y0008642D01*
G01X0004408Y0008642D02*
G01X0004422Y0008629D01*
G01X0004422Y0008629D02*
G01X0004438Y0008615D01*
G01X0004438Y0008615D02*
G01X0004458Y0008601D01*
G01X0004458Y0008601D02*
G01X0004475Y0008590D01*
G01X0004475Y0008590D02*
G01X0004489Y0008583D01*
G01X0004489Y0008583D02*
G01X0004501Y0008578D01*
G01X0004501Y0008578D02*
G01X0004512Y0008575D01*
G01X0004512Y0008575D02*
G01X0004526Y0008573D01*
G01X0004526Y0008573D02*
G01X0004544Y0008573D01*
G01X0004544Y0008573D02*
G01X0004568Y0008573D01*
G01X0004568Y0008573D02*
G01X0004600Y0008573D01*
G01X0004600Y0008573D02*
G01X0004624Y0008576D01*
G01X0004624Y0008576D02*
G01X0004644Y0008581D01*
G01X0004644Y0008581D02*
G01X0004662Y0008591D01*
G01X0004662Y0008591D02*
G01X0004680Y0008604D01*
G01X0004680Y0008604D02*
G01X0004690Y0008613D01*
G01X0004690Y0008613D02*
G01X0004707Y0008631D01*
G01X0004707Y0008631D02*
G01X0004718Y0008651D01*
G01X0004718Y0008651D02*
G01X0004725Y0008676D01*
G01X0004725Y0008676D02*
G01X0004727Y0008695D01*
G01X0004727Y0008695D02*
G01X0004727Y0008738D01*
G01X0004727Y0008738D02*
G01X0004719Y0008779D01*
G01X0004719Y0008779D02*
G01X0004702Y0008816D01*
G01X0004702Y0008816D02*
G01X0004679Y0008849D01*
G01X0004679Y0008849D02*
G01X0004650Y0008875D01*
G01X0004650Y0008875D02*
G01X0004649Y0008876D01*
G01X0004649Y0008876D02*
G01X0004631Y0008885D01*
G01X0004631Y0008885D02*
G01X0004605Y0008893D01*
G01X0004605Y0008893D02*
G01X0004572Y0008899D01*
G01X0004572Y0008899D02*
G01X0004537Y0008904D01*
G01X0004537Y0008904D02*
G01X0004499Y0008907D01*
G01X0004499Y0008907D02*
G01X0004492Y0008907D01*
G01X0004492Y0008907D02*
G01X0004469Y0008908D01*
G01X0004469Y0008908D02*
G01X0004453Y0008909D01*
G01X0004453Y0008909D02*
G01X0004443Y0008912D01*
G01X0004443Y0008912D02*
G01X0004436Y0008917D01*
G01X0004436Y0008917D02*
G01X0004436Y0008917D01*
G01X0004436Y0008917D02*
G01X0004427Y0008930D01*
G01X0004427Y0008930D02*
G01X0004426Y0008946D01*
G01X0004426Y0008946D02*
G01X0004431Y0008960D01*
G01X0004431Y0008960D02*
G01X0004442Y0008971D01*
G01X0004442Y0008971D02*
G01X0004457Y0008975D01*
G01X0004457Y0008975D02*
G01X0004467Y0008973D01*
G36*
G01X0006168Y0008886D02*
G01X0006190Y0008873D01*
G01X0006216Y0008851D01*
G01X0006229Y0008837D01*
G01X0006240Y0008821D01*
G01X0006250Y0008802D01*
G01X0006255Y0008787D01*
G01X0006265Y0008763D01*
G01X0006273Y0008748D01*
G01X0006280Y0008739D01*
G01X0006287Y0008736D01*
G01X0006296Y0008736D01*
G01X0006303Y0008738D01*
G01X0006306Y0008743D01*
G01X0006309Y0008754D01*
G01X0006310Y0008768D01*
G01X0006313Y0008788D01*
G01X0006319Y0008806D01*
G01X0006322Y0008811D01*
G01X0006336Y0008826D01*
G01X0006355Y0008839D01*
G01X0006374Y0008847D01*
G01X0006391Y0008849D01*
G01X0006400Y0008847D01*
G01X0006406Y0008843D01*
G01X0006412Y0008834D01*
G01X0006419Y0008819D01*
G01X0006420Y0008815D01*
G01X0006428Y0008797D01*
G01X0006435Y0008786D01*
G01X0006442Y0008781D01*
G01X0006445Y0008781D01*
G01X0006451Y0008780D01*
G01X0006454Y0008783D01*
G01X0006455Y0008791D01*
G01X0006453Y0008806D01*
G01X0006453Y0008808D01*
G01X0006450Y0008833D01*
G01X0006448Y0008850D01*
G01X0006449Y0008860D01*
G01X0006452Y0008865D01*
G01X0006458Y0008867D01*
G01X0006467Y0008868D01*
G01X0006467Y0008868D01*
G01X0006487Y0008868D01*
G01X0006499Y0008778D01*
G01X0006504Y0008744D01*
G01X0006507Y0008717D01*
G01X0006508Y0008696D01*
G01X0006509Y0008678D01*
G01X0006508Y0008661D01*
G01X0006507Y0008642D01*
G01X0006506Y0008638D01*
G01X0006502Y0008609D01*
G01X0006497Y0008589D01*
G01X0006492Y0008576D01*
G01X0006491Y0008575D01*
G01X0006478Y0008565D01*
G01X0006463Y0008561D01*
G01X0006449Y0008564D01*
G01X0006443Y0008569D01*
G01X0006437Y0008580D01*
G01X0006436Y0008592D01*
G01X0006443Y0008607D01*
G01X0006448Y0008615D01*
G01X0006456Y0008628D01*
G01X0006459Y0008640D01*
G01X0006459Y0008656D01*
G01X0006459Y0008663D01*
G01X0006455Y0008682D01*
G01X0006448Y0008699D01*
G01X0006436Y0008717D01*
G01X0006423Y0008734D01*
G01X0006412Y0008752D01*
G01X0006406Y0008763D01*
G01X0006395Y0008780D01*
G01X0006384Y0008787D01*
G01X0006372Y0008786D01*
G01X0006367Y0008782D01*
G01X0006358Y0008775D01*
G01X0006352Y0008766D01*
G01X0006348Y0008752D01*
G01X0006346Y0008733D01*
G01X0006345Y0008706D01*
G01X0006345Y0008690D01*
G01X0006345Y0008665D01*
G01X0006344Y0008647D01*
G01X0006342Y0008635D01*
G01X0006340Y0008628D01*
G01X0006336Y0008623D01*
G01X0006321Y0008615D01*
G01X0006305Y0008616D01*
G01X0006289Y0008626D01*
G01X0006274Y0008644D01*
G01X0006260Y0008670D01*
G01X0006252Y0008690D01*
G01X0006234Y0008736D01*
G01X0006217Y0008773D01*
G01X0006199Y0008800D01*
G01X0006182Y0008817D01*
G01X0006164Y0008826D01*
G01X0006151Y0008827D01*
G01X0006140Y0008819D01*
G01X0006132Y0008806D01*
G01X0006128Y0008796D01*
G01X0006126Y0008783D01*
G01X0006125Y0008767D01*
G01X0006127Y0008744D01*
G01X0006127Y0008740D01*
G01X0006129Y0008715D01*
G01X0006132Y0008691D01*
G01X0006136Y0008670D01*
G01X0006137Y0008665D01*
G01X0006143Y0008638D01*
G01X0006145Y0008619D01*
G01X0006141Y0008605D01*
G01X0006134Y0008598D01*
G01X0006118Y0008591D01*
G01X0006104Y0008593D01*
G01X0006095Y0008599D01*
G01X0006091Y0008603D01*
G01X0006088Y0008609D01*
G01X0006086Y0008618D01*
G01X0006084Y0008632D01*
G01X0006083Y0008653D01*
G01X0006082Y0008678D01*
G01X0006080Y0008717D01*
G01X0006079Y0008747D01*
G01X0006079Y0008771D01*
G01X0006079Y0008788D01*
G01X0006080Y0008802D01*
G01X0006082Y0008813D01*
G01X0006085Y0008822D01*
G01X0006089Y0008832D01*
G01X0006090Y0008834D01*
G01X0006102Y0008855D01*
G01X0006117Y0008873D01*
G01X0006133Y0008885D01*
G01X0006147Y0008890D01*
G01X0006148Y0008890D01*
G01X0006168Y0008886D01*
G01X0006168Y0008886D01*
G37*
G01X0006168Y0008886D02*
G01X0006190Y0008873D01*
G01X0006190Y0008873D02*
G01X0006216Y0008851D01*
G01X0006216Y0008851D02*
G01X0006229Y0008837D01*
G01X0006229Y0008837D02*
G01X0006240Y0008821D01*
G01X0006240Y0008821D02*
G01X0006250Y0008802D01*
G01X0006250Y0008802D02*
G01X0006255Y0008787D01*
G01X0006255Y0008787D02*
G01X0006265Y0008763D01*
G01X0006265Y0008763D02*
G01X0006273Y0008748D01*
G01X0006273Y0008748D02*
G01X0006280Y0008739D01*
G01X0006280Y0008739D02*
G01X0006287Y0008736D01*
G01X0006287Y0008736D02*
G01X0006296Y0008736D01*
G01X0006296Y0008736D02*
G01X0006303Y0008738D01*
G01X0006303Y0008738D02*
G01X0006306Y0008743D01*
G01X0006306Y0008743D02*
G01X0006309Y0008754D01*
G01X0006309Y0008754D02*
G01X0006310Y0008768D01*
G01X0006310Y0008768D02*
G01X0006313Y0008788D01*
G01X0006313Y0008788D02*
G01X0006319Y0008806D01*
G01X0006319Y0008806D02*
G01X0006322Y0008811D01*
G01X0006322Y0008811D02*
G01X0006336Y0008826D01*
G01X0006336Y0008826D02*
G01X0006355Y0008839D01*
G01X0006355Y0008839D02*
G01X0006374Y0008847D01*
G01X0006374Y0008847D02*
G01X0006391Y0008849D01*
G01X0006391Y0008849D02*
G01X0006400Y0008847D01*
G01X0006400Y0008847D02*
G01X0006406Y0008843D01*
G01X0006406Y0008843D02*
G01X0006412Y0008834D01*
G01X0006412Y0008834D02*
G01X0006419Y0008819D01*
G01X0006419Y0008819D02*
G01X0006420Y0008815D01*
G01X0006420Y0008815D02*
G01X0006428Y0008797D01*
G01X0006428Y0008797D02*
G01X0006435Y0008786D01*
G01X0006435Y0008786D02*
G01X0006442Y0008781D01*
G01X0006442Y0008781D02*
G01X0006445Y0008781D01*
G01X0006445Y0008781D02*
G01X0006451Y0008780D01*
G01X0006451Y0008780D02*
G01X0006454Y0008783D01*
G01X0006454Y0008783D02*
G01X0006455Y0008791D01*
G01X0006455Y0008791D02*
G01X0006453Y0008806D01*
G01X0006453Y0008806D02*
G01X0006453Y0008808D01*
G01X0006453Y0008808D02*
G01X0006450Y0008833D01*
G01X0006450Y0008833D02*
G01X0006448Y0008850D01*
G01X0006448Y0008850D02*
G01X0006449Y0008860D01*
G01X0006449Y0008860D02*
G01X0006452Y0008865D01*
G01X0006452Y0008865D02*
G01X0006458Y0008867D01*
G01X0006458Y0008867D02*
G01X0006467Y0008868D01*
G01X0006467Y0008868D02*
G01X0006467Y0008868D01*
G01X0006467Y0008868D02*
G01X0006487Y0008868D01*
G01X0006487Y0008868D02*
G01X0006499Y0008778D01*
G01X0006499Y0008778D02*
G01X0006504Y0008744D01*
G01X0006504Y0008744D02*
G01X0006507Y0008717D01*
G01X0006507Y0008717D02*
G01X0006508Y0008696D01*
G01X0006508Y0008696D02*
G01X0006509Y0008678D01*
G01X0006509Y0008678D02*
G01X0006508Y0008661D01*
G01X0006508Y0008661D02*
G01X0006507Y0008642D01*
G01X0006507Y0008642D02*
G01X0006506Y0008638D01*
G01X0006506Y0008638D02*
G01X0006502Y0008609D01*
G01X0006502Y0008609D02*
G01X0006497Y0008589D01*
G01X0006497Y0008589D02*
G01X0006492Y0008576D01*
G01X0006492Y0008576D02*
G01X0006491Y0008575D01*
G01X0006491Y0008575D02*
G01X0006478Y0008565D01*
G01X0006478Y0008565D02*
G01X0006463Y0008561D01*
G01X0006463Y0008561D02*
G01X0006449Y0008564D01*
G01X0006449Y0008564D02*
G01X0006443Y0008569D01*
G01X0006443Y0008569D02*
G01X0006437Y0008580D01*
G01X0006437Y0008580D02*
G01X0006436Y0008592D01*
G01X0006436Y0008592D02*
G01X0006443Y0008607D01*
G01X0006443Y0008607D02*
G01X0006448Y0008615D01*
G01X0006448Y0008615D02*
G01X0006456Y0008628D01*
G01X0006456Y0008628D02*
G01X0006459Y0008640D01*
G01X0006459Y0008640D02*
G01X0006459Y0008656D01*
G01X0006459Y0008656D02*
G01X0006459Y0008663D01*
G01X0006459Y0008663D02*
G01X0006455Y0008682D01*
G01X0006455Y0008682D02*
G01X0006448Y0008699D01*
G01X0006448Y0008699D02*
G01X0006436Y0008717D01*
G01X0006436Y0008717D02*
G01X0006423Y0008734D01*
G01X0006423Y0008734D02*
G01X0006412Y0008752D01*
G01X0006412Y0008752D02*
G01X0006406Y0008763D01*
G01X0006406Y0008763D02*
G01X0006395Y0008780D01*
G01X0006395Y0008780D02*
G01X0006384Y0008787D01*
G01X0006384Y0008787D02*
G01X0006372Y0008786D01*
G01X0006372Y0008786D02*
G01X0006367Y0008782D01*
G01X0006367Y0008782D02*
G01X0006358Y0008775D01*
G01X0006358Y0008775D02*
G01X0006352Y0008766D01*
G01X0006352Y0008766D02*
G01X0006348Y0008752D01*
G01X0006348Y0008752D02*
G01X0006346Y0008733D01*
G01X0006346Y0008733D02*
G01X0006345Y0008706D01*
G01X0006345Y0008706D02*
G01X0006345Y0008690D01*
G01X0006345Y0008690D02*
G01X0006345Y0008665D01*
G01X0006345Y0008665D02*
G01X0006344Y0008647D01*
G01X0006344Y0008647D02*
G01X0006342Y0008635D01*
G01X0006342Y0008635D02*
G01X0006340Y0008628D01*
G01X0006340Y0008628D02*
G01X0006336Y0008623D01*
G01X0006336Y0008623D02*
G01X0006321Y0008615D01*
G01X0006321Y0008615D02*
G01X0006305Y0008616D01*
G01X0006305Y0008616D02*
G01X0006289Y0008626D01*
G01X0006289Y0008626D02*
G01X0006274Y0008644D01*
G01X0006274Y0008644D02*
G01X0006260Y0008670D01*
G01X0006260Y0008670D02*
G01X0006252Y0008690D01*
G01X0006252Y0008690D02*
G01X0006234Y0008736D01*
G01X0006234Y0008736D02*
G01X0006217Y0008773D01*
G01X0006217Y0008773D02*
G01X0006199Y0008800D01*
G01X0006199Y0008800D02*
G01X0006182Y0008817D01*
G01X0006182Y0008817D02*
G01X0006164Y0008826D01*
G01X0006164Y0008826D02*
G01X0006151Y0008827D01*
G01X0006151Y0008827D02*
G01X0006140Y0008819D01*
G01X0006140Y0008819D02*
G01X0006132Y0008806D01*
G01X0006132Y0008806D02*
G01X0006128Y0008796D01*
G01X0006128Y0008796D02*
G01X0006126Y0008783D01*
G01X0006126Y0008783D02*
G01X0006125Y0008767D01*
G01X0006125Y0008767D02*
G01X0006127Y0008744D01*
G01X0006127Y0008744D02*
G01X0006127Y0008740D01*
G01X0006127Y0008740D02*
G01X0006129Y0008715D01*
G01X0006129Y0008715D02*
G01X0006132Y0008691D01*
G01X0006132Y0008691D02*
G01X0006136Y0008670D01*
G01X0006136Y0008670D02*
G01X0006137Y0008665D01*
G01X0006137Y0008665D02*
G01X0006143Y0008638D01*
G01X0006143Y0008638D02*
G01X0006145Y0008619D01*
G01X0006145Y0008619D02*
G01X0006141Y0008605D01*
G01X0006141Y0008605D02*
G01X0006134Y0008598D01*
G01X0006134Y0008598D02*
G01X0006118Y0008591D01*
G01X0006118Y0008591D02*
G01X0006104Y0008593D01*
G01X0006104Y0008593D02*
G01X0006095Y0008599D01*
G01X0006095Y0008599D02*
G01X0006091Y0008603D01*
G01X0006091Y0008603D02*
G01X0006088Y0008609D01*
G01X0006088Y0008609D02*
G01X0006086Y0008618D01*
G01X0006086Y0008618D02*
G01X0006084Y0008632D01*
G01X0006084Y0008632D02*
G01X0006083Y0008653D01*
G01X0006083Y0008653D02*
G01X0006082Y0008678D01*
G01X0006082Y0008678D02*
G01X0006080Y0008717D01*
G01X0006080Y0008717D02*
G01X0006079Y0008747D01*
G01X0006079Y0008747D02*
G01X0006079Y0008771D01*
G01X0006079Y0008771D02*
G01X0006079Y0008788D01*
G01X0006079Y0008788D02*
G01X0006080Y0008802D01*
G01X0006080Y0008802D02*
G01X0006082Y0008813D01*
G01X0006082Y0008813D02*
G01X0006085Y0008822D01*
G01X0006085Y0008822D02*
G01X0006089Y0008832D01*
G01X0006089Y0008832D02*
G01X0006090Y0008834D01*
G01X0006090Y0008834D02*
G01X0006102Y0008855D01*
G01X0006102Y0008855D02*
G01X0006117Y0008873D01*
G01X0006117Y0008873D02*
G01X0006133Y0008885D01*
G01X0006133Y0008885D02*
G01X0006147Y0008890D01*
G01X0006147Y0008890D02*
G01X0006148Y0008890D01*
G01X0006148Y0008890D02*
G01X0006168Y0008886D01*
G36*
G01X0004250Y0008786D02*
G01X0004270Y0008776D01*
G01X0004290Y0008760D01*
G01X0004308Y0008741D01*
G01X0004323Y0008719D01*
G01X0004333Y0008697D01*
G01X0004334Y0008693D01*
G01X0004337Y0008667D01*
G01X0004332Y0008640D01*
G01X0004322Y0008614D01*
G01X0004307Y0008592D01*
G01X0004288Y0008575D01*
G01X0004273Y0008568D01*
G01X0004261Y0008568D01*
G01X0004248Y0008573D01*
G01X0004247Y0008573D01*
G01X0004236Y0008581D01*
G01X0004221Y0008594D01*
G01X0004206Y0008609D01*
G01X0004205Y0008610D01*
G01X0004192Y0008624D01*
G01X0004182Y0008635D01*
G01X0004176Y0008640D01*
G01X0004175Y0008640D01*
G01X0004171Y0008636D01*
G01X0004166Y0008625D01*
G01X0004163Y0008615D01*
G01X0004156Y0008600D01*
G01X0004149Y0008590D01*
G01X0004137Y0008584D01*
G01X0004136Y0008583D01*
G01X0004120Y0008579D01*
G01X0004100Y0008574D01*
G01X0004089Y0008572D01*
G01X0004073Y0008571D01*
G01X0004064Y0008571D01*
G01X0004060Y0008574D01*
G01X0004057Y0008581D01*
G01X0004055Y0008600D01*
G01X0004059Y0008612D01*
G01X0004070Y0008618D01*
G01X0004075Y0008619D01*
G01X0004100Y0008623D01*
G01X0004118Y0008630D01*
G01X0004130Y0008643D01*
G01X0004138Y0008663D01*
G01X0004140Y0008672D01*
G01X0004148Y0008698D01*
G01X0004158Y0008714D01*
G01X0004168Y0008721D01*
G01X0004180Y0008718D01*
G01X0004192Y0008705D01*
G01X0004198Y0008696D01*
G01X0004216Y0008669D01*
G01X0004232Y0008650D01*
G01X0004248Y0008639D01*
G01X0004262Y0008636D01*
G01X0004273Y0008642D01*
G01X0004281Y0008656D01*
G01X0004283Y0008667D01*
G01X0004282Y0008688D01*
G01X0004273Y0008706D01*
G01X0004257Y0008722D01*
G01X0004236Y0008732D01*
G01X0004216Y0008735D01*
G01X0004210Y0008739D01*
G01X0004204Y0008748D01*
G01X0004201Y0008758D01*
G01X0004204Y0008768D01*
G01X0004208Y0008774D01*
G01X0004222Y0008785D01*
G01X0004233Y0008789D01*
G01X0004250Y0008786D01*
G01X0004250Y0008786D01*
G37*
G01X0004250Y0008786D02*
G01X0004270Y0008776D01*
G01X0004270Y0008776D02*
G01X0004290Y0008760D01*
G01X0004290Y0008760D02*
G01X0004308Y0008741D01*
G01X0004308Y0008741D02*
G01X0004323Y0008719D01*
G01X0004323Y0008719D02*
G01X0004333Y0008697D01*
G01X0004333Y0008697D02*
G01X0004334Y0008693D01*
G01X0004334Y0008693D02*
G01X0004337Y0008667D01*
G01X0004337Y0008667D02*
G01X0004332Y0008640D01*
G01X0004332Y0008640D02*
G01X0004322Y0008614D01*
G01X0004322Y0008614D02*
G01X0004307Y0008592D01*
G01X0004307Y0008592D02*
G01X0004288Y0008575D01*
G01X0004288Y0008575D02*
G01X0004273Y0008568D01*
G01X0004273Y0008568D02*
G01X0004261Y0008568D01*
G01X0004261Y0008568D02*
G01X0004248Y0008573D01*
G01X0004248Y0008573D02*
G01X0004247Y0008573D01*
G01X0004247Y0008573D02*
G01X0004236Y0008581D01*
G01X0004236Y0008581D02*
G01X0004221Y0008594D01*
G01X0004221Y0008594D02*
G01X0004206Y0008609D01*
G01X0004206Y0008609D02*
G01X0004205Y0008610D01*
G01X0004205Y0008610D02*
G01X0004192Y0008624D01*
G01X0004192Y0008624D02*
G01X0004182Y0008635D01*
G01X0004182Y0008635D02*
G01X0004176Y0008640D01*
G01X0004176Y0008640D02*
G01X0004175Y0008640D01*
G01X0004175Y0008640D02*
G01X0004171Y0008636D01*
G01X0004171Y0008636D02*
G01X0004166Y0008625D01*
G01X0004166Y0008625D02*
G01X0004163Y0008615D01*
G01X0004163Y0008615D02*
G01X0004156Y0008600D01*
G01X0004156Y0008600D02*
G01X0004149Y0008590D01*
G01X0004149Y0008590D02*
G01X0004137Y0008584D01*
G01X0004137Y0008584D02*
G01X0004136Y0008583D01*
G01X0004136Y0008583D02*
G01X0004120Y0008579D01*
G01X0004120Y0008579D02*
G01X0004100Y0008574D01*
G01X0004100Y0008574D02*
G01X0004089Y0008572D01*
G01X0004089Y0008572D02*
G01X0004073Y0008571D01*
G01X0004073Y0008571D02*
G01X0004064Y0008571D01*
G01X0004064Y0008571D02*
G01X0004060Y0008574D01*
G01X0004060Y0008574D02*
G01X0004057Y0008581D01*
G01X0004057Y0008581D02*
G01X0004055Y0008600D01*
G01X0004055Y0008600D02*
G01X0004059Y0008612D01*
G01X0004059Y0008612D02*
G01X0004070Y0008618D01*
G01X0004070Y0008618D02*
G01X0004075Y0008619D01*
G01X0004075Y0008619D02*
G01X0004100Y0008623D01*
G01X0004100Y0008623D02*
G01X0004118Y0008630D01*
G01X0004118Y0008630D02*
G01X0004130Y0008643D01*
G01X0004130Y0008643D02*
G01X0004138Y0008663D01*
G01X0004138Y0008663D02*
G01X0004140Y0008672D01*
G01X0004140Y0008672D02*
G01X0004148Y0008698D01*
G01X0004148Y0008698D02*
G01X0004158Y0008714D01*
G01X0004158Y0008714D02*
G01X0004168Y0008721D01*
G01X0004168Y0008721D02*
G01X0004180Y0008718D01*
G01X0004180Y0008718D02*
G01X0004192Y0008705D01*
G01X0004192Y0008705D02*
G01X0004198Y0008696D01*
G01X0004198Y0008696D02*
G01X0004216Y0008669D01*
G01X0004216Y0008669D02*
G01X0004232Y0008650D01*
G01X0004232Y0008650D02*
G01X0004248Y0008639D01*
G01X0004248Y0008639D02*
G01X0004262Y0008636D01*
G01X0004262Y0008636D02*
G01X0004273Y0008642D01*
G01X0004273Y0008642D02*
G01X0004281Y0008656D01*
G01X0004281Y0008656D02*
G01X0004283Y0008667D01*
G01X0004283Y0008667D02*
G01X0004282Y0008688D01*
G01X0004282Y0008688D02*
G01X0004273Y0008706D01*
G01X0004273Y0008706D02*
G01X0004257Y0008722D01*
G01X0004257Y0008722D02*
G01X0004236Y0008732D01*
G01X0004236Y0008732D02*
G01X0004216Y0008735D01*
G01X0004216Y0008735D02*
G01X0004210Y0008739D01*
G01X0004210Y0008739D02*
G01X0004204Y0008748D01*
G01X0004204Y0008748D02*
G01X0004201Y0008758D01*
G01X0004201Y0008758D02*
G01X0004204Y0008768D01*
G01X0004204Y0008768D02*
G01X0004208Y0008774D01*
G01X0004208Y0008774D02*
G01X0004222Y0008785D01*
G01X0004222Y0008785D02*
G01X0004233Y0008789D01*
G01X0004233Y0008789D02*
G01X0004250Y0008786D01*
G36*
G01X0005891Y0008858D02*
G01X0005898Y0008855D01*
G01X0005912Y0008848D01*
G01X0005930Y0008835D01*
G01X0005950Y0008820D01*
G01X0005970Y0008804D01*
G01X0005986Y0008790D01*
G01X0005996Y0008779D01*
G01X0006019Y0008743D01*
G01X0006033Y0008709D01*
G01X0006037Y0008678D01*
G01X0006031Y0008648D01*
G01X0006024Y0008634D01*
G01X0006007Y0008612D01*
G01X0005987Y0008592D01*
G01X0005966Y0008577D01*
G01X0005950Y0008570D01*
G01X0005937Y0008567D01*
G01X0005927Y0008566D01*
G01X0005915Y0008568D01*
G01X0005908Y0008570D01*
G01X0005876Y0008581D01*
G01X0005849Y0008599D01*
G01X0005835Y0008612D01*
G01X0005818Y0008627D01*
G01X0005804Y0008634D01*
G01X0005792Y0008634D01*
G01X0005788Y0008630D01*
G01X0005780Y0008626D01*
G01X0005767Y0008625D01*
G01X0005750Y0008626D01*
G01X0005734Y0008629D01*
G01X0005731Y0008630D01*
G01X0005719Y0008636D01*
G01X0005715Y0008645D01*
G01X0005715Y0008650D01*
G01X0005718Y0008663D01*
G01X0005725Y0008672D01*
G01X0005732Y0008678D01*
G01X0005741Y0008678D01*
G01X0005752Y0008675D01*
G01X0005765Y0008671D01*
G01X0005773Y0008672D01*
G01X0005777Y0008675D01*
G01X0005783Y0008683D01*
G01X0005784Y0008695D01*
G01X0005779Y0008712D01*
G01X0005770Y0008733D01*
G01X0005763Y0008750D01*
G01X0005759Y0008760D01*
G01X0005760Y0008766D01*
G01X0005763Y0008771D01*
G01X0005765Y0008772D01*
G01X0005776Y0008778D01*
G01X0005786Y0008780D01*
G01X0005795Y0008779D01*
G01X0005801Y0008773D01*
G01X0005805Y0008759D01*
G01X0005805Y0008759D01*
G01X0005814Y0008725D01*
G01X0005823Y0008699D01*
G01X0005831Y0008679D01*
G01X0005840Y0008664D01*
G01X0005852Y0008651D01*
G01X0005866Y0008640D01*
G01X0005868Y0008639D01*
G01X0005893Y0008625D01*
G01X0005918Y0008621D01*
G01X0005941Y0008625D01*
G01X0005961Y0008636D01*
G01X0005975Y0008654D01*
G01X0005983Y0008679D01*
G01X0005984Y0008683D01*
G01X0005982Y0008705D01*
G01X0005972Y0008729D01*
G01X0005953Y0008754D01*
G01X0005931Y0008775D01*
G01X0005912Y0008791D01*
G01X0005897Y0008801D01*
G01X0005885Y0008803D01*
G01X0005874Y0008800D01*
G01X0005866Y0008793D01*
G01X0005855Y0008784D01*
G01X0005845Y0008780D01*
G01X0005844Y0008780D01*
G01X0005833Y0008784D01*
G01X0005824Y0008796D01*
G01X0005820Y0008811D01*
G01X0005820Y0008814D01*
G01X0005825Y0008829D01*
G01X0005837Y0008843D01*
G01X0005853Y0008853D01*
G01X0005872Y0008859D01*
G01X0005891Y0008858D01*
G01X0005891Y0008858D01*
G37*
G01X0005891Y0008858D02*
G01X0005898Y0008855D01*
G01X0005898Y0008855D02*
G01X0005912Y0008848D01*
G01X0005912Y0008848D02*
G01X0005930Y0008835D01*
G01X0005930Y0008835D02*
G01X0005950Y0008820D01*
G01X0005950Y0008820D02*
G01X0005970Y0008804D01*
G01X0005970Y0008804D02*
G01X0005986Y0008790D01*
G01X0005986Y0008790D02*
G01X0005996Y0008779D01*
G01X0005996Y0008779D02*
G01X0006019Y0008743D01*
G01X0006019Y0008743D02*
G01X0006033Y0008709D01*
G01X0006033Y0008709D02*
G01X0006037Y0008678D01*
G01X0006037Y0008678D02*
G01X0006031Y0008648D01*
G01X0006031Y0008648D02*
G01X0006024Y0008634D01*
G01X0006024Y0008634D02*
G01X0006007Y0008612D01*
G01X0006007Y0008612D02*
G01X0005987Y0008592D01*
G01X0005987Y0008592D02*
G01X0005966Y0008577D01*
G01X0005966Y0008577D02*
G01X0005950Y0008570D01*
G01X0005950Y0008570D02*
G01X0005937Y0008567D01*
G01X0005937Y0008567D02*
G01X0005927Y0008566D01*
G01X0005927Y0008566D02*
G01X0005915Y0008568D01*
G01X0005915Y0008568D02*
G01X0005908Y0008570D01*
G01X0005908Y0008570D02*
G01X0005876Y0008581D01*
G01X0005876Y0008581D02*
G01X0005849Y0008599D01*
G01X0005849Y0008599D02*
G01X0005835Y0008612D01*
G01X0005835Y0008612D02*
G01X0005818Y0008627D01*
G01X0005818Y0008627D02*
G01X0005804Y0008634D01*
G01X0005804Y0008634D02*
G01X0005792Y0008634D01*
G01X0005792Y0008634D02*
G01X0005788Y0008630D01*
G01X0005788Y0008630D02*
G01X0005780Y0008626D01*
G01X0005780Y0008626D02*
G01X0005767Y0008625D01*
G01X0005767Y0008625D02*
G01X0005750Y0008626D01*
G01X0005750Y0008626D02*
G01X0005734Y0008629D01*
G01X0005734Y0008629D02*
G01X0005731Y0008630D01*
G01X0005731Y0008630D02*
G01X0005719Y0008636D01*
G01X0005719Y0008636D02*
G01X0005715Y0008645D01*
G01X0005715Y0008645D02*
G01X0005715Y0008650D01*
G01X0005715Y0008650D02*
G01X0005718Y0008663D01*
G01X0005718Y0008663D02*
G01X0005725Y0008672D01*
G01X0005725Y0008672D02*
G01X0005732Y0008678D01*
G01X0005732Y0008678D02*
G01X0005741Y0008678D01*
G01X0005741Y0008678D02*
G01X0005752Y0008675D01*
G01X0005752Y0008675D02*
G01X0005765Y0008671D01*
G01X0005765Y0008671D02*
G01X0005773Y0008672D01*
G01X0005773Y0008672D02*
G01X0005777Y0008675D01*
G01X0005777Y0008675D02*
G01X0005783Y0008683D01*
G01X0005783Y0008683D02*
G01X0005784Y0008695D01*
G01X0005784Y0008695D02*
G01X0005779Y0008712D01*
G01X0005779Y0008712D02*
G01X0005770Y0008733D01*
G01X0005770Y0008733D02*
G01X0005763Y0008750D01*
G01X0005763Y0008750D02*
G01X0005759Y0008760D01*
G01X0005759Y0008760D02*
G01X0005760Y0008766D01*
G01X0005760Y0008766D02*
G01X0005763Y0008771D01*
G01X0005763Y0008771D02*
G01X0005765Y0008772D01*
G01X0005765Y0008772D02*
G01X0005776Y0008778D01*
G01X0005776Y0008778D02*
G01X0005786Y0008780D01*
G01X0005786Y0008780D02*
G01X0005795Y0008779D01*
G01X0005795Y0008779D02*
G01X0005801Y0008773D01*
G01X0005801Y0008773D02*
G01X0005805Y0008759D01*
G01X0005805Y0008759D02*
G01X0005805Y0008759D01*
G01X0005805Y0008759D02*
G01X0005814Y0008725D01*
G01X0005814Y0008725D02*
G01X0005823Y0008699D01*
G01X0005823Y0008699D02*
G01X0005831Y0008679D01*
G01X0005831Y0008679D02*
G01X0005840Y0008664D01*
G01X0005840Y0008664D02*
G01X0005852Y0008651D01*
G01X0005852Y0008651D02*
G01X0005866Y0008640D01*
G01X0005866Y0008640D02*
G01X0005868Y0008639D01*
G01X0005868Y0008639D02*
G01X0005893Y0008625D01*
G01X0005893Y0008625D02*
G01X0005918Y0008621D01*
G01X0005918Y0008621D02*
G01X0005941Y0008625D01*
G01X0005941Y0008625D02*
G01X0005961Y0008636D01*
G01X0005961Y0008636D02*
G01X0005975Y0008654D01*
G01X0005975Y0008654D02*
G01X0005983Y0008679D01*
G01X0005983Y0008679D02*
G01X0005984Y0008683D01*
G01X0005984Y0008683D02*
G01X0005982Y0008705D01*
G01X0005982Y0008705D02*
G01X0005972Y0008729D01*
G01X0005972Y0008729D02*
G01X0005953Y0008754D01*
G01X0005953Y0008754D02*
G01X0005931Y0008775D01*
G01X0005931Y0008775D02*
G01X0005912Y0008791D01*
G01X0005912Y0008791D02*
G01X0005897Y0008801D01*
G01X0005897Y0008801D02*
G01X0005885Y0008803D01*
G01X0005885Y0008803D02*
G01X0005874Y0008800D01*
G01X0005874Y0008800D02*
G01X0005866Y0008793D01*
G01X0005866Y0008793D02*
G01X0005855Y0008784D01*
G01X0005855Y0008784D02*
G01X0005845Y0008780D01*
G01X0005845Y0008780D02*
G01X0005844Y0008780D01*
G01X0005844Y0008780D02*
G01X0005833Y0008784D01*
G01X0005833Y0008784D02*
G01X0005824Y0008796D01*
G01X0005824Y0008796D02*
G01X0005820Y0008811D01*
G01X0005820Y0008811D02*
G01X0005820Y0008814D01*
G01X0005820Y0008814D02*
G01X0005825Y0008829D01*
G01X0005825Y0008829D02*
G01X0005837Y0008843D01*
G01X0005837Y0008843D02*
G01X0005853Y0008853D01*
G01X0005853Y0008853D02*
G01X0005872Y0008859D01*
G01X0005872Y0008859D02*
G01X0005891Y0008858D01*
G36*
G01X0005617Y0008824D02*
G01X0005618Y0008798D01*
G01X0005619Y0008766D01*
G01X0005619Y0008731D01*
G01X0005619Y0008696D01*
G01X0005619Y0008683D01*
G01X0005618Y0008652D01*
G01X0005618Y0008629D01*
G01X0005616Y0008613D01*
G01X0005615Y0008603D01*
G01X0005613Y0008598D01*
G01X0005609Y0008595D01*
G01X0005609Y0008595D01*
G01X0005591Y0008590D01*
G01X0005574Y0008595D01*
G01X0005569Y0008600D01*
G01X0005567Y0008610D01*
G01X0005566Y0008626D01*
G01X0005566Y0008631D01*
G01X0005564Y0008661D01*
G01X0005553Y0008691D01*
G01X0005534Y0008722D01*
G01X0005511Y0008750D01*
G01X0005488Y0008772D01*
G01X0005463Y0008786D01*
G01X0005435Y0008793D01*
G01X0005401Y0008794D01*
G01X0005396Y0008794D01*
G01X0005378Y0008794D01*
G01X0005368Y0008794D01*
G01X0005363Y0008797D01*
G01X0005361Y0008802D01*
G01X0005361Y0008803D01*
G01X0005363Y0008820D01*
G01X0005373Y0008832D01*
G01X0005391Y0008840D01*
G01X0005415Y0008842D01*
G01X0005438Y0008840D01*
G01X0005468Y0008834D01*
G01X0005490Y0008826D01*
G01X0005508Y0008813D01*
G01X0005520Y0008799D01*
G01X0005536Y0008781D01*
G01X0005548Y0008771D01*
G01X0005557Y0008770D01*
G01X0005565Y0008777D01*
G01X0005572Y0008794D01*
G01X0005573Y0008798D01*
G01X0005578Y0008816D01*
G01X0005579Y0008830D01*
G01X0005577Y0008844D01*
G01X0005576Y0008848D01*
G01X0005573Y0008862D01*
G01X0005572Y0008873D01*
G01X0005573Y0008875D01*
G01X0005579Y0008878D01*
G01X0005591Y0008880D01*
G01X0005595Y0008880D01*
G01X0005614Y0008880D01*
G01X0005617Y0008824D01*
G01X0005617Y0008824D01*
G37*
G01X0005617Y0008824D02*
G01X0005618Y0008798D01*
G01X0005618Y0008798D02*
G01X0005619Y0008766D01*
G01X0005619Y0008766D02*
G01X0005619Y0008731D01*
G01X0005619Y0008731D02*
G01X0005619Y0008696D01*
G01X0005619Y0008696D02*
G01X0005619Y0008683D01*
G01X0005619Y0008683D02*
G01X0005618Y0008652D01*
G01X0005618Y0008652D02*
G01X0005618Y0008629D01*
G01X0005618Y0008629D02*
G01X0005616Y0008613D01*
G01X0005616Y0008613D02*
G01X0005615Y0008603D01*
G01X0005615Y0008603D02*
G01X0005613Y0008598D01*
G01X0005613Y0008598D02*
G01X0005609Y0008595D01*
G01X0005609Y0008595D02*
G01X0005609Y0008595D01*
G01X0005609Y0008595D02*
G01X0005591Y0008590D01*
G01X0005591Y0008590D02*
G01X0005574Y0008595D01*
G01X0005574Y0008595D02*
G01X0005569Y0008600D01*
G01X0005569Y0008600D02*
G01X0005567Y0008610D01*
G01X0005567Y0008610D02*
G01X0005566Y0008626D01*
G01X0005566Y0008626D02*
G01X0005566Y0008631D01*
G01X0005566Y0008631D02*
G01X0005564Y0008661D01*
G01X0005564Y0008661D02*
G01X0005553Y0008691D01*
G01X0005553Y0008691D02*
G01X0005534Y0008722D01*
G01X0005534Y0008722D02*
G01X0005511Y0008750D01*
G01X0005511Y0008750D02*
G01X0005488Y0008772D01*
G01X0005488Y0008772D02*
G01X0005463Y0008786D01*
G01X0005463Y0008786D02*
G01X0005435Y0008793D01*
G01X0005435Y0008793D02*
G01X0005401Y0008794D01*
G01X0005401Y0008794D02*
G01X0005396Y0008794D01*
G01X0005396Y0008794D02*
G01X0005378Y0008794D01*
G01X0005378Y0008794D02*
G01X0005368Y0008794D01*
G01X0005368Y0008794D02*
G01X0005363Y0008797D01*
G01X0005363Y0008797D02*
G01X0005361Y0008802D01*
G01X0005361Y0008802D02*
G01X0005361Y0008803D01*
G01X0005361Y0008803D02*
G01X0005363Y0008820D01*
G01X0005363Y0008820D02*
G01X0005373Y0008832D01*
G01X0005373Y0008832D02*
G01X0005391Y0008840D01*
G01X0005391Y0008840D02*
G01X0005415Y0008842D01*
G01X0005415Y0008842D02*
G01X0005438Y0008840D01*
G01X0005438Y0008840D02*
G01X0005468Y0008834D01*
G01X0005468Y0008834D02*
G01X0005490Y0008826D01*
G01X0005490Y0008826D02*
G01X0005508Y0008813D01*
G01X0005508Y0008813D02*
G01X0005520Y0008799D01*
G01X0005520Y0008799D02*
G01X0005536Y0008781D01*
G01X0005536Y0008781D02*
G01X0005548Y0008771D01*
G01X0005548Y0008771D02*
G01X0005557Y0008770D01*
G01X0005557Y0008770D02*
G01X0005565Y0008777D01*
G01X0005565Y0008777D02*
G01X0005572Y0008794D01*
G01X0005572Y0008794D02*
G01X0005573Y0008798D01*
G01X0005573Y0008798D02*
G01X0005578Y0008816D01*
G01X0005578Y0008816D02*
G01X0005579Y0008830D01*
G01X0005579Y0008830D02*
G01X0005577Y0008844D01*
G01X0005577Y0008844D02*
G01X0005576Y0008848D01*
G01X0005576Y0008848D02*
G01X0005573Y0008862D01*
G01X0005573Y0008862D02*
G01X0005572Y0008873D01*
G01X0005572Y0008873D02*
G01X0005573Y0008875D01*
G01X0005573Y0008875D02*
G01X0005579Y0008878D01*
G01X0005579Y0008878D02*
G01X0005591Y0008880D01*
G01X0005591Y0008880D02*
G01X0005595Y0008880D01*
G01X0005595Y0008880D02*
G01X0005614Y0008880D01*
G01X0005614Y0008880D02*
G01X0005617Y0008824D01*
G36*
G01X0003942Y0008866D02*
G01X0003956Y0008856D01*
G01X0003969Y0008842D01*
G01X0003980Y0008826D01*
G01X0003983Y0008820D01*
G01X0003989Y0008808D01*
G01X0003994Y0008801D01*
G01X0003996Y0008800D01*
G01X0003998Y0008804D01*
G01X0004000Y0008816D01*
G01X0004001Y0008824D01*
G01X0004003Y0008848D01*
G01X0004048Y0008848D01*
G01X0004046Y0008795D01*
G01X0004044Y0008753D01*
G01X0004041Y0008711D01*
G01X0004036Y0008673D01*
G01X0004032Y0008640D01*
G01X0004030Y0008630D01*
G01X0004023Y0008611D01*
G01X0004015Y0008601D01*
G01X0004002Y0008598D01*
G01X0003997Y0008599D01*
G01X0003985Y0008603D01*
G01X0003979Y0008612D01*
G01X0003978Y0008626D01*
G01X0003980Y0008640D01*
G01X0003984Y0008668D01*
G01X0003985Y0008696D01*
G01X0003984Y0008722D01*
G01X0003980Y0008743D01*
G01X0003977Y0008751D01*
G01X0003968Y0008766D01*
G01X0003957Y0008783D01*
G01X0003944Y0008798D01*
G01X0003934Y0008811D01*
G01X0003926Y0008817D01*
G01X0003925Y0008817D01*
G01X0003914Y0008817D01*
G01X0003902Y0008807D01*
G01X0003889Y0008789D01*
G01X0003877Y0008764D01*
G01X0003877Y0008763D01*
G01X0003869Y0008743D01*
G01X0003865Y0008727D01*
G01X0003863Y0008713D01*
G01X0003863Y0008694D01*
G01X0003863Y0008678D01*
G01X0003864Y0008656D01*
G01X0003863Y0008639D01*
G01X0003862Y0008627D01*
G01X0003861Y0008625D01*
G01X0003852Y0008620D01*
G01X0003839Y0008619D01*
G01X0003826Y0008621D01*
G01X0003819Y0008624D01*
G01X0003815Y0008633D01*
G01X0003813Y0008652D01*
G01X0003813Y0008680D01*
G01X0003813Y0008682D01*
G01X0003813Y0008705D01*
G01X0003814Y0008722D01*
G01X0003817Y0008738D01*
G01X0003823Y0008754D01*
G01X0003831Y0008775D01*
G01X0003834Y0008782D01*
G01X0003844Y0008804D01*
G01X0003854Y0008823D01*
G01X0003862Y0008838D01*
G01X0003866Y0008843D01*
G01X0003878Y0008852D01*
G01X0003895Y0008861D01*
G01X0003914Y0008867D01*
G01X0003930Y0008870D01*
G01X0003931Y0008870D01*
G01X0003942Y0008866D01*
G01X0003942Y0008866D01*
G37*
G01X0003942Y0008866D02*
G01X0003956Y0008856D01*
G01X0003956Y0008856D02*
G01X0003969Y0008842D01*
G01X0003969Y0008842D02*
G01X0003980Y0008826D01*
G01X0003980Y0008826D02*
G01X0003983Y0008820D01*
G01X0003983Y0008820D02*
G01X0003989Y0008808D01*
G01X0003989Y0008808D02*
G01X0003994Y0008801D01*
G01X0003994Y0008801D02*
G01X0003996Y0008800D01*
G01X0003996Y0008800D02*
G01X0003998Y0008804D01*
G01X0003998Y0008804D02*
G01X0004000Y0008816D01*
G01X0004000Y0008816D02*
G01X0004001Y0008824D01*
G01X0004001Y0008824D02*
G01X0004003Y0008848D01*
G01X0004003Y0008848D02*
G01X0004048Y0008848D01*
G01X0004048Y0008848D02*
G01X0004046Y0008795D01*
G01X0004046Y0008795D02*
G01X0004044Y0008753D01*
G01X0004044Y0008753D02*
G01X0004041Y0008711D01*
G01X0004041Y0008711D02*
G01X0004036Y0008673D01*
G01X0004036Y0008673D02*
G01X0004032Y0008640D01*
G01X0004032Y0008640D02*
G01X0004030Y0008630D01*
G01X0004030Y0008630D02*
G01X0004023Y0008611D01*
G01X0004023Y0008611D02*
G01X0004015Y0008601D01*
G01X0004015Y0008601D02*
G01X0004002Y0008598D01*
G01X0004002Y0008598D02*
G01X0003997Y0008599D01*
G01X0003997Y0008599D02*
G01X0003985Y0008603D01*
G01X0003985Y0008603D02*
G01X0003979Y0008612D01*
G01X0003979Y0008612D02*
G01X0003978Y0008626D01*
G01X0003978Y0008626D02*
G01X0003980Y0008640D01*
G01X0003980Y0008640D02*
G01X0003984Y0008668D01*
G01X0003984Y0008668D02*
G01X0003985Y0008696D01*
G01X0003985Y0008696D02*
G01X0003984Y0008722D01*
G01X0003984Y0008722D02*
G01X0003980Y0008743D01*
G01X0003980Y0008743D02*
G01X0003977Y0008751D01*
G01X0003977Y0008751D02*
G01X0003968Y0008766D01*
G01X0003968Y0008766D02*
G01X0003957Y0008783D01*
G01X0003957Y0008783D02*
G01X0003944Y0008798D01*
G01X0003944Y0008798D02*
G01X0003934Y0008811D01*
G01X0003934Y0008811D02*
G01X0003926Y0008817D01*
G01X0003926Y0008817D02*
G01X0003925Y0008817D01*
G01X0003925Y0008817D02*
G01X0003914Y0008817D01*
G01X0003914Y0008817D02*
G01X0003902Y0008807D01*
G01X0003902Y0008807D02*
G01X0003889Y0008789D01*
G01X0003889Y0008789D02*
G01X0003877Y0008764D01*
G01X0003877Y0008764D02*
G01X0003877Y0008763D01*
G01X0003877Y0008763D02*
G01X0003869Y0008743D01*
G01X0003869Y0008743D02*
G01X0003865Y0008727D01*
G01X0003865Y0008727D02*
G01X0003863Y0008713D01*
G01X0003863Y0008713D02*
G01X0003863Y0008694D01*
G01X0003863Y0008694D02*
G01X0003863Y0008678D01*
G01X0003863Y0008678D02*
G01X0003864Y0008656D01*
G01X0003864Y0008656D02*
G01X0003863Y0008639D01*
G01X0003863Y0008639D02*
G01X0003862Y0008627D01*
G01X0003862Y0008627D02*
G01X0003861Y0008625D01*
G01X0003861Y0008625D02*
G01X0003852Y0008620D01*
G01X0003852Y0008620D02*
G01X0003839Y0008619D01*
G01X0003839Y0008619D02*
G01X0003826Y0008621D01*
G01X0003826Y0008621D02*
G01X0003819Y0008624D01*
G01X0003819Y0008624D02*
G01X0003815Y0008633D01*
G01X0003815Y0008633D02*
G01X0003813Y0008652D01*
G01X0003813Y0008652D02*
G01X0003813Y0008680D01*
G01X0003813Y0008680D02*
G01X0003813Y0008682D01*
G01X0003813Y0008682D02*
G01X0003813Y0008705D01*
G01X0003813Y0008705D02*
G01X0003814Y0008722D01*
G01X0003814Y0008722D02*
G01X0003817Y0008738D01*
G01X0003817Y0008738D02*
G01X0003823Y0008754D01*
G01X0003823Y0008754D02*
G01X0003831Y0008775D01*
G01X0003831Y0008775D02*
G01X0003834Y0008782D01*
G01X0003834Y0008782D02*
G01X0003844Y0008804D01*
G01X0003844Y0008804D02*
G01X0003854Y0008823D01*
G01X0003854Y0008823D02*
G01X0003862Y0008838D01*
G01X0003862Y0008838D02*
G01X0003866Y0008843D01*
G01X0003866Y0008843D02*
G01X0003878Y0008852D01*
G01X0003878Y0008852D02*
G01X0003895Y0008861D01*
G01X0003895Y0008861D02*
G01X0003914Y0008867D01*
G01X0003914Y0008867D02*
G01X0003930Y0008870D01*
G01X0003930Y0008870D02*
G01X0003931Y0008870D01*
G01X0003931Y0008870D02*
G01X0003942Y0008866D01*
G36*
G01X0003664Y0009084D02*
G01X0003674Y0009082D01*
G01X0003680Y0009076D01*
G01X0003683Y0009067D01*
G01X0003684Y0009051D01*
G01X0003682Y0009028D01*
G01X0003680Y0009009D01*
G01X0003678Y0008983D01*
G01X0003676Y0008957D01*
G01X0003676Y0008934D01*
G01X0003676Y0008923D01*
G01X0003678Y0008893D01*
G01X0003703Y0008894D01*
G01X0003733Y0008891D01*
G01X0003760Y0008879D01*
G01X0003784Y0008857D01*
G01X0003785Y0008857D01*
G01X0003799Y0008838D01*
G01X0003807Y0008819D01*
G01X0003810Y0008797D01*
G01X0003810Y0008792D01*
G01X0003806Y0008766D01*
G01X0003796Y0008744D01*
G01X0003780Y0008727D01*
G01X0003773Y0008723D01*
G01X0003754Y0008717D01*
G01X0003730Y0008714D01*
G01X0003707Y0008714D01*
G01X0003690Y0008716D01*
G01X0003674Y0008716D01*
G01X0003667Y0008713D01*
G01X0003663Y0008708D01*
G01X0003660Y0008702D01*
G01X0003659Y0008691D01*
G01X0003658Y0008673D01*
G01X0003659Y0008657D01*
G01X0003659Y0008632D01*
G01X0003658Y0008616D01*
G01X0003655Y0008606D01*
G01X0003649Y0008601D01*
G01X0003641Y0008600D01*
G01X0003640Y0008600D01*
G01X0003629Y0008603D01*
G01X0003623Y0008606D01*
G01X0003621Y0008609D01*
G01X0003619Y0008614D01*
G01X0003617Y0008621D01*
G01X0003617Y0008633D01*
G01X0003617Y0008651D01*
G01X0003618Y0008676D01*
G01X0003620Y0008710D01*
G01X0003620Y0008713D01*
G01X0003622Y0008746D01*
G01X0003623Y0008779D01*
G01X0003625Y0008805D01*
G01X0003657Y0008805D01*
G01X0003659Y0008784D01*
G01X0003665Y0008768D01*
G01X0003667Y0008765D01*
G01X0003674Y0008759D01*
G01X0003682Y0008756D01*
G01X0003694Y0008756D01*
G01X0003707Y0008757D01*
G01X0003726Y0008760D01*
G01X0003741Y0008764D01*
G01X0003748Y0008768D01*
G01X0003758Y0008777D01*
G01X0003762Y0008785D01*
G01X0003762Y0008799D01*
G01X0003754Y0008815D01*
G01X0003741Y0008830D01*
G01X0003724Y0008843D01*
G01X0003705Y0008852D01*
G01X0003696Y0008853D01*
G01X0003682Y0008854D01*
G01X0003674Y0008851D01*
G01X0003667Y0008842D01*
G01X0003667Y0008842D01*
G01X0003660Y0008825D01*
G01X0003657Y0008805D01*
G01X0003625Y0008805D01*
G01X0003625Y0008809D01*
G01X0003627Y0008833D01*
G01X0003628Y0008850D01*
G01X0003629Y0008867D01*
G01X0003630Y0008892D01*
G01X0003632Y0008922D01*
G01X0003633Y0008955D01*
G01X0003634Y0008981D01*
G01X0003635Y0009016D01*
G01X0003637Y0009043D01*
G01X0003639Y0009061D01*
G01X0003642Y0009073D01*
G01X0003646Y0009081D01*
G01X0003651Y0009084D01*
G01X0003659Y0009084D01*
G01X0003664Y0009084D01*
G01X0003664Y0009084D01*
G37*
G01X0003664Y0009084D02*
G01X0003674Y0009082D01*
G01X0003674Y0009082D02*
G01X0003680Y0009076D01*
G01X0003680Y0009076D02*
G01X0003683Y0009067D01*
G01X0003683Y0009067D02*
G01X0003684Y0009051D01*
G01X0003684Y0009051D02*
G01X0003682Y0009028D01*
G01X0003682Y0009028D02*
G01X0003680Y0009009D01*
G01X0003680Y0009009D02*
G01X0003678Y0008983D01*
G01X0003678Y0008983D02*
G01X0003676Y0008957D01*
G01X0003676Y0008957D02*
G01X0003676Y0008934D01*
G01X0003676Y0008934D02*
G01X0003676Y0008923D01*
G01X0003676Y0008923D02*
G01X0003678Y0008893D01*
G01X0003678Y0008893D02*
G01X0003703Y0008894D01*
G01X0003703Y0008894D02*
G01X0003733Y0008891D01*
G01X0003733Y0008891D02*
G01X0003760Y0008879D01*
G01X0003760Y0008879D02*
G01X0003784Y0008857D01*
G01X0003784Y0008857D02*
G01X0003785Y0008857D01*
G01X0003785Y0008857D02*
G01X0003799Y0008838D01*
G01X0003799Y0008838D02*
G01X0003807Y0008819D01*
G01X0003807Y0008819D02*
G01X0003810Y0008797D01*
G01X0003810Y0008797D02*
G01X0003810Y0008792D01*
G01X0003810Y0008792D02*
G01X0003806Y0008766D01*
G01X0003806Y0008766D02*
G01X0003796Y0008744D01*
G01X0003796Y0008744D02*
G01X0003780Y0008727D01*
G01X0003780Y0008727D02*
G01X0003773Y0008723D01*
G01X0003773Y0008723D02*
G01X0003754Y0008717D01*
G01X0003754Y0008717D02*
G01X0003730Y0008714D01*
G01X0003730Y0008714D02*
G01X0003707Y0008714D01*
G01X0003707Y0008714D02*
G01X0003690Y0008716D01*
G01X0003690Y0008716D02*
G01X0003674Y0008716D01*
G01X0003674Y0008716D02*
G01X0003667Y0008713D01*
G01X0003667Y0008713D02*
G01X0003663Y0008708D01*
G01X0003663Y0008708D02*
G01X0003660Y0008702D01*
G01X0003660Y0008702D02*
G01X0003659Y0008691D01*
G01X0003659Y0008691D02*
G01X0003658Y0008673D01*
G01X0003658Y0008673D02*
G01X0003659Y0008657D01*
G01X0003659Y0008657D02*
G01X0003659Y0008632D01*
G01X0003659Y0008632D02*
G01X0003658Y0008616D01*
G01X0003658Y0008616D02*
G01X0003655Y0008606D01*
G01X0003655Y0008606D02*
G01X0003649Y0008601D01*
G01X0003649Y0008601D02*
G01X0003641Y0008600D01*
G01X0003641Y0008600D02*
G01X0003640Y0008600D01*
G01X0003640Y0008600D02*
G01X0003629Y0008603D01*
G01X0003629Y0008603D02*
G01X0003623Y0008606D01*
G01X0003623Y0008606D02*
G01X0003621Y0008609D01*
G01X0003621Y0008609D02*
G01X0003619Y0008614D01*
G01X0003619Y0008614D02*
G01X0003617Y0008621D01*
G01X0003617Y0008621D02*
G01X0003617Y0008633D01*
G01X0003617Y0008633D02*
G01X0003617Y0008651D01*
G01X0003617Y0008651D02*
G01X0003618Y0008676D01*
G01X0003618Y0008676D02*
G01X0003620Y0008710D01*
G01X0003620Y0008710D02*
G01X0003620Y0008713D01*
G01X0003620Y0008713D02*
G01X0003622Y0008746D01*
G01X0003622Y0008746D02*
G01X0003623Y0008779D01*
G01X0003623Y0008779D02*
G01X0003625Y0008805D01*
G01X0003625Y0008805D02*
G01X0003657Y0008805D01*
G01X0003657Y0008805D02*
G01X0003659Y0008784D01*
G01X0003659Y0008784D02*
G01X0003665Y0008768D01*
G01X0003665Y0008768D02*
G01X0003667Y0008765D01*
G01X0003667Y0008765D02*
G01X0003674Y0008759D01*
G01X0003674Y0008759D02*
G01X0003682Y0008756D01*
G01X0003682Y0008756D02*
G01X0003694Y0008756D01*
G01X0003694Y0008756D02*
G01X0003707Y0008757D01*
G01X0003707Y0008757D02*
G01X0003726Y0008760D01*
G01X0003726Y0008760D02*
G01X0003741Y0008764D01*
G01X0003741Y0008764D02*
G01X0003748Y0008768D01*
G01X0003748Y0008768D02*
G01X0003758Y0008777D01*
G01X0003758Y0008777D02*
G01X0003762Y0008785D01*
G01X0003762Y0008785D02*
G01X0003762Y0008799D01*
G01X0003762Y0008799D02*
G01X0003754Y0008815D01*
G01X0003754Y0008815D02*
G01X0003741Y0008830D01*
G01X0003741Y0008830D02*
G01X0003724Y0008843D01*
G01X0003724Y0008843D02*
G01X0003705Y0008852D01*
G01X0003705Y0008852D02*
G01X0003696Y0008853D01*
G01X0003696Y0008853D02*
G01X0003682Y0008854D01*
G01X0003682Y0008854D02*
G01X0003674Y0008851D01*
G01X0003674Y0008851D02*
G01X0003667Y0008842D01*
G01X0003667Y0008842D02*
G01X0003667Y0008842D01*
G01X0003667Y0008842D02*
G01X0003660Y0008825D01*
G01X0003660Y0008825D02*
G01X0003657Y0008805D01*
G01X0003657Y0008805D02*
G01X0003625Y0008805D01*
G01X0003625Y0008805D02*
G01X0003625Y0008809D01*
G01X0003625Y0008809D02*
G01X0003627Y0008833D01*
G01X0003627Y0008833D02*
G01X0003628Y0008850D01*
G01X0003628Y0008850D02*
G01X0003629Y0008867D01*
G01X0003629Y0008867D02*
G01X0003630Y0008892D01*
G01X0003630Y0008892D02*
G01X0003632Y0008922D01*
G01X0003632Y0008922D02*
G01X0003633Y0008955D01*
G01X0003633Y0008955D02*
G01X0003634Y0008981D01*
G01X0003634Y0008981D02*
G01X0003635Y0009016D01*
G01X0003635Y0009016D02*
G01X0003637Y0009043D01*
G01X0003637Y0009043D02*
G01X0003639Y0009061D01*
G01X0003639Y0009061D02*
G01X0003642Y0009073D01*
G01X0003642Y0009073D02*
G01X0003646Y0009081D01*
G01X0003646Y0009081D02*
G01X0003651Y0009084D01*
G01X0003651Y0009084D02*
G01X0003659Y0009084D01*
G01X0003659Y0009084D02*
G01X0003664Y0009084D01*
G36*
G01X0007031Y0009614D02*
G01X0007047Y0009610D01*
G01X0007057Y0009604D01*
G01X0007064Y0009592D01*
G01X0007068Y0009574D01*
G01X0007069Y0009569D01*
G01X0007072Y0009550D01*
G01X0007075Y0009523D01*
G01X0007077Y0009490D01*
G01X0007080Y0009451D01*
G01X0007083Y0009409D01*
G01X0007085Y0009363D01*
G01X0007087Y0009316D01*
G01X0007089Y0009268D01*
G01X0007091Y0009220D01*
G01X0007093Y0009174D01*
G01X0007094Y0009131D01*
G01X0007095Y0009092D01*
G01X0007095Y0009058D01*
G01X0007095Y0009031D01*
G01X0007094Y0009011D01*
G01X0007093Y0008999D01*
G01X0007093Y0008998D01*
G01X0007084Y0008984D01*
G01X0007069Y0008972D01*
G01X0007051Y0008964D01*
G01X0007033Y0008961D01*
G01X0007017Y0008963D01*
G01X0007008Y0008969D01*
G01X0007005Y0008973D01*
G01X0007003Y0008978D01*
G01X0007001Y0008984D01*
G01X0006999Y0008994D01*
G01X0006998Y0009007D01*
G01X0006996Y0009024D01*
G01X0006995Y0009047D01*
G01X0006994Y0009076D01*
G01X0006993Y0009112D01*
G01X0006992Y0009156D01*
G01X0006990Y0009209D01*
G01X0006990Y0009235D01*
G01X0006988Y0009298D01*
G01X0006986Y0009354D01*
G01X0006984Y0009401D01*
G01X0006982Y0009440D01*
G01X0006980Y0009470D01*
G01X0006978Y0009490D01*
G01X0006978Y0009490D01*
G01X0006974Y0009513D01*
G01X0006973Y0009530D01*
G01X0006973Y0009543D01*
G01X0006976Y0009556D01*
G01X0006978Y0009564D01*
G01X0006985Y0009582D01*
G01X0006993Y0009598D01*
G01X0006998Y0009604D01*
G01X0007009Y0009612D01*
G01X0007020Y0009614D01*
G01X0007031Y0009614D01*
G01X0007031Y0009614D01*
G37*
G01X0007031Y0009614D02*
G01X0007047Y0009610D01*
G01X0007047Y0009610D02*
G01X0007057Y0009604D01*
G01X0007057Y0009604D02*
G01X0007064Y0009592D01*
G01X0007064Y0009592D02*
G01X0007068Y0009574D01*
G01X0007068Y0009574D02*
G01X0007069Y0009569D01*
G01X0007069Y0009569D02*
G01X0007072Y0009550D01*
G01X0007072Y0009550D02*
G01X0007075Y0009523D01*
G01X0007075Y0009523D02*
G01X0007077Y0009490D01*
G01X0007077Y0009490D02*
G01X0007080Y0009451D01*
G01X0007080Y0009451D02*
G01X0007083Y0009409D01*
G01X0007083Y0009409D02*
G01X0007085Y0009363D01*
G01X0007085Y0009363D02*
G01X0007087Y0009316D01*
G01X0007087Y0009316D02*
G01X0007089Y0009268D01*
G01X0007089Y0009268D02*
G01X0007091Y0009220D01*
G01X0007091Y0009220D02*
G01X0007093Y0009174D01*
G01X0007093Y0009174D02*
G01X0007094Y0009131D01*
G01X0007094Y0009131D02*
G01X0007095Y0009092D01*
G01X0007095Y0009092D02*
G01X0007095Y0009058D01*
G01X0007095Y0009058D02*
G01X0007095Y0009031D01*
G01X0007095Y0009031D02*
G01X0007094Y0009011D01*
G01X0007094Y0009011D02*
G01X0007093Y0008999D01*
G01X0007093Y0008999D02*
G01X0007093Y0008998D01*
G01X0007093Y0008998D02*
G01X0007084Y0008984D01*
G01X0007084Y0008984D02*
G01X0007069Y0008972D01*
G01X0007069Y0008972D02*
G01X0007051Y0008964D01*
G01X0007051Y0008964D02*
G01X0007033Y0008961D01*
G01X0007033Y0008961D02*
G01X0007017Y0008963D01*
G01X0007017Y0008963D02*
G01X0007008Y0008969D01*
G01X0007008Y0008969D02*
G01X0007005Y0008973D01*
G01X0007005Y0008973D02*
G01X0007003Y0008978D01*
G01X0007003Y0008978D02*
G01X0007001Y0008984D01*
G01X0007001Y0008984D02*
G01X0006999Y0008994D01*
G01X0006999Y0008994D02*
G01X0006998Y0009007D01*
G01X0006998Y0009007D02*
G01X0006996Y0009024D01*
G01X0006996Y0009024D02*
G01X0006995Y0009047D01*
G01X0006995Y0009047D02*
G01X0006994Y0009076D01*
G01X0006994Y0009076D02*
G01X0006993Y0009112D01*
G01X0006993Y0009112D02*
G01X0006992Y0009156D01*
G01X0006992Y0009156D02*
G01X0006990Y0009209D01*
G01X0006990Y0009209D02*
G01X0006990Y0009235D01*
G01X0006990Y0009235D02*
G01X0006988Y0009298D01*
G01X0006988Y0009298D02*
G01X0006986Y0009354D01*
G01X0006986Y0009354D02*
G01X0006984Y0009401D01*
G01X0006984Y0009401D02*
G01X0006982Y0009440D01*
G01X0006982Y0009440D02*
G01X0006980Y0009470D01*
G01X0006980Y0009470D02*
G01X0006978Y0009490D01*
G01X0006978Y0009490D02*
G01X0006978Y0009490D01*
G01X0006978Y0009490D02*
G01X0006974Y0009513D01*
G01X0006974Y0009513D02*
G01X0006973Y0009530D01*
G01X0006973Y0009530D02*
G01X0006973Y0009543D01*
G01X0006973Y0009543D02*
G01X0006976Y0009556D01*
G01X0006976Y0009556D02*
G01X0006978Y0009564D01*
G01X0006978Y0009564D02*
G01X0006985Y0009582D01*
G01X0006985Y0009582D02*
G01X0006993Y0009598D01*
G01X0006993Y0009598D02*
G01X0006998Y0009604D01*
G01X0006998Y0009604D02*
G01X0007009Y0009612D01*
G01X0007009Y0009612D02*
G01X0007020Y0009614D01*
G01X0007020Y0009614D02*
G01X0007031Y0009614D01*
G36*
G01X0006387Y0010187D02*
G01X0006403Y0010177D01*
G01X0006414Y0010165D01*
G01X0006419Y0010158D01*
G01X0006422Y0010151D01*
G01X0006424Y0010142D01*
G01X0006425Y0010130D01*
G01X0006424Y0010112D01*
G01X0006423Y0010086D01*
G01X0006423Y0010078D01*
G01X0006421Y0010044D01*
G01X0006418Y0010005D01*
G01X0006414Y0009966D01*
G01X0006410Y0009938D01*
G01X0006406Y0009904D01*
G01X0006402Y0009864D01*
G01X0006399Y0009820D01*
G01X0006397Y0009776D01*
G01X0006397Y0009766D01*
G01X0006394Y0009665D01*
G01X0006414Y0009645D01*
G01X0006423Y0009638D01*
G01X0006432Y0009631D01*
G01X0006445Y0009625D01*
G01X0006461Y0009618D01*
G01X0006484Y0009610D01*
G01X0006514Y0009600D01*
G01X0006521Y0009598D01*
G01X0006585Y0009575D01*
G01X0006641Y0009550D01*
G01X0006686Y0009525D01*
G01X0006722Y0009498D01*
G01X0006748Y0009470D01*
G01X0006765Y0009442D01*
G01X0006768Y0009433D01*
G01X0006774Y0009398D01*
G01X0006770Y0009365D01*
G01X0006757Y0009335D01*
G01X0006734Y0009306D01*
G01X0006728Y0009301D01*
G01X0006704Y0009281D01*
G01X0006681Y0009268D01*
G01X0006656Y0009262D01*
G01X0006631Y0009260D01*
G01X0006582Y0009264D01*
G01X0006532Y0009275D01*
G01X0006491Y0009289D01*
G01X0006471Y0009297D01*
G01X0006449Y0009305D01*
G01X0006428Y0009312D01*
G01X0006410Y0009317D01*
G01X0006398Y0009320D01*
G01X0006396Y0009320D01*
G01X0006394Y0009315D01*
G01X0006392Y0009303D01*
G01X0006390Y0009285D01*
G01X0006388Y0009271D01*
G01X0006387Y0009247D01*
G01X0006384Y0009217D01*
G01X0006381Y0009184D01*
G01X0006377Y0009153D01*
G01X0006377Y0009150D01*
G01X0006372Y0009117D01*
G01X0006368Y0009092D01*
G01X0006363Y0009075D01*
G01X0006356Y0009064D01*
G01X0006347Y0009058D01*
G01X0006335Y0009055D01*
G01X0006325Y0009055D01*
G01X0006311Y0009056D01*
G01X0006302Y0009062D01*
G01X0006295Y0009071D01*
G01X0006290Y0009081D01*
G01X0006287Y0009092D01*
G01X0006286Y0009106D01*
G01X0006286Y0009125D01*
G01X0006287Y0009150D01*
G01X0006290Y0009182D01*
G01X0006294Y0009222D01*
G01X0006295Y0009230D01*
G01X0006299Y0009259D01*
G01X0006301Y0009285D01*
G01X0006303Y0009310D01*
G01X0006304Y0009335D01*
G01X0006304Y0009363D01*
G01X0006303Y0009397D01*
G01X0006302Y0009437D01*
G01X0006302Y0009446D01*
G01X0006301Y0009494D01*
G01X0006383Y0009494D01*
G01X0006383Y0009482D01*
G01X0006383Y0009455D01*
G01X0006385Y0009435D01*
G01X0006390Y0009421D01*
G01X0006398Y0009410D01*
G01X0006411Y0009401D01*
G01X0006431Y0009391D01*
G01X0006437Y0009387D01*
G01X0006467Y0009374D01*
G01X0006495Y0009365D01*
G01X0006522Y0009359D01*
G01X0006554Y0009356D01*
G01X0006589Y0009355D01*
G01X0006615Y0009355D01*
G01X0006633Y0009356D01*
G01X0006645Y0009357D01*
G01X0006652Y0009359D01*
G01X0006658Y0009363D01*
G01X0006663Y0009367D01*
G01X0006672Y0009383D01*
G01X0006674Y0009403D01*
G01X0006669Y0009425D01*
G01X0006657Y0009447D01*
G01X0006638Y0009467D01*
G01X0006625Y0009477D01*
G01X0006610Y0009486D01*
G01X0006592Y0009496D01*
G01X0006572Y0009505D01*
G01X0006555Y0009511D01*
G01X0006542Y0009515D01*
G01X0006540Y0009515D01*
G01X0006533Y0009516D01*
G01X0006518Y0009520D01*
G01X0006497Y0009526D01*
G01X0006473Y0009534D01*
G01X0006466Y0009536D01*
G01X0006436Y0009545D01*
G01X0006414Y0009551D01*
G01X0006399Y0009552D01*
G01X0006390Y0009548D01*
G01X0006385Y0009537D01*
G01X0006383Y0009520D01*
G01X0006383Y0009494D01*
G01X0006301Y0009494D01*
G01X0006299Y0009574D01*
G01X0006279Y0009592D01*
G01X0006267Y0009604D01*
G01X0006262Y0009614D01*
G01X0006260Y0009627D01*
G01X0006260Y0009630D01*
G01X0006262Y0009645D01*
G01X0006268Y0009657D01*
G01X0006276Y0009665D01*
G01X0006287Y0009674D01*
G01X0006294Y0009679D01*
G01X0006296Y0009680D01*
G01X0006298Y0009681D01*
G01X0006301Y0009686D01*
G01X0006303Y0009695D01*
G01X0006304Y0009710D01*
G01X0006306Y0009730D01*
G01X0006307Y0009758D01*
G01X0006309Y0009795D01*
G01X0006310Y0009833D01*
G01X0006312Y0009872D01*
G01X0006314Y0009911D01*
G01X0006316Y0009947D01*
G01X0006318Y0009979D01*
G01X0006321Y0010005D01*
G01X0006322Y0010019D01*
G01X0006326Y0010047D01*
G01X0006330Y0010078D01*
G01X0006333Y0010106D01*
G01X0006333Y0010113D01*
G01X0006335Y0010135D01*
G01X0006339Y0010155D01*
G01X0006342Y0010168D01*
G01X0006343Y0010171D01*
G01X0006355Y0010184D01*
G01X0006370Y0010189D01*
G01X0006387Y0010187D01*
G01X0006387Y0010187D01*
G37*
G01X0006387Y0010187D02*
G01X0006403Y0010177D01*
G01X0006403Y0010177D02*
G01X0006414Y0010165D01*
G01X0006414Y0010165D02*
G01X0006419Y0010158D01*
G01X0006419Y0010158D02*
G01X0006422Y0010151D01*
G01X0006422Y0010151D02*
G01X0006424Y0010142D01*
G01X0006424Y0010142D02*
G01X0006425Y0010130D01*
G01X0006425Y0010130D02*
G01X0006424Y0010112D01*
G01X0006424Y0010112D02*
G01X0006423Y0010086D01*
G01X0006423Y0010086D02*
G01X0006423Y0010078D01*
G01X0006423Y0010078D02*
G01X0006421Y0010044D01*
G01X0006421Y0010044D02*
G01X0006418Y0010005D01*
G01X0006418Y0010005D02*
G01X0006414Y0009966D01*
G01X0006414Y0009966D02*
G01X0006410Y0009938D01*
G01X0006410Y0009938D02*
G01X0006406Y0009904D01*
G01X0006406Y0009904D02*
G01X0006402Y0009864D01*
G01X0006402Y0009864D02*
G01X0006399Y0009820D01*
G01X0006399Y0009820D02*
G01X0006397Y0009776D01*
G01X0006397Y0009776D02*
G01X0006397Y0009766D01*
G01X0006397Y0009766D02*
G01X0006394Y0009665D01*
G01X0006394Y0009665D02*
G01X0006414Y0009645D01*
G01X0006414Y0009645D02*
G01X0006423Y0009638D01*
G01X0006423Y0009638D02*
G01X0006432Y0009631D01*
G01X0006432Y0009631D02*
G01X0006445Y0009625D01*
G01X0006445Y0009625D02*
G01X0006461Y0009618D01*
G01X0006461Y0009618D02*
G01X0006484Y0009610D01*
G01X0006484Y0009610D02*
G01X0006514Y0009600D01*
G01X0006514Y0009600D02*
G01X0006521Y0009598D01*
G01X0006521Y0009598D02*
G01X0006585Y0009575D01*
G01X0006585Y0009575D02*
G01X0006641Y0009550D01*
G01X0006641Y0009550D02*
G01X0006686Y0009525D01*
G01X0006686Y0009525D02*
G01X0006722Y0009498D01*
G01X0006722Y0009498D02*
G01X0006748Y0009470D01*
G01X0006748Y0009470D02*
G01X0006765Y0009442D01*
G01X0006765Y0009442D02*
G01X0006768Y0009433D01*
G01X0006768Y0009433D02*
G01X0006774Y0009398D01*
G01X0006774Y0009398D02*
G01X0006770Y0009365D01*
G01X0006770Y0009365D02*
G01X0006757Y0009335D01*
G01X0006757Y0009335D02*
G01X0006734Y0009306D01*
G01X0006734Y0009306D02*
G01X0006728Y0009301D01*
G01X0006728Y0009301D02*
G01X0006704Y0009281D01*
G01X0006704Y0009281D02*
G01X0006681Y0009268D01*
G01X0006681Y0009268D02*
G01X0006656Y0009262D01*
G01X0006656Y0009262D02*
G01X0006631Y0009260D01*
G01X0006631Y0009260D02*
G01X0006582Y0009264D01*
G01X0006582Y0009264D02*
G01X0006532Y0009275D01*
G01X0006532Y0009275D02*
G01X0006491Y0009289D01*
G01X0006491Y0009289D02*
G01X0006471Y0009297D01*
G01X0006471Y0009297D02*
G01X0006449Y0009305D01*
G01X0006449Y0009305D02*
G01X0006428Y0009312D01*
G01X0006428Y0009312D02*
G01X0006410Y0009317D01*
G01X0006410Y0009317D02*
G01X0006398Y0009320D01*
G01X0006398Y0009320D02*
G01X0006396Y0009320D01*
G01X0006396Y0009320D02*
G01X0006394Y0009315D01*
G01X0006394Y0009315D02*
G01X0006392Y0009303D01*
G01X0006392Y0009303D02*
G01X0006390Y0009285D01*
G01X0006390Y0009285D02*
G01X0006388Y0009271D01*
G01X0006388Y0009271D02*
G01X0006387Y0009247D01*
G01X0006387Y0009247D02*
G01X0006384Y0009217D01*
G01X0006384Y0009217D02*
G01X0006381Y0009184D01*
G01X0006381Y0009184D02*
G01X0006377Y0009153D01*
G01X0006377Y0009153D02*
G01X0006377Y0009150D01*
G01X0006377Y0009150D02*
G01X0006372Y0009117D01*
G01X0006372Y0009117D02*
G01X0006368Y0009092D01*
G01X0006368Y0009092D02*
G01X0006363Y0009075D01*
G01X0006363Y0009075D02*
G01X0006356Y0009064D01*
G01X0006356Y0009064D02*
G01X0006347Y0009058D01*
G01X0006347Y0009058D02*
G01X0006335Y0009055D01*
G01X0006335Y0009055D02*
G01X0006325Y0009055D01*
G01X0006325Y0009055D02*
G01X0006311Y0009056D01*
G01X0006311Y0009056D02*
G01X0006302Y0009062D01*
G01X0006302Y0009062D02*
G01X0006295Y0009071D01*
G01X0006295Y0009071D02*
G01X0006290Y0009081D01*
G01X0006290Y0009081D02*
G01X0006287Y0009092D01*
G01X0006287Y0009092D02*
G01X0006286Y0009106D01*
G01X0006286Y0009106D02*
G01X0006286Y0009125D01*
G01X0006286Y0009125D02*
G01X0006287Y0009150D01*
G01X0006287Y0009150D02*
G01X0006290Y0009182D01*
G01X0006290Y0009182D02*
G01X0006294Y0009222D01*
G01X0006294Y0009222D02*
G01X0006295Y0009230D01*
G01X0006295Y0009230D02*
G01X0006299Y0009259D01*
G01X0006299Y0009259D02*
G01X0006301Y0009285D01*
G01X0006301Y0009285D02*
G01X0006303Y0009310D01*
G01X0006303Y0009310D02*
G01X0006304Y0009335D01*
G01X0006304Y0009335D02*
G01X0006304Y0009363D01*
G01X0006304Y0009363D02*
G01X0006303Y0009397D01*
G01X0006303Y0009397D02*
G01X0006302Y0009437D01*
G01X0006302Y0009437D02*
G01X0006302Y0009446D01*
G01X0006302Y0009446D02*
G01X0006301Y0009494D01*
G01X0006301Y0009494D02*
G01X0006383Y0009494D01*
G01X0006383Y0009494D02*
G01X0006383Y0009482D01*
G01X0006383Y0009482D02*
G01X0006383Y0009455D01*
G01X0006383Y0009455D02*
G01X0006385Y0009435D01*
G01X0006385Y0009435D02*
G01X0006390Y0009421D01*
G01X0006390Y0009421D02*
G01X0006398Y0009410D01*
G01X0006398Y0009410D02*
G01X0006411Y0009401D01*
G01X0006411Y0009401D02*
G01X0006431Y0009391D01*
G01X0006431Y0009391D02*
G01X0006437Y0009387D01*
G01X0006437Y0009387D02*
G01X0006467Y0009374D01*
G01X0006467Y0009374D02*
G01X0006495Y0009365D01*
G01X0006495Y0009365D02*
G01X0006522Y0009359D01*
G01X0006522Y0009359D02*
G01X0006554Y0009356D01*
G01X0006554Y0009356D02*
G01X0006589Y0009355D01*
G01X0006589Y0009355D02*
G01X0006615Y0009355D01*
G01X0006615Y0009355D02*
G01X0006633Y0009356D01*
G01X0006633Y0009356D02*
G01X0006645Y0009357D01*
G01X0006645Y0009357D02*
G01X0006652Y0009359D01*
G01X0006652Y0009359D02*
G01X0006658Y0009363D01*
G01X0006658Y0009363D02*
G01X0006663Y0009367D01*
G01X0006663Y0009367D02*
G01X0006672Y0009383D01*
G01X0006672Y0009383D02*
G01X0006674Y0009403D01*
G01X0006674Y0009403D02*
G01X0006669Y0009425D01*
G01X0006669Y0009425D02*
G01X0006657Y0009447D01*
G01X0006657Y0009447D02*
G01X0006638Y0009467D01*
G01X0006638Y0009467D02*
G01X0006625Y0009477D01*
G01X0006625Y0009477D02*
G01X0006610Y0009486D01*
G01X0006610Y0009486D02*
G01X0006592Y0009496D01*
G01X0006592Y0009496D02*
G01X0006572Y0009505D01*
G01X0006572Y0009505D02*
G01X0006555Y0009511D01*
G01X0006555Y0009511D02*
G01X0006542Y0009515D01*
G01X0006542Y0009515D02*
G01X0006540Y0009515D01*
G01X0006540Y0009515D02*
G01X0006533Y0009516D01*
G01X0006533Y0009516D02*
G01X0006518Y0009520D01*
G01X0006518Y0009520D02*
G01X0006497Y0009526D01*
G01X0006497Y0009526D02*
G01X0006473Y0009534D01*
G01X0006473Y0009534D02*
G01X0006466Y0009536D01*
G01X0006466Y0009536D02*
G01X0006436Y0009545D01*
G01X0006436Y0009545D02*
G01X0006414Y0009551D01*
G01X0006414Y0009551D02*
G01X0006399Y0009552D01*
G01X0006399Y0009552D02*
G01X0006390Y0009548D01*
G01X0006390Y0009548D02*
G01X0006385Y0009537D01*
G01X0006385Y0009537D02*
G01X0006383Y0009520D01*
G01X0006383Y0009520D02*
G01X0006383Y0009494D01*
G01X0006383Y0009494D02*
G01X0006301Y0009494D01*
G01X0006301Y0009494D02*
G01X0006299Y0009574D01*
G01X0006299Y0009574D02*
G01X0006279Y0009592D01*
G01X0006279Y0009592D02*
G01X0006267Y0009604D01*
G01X0006267Y0009604D02*
G01X0006262Y0009614D01*
G01X0006262Y0009614D02*
G01X0006260Y0009627D01*
G01X0006260Y0009627D02*
G01X0006260Y0009630D01*
G01X0006260Y0009630D02*
G01X0006262Y0009645D01*
G01X0006262Y0009645D02*
G01X0006268Y0009657D01*
G01X0006268Y0009657D02*
G01X0006276Y0009665D01*
G01X0006276Y0009665D02*
G01X0006287Y0009674D01*
G01X0006287Y0009674D02*
G01X0006294Y0009679D01*
G01X0006294Y0009679D02*
G01X0006296Y0009680D01*
G01X0006296Y0009680D02*
G01X0006298Y0009681D01*
G01X0006298Y0009681D02*
G01X0006301Y0009686D01*
G01X0006301Y0009686D02*
G01X0006303Y0009695D01*
G01X0006303Y0009695D02*
G01X0006304Y0009710D01*
G01X0006304Y0009710D02*
G01X0006306Y0009730D01*
G01X0006306Y0009730D02*
G01X0006307Y0009758D01*
G01X0006307Y0009758D02*
G01X0006309Y0009795D01*
G01X0006309Y0009795D02*
G01X0006310Y0009833D01*
G01X0006310Y0009833D02*
G01X0006312Y0009872D01*
G01X0006312Y0009872D02*
G01X0006314Y0009911D01*
G01X0006314Y0009911D02*
G01X0006316Y0009947D01*
G01X0006316Y0009947D02*
G01X0006318Y0009979D01*
G01X0006318Y0009979D02*
G01X0006321Y0010005D01*
G01X0006321Y0010005D02*
G01X0006322Y0010019D01*
G01X0006322Y0010019D02*
G01X0006326Y0010047D01*
G01X0006326Y0010047D02*
G01X0006330Y0010078D01*
G01X0006330Y0010078D02*
G01X0006333Y0010106D01*
G01X0006333Y0010106D02*
G01X0006333Y0010113D01*
G01X0006333Y0010113D02*
G01X0006335Y0010135D01*
G01X0006335Y0010135D02*
G01X0006339Y0010155D01*
G01X0006339Y0010155D02*
G01X0006342Y0010168D01*
G01X0006342Y0010168D02*
G01X0006343Y0010171D01*
G01X0006343Y0010171D02*
G01X0006355Y0010184D01*
G01X0006355Y0010184D02*
G01X0006370Y0010189D01*
G01X0006370Y0010189D02*
G01X0006387Y0010187D01*
G36*
G01X0005981Y0009701D02*
G01X0005987Y0009695D01*
G01X0005992Y0009688D01*
G01X0005997Y0009681D01*
G01X0006001Y0009673D01*
G01X0006004Y0009663D01*
G01X0006006Y0009650D01*
G01X0006008Y0009634D01*
G01X0006009Y0009612D01*
G01X0006009Y0009586D01*
G01X0006010Y0009553D01*
G01X0006009Y0009513D01*
G01X0006009Y0009464D01*
G01X0006008Y0009407D01*
G01X0006008Y0009399D01*
G01X0006007Y0009341D01*
G01X0006007Y0009292D01*
G01X0006006Y0009252D01*
G01X0006005Y0009219D01*
G01X0006004Y0009193D01*
G01X0006003Y0009173D01*
G01X0006001Y0009159D01*
G01X0006000Y0009149D01*
G01X0005998Y0009143D01*
G01X0005998Y0009143D01*
G01X0005988Y0009127D01*
G01X0005974Y0009117D01*
G01X0005960Y0009115D01*
G01X0005947Y0009121D01*
G01X0005944Y0009124D01*
G01X0005938Y0009130D01*
G01X0005934Y0009137D01*
G01X0005931Y0009145D01*
G01X0005928Y0009155D01*
G01X0005927Y0009168D01*
G01X0005926Y0009186D01*
G01X0005927Y0009210D01*
G01X0005928Y0009241D01*
G01X0005929Y0009280D01*
G01X0005930Y0009305D01*
G01X0005933Y0009366D01*
G01X0005933Y0009424D01*
G01X0005933Y0009477D01*
G01X0005932Y0009525D01*
G01X0005930Y0009567D01*
G01X0005926Y0009601D01*
G01X0005922Y0009627D01*
G01X0005919Y0009636D01*
G01X0005916Y0009659D01*
G01X0005922Y0009680D01*
G01X0005935Y0009696D01*
G01X0005951Y0009707D01*
G01X0005966Y0009709D01*
G01X0005981Y0009701D01*
G01X0005981Y0009701D01*
G37*
G01X0005981Y0009701D02*
G01X0005987Y0009695D01*
G01X0005987Y0009695D02*
G01X0005992Y0009688D01*
G01X0005992Y0009688D02*
G01X0005997Y0009681D01*
G01X0005997Y0009681D02*
G01X0006001Y0009673D01*
G01X0006001Y0009673D02*
G01X0006004Y0009663D01*
G01X0006004Y0009663D02*
G01X0006006Y0009650D01*
G01X0006006Y0009650D02*
G01X0006008Y0009634D01*
G01X0006008Y0009634D02*
G01X0006009Y0009612D01*
G01X0006009Y0009612D02*
G01X0006009Y0009586D01*
G01X0006009Y0009586D02*
G01X0006010Y0009553D01*
G01X0006010Y0009553D02*
G01X0006009Y0009513D01*
G01X0006009Y0009513D02*
G01X0006009Y0009464D01*
G01X0006009Y0009464D02*
G01X0006008Y0009407D01*
G01X0006008Y0009407D02*
G01X0006008Y0009399D01*
G01X0006008Y0009399D02*
G01X0006007Y0009341D01*
G01X0006007Y0009341D02*
G01X0006007Y0009292D01*
G01X0006007Y0009292D02*
G01X0006006Y0009252D01*
G01X0006006Y0009252D02*
G01X0006005Y0009219D01*
G01X0006005Y0009219D02*
G01X0006004Y0009193D01*
G01X0006004Y0009193D02*
G01X0006003Y0009173D01*
G01X0006003Y0009173D02*
G01X0006001Y0009159D01*
G01X0006001Y0009159D02*
G01X0006000Y0009149D01*
G01X0006000Y0009149D02*
G01X0005998Y0009143D01*
G01X0005998Y0009143D02*
G01X0005998Y0009143D01*
G01X0005998Y0009143D02*
G01X0005988Y0009127D01*
G01X0005988Y0009127D02*
G01X0005974Y0009117D01*
G01X0005974Y0009117D02*
G01X0005960Y0009115D01*
G01X0005960Y0009115D02*
G01X0005947Y0009121D01*
G01X0005947Y0009121D02*
G01X0005944Y0009124D01*
G01X0005944Y0009124D02*
G01X0005938Y0009130D01*
G01X0005938Y0009130D02*
G01X0005934Y0009137D01*
G01X0005934Y0009137D02*
G01X0005931Y0009145D01*
G01X0005931Y0009145D02*
G01X0005928Y0009155D01*
G01X0005928Y0009155D02*
G01X0005927Y0009168D01*
G01X0005927Y0009168D02*
G01X0005926Y0009186D01*
G01X0005926Y0009186D02*
G01X0005927Y0009210D01*
G01X0005927Y0009210D02*
G01X0005928Y0009241D01*
G01X0005928Y0009241D02*
G01X0005929Y0009280D01*
G01X0005929Y0009280D02*
G01X0005930Y0009305D01*
G01X0005930Y0009305D02*
G01X0005933Y0009366D01*
G01X0005933Y0009366D02*
G01X0005933Y0009424D01*
G01X0005933Y0009424D02*
G01X0005933Y0009477D01*
G01X0005933Y0009477D02*
G01X0005932Y0009525D01*
G01X0005932Y0009525D02*
G01X0005930Y0009567D01*
G01X0005930Y0009567D02*
G01X0005926Y0009601D01*
G01X0005926Y0009601D02*
G01X0005922Y0009627D01*
G01X0005922Y0009627D02*
G01X0005919Y0009636D01*
G01X0005919Y0009636D02*
G01X0005916Y0009659D01*
G01X0005916Y0009659D02*
G01X0005922Y0009680D01*
G01X0005922Y0009680D02*
G01X0005935Y0009696D01*
G01X0005935Y0009696D02*
G01X0005951Y0009707D01*
G01X0005951Y0009707D02*
G01X0005966Y0009709D01*
G01X0005966Y0009709D02*
G01X0005981Y0009701D01*
G36*
G01X0004936Y0009895D02*
G01X0004947Y0009887D01*
G01X0004958Y0009870D01*
G01X0004969Y0009846D01*
G01X0004977Y0009817D01*
G01X0004983Y0009786D01*
G01X0004985Y0009755D01*
G01X0004985Y0009752D01*
G01X0004987Y0009712D01*
G01X0004992Y0009680D01*
G01X0005001Y0009656D01*
G01X0005010Y0009644D01*
G01X0005016Y0009637D01*
G01X0005023Y0009632D01*
G01X0005032Y0009629D01*
G01X0005045Y0009628D01*
G01X0005065Y0009626D01*
G01X0005076Y0009625D01*
G01X0005102Y0009624D01*
G01X0005119Y0009621D01*
G01X0005131Y0009618D01*
G01X0005138Y0009614D01*
G01X0005139Y0009613D01*
G01X0005148Y0009599D01*
G01X0005149Y0009582D01*
G01X0005145Y0009563D01*
G01X0005136Y0009545D01*
G01X0005123Y0009532D01*
G01X0005119Y0009530D01*
G01X0005106Y0009527D01*
G01X0005085Y0009526D01*
G01X0005056Y0009529D01*
G01X0005034Y0009533D01*
G01X0005016Y0009536D01*
G01X0005011Y0009509D01*
G01X0005008Y0009494D01*
G01X0005007Y0009471D01*
G01X0005006Y0009445D01*
G01X0005006Y0009418D01*
G01X0005005Y0009379D01*
G01X0005003Y0009346D01*
G01X0004998Y0009315D01*
G01X0004995Y0009301D01*
G01X0004985Y0009256D01*
G01X0004973Y0009220D01*
G01X0004960Y0009191D01*
G01X0004944Y0009169D01*
G01X0004925Y0009151D01*
G01X0004903Y0009138D01*
G01X0004889Y0009131D01*
G01X0004875Y0009127D01*
G01X0004861Y0009124D01*
G01X0004842Y0009123D01*
G01X0004821Y0009122D01*
G01X0004797Y0009122D01*
G01X0004777Y0009122D01*
G01X0004761Y0009123D01*
G01X0004755Y0009123D01*
G01X0004711Y0009135D01*
G01X0004670Y0009154D01*
G01X0004634Y0009177D01*
G01X0004610Y0009198D01*
G01X0004593Y0009219D01*
G01X0004585Y0009236D01*
G01X0004587Y0009249D01*
G01X0004598Y0009258D01*
G01X0004616Y0009263D01*
G01X0004630Y0009263D01*
G01X0004646Y0009257D01*
G01X0004667Y0009247D01*
G01X0004693Y0009230D01*
G01X0004702Y0009224D01*
G01X0004738Y0009204D01*
G01X0004779Y0009193D01*
G01X0004813Y0009190D01*
G01X0004840Y0009193D01*
G01X0004862Y0009202D01*
G01X0004880Y0009219D01*
G01X0004896Y0009244D01*
G01X0004910Y0009278D01*
G01X0004910Y0009279D01*
G01X0004914Y0009298D01*
G01X0004919Y0009324D01*
G01X0004923Y0009356D01*
G01X0004926Y0009392D01*
G01X0004928Y0009428D01*
G01X0004929Y0009463D01*
G01X0004929Y0009494D01*
G01X0004929Y0009500D01*
G01X0004928Y0009538D01*
G01X0004845Y0009546D01*
G01X0004786Y0009551D01*
G01X0004736Y0009553D01*
G01X0004710Y0009552D01*
G01X0004676Y0009551D01*
G01X0004649Y0009552D01*
G01X0004635Y0009555D01*
G01X0004618Y0009562D01*
G01X0004602Y0009573D01*
G01X0004589Y0009586D01*
G01X0004581Y0009598D01*
G01X0004580Y0009603D01*
G01X0004585Y0009619D01*
G01X0004598Y0009633D01*
G01X0004612Y0009642D01*
G01X0004619Y0009645D01*
G01X0004627Y0009647D01*
G01X0004636Y0009648D01*
G01X0004649Y0009648D01*
G01X0004668Y0009647D01*
G01X0004694Y0009645D01*
G01X0004722Y0009643D01*
G01X0004755Y0009640D01*
G01X0004787Y0009636D01*
G01X0004817Y0009633D01*
G01X0004840Y0009629D01*
G01X0004853Y0009627D01*
G01X0004892Y0009619D01*
G01X0004902Y0009631D01*
G01X0004906Y0009638D01*
G01X0004908Y0009648D01*
G01X0004909Y0009661D01*
G01X0004907Y0009679D01*
G01X0004903Y0009702D01*
G01X0004896Y0009733D01*
G01X0004886Y0009772D01*
G01X0004884Y0009779D01*
G01X0004876Y0009811D01*
G01X0004871Y0009834D01*
G01X0004868Y0009851D01*
G01X0004867Y0009863D01*
G01X0004867Y0009871D01*
G01X0004869Y0009877D01*
G01X0004881Y0009893D01*
G01X0004898Y0009902D01*
G01X0004917Y0009903D01*
G01X0004936Y0009895D01*
G01X0004936Y0009895D01*
G37*
G01X0004936Y0009895D02*
G01X0004947Y0009887D01*
G01X0004947Y0009887D02*
G01X0004958Y0009870D01*
G01X0004958Y0009870D02*
G01X0004969Y0009846D01*
G01X0004969Y0009846D02*
G01X0004977Y0009817D01*
G01X0004977Y0009817D02*
G01X0004983Y0009786D01*
G01X0004983Y0009786D02*
G01X0004985Y0009755D01*
G01X0004985Y0009755D02*
G01X0004985Y0009752D01*
G01X0004985Y0009752D02*
G01X0004987Y0009712D01*
G01X0004987Y0009712D02*
G01X0004992Y0009680D01*
G01X0004992Y0009680D02*
G01X0005001Y0009656D01*
G01X0005001Y0009656D02*
G01X0005010Y0009644D01*
G01X0005010Y0009644D02*
G01X0005016Y0009637D01*
G01X0005016Y0009637D02*
G01X0005023Y0009632D01*
G01X0005023Y0009632D02*
G01X0005032Y0009629D01*
G01X0005032Y0009629D02*
G01X0005045Y0009628D01*
G01X0005045Y0009628D02*
G01X0005065Y0009626D01*
G01X0005065Y0009626D02*
G01X0005076Y0009625D01*
G01X0005076Y0009625D02*
G01X0005102Y0009624D01*
G01X0005102Y0009624D02*
G01X0005119Y0009621D01*
G01X0005119Y0009621D02*
G01X0005131Y0009618D01*
G01X0005131Y0009618D02*
G01X0005138Y0009614D01*
G01X0005138Y0009614D02*
G01X0005139Y0009613D01*
G01X0005139Y0009613D02*
G01X0005148Y0009599D01*
G01X0005148Y0009599D02*
G01X0005149Y0009582D01*
G01X0005149Y0009582D02*
G01X0005145Y0009563D01*
G01X0005145Y0009563D02*
G01X0005136Y0009545D01*
G01X0005136Y0009545D02*
G01X0005123Y0009532D01*
G01X0005123Y0009532D02*
G01X0005119Y0009530D01*
G01X0005119Y0009530D02*
G01X0005106Y0009527D01*
G01X0005106Y0009527D02*
G01X0005085Y0009526D01*
G01X0005085Y0009526D02*
G01X0005056Y0009529D01*
G01X0005056Y0009529D02*
G01X0005034Y0009533D01*
G01X0005034Y0009533D02*
G01X0005016Y0009536D01*
G01X0005016Y0009536D02*
G01X0005011Y0009509D01*
G01X0005011Y0009509D02*
G01X0005008Y0009494D01*
G01X0005008Y0009494D02*
G01X0005007Y0009471D01*
G01X0005007Y0009471D02*
G01X0005006Y0009445D01*
G01X0005006Y0009445D02*
G01X0005006Y0009418D01*
G01X0005006Y0009418D02*
G01X0005005Y0009379D01*
G01X0005005Y0009379D02*
G01X0005003Y0009346D01*
G01X0005003Y0009346D02*
G01X0004998Y0009315D01*
G01X0004998Y0009315D02*
G01X0004995Y0009301D01*
G01X0004995Y0009301D02*
G01X0004985Y0009256D01*
G01X0004985Y0009256D02*
G01X0004973Y0009220D01*
G01X0004973Y0009220D02*
G01X0004960Y0009191D01*
G01X0004960Y0009191D02*
G01X0004944Y0009169D01*
G01X0004944Y0009169D02*
G01X0004925Y0009151D01*
G01X0004925Y0009151D02*
G01X0004903Y0009138D01*
G01X0004903Y0009138D02*
G01X0004889Y0009131D01*
G01X0004889Y0009131D02*
G01X0004875Y0009127D01*
G01X0004875Y0009127D02*
G01X0004861Y0009124D01*
G01X0004861Y0009124D02*
G01X0004842Y0009123D01*
G01X0004842Y0009123D02*
G01X0004821Y0009122D01*
G01X0004821Y0009122D02*
G01X0004797Y0009122D01*
G01X0004797Y0009122D02*
G01X0004777Y0009122D01*
G01X0004777Y0009122D02*
G01X0004761Y0009123D01*
G01X0004761Y0009123D02*
G01X0004755Y0009123D01*
G01X0004755Y0009123D02*
G01X0004711Y0009135D01*
G01X0004711Y0009135D02*
G01X0004670Y0009154D01*
G01X0004670Y0009154D02*
G01X0004634Y0009177D01*
G01X0004634Y0009177D02*
G01X0004610Y0009198D01*
G01X0004610Y0009198D02*
G01X0004593Y0009219D01*
G01X0004593Y0009219D02*
G01X0004585Y0009236D01*
G01X0004585Y0009236D02*
G01X0004587Y0009249D01*
G01X0004587Y0009249D02*
G01X0004598Y0009258D01*
G01X0004598Y0009258D02*
G01X0004616Y0009263D01*
G01X0004616Y0009263D02*
G01X0004630Y0009263D01*
G01X0004630Y0009263D02*
G01X0004646Y0009257D01*
G01X0004646Y0009257D02*
G01X0004667Y0009247D01*
G01X0004667Y0009247D02*
G01X0004693Y0009230D01*
G01X0004693Y0009230D02*
G01X0004702Y0009224D01*
G01X0004702Y0009224D02*
G01X0004738Y0009204D01*
G01X0004738Y0009204D02*
G01X0004779Y0009193D01*
G01X0004779Y0009193D02*
G01X0004813Y0009190D01*
G01X0004813Y0009190D02*
G01X0004840Y0009193D01*
G01X0004840Y0009193D02*
G01X0004862Y0009202D01*
G01X0004862Y0009202D02*
G01X0004880Y0009219D01*
G01X0004880Y0009219D02*
G01X0004896Y0009244D01*
G01X0004896Y0009244D02*
G01X0004910Y0009278D01*
G01X0004910Y0009278D02*
G01X0004910Y0009279D01*
G01X0004910Y0009279D02*
G01X0004914Y0009298D01*
G01X0004914Y0009298D02*
G01X0004919Y0009324D01*
G01X0004919Y0009324D02*
G01X0004923Y0009356D01*
G01X0004923Y0009356D02*
G01X0004926Y0009392D01*
G01X0004926Y0009392D02*
G01X0004928Y0009428D01*
G01X0004928Y0009428D02*
G01X0004929Y0009463D01*
G01X0004929Y0009463D02*
G01X0004929Y0009494D01*
G01X0004929Y0009494D02*
G01X0004929Y0009500D01*
G01X0004929Y0009500D02*
G01X0004928Y0009538D01*
G01X0004928Y0009538D02*
G01X0004845Y0009546D01*
G01X0004845Y0009546D02*
G01X0004786Y0009551D01*
G01X0004786Y0009551D02*
G01X0004736Y0009553D01*
G01X0004736Y0009553D02*
G01X0004710Y0009552D01*
G01X0004710Y0009552D02*
G01X0004676Y0009551D01*
G01X0004676Y0009551D02*
G01X0004649Y0009552D01*
G01X0004649Y0009552D02*
G01X0004635Y0009555D01*
G01X0004635Y0009555D02*
G01X0004618Y0009562D01*
G01X0004618Y0009562D02*
G01X0004602Y0009573D01*
G01X0004602Y0009573D02*
G01X0004589Y0009586D01*
G01X0004589Y0009586D02*
G01X0004581Y0009598D01*
G01X0004581Y0009598D02*
G01X0004580Y0009603D01*
G01X0004580Y0009603D02*
G01X0004585Y0009619D01*
G01X0004585Y0009619D02*
G01X0004598Y0009633D01*
G01X0004598Y0009633D02*
G01X0004612Y0009642D01*
G01X0004612Y0009642D02*
G01X0004619Y0009645D01*
G01X0004619Y0009645D02*
G01X0004627Y0009647D01*
G01X0004627Y0009647D02*
G01X0004636Y0009648D01*
G01X0004636Y0009648D02*
G01X0004649Y0009648D01*
G01X0004649Y0009648D02*
G01X0004668Y0009647D01*
G01X0004668Y0009647D02*
G01X0004694Y0009645D01*
G01X0004694Y0009645D02*
G01X0004722Y0009643D01*
G01X0004722Y0009643D02*
G01X0004755Y0009640D01*
G01X0004755Y0009640D02*
G01X0004787Y0009636D01*
G01X0004787Y0009636D02*
G01X0004817Y0009633D01*
G01X0004817Y0009633D02*
G01X0004840Y0009629D01*
G01X0004840Y0009629D02*
G01X0004853Y0009627D01*
G01X0004853Y0009627D02*
G01X0004892Y0009619D01*
G01X0004892Y0009619D02*
G01X0004902Y0009631D01*
G01X0004902Y0009631D02*
G01X0004906Y0009638D01*
G01X0004906Y0009638D02*
G01X0004908Y0009648D01*
G01X0004908Y0009648D02*
G01X0004909Y0009661D01*
G01X0004909Y0009661D02*
G01X0004907Y0009679D01*
G01X0004907Y0009679D02*
G01X0004903Y0009702D01*
G01X0004903Y0009702D02*
G01X0004896Y0009733D01*
G01X0004896Y0009733D02*
G01X0004886Y0009772D01*
G01X0004886Y0009772D02*
G01X0004884Y0009779D01*
G01X0004884Y0009779D02*
G01X0004876Y0009811D01*
G01X0004876Y0009811D02*
G01X0004871Y0009834D01*
G01X0004871Y0009834D02*
G01X0004868Y0009851D01*
G01X0004868Y0009851D02*
G01X0004867Y0009863D01*
G01X0004867Y0009863D02*
G01X0004867Y0009871D01*
G01X0004867Y0009871D02*
G01X0004869Y0009877D01*
G01X0004869Y0009877D02*
G01X0004881Y0009893D01*
G01X0004881Y0009893D02*
G01X0004898Y0009902D01*
G01X0004898Y0009902D02*
G01X0004917Y0009903D01*
G01X0004917Y0009903D02*
G01X0004936Y0009895D01*
G36*
G01X0005543Y0009757D02*
G01X0005575Y0009752D01*
G01X0005601Y0009745D01*
G01X0005602Y0009745D01*
G01X0005633Y0009729D01*
G01X0005665Y0009704D01*
G01X0005697Y0009673D01*
G01X0005727Y0009636D01*
G01X0005756Y0009596D01*
G01X0005780Y0009554D01*
G01X0005800Y0009510D01*
G01X0005815Y0009468D01*
G01X0005819Y0009451D01*
G01X0005822Y0009429D01*
G01X0005824Y0009413D01*
G01X0005823Y0009399D01*
G01X0005821Y0009382D01*
G01X0005819Y0009372D01*
G01X0005812Y0009350D01*
G01X0005803Y0009323D01*
G01X0005792Y0009298D01*
G01X0005790Y0009293D01*
G01X0005767Y0009253D01*
G01X0005742Y0009221D01*
G01X0005713Y0009195D01*
G01X0005677Y0009173D01*
G01X0005633Y0009156D01*
G01X0005629Y0009154D01*
G01X0005578Y0009141D01*
G01X0005531Y0009136D01*
G01X0005487Y0009139D01*
G01X0005460Y0009146D01*
G01X0005422Y0009162D01*
G01X0005387Y0009182D01*
G01X0005353Y0009209D01*
G01X0005325Y0009235D01*
G01X0005297Y0009265D01*
G01X0005276Y0009293D01*
G01X0005260Y0009324D01*
G01X0005246Y0009359D01*
G01X0005239Y0009384D01*
G01X0005232Y0009419D01*
G01X0005229Y0009458D01*
G01X0005228Y0009499D01*
G01X0005230Y0009529D01*
G01X0005321Y0009529D01*
G01X0005323Y0009505D01*
G01X0005328Y0009475D01*
G01X0005332Y0009452D01*
G01X0005342Y0009407D01*
G01X0005353Y0009370D01*
G01X0005365Y0009341D01*
G01X0005378Y0009318D01*
G01X0005393Y0009300D01*
G01X0005401Y0009292D01*
G01X0005431Y0009273D01*
G01X0005468Y0009259D01*
G01X0005509Y0009250D01*
G01X0005552Y0009247D01*
G01X0005595Y0009251D01*
G01X0005637Y0009261D01*
G01X0005637Y0009261D01*
G01X0005669Y0009275D01*
G01X0005696Y0009294D01*
G01X0005716Y0009318D01*
G01X0005723Y0009331D01*
G01X0005729Y0009355D01*
G01X0005731Y0009385D01*
G01X0005730Y0009417D01*
G01X0005725Y0009449D01*
G01X0005720Y0009466D01*
G01X0005712Y0009488D01*
G01X0005700Y0009512D01*
G01X0005689Y0009530D01*
G01X0005673Y0009551D01*
G01X0005650Y0009575D01*
G01X0005624Y0009599D01*
G01X0005597Y0009621D01*
G01X0005572Y0009639D01*
G01X0005555Y0009649D01*
G01X0005540Y0009656D01*
G01X0005527Y0009660D01*
G01X0005512Y0009662D01*
G01X0005491Y0009662D01*
G01X0005480Y0009662D01*
G01X0005455Y0009662D01*
G01X0005437Y0009660D01*
G01X0005423Y0009657D01*
G01X0005408Y0009651D01*
G01X0005405Y0009649D01*
G01X0005374Y0009632D01*
G01X0005351Y0009612D01*
G01X0005334Y0009588D01*
G01X0005332Y0009583D01*
G01X0005325Y0009566D01*
G01X0005322Y0009549D01*
G01X0005321Y0009529D01*
G01X0005230Y0009529D01*
G01X0005230Y0009538D01*
G01X0005236Y0009572D01*
G01X0005239Y0009583D01*
G01X0005258Y0009629D01*
G01X0005285Y0009670D01*
G01X0005318Y0009704D01*
G01X0005357Y0009730D01*
G01X0005402Y0009748D01*
G01X0005435Y0009755D01*
G01X0005469Y0009759D01*
G01X0005506Y0009759D01*
G01X0005543Y0009757D01*
G01X0005543Y0009757D01*
G37*
G01X0005543Y0009757D02*
G01X0005575Y0009752D01*
G01X0005575Y0009752D02*
G01X0005601Y0009745D01*
G01X0005601Y0009745D02*
G01X0005602Y0009745D01*
G01X0005602Y0009745D02*
G01X0005633Y0009729D01*
G01X0005633Y0009729D02*
G01X0005665Y0009704D01*
G01X0005665Y0009704D02*
G01X0005697Y0009673D01*
G01X0005697Y0009673D02*
G01X0005727Y0009636D01*
G01X0005727Y0009636D02*
G01X0005756Y0009596D01*
G01X0005756Y0009596D02*
G01X0005780Y0009554D01*
G01X0005780Y0009554D02*
G01X0005800Y0009510D01*
G01X0005800Y0009510D02*
G01X0005815Y0009468D01*
G01X0005815Y0009468D02*
G01X0005819Y0009451D01*
G01X0005819Y0009451D02*
G01X0005822Y0009429D01*
G01X0005822Y0009429D02*
G01X0005824Y0009413D01*
G01X0005824Y0009413D02*
G01X0005823Y0009399D01*
G01X0005823Y0009399D02*
G01X0005821Y0009382D01*
G01X0005821Y0009382D02*
G01X0005819Y0009372D01*
G01X0005819Y0009372D02*
G01X0005812Y0009350D01*
G01X0005812Y0009350D02*
G01X0005803Y0009323D01*
G01X0005803Y0009323D02*
G01X0005792Y0009298D01*
G01X0005792Y0009298D02*
G01X0005790Y0009293D01*
G01X0005790Y0009293D02*
G01X0005767Y0009253D01*
G01X0005767Y0009253D02*
G01X0005742Y0009221D01*
G01X0005742Y0009221D02*
G01X0005713Y0009195D01*
G01X0005713Y0009195D02*
G01X0005677Y0009173D01*
G01X0005677Y0009173D02*
G01X0005633Y0009156D01*
G01X0005633Y0009156D02*
G01X0005629Y0009154D01*
G01X0005629Y0009154D02*
G01X0005578Y0009141D01*
G01X0005578Y0009141D02*
G01X0005531Y0009136D01*
G01X0005531Y0009136D02*
G01X0005487Y0009139D01*
G01X0005487Y0009139D02*
G01X0005460Y0009146D01*
G01X0005460Y0009146D02*
G01X0005422Y0009162D01*
G01X0005422Y0009162D02*
G01X0005387Y0009182D01*
G01X0005387Y0009182D02*
G01X0005353Y0009209D01*
G01X0005353Y0009209D02*
G01X0005325Y0009235D01*
G01X0005325Y0009235D02*
G01X0005297Y0009265D01*
G01X0005297Y0009265D02*
G01X0005276Y0009293D01*
G01X0005276Y0009293D02*
G01X0005260Y0009324D01*
G01X0005260Y0009324D02*
G01X0005246Y0009359D01*
G01X0005246Y0009359D02*
G01X0005239Y0009384D01*
G01X0005239Y0009384D02*
G01X0005232Y0009419D01*
G01X0005232Y0009419D02*
G01X0005229Y0009458D01*
G01X0005229Y0009458D02*
G01X0005228Y0009499D01*
G01X0005228Y0009499D02*
G01X0005230Y0009529D01*
G01X0005230Y0009529D02*
G01X0005321Y0009529D01*
G01X0005321Y0009529D02*
G01X0005323Y0009505D01*
G01X0005323Y0009505D02*
G01X0005328Y0009475D01*
G01X0005328Y0009475D02*
G01X0005332Y0009452D01*
G01X0005332Y0009452D02*
G01X0005342Y0009407D01*
G01X0005342Y0009407D02*
G01X0005353Y0009370D01*
G01X0005353Y0009370D02*
G01X0005365Y0009341D01*
G01X0005365Y0009341D02*
G01X0005378Y0009318D01*
G01X0005378Y0009318D02*
G01X0005393Y0009300D01*
G01X0005393Y0009300D02*
G01X0005401Y0009292D01*
G01X0005401Y0009292D02*
G01X0005431Y0009273D01*
G01X0005431Y0009273D02*
G01X0005468Y0009259D01*
G01X0005468Y0009259D02*
G01X0005509Y0009250D01*
G01X0005509Y0009250D02*
G01X0005552Y0009247D01*
G01X0005552Y0009247D02*
G01X0005595Y0009251D01*
G01X0005595Y0009251D02*
G01X0005637Y0009261D01*
G01X0005637Y0009261D02*
G01X0005637Y0009261D01*
G01X0005637Y0009261D02*
G01X0005669Y0009275D01*
G01X0005669Y0009275D02*
G01X0005696Y0009294D01*
G01X0005696Y0009294D02*
G01X0005716Y0009318D01*
G01X0005716Y0009318D02*
G01X0005723Y0009331D01*
G01X0005723Y0009331D02*
G01X0005729Y0009355D01*
G01X0005729Y0009355D02*
G01X0005731Y0009385D01*
G01X0005731Y0009385D02*
G01X0005730Y0009417D01*
G01X0005730Y0009417D02*
G01X0005725Y0009449D01*
G01X0005725Y0009449D02*
G01X0005720Y0009466D01*
G01X0005720Y0009466D02*
G01X0005712Y0009488D01*
G01X0005712Y0009488D02*
G01X0005700Y0009512D01*
G01X0005700Y0009512D02*
G01X0005689Y0009530D01*
G01X0005689Y0009530D02*
G01X0005673Y0009551D01*
G01X0005673Y0009551D02*
G01X0005650Y0009575D01*
G01X0005650Y0009575D02*
G01X0005624Y0009599D01*
G01X0005624Y0009599D02*
G01X0005597Y0009621D01*
G01X0005597Y0009621D02*
G01X0005572Y0009639D01*
G01X0005572Y0009639D02*
G01X0005555Y0009649D01*
G01X0005555Y0009649D02*
G01X0005540Y0009656D01*
G01X0005540Y0009656D02*
G01X0005527Y0009660D01*
G01X0005527Y0009660D02*
G01X0005512Y0009662D01*
G01X0005512Y0009662D02*
G01X0005491Y0009662D01*
G01X0005491Y0009662D02*
G01X0005480Y0009662D01*
G01X0005480Y0009662D02*
G01X0005455Y0009662D01*
G01X0005455Y0009662D02*
G01X0005437Y0009660D01*
G01X0005437Y0009660D02*
G01X0005423Y0009657D01*
G01X0005423Y0009657D02*
G01X0005408Y0009651D01*
G01X0005408Y0009651D02*
G01X0005405Y0009649D01*
G01X0005405Y0009649D02*
G01X0005374Y0009632D01*
G01X0005374Y0009632D02*
G01X0005351Y0009612D01*
G01X0005351Y0009612D02*
G01X0005334Y0009588D01*
G01X0005334Y0009588D02*
G01X0005332Y0009583D01*
G01X0005332Y0009583D02*
G01X0005325Y0009566D01*
G01X0005325Y0009566D02*
G01X0005322Y0009549D01*
G01X0005322Y0009549D02*
G01X0005321Y0009529D01*
G01X0005321Y0009529D02*
G01X0005230Y0009529D01*
G01X0005230Y0009529D02*
G01X0005230Y0009538D01*
G01X0005230Y0009538D02*
G01X0005236Y0009572D01*
G01X0005236Y0009572D02*
G01X0005239Y0009583D01*
G01X0005239Y0009583D02*
G01X0005258Y0009629D01*
G01X0005258Y0009629D02*
G01X0005285Y0009670D01*
G01X0005285Y0009670D02*
G01X0005318Y0009704D01*
G01X0005318Y0009704D02*
G01X0005357Y0009730D01*
G01X0005357Y0009730D02*
G01X0005402Y0009748D01*
G01X0005402Y0009748D02*
G01X0005435Y0009755D01*
G01X0005435Y0009755D02*
G01X0005469Y0009759D01*
G01X0005469Y0009759D02*
G01X0005506Y0009759D01*
G01X0005506Y0009759D02*
G01X0005543Y0009757D01*
G36*
G01X0003492Y0009663D02*
G01X0003512Y0009661D01*
G01X0003516Y0009660D01*
G01X0003547Y0009650D01*
G01X0003578Y0009632D01*
G01X0003609Y0009609D01*
G01X0003636Y0009582D01*
G01X0003657Y0009554D01*
G01X0003664Y0009540D01*
G01X0003671Y0009524D01*
G01X0003675Y0009507D01*
G01X0003678Y0009487D01*
G01X0003679Y0009462D01*
G01X0003677Y0009410D01*
G01X0003668Y0009365D01*
G01X0003650Y0009326D01*
G01X0003624Y0009292D01*
G01X0003590Y0009264D01*
G01X0003561Y0009247D01*
G01X0003543Y0009238D01*
G01X0003528Y0009232D01*
G01X0003514Y0009229D01*
G01X0003497Y0009227D01*
G01X0003474Y0009226D01*
G01X0003470Y0009226D01*
G01X0003444Y0009226D01*
G01X0003424Y0009227D01*
G01X0003408Y0009229D01*
G01X0003391Y0009234D01*
G01X0003384Y0009236D01*
G01X0003341Y0009256D01*
G01X0003306Y0009282D01*
G01X0003277Y0009316D01*
G01X0003261Y0009345D01*
G01X0003255Y0009356D01*
G01X0003252Y0009367D01*
G01X0003250Y0009379D01*
G01X0003248Y0009394D01*
G01X0003248Y0009414D01*
G01X0003248Y0009442D01*
G01X0003248Y0009445D01*
G01X0003328Y0009445D01*
G01X0003328Y0009421D01*
G01X0003329Y0009405D01*
G01X0003332Y0009392D01*
G01X0003337Y0009381D01*
G01X0003340Y0009375D01*
G01X0003361Y0009348D01*
G01X0003390Y0009326D01*
G01X0003424Y0009312D01*
G01X0003464Y0009306D01*
G01X0003478Y0009305D01*
G01X0003498Y0009306D01*
G01X0003518Y0009308D01*
G01X0003531Y0009310D01*
G01X0003556Y0009322D01*
G01X0003578Y0009342D01*
G01X0003591Y0009362D01*
G01X0003596Y0009373D01*
G01X0003599Y0009385D01*
G01X0003600Y0009400D01*
G01X0003599Y0009421D01*
G01X0003599Y0009427D01*
G01X0003593Y0009474D01*
G01X0003579Y0009515D01*
G01X0003558Y0009549D01*
G01X0003529Y0009577D01*
G01X0003508Y0009590D01*
G01X0003479Y0009602D01*
G01X0003449Y0009604D01*
G01X0003419Y0009596D01*
G01X0003390Y0009580D01*
G01X0003367Y0009559D01*
G01X0003349Y0009536D01*
G01X0003337Y0009513D01*
G01X0003330Y0009487D01*
G01X0003328Y0009455D01*
G01X0003328Y0009445D01*
G01X0003248Y0009445D01*
G01X0003248Y0009474D01*
G01X0003248Y0009495D01*
G01X0003249Y0009510D01*
G01X0003252Y0009522D01*
G01X0003255Y0009533D01*
G01X0003260Y0009545D01*
G01X0003261Y0009546D01*
G01X0003280Y0009578D01*
G01X0003307Y0009607D01*
G01X0003340Y0009632D01*
G01X0003362Y0009645D01*
G01X0003381Y0009654D01*
G01X0003397Y0009659D01*
G01X0003415Y0009662D01*
G01X0003438Y0009664D01*
G01X0003442Y0009664D01*
G01X0003467Y0009664D01*
G01X0003492Y0009663D01*
G01X0003492Y0009663D01*
G37*
G01X0003492Y0009663D02*
G01X0003512Y0009661D01*
G01X0003512Y0009661D02*
G01X0003516Y0009660D01*
G01X0003516Y0009660D02*
G01X0003547Y0009650D01*
G01X0003547Y0009650D02*
G01X0003578Y0009632D01*
G01X0003578Y0009632D02*
G01X0003609Y0009609D01*
G01X0003609Y0009609D02*
G01X0003636Y0009582D01*
G01X0003636Y0009582D02*
G01X0003657Y0009554D01*
G01X0003657Y0009554D02*
G01X0003664Y0009540D01*
G01X0003664Y0009540D02*
G01X0003671Y0009524D01*
G01X0003671Y0009524D02*
G01X0003675Y0009507D01*
G01X0003675Y0009507D02*
G01X0003678Y0009487D01*
G01X0003678Y0009487D02*
G01X0003679Y0009462D01*
G01X0003679Y0009462D02*
G01X0003677Y0009410D01*
G01X0003677Y0009410D02*
G01X0003668Y0009365D01*
G01X0003668Y0009365D02*
G01X0003650Y0009326D01*
G01X0003650Y0009326D02*
G01X0003624Y0009292D01*
G01X0003624Y0009292D02*
G01X0003590Y0009264D01*
G01X0003590Y0009264D02*
G01X0003561Y0009247D01*
G01X0003561Y0009247D02*
G01X0003543Y0009238D01*
G01X0003543Y0009238D02*
G01X0003528Y0009232D01*
G01X0003528Y0009232D02*
G01X0003514Y0009229D01*
G01X0003514Y0009229D02*
G01X0003497Y0009227D01*
G01X0003497Y0009227D02*
G01X0003474Y0009226D01*
G01X0003474Y0009226D02*
G01X0003470Y0009226D01*
G01X0003470Y0009226D02*
G01X0003444Y0009226D01*
G01X0003444Y0009226D02*
G01X0003424Y0009227D01*
G01X0003424Y0009227D02*
G01X0003408Y0009229D01*
G01X0003408Y0009229D02*
G01X0003391Y0009234D01*
G01X0003391Y0009234D02*
G01X0003384Y0009236D01*
G01X0003384Y0009236D02*
G01X0003341Y0009256D01*
G01X0003341Y0009256D02*
G01X0003306Y0009282D01*
G01X0003306Y0009282D02*
G01X0003277Y0009316D01*
G01X0003277Y0009316D02*
G01X0003261Y0009345D01*
G01X0003261Y0009345D02*
G01X0003255Y0009356D01*
G01X0003255Y0009356D02*
G01X0003252Y0009367D01*
G01X0003252Y0009367D02*
G01X0003250Y0009379D01*
G01X0003250Y0009379D02*
G01X0003248Y0009394D01*
G01X0003248Y0009394D02*
G01X0003248Y0009414D01*
G01X0003248Y0009414D02*
G01X0003248Y0009442D01*
G01X0003248Y0009442D02*
G01X0003248Y0009445D01*
G01X0003248Y0009445D02*
G01X0003328Y0009445D01*
G01X0003328Y0009445D02*
G01X0003328Y0009421D01*
G01X0003328Y0009421D02*
G01X0003329Y0009405D01*
G01X0003329Y0009405D02*
G01X0003332Y0009392D01*
G01X0003332Y0009392D02*
G01X0003337Y0009381D01*
G01X0003337Y0009381D02*
G01X0003340Y0009375D01*
G01X0003340Y0009375D02*
G01X0003361Y0009348D01*
G01X0003361Y0009348D02*
G01X0003390Y0009326D01*
G01X0003390Y0009326D02*
G01X0003424Y0009312D01*
G01X0003424Y0009312D02*
G01X0003464Y0009306D01*
G01X0003464Y0009306D02*
G01X0003478Y0009305D01*
G01X0003478Y0009305D02*
G01X0003498Y0009306D01*
G01X0003498Y0009306D02*
G01X0003518Y0009308D01*
G01X0003518Y0009308D02*
G01X0003531Y0009310D01*
G01X0003531Y0009310D02*
G01X0003556Y0009322D01*
G01X0003556Y0009322D02*
G01X0003578Y0009342D01*
G01X0003578Y0009342D02*
G01X0003591Y0009362D01*
G01X0003591Y0009362D02*
G01X0003596Y0009373D01*
G01X0003596Y0009373D02*
G01X0003599Y0009385D01*
G01X0003599Y0009385D02*
G01X0003600Y0009400D01*
G01X0003600Y0009400D02*
G01X0003599Y0009421D01*
G01X0003599Y0009421D02*
G01X0003599Y0009427D01*
G01X0003599Y0009427D02*
G01X0003593Y0009474D01*
G01X0003593Y0009474D02*
G01X0003579Y0009515D01*
G01X0003579Y0009515D02*
G01X0003558Y0009549D01*
G01X0003558Y0009549D02*
G01X0003529Y0009577D01*
G01X0003529Y0009577D02*
G01X0003508Y0009590D01*
G01X0003508Y0009590D02*
G01X0003479Y0009602D01*
G01X0003479Y0009602D02*
G01X0003449Y0009604D01*
G01X0003449Y0009604D02*
G01X0003419Y0009596D01*
G01X0003419Y0009596D02*
G01X0003390Y0009580D01*
G01X0003390Y0009580D02*
G01X0003367Y0009559D01*
G01X0003367Y0009559D02*
G01X0003349Y0009536D01*
G01X0003349Y0009536D02*
G01X0003337Y0009513D01*
G01X0003337Y0009513D02*
G01X0003330Y0009487D01*
G01X0003330Y0009487D02*
G01X0003328Y0009455D01*
G01X0003328Y0009455D02*
G01X0003328Y0009445D01*
G01X0003328Y0009445D02*
G01X0003248Y0009445D01*
G01X0003248Y0009445D02*
G01X0003248Y0009474D01*
G01X0003248Y0009474D02*
G01X0003248Y0009495D01*
G01X0003248Y0009495D02*
G01X0003249Y0009510D01*
G01X0003249Y0009510D02*
G01X0003252Y0009522D01*
G01X0003252Y0009522D02*
G01X0003255Y0009533D01*
G01X0003255Y0009533D02*
G01X0003260Y0009545D01*
G01X0003260Y0009545D02*
G01X0003261Y0009546D01*
G01X0003261Y0009546D02*
G01X0003280Y0009578D01*
G01X0003280Y0009578D02*
G01X0003307Y0009607D01*
G01X0003307Y0009607D02*
G01X0003340Y0009632D01*
G01X0003340Y0009632D02*
G01X0003362Y0009645D01*
G01X0003362Y0009645D02*
G01X0003381Y0009654D01*
G01X0003381Y0009654D02*
G01X0003397Y0009659D01*
G01X0003397Y0009659D02*
G01X0003415Y0009662D01*
G01X0003415Y0009662D02*
G01X0003438Y0009664D01*
G01X0003438Y0009664D02*
G01X0003442Y0009664D01*
G01X0003442Y0009664D02*
G01X0003467Y0009664D01*
G01X0003467Y0009664D02*
G01X0003492Y0009663D01*
G36*
G01X0004012Y0009749D02*
G01X0004023Y0009746D01*
G01X0004031Y0009740D01*
G01X0004036Y0009729D01*
G01X0004039Y0009714D01*
G01X0004041Y0009693D01*
G01X0004040Y0009665D01*
G01X0004038Y0009630D01*
G01X0004034Y0009586D01*
G01X0004031Y0009558D01*
G01X0004029Y0009538D01*
G01X0004027Y0009511D01*
G01X0004025Y0009478D01*
G01X0004023Y0009442D01*
G01X0004021Y0009403D01*
G01X0004020Y0009375D01*
G01X0004018Y0009335D01*
G01X0004016Y0009304D01*
G01X0004015Y0009280D01*
G01X0004013Y0009263D01*
G01X0004012Y0009251D01*
G01X0004010Y0009243D01*
G01X0004008Y0009238D01*
G01X0004005Y0009234D01*
G01X0004004Y0009234D01*
G01X0003994Y0009229D01*
G01X0003979Y0009226D01*
G01X0003964Y0009225D01*
G01X0003951Y0009226D01*
G01X0003943Y0009230D01*
G01X0003943Y0009231D01*
G01X0003941Y0009242D01*
G01X0003939Y0009261D01*
G01X0003938Y0009287D01*
G01X0003937Y0009319D01*
G01X0003936Y0009356D01*
G01X0003935Y0009397D01*
G01X0003934Y0009439D01*
G01X0003934Y0009482D01*
G01X0003934Y0009525D01*
G01X0003934Y0009535D01*
G01X0003934Y0009580D01*
G01X0003935Y0009616D01*
G01X0003936Y0009644D01*
G01X0003937Y0009665D01*
G01X0003939Y0009682D01*
G01X0003941Y0009694D01*
G01X0003943Y0009701D01*
G01X0003955Y0009725D01*
G01X0003971Y0009741D01*
G01X0003991Y0009749D01*
G01X0003999Y0009750D01*
G01X0004012Y0009749D01*
G01X0004012Y0009749D01*
G37*
G01X0004012Y0009749D02*
G01X0004023Y0009746D01*
G01X0004023Y0009746D02*
G01X0004031Y0009740D01*
G01X0004031Y0009740D02*
G01X0004036Y0009729D01*
G01X0004036Y0009729D02*
G01X0004039Y0009714D01*
G01X0004039Y0009714D02*
G01X0004041Y0009693D01*
G01X0004041Y0009693D02*
G01X0004040Y0009665D01*
G01X0004040Y0009665D02*
G01X0004038Y0009630D01*
G01X0004038Y0009630D02*
G01X0004034Y0009586D01*
G01X0004034Y0009586D02*
G01X0004031Y0009558D01*
G01X0004031Y0009558D02*
G01X0004029Y0009538D01*
G01X0004029Y0009538D02*
G01X0004027Y0009511D01*
G01X0004027Y0009511D02*
G01X0004025Y0009478D01*
G01X0004025Y0009478D02*
G01X0004023Y0009442D01*
G01X0004023Y0009442D02*
G01X0004021Y0009403D01*
G01X0004021Y0009403D02*
G01X0004020Y0009375D01*
G01X0004020Y0009375D02*
G01X0004018Y0009335D01*
G01X0004018Y0009335D02*
G01X0004016Y0009304D01*
G01X0004016Y0009304D02*
G01X0004015Y0009280D01*
G01X0004015Y0009280D02*
G01X0004013Y0009263D01*
G01X0004013Y0009263D02*
G01X0004012Y0009251D01*
G01X0004012Y0009251D02*
G01X0004010Y0009243D01*
G01X0004010Y0009243D02*
G01X0004008Y0009238D01*
G01X0004008Y0009238D02*
G01X0004005Y0009234D01*
G01X0004005Y0009234D02*
G01X0004004Y0009234D01*
G01X0004004Y0009234D02*
G01X0003994Y0009229D01*
G01X0003994Y0009229D02*
G01X0003979Y0009226D01*
G01X0003979Y0009226D02*
G01X0003964Y0009225D01*
G01X0003964Y0009225D02*
G01X0003951Y0009226D01*
G01X0003951Y0009226D02*
G01X0003943Y0009230D01*
G01X0003943Y0009230D02*
G01X0003943Y0009231D01*
G01X0003943Y0009231D02*
G01X0003941Y0009242D01*
G01X0003941Y0009242D02*
G01X0003939Y0009261D01*
G01X0003939Y0009261D02*
G01X0003938Y0009287D01*
G01X0003938Y0009287D02*
G01X0003937Y0009319D01*
G01X0003937Y0009319D02*
G01X0003936Y0009356D01*
G01X0003936Y0009356D02*
G01X0003935Y0009397D01*
G01X0003935Y0009397D02*
G01X0003934Y0009439D01*
G01X0003934Y0009439D02*
G01X0003934Y0009482D01*
G01X0003934Y0009482D02*
G01X0003934Y0009525D01*
G01X0003934Y0009525D02*
G01X0003934Y0009535D01*
G01X0003934Y0009535D02*
G01X0003934Y0009580D01*
G01X0003934Y0009580D02*
G01X0003935Y0009616D01*
G01X0003935Y0009616D02*
G01X0003936Y0009644D01*
G01X0003936Y0009644D02*
G01X0003937Y0009665D01*
G01X0003937Y0009665D02*
G01X0003939Y0009682D01*
G01X0003939Y0009682D02*
G01X0003941Y0009694D01*
G01X0003941Y0009694D02*
G01X0003943Y0009701D01*
G01X0003943Y0009701D02*
G01X0003955Y0009725D01*
G01X0003955Y0009725D02*
G01X0003971Y0009741D01*
G01X0003971Y0009741D02*
G01X0003991Y0009749D01*
G01X0003991Y0009749D02*
G01X0003999Y0009750D01*
G01X0003999Y0009750D02*
G01X0004012Y0009749D01*
G36*
G01X0004324Y0009377D02*
G01X0004337Y0009373D01*
G01X0004349Y0009365D01*
G01X0004353Y0009362D01*
G01X0004373Y0009343D01*
G01X0004387Y0009321D01*
G01X0004394Y0009300D01*
G01X0004394Y0009280D01*
G01X0004387Y0009264D01*
G01X0004384Y0009261D01*
G01X0004361Y0009245D01*
G01X0004334Y0009234D01*
G01X0004305Y0009228D01*
G01X0004277Y0009228D01*
G01X0004253Y0009234D01*
G01X0004252Y0009234D01*
G01X0004232Y0009247D01*
G01X0004220Y0009262D01*
G01X0004215Y0009283D01*
G01X0004215Y0009293D01*
G01X0004219Y0009317D01*
G01X0004230Y0009339D01*
G01X0004251Y0009359D01*
G01X0004258Y0009364D01*
G01X0004272Y0009373D01*
G01X0004287Y0009377D01*
G01X0004305Y0009378D01*
G01X0004324Y0009377D01*
G01X0004324Y0009377D01*
G37*
G01X0004324Y0009377D02*
G01X0004337Y0009373D01*
G01X0004337Y0009373D02*
G01X0004349Y0009365D01*
G01X0004349Y0009365D02*
G01X0004353Y0009362D01*
G01X0004353Y0009362D02*
G01X0004373Y0009343D01*
G01X0004373Y0009343D02*
G01X0004387Y0009321D01*
G01X0004387Y0009321D02*
G01X0004394Y0009300D01*
G01X0004394Y0009300D02*
G01X0004394Y0009280D01*
G01X0004394Y0009280D02*
G01X0004387Y0009264D01*
G01X0004387Y0009264D02*
G01X0004384Y0009261D01*
G01X0004384Y0009261D02*
G01X0004361Y0009245D01*
G01X0004361Y0009245D02*
G01X0004334Y0009234D01*
G01X0004334Y0009234D02*
G01X0004305Y0009228D01*
G01X0004305Y0009228D02*
G01X0004277Y0009228D01*
G01X0004277Y0009228D02*
G01X0004253Y0009234D01*
G01X0004253Y0009234D02*
G01X0004252Y0009234D01*
G01X0004252Y0009234D02*
G01X0004232Y0009247D01*
G01X0004232Y0009247D02*
G01X0004220Y0009262D01*
G01X0004220Y0009262D02*
G01X0004215Y0009283D01*
G01X0004215Y0009283D02*
G01X0004215Y0009293D01*
G01X0004215Y0009293D02*
G01X0004219Y0009317D01*
G01X0004219Y0009317D02*
G01X0004230Y0009339D01*
G01X0004230Y0009339D02*
G01X0004251Y0009359D01*
G01X0004251Y0009359D02*
G01X0004258Y0009364D01*
G01X0004258Y0009364D02*
G01X0004272Y0009373D01*
G01X0004272Y0009373D02*
G01X0004287Y0009377D01*
G01X0004287Y0009377D02*
G01X0004305Y0009378D01*
G01X0004305Y0009378D02*
G01X0004324Y0009377D01*
G36*
G01X0006971Y0009927D02*
G01X0006996Y0009917D01*
G01X0007021Y0009903D01*
G01X0007045Y0009887D01*
G01X0007065Y0009869D01*
G01X0007079Y0009850D01*
G01X0007084Y0009839D01*
G01X0007087Y0009820D01*
G01X0007082Y0009806D01*
G01X0007069Y0009795D01*
G01X0007068Y0009795D01*
G01X0007047Y0009786D01*
G01X0007027Y0009787D01*
G01X0007015Y0009793D01*
G01X0007003Y0009802D01*
G01X0006989Y0009813D01*
G01X0006986Y0009816D01*
G01X0006972Y0009826D01*
G01X0006954Y0009837D01*
G01X0006940Y0009845D01*
G01X0006925Y0009854D01*
G01X0006913Y0009862D01*
G01X0006908Y0009868D01*
G01X0006905Y0009888D01*
G01X0006909Y0009907D01*
G01X0006921Y0009921D01*
G01X0006939Y0009929D01*
G01X0006949Y0009930D01*
G01X0006971Y0009927D01*
G01X0006971Y0009927D01*
G37*
G01X0006971Y0009927D02*
G01X0006996Y0009917D01*
G01X0006996Y0009917D02*
G01X0007021Y0009903D01*
G01X0007021Y0009903D02*
G01X0007045Y0009887D01*
G01X0007045Y0009887D02*
G01X0007065Y0009869D01*
G01X0007065Y0009869D02*
G01X0007079Y0009850D01*
G01X0007079Y0009850D02*
G01X0007084Y0009839D01*
G01X0007084Y0009839D02*
G01X0007087Y0009820D01*
G01X0007087Y0009820D02*
G01X0007082Y0009806D01*
G01X0007082Y0009806D02*
G01X0007069Y0009795D01*
G01X0007069Y0009795D02*
G01X0007068Y0009795D01*
G01X0007068Y0009795D02*
G01X0007047Y0009786D01*
G01X0007047Y0009786D02*
G01X0007027Y0009787D01*
G01X0007027Y0009787D02*
G01X0007015Y0009793D01*
G01X0007015Y0009793D02*
G01X0007003Y0009802D01*
G01X0007003Y0009802D02*
G01X0006989Y0009813D01*
G01X0006989Y0009813D02*
G01X0006986Y0009816D01*
G01X0006986Y0009816D02*
G01X0006972Y0009826D01*
G01X0006972Y0009826D02*
G01X0006954Y0009837D01*
G01X0006954Y0009837D02*
G01X0006940Y0009845D01*
G01X0006940Y0009845D02*
G01X0006925Y0009854D01*
G01X0006925Y0009854D02*
G01X0006913Y0009862D01*
G01X0006913Y0009862D02*
G01X0006908Y0009868D01*
G01X0006908Y0009868D02*
G01X0006905Y0009888D01*
G01X0006905Y0009888D02*
G01X0006909Y0009907D01*
G01X0006909Y0009907D02*
G01X0006921Y0009921D01*
G01X0006921Y0009921D02*
G01X0006939Y0009929D01*
G01X0006939Y0009929D02*
G01X0006949Y0009930D01*
G01X0006949Y0009930D02*
G01X0006971Y0009927D01*
G36*
G01X0005973Y0009982D02*
G01X0005989Y0009973D01*
G01X0006003Y0009955D01*
G01X0006008Y0009947D01*
G01X0006016Y0009932D01*
G01X0006019Y0009918D01*
G01X0006018Y0009902D01*
G01X0006018Y0009899D01*
G01X0006015Y0009880D01*
G01X0006011Y0009868D01*
G01X0006005Y0009861D01*
G01X0005997Y0009856D01*
G01X0005983Y0009851D01*
G01X0005970Y0009852D01*
G01X0005954Y0009861D01*
G01X0005946Y0009866D01*
G01X0005925Y0009887D01*
G01X0005914Y0009908D01*
G01X0005912Y0009932D01*
G01X0005912Y0009938D01*
G01X0005919Y0009962D01*
G01X0005931Y0009977D01*
G01X0005948Y0009985D01*
G01X0005954Y0009985D01*
G01X0005973Y0009982D01*
G01X0005973Y0009982D01*
G37*
G01X0005973Y0009982D02*
G01X0005989Y0009973D01*
G01X0005989Y0009973D02*
G01X0006003Y0009955D01*
G01X0006003Y0009955D02*
G01X0006008Y0009947D01*
G01X0006008Y0009947D02*
G01X0006016Y0009932D01*
G01X0006016Y0009932D02*
G01X0006019Y0009918D01*
G01X0006019Y0009918D02*
G01X0006018Y0009902D01*
G01X0006018Y0009902D02*
G01X0006018Y0009899D01*
G01X0006018Y0009899D02*
G01X0006015Y0009880D01*
G01X0006015Y0009880D02*
G01X0006011Y0009868D01*
G01X0006011Y0009868D02*
G01X0006005Y0009861D01*
G01X0006005Y0009861D02*
G01X0005997Y0009856D01*
G01X0005997Y0009856D02*
G01X0005983Y0009851D01*
G01X0005983Y0009851D02*
G01X0005970Y0009852D01*
G01X0005970Y0009852D02*
G01X0005954Y0009861D01*
G01X0005954Y0009861D02*
G01X0005946Y0009866D01*
G01X0005946Y0009866D02*
G01X0005925Y0009887D01*
G01X0005925Y0009887D02*
G01X0005914Y0009908D01*
G01X0005914Y0009908D02*
G01X0005912Y0009932D01*
G01X0005912Y0009932D02*
G01X0005912Y0009938D01*
G01X0005912Y0009938D02*
G01X0005919Y0009962D01*
G01X0005919Y0009962D02*
G01X0005931Y0009977D01*
G01X0005931Y0009977D02*
G01X0005948Y0009985D01*
G01X0005948Y0009985D02*
G01X0005954Y0009985D01*
G01X0005954Y0009985D02*
G01X0005973Y0009982D01*
G36*
G01X0004020Y0009992D02*
G01X0004037Y0009984D01*
G01X0004061Y0009971D01*
G01X0004080Y0009956D01*
G01X0004091Y0009942D01*
G01X0004095Y0009931D01*
G01X0004094Y0009921D01*
G01X0004090Y0009906D01*
G01X0004090Y0009904D01*
G01X0004084Y0009891D01*
G01X0004075Y0009884D01*
G01X0004071Y0009883D01*
G01X0004058Y0009880D01*
G01X0004050Y0009877D01*
G01X0004042Y0009878D01*
G01X0004028Y0009883D01*
G01X0004012Y0009889D01*
G01X0003991Y0009900D01*
G01X0003978Y0009910D01*
G01X0003971Y0009921D01*
G01X0003968Y0009937D01*
G01X0003968Y0009953D01*
G01X0003970Y0009976D01*
G01X0003975Y0009991D01*
G01X0003984Y0009999D01*
G01X0003999Y0009999D01*
G01X0004020Y0009992D01*
G01X0004020Y0009992D01*
G37*
G01X0004020Y0009992D02*
G01X0004037Y0009984D01*
G01X0004037Y0009984D02*
G01X0004061Y0009971D01*
G01X0004061Y0009971D02*
G01X0004080Y0009956D01*
G01X0004080Y0009956D02*
G01X0004091Y0009942D01*
G01X0004091Y0009942D02*
G01X0004095Y0009931D01*
G01X0004095Y0009931D02*
G01X0004094Y0009921D01*
G01X0004094Y0009921D02*
G01X0004090Y0009906D01*
G01X0004090Y0009906D02*
G01X0004090Y0009904D01*
G01X0004090Y0009904D02*
G01X0004084Y0009891D01*
G01X0004084Y0009891D02*
G01X0004075Y0009884D01*
G01X0004075Y0009884D02*
G01X0004071Y0009883D01*
G01X0004071Y0009883D02*
G01X0004058Y0009880D01*
G01X0004058Y0009880D02*
G01X0004050Y0009877D01*
G01X0004050Y0009877D02*
G01X0004042Y0009878D01*
G01X0004042Y0009878D02*
G01X0004028Y0009883D01*
G01X0004028Y0009883D02*
G01X0004012Y0009889D01*
G01X0004012Y0009889D02*
G01X0003991Y0009900D01*
G01X0003991Y0009900D02*
G01X0003978Y0009910D01*
G01X0003978Y0009910D02*
G01X0003971Y0009921D01*
G01X0003971Y0009921D02*
G01X0003968Y0009937D01*
G01X0003968Y0009937D02*
G01X0003968Y0009953D01*
G01X0003968Y0009953D02*
G01X0003970Y0009976D01*
G01X0003970Y0009976D02*
G01X0003975Y0009991D01*
G01X0003975Y0009991D02*
G01X0003984Y0009999D01*
G01X0003984Y0009999D02*
G01X0003999Y0009999D01*
G01X0003999Y0009999D02*
G01X0004020Y0009992D01*
M02*
