<?xml version="1.0" encoding="UTF-8" standalone="no"?>
<!-- Created with Inkscape (http://www.inkscape.org/) -->

<svg
   xmlns:dc="http://purl.org/dc/elements/1.1/"
   xmlns:cc="http://creativecommons.org/ns#"
   xmlns:rdf="http://www.w3.org/1999/02/22-rdf-syntax-ns#"
   xmlns:svg="http://www.w3.org/2000/svg"
   xmlns="http://www.w3.org/2000/svg"
   xmlns:sodipodi="http://sodipodi.sourceforge.net/DTD/sodipodi-0.dtd"
   xmlns:inkscape="http://www.inkscape.org/namespaces/inkscape"
   sodipodi:docname="idiotLogoVector.svg"
   id="svg6697"
   version="1.1"
   viewBox="0 0 25.999999 25.999999"
   height="2.5999999cm"
   width="2.5999999cm"
   inkscape:version="0.92.0 r15299">
  <defs
     id="defs6691" />
  <sodipodi:namedview
     inkscape:window-maximized="1"
     inkscape:window-y="-8"
     inkscape:window-x="-8"
     inkscape:window-height="705"
     inkscape:window-width="1366"
     units="cm"
     showgrid="false"
     inkscape:current-layer="g6689"
     inkscape:document-units="mm"
     inkscape:cy="70.678133"
     inkscape:cx="43.778134"
     inkscape:zoom="8.6001862"
     inkscape:pageshadow="2"
     inkscape:pageopacity="0.0"
     borderopacity="1.0"
     bordercolor="#666666"
     pagecolor="#ffffff"
     id="base" />
  <metadata
     id="metadata6694">
    <rdf:RDF>
      <cc:Work
         rdf:about="">
        <dc:format>image/svg+xml</dc:format>
        <dc:type
           rdf:resource="http://purl.org/dc/dcmitype/StillImage" />
        <dc:title></dc:title>
      </cc:Work>
    </rdf:RDF>
  </metadata>
  <g
     inkscape:label="Layer 1"
     inkscape:groupmode="layer"
     id="layer1"
     transform="translate(0,-271)">
    <g
       transform="matrix(0.13795038,0,0,0.13795038,-25.594198,250.75155)"
       style="display:inline;stroke-width:2.04582429"
       id="g6689">
      <g
         id="g7744">
        <path
           id="path6187"
           d="m 240.40194,180.53026 c -1.25214,2.15115 -0.54323,4.95287 -0.63176,7.44033 -0.13427,3.77272 -0.0993,7.55765 0.15352,11.32429 0.12903,1.9226 -0.51462,4.2387 0.69472,5.73889 0.30489,0.37821 0.92156,0.64808 1.3767,0.47824 0.88425,-0.32998 1.44804,-1.70308 1.4121,-2.45418 -0.8316,-17.38315 -0.54599,-10.59291 -0.0679,-19.31076 0.028,-0.5096 0.7078,-1.37691 0.52352,-2.06153 -0.25598,-0.95103 -1.08628,-2.01588 -2.06648,-2.11176 -0.56096,-0.0549 -1.11086,0.46936 -1.3944,0.95648 z"
           style="fill:#000000;fill-opacity:1;stroke:none;stroke-width:1.91796029px;stroke-linecap:butt;stroke-linejoin:miter;stroke-opacity:1" />
        <path
           id="path6189"
           d="m 241.6123,171.71113 c -0.90359,0.24569 -1.88227,-0.3063 -1.88227,-0.3063 0,0 -0.0899,0.35844 -0.48732,-1.42319 -0.14141,-0.634 0.4077,-1.14992 0.81358,-1.58368 0.32651,-0.34895 0.76375,-0.63002 1.22976,-0.7397 0.60029,-0.14129 1.32308,-0.18223 1.84464,0.14585 0.48807,0.30702 0.77621,0.92596 0.8659,1.49405 0.0536,0.33968 -0.0343,0.71711 -0.21749,1.00855 -0.22401,0.35646 -0.64421,0.54713 -0.99758,0.77718 -0.37055,0.24123 -1.16922,0.62724 -1.16922,0.62724 z"
           style="fill:#000000;fill-opacity:1;stroke:#000000;stroke-width:1.91796017px;stroke-linecap:butt;stroke-linejoin:miter;stroke-opacity:1" />
        <g
           style="stroke-width:1.94049001"
           transform="matrix(1.1115112,0,0,1,-21.445268,-2.9432563e-6)"
           id="g6209">
          <path
             style="fill:#000000;fill-opacity:1;stroke:none;stroke-width:1.81920934px;stroke-linecap:butt;stroke-linejoin:miter;stroke-opacity:1"
             d="m 192.31528,209.8318 c 0.20328,-8.56407 0.24835,-11.41861 0.59684,-17.26724 0.17172,-2.88199 0.18072,-5.51555 0.71541,-8.00568 0.0976,-0.45441 1.03253,-0.85644 1.49693,-0.8379 1.37024,0.0547 1.38873,0.73502 1.84104,2.02961 0.38278,1.09561 0.29566,1.77741 0.12831,2.92583 -1.0345,7.09908 -0.42035,12.61945 -0.78151,20.31553 -0.0418,0.89017 0.0807,2.71002 -0.71347,3.11441 -0.8641,0.44002 -1.63331,-0.012 -2.4476,-0.53851 -0.48267,-0.31208 -0.84959,-1.16144 -0.83595,-1.73605 z"
             id="path6181"
             inkscape:connector-curvature="0"
             sodipodi:nodetypes="ssssssssss" />
          <path
             style="fill:#230000;fill-opacity:1;stroke:none;stroke-width:1.82207417;stroke-linecap:butt;stroke-linejoin:miter;stroke-miterlimit:4;stroke-dasharray:none;stroke-opacity:1"
             d="m 194.55971,176.32671 c -0.70456,0.0107 -1.50614,-0.50668 -1.76618,-1.16159 -0.2759,-0.69485 0.1292,-1.5437 0.51809,-2.18222 0.58706,-0.96391 1.59381,-1.63687 2.56812,-2.20652 0.64903,-0.37947 1.36821,-0.76437 2.12001,-0.76986 0.51336,-0.004 1.13621,0.10221 1.45514,0.50449 0.47112,0.59427 0.55515,1.57532 0.23523,2.2629 -0.35929,0.77218 -1.4133,0.95086 -2.11418,1.43472 -1.01102,0.69797 -1.78782,2.09937 -3.01623,2.11808 z"
             id="path6183"
             inkscape:connector-curvature="0"
             sodipodi:nodetypes="aaaaaaaaa" />
        </g>
        <g
           style="stroke-width:2.04582429"
           transform="translate(-37.623146,27.070133)"
           id="g6357">
          <path
             style="fill:#000004;fill-opacity:1;stroke:none;stroke-width:1.91796029px;stroke-linecap:butt;stroke-linejoin:miter;stroke-opacity:1"
             d="m 259.24738,133.83527 c -0.15607,7.92165 1.76605,11.64788 1.29797,20.0161 -0.17262,3.08614 -6.37218,3.26503 -9.76053,5.10673 -1.89213,1.02844 -4.25581,2.1985 -5.641,3.84746 -0.52785,0.62834 -0.74735,1.26031 -0.95319,2.05471 -0.35989,1.38885 -0.18581,2.67348 0.48213,3.94325 0.72049,1.36968 2.37553,2.6026 3.81861,3.16179 2.17575,0.84308 6.8485,-0.66246 6.8485,-0.66246 2.0519,-1.15587 5.30278,-1.85415 5.30278,-1.85415 0,0 0.27865,4.87955 0.84491,8.78186 0.19693,1.35712 0.10006,2.62182 1.45939,2.80287 1.12293,0.14956 1.63766,0.0645 2.1482,-0.94677 0.71932,-1.42486 -0.55185,-8.47363 -0.57218,-10.06963 -0.0876,-6.87379 0.16012,-6.22443 0.15512,-11.17821 -10e-4,-1.23844 1.75159,-1.03328 1.70967,-2.29831 -0.0209,-0.63251 0.17414,-1.42678 -0.44161,-1.92573 -0.61575,-0.49896 -1.48744,-0.87463 -1.53791,-1.54975 -0.10095,-1.35024 -0.23602,-10.25775 -0.41438,-11.75184 -0.17836,-1.4941 -0.40003,-3.07477 -0.67418,-4.77135 -0.15728,-0.9733 0.0582,-3.0379 -0.38819,-3.91697 -0.28186,-0.55508 -0.81961,-0.99999 -1.43667,-1.08229 -0.9644,-0.1287 -2.22827,1.31996 -2.24744,2.29273 z"
             id="path6185"
             inkscape:connector-curvature="0"
             sodipodi:nodetypes="cssssssscsssssssssssssc" />
          <path
             style="fill:#ffffff;fill-opacity:1;stroke:#1d0000;stroke-width:1.91796029px;stroke-linecap:butt;stroke-linejoin:miter;stroke-opacity:1"
             d="m 260.96326,164.45129 c 0,0 0.94548,-5.82079 -1.09567,-5.12473 -3.56874,1.217 -3.9455,1.3219 -6.1979,1.85586 -2.07789,0.49259 -4.27216,1.87038 -5.14271,3.82036 -0.33063,0.74059 -0.32384,1.82455 0.22376,2.42281 0.79158,0.86482 2.2877,0.62234 3.46006,0.6313 1.71087,0.0131 3.48963,-0.17163 5.06291,-0.84397 1.41262,-0.60368 3.93374,-1.50598 3.68955,-2.76163 z"
             id="path6191"
             inkscape:connector-curvature="0"
             sodipodi:nodetypes="sssaaaas" />
        </g>
        <path
           id="path6193"
           d="m 254.37918,188.5118 c 1.04211,-2.30618 2.4918,-4.47347 4.2589,-6.28505 0.82732,-0.84816 1.76772,-1.69278 2.89208,-2.06649 2.20118,-0.7316 4.6847,-0.61381 6.95714,-0.14857 1.0142,0.20764 2.0206,0.63468 2.82913,1.28121 1.15554,0.92399 2.08876,2.18336 2.67559,3.54154 0.61843,1.43131 0.82942,3.05263 0.78528,4.6112 -0.0644,2.27496 -0.50545,4.62047 -1.52526,6.65505 -0.70284,1.40219 -1.81897,2.60934 -3.04562,3.58681 -1.48823,1.18592 -3.19278,2.29972 -5.0668,2.63033 -1.66233,0.29327 -3.41388,-0.13983 -5.02154,-0.6544 -1.29052,-0.41306 -2.584,-1.00166 -3.58681,-1.91295 -0.9708,-0.8822 -1.62694,-2.08788 -2.17473,-3.27979 -0.5437,-1.18302 -1.04987,-2.45612 -1.06472,-3.75801 -0.0165,-1.44635 0.49173,-2.88277 1.08736,-4.20088 z"
           style="fill:#000003;fill-opacity:1;stroke:#000000;stroke-width:1.91796029px;stroke-linecap:butt;stroke-linejoin:miter;stroke-opacity:1" />
        <path
           id="path6195"
           d="m 261.02609,197.35068 c 1.54868,0.32452 3.20231,0.18813 4.72933,-0.23784 0.92896,-0.25911 1.94243,-0.60578 2.57618,-1.37644 1.38033,-1.67859 1.61029,-4.14959 2.06093,-6.33165 0.18598,-0.90054 0.44628,-1.85298 0.25764,-2.75289 -0.10946,-0.52213 -0.41506,-1.00214 -0.77286,-1.37645 -0.49474,-0.51753 -1.14152,-0.88398 -1.80333,-1.10117 -1.07032,-0.35124 -2.26172,-0.56074 -3.34902,-0.27528 -1.57346,0.41309 -2.88089,1.63977 -4.12189,2.7529 -0.8849,0.79369 -1.75906,1.67278 -2.31857,2.75289 -0.60552,1.16895 -0.99318,2.51856 -1.03045,3.85405 -0.0236,0.84564 0.0189,1.81847 0.51524,2.47761 0.75022,0.99629 2.08246,1.36819 3.2568,1.61427 z"
           style="fill:#fffffc;fill-opacity:1;stroke:#fffffa;stroke-width:1.91796041px;stroke-linecap:butt;stroke-linejoin:miter;stroke-opacity:1" />
        <path
           id="path6197"
           d="m 283.18192,182.61939 c 1.81401,-1.93281 0.59875,-5.08435 1.37176,-7.50825 0.38571,-1.20946 0.6105,-2.66942 1.61087,-3.45099 0.58803,-0.45942 1.51091,-0.72063 2.19737,-0.42801 0.67671,0.28846 1.30041,1.12683 1.1956,1.85495 -0.45697,3.17459 -3.84135,11.23625 -0.4655,10.33526 2.88447,-0.76985 6.97017,-0.88418 10.1789,-1.15528 1.06245,-0.0898 2.4775,0.73534 2.65297,1.78704 0.13622,0.81649 -0.76764,1.5907 -1.49769,1.98087 -1.86938,0.99907 -4.23463,0.20796 -6.34802,0.37 -2.43866,0.18698 -7.3045,0.69474 -7.3045,0.69474 0,0 -0.0739,4.13563 0.0856,6.19449 0.13575,1.75226 0.10408,3.58191 0.74,5.22033 0.49758,1.28198 1.10508,2.77729 2.32825,3.40571 1.46235,0.7513 3.34203,0.31383 4.93098,-0.10824 1.89519,-0.50342 3.20964,-2.76547 5.17011,-2.80648 0.64636,-0.0135 1.5439,0.23771 1.74176,0.85319 0.25655,0.79803 -0.61266,1.60792 -1.19066,2.21505 -1.11516,1.17136 -2.62915,1.96996 -4.1556,2.50439 -1.72529,0.60405 -3.61457,0.86214 -5.4368,0.71737 -1.36414,-0.10839 -2.80271,-0.4033 -3.93418,-1.17297 -0.85569,-0.58206 -1.46082,-1.51295 -1.91792,-2.44142 -1.01027,-2.05209 -1.31516,-4.394 -1.69154,-6.65011 -0.43745,-2.62226 0.49118,-6.04281 -0.64945,-7.94901 0,0 -3.43739,1.13769 -4.68196,0.19384 -0.88643,-0.67224 -1.34912,-2.30052 -0.76654,-3.24829 1.04798,-1.7049 4.46667,0.051 5.8362,-1.40818 z"
           style="fill:#00000b;fill-opacity:1;stroke:none;stroke-width:1.91796029px;stroke-linecap:butt;stroke-linejoin:miter;stroke-opacity:1" />
        <path
           id="path6199"
           d="m 310.93515,195.54333 c 0.73081,-0.9044 1.93737,-1.6847 3.09737,-1.60452 1.48046,0.10234 3.00442,1.22825 3.63371,2.57221 0.42841,0.91495 0.34351,2.19604 -0.23912,3.02139 -0.60422,0.85593 -2.86944,1.28279 -2.86944,1.28279 v 0 c 0,0 -3.7871,-0.64648 -4.47398,-2.15209 -0.44741,-0.98072 0.17395,-2.28134 0.85146,-3.11978 z"
           style="display:inline;fill:#00000b;fill-opacity:1;stroke:none;stroke-width:1.91796029px;stroke-linecap:butt;stroke-linejoin:miter;stroke-opacity:1" />
        <path
           id="path6201"
           d="m 326.64775,199.07433 c -0.40842,-4.4718 -0.38061,-8.97588 -0.77548,-13.44889 -0.10416,-1.17995 -0.42931,-2.34418 -0.42012,-3.52868 0.0104,-1.33792 -0.4887,-3.11801 0.53636,-3.97788 0.65744,-0.55149 1.85286,-0.36284 2.57221,0.10503 0.93584,0.60868 1.2349,1.91478 1.48164,3.00354 0.27547,1.21553 -0.064,2.49252 -0.0469,3.73875 0.0174,1.26652 0.1025,2.40573 0.15195,3.79688 0.25184,7.08456 -0.58571,6.51082 -0.23912,11.28558 0.0752,1.03653 -2.30358,0.89642 -3.10858,0.23913 -0.31576,-0.25782 -0.11486,-0.80751 -0.15194,-1.21346 z"
           style="fill:#00000b;fill-opacity:1;stroke:none;stroke-width:1.91796029px;stroke-linecap:butt;stroke-linejoin:miter;stroke-opacity:1" />
        <path
           id="path6189-4"
           d="m 325.84484,172.26223 c -1.05547,0.27687 -2.19865,-0.34516 -2.19865,-0.34516 0,0 -0.10501,0.40392 -0.56923,-1.60379 -0.16518,-0.71445 0.47623,-1.29584 0.95033,-1.78464 0.38139,-0.39323 0.9235,-0.62536 1.43646,-0.83356 0.81413,-0.33044 1.80458,-1.09394 2.55697,-0.64018 0.7312,0.44098 0.60055,1.63433 0.60917,2.48817 0.004,0.38817 -0.0401,0.80811 -0.25405,1.13653 -0.26166,0.40169 -0.75249,0.61656 -1.16525,0.8758 -0.43284,0.27184 -1.36575,0.70683 -1.36575,0.70683 z"
           style="display:inline;fill:#000000;fill-opacity:1;stroke:#000000;stroke-width:1.91796017px;stroke-linecap:butt;stroke-linejoin:miter;stroke-opacity:1" />
        <path
           id="path6205"
           d="m 341.10003,191.90735 c -0.11645,-1.70593 -0.0101,-3.54167 0.74642,-5.0751 0.81997,-1.66201 2.35053,-2.93212 3.87285,-3.98908 0.75512,-0.52428 1.62064,-0.94508 2.52529,-1.10842 2.00446,-0.36191 4.20618,-0.40342 6.1009,0.34415 1.88871,0.7452 3.60717,2.17646 4.67739,3.90191 0.88092,1.42026 1.12135,3.20557 1.16654,4.87623 0.0451,1.66536 -0.14415,3.43103 -0.89836,4.9165 -0.77385,1.52414 -2.03495,2.88988 -3.52869,3.7209 -1.84914,1.02873 -4.11126,1.48976 -6.21715,1.28279 -1.90067,-0.1868 -3.75467,-1.07681 -5.27851,-2.22805 -0.82531,-0.62351 -1.46504,-1.50245 -1.94202,-2.42027 -0.67566,-1.30012 -1.12487,-2.75976 -1.22466,-4.22156 z"
           style="fill:#000000;fill-opacity:1;stroke:none;stroke-width:1.91796029px;stroke-linecap:butt;stroke-linejoin:miter;stroke-opacity:1" />
        <path
           id="path6203"
           d="m 344.4492,194.54571 c -0.56291,-1.42324 -0.36769,-3.08146 0,-4.56116 0.30833,-1.24075 0.88864,-2.48545 1.80045,-3.42086 1.18884,-1.21963 2.75266,-2.50186 4.50109,-2.56566 1.78796,-0.0652 3.57365,1.04385 4.80115,2.2806 1.04518,1.05305 1.66822,2.5491 1.80046,3.991 0.15158,1.65325 -0.1167,3.54454 -1.20031,4.84622 -1.1099,1.33329 -3.03757,1.9936 -4.80117,2.28057 -1.58968,0.25867 -3.37668,0.14848 -4.80115,-0.57014 -0.93908,-0.47374 -1.72652,-1.33498 -2.10052,-2.28057 z"
           style="display:inline;fill:#fffffa;fill-opacity:1;stroke:#000000;stroke-width:1.91796052px;stroke-linecap:butt;stroke-linejoin:miter;stroke-opacity:1" />
      </g>
    </g>
  </g>
</svg>
