G04 EAGLE Gerber X2 export*
%TF.Part,Single*%
%TF.FileFunction,Copper,L2,Bot,Mixed*%
%TF.FilePolarity,Positive*%
%TF.GenerationSoftware,Autodesk,EAGLE,8.7.0*%
%TF.CreationDate,2018-03-12T13:44:09Z*%
G75*
%MOMM*%
%FSLAX34Y34*%
%LPD*%
%AMOC8*
5,1,8,0,0,1.08239X$1,22.5*%
G01*
%ADD10C,12.700000*%
%ADD11R,2.540000X5.080000*%
%ADD12C,1.320800*%
%ADD13C,0.756400*%
%ADD14C,0.152400*%

G36*
X122539Y-1307D02*
X122539Y-1307D01*
X122557Y-1308D01*
X143293Y-473D01*
X143325Y-466D01*
X143414Y-458D01*
X163747Y3693D01*
X163778Y3705D01*
X163865Y3727D01*
X183269Y11086D01*
X183297Y11103D01*
X183380Y11139D01*
X201352Y21515D01*
X201377Y21536D01*
X201453Y21585D01*
X217528Y34709D01*
X217549Y34734D01*
X217616Y34794D01*
X231377Y50328D01*
X231395Y50355D01*
X231451Y50426D01*
X242542Y67965D01*
X242555Y67996D01*
X242599Y68074D01*
X250734Y87166D01*
X250741Y87198D01*
X250772Y87282D01*
X253390Y97901D01*
X253399Y98012D01*
X253411Y98122D01*
X253408Y98134D01*
X253409Y98146D01*
X253382Y98253D01*
X253359Y98363D01*
X253352Y98373D01*
X253350Y98384D01*
X253290Y98478D01*
X253232Y98574D01*
X253223Y98582D01*
X253217Y98592D01*
X253130Y98661D01*
X253045Y98734D01*
X253034Y98738D01*
X253025Y98746D01*
X252921Y98784D01*
X252817Y98826D01*
X252803Y98827D01*
X252794Y98830D01*
X252767Y98831D01*
X252651Y98844D01*
X226327Y98844D01*
X225434Y99737D01*
X225434Y151800D01*
X226327Y152694D01*
X226875Y152694D01*
X226897Y152697D01*
X226920Y152695D01*
X227018Y152717D01*
X227117Y152733D01*
X227138Y152744D01*
X227160Y152749D01*
X227246Y152802D01*
X227335Y152848D01*
X227350Y152865D01*
X227370Y152877D01*
X227435Y152954D01*
X227504Y153027D01*
X227514Y153048D01*
X227528Y153065D01*
X227565Y153159D01*
X227608Y153250D01*
X227610Y153273D01*
X227619Y153294D01*
X227624Y153394D01*
X227635Y153494D01*
X227630Y153517D01*
X227631Y153540D01*
X227594Y153703D01*
X225142Y160804D01*
X225134Y160819D01*
X225131Y160836D01*
X225076Y160927D01*
X225025Y161021D01*
X225013Y161033D01*
X225004Y161047D01*
X224924Y161116D01*
X224846Y161189D01*
X224830Y161196D01*
X224817Y161207D01*
X224718Y161247D01*
X224622Y161291D01*
X224605Y161292D01*
X224589Y161299D01*
X224423Y161317D01*
X223354Y161317D01*
X220245Y164426D01*
X220245Y168822D01*
X223354Y171931D01*
X227750Y171931D01*
X230859Y168822D01*
X230859Y164426D01*
X229613Y163180D01*
X229558Y163104D01*
X229498Y163032D01*
X229487Y163004D01*
X229470Y162981D01*
X229442Y162890D01*
X229407Y162803D01*
X229406Y162774D01*
X229397Y162745D01*
X229400Y162651D01*
X229395Y162557D01*
X229403Y162521D01*
X229404Y162500D01*
X229415Y162469D01*
X229432Y162394D01*
X232604Y153206D01*
X232612Y153192D01*
X232616Y153175D01*
X232670Y153084D01*
X232721Y152990D01*
X232733Y152978D01*
X232742Y152964D01*
X232823Y152895D01*
X232901Y152822D01*
X232916Y152815D01*
X232929Y152804D01*
X233028Y152764D01*
X233124Y152720D01*
X233141Y152718D01*
X233157Y152712D01*
X233324Y152694D01*
X252990Y152694D01*
X253553Y152130D01*
X253586Y152107D01*
X253613Y152077D01*
X253685Y152035D01*
X253753Y151987D01*
X253791Y151975D01*
X253827Y151955D01*
X253908Y151939D01*
X253988Y151915D01*
X254028Y151916D01*
X254068Y151908D01*
X254150Y151919D01*
X254234Y151921D01*
X254272Y151935D01*
X254312Y151940D01*
X254387Y151977D01*
X254465Y152005D01*
X254496Y152031D01*
X254533Y152048D01*
X254592Y152107D01*
X254657Y152159D01*
X254679Y152193D01*
X254707Y152221D01*
X254745Y152296D01*
X254790Y152366D01*
X254800Y152405D01*
X254818Y152441D01*
X254830Y152524D01*
X254850Y152604D01*
X254847Y152645D01*
X254853Y152685D01*
X254831Y152847D01*
X254831Y152850D01*
X254831Y152851D01*
X250772Y169316D01*
X250759Y169346D01*
X250747Y169389D01*
X250741Y169413D01*
X250737Y169420D01*
X250734Y169432D01*
X242599Y188524D01*
X242582Y188552D01*
X242542Y188632D01*
X231451Y206172D01*
X231429Y206197D01*
X231405Y206231D01*
X231398Y206242D01*
X231395Y206245D01*
X231377Y206270D01*
X217616Y221803D01*
X217590Y221824D01*
X217528Y221888D01*
X201453Y235013D01*
X201424Y235029D01*
X201352Y235083D01*
X183380Y245459D01*
X183349Y245471D01*
X183269Y245511D01*
X163865Y252870D01*
X163833Y252877D01*
X163747Y252905D01*
X143414Y257056D01*
X143381Y257057D01*
X143293Y257070D01*
X122557Y257906D01*
X122524Y257902D01*
X122434Y257901D01*
X101833Y255400D01*
X101802Y255390D01*
X101713Y255375D01*
X81780Y249601D01*
X81751Y249587D01*
X81666Y249558D01*
X62917Y240661D01*
X62890Y240643D01*
X62811Y240600D01*
X45732Y228811D01*
X45708Y228789D01*
X45637Y228734D01*
X30670Y214358D01*
X30650Y214332D01*
X30589Y214266D01*
X18122Y197676D01*
X18107Y197647D01*
X18056Y197573D01*
X8412Y179197D01*
X8402Y179166D01*
X8364Y179084D01*
X1793Y159400D01*
X1787Y159368D01*
X1763Y159281D01*
X836Y153577D01*
X836Y153496D01*
X827Y153415D01*
X836Y153374D01*
X837Y153331D01*
X862Y153254D01*
X880Y153175D01*
X902Y153138D01*
X915Y153098D01*
X964Y153034D01*
X1006Y152964D01*
X1038Y152936D01*
X1064Y152902D01*
X1131Y152857D01*
X1193Y152804D01*
X1232Y152788D01*
X1268Y152764D01*
X1346Y152742D01*
X1421Y152712D01*
X1477Y152706D01*
X1505Y152698D01*
X1533Y152700D01*
X1588Y152694D01*
X19959Y152694D01*
X19976Y152696D01*
X19992Y152694D01*
X20097Y152716D01*
X20202Y152733D01*
X20216Y152741D01*
X20233Y152744D01*
X20325Y152799D01*
X20419Y152848D01*
X20431Y152860D01*
X20445Y152869D01*
X20515Y152949D01*
X20589Y153027D01*
X20596Y153042D01*
X20607Y153054D01*
X20679Y153206D01*
X24564Y164429D01*
X24566Y164438D01*
X24566Y164439D01*
X24567Y164444D01*
X24580Y164522D01*
X24604Y164613D01*
X24601Y164642D01*
X24606Y164671D01*
X24592Y164764D01*
X24584Y164859D01*
X24573Y164885D01*
X24569Y164914D01*
X24525Y164998D01*
X24488Y165085D01*
X24465Y165113D01*
X24455Y165132D01*
X24432Y165155D01*
X24383Y165216D01*
X23141Y166458D01*
X23141Y170854D01*
X26250Y173963D01*
X30646Y173963D01*
X33755Y170854D01*
X33755Y166458D01*
X30646Y163349D01*
X29573Y163349D01*
X29556Y163347D01*
X29540Y163349D01*
X29435Y163327D01*
X29330Y163310D01*
X29315Y163302D01*
X29299Y163298D01*
X29207Y163244D01*
X29112Y163194D01*
X29101Y163182D01*
X29087Y163174D01*
X29017Y163094D01*
X28943Y163016D01*
X28936Y163001D01*
X28925Y162989D01*
X28853Y162837D01*
X25691Y153704D01*
X25687Y153681D01*
X25677Y153660D01*
X25666Y153560D01*
X25649Y153462D01*
X25653Y153438D01*
X25650Y153415D01*
X25671Y153317D01*
X25687Y153218D01*
X25697Y153198D01*
X25702Y153175D01*
X25754Y153089D01*
X25800Y153000D01*
X25816Y152984D01*
X25828Y152964D01*
X25905Y152899D01*
X25977Y152829D01*
X25998Y152819D01*
X26015Y152804D01*
X26109Y152766D01*
X26199Y152724D01*
X26222Y152721D01*
X26243Y152712D01*
X26410Y152694D01*
X26930Y152694D01*
X27823Y151800D01*
X27823Y99737D01*
X26930Y98844D01*
X2410Y98844D01*
X2330Y98831D01*
X2249Y98827D01*
X2209Y98811D01*
X2167Y98804D01*
X2096Y98767D01*
X2020Y98737D01*
X1987Y98709D01*
X1950Y98689D01*
X1894Y98631D01*
X1832Y98578D01*
X1810Y98542D01*
X1780Y98511D01*
X1746Y98437D01*
X1704Y98368D01*
X1695Y98327D01*
X1677Y98288D01*
X1668Y98207D01*
X1650Y98128D01*
X1653Y98072D01*
X1650Y98043D01*
X1656Y98016D01*
X1659Y97961D01*
X1763Y97317D01*
X1774Y97286D01*
X1793Y97198D01*
X8364Y77513D01*
X8379Y77484D01*
X8412Y77401D01*
X18056Y59025D01*
X18076Y58999D01*
X18122Y58922D01*
X30589Y42331D01*
X30612Y42309D01*
X30670Y42240D01*
X45637Y27864D01*
X45664Y27845D01*
X45732Y27786D01*
X62811Y15997D01*
X62840Y15983D01*
X62917Y15936D01*
X81666Y7040D01*
X81697Y7031D01*
X81780Y6996D01*
X101713Y1223D01*
X101746Y1219D01*
X101833Y1198D01*
X122434Y-1303D01*
X122465Y-1302D01*
X122526Y-1309D01*
X122527Y-1309D01*
X122539Y-1307D01*
G37*
%LPC*%
G36*
X128152Y127292D02*
X128152Y127292D01*
X128152Y191810D01*
X128987Y191810D01*
X133693Y191473D01*
X138362Y190802D01*
X142971Y189799D01*
X147497Y188470D01*
X151917Y186821D01*
X156209Y184862D01*
X160348Y182601D01*
X164317Y180051D01*
X168093Y177224D01*
X171659Y174135D01*
X174994Y170799D01*
X178083Y167234D01*
X180910Y163458D01*
X183461Y159489D01*
X185721Y155349D01*
X187681Y151058D01*
X189330Y146638D01*
X190659Y142112D01*
X191661Y137502D01*
X192333Y132833D01*
X192669Y128127D01*
X192669Y127292D01*
X128152Y127292D01*
G37*
%LPD*%
%LPC*%
G36*
X60588Y127292D02*
X60588Y127292D01*
X60588Y128127D01*
X60924Y132833D01*
X61596Y137502D01*
X62598Y142112D01*
X63927Y146638D01*
X65576Y151058D01*
X67536Y155349D01*
X69796Y159489D01*
X72347Y163458D01*
X75174Y167234D01*
X78263Y170799D01*
X81599Y174135D01*
X85164Y177224D01*
X88940Y180051D01*
X92909Y182601D01*
X97048Y184862D01*
X101340Y186821D01*
X105760Y188470D01*
X110286Y189799D01*
X114895Y190802D01*
X119565Y191473D01*
X124270Y191810D01*
X125105Y191810D01*
X125105Y127292D01*
X60588Y127292D01*
G37*
%LPD*%
%LPC*%
G36*
X128152Y59728D02*
X128152Y59728D01*
X128152Y124246D01*
X192669Y124246D01*
X192669Y123410D01*
X192333Y118705D01*
X191661Y114035D01*
X190659Y109426D01*
X189330Y104900D01*
X187681Y100480D01*
X185721Y96189D01*
X183461Y92049D01*
X180910Y88080D01*
X178083Y84304D01*
X174994Y80739D01*
X171659Y77403D01*
X168093Y74314D01*
X164317Y71487D01*
X160348Y68937D01*
X156209Y66676D01*
X151917Y64716D01*
X147497Y63068D01*
X142971Y61739D01*
X138362Y60736D01*
X133693Y60065D01*
X128987Y59728D01*
X128152Y59728D01*
G37*
%LPD*%
%LPC*%
G36*
X124270Y59728D02*
X124270Y59728D01*
X119565Y60065D01*
X114895Y60736D01*
X110286Y61739D01*
X105760Y63068D01*
X101340Y64716D01*
X97048Y66676D01*
X92909Y68937D01*
X88940Y71487D01*
X85164Y74314D01*
X81599Y77403D01*
X78263Y80739D01*
X75174Y84304D01*
X72347Y88080D01*
X69796Y92049D01*
X67536Y96189D01*
X65576Y100480D01*
X63927Y104900D01*
X62598Y109426D01*
X61596Y114035D01*
X60924Y118705D01*
X60588Y123410D01*
X60588Y124246D01*
X125105Y124246D01*
X125105Y59728D01*
X124270Y59728D01*
G37*
%LPD*%
%LPC*%
G36*
X151616Y28160D02*
X151616Y28160D01*
X148628Y29398D01*
X146341Y31684D01*
X145104Y34672D01*
X145104Y51114D01*
X146341Y54102D01*
X148628Y56388D01*
X151616Y57626D01*
X154849Y57626D01*
X157837Y56388D01*
X160124Y54102D01*
X161361Y51114D01*
X161361Y34672D01*
X160124Y31684D01*
X157837Y29398D01*
X154849Y28160D01*
X151616Y28160D01*
G37*
%LPD*%
%LPC*%
G36*
X126216Y28160D02*
X126216Y28160D01*
X123228Y29398D01*
X120941Y31684D01*
X119704Y34672D01*
X119704Y51114D01*
X120941Y54102D01*
X123228Y56388D01*
X126216Y57626D01*
X129449Y57626D01*
X132437Y56388D01*
X134724Y54102D01*
X135961Y51114D01*
X135961Y34672D01*
X134724Y31684D01*
X132437Y29398D01*
X129449Y28160D01*
X126216Y28160D01*
G37*
%LPD*%
%LPC*%
G36*
X103956Y44416D02*
X103956Y44416D01*
X103956Y58518D01*
X105100Y58290D01*
X106764Y57601D01*
X108262Y56600D01*
X109536Y55327D01*
X110536Y53829D01*
X111226Y52164D01*
X111577Y50398D01*
X111577Y44416D01*
X103956Y44416D01*
G37*
%LPD*%
%LPC*%
G36*
X103956Y41370D02*
X103956Y41370D01*
X111577Y41370D01*
X111577Y35388D01*
X111226Y33622D01*
X110536Y31957D01*
X109536Y30459D01*
X108262Y29186D01*
X106764Y28185D01*
X105100Y27496D01*
X103956Y27268D01*
X103956Y41370D01*
G37*
%LPD*%
%LPC*%
G36*
X93288Y44416D02*
X93288Y44416D01*
X93288Y50398D01*
X93639Y52164D01*
X94329Y53829D01*
X95329Y55327D01*
X96603Y56600D01*
X98101Y57601D01*
X99765Y58290D01*
X100909Y58518D01*
X100909Y44416D01*
X93288Y44416D01*
G37*
%LPD*%
%LPC*%
G36*
X99765Y27496D02*
X99765Y27496D01*
X98101Y28185D01*
X96603Y29186D01*
X95329Y30459D01*
X94329Y31957D01*
X93639Y33622D01*
X93288Y35388D01*
X93288Y41370D01*
X100909Y41370D01*
X100909Y27268D01*
X99765Y27496D01*
G37*
%LPD*%
%LPC*%
G36*
X102432Y42892D02*
X102432Y42892D01*
X102432Y42894D01*
X102433Y42894D01*
X102433Y42892D01*
X102432Y42892D01*
G37*
%LPD*%
%LPC*%
G36*
X126628Y125768D02*
X126628Y125768D01*
X126628Y125770D01*
X126629Y125770D01*
X126629Y125768D01*
X126628Y125768D01*
G37*
%LPD*%
D10*
X126629Y125769D03*
D11*
X239659Y125769D03*
X13599Y125769D03*
D12*
X102433Y49497D02*
X102433Y36289D01*
X153233Y36289D02*
X153233Y49497D01*
X127833Y49497D02*
X127833Y36289D01*
D13*
X154432Y125984D03*
X28448Y168656D03*
D14*
X13599Y125769D01*
D13*
X225552Y166624D03*
D14*
X239659Y125769D01*
M02*
