G04 EAGLE Gerber X2 export*
%TF.Part,Single*%
%TF.FileFunction,Copper,L1,Top,Mixed*%
%TF.FilePolarity,Positive*%
%TF.GenerationSoftware,Autodesk,EAGLE,8.7.0*%
%TF.CreationDate,2018-03-13T06:50:33Z*%
G75*
%MOMM*%
%FSLAX34Y34*%
%LPD*%
%AMOC8*
5,1,8,0,0,1.08239X$1,22.5*%
G01*
%ADD10R,3.724963X3.555644*%
%ADD11R,3.555644X3.555644*%
%ADD12R,2.201113X1.947138*%
%ADD13R,3.555644X2.031794*%
%ADD14R,3.470981X3.640300*%
%ADD15R,4.910175X4.571544*%
%ADD16R,1.862481X1.015900*%
%ADD17R,1.608506X0.846581*%
%ADD18R,1.608503X0.846581*%
%ADD19R,0.635000X1.270000*%
%ADD20R,0.600000X0.550000*%
%ADD21R,1.600000X1.803000*%
%ADD22C,1.320800*%
%ADD23C,0.254000*%
%ADD24C,0.956400*%

G36*
X143155Y662D02*
X143155Y662D01*
X143187Y669D01*
X143276Y677D01*
X163429Y4791D01*
X163460Y4803D01*
X163547Y4825D01*
X182779Y12119D01*
X182807Y12135D01*
X182890Y12171D01*
X200702Y22456D01*
X200728Y22476D01*
X200803Y22525D01*
X216736Y35534D01*
X216757Y35558D01*
X216824Y35619D01*
X230464Y51014D01*
X230481Y51042D01*
X230537Y51112D01*
X241530Y68497D01*
X241543Y68527D01*
X241587Y68605D01*
X249649Y87528D01*
X249657Y87560D01*
X249688Y87644D01*
X254611Y107615D01*
X254613Y107647D01*
X254630Y107736D01*
X256285Y128238D01*
X256283Y128270D01*
X256285Y128360D01*
X254630Y148862D01*
X254622Y148894D01*
X254611Y148983D01*
X249688Y168954D01*
X249675Y168984D01*
X249662Y169027D01*
X249657Y169051D01*
X249653Y169058D01*
X249649Y169070D01*
X241587Y187993D01*
X241570Y188020D01*
X241530Y188101D01*
X230537Y205485D01*
X230515Y205510D01*
X230464Y205583D01*
X216824Y220979D01*
X216798Y221000D01*
X216736Y221064D01*
X200803Y234072D01*
X200775Y234089D01*
X200702Y234142D01*
X182890Y244426D01*
X182859Y244438D01*
X182779Y244479D01*
X163547Y251773D01*
X163515Y251779D01*
X163429Y251807D01*
X143276Y255921D01*
X143243Y255922D01*
X143155Y255936D01*
X122603Y256764D01*
X122570Y256760D01*
X122480Y256759D01*
X102062Y254280D01*
X102030Y254270D01*
X101942Y254255D01*
X82185Y248533D01*
X82156Y248519D01*
X82071Y248489D01*
X63488Y239672D01*
X63461Y239653D01*
X63382Y239610D01*
X46455Y227926D01*
X46431Y227903D01*
X46360Y227849D01*
X31526Y213600D01*
X31506Y213574D01*
X31444Y213509D01*
X19088Y197065D01*
X19073Y197036D01*
X19022Y196962D01*
X9464Y178749D01*
X9453Y178718D01*
X9416Y178636D01*
X2902Y159126D01*
X2897Y159094D01*
X2873Y159007D01*
X-426Y138705D01*
X-426Y138672D01*
X-436Y138583D01*
X-436Y118015D01*
X-431Y117982D01*
X-426Y117892D01*
X2873Y97590D01*
X2884Y97559D01*
X2902Y97471D01*
X9416Y77961D01*
X9431Y77932D01*
X9464Y77849D01*
X19022Y59636D01*
X19042Y59610D01*
X19088Y59533D01*
X31444Y43089D01*
X31468Y43066D01*
X31526Y42997D01*
X46360Y28749D01*
X46387Y28730D01*
X46455Y28672D01*
X63382Y16987D01*
X63412Y16973D01*
X63488Y16926D01*
X82071Y8109D01*
X82102Y8099D01*
X82185Y8065D01*
X101942Y2343D01*
X101975Y2339D01*
X102062Y2318D01*
X122481Y-161D01*
X122513Y-160D01*
X122603Y-166D01*
X143155Y662D01*
G37*
%LPC*%
G36*
X122526Y23250D02*
X122526Y23250D01*
X118978Y24719D01*
X116263Y27435D01*
X114793Y30983D01*
X114793Y46650D01*
X114793Y46654D01*
X114793Y46658D01*
X114773Y46777D01*
X114754Y46893D01*
X114752Y46897D01*
X114751Y46900D01*
X114679Y47052D01*
X109999Y54591D01*
X109997Y54593D01*
X109995Y54597D01*
X109890Y54727D01*
X109040Y55578D01*
X109040Y55918D01*
X109039Y55922D01*
X109040Y55926D01*
X109019Y56044D01*
X109000Y56161D01*
X108999Y56164D01*
X108998Y56168D01*
X108926Y56320D01*
X108746Y56609D01*
X109020Y57780D01*
X109020Y57783D01*
X109022Y57786D01*
X109040Y57953D01*
X109040Y77394D01*
X109037Y77414D01*
X109039Y77434D01*
X109017Y77535D01*
X109000Y77637D01*
X108991Y77654D01*
X108987Y77674D01*
X108934Y77763D01*
X108885Y77854D01*
X108871Y77868D01*
X108861Y77885D01*
X108782Y77952D01*
X108707Y78024D01*
X108689Y78032D01*
X108674Y78045D01*
X108578Y78084D01*
X108484Y78127D01*
X108464Y78129D01*
X108446Y78137D01*
X108279Y78155D01*
X104096Y78155D01*
X102310Y79941D01*
X102310Y100497D01*
X104096Y102283D01*
X105753Y102283D01*
X105824Y102294D01*
X105895Y102296D01*
X105944Y102314D01*
X105996Y102323D01*
X106059Y102356D01*
X106126Y102381D01*
X106167Y102413D01*
X106213Y102438D01*
X106262Y102490D01*
X106318Y102534D01*
X106347Y102578D01*
X106382Y102616D01*
X106413Y102681D01*
X106451Y102741D01*
X106464Y102792D01*
X106486Y102839D01*
X106494Y102910D01*
X106512Y102980D01*
X106507Y103032D01*
X106513Y103084D01*
X106498Y103154D01*
X106492Y103225D01*
X106472Y103273D01*
X106461Y103324D01*
X106424Y103386D01*
X106396Y103451D01*
X106351Y103507D01*
X106335Y103535D01*
X106317Y103550D01*
X106291Y103582D01*
X104467Y105406D01*
X104467Y106272D01*
X104464Y106291D01*
X104466Y106311D01*
X104444Y106412D01*
X104427Y106515D01*
X104418Y106532D01*
X104414Y106552D01*
X104361Y106641D01*
X104312Y106732D01*
X104298Y106746D01*
X104288Y106763D01*
X104209Y106830D01*
X104134Y106901D01*
X104116Y106910D01*
X104101Y106923D01*
X104005Y106961D01*
X103911Y107005D01*
X103891Y107007D01*
X103873Y107015D01*
X103706Y107033D01*
X79156Y107033D01*
X79136Y107030D01*
X79116Y107032D01*
X79015Y107010D01*
X78913Y106993D01*
X78895Y106984D01*
X78876Y106980D01*
X78787Y106927D01*
X78696Y106878D01*
X78682Y106864D01*
X78665Y106854D01*
X78597Y106775D01*
X78526Y106700D01*
X78518Y106682D01*
X78505Y106667D01*
X78466Y106570D01*
X78423Y106477D01*
X78420Y106457D01*
X78413Y106438D01*
X78395Y106272D01*
X78395Y90168D01*
X76609Y88382D01*
X24981Y88382D01*
X23195Y90168D01*
X23195Y138409D01*
X24981Y140195D01*
X76609Y140195D01*
X78395Y138409D01*
X78395Y116432D01*
X78398Y116412D01*
X78396Y116392D01*
X78418Y116291D01*
X78434Y116189D01*
X78444Y116171D01*
X78448Y116152D01*
X78501Y116063D01*
X78549Y115972D01*
X78564Y115958D01*
X78574Y115941D01*
X78653Y115873D01*
X78728Y115802D01*
X78746Y115794D01*
X78761Y115781D01*
X78857Y115742D01*
X78951Y115699D01*
X78971Y115696D01*
X78989Y115689D01*
X79156Y115670D01*
X103706Y115670D01*
X103726Y115674D01*
X103745Y115672D01*
X103847Y115694D01*
X103949Y115710D01*
X103966Y115720D01*
X103986Y115724D01*
X104075Y115777D01*
X104166Y115825D01*
X104180Y115840D01*
X104197Y115850D01*
X104264Y115929D01*
X104335Y116004D01*
X104344Y116022D01*
X104357Y116037D01*
X104396Y116133D01*
X104439Y116227D01*
X104441Y116246D01*
X104449Y116265D01*
X104463Y116394D01*
X106253Y118184D01*
X111729Y118184D01*
X111749Y118187D01*
X111769Y118185D01*
X111870Y118207D01*
X111972Y118224D01*
X111989Y118233D01*
X112009Y118237D01*
X112098Y118290D01*
X112189Y118339D01*
X112203Y118353D01*
X112220Y118363D01*
X112287Y118442D01*
X112359Y118517D01*
X112367Y118535D01*
X112380Y118550D01*
X112419Y118646D01*
X112462Y118740D01*
X112464Y118760D01*
X112472Y118778D01*
X112490Y118945D01*
X112490Y122509D01*
X114276Y124295D01*
X122802Y124295D01*
X124501Y122596D01*
X124517Y122585D01*
X124529Y122569D01*
X124604Y122521D01*
X124623Y122505D01*
X124634Y122500D01*
X124700Y122453D01*
X124719Y122447D01*
X124736Y122436D01*
X124837Y122411D01*
X124936Y122380D01*
X124955Y122381D01*
X124975Y122376D01*
X125078Y122384D01*
X125181Y122387D01*
X125200Y122394D01*
X125220Y122395D01*
X125315Y122436D01*
X125412Y122471D01*
X125428Y122484D01*
X125446Y122491D01*
X125515Y122547D01*
X125520Y122549D01*
X125526Y122555D01*
X125577Y122596D01*
X127276Y124295D01*
X135781Y124295D01*
X135807Y124299D01*
X135833Y124297D01*
X135998Y124327D01*
X137622Y124809D01*
X137717Y124855D01*
X137813Y124896D01*
X137830Y124910D01*
X137843Y124916D01*
X137866Y124939D01*
X137944Y125001D01*
X142925Y129982D01*
X142937Y129998D01*
X142953Y130011D01*
X143050Y130147D01*
X145089Y133780D01*
X145093Y133792D01*
X145101Y133803D01*
X145135Y133908D01*
X145173Y134011D01*
X145173Y134024D01*
X145177Y134037D01*
X145176Y134146D01*
X145179Y134257D01*
X145175Y134270D01*
X145175Y134283D01*
X145128Y134444D01*
X144107Y136910D01*
X144107Y140025D01*
X145299Y142903D01*
X147502Y145106D01*
X150380Y146298D01*
X153495Y146298D01*
X156373Y145106D01*
X158576Y142903D01*
X159768Y140025D01*
X159768Y136910D01*
X158576Y134032D01*
X156373Y131829D01*
X153614Y130686D01*
X153537Y130639D01*
X153457Y130598D01*
X153433Y130574D01*
X153405Y130557D01*
X153348Y130487D01*
X153284Y130422D01*
X153264Y130385D01*
X153248Y130367D01*
X153237Y130337D01*
X153203Y130276D01*
X153120Y130076D01*
X153098Y130067D01*
X153057Y130042D01*
X153013Y130026D01*
X152953Y129978D01*
X152888Y129938D01*
X152858Y129901D01*
X152821Y129872D01*
X152745Y129765D01*
X152731Y129748D01*
X152729Y129743D01*
X152724Y129735D01*
X150890Y126468D01*
X150852Y126365D01*
X150811Y126262D01*
X150809Y126246D01*
X150806Y126237D01*
X150805Y126209D01*
X150792Y126095D01*
X150792Y125634D01*
X150023Y124865D01*
X150011Y124848D01*
X149995Y124835D01*
X149897Y124699D01*
X149364Y123750D01*
X148921Y123625D01*
X148820Y123578D01*
X148719Y123535D01*
X148707Y123525D01*
X148698Y123521D01*
X148677Y123502D01*
X148588Y123430D01*
X144377Y119219D01*
X144365Y119203D01*
X144350Y119190D01*
X144293Y119103D01*
X144233Y119019D01*
X144227Y119000D01*
X144217Y118983D01*
X144191Y118883D01*
X144161Y118784D01*
X144161Y118764D01*
X144157Y118745D01*
X144165Y118642D01*
X144167Y118538D01*
X144174Y118519D01*
X144176Y118499D01*
X144216Y118405D01*
X144252Y118307D01*
X144264Y118291D01*
X144272Y118273D01*
X144377Y118142D01*
X146121Y116398D01*
X146121Y105406D01*
X146020Y105306D01*
X145962Y105225D01*
X145899Y105148D01*
X145891Y105125D01*
X145877Y105106D01*
X145848Y105011D01*
X145812Y104918D01*
X145810Y104888D01*
X145804Y104871D01*
X145805Y104838D01*
X145798Y104751D01*
X145836Y103027D01*
X145838Y103016D01*
X145836Y103005D01*
X145860Y102895D01*
X145881Y102786D01*
X145886Y102776D01*
X145889Y102764D01*
X145946Y102668D01*
X146000Y102571D01*
X146009Y102563D01*
X146015Y102553D01*
X146100Y102480D01*
X146183Y102405D01*
X146193Y102401D01*
X146202Y102393D01*
X146306Y102351D01*
X146408Y102307D01*
X146419Y102306D01*
X146430Y102301D01*
X146597Y102283D01*
X151062Y102283D01*
X152848Y100497D01*
X152848Y79941D01*
X151062Y78155D01*
X132536Y78155D01*
X130750Y79941D01*
X130750Y100497D01*
X132574Y102321D01*
X132616Y102379D01*
X132665Y102431D01*
X132687Y102479D01*
X132718Y102521D01*
X132739Y102589D01*
X132769Y102654D01*
X132775Y102706D01*
X132790Y102756D01*
X132788Y102828D01*
X132796Y102899D01*
X132785Y102950D01*
X132784Y103002D01*
X132759Y103069D01*
X132744Y103139D01*
X132717Y103184D01*
X132699Y103233D01*
X132654Y103289D01*
X132618Y103350D01*
X132578Y103384D01*
X132546Y103425D01*
X132485Y103464D01*
X132431Y103510D01*
X132382Y103530D01*
X132339Y103558D01*
X132269Y103575D01*
X132203Y103602D01*
X132131Y103610D01*
X132100Y103618D01*
X132077Y103616D01*
X132036Y103621D01*
X125682Y103621D01*
X125633Y103656D01*
X125614Y103662D01*
X125597Y103673D01*
X125497Y103698D01*
X125398Y103729D01*
X125378Y103728D01*
X125358Y103733D01*
X125255Y103725D01*
X125152Y103722D01*
X125133Y103715D01*
X125113Y103714D01*
X125018Y103673D01*
X124921Y103638D01*
X124905Y103625D01*
X124894Y103621D01*
X123122Y103621D01*
X123051Y103609D01*
X122979Y103607D01*
X122930Y103589D01*
X122879Y103581D01*
X122816Y103547D01*
X122748Y103523D01*
X122708Y103490D01*
X122662Y103466D01*
X122612Y103414D01*
X122556Y103369D01*
X122528Y103325D01*
X122492Y103287D01*
X122462Y103222D01*
X122423Y103162D01*
X122411Y103112D01*
X122389Y103064D01*
X122381Y102993D01*
X122363Y102924D01*
X122367Y102872D01*
X122362Y102820D01*
X122377Y102750D01*
X122382Y102678D01*
X122403Y102631D01*
X122414Y102580D01*
X122451Y102518D01*
X122479Y102452D01*
X122523Y102396D01*
X122540Y102368D01*
X122558Y102353D01*
X122583Y102321D01*
X124408Y100497D01*
X124408Y79941D01*
X122622Y78155D01*
X118439Y78155D01*
X118419Y78152D01*
X118399Y78154D01*
X118298Y78132D01*
X118196Y78116D01*
X118179Y78106D01*
X118159Y78102D01*
X118070Y78049D01*
X117979Y78001D01*
X117965Y77986D01*
X117948Y77976D01*
X117881Y77897D01*
X117809Y77822D01*
X117801Y77804D01*
X117788Y77789D01*
X117749Y77693D01*
X117706Y77599D01*
X117704Y77579D01*
X117696Y77561D01*
X117678Y77394D01*
X117678Y58815D01*
X117678Y58811D01*
X117678Y58808D01*
X117698Y58689D01*
X117717Y58573D01*
X117719Y58569D01*
X117720Y58565D01*
X117792Y58414D01*
X119728Y55295D01*
X119782Y55234D01*
X119828Y55167D01*
X119862Y55142D01*
X119890Y55110D01*
X119960Y55069D01*
X120025Y55020D01*
X120066Y55007D01*
X120102Y54986D01*
X120182Y54969D01*
X120259Y54944D01*
X120302Y54944D01*
X120343Y54936D01*
X120424Y54946D01*
X120505Y54946D01*
X120559Y54962D01*
X120588Y54965D01*
X120613Y54978D01*
X120666Y54993D01*
X122526Y55763D01*
X126366Y55763D01*
X129914Y54294D01*
X132629Y51579D01*
X134099Y48031D01*
X134099Y30983D01*
X132629Y27435D01*
X129914Y24719D01*
X126366Y23250D01*
X122526Y23250D01*
G37*
%LPD*%
%LPC*%
G36*
X147926Y23250D02*
X147926Y23250D01*
X144378Y24719D01*
X141663Y27435D01*
X140193Y30983D01*
X140193Y48031D01*
X141663Y51579D01*
X144378Y54294D01*
X147926Y55763D01*
X151766Y55763D01*
X155314Y54294D01*
X156382Y53226D01*
X156398Y53215D01*
X156410Y53199D01*
X156497Y53143D01*
X156581Y53083D01*
X156600Y53077D01*
X156617Y53066D01*
X156718Y53041D01*
X156816Y53010D01*
X156836Y53011D01*
X156856Y53006D01*
X156959Y53014D01*
X157062Y53017D01*
X157081Y53024D01*
X157101Y53025D01*
X157196Y53065D01*
X157293Y53101D01*
X157309Y53114D01*
X157327Y53121D01*
X157458Y53226D01*
X164180Y59948D01*
X164196Y59970D01*
X164230Y60004D01*
X164842Y60749D01*
X164856Y60774D01*
X164876Y60794D01*
X164957Y60941D01*
X165692Y62714D01*
X165698Y62742D01*
X165711Y62767D01*
X165719Y62805D01*
X165723Y62812D01*
X165725Y62831D01*
X165746Y62931D01*
X165841Y63891D01*
X165839Y63917D01*
X165844Y63966D01*
X165844Y144354D01*
X165829Y144445D01*
X165822Y144535D01*
X165810Y144565D01*
X165804Y144597D01*
X165762Y144678D01*
X165726Y144762D01*
X165700Y144794D01*
X165689Y144815D01*
X165666Y144837D01*
X165621Y144893D01*
X161286Y149228D01*
X161264Y149244D01*
X161230Y149278D01*
X161071Y149409D01*
X161047Y149423D01*
X161026Y149443D01*
X160879Y149524D01*
X160500Y149681D01*
X160473Y149687D01*
X160448Y149701D01*
X160284Y149735D01*
X160079Y149756D01*
X160052Y149754D01*
X160004Y149759D01*
X146263Y149759D01*
X146237Y149755D01*
X146188Y149756D01*
X145228Y149661D01*
X145201Y149654D01*
X145173Y149653D01*
X145012Y149607D01*
X143238Y148872D01*
X143214Y148857D01*
X143187Y148849D01*
X143046Y148757D01*
X142301Y148145D01*
X142283Y148126D01*
X142245Y148095D01*
X137878Y143728D01*
X137825Y143654D01*
X137766Y143585D01*
X137754Y143554D01*
X137735Y143528D01*
X137708Y143441D01*
X137674Y143356D01*
X137669Y143316D01*
X137662Y143293D01*
X137663Y143261D01*
X137655Y143190D01*
X137655Y134019D01*
X135869Y132233D01*
X130653Y132233D01*
X130563Y132219D01*
X130472Y132212D01*
X130442Y132199D01*
X130410Y132194D01*
X130330Y132151D01*
X130246Y132115D01*
X130214Y132090D01*
X130193Y132079D01*
X130171Y132055D01*
X130115Y132010D01*
X129302Y131198D01*
X120776Y131198D01*
X119963Y132010D01*
X119889Y132064D01*
X119820Y132123D01*
X119790Y132135D01*
X119764Y132154D01*
X119677Y132181D01*
X119592Y132215D01*
X119551Y132220D01*
X119529Y132226D01*
X119496Y132226D01*
X119425Y132233D01*
X114719Y132233D01*
X112933Y134019D01*
X112933Y146704D01*
X114719Y148490D01*
X122499Y148490D01*
X122519Y148493D01*
X122538Y148491D01*
X122640Y148513D01*
X122742Y148530D01*
X122759Y148539D01*
X122779Y148543D01*
X122868Y148596D01*
X122959Y148645D01*
X122973Y148659D01*
X122990Y148669D01*
X123057Y148748D01*
X123128Y148823D01*
X123137Y148841D01*
X123150Y148856D01*
X123188Y148953D01*
X123232Y149046D01*
X123234Y149066D01*
X123242Y149084D01*
X123260Y149251D01*
X123260Y168893D01*
X123257Y168912D01*
X123259Y168932D01*
X123237Y169033D01*
X123220Y169135D01*
X123211Y169153D01*
X123207Y169173D01*
X123154Y169262D01*
X123105Y169353D01*
X123091Y169367D01*
X123081Y169384D01*
X123002Y169451D01*
X122927Y169522D01*
X122909Y169531D01*
X122894Y169544D01*
X122797Y169582D01*
X122704Y169626D01*
X122684Y169628D01*
X122666Y169636D01*
X122499Y169654D01*
X108793Y169654D01*
X107007Y171440D01*
X107007Y209522D01*
X108793Y211308D01*
X148568Y211308D01*
X150354Y209522D01*
X150354Y171440D01*
X148568Y169654D01*
X132659Y169654D01*
X132639Y169651D01*
X132619Y169653D01*
X132518Y169631D01*
X132416Y169614D01*
X132398Y169605D01*
X132379Y169601D01*
X132290Y169547D01*
X132199Y169499D01*
X132185Y169485D01*
X132168Y169475D01*
X132101Y169396D01*
X132029Y169321D01*
X132021Y169303D01*
X132008Y169288D01*
X131969Y169191D01*
X131926Y169098D01*
X131923Y169078D01*
X131916Y169059D01*
X131898Y168893D01*
X131898Y151800D01*
X131909Y151730D01*
X131911Y151658D01*
X131929Y151609D01*
X131937Y151558D01*
X131971Y151494D01*
X131995Y151427D01*
X132028Y151386D01*
X132052Y151340D01*
X132104Y151291D01*
X132149Y151235D01*
X132193Y151207D01*
X132231Y151171D01*
X132296Y151141D01*
X132356Y151102D01*
X132407Y151089D01*
X132454Y151067D01*
X132525Y151059D01*
X132595Y151042D01*
X132647Y151046D01*
X132698Y151040D01*
X132768Y151055D01*
X132840Y151061D01*
X132888Y151081D01*
X132939Y151092D01*
X133000Y151129D01*
X133066Y151157D01*
X133122Y151202D01*
X133150Y151219D01*
X133165Y151236D01*
X133197Y151262D01*
X134650Y152715D01*
X135995Y154060D01*
X136219Y154284D01*
X138152Y156217D01*
X143414Y158397D01*
X162083Y158397D01*
X165924Y156806D01*
X167608Y155121D01*
X168881Y153848D01*
X174482Y148248D01*
X174482Y61117D01*
X172302Y55855D01*
X170433Y53986D01*
X159722Y43275D01*
X159669Y43201D01*
X159609Y43131D01*
X159597Y43101D01*
X159578Y43075D01*
X159552Y42988D01*
X159517Y42903D01*
X159513Y42862D01*
X159506Y42840D01*
X159507Y42808D01*
X159499Y42736D01*
X159499Y30983D01*
X158029Y27435D01*
X155314Y24719D01*
X151766Y23250D01*
X147926Y23250D01*
G37*
%LPD*%
%LPC*%
G36*
X173133Y166268D02*
X173133Y166268D01*
X171347Y168054D01*
X171347Y172279D01*
X171344Y172299D01*
X171346Y172319D01*
X171324Y172420D01*
X171307Y172522D01*
X171298Y172539D01*
X171294Y172559D01*
X171241Y172648D01*
X171192Y172739D01*
X171178Y172753D01*
X171168Y172770D01*
X171089Y172837D01*
X171014Y172909D01*
X170996Y172917D01*
X170981Y172930D01*
X170885Y172969D01*
X170791Y173012D01*
X170771Y173014D01*
X170753Y173022D01*
X170586Y173040D01*
X156201Y173040D01*
X154416Y174826D01*
X154416Y197670D01*
X156201Y199456D01*
X170586Y199456D01*
X170606Y199459D01*
X170625Y199457D01*
X170727Y199479D01*
X170829Y199495D01*
X170846Y199505D01*
X170866Y199509D01*
X170955Y199562D01*
X171046Y199611D01*
X171060Y199625D01*
X171077Y199635D01*
X171144Y199714D01*
X171215Y199789D01*
X171224Y199807D01*
X171237Y199822D01*
X171276Y199918D01*
X171319Y200012D01*
X171321Y200032D01*
X171329Y200050D01*
X171347Y200217D01*
X171347Y206982D01*
X173133Y208768D01*
X210369Y208768D01*
X212154Y206982D01*
X212154Y168054D01*
X210369Y166268D01*
X173133Y166268D01*
G37*
%LPD*%
%LPC*%
G36*
X46992Y167114D02*
X46992Y167114D01*
X45206Y168900D01*
X45206Y206982D01*
X46992Y208768D01*
X85074Y208768D01*
X86860Y206982D01*
X86860Y200217D01*
X86864Y200197D01*
X86861Y200178D01*
X86883Y200076D01*
X86900Y199974D01*
X86909Y199957D01*
X86914Y199937D01*
X86967Y199848D01*
X87015Y199757D01*
X87030Y199743D01*
X87040Y199726D01*
X87119Y199659D01*
X87194Y199588D01*
X87212Y199579D01*
X87227Y199566D01*
X87323Y199527D01*
X87417Y199484D01*
X87436Y199482D01*
X87455Y199474D01*
X87622Y199456D01*
X102006Y199456D01*
X103792Y197670D01*
X103792Y175673D01*
X102006Y173887D01*
X87622Y173887D01*
X87602Y173884D01*
X87582Y173886D01*
X87481Y173864D01*
X87379Y173847D01*
X87361Y173838D01*
X87342Y173834D01*
X87253Y173780D01*
X87161Y173732D01*
X87148Y173718D01*
X87131Y173707D01*
X87063Y173629D01*
X86992Y173554D01*
X86984Y173536D01*
X86971Y173521D01*
X86932Y173424D01*
X86888Y173331D01*
X86886Y173311D01*
X86879Y173292D01*
X86860Y173126D01*
X86860Y168900D01*
X85074Y167114D01*
X46992Y167114D01*
G37*
%LPD*%
%LPC*%
G36*
X97126Y23250D02*
X97126Y23250D01*
X93578Y24719D01*
X90863Y27435D01*
X89393Y30983D01*
X89393Y48031D01*
X90863Y51579D01*
X93578Y54294D01*
X97126Y55763D01*
X100966Y55763D01*
X104514Y54294D01*
X107229Y51579D01*
X108699Y48031D01*
X108699Y30983D01*
X107229Y27435D01*
X104514Y24719D01*
X100966Y23250D01*
X97126Y23250D01*
G37*
%LPD*%
D10*
X128680Y190481D03*
D11*
X66033Y187941D03*
D12*
X89738Y186671D03*
D13*
X175242Y186248D03*
D14*
X191751Y187518D03*
D15*
X50795Y114289D03*
D16*
X125294Y140362D03*
D17*
X115558Y110902D03*
D18*
X135030Y110902D03*
D19*
X67089Y111352D03*
D20*
X118539Y118496D03*
X131539Y118496D03*
X125039Y136996D03*
D19*
X127579Y180973D03*
D21*
X141799Y90219D03*
X113359Y90219D03*
D19*
X203460Y198144D03*
X56171Y187985D03*
D22*
X99046Y46111D02*
X99046Y32903D01*
X149846Y32903D02*
X149846Y46111D01*
X124446Y46111D02*
X124446Y32903D01*
D23*
X113359Y86351D02*
X113359Y90219D01*
X113359Y86351D02*
X113359Y57367D01*
X124446Y39507D01*
X113699Y111352D02*
X67089Y111352D01*
X113699Y111352D02*
X113828Y111350D01*
X113956Y111345D01*
X114085Y111335D01*
X114213Y111322D01*
X114340Y111305D01*
X114467Y111285D01*
X114594Y111261D01*
X114719Y111233D01*
X114844Y111201D01*
X114968Y111166D01*
X115091Y111127D01*
X115212Y111085D01*
X115333Y111039D01*
X115452Y110990D01*
X115569Y110937D01*
X115685Y110881D01*
X115799Y110822D01*
X115911Y110759D01*
X116022Y110693D01*
X116131Y110624D01*
X116237Y110552D01*
X116341Y110476D01*
X116444Y110398D01*
X116543Y110317D01*
X116641Y110233D01*
X116736Y110146D01*
X116828Y110056D01*
X116932Y110162D01*
X117032Y110270D01*
X117130Y110381D01*
X117225Y110495D01*
X117317Y110611D01*
X117406Y110729D01*
X117492Y110849D01*
X117575Y110972D01*
X117655Y111096D01*
X117732Y111223D01*
X117805Y111351D01*
X117875Y111482D01*
X117942Y111614D01*
X118006Y111747D01*
X118066Y111883D01*
X118122Y112019D01*
X118175Y112157D01*
X118225Y112297D01*
X118271Y112437D01*
X118314Y112579D01*
X118353Y112722D01*
X118388Y112866D01*
X118419Y113010D01*
X118447Y113156D01*
X118472Y113302D01*
X118492Y113448D01*
X118509Y113595D01*
X118522Y113742D01*
X118532Y113890D01*
X118537Y114038D01*
X118539Y114186D01*
X118539Y118496D01*
X116828Y110056D02*
X116288Y109515D01*
X116122Y109345D01*
X115959Y109171D01*
X115802Y108993D01*
X115648Y108811D01*
X115498Y108626D01*
X115354Y108437D01*
X115213Y108245D01*
X115078Y108049D01*
X114946Y107850D01*
X114820Y107649D01*
X114699Y107444D01*
X114582Y107236D01*
X114471Y107026D01*
X114364Y106813D01*
X114263Y106598D01*
X114166Y106381D01*
X114075Y106161D01*
X113990Y105939D01*
X113909Y105715D01*
X113834Y105489D01*
X113764Y105261D01*
X113700Y105032D01*
X113641Y104802D01*
X113588Y104570D01*
X113540Y104337D01*
X113497Y104102D01*
X113461Y103867D01*
X113430Y103631D01*
X113404Y103395D01*
X113384Y103157D01*
X113370Y102920D01*
X113362Y102682D01*
X113359Y102444D01*
X113359Y90219D01*
X127579Y137843D02*
X127579Y180973D01*
X127579Y137843D02*
X127491Y137770D01*
X127401Y137699D01*
X127309Y137632D01*
X127214Y137567D01*
X127118Y137505D01*
X127019Y137447D01*
X126919Y137392D01*
X126817Y137340D01*
X126713Y137292D01*
X126608Y137247D01*
X126501Y137206D01*
X126393Y137168D01*
X126284Y137133D01*
X126174Y137102D01*
X126063Y137075D01*
X125951Y137052D01*
X125838Y137032D01*
X125725Y137015D01*
X125611Y137003D01*
X125497Y136994D01*
X125382Y136989D01*
X125268Y136988D01*
X125153Y136991D01*
X125039Y136997D01*
X125039Y136996D02*
X139192Y151149D01*
X139362Y151315D01*
X139536Y151478D01*
X139714Y151635D01*
X139896Y151789D01*
X140081Y151939D01*
X140270Y152083D01*
X140462Y152224D01*
X140658Y152359D01*
X140857Y152491D01*
X141058Y152617D01*
X141263Y152738D01*
X141471Y152855D01*
X141681Y152966D01*
X141894Y153073D01*
X142109Y153174D01*
X142326Y153271D01*
X142546Y153362D01*
X142768Y153447D01*
X142992Y153528D01*
X143218Y153603D01*
X143446Y153673D01*
X143675Y153737D01*
X143905Y153796D01*
X144137Y153849D01*
X144370Y153897D01*
X144605Y153940D01*
X144840Y153976D01*
X145076Y154007D01*
X145312Y154033D01*
X145550Y154053D01*
X145787Y154067D01*
X146025Y154075D01*
X146263Y154078D01*
X160004Y154078D01*
X160159Y154076D01*
X160315Y154070D01*
X160470Y154060D01*
X160624Y154047D01*
X160779Y154029D01*
X160932Y154007D01*
X161086Y153982D01*
X161238Y153952D01*
X161390Y153919D01*
X161541Y153882D01*
X161691Y153841D01*
X161839Y153797D01*
X161987Y153748D01*
X162133Y153696D01*
X162278Y153641D01*
X162422Y153581D01*
X162564Y153518D01*
X162704Y153451D01*
X162843Y153381D01*
X162979Y153308D01*
X163114Y153231D01*
X163247Y153150D01*
X163378Y153066D01*
X163506Y152979D01*
X163633Y152889D01*
X163757Y152795D01*
X163878Y152699D01*
X163998Y152599D01*
X164114Y152496D01*
X164228Y152391D01*
X164339Y152282D01*
X164340Y152282D02*
X170163Y146459D01*
X170163Y63966D01*
X170160Y63728D01*
X170152Y63490D01*
X170138Y63253D01*
X170118Y63015D01*
X170092Y62779D01*
X170061Y62543D01*
X170025Y62308D01*
X169982Y62073D01*
X169934Y61840D01*
X169881Y61608D01*
X169822Y61378D01*
X169758Y61149D01*
X169688Y60921D01*
X169613Y60695D01*
X169532Y60471D01*
X169447Y60249D01*
X169356Y60029D01*
X169259Y59812D01*
X169158Y59597D01*
X169051Y59384D01*
X168940Y59174D01*
X168823Y58966D01*
X168702Y58761D01*
X168576Y58560D01*
X168444Y58361D01*
X168309Y58165D01*
X168168Y57973D01*
X168024Y57784D01*
X167874Y57599D01*
X167720Y57417D01*
X167563Y57239D01*
X167400Y57065D01*
X167234Y56895D01*
X149846Y39507D01*
X129947Y112470D02*
X131539Y118496D01*
X129947Y112470D02*
X130278Y112138D01*
X130448Y111972D01*
X130622Y111809D01*
X130800Y111652D01*
X130982Y111498D01*
X131167Y111348D01*
X131356Y111204D01*
X131548Y111063D01*
X131744Y110928D01*
X131943Y110796D01*
X132144Y110670D01*
X132349Y110549D01*
X132557Y110432D01*
X132767Y110321D01*
X132980Y110214D01*
X133195Y110113D01*
X133412Y110016D01*
X133632Y109925D01*
X133854Y109840D01*
X134078Y109759D01*
X134304Y109684D01*
X134532Y109614D01*
X134761Y109550D01*
X134991Y109491D01*
X135223Y109438D01*
X135456Y109390D01*
X135691Y109347D01*
X135926Y109311D01*
X136162Y109280D01*
X136398Y109254D01*
X136636Y109234D01*
X136873Y109220D01*
X137111Y109212D01*
X137349Y109209D01*
X141379Y109209D01*
X141799Y90219D01*
X131539Y118496D02*
X140087Y121036D01*
X146474Y127423D01*
X149821Y133388D01*
X151937Y138468D01*
D24*
X151937Y138468D03*
X222250Y166370D03*
D23*
X222250Y175212D01*
X222247Y175450D01*
X222239Y175688D01*
X222225Y175925D01*
X222205Y176163D01*
X222179Y176399D01*
X222148Y176635D01*
X222112Y176870D01*
X222069Y177105D01*
X222021Y177338D01*
X221968Y177570D01*
X221909Y177800D01*
X221845Y178029D01*
X221775Y178257D01*
X221700Y178483D01*
X221619Y178707D01*
X221534Y178929D01*
X221443Y179149D01*
X221346Y179366D01*
X221245Y179581D01*
X221138Y179794D01*
X221027Y180004D01*
X220910Y180212D01*
X220789Y180417D01*
X220663Y180618D01*
X220531Y180817D01*
X220396Y181013D01*
X220255Y181205D01*
X220111Y181394D01*
X219961Y181579D01*
X219807Y181761D01*
X219650Y181939D01*
X219487Y182113D01*
X219321Y182283D01*
X203460Y198144D01*
D24*
X27940Y167640D03*
D23*
X53717Y193417D01*
X53717Y193416D02*
X53725Y193231D01*
X53737Y193046D01*
X53754Y192862D01*
X53776Y192678D01*
X53801Y192494D01*
X53831Y192311D01*
X53866Y192129D01*
X53904Y191948D01*
X53947Y191768D01*
X53994Y191588D01*
X54046Y191410D01*
X54102Y191234D01*
X54162Y191058D01*
X54226Y190884D01*
X54294Y190712D01*
X54366Y190541D01*
X54442Y190372D01*
X54523Y190205D01*
X54607Y190040D01*
X54695Y189877D01*
X54787Y189717D01*
X54883Y189558D01*
X54983Y189402D01*
X55086Y189248D01*
X55193Y189096D01*
X55303Y188947D01*
X55417Y188801D01*
X55535Y188658D01*
X55655Y188517D01*
X55779Y188380D01*
X55907Y188245D01*
X56037Y188114D01*
X56171Y187985D01*
M02*
