G04 EAGLE Gerber X2 export*
%TF.Part,Single*%
%TF.FileFunction,Copper,L1,Top,Mixed*%
%TF.FilePolarity,Positive*%
%TF.GenerationSoftware,Autodesk,EAGLE,8.7.0*%
%TF.CreationDate,2018-03-12T13:44:09Z*%
G75*
%MOMM*%
%FSLAX34Y34*%
%LPD*%
%AMOC8*
5,1,8,0,0,1.08239X$1,22.5*%
G01*
%ADD10R,3.724963X3.555644*%
%ADD11R,3.555644X3.555644*%
%ADD12R,2.201113X1.947138*%
%ADD13R,3.555644X2.031797*%
%ADD14R,3.470984X3.640303*%
%ADD15R,1.608506X1.100559*%
%ADD16R,1.693163X1.100559*%
%ADD17R,1.269872X0.592606*%
%ADD18R,1.269875X0.507947*%
%ADD19R,4.910178X4.571544*%
%ADD20R,1.862481X1.015900*%
%ADD21R,0.846581X0.592606*%
%ADD22R,0.635000X1.270000*%
%ADD23R,0.600000X0.550000*%
%ADD24R,1.600000X1.803000*%
%ADD25C,1.320800*%
%ADD26C,0.152400*%
%ADD27C,0.756400*%

G36*
X122539Y-1307D02*
X122539Y-1307D01*
X122557Y-1308D01*
X143293Y-473D01*
X143325Y-466D01*
X143414Y-458D01*
X163747Y3693D01*
X163778Y3705D01*
X163865Y3727D01*
X183269Y11086D01*
X183297Y11103D01*
X183380Y11139D01*
X201352Y21515D01*
X201377Y21536D01*
X201453Y21585D01*
X217528Y34709D01*
X217549Y34734D01*
X217616Y34794D01*
X231377Y50328D01*
X231395Y50355D01*
X231451Y50426D01*
X242542Y67965D01*
X242555Y67996D01*
X242599Y68074D01*
X250734Y87166D01*
X250741Y87198D01*
X250772Y87282D01*
X255739Y107431D01*
X255741Y107464D01*
X255759Y107552D01*
X257428Y128238D01*
X257426Y128270D01*
X257428Y128360D01*
X255758Y149045D01*
X255751Y149077D01*
X255739Y149166D01*
X250772Y169316D01*
X250759Y169346D01*
X250747Y169389D01*
X250741Y169413D01*
X250737Y169420D01*
X250734Y169432D01*
X242599Y188524D01*
X242582Y188552D01*
X242542Y188632D01*
X231451Y206172D01*
X231429Y206197D01*
X231405Y206231D01*
X231398Y206242D01*
X231395Y206245D01*
X231377Y206270D01*
X217616Y221803D01*
X217590Y221824D01*
X217528Y221888D01*
X201453Y235013D01*
X201424Y235029D01*
X201352Y235083D01*
X183380Y245459D01*
X183349Y245471D01*
X183269Y245511D01*
X163865Y252870D01*
X163833Y252877D01*
X163747Y252905D01*
X143414Y257056D01*
X143381Y257057D01*
X143293Y257070D01*
X122557Y257906D01*
X122524Y257902D01*
X122434Y257901D01*
X101833Y255400D01*
X101802Y255390D01*
X101713Y255375D01*
X81780Y249601D01*
X81751Y249587D01*
X81666Y249558D01*
X62917Y240661D01*
X62890Y240643D01*
X62811Y240600D01*
X45732Y228811D01*
X45708Y228789D01*
X45637Y228734D01*
X30670Y214358D01*
X30650Y214332D01*
X30589Y214266D01*
X18122Y197676D01*
X18107Y197647D01*
X18056Y197573D01*
X8412Y179197D01*
X8402Y179166D01*
X8364Y179084D01*
X1793Y159400D01*
X1787Y159368D01*
X1763Y159281D01*
X-1566Y138797D01*
X-1566Y138764D01*
X-1576Y138675D01*
X-1576Y117923D01*
X-1570Y117890D01*
X-1566Y117800D01*
X1763Y97317D01*
X1774Y97285D01*
X1793Y97198D01*
X8364Y77513D01*
X8379Y77484D01*
X8412Y77401D01*
X18056Y59025D01*
X18076Y58999D01*
X18122Y58922D01*
X30589Y42331D01*
X30612Y42309D01*
X30670Y42240D01*
X45637Y27864D01*
X45664Y27845D01*
X45732Y27786D01*
X62811Y15997D01*
X62840Y15983D01*
X62917Y15936D01*
X81666Y7040D01*
X81697Y7031D01*
X81780Y6996D01*
X101713Y1223D01*
X101746Y1219D01*
X101833Y1198D01*
X122434Y-1303D01*
X122465Y-1302D01*
X122526Y-1309D01*
X122527Y-1309D01*
X122539Y-1307D01*
G37*
%LPC*%
G36*
X125912Y26636D02*
X125912Y26636D01*
X122365Y28106D01*
X119649Y30821D01*
X118180Y34369D01*
X118180Y51417D01*
X119649Y54965D01*
X120208Y55524D01*
X120246Y55577D01*
X120292Y55623D01*
X120318Y55676D01*
X120352Y55724D01*
X120371Y55786D01*
X120400Y55845D01*
X120407Y55903D01*
X120424Y55959D01*
X120423Y56024D01*
X120431Y56088D01*
X120419Y56171D01*
X120418Y56205D01*
X120411Y56223D01*
X120407Y56254D01*
X112718Y85714D01*
X112703Y85747D01*
X112702Y85754D01*
X112698Y85759D01*
X112689Y85802D01*
X112649Y85869D01*
X112618Y85939D01*
X112587Y85973D01*
X112563Y86013D01*
X112504Y86063D01*
X112452Y86121D01*
X112411Y86143D01*
X112376Y86173D01*
X112304Y86202D01*
X112236Y86239D01*
X112191Y86248D01*
X112148Y86265D01*
X112013Y86280D01*
X111994Y86283D01*
X111989Y86283D01*
X111981Y86283D01*
X104096Y86283D01*
X102310Y88069D01*
X102310Y108625D01*
X104096Y110411D01*
X111648Y110411D01*
X111704Y110420D01*
X111760Y110419D01*
X111824Y110440D01*
X111891Y110451D01*
X111941Y110477D01*
X111994Y110494D01*
X112049Y110534D01*
X112108Y110566D01*
X112147Y110607D01*
X112193Y110640D01*
X112231Y110695D01*
X112278Y110744D01*
X112301Y110795D01*
X112334Y110841D01*
X112368Y110939D01*
X112381Y110967D01*
X112383Y110980D01*
X112390Y111000D01*
X112622Y111999D01*
X112629Y112106D01*
X112641Y112211D01*
X112637Y112228D01*
X112638Y112245D01*
X112611Y112348D01*
X112589Y112452D01*
X112580Y112466D01*
X112575Y112483D01*
X112517Y112572D01*
X112462Y112663D01*
X112449Y112674D01*
X112440Y112688D01*
X112356Y112753D01*
X112275Y112823D01*
X112260Y112829D01*
X112246Y112839D01*
X112146Y112875D01*
X112047Y112915D01*
X112027Y112917D01*
X112014Y112921D01*
X111983Y112922D01*
X111881Y112933D01*
X109639Y112933D01*
X107854Y114719D01*
X107854Y126963D01*
X107850Y126983D01*
X107852Y127003D01*
X107830Y127104D01*
X107814Y127206D01*
X107804Y127223D01*
X107800Y127243D01*
X107747Y127332D01*
X107699Y127423D01*
X107684Y127437D01*
X107674Y127454D01*
X107595Y127521D01*
X107520Y127593D01*
X107502Y127601D01*
X107487Y127614D01*
X107391Y127653D01*
X107297Y127696D01*
X107278Y127698D01*
X107259Y127706D01*
X107092Y127724D01*
X85928Y127724D01*
X85909Y127721D01*
X85889Y127723D01*
X85788Y127701D01*
X85686Y127685D01*
X85668Y127675D01*
X85649Y127671D01*
X85560Y127618D01*
X85468Y127569D01*
X85455Y127555D01*
X85437Y127545D01*
X85370Y127466D01*
X85299Y127391D01*
X85291Y127373D01*
X85278Y127358D01*
X85239Y127262D01*
X85195Y127168D01*
X85193Y127148D01*
X85186Y127130D01*
X85167Y126963D01*
X85167Y96941D01*
X83381Y95155D01*
X31754Y95155D01*
X29968Y96941D01*
X29968Y145182D01*
X31754Y146968D01*
X83381Y146968D01*
X85167Y145182D01*
X85167Y136107D01*
X85170Y136087D01*
X85168Y136068D01*
X85190Y135966D01*
X85207Y135864D01*
X85216Y135847D01*
X85220Y135827D01*
X85274Y135738D01*
X85322Y135647D01*
X85336Y135633D01*
X85347Y135616D01*
X85425Y135549D01*
X85500Y135478D01*
X85518Y135469D01*
X85534Y135456D01*
X85630Y135417D01*
X85723Y135374D01*
X85743Y135372D01*
X85762Y135364D01*
X85928Y135346D01*
X114513Y135346D01*
X114603Y135361D01*
X114694Y135368D01*
X114723Y135380D01*
X114755Y135386D01*
X114836Y135428D01*
X114920Y135464D01*
X114952Y135490D01*
X114973Y135501D01*
X114995Y135524D01*
X115051Y135569D01*
X116816Y137334D01*
X125342Y137334D01*
X127040Y135635D01*
X127057Y135623D01*
X127069Y135608D01*
X127156Y135552D01*
X127240Y135491D01*
X127259Y135486D01*
X127276Y135475D01*
X127376Y135449D01*
X127475Y135419D01*
X127495Y135420D01*
X127515Y135415D01*
X127618Y135423D01*
X127721Y135425D01*
X127740Y135432D01*
X127760Y135434D01*
X127855Y135474D01*
X127952Y135510D01*
X127968Y135522D01*
X127986Y135530D01*
X128117Y135635D01*
X129816Y137334D01*
X138342Y137334D01*
X140337Y135338D01*
X140411Y135285D01*
X140480Y135226D01*
X140510Y135214D01*
X140537Y135195D01*
X140624Y135168D01*
X140708Y135134D01*
X140749Y135129D01*
X140772Y135123D01*
X140804Y135123D01*
X140875Y135116D01*
X142642Y135116D01*
X144428Y133330D01*
X144428Y133244D01*
X144435Y133202D01*
X144433Y133160D01*
X144454Y133082D01*
X144468Y133001D01*
X144487Y132964D01*
X144499Y132923D01*
X144545Y132856D01*
X144583Y132784D01*
X144613Y132755D01*
X144637Y132720D01*
X144702Y132671D01*
X144761Y132614D01*
X144799Y132597D01*
X144833Y132571D01*
X144976Y132514D01*
X144984Y132511D01*
X144986Y132510D01*
X144989Y132509D01*
X149519Y131274D01*
X149588Y131267D01*
X149655Y131250D01*
X149710Y131254D01*
X149764Y131248D01*
X149832Y131263D01*
X149901Y131269D01*
X149951Y131290D01*
X150004Y131302D01*
X150063Y131338D01*
X150127Y131365D01*
X150186Y131413D01*
X150214Y131430D01*
X150228Y131446D01*
X150258Y131470D01*
X150563Y131775D01*
X153073Y132815D01*
X155791Y132815D01*
X158301Y131775D01*
X160223Y129853D01*
X161263Y127343D01*
X161263Y124625D01*
X160223Y122115D01*
X158301Y120193D01*
X155791Y119153D01*
X153073Y119153D01*
X150563Y120193D01*
X149960Y120796D01*
X149902Y120837D01*
X149850Y120887D01*
X149803Y120909D01*
X149761Y120939D01*
X149692Y120960D01*
X149627Y120990D01*
X149575Y120996D01*
X149526Y121011D01*
X149454Y121010D01*
X149383Y121017D01*
X149332Y121006D01*
X149280Y121005D01*
X149212Y120980D01*
X149142Y120965D01*
X149098Y120939D01*
X149049Y120921D01*
X148993Y120876D01*
X148931Y120839D01*
X148897Y120799D01*
X148857Y120767D01*
X148818Y120707D01*
X148771Y120652D01*
X148752Y120604D01*
X148724Y120560D01*
X148706Y120491D01*
X148679Y120424D01*
X148671Y120353D01*
X148664Y120322D01*
X148665Y120298D01*
X148661Y120257D01*
X148661Y114719D01*
X146875Y112933D01*
X143277Y112933D01*
X143172Y112916D01*
X143066Y112903D01*
X143051Y112896D01*
X143034Y112893D01*
X142940Y112844D01*
X142844Y112798D01*
X142832Y112786D01*
X142817Y112778D01*
X142744Y112701D01*
X142667Y112627D01*
X142659Y112612D01*
X142648Y112600D01*
X142603Y112503D01*
X142554Y112409D01*
X142551Y112392D01*
X142544Y112377D01*
X142532Y112271D01*
X142516Y112166D01*
X142518Y112145D01*
X142517Y112132D01*
X142523Y112102D01*
X142536Y111999D01*
X142768Y111000D01*
X142790Y110948D01*
X142802Y110892D01*
X142836Y110834D01*
X142862Y110772D01*
X142899Y110730D01*
X142928Y110681D01*
X142979Y110637D01*
X143023Y110587D01*
X143072Y110558D01*
X143115Y110521D01*
X143177Y110496D01*
X143235Y110462D01*
X143290Y110451D01*
X143343Y110429D01*
X143446Y110418D01*
X143476Y110412D01*
X143489Y110413D01*
X143510Y110411D01*
X151062Y110411D01*
X152848Y108625D01*
X152848Y88069D01*
X151062Y86283D01*
X132536Y86283D01*
X130750Y88069D01*
X130750Y108625D01*
X132536Y110411D01*
X134121Y110411D01*
X134227Y110428D01*
X134332Y110441D01*
X134347Y110448D01*
X134364Y110451D01*
X134458Y110500D01*
X134554Y110546D01*
X134567Y110558D01*
X134582Y110566D01*
X134655Y110643D01*
X134731Y110717D01*
X134739Y110732D01*
X134751Y110744D01*
X134796Y110841D01*
X134845Y110935D01*
X134847Y110952D01*
X134855Y110967D01*
X134866Y111073D01*
X134883Y111178D01*
X134880Y111199D01*
X134882Y111212D01*
X134875Y111242D01*
X134863Y111345D01*
X134630Y112344D01*
X134611Y112392D01*
X134610Y112397D01*
X134608Y112399D01*
X134597Y112452D01*
X134562Y112509D01*
X134537Y112572D01*
X134500Y112614D01*
X134471Y112663D01*
X134420Y112706D01*
X134375Y112757D01*
X134327Y112786D01*
X134284Y112823D01*
X134221Y112848D01*
X134163Y112882D01*
X134108Y112893D01*
X134056Y112915D01*
X133953Y112926D01*
X133923Y112932D01*
X133910Y112931D01*
X133889Y112933D01*
X121269Y112933D01*
X121213Y112924D01*
X121156Y112925D01*
X121092Y112904D01*
X121026Y112893D01*
X120976Y112867D01*
X120922Y112850D01*
X120868Y112810D01*
X120809Y112778D01*
X120770Y112737D01*
X120724Y112704D01*
X120685Y112649D01*
X120639Y112600D01*
X120615Y112549D01*
X120583Y112502D01*
X120548Y112405D01*
X120536Y112377D01*
X120534Y112364D01*
X120527Y112344D01*
X120295Y111345D01*
X120288Y111238D01*
X120276Y111133D01*
X120280Y111116D01*
X120278Y111099D01*
X120306Y110996D01*
X120328Y110892D01*
X120337Y110878D01*
X120341Y110861D01*
X120400Y110772D01*
X120454Y110681D01*
X120467Y110670D01*
X120477Y110656D01*
X120560Y110590D01*
X120641Y110521D01*
X120657Y110515D01*
X120670Y110505D01*
X120770Y110469D01*
X120869Y110429D01*
X120890Y110427D01*
X120902Y110423D01*
X120933Y110422D01*
X121036Y110411D01*
X122622Y110411D01*
X124408Y108625D01*
X124408Y88069D01*
X122622Y86283D01*
X121431Y86283D01*
X121317Y86265D01*
X121201Y86248D01*
X121195Y86245D01*
X121189Y86244D01*
X121086Y86190D01*
X120982Y86137D01*
X120977Y86132D01*
X120971Y86129D01*
X120891Y86044D01*
X120809Y85961D01*
X120806Y85955D01*
X120802Y85950D01*
X120753Y85845D01*
X120702Y85740D01*
X120701Y85733D01*
X120698Y85727D01*
X120685Y85612D01*
X120671Y85496D01*
X120672Y85488D01*
X120671Y85483D01*
X120675Y85464D01*
X120695Y85330D01*
X127379Y59719D01*
X127398Y59676D01*
X127408Y59631D01*
X127448Y59565D01*
X127479Y59494D01*
X127510Y59460D01*
X127534Y59420D01*
X127593Y59370D01*
X127645Y59313D01*
X127686Y59290D01*
X127721Y59260D01*
X127793Y59231D01*
X127861Y59194D01*
X127906Y59186D01*
X127949Y59168D01*
X128084Y59153D01*
X128103Y59150D01*
X128108Y59151D01*
X128116Y59150D01*
X129753Y59150D01*
X133300Y57680D01*
X136016Y54965D01*
X137485Y51417D01*
X137485Y34369D01*
X136016Y30821D01*
X133300Y28106D01*
X129753Y26636D01*
X125912Y26636D01*
G37*
%LPD*%
%LPC*%
G36*
X151312Y26636D02*
X151312Y26636D01*
X147765Y28106D01*
X145049Y30821D01*
X143580Y34369D01*
X143580Y51417D01*
X145049Y54965D01*
X147765Y57680D01*
X151312Y59150D01*
X155153Y59150D01*
X158700Y57680D01*
X161435Y54946D01*
X161463Y54926D01*
X161485Y54899D01*
X161562Y54854D01*
X161635Y54802D01*
X161668Y54792D01*
X161697Y54774D01*
X161785Y54756D01*
X161870Y54730D01*
X161904Y54731D01*
X161938Y54723D01*
X162026Y54734D01*
X162116Y54736D01*
X162148Y54748D01*
X162182Y54752D01*
X162263Y54790D01*
X162347Y54821D01*
X162374Y54842D01*
X162405Y54857D01*
X162469Y54918D01*
X162539Y54974D01*
X162557Y55003D01*
X162582Y55027D01*
X162623Y55106D01*
X162672Y55181D01*
X162680Y55215D01*
X162696Y55245D01*
X162731Y55409D01*
X162810Y56210D01*
X162808Y56236D01*
X162813Y56284D01*
X162813Y132080D01*
X162810Y132102D01*
X162811Y132140D01*
X162646Y134233D01*
X162645Y134239D01*
X162645Y134245D01*
X162611Y134409D01*
X161317Y138391D01*
X161301Y138423D01*
X161292Y138457D01*
X161209Y138603D01*
X158748Y141991D01*
X158723Y142016D01*
X158704Y142046D01*
X158580Y142159D01*
X155192Y144620D01*
X155160Y144636D01*
X155133Y144659D01*
X154980Y144728D01*
X150998Y146022D01*
X150992Y146023D01*
X150987Y146026D01*
X150822Y146057D01*
X148729Y146222D01*
X148707Y146220D01*
X148669Y146224D01*
X134766Y146224D01*
X134676Y146210D01*
X134585Y146202D01*
X134555Y146190D01*
X134523Y146185D01*
X134443Y146142D01*
X134359Y146106D01*
X134327Y146080D01*
X134306Y146069D01*
X134284Y146046D01*
X134228Y146001D01*
X133330Y145103D01*
X133024Y145103D01*
X132934Y145088D01*
X132843Y145081D01*
X132813Y145069D01*
X132781Y145063D01*
X132700Y145021D01*
X132616Y144985D01*
X132584Y144959D01*
X132564Y144948D01*
X132541Y144925D01*
X132486Y144880D01*
X131842Y144236D01*
X123316Y144236D01*
X122672Y144880D01*
X122598Y144933D01*
X122529Y144993D01*
X122498Y145005D01*
X122472Y145024D01*
X122393Y145048D01*
X120552Y146889D01*
X120552Y150268D01*
X120549Y150288D01*
X120551Y150307D01*
X120529Y150409D01*
X120512Y150511D01*
X120503Y150528D01*
X120499Y150548D01*
X120446Y150637D01*
X120397Y150728D01*
X120383Y150742D01*
X120373Y150759D01*
X120294Y150826D01*
X120219Y150897D01*
X120201Y150906D01*
X120186Y150919D01*
X120090Y150958D01*
X119996Y151001D01*
X119976Y151003D01*
X119958Y151011D01*
X119791Y151029D01*
X117259Y151029D01*
X115473Y152815D01*
X115473Y165500D01*
X117259Y167286D01*
X123007Y167286D01*
X123027Y167289D01*
X123046Y167287D01*
X123148Y167309D01*
X123250Y167325D01*
X123267Y167335D01*
X123287Y167339D01*
X123376Y167392D01*
X123467Y167440D01*
X123481Y167455D01*
X123498Y167465D01*
X123565Y167544D01*
X123636Y167619D01*
X123645Y167637D01*
X123658Y167652D01*
X123696Y167748D01*
X123740Y167842D01*
X123742Y167862D01*
X123750Y167880D01*
X123768Y168047D01*
X123768Y175665D01*
X123765Y175685D01*
X123767Y175705D01*
X123745Y175806D01*
X123728Y175908D01*
X123719Y175926D01*
X123715Y175945D01*
X123662Y176034D01*
X123613Y176126D01*
X123599Y176139D01*
X123589Y176156D01*
X123510Y176224D01*
X123435Y176295D01*
X123417Y176303D01*
X123402Y176316D01*
X123305Y176355D01*
X123212Y176399D01*
X123192Y176401D01*
X123174Y176408D01*
X123007Y176427D01*
X108793Y176427D01*
X107007Y178213D01*
X107007Y216295D01*
X108793Y218081D01*
X148568Y218081D01*
X150354Y216295D01*
X150354Y178213D01*
X148568Y176427D01*
X132151Y176427D01*
X132131Y176423D01*
X132111Y176426D01*
X132010Y176404D01*
X131908Y176387D01*
X131890Y176378D01*
X131871Y176373D01*
X131782Y176320D01*
X131691Y176272D01*
X131677Y176257D01*
X131660Y176247D01*
X131592Y176168D01*
X131521Y176093D01*
X131513Y176075D01*
X131500Y176060D01*
X131461Y175964D01*
X131418Y175870D01*
X131415Y175851D01*
X131408Y175832D01*
X131390Y175665D01*
X131390Y168047D01*
X131393Y168027D01*
X131391Y168007D01*
X131413Y167906D01*
X131429Y167804D01*
X131439Y167787D01*
X131443Y167767D01*
X131496Y167678D01*
X131544Y167587D01*
X131559Y167573D01*
X131569Y167556D01*
X131648Y167489D01*
X131723Y167417D01*
X131741Y167409D01*
X131756Y167396D01*
X131852Y167357D01*
X131946Y167314D01*
X131966Y167312D01*
X131984Y167304D01*
X132151Y167286D01*
X138409Y167286D01*
X140195Y165500D01*
X140195Y154607D01*
X140198Y154587D01*
X140196Y154568D01*
X140218Y154466D01*
X140235Y154364D01*
X140244Y154347D01*
X140248Y154327D01*
X140302Y154238D01*
X140350Y154147D01*
X140364Y154133D01*
X140374Y154116D01*
X140453Y154049D01*
X140528Y153978D01*
X140546Y153969D01*
X140561Y153956D01*
X140658Y153917D01*
X140751Y153874D01*
X140771Y153872D01*
X140790Y153864D01*
X140956Y153846D01*
X152116Y153846D01*
X158674Y151715D01*
X164252Y147663D01*
X168304Y142085D01*
X170435Y135527D01*
X170435Y52863D01*
X167816Y46540D01*
X163108Y41833D01*
X163062Y41768D01*
X163044Y41749D01*
X163040Y41741D01*
X162996Y41689D01*
X162984Y41659D01*
X162965Y41633D01*
X162938Y41546D01*
X162904Y41461D01*
X162899Y41420D01*
X162892Y41398D01*
X162893Y41366D01*
X162885Y41294D01*
X162885Y34369D01*
X161416Y30821D01*
X158700Y28106D01*
X155153Y26636D01*
X151312Y26636D01*
G37*
%LPD*%
%LPC*%
G36*
X173133Y167961D02*
X173133Y167961D01*
X171347Y169747D01*
X171347Y173972D01*
X171344Y173992D01*
X171346Y174012D01*
X171324Y174113D01*
X171307Y174215D01*
X171298Y174233D01*
X171294Y174252D01*
X171241Y174341D01*
X171192Y174432D01*
X171178Y174446D01*
X171168Y174463D01*
X171089Y174531D01*
X171014Y174602D01*
X170996Y174610D01*
X170981Y174623D01*
X170885Y174662D01*
X170791Y174705D01*
X170771Y174708D01*
X170753Y174715D01*
X170586Y174733D01*
X156201Y174733D01*
X154416Y176519D01*
X154416Y199363D01*
X156201Y201149D01*
X170586Y201149D01*
X170606Y201152D01*
X170625Y201150D01*
X170727Y201172D01*
X170829Y201189D01*
X170846Y201198D01*
X170866Y201202D01*
X170955Y201255D01*
X171046Y201304D01*
X171060Y201318D01*
X171077Y201328D01*
X171144Y201407D01*
X171215Y201482D01*
X171224Y201500D01*
X171237Y201515D01*
X171276Y201611D01*
X171319Y201705D01*
X171321Y201725D01*
X171329Y201743D01*
X171347Y201910D01*
X171347Y208675D01*
X173133Y210461D01*
X210369Y210461D01*
X212154Y208675D01*
X212154Y169747D01*
X210369Y167961D01*
X173133Y167961D01*
G37*
%LPD*%
%LPC*%
G36*
X46992Y168807D02*
X46992Y168807D01*
X45206Y170593D01*
X45206Y208675D01*
X46992Y210461D01*
X85074Y210461D01*
X86860Y208675D01*
X86860Y201910D01*
X86864Y201890D01*
X86861Y201871D01*
X86883Y201769D01*
X86900Y201667D01*
X86909Y201650D01*
X86914Y201630D01*
X86967Y201541D01*
X87015Y201450D01*
X87030Y201436D01*
X87040Y201419D01*
X87119Y201352D01*
X87194Y201281D01*
X87212Y201272D01*
X87227Y201259D01*
X87323Y201221D01*
X87417Y201177D01*
X87436Y201175D01*
X87455Y201167D01*
X87622Y201149D01*
X102006Y201149D01*
X103792Y199363D01*
X103792Y177366D01*
X102006Y175580D01*
X87622Y175580D01*
X87602Y175577D01*
X87582Y175579D01*
X87481Y175557D01*
X87379Y175540D01*
X87361Y175531D01*
X87342Y175527D01*
X87253Y175474D01*
X87161Y175425D01*
X87148Y175411D01*
X87131Y175401D01*
X87063Y175322D01*
X86992Y175247D01*
X86984Y175229D01*
X86971Y175214D01*
X86932Y175117D01*
X86888Y175024D01*
X86886Y175004D01*
X86879Y174986D01*
X86860Y174819D01*
X86860Y170593D01*
X85074Y168807D01*
X46992Y168807D01*
G37*
%LPD*%
%LPC*%
G36*
X100512Y26636D02*
X100512Y26636D01*
X96965Y28106D01*
X94249Y30821D01*
X92780Y34369D01*
X92780Y51417D01*
X94249Y54965D01*
X96965Y57680D01*
X100512Y59150D01*
X104353Y59150D01*
X107900Y57680D01*
X110616Y54965D01*
X112085Y51417D01*
X112085Y34369D01*
X110616Y30821D01*
X107900Y28106D01*
X104353Y26636D01*
X100512Y26636D01*
G37*
%LPD*%
D10*
X128680Y197254D03*
D11*
X66033Y189634D03*
D12*
X89738Y188365D03*
D13*
X175242Y187941D03*
D14*
X191751Y189211D03*
D15*
X118945Y121485D03*
D16*
X137146Y121485D03*
D17*
X135030Y129104D03*
D18*
X120638Y129527D03*
D19*
X57568Y121061D03*
D20*
X127834Y159157D03*
D21*
X127834Y151115D03*
D22*
X74708Y131670D03*
D23*
X121079Y131535D03*
X134079Y131535D03*
X127579Y150035D03*
D22*
X127579Y187745D03*
D24*
X141799Y98347D03*
X113359Y98347D03*
D22*
X203460Y198144D03*
X55324Y197298D03*
D25*
X102433Y49497D02*
X102433Y36289D01*
X153233Y36289D02*
X153233Y49497D01*
X127833Y49497D02*
X127833Y36289D01*
D26*
X121079Y131535D02*
X74843Y131535D01*
X74708Y131670D01*
X121079Y131535D02*
X113359Y98347D01*
X127833Y42893D01*
X127579Y150035D02*
X127579Y187745D01*
X127579Y150035D02*
X148669Y150035D01*
X149103Y150030D01*
X149536Y150014D01*
X149970Y149988D01*
X150402Y149951D01*
X150833Y149904D01*
X151263Y149847D01*
X151692Y149779D01*
X152119Y149701D01*
X152543Y149612D01*
X152966Y149513D01*
X153386Y149404D01*
X153803Y149285D01*
X154217Y149156D01*
X154628Y149017D01*
X155036Y148868D01*
X155440Y148709D01*
X155840Y148541D01*
X156235Y148363D01*
X156627Y148175D01*
X157013Y147978D01*
X157395Y147772D01*
X157771Y147557D01*
X158143Y147332D01*
X158509Y147099D01*
X158869Y146857D01*
X159223Y146606D01*
X159571Y146347D01*
X159912Y146079D01*
X160247Y145803D01*
X160575Y145520D01*
X160897Y145228D01*
X161211Y144929D01*
X161518Y144622D01*
X161817Y144308D01*
X162109Y143986D01*
X162392Y143658D01*
X162668Y143323D01*
X162936Y142982D01*
X163195Y142634D01*
X163446Y142280D01*
X163688Y141920D01*
X163921Y141554D01*
X164146Y141182D01*
X164361Y140806D01*
X164567Y140424D01*
X164764Y140038D01*
X164952Y139646D01*
X165130Y139251D01*
X165298Y138851D01*
X165457Y138447D01*
X165606Y138039D01*
X165745Y137628D01*
X165874Y137214D01*
X165993Y136797D01*
X166102Y136377D01*
X166201Y135954D01*
X166290Y135530D01*
X166368Y135103D01*
X166436Y134674D01*
X166493Y134244D01*
X166540Y133813D01*
X166577Y133381D01*
X166603Y132947D01*
X166619Y132514D01*
X166624Y132080D01*
X166624Y56285D01*
X166625Y56285D02*
X166621Y55961D01*
X166609Y55638D01*
X166590Y55315D01*
X166562Y54992D01*
X166527Y54671D01*
X166484Y54350D01*
X166434Y54030D01*
X166376Y53712D01*
X166309Y53395D01*
X166236Y53080D01*
X166155Y52767D01*
X166066Y52456D01*
X165970Y52147D01*
X165866Y51840D01*
X165755Y51536D01*
X165636Y51235D01*
X165511Y50937D01*
X165378Y50642D01*
X165238Y50350D01*
X165091Y50061D01*
X164937Y49777D01*
X164776Y49496D01*
X164609Y49219D01*
X164435Y48946D01*
X164254Y48677D01*
X164067Y48413D01*
X163874Y48154D01*
X163674Y47899D01*
X163469Y47649D01*
X163257Y47404D01*
X163040Y47165D01*
X162816Y46931D01*
X162587Y46702D01*
X162353Y46478D01*
X162114Y46261D01*
X161869Y46049D01*
X161619Y45844D01*
X161364Y45644D01*
X161105Y45451D01*
X160841Y45264D01*
X160572Y45083D01*
X160299Y44909D01*
X160022Y44742D01*
X159741Y44581D01*
X159457Y44427D01*
X159168Y44280D01*
X158876Y44140D01*
X158581Y44007D01*
X158283Y43882D01*
X157982Y43763D01*
X157678Y43652D01*
X157371Y43548D01*
X157062Y43452D01*
X156751Y43363D01*
X156438Y43282D01*
X156123Y43209D01*
X155806Y43142D01*
X155488Y43084D01*
X155168Y43034D01*
X154847Y42991D01*
X154526Y42956D01*
X154203Y42928D01*
X153880Y42909D01*
X153557Y42897D01*
X153233Y42893D01*
X141799Y98347D02*
X134079Y131535D01*
X154432Y125984D01*
D27*
X154432Y125984D03*
D26*
X55324Y197298D02*
X28448Y168656D01*
D27*
X28448Y168656D03*
D26*
X203460Y198144D02*
X225552Y166624D01*
D27*
X225552Y166624D03*
M02*
