G04 EAGLE Gerber X2 export*
%TF.Part,Single*%
%TF.FileFunction,Profile,NP*%
%TF.FilePolarity,Positive*%
%TF.GenerationSoftware,Autodesk,EAGLE,8.7.0*%
%TF.CreationDate,2018-03-13T06:50:33Z*%
G75*
%MOMM*%
%FSLAX34Y34*%
%LPD*%
%AMOC8*
5,1,8,0,0,1.08239X$1,22.5*%
G01*
%ADD10C,0.254000*%


D10*
X267719Y126581D02*
X267634Y123145D01*
X267466Y119713D01*
X267213Y116286D01*
X266876Y112867D01*
X266455Y109456D01*
X265951Y106057D01*
X265364Y102671D01*
X264693Y99301D01*
X263940Y95948D01*
X263105Y92615D01*
X262189Y89303D01*
X261191Y86015D01*
X260114Y82752D01*
X258956Y79517D01*
X257719Y76311D01*
X256404Y73136D01*
X255012Y69994D01*
X253542Y66888D01*
X251997Y63819D01*
X250378Y60788D01*
X248684Y57798D01*
X246917Y54851D01*
X245079Y51948D01*
X243170Y49090D01*
X241191Y46281D01*
X239144Y43521D01*
X237030Y40812D01*
X234850Y38156D01*
X232606Y35554D01*
X230298Y33008D01*
X227928Y30519D01*
X225499Y28089D01*
X223010Y25720D01*
X220464Y23412D01*
X217862Y21167D01*
X215205Y18987D01*
X212497Y16873D01*
X209736Y14826D01*
X206927Y12848D01*
X204070Y10939D01*
X201167Y9100D01*
X198219Y7334D01*
X195229Y5640D01*
X192199Y4020D01*
X189129Y2475D01*
X186023Y1006D01*
X182882Y-387D01*
X179707Y-1702D01*
X176501Y-2939D01*
X173265Y-4096D01*
X170003Y-5174D01*
X166714Y-6172D01*
X163402Y-7088D01*
X160069Y-7923D01*
X156716Y-8676D01*
X153346Y-9346D01*
X149960Y-9934D01*
X146561Y-10438D01*
X143151Y-10859D01*
X139731Y-11195D01*
X136304Y-11448D01*
X132872Y-11617D01*
X129437Y-11701D01*
X126000Y-11701D01*
X122565Y-11617D01*
X119133Y-11448D01*
X115706Y-11195D01*
X112286Y-10859D01*
X108876Y-10438D01*
X105477Y-9934D01*
X102091Y-9346D01*
X98721Y-8676D01*
X95368Y-7923D01*
X92035Y-7088D01*
X88723Y-6172D01*
X85435Y-5174D01*
X82172Y-4096D01*
X78936Y-2939D01*
X75730Y-1702D01*
X72556Y-387D01*
X69414Y1006D01*
X66308Y2475D01*
X63238Y4020D01*
X60208Y5640D01*
X57218Y7334D01*
X54270Y9100D01*
X51367Y10939D01*
X48510Y12848D01*
X45701Y14826D01*
X42941Y16873D01*
X40232Y18987D01*
X37575Y21167D01*
X34973Y23412D01*
X32427Y25720D01*
X29939Y28089D01*
X27509Y30519D01*
X25139Y33008D01*
X22832Y35554D01*
X20587Y38156D01*
X18407Y40812D01*
X16293Y43521D01*
X14246Y46281D01*
X12267Y49090D01*
X10358Y51948D01*
X8520Y54851D01*
X6753Y57798D01*
X5060Y60788D01*
X3440Y63819D01*
X1895Y66888D01*
X425Y69994D01*
X-967Y73136D01*
X-2282Y76311D01*
X-3519Y79517D01*
X-4676Y82752D01*
X-5754Y86015D01*
X-6752Y89303D01*
X-7668Y92615D01*
X-8503Y95948D01*
X-9256Y99301D01*
X-9927Y102671D01*
X-10514Y106057D01*
X-11018Y109456D01*
X-11439Y112867D01*
X-11776Y116286D01*
X-12029Y119713D01*
X-12197Y123145D01*
X-12281Y126581D01*
X-12281Y130017D01*
X-12197Y133452D01*
X-12029Y136884D01*
X-11776Y140311D01*
X-11439Y143731D01*
X-11018Y147142D01*
X-10514Y150541D01*
X-9927Y153926D01*
X-9256Y157297D01*
X-8503Y160649D01*
X-7668Y163983D01*
X-6752Y167295D01*
X-5754Y170583D01*
X-4676Y173846D01*
X-3519Y177081D01*
X-2282Y180287D01*
X-967Y183462D01*
X425Y186603D01*
X1895Y189710D01*
X3440Y192779D01*
X5060Y195810D01*
X6753Y198800D01*
X8520Y201747D01*
X10358Y204650D01*
X12267Y207507D01*
X14246Y210317D01*
X16293Y213077D01*
X18407Y215786D01*
X20587Y218442D01*
X22832Y221044D01*
X25139Y223590D01*
X27509Y226079D01*
X29939Y228509D01*
X32427Y230878D01*
X34973Y233186D01*
X37575Y235430D01*
X40232Y237610D01*
X42941Y239724D01*
X45701Y241771D01*
X48510Y243750D01*
X51367Y245659D01*
X54270Y247498D01*
X57218Y249264D01*
X60208Y250958D01*
X63238Y252578D01*
X66308Y254123D01*
X69414Y255592D01*
X72556Y256984D01*
X75730Y258299D01*
X78936Y259536D01*
X82172Y260694D01*
X85435Y261772D01*
X88723Y262769D01*
X92035Y263686D01*
X95368Y264521D01*
X98721Y265274D01*
X102091Y265944D01*
X105477Y266531D01*
X108876Y267036D01*
X112286Y267456D01*
X115706Y267793D01*
X119133Y268046D01*
X122565Y268215D01*
X126000Y268299D01*
X129437Y268299D01*
X132872Y268215D01*
X136304Y268046D01*
X139731Y267793D01*
X143151Y267456D01*
X146561Y267036D01*
X149960Y266531D01*
X153346Y265944D01*
X156716Y265274D01*
X160069Y264521D01*
X163402Y263686D01*
X166714Y262769D01*
X170003Y261772D01*
X173265Y260694D01*
X176501Y259536D01*
X179707Y258299D01*
X182882Y256984D01*
X186023Y255592D01*
X189129Y254123D01*
X192199Y252578D01*
X195229Y250958D01*
X198219Y249264D01*
X201167Y247498D01*
X204070Y245659D01*
X206927Y243750D01*
X209736Y241771D01*
X212497Y239724D01*
X215205Y237610D01*
X217862Y235430D01*
X220464Y233186D01*
X223010Y230878D01*
X225499Y228509D01*
X227928Y226079D01*
X230298Y223590D01*
X232606Y221044D01*
X234850Y218442D01*
X237030Y215786D01*
X239144Y213077D01*
X241191Y210317D01*
X243170Y207507D01*
X245079Y204650D01*
X246917Y201747D01*
X248684Y198800D01*
X250378Y195810D01*
X251997Y192779D01*
X253542Y189710D01*
X255012Y186603D01*
X256404Y183462D01*
X257719Y180287D01*
X258956Y177081D01*
X260114Y173846D01*
X261191Y170583D01*
X262189Y167295D01*
X263105Y163983D01*
X263940Y160649D01*
X264693Y157297D01*
X265364Y153926D01*
X265951Y150541D01*
X266455Y147142D01*
X266876Y143731D01*
X267213Y140311D01*
X267466Y136884D01*
X267634Y133452D01*
X267719Y130017D01*
X267719Y126581D01*
M02*
