G04 EAGLE Gerber X2 export*
%TF.Part,Single*%
%TF.FileFunction,Legend,Top,1*%
%TF.FilePolarity,Positive*%
%TF.GenerationSoftware,Autodesk,EAGLE,8.7.0*%
%TF.CreationDate,2018-03-12T13:44:09Z*%
G75*
%MOMM*%
%FSLAX34Y34*%
%LPD*%
%AMOC8*
5,1,8,0,0,1.08239X$1,22.5*%
G01*
%ADD10C,0.152400*%
%ADD11C,0.127000*%
%ADD12C,0.101600*%


D10*
X138053Y147014D02*
X138053Y136056D01*
X129225Y134556D02*
X125933Y134556D01*
X117105Y136056D02*
X117105Y147014D01*
X121350Y147014D01*
X133808Y147014D02*
X138053Y147014D01*
D11*
X148783Y59403D02*
X106883Y59403D01*
X103703Y31534D02*
X103986Y30951D01*
X104284Y30374D01*
X104595Y29805D01*
X104920Y29244D01*
X105259Y28691D01*
X105611Y28146D01*
X105976Y27610D01*
X106354Y27083D01*
X106745Y26566D01*
X107148Y26058D01*
X107564Y25560D01*
X107991Y25072D01*
X108430Y24595D01*
X108881Y24128D01*
X109343Y23673D01*
X109816Y23229D01*
X110299Y22797D01*
X110793Y22376D01*
X111297Y21968D01*
X111811Y21572D01*
X112334Y21189D01*
X112866Y20818D01*
X113407Y20461D01*
X113957Y20117D01*
X114515Y19786D01*
X115081Y19469D01*
X115654Y19166D01*
X116235Y18877D01*
X116822Y18602D01*
X117416Y18341D01*
X118016Y18095D01*
X118622Y17864D01*
X119234Y17647D01*
X119850Y17446D01*
X120471Y17259D01*
X121097Y17088D01*
X121726Y16932D01*
X122359Y16791D01*
X122996Y16665D01*
X123635Y16556D01*
X124276Y16461D01*
X124920Y16383D01*
X125566Y16320D01*
X126213Y16272D01*
X126860Y16241D01*
X127509Y16225D01*
X128157Y16225D01*
X128806Y16241D01*
X129453Y16272D01*
X130100Y16320D01*
X130746Y16383D01*
X131390Y16461D01*
X132031Y16556D01*
X132670Y16665D01*
X133307Y16791D01*
X133940Y16932D01*
X134569Y17088D01*
X135195Y17259D01*
X135816Y17446D01*
X136432Y17647D01*
X137044Y17864D01*
X137650Y18095D01*
X138250Y18341D01*
X138844Y18602D01*
X139431Y18877D01*
X140012Y19166D01*
X140585Y19469D01*
X141151Y19786D01*
X141709Y20117D01*
X142259Y20461D01*
X142800Y20818D01*
X143332Y21189D01*
X143855Y21572D01*
X144369Y21968D01*
X144873Y22376D01*
X145367Y22797D01*
X145850Y23229D01*
X146323Y23673D01*
X146785Y24128D01*
X147236Y24595D01*
X147675Y25072D01*
X148102Y25560D01*
X148518Y26058D01*
X148921Y26566D01*
X149312Y27083D01*
X149690Y27610D01*
X150055Y28146D01*
X150407Y28691D01*
X150746Y29244D01*
X151071Y29805D01*
X151382Y30374D01*
X151680Y30951D01*
X151963Y31534D01*
X151967Y54252D02*
X151702Y54798D01*
X151425Y55338D01*
X151136Y55871D01*
X150834Y56398D01*
X150521Y56918D01*
X150196Y57431D01*
X149859Y57936D01*
X149511Y58433D01*
X149152Y58922D01*
X148782Y59403D01*
X141873Y44163D02*
X139193Y44163D01*
X116473Y44163D02*
X113793Y44163D01*
X103585Y54011D02*
X103856Y54584D01*
X104141Y55150D01*
X104438Y55709D01*
X104749Y56261D01*
X105074Y56805D01*
X105410Y57341D01*
X105760Y57870D01*
X106122Y58390D01*
X106496Y58901D01*
X106882Y59403D01*
D12*
X106395Y68033D02*
X106393Y68127D01*
X106387Y68222D01*
X106377Y68316D01*
X106364Y68409D01*
X106346Y68502D01*
X106325Y68594D01*
X106300Y68685D01*
X106271Y68775D01*
X106239Y68864D01*
X106202Y68951D01*
X106163Y69037D01*
X106119Y69121D01*
X106073Y69203D01*
X106023Y69283D01*
X105969Y69361D01*
X105913Y69437D01*
X105853Y69510D01*
X105791Y69581D01*
X105725Y69649D01*
X105657Y69715D01*
X105586Y69777D01*
X105513Y69837D01*
X105437Y69893D01*
X105359Y69947D01*
X105279Y69997D01*
X105197Y70043D01*
X105113Y70087D01*
X105027Y70126D01*
X104940Y70163D01*
X104851Y70195D01*
X104761Y70224D01*
X104670Y70249D01*
X104578Y70270D01*
X104485Y70288D01*
X104392Y70301D01*
X104298Y70311D01*
X104203Y70317D01*
X104109Y70319D01*
X104003Y70317D01*
X103898Y70311D01*
X103793Y70302D01*
X103688Y70289D01*
X103584Y70272D01*
X103481Y70251D01*
X103378Y70227D01*
X103276Y70198D01*
X103176Y70167D01*
X103076Y70131D01*
X102978Y70093D01*
X102882Y70050D01*
X102786Y70004D01*
X102693Y69955D01*
X102602Y69903D01*
X102512Y69847D01*
X102424Y69788D01*
X102339Y69726D01*
X102256Y69661D01*
X102175Y69593D01*
X102097Y69522D01*
X102022Y69448D01*
X101949Y69372D01*
X101879Y69293D01*
X101812Y69212D01*
X101747Y69128D01*
X101686Y69042D01*
X101628Y68954D01*
X101573Y68864D01*
X101522Y68772D01*
X101473Y68678D01*
X101428Y68582D01*
X101387Y68485D01*
X101349Y68387D01*
X101315Y68287D01*
X105633Y66255D02*
X105700Y66322D01*
X105765Y66391D01*
X105827Y66463D01*
X105886Y66536D01*
X105942Y66613D01*
X105996Y66691D01*
X106046Y66771D01*
X106093Y66853D01*
X106137Y66937D01*
X106177Y67023D01*
X106215Y67110D01*
X106249Y67198D01*
X106279Y67288D01*
X106306Y67378D01*
X106330Y67470D01*
X106350Y67563D01*
X106366Y67656D01*
X106379Y67750D01*
X106388Y67844D01*
X106393Y67938D01*
X106395Y68033D01*
X105633Y66255D02*
X101315Y61175D01*
X106395Y61175D01*
X110764Y61175D02*
X110764Y70319D01*
X115844Y61175D01*
X115844Y70319D01*
X123007Y70319D02*
X123101Y70317D01*
X123196Y70311D01*
X123290Y70301D01*
X123383Y70288D01*
X123476Y70270D01*
X123568Y70249D01*
X123659Y70224D01*
X123749Y70195D01*
X123838Y70163D01*
X123925Y70126D01*
X124011Y70087D01*
X124095Y70043D01*
X124177Y69997D01*
X124257Y69947D01*
X124335Y69893D01*
X124411Y69837D01*
X124484Y69777D01*
X124555Y69715D01*
X124623Y69649D01*
X124689Y69581D01*
X124751Y69510D01*
X124811Y69437D01*
X124867Y69361D01*
X124921Y69283D01*
X124971Y69203D01*
X125017Y69121D01*
X125061Y69037D01*
X125100Y68951D01*
X125137Y68864D01*
X125169Y68775D01*
X125198Y68685D01*
X125223Y68594D01*
X125244Y68502D01*
X125262Y68409D01*
X125275Y68316D01*
X125285Y68222D01*
X125291Y68127D01*
X125293Y68033D01*
X123007Y70319D02*
X122901Y70317D01*
X122796Y70311D01*
X122691Y70302D01*
X122586Y70289D01*
X122482Y70272D01*
X122379Y70251D01*
X122276Y70227D01*
X122174Y70198D01*
X122074Y70167D01*
X121974Y70131D01*
X121876Y70093D01*
X121780Y70050D01*
X121684Y70004D01*
X121591Y69955D01*
X121500Y69903D01*
X121410Y69847D01*
X121322Y69788D01*
X121237Y69726D01*
X121154Y69661D01*
X121073Y69593D01*
X120995Y69522D01*
X120920Y69448D01*
X120847Y69372D01*
X120777Y69293D01*
X120710Y69212D01*
X120645Y69128D01*
X120584Y69042D01*
X120526Y68954D01*
X120471Y68864D01*
X120420Y68772D01*
X120371Y68678D01*
X120326Y68582D01*
X120285Y68485D01*
X120247Y68387D01*
X120213Y68287D01*
X124530Y66255D02*
X124597Y66322D01*
X124662Y66391D01*
X124724Y66463D01*
X124783Y66536D01*
X124839Y66613D01*
X124893Y66691D01*
X124943Y66771D01*
X124990Y66853D01*
X125034Y66937D01*
X125074Y67023D01*
X125112Y67110D01*
X125146Y67198D01*
X125176Y67288D01*
X125203Y67378D01*
X125227Y67470D01*
X125247Y67563D01*
X125263Y67656D01*
X125276Y67750D01*
X125285Y67844D01*
X125290Y67938D01*
X125292Y68033D01*
X124531Y66255D02*
X120213Y61175D01*
X125293Y61175D01*
X134437Y68033D02*
X134435Y68127D01*
X134429Y68222D01*
X134419Y68316D01*
X134406Y68409D01*
X134388Y68502D01*
X134367Y68594D01*
X134342Y68685D01*
X134313Y68775D01*
X134281Y68864D01*
X134244Y68951D01*
X134205Y69037D01*
X134161Y69121D01*
X134115Y69203D01*
X134065Y69283D01*
X134011Y69361D01*
X133955Y69437D01*
X133895Y69510D01*
X133833Y69581D01*
X133767Y69649D01*
X133699Y69715D01*
X133628Y69777D01*
X133555Y69837D01*
X133479Y69893D01*
X133401Y69947D01*
X133321Y69997D01*
X133239Y70043D01*
X133155Y70087D01*
X133069Y70126D01*
X132982Y70163D01*
X132893Y70195D01*
X132803Y70224D01*
X132712Y70249D01*
X132620Y70270D01*
X132527Y70288D01*
X132434Y70301D01*
X132340Y70311D01*
X132245Y70317D01*
X132151Y70319D01*
X132045Y70317D01*
X131940Y70311D01*
X131835Y70302D01*
X131730Y70289D01*
X131626Y70272D01*
X131523Y70251D01*
X131420Y70227D01*
X131318Y70198D01*
X131218Y70167D01*
X131118Y70131D01*
X131020Y70093D01*
X130924Y70050D01*
X130828Y70004D01*
X130735Y69955D01*
X130644Y69903D01*
X130554Y69847D01*
X130466Y69788D01*
X130381Y69726D01*
X130298Y69661D01*
X130217Y69593D01*
X130139Y69522D01*
X130064Y69448D01*
X129991Y69372D01*
X129921Y69293D01*
X129854Y69212D01*
X129789Y69128D01*
X129728Y69042D01*
X129670Y68954D01*
X129615Y68864D01*
X129564Y68772D01*
X129515Y68678D01*
X129470Y68582D01*
X129429Y68485D01*
X129391Y68387D01*
X129357Y68287D01*
X133674Y66255D02*
X133741Y66322D01*
X133806Y66391D01*
X133868Y66463D01*
X133927Y66536D01*
X133983Y66613D01*
X134037Y66691D01*
X134087Y66771D01*
X134134Y66853D01*
X134178Y66937D01*
X134218Y67023D01*
X134256Y67110D01*
X134290Y67198D01*
X134320Y67288D01*
X134347Y67378D01*
X134371Y67470D01*
X134391Y67563D01*
X134407Y67656D01*
X134420Y67750D01*
X134429Y67844D01*
X134434Y67938D01*
X134436Y68033D01*
X133675Y66255D02*
X129357Y61175D01*
X134437Y61175D01*
X143581Y68033D02*
X143579Y68127D01*
X143573Y68222D01*
X143563Y68316D01*
X143550Y68409D01*
X143532Y68502D01*
X143511Y68594D01*
X143486Y68685D01*
X143457Y68775D01*
X143425Y68864D01*
X143388Y68951D01*
X143349Y69037D01*
X143305Y69121D01*
X143259Y69203D01*
X143209Y69283D01*
X143155Y69361D01*
X143099Y69437D01*
X143039Y69510D01*
X142977Y69581D01*
X142911Y69649D01*
X142843Y69715D01*
X142772Y69777D01*
X142699Y69837D01*
X142623Y69893D01*
X142545Y69947D01*
X142465Y69997D01*
X142383Y70043D01*
X142299Y70087D01*
X142213Y70126D01*
X142126Y70163D01*
X142037Y70195D01*
X141947Y70224D01*
X141856Y70249D01*
X141764Y70270D01*
X141671Y70288D01*
X141578Y70301D01*
X141484Y70311D01*
X141389Y70317D01*
X141295Y70319D01*
X141189Y70317D01*
X141084Y70311D01*
X140979Y70302D01*
X140874Y70289D01*
X140770Y70272D01*
X140667Y70251D01*
X140564Y70227D01*
X140462Y70198D01*
X140362Y70167D01*
X140262Y70131D01*
X140164Y70093D01*
X140068Y70050D01*
X139972Y70004D01*
X139879Y69955D01*
X139788Y69903D01*
X139698Y69847D01*
X139610Y69788D01*
X139525Y69726D01*
X139442Y69661D01*
X139361Y69593D01*
X139283Y69522D01*
X139208Y69448D01*
X139135Y69372D01*
X139065Y69293D01*
X138998Y69212D01*
X138933Y69128D01*
X138872Y69042D01*
X138814Y68954D01*
X138759Y68864D01*
X138708Y68772D01*
X138659Y68678D01*
X138614Y68582D01*
X138573Y68485D01*
X138535Y68387D01*
X138501Y68287D01*
X142818Y66255D02*
X142885Y66322D01*
X142950Y66391D01*
X143012Y66463D01*
X143071Y66536D01*
X143127Y66613D01*
X143181Y66691D01*
X143231Y66771D01*
X143278Y66853D01*
X143322Y66937D01*
X143362Y67023D01*
X143400Y67110D01*
X143434Y67198D01*
X143464Y67288D01*
X143491Y67378D01*
X143515Y67470D01*
X143535Y67563D01*
X143551Y67656D01*
X143564Y67750D01*
X143573Y67844D01*
X143578Y67938D01*
X143580Y68033D01*
X142819Y66255D02*
X138501Y61175D01*
X143581Y61175D01*
X152725Y68033D02*
X152723Y68127D01*
X152717Y68222D01*
X152707Y68316D01*
X152694Y68409D01*
X152676Y68502D01*
X152655Y68594D01*
X152630Y68685D01*
X152601Y68775D01*
X152569Y68864D01*
X152532Y68951D01*
X152493Y69037D01*
X152449Y69121D01*
X152403Y69203D01*
X152353Y69283D01*
X152299Y69361D01*
X152243Y69437D01*
X152183Y69510D01*
X152121Y69581D01*
X152055Y69649D01*
X151987Y69715D01*
X151916Y69777D01*
X151843Y69837D01*
X151767Y69893D01*
X151689Y69947D01*
X151609Y69997D01*
X151527Y70043D01*
X151443Y70087D01*
X151357Y70126D01*
X151270Y70163D01*
X151181Y70195D01*
X151091Y70224D01*
X151000Y70249D01*
X150908Y70270D01*
X150815Y70288D01*
X150722Y70301D01*
X150628Y70311D01*
X150533Y70317D01*
X150439Y70319D01*
X150333Y70317D01*
X150228Y70311D01*
X150123Y70302D01*
X150018Y70289D01*
X149914Y70272D01*
X149811Y70251D01*
X149708Y70227D01*
X149606Y70198D01*
X149506Y70167D01*
X149406Y70131D01*
X149308Y70093D01*
X149212Y70050D01*
X149116Y70004D01*
X149023Y69955D01*
X148932Y69903D01*
X148842Y69847D01*
X148754Y69788D01*
X148669Y69726D01*
X148586Y69661D01*
X148505Y69593D01*
X148427Y69522D01*
X148352Y69448D01*
X148279Y69372D01*
X148209Y69293D01*
X148142Y69212D01*
X148077Y69128D01*
X148016Y69042D01*
X147958Y68954D01*
X147903Y68864D01*
X147852Y68772D01*
X147803Y68678D01*
X147758Y68582D01*
X147717Y68485D01*
X147679Y68387D01*
X147645Y68287D01*
X151962Y66255D02*
X152029Y66322D01*
X152094Y66391D01*
X152156Y66463D01*
X152215Y66536D01*
X152271Y66613D01*
X152325Y66691D01*
X152375Y66771D01*
X152422Y66853D01*
X152466Y66937D01*
X152506Y67023D01*
X152544Y67110D01*
X152578Y67198D01*
X152608Y67288D01*
X152635Y67378D01*
X152659Y67470D01*
X152679Y67563D01*
X152695Y67656D01*
X152708Y67750D01*
X152717Y67844D01*
X152722Y67938D01*
X152724Y68033D01*
X151963Y66255D02*
X147645Y61175D01*
X152725Y61175D01*
M02*
