G04 EAGLE Gerber X2 export*
%TF.Part,Single*%
%TF.FileFunction,Soldermask,Top,1*%
%TF.FilePolarity,Negative*%
%TF.GenerationSoftware,Autodesk,EAGLE,8.7.0*%
%TF.CreationDate,2018-03-13T06:50:33Z*%
G75*
%MOMM*%
%FSLAX34Y34*%
%LPD*%
%AMOC8*
5,1,8,0,0,1.08239X$1,22.5*%
G01*
%ADD10R,3.860800X4.064000*%
%ADD11R,2.032000X2.438400*%
%ADD12R,4.267200X4.064000*%
%ADD13R,1.828800X2.235200*%
%ADD14R,5.283200X5.080000*%
%ADD15C,0.914400*%
%ADD16R,1.777822X1.015897*%
%ADD17R,2.133600X1.219200*%
%ADD18R,0.838200X1.473200*%
%ADD19R,0.803200X0.753200*%
%ADD20R,1.803200X2.006200*%
%ADD21C,1.524000*%


D10*
X66040Y188129D03*
D11*
X93472Y187283D03*
D12*
X128185Y189485D03*
D13*
X164761Y186267D03*
D10*
X191770Y187367D03*
D14*
X50123Y114978D03*
D15*
X3810Y128270D02*
X3847Y131306D01*
X3959Y134340D01*
X4145Y137370D01*
X4406Y140395D01*
X4740Y143412D01*
X5149Y146420D01*
X5631Y149418D01*
X6187Y152402D01*
X6816Y155372D01*
X7517Y158326D01*
X8291Y161262D01*
X9136Y164178D01*
X10053Y167072D01*
X11041Y169943D01*
X12099Y172788D01*
X13226Y175607D01*
X14422Y178398D01*
X15686Y181158D01*
X17018Y183886D01*
X18416Y186581D01*
X19880Y189241D01*
X21409Y191863D01*
X23001Y194448D01*
X24657Y196993D01*
X26374Y199496D01*
X28153Y201957D01*
X29991Y204373D01*
X31888Y206743D01*
X33843Y209066D01*
X35854Y211340D01*
X37920Y213565D01*
X40040Y215738D01*
X42213Y217858D01*
X44438Y219924D01*
X46712Y221935D01*
X49035Y223890D01*
X51405Y225787D01*
X53821Y227625D01*
X56282Y229404D01*
X58785Y231121D01*
X61330Y232777D01*
X63915Y234369D01*
X66537Y235898D01*
X69197Y237362D01*
X71892Y238760D01*
X74620Y240092D01*
X77380Y241356D01*
X80171Y242552D01*
X82990Y243679D01*
X85835Y244737D01*
X88706Y245725D01*
X91600Y246642D01*
X94516Y247487D01*
X97452Y248261D01*
X100406Y248962D01*
X103376Y249591D01*
X106360Y250147D01*
X109358Y250629D01*
X112366Y251038D01*
X115383Y251372D01*
X118408Y251633D01*
X121438Y251819D01*
X124472Y251931D01*
X127508Y251968D01*
X130544Y251931D01*
X133578Y251819D01*
X136608Y251633D01*
X139633Y251372D01*
X142650Y251038D01*
X145658Y250629D01*
X148656Y250147D01*
X151640Y249591D01*
X154610Y248962D01*
X157564Y248261D01*
X160500Y247487D01*
X163416Y246642D01*
X166310Y245725D01*
X169181Y244737D01*
X172026Y243679D01*
X174845Y242552D01*
X177636Y241356D01*
X180396Y240092D01*
X183124Y238760D01*
X185819Y237362D01*
X188479Y235898D01*
X191101Y234369D01*
X193686Y232777D01*
X196231Y231121D01*
X198734Y229404D01*
X201195Y227625D01*
X203611Y225787D01*
X205981Y223890D01*
X208304Y221935D01*
X210578Y219924D01*
X212803Y217858D01*
X214976Y215738D01*
X217096Y213565D01*
X219162Y211340D01*
X221173Y209066D01*
X223128Y206743D01*
X225025Y204373D01*
X226863Y201957D01*
X228642Y199496D01*
X230359Y196993D01*
X232015Y194448D01*
X233607Y191863D01*
X235136Y189241D01*
X236600Y186581D01*
X237998Y183886D01*
X239330Y181158D01*
X240594Y178398D01*
X241790Y175607D01*
X242917Y172788D01*
X243975Y169943D01*
X244963Y167072D01*
X245880Y164178D01*
X246725Y161262D01*
X247499Y158326D01*
X248200Y155372D01*
X248829Y152402D01*
X249385Y149418D01*
X249867Y146420D01*
X250276Y143412D01*
X250610Y140395D01*
X250871Y137370D01*
X251057Y134340D01*
X251169Y131306D01*
X251206Y128270D01*
X251169Y125234D01*
X251057Y122200D01*
X250871Y119170D01*
X250610Y116145D01*
X250276Y113128D01*
X249867Y110120D01*
X249385Y107122D01*
X248829Y104138D01*
X248200Y101168D01*
X247499Y98214D01*
X246725Y95278D01*
X245880Y92362D01*
X244963Y89468D01*
X243975Y86597D01*
X242917Y83752D01*
X241790Y80933D01*
X240594Y78142D01*
X239330Y75382D01*
X237998Y72654D01*
X236600Y69959D01*
X235136Y67299D01*
X233607Y64677D01*
X232015Y62092D01*
X230359Y59547D01*
X228642Y57044D01*
X226863Y54583D01*
X225025Y52167D01*
X223128Y49797D01*
X221173Y47474D01*
X219162Y45200D01*
X217096Y42975D01*
X214976Y40802D01*
X212803Y38682D01*
X210578Y36616D01*
X208304Y34605D01*
X205981Y32650D01*
X203611Y30753D01*
X201195Y28915D01*
X198734Y27136D01*
X196231Y25419D01*
X193686Y23763D01*
X191101Y22171D01*
X188479Y20642D01*
X185819Y19178D01*
X183124Y17780D01*
X180396Y16448D01*
X177636Y15184D01*
X174845Y13988D01*
X172026Y12861D01*
X169181Y11803D01*
X166310Y10815D01*
X163416Y9898D01*
X160500Y9053D01*
X157564Y8279D01*
X154610Y7578D01*
X151640Y6949D01*
X148656Y6393D01*
X145658Y5911D01*
X142650Y5502D01*
X139633Y5168D01*
X136608Y4907D01*
X133578Y4721D01*
X130544Y4609D01*
X127508Y4572D01*
X124472Y4609D01*
X121438Y4721D01*
X118408Y4907D01*
X115383Y5168D01*
X112366Y5502D01*
X109358Y5911D01*
X106360Y6393D01*
X103376Y6949D01*
X100406Y7578D01*
X97452Y8279D01*
X94516Y9053D01*
X91600Y9898D01*
X88706Y10815D01*
X85835Y11803D01*
X82990Y12861D01*
X80171Y13988D01*
X77380Y15184D01*
X74620Y16448D01*
X71892Y17780D01*
X69197Y19178D01*
X66537Y20642D01*
X63915Y22171D01*
X61330Y23763D01*
X58785Y25419D01*
X56282Y27136D01*
X53821Y28915D01*
X51405Y30753D01*
X49035Y32650D01*
X46712Y34605D01*
X44438Y36616D01*
X42213Y38682D01*
X40040Y40802D01*
X37920Y42975D01*
X35854Y45200D01*
X33843Y47474D01*
X31888Y49797D01*
X29991Y52167D01*
X28153Y54583D01*
X26374Y57044D01*
X24657Y59547D01*
X23001Y62092D01*
X21409Y64677D01*
X19880Y67299D01*
X18416Y69959D01*
X17018Y72654D01*
X15686Y75382D01*
X14422Y78142D01*
X13226Y80933D01*
X12099Y83752D01*
X11041Y86597D01*
X10053Y89468D01*
X9136Y92362D01*
X8291Y95278D01*
X7517Y98214D01*
X6816Y101168D01*
X6187Y104138D01*
X5631Y107122D01*
X5149Y110120D01*
X4740Y113128D01*
X4406Y116145D01*
X4145Y119170D01*
X3959Y122200D01*
X3847Y125234D01*
X3810Y128270D01*
D16*
X115558Y110902D03*
X135030Y110902D03*
D17*
X125476Y140208D03*
D18*
X67089Y111352D03*
D19*
X118539Y118496D03*
X131539Y118496D03*
X125039Y136996D03*
D18*
X127579Y180973D03*
D20*
X141799Y90219D03*
X113359Y90219D03*
D18*
X203460Y198144D03*
X56171Y187985D03*
D21*
X99046Y46111D02*
X99046Y32903D01*
X149846Y32903D02*
X149846Y46111D01*
X124446Y46111D02*
X124446Y32903D01*
M02*
