G04 EAGLE Gerber X2 export*
%TF.Part,Single*%
%TF.FileFunction,Soldermask,Top,1*%
%TF.FilePolarity,Negative*%
%TF.GenerationSoftware,Autodesk,EAGLE,8.7.0*%
%TF.CreationDate,2018-03-12T13:44:09Z*%
G75*
%MOMM*%
%FSLAX34Y34*%
%LPD*%
%AMOC8*
5,1,8,0,0,1.08239X$1,22.5*%
G01*
%ADD10R,3.860800X4.064000*%
%ADD11R,2.032000X2.438400*%
%ADD12R,4.267200X4.064000*%
%ADD13R,1.828800X2.235200*%
%ADD14R,5.283200X5.080000*%
%ADD15R,2.032000X1.422400*%
%ADD16R,1.219200X1.016000*%
%ADD17R,3.657600X1.422400*%
%ADD18R,2.844800X0.609600*%
%ADD19C,0.914400*%
%ADD20R,0.838200X1.473200*%
%ADD21R,0.803200X0.753200*%
%ADD22R,1.803200X2.006200*%
%ADD23C,1.524000*%
%ADD24C,0.959600*%


D10*
X66040Y188976D03*
D11*
X93472Y188976D03*
D12*
X129032Y197104D03*
D13*
X165608Y187960D03*
D10*
X192024Y188976D03*
D14*
X56896Y120904D03*
D15*
X128016Y159512D03*
D16*
X128016Y149352D03*
D17*
X128016Y120904D03*
D18*
X128016Y131064D03*
D19*
X4064Y128270D02*
X4101Y131299D01*
X4213Y134327D01*
X4398Y137351D01*
X4658Y140370D01*
X4992Y143381D01*
X5400Y146383D01*
X5881Y149374D01*
X6436Y152353D01*
X7063Y155317D01*
X7763Y158264D01*
X8536Y161194D01*
X9379Y164104D01*
X10294Y166992D01*
X11280Y169857D01*
X12336Y172697D01*
X13461Y175510D01*
X14654Y178295D01*
X15916Y181049D01*
X17245Y183772D01*
X18640Y186461D01*
X20101Y189115D01*
X21627Y191733D01*
X23216Y194312D01*
X24868Y196852D01*
X26582Y199350D01*
X28357Y201806D01*
X30191Y204217D01*
X32084Y206582D01*
X34035Y208900D01*
X36042Y211170D01*
X38104Y213390D01*
X40220Y215558D01*
X42388Y217674D01*
X44608Y219736D01*
X46878Y221743D01*
X49196Y223694D01*
X51561Y225587D01*
X53972Y227421D01*
X56428Y229196D01*
X58926Y230910D01*
X61466Y232562D01*
X64045Y234151D01*
X66663Y235677D01*
X69317Y237138D01*
X72006Y238533D01*
X74729Y239862D01*
X77483Y241124D01*
X80268Y242317D01*
X83081Y243442D01*
X85921Y244498D01*
X88786Y245484D01*
X91674Y246399D01*
X94584Y247242D01*
X97514Y248015D01*
X100461Y248715D01*
X103425Y249342D01*
X106404Y249897D01*
X109395Y250378D01*
X112397Y250786D01*
X115408Y251120D01*
X118427Y251380D01*
X121451Y251565D01*
X124479Y251677D01*
X127508Y251714D01*
X130537Y251677D01*
X133565Y251565D01*
X136589Y251380D01*
X139608Y251120D01*
X142619Y250786D01*
X145621Y250378D01*
X148612Y249897D01*
X151591Y249342D01*
X154555Y248715D01*
X157502Y248015D01*
X160432Y247242D01*
X163342Y246399D01*
X166230Y245484D01*
X169095Y244498D01*
X171935Y243442D01*
X174748Y242317D01*
X177533Y241124D01*
X180287Y239862D01*
X183010Y238533D01*
X185699Y237138D01*
X188353Y235677D01*
X190971Y234151D01*
X193550Y232562D01*
X196090Y230910D01*
X198588Y229196D01*
X201044Y227421D01*
X203455Y225587D01*
X205820Y223694D01*
X208138Y221743D01*
X210408Y219736D01*
X212628Y217674D01*
X214796Y215558D01*
X216912Y213390D01*
X218974Y211170D01*
X220981Y208900D01*
X222932Y206582D01*
X224825Y204217D01*
X226659Y201806D01*
X228434Y199350D01*
X230148Y196852D01*
X231800Y194312D01*
X233389Y191733D01*
X234915Y189115D01*
X236376Y186461D01*
X237771Y183772D01*
X239100Y181049D01*
X240362Y178295D01*
X241555Y175510D01*
X242680Y172697D01*
X243736Y169857D01*
X244722Y166992D01*
X245637Y164104D01*
X246480Y161194D01*
X247253Y158264D01*
X247953Y155317D01*
X248580Y152353D01*
X249135Y149374D01*
X249616Y146383D01*
X250024Y143381D01*
X250358Y140370D01*
X250618Y137351D01*
X250803Y134327D01*
X250915Y131299D01*
X250952Y128270D01*
X250915Y125241D01*
X250803Y122213D01*
X250618Y119189D01*
X250358Y116170D01*
X250024Y113159D01*
X249616Y110157D01*
X249135Y107166D01*
X248580Y104187D01*
X247953Y101223D01*
X247253Y98276D01*
X246480Y95346D01*
X245637Y92436D01*
X244722Y89548D01*
X243736Y86683D01*
X242680Y83843D01*
X241555Y81030D01*
X240362Y78245D01*
X239100Y75491D01*
X237771Y72768D01*
X236376Y70079D01*
X234915Y67425D01*
X233389Y64807D01*
X231800Y62228D01*
X230148Y59688D01*
X228434Y57190D01*
X226659Y54734D01*
X224825Y52323D01*
X222932Y49958D01*
X220981Y47640D01*
X218974Y45370D01*
X216912Y43150D01*
X214796Y40982D01*
X212628Y38866D01*
X210408Y36804D01*
X208138Y34797D01*
X205820Y32846D01*
X203455Y30953D01*
X201044Y29119D01*
X198588Y27344D01*
X196090Y25630D01*
X193550Y23978D01*
X190971Y22389D01*
X188353Y20863D01*
X185699Y19402D01*
X183010Y18007D01*
X180287Y16678D01*
X177533Y15416D01*
X174748Y14223D01*
X171935Y13098D01*
X169095Y12042D01*
X166230Y11056D01*
X163342Y10141D01*
X160432Y9298D01*
X157502Y8525D01*
X154555Y7825D01*
X151591Y7198D01*
X148612Y6643D01*
X145621Y6162D01*
X142619Y5754D01*
X139608Y5420D01*
X136589Y5160D01*
X133565Y4975D01*
X130537Y4863D01*
X127508Y4826D01*
X124479Y4863D01*
X121451Y4975D01*
X118427Y5160D01*
X115408Y5420D01*
X112397Y5754D01*
X109395Y6162D01*
X106404Y6643D01*
X103425Y7198D01*
X100461Y7825D01*
X97514Y8525D01*
X94584Y9298D01*
X91674Y10141D01*
X88786Y11056D01*
X85921Y12042D01*
X83081Y13098D01*
X80268Y14223D01*
X77483Y15416D01*
X74729Y16678D01*
X72006Y18007D01*
X69317Y19402D01*
X66663Y20863D01*
X64045Y22389D01*
X61466Y23978D01*
X58926Y25630D01*
X56428Y27344D01*
X53972Y29119D01*
X51561Y30953D01*
X49196Y32846D01*
X46878Y34797D01*
X44608Y36804D01*
X42388Y38866D01*
X40220Y40982D01*
X38104Y43150D01*
X36042Y45370D01*
X34035Y47640D01*
X32084Y49958D01*
X30191Y52323D01*
X28357Y54734D01*
X26582Y57190D01*
X24868Y59688D01*
X23216Y62228D01*
X21627Y64807D01*
X20101Y67425D01*
X18640Y70079D01*
X17245Y72768D01*
X15916Y75491D01*
X14654Y78245D01*
X13461Y81030D01*
X12336Y83843D01*
X11280Y86683D01*
X10294Y89548D01*
X9379Y92436D01*
X8536Y95346D01*
X7763Y98276D01*
X7063Y101223D01*
X6436Y104187D01*
X5881Y107166D01*
X5400Y110157D01*
X4992Y113159D01*
X4658Y116170D01*
X4398Y119189D01*
X4213Y122213D01*
X4101Y125241D01*
X4064Y128270D01*
D20*
X74708Y131670D03*
D21*
X121079Y131535D03*
X134079Y131535D03*
X127579Y150035D03*
D20*
X127579Y187745D03*
D22*
X141799Y98347D03*
X113359Y98347D03*
D20*
X203460Y198144D03*
X55324Y197298D03*
D23*
X102433Y49497D02*
X102433Y36289D01*
X153233Y36289D02*
X153233Y49497D01*
X127833Y49497D02*
X127833Y36289D01*
D24*
X154432Y125984D03*
X28448Y168656D03*
X225552Y166624D03*
M02*
